<?xml version="1.0" encoding="UTF-8"?>
<svg xmlns="http://www.w3.org/2000/svg" width="99.949mm" height="99.949mm" viewBox="0.0 0.0 787.000 787.000" preserveAspectRatio="none" version="1.1">
  <title>Produce by Acme CAD Converter</title>
  <desc>Produce by Acme CAD Converter</desc>
<path d="M471.91 707.15L511.12 667.94"
fill="none" stroke="black" stroke-width="0.5"/>
<path d="M667.94 511.12L707.15 471.91"
fill="none" stroke="black" stroke-width="0.5"/>
<path d="M79.85 707.15L119.06 667.94"
fill="none" stroke="black" stroke-width="0.5"/>
<path d="M275.88 511.12L315.09 471.91"
fill="none" stroke="black" stroke-width="0.5"/>
<path d="M471.91 315.09L511.12 275.88"
fill="none" stroke="black" stroke-width="0.5"/>
<path d="M667.94 119.06L707.15 79.85"
fill="none" stroke="black" stroke-width="0.5"/>
<path d="M79.85 315.09L119.06 275.88"
fill="none" stroke="black" stroke-width="0.5"/>
<path d="M275.88 119.06L315.09 79.85"
fill="none" stroke="black" stroke-width="0.5"/>
<path d="M119.06 667.94L158.27 667.94"
fill="none" stroke="black" stroke-width="0.5"/>
<path d="M236.68 667.94L275.88 667.94"
fill="none" stroke="black" stroke-width="0.5"/>
<path d="M511.12 667.94L550.32 667.94"
fill="none" stroke="black" stroke-width="0.5"/>
<path d="M628.73 667.94L667.94 667.94"
fill="none" stroke="black" stroke-width="0.5"/>
<path d="M40.65 471.91L79.85 471.91"
fill="none" stroke="black" stroke-width="0.5"/>
<path d="M315.09 471.91L354.29 471.91"
fill="none" stroke="black" stroke-width="0.5"/>
<path d="M432.71 471.91L471.91 471.91"
fill="none" stroke="black" stroke-width="0.5"/>
<path d="M707.15 471.91L746.35 471.91"
fill="none" stroke="black" stroke-width="0.5"/>
<path d="M119.06 275.88L158.27 275.88"
fill="none" stroke="black" stroke-width="0.5"/>
<path d="M236.68 275.88L275.88 275.88"
fill="none" stroke="black" stroke-width="0.5"/>
<path d="M511.12 275.88L550.32 275.88"
fill="none" stroke="black" stroke-width="0.5"/>
<path d="M628.73 275.88L667.94 275.88"
fill="none" stroke="black" stroke-width="0.5"/>
<path d="M40.65 79.85L79.85 79.85"
fill="none" stroke="black" stroke-width="0.5"/>
<path d="M315.09 79.85L354.29 79.85"
fill="none" stroke="black" stroke-width="0.5"/>
<path d="M432.71 79.85L471.91 79.85"
fill="none" stroke="black" stroke-width="0.5"/>
<path d="M707.15 79.85L746.35 79.85"
fill="none" stroke="black" stroke-width="0.5"/>
<path d="M158.27 667.94L197.47 707.15"
fill="none" stroke="black" stroke-width="0.5"/>
<path d="M1.44 119.06L1.44 119.06"
fill="none" stroke="black" stroke-width="0.5"/>
<path d="M158.27 275.88L197.47 315.09"
fill="none" stroke="black" stroke-width="0.5"/>
<path d="M354.29 471.91L393.5 511.12"
fill="none" stroke="black" stroke-width="0.5"/>
<path d="M550.32 667.94L589.53 707.15"
fill="none" stroke="black" stroke-width="0.5"/>
<path d="M354.29 79.85L393.5 119.06"
fill="none" stroke="black" stroke-width="0.5"/>
<path d="M550.32 275.88L589.53 315.09"
fill="none" stroke="black" stroke-width="0.5"/>
<path d="M746.35 471.91L785.56 511.12"
fill="none" stroke="black" stroke-width="0.5"/>
<path d="M746.35 79.85L785.56 119.06"
fill="none" stroke="black" stroke-width="0.5"/>
<path d="M589.53 707.15L628.73 667.94"
fill="none" stroke="black" stroke-width="0.5"/>
<path d="M197.47 707.15L236.68 667.94"
fill="none" stroke="black" stroke-width="0.5"/>
<path d="M393.5 511.12L432.71 471.91"
fill="none" stroke="black" stroke-width="0.5"/>
<path d="M589.53 315.09L628.73 275.88"
fill="none" stroke="black" stroke-width="0.5"/>
<path d="M1.44 511.12L40.65 471.91"
fill="none" stroke="black" stroke-width="0.5"/>
<path d="M197.47 315.09L236.68 275.88"
fill="none" stroke="black" stroke-width="0.5"/>
<path d="M393.5 119.06L432.71 79.85"
fill="none" stroke="black" stroke-width="0.5"/>
<path d="M1.44 119.06L40.65 79.85"
fill="none" stroke="black" stroke-width="0.5"/>
<path d="M79.85 471.91L119.06 511.12"
fill="none" stroke="black" stroke-width="0.5"/>
<path d="M275.88 667.94L315.09 707.15"
fill="none" stroke="black" stroke-width="0.5"/>
<path d="M79.85 79.85L119.06 119.06"
fill="none" stroke="black" stroke-width="0.5"/>
<path d="M275.88 275.88L315.09 315.09"
fill="none" stroke="black" stroke-width="0.5"/>
<path d="M471.91 471.91L511.12 511.12"
fill="none" stroke="black" stroke-width="0.5"/>
<path d="M667.94 667.94L707.15 707.15"
fill="none" stroke="black" stroke-width="0.5"/>
<path d="M471.91 79.85L511.12 119.06"
fill="none" stroke="black" stroke-width="0.5"/>
<path d="M667.94 275.88L707.15 315.09"
fill="none" stroke="black" stroke-width="0.5"/>
</svg>
