<?xml version="1.0" encoding="UTF-8"?>
<svg xmlns="http://www.w3.org/2000/svg" width="99.949mm" height="99.949mm" viewBox="0.0 0.0 787.000 787.000" preserveAspectRatio="none" version="1.1">
  <title>Produce by Acme CAD Converter</title>
  <desc>Produce by Acme CAD Converter</desc>
<path d="M1.44 687.54L197.47 687.54"
fill="none" stroke="black" stroke-width="0.5"/>
<path d="M393.5 687.54L589.53 687.54"
fill="none" stroke="black" stroke-width="0.5"/>
<path d="M197.47 491.51L393.5 491.51"
fill="none" stroke="black" stroke-width="0.5"/>
<path d="M589.53 491.51L785.56 491.51"
fill="none" stroke="black" stroke-width="0.5"/>
<path d="M1.44 295.49L197.47 295.49"
fill="none" stroke="black" stroke-width="0.5"/>
<path d="M393.5 295.49L589.53 295.49"
fill="none" stroke="black" stroke-width="0.5"/>
<path d="M197.47 99.46L393.5 99.46"
fill="none" stroke="black" stroke-width="0.5"/>
<path d="M589.53 99.46L785.56 99.46"
fill="none" stroke="black" stroke-width="0.5"/>
<path d="M687.54 589.53L687.54 393.5"
fill="none" stroke="black" stroke-width="0.5"/>
<path d="M687.54 197.47L687.54 1.44"
fill="none" stroke="black" stroke-width="0.5"/>
<path d="M491.51 785.56L491.51 589.53"
fill="none" stroke="black" stroke-width="0.5"/>
<path d="M491.51 393.5L491.51 197.47"
fill="none" stroke="black" stroke-width="0.5"/>
<path d="M295.49 589.53L295.49 393.5"
fill="none" stroke="black" stroke-width="0.5"/>
<path d="M295.49 197.47L295.49 1.44"
fill="none" stroke="black" stroke-width="0.5"/>
<path d="M99.46 785.56L99.46 589.53"
fill="none" stroke="black" stroke-width="0.5"/>
<path d="M99.46 393.5L99.46 197.47"
fill="none" stroke="black" stroke-width="0.5"/>
</svg>
