<?xml version="1.0" encoding="UTF-8"?>
<svg xmlns="http://www.w3.org/2000/svg" width="99.949mm" height="99.949mm" viewBox="0.0 0.0 787.000 787.000" preserveAspectRatio="none" version="1.1">
  <title>Produce by Acme CAD Converter</title>
  <desc>Produce by Acme CAD Converter</desc>
<path d="M106.64 785.55L157.63 785.55"
fill="none" stroke="black" stroke-width="0.5"/>
<path d="M629.38 785.55L680.37 785.55"
fill="none" stroke="black" stroke-width="0.5"/>
<path d="M106.64 524.18L157.63 524.18"
fill="none" stroke="black" stroke-width="0.5"/>
<path d="M629.38 524.18L680.37 524.18"
fill="none" stroke="black" stroke-width="0.5"/>
<path d="M106.64 262.82L157.63 262.82"
fill="none" stroke="black" stroke-width="0.5"/>
<path d="M629.38 262.82L680.37 262.82"
fill="none" stroke="black" stroke-width="0.5"/>
<path d="M106.64 1.45L157.63 1.45"
fill="none" stroke="black" stroke-width="0.5"/>
<path d="M629.38 1.45L680.37 1.45"
fill="none" stroke="black" stroke-width="0.5"/>
<path d="M785.56 680.36L785.56 629.38"
fill="none" stroke="black" stroke-width="0.5"/>
<path d="M785.56 157.62L785.56 106.64"
fill="none" stroke="black" stroke-width="0.5"/>
<path d="M524.19 680.36L524.19 629.38"
fill="none" stroke="black" stroke-width="0.5"/>
<path d="M524.19 157.62L524.19 106.64"
fill="none" stroke="black" stroke-width="0.5"/>
<path d="M262.82 680.36L262.82 629.38"
fill="none" stroke="black" stroke-width="0.5"/>
<path d="M262.82 157.62L262.82 106.64"
fill="none" stroke="black" stroke-width="0.5"/>
<path d="M1.45 680.36L1.45 629.38"
fill="none" stroke="black" stroke-width="0.5"/>
<path d="M1.45 157.62L1.45 106.64"
fill="none" stroke="black" stroke-width="0.5"/>
<path d="M726.36 767.15L767.16 726.36"
fill="none" stroke="black" stroke-width="0.5"/>
<path d="M203.62 767.15L244.42 726.36"
fill="none" stroke="black" stroke-width="0.5"/>
<path d="M726.36 244.42L767.16 203.62"
fill="none" stroke="black" stroke-width="0.5"/>
<path d="M203.62 244.42L244.42 203.62"
fill="none" stroke="black" stroke-width="0.5"/>
<path d="M203.62 542.58L244.42 583.38"
fill="none" stroke="black" stroke-width="0.5"/>
<path d="M203.62 19.85L244.42 60.64"
fill="none" stroke="black" stroke-width="0.5"/>
<path d="M726.36 542.58L767.16 583.38"
fill="none" stroke="black" stroke-width="0.5"/>
<path d="M726.36 19.85L767.16 60.64"
fill="none" stroke="black" stroke-width="0.5"/>
<path d="M60.65 19.85L19.85 60.64"
fill="none" stroke="black" stroke-width="0.5"/>
<path d="M583.39 19.85L542.59 60.64"
fill="none" stroke="black" stroke-width="0.5"/>
<path d="M60.65 542.58L19.85 583.38"
fill="none" stroke="black" stroke-width="0.5"/>
<path d="M583.39 542.58L542.59 583.38"
fill="none" stroke="black" stroke-width="0.5"/>
<path d="M583.39 244.42L542.59 203.62"
fill="none" stroke="black" stroke-width="0.5"/>
<path d="M583.39 767.15L542.59 726.36"
fill="none" stroke="black" stroke-width="0.5"/>
<path d="M60.65 244.42L19.85 203.62"
fill="none" stroke="black" stroke-width="0.5"/>
<path d="M60.65 767.15L19.85 726.36"
fill="none" stroke="black" stroke-width="0.5"/>
<path d="M680.37 785.55L726.36 767.15"
fill="none" stroke="black" stroke-width="0.5"/>
<path d="M157.63 785.55L203.62 767.15"
fill="none" stroke="black" stroke-width="0.5"/>
<path d="M680.37 262.82L726.36 244.42"
fill="none" stroke="black" stroke-width="0.5"/>
<path d="M157.63 262.82L203.62 244.42"
fill="none" stroke="black" stroke-width="0.5"/>
<path d="M262.82 157.62L244.42 203.62"
fill="none" stroke="black" stroke-width="0.5"/>
<path d="M262.82 680.36L244.42 726.36"
fill="none" stroke="black" stroke-width="0.5"/>
<path d="M785.56 157.62L767.16 203.62"
fill="none" stroke="black" stroke-width="0.5"/>
<path d="M785.56 680.36L767.16 726.36"
fill="none" stroke="black" stroke-width="0.5"/>
<path d="M785.56 106.64L767.16 60.64"
fill="none" stroke="black" stroke-width="0.5"/>
<path d="M785.56 629.38L767.16 583.38"
fill="none" stroke="black" stroke-width="0.5"/>
<path d="M262.82 106.64L244.42 60.64"
fill="none" stroke="black" stroke-width="0.5"/>
<path d="M262.82 629.38L244.42 583.38"
fill="none" stroke="black" stroke-width="0.5"/>
<path d="M157.63 524.18L203.62 542.58"
fill="none" stroke="black" stroke-width="0.5"/>
<path d="M680.37 524.18L726.36 542.58"
fill="none" stroke="black" stroke-width="0.5"/>
<path d="M157.63 1.45L203.62 19.85"
fill="none" stroke="black" stroke-width="0.5"/>
<path d="M680.37 1.45L726.36 19.85"
fill="none" stroke="black" stroke-width="0.5"/>
<path d="M106.64 1.45L60.65 19.85"
fill="none" stroke="black" stroke-width="0.5"/>
<path d="M629.38 1.45L583.39 19.85"
fill="none" stroke="black" stroke-width="0.5"/>
<path d="M106.64 524.18L60.65 542.58"
fill="none" stroke="black" stroke-width="0.5"/>
<path d="M629.38 524.19L583.39 542.58"
fill="none" stroke="black" stroke-width="0.5"/>
<path d="M524.19 629.37L542.58 583.37"
fill="none" stroke="black" stroke-width="0.5"/>
<path d="M524.18 106.63L542.58 60.64"
fill="none" stroke="black" stroke-width="0.5"/>
<path d="M1.45 629.37L19.84 583.37"
fill="none" stroke="black" stroke-width="0.5"/>
<path d="M1.44 106.63L19.84 60.64"
fill="none" stroke="black" stroke-width="0.5"/>
<path d="M1.45 680.37L19.85 726.36"
fill="none" stroke="black" stroke-width="0.5"/>
<path d="M1.46 157.63L19.85 203.63"
fill="none" stroke="black" stroke-width="0.5"/>
<path d="M524.19 680.37L542.59 726.36"
fill="none" stroke="black" stroke-width="0.5"/>
<path d="M524.2 157.63L542.59 203.63"
fill="none" stroke="black" stroke-width="0.5"/>
<path d="M629.37 262.81L583.38 244.42"
fill="none" stroke="black" stroke-width="0.5"/>
<path d="M106.63 262.82L60.64 244.42"
fill="none" stroke="black" stroke-width="0.5"/>
<path d="M629.37 785.55L583.38 767.15"
fill="none" stroke="black" stroke-width="0.5"/>
<path d="M106.63 785.55L60.64 767.15"
fill="none" stroke="black" stroke-width="0.5"/>
</svg>
