<?xml version="1.0" encoding="UTF-8"?>
<svg xmlns="http://www.w3.org/2000/svg" width="99.949mm" height="99.949mm" viewBox="0.0 0.0 787.000 787.000" preserveAspectRatio="none" version="1.1">
  <title>Produce by Acme CAD Converter</title>
  <desc>Produce by Acme CAD Converter</desc>
<path d="M178.35 736.55L216.59 736.55"
fill="none" stroke="black" stroke-width="0.5"/>
<path d="M570.41 736.55L608.65 736.55"
fill="none" stroke="black" stroke-width="0.5"/>
<path d="M178.35 540.52L216.59 540.52"
fill="none" stroke="black" stroke-width="0.5"/>
<path d="M570.41 540.52L608.65 540.52"
fill="none" stroke="black" stroke-width="0.5"/>
<path d="M178.35 344.49L216.59 344.49"
fill="none" stroke="black" stroke-width="0.5"/>
<path d="M570.41 344.49L608.65 344.49"
fill="none" stroke="black" stroke-width="0.5"/>
<path d="M178.35 148.46L216.59 148.46"
fill="none" stroke="black" stroke-width="0.5"/>
<path d="M570.41 148.46L608.65 148.46"
fill="none" stroke="black" stroke-width="0.5"/>
<path d="M687.54 657.66L687.54 619.42"
fill="none" stroke="black" stroke-width="0.5"/>
<path d="M687.54 265.6L687.54 227.36"
fill="none" stroke="black" stroke-width="0.5"/>
<path d="M491.51 657.66L491.51 619.42"
fill="none" stroke="black" stroke-width="0.5"/>
<path d="M491.51 265.6L491.51 227.36"
fill="none" stroke="black" stroke-width="0.5"/>
<path d="M295.49 657.66L295.49 619.42"
fill="none" stroke="black" stroke-width="0.5"/>
<path d="M295.49 265.6L295.49 227.36"
fill="none" stroke="black" stroke-width="0.5"/>
<path d="M99.46 657.66L99.46 619.42"
fill="none" stroke="black" stroke-width="0.5"/>
<path d="M99.46 265.6L99.46 227.36"
fill="none" stroke="black" stroke-width="0.5"/>
<path d="M643.14 722.75L673.74 692.15"
fill="none" stroke="black" stroke-width="0.5"/>
<path d="M251.09 722.75L281.69 692.15"
fill="none" stroke="black" stroke-width="0.5"/>
<path d="M643.14 330.69L673.74 300.09"
fill="none" stroke="black" stroke-width="0.5"/>
<path d="M251.09 330.69L281.69 300.09"
fill="none" stroke="black" stroke-width="0.5"/>
<path d="M251.09 554.32L281.69 584.92"
fill="none" stroke="black" stroke-width="0.5"/>
<path d="M251.09 162.26L281.69 192.86"
fill="none" stroke="black" stroke-width="0.5"/>
<path d="M643.14 554.32L673.74 584.92"
fill="none" stroke="black" stroke-width="0.5"/>
<path d="M643.14 162.26L673.74 192.86"
fill="none" stroke="black" stroke-width="0.5"/>
<path d="M143.86 162.26L113.26 192.86"
fill="none" stroke="black" stroke-width="0.5"/>
<path d="M535.91 162.26L505.31 192.86"
fill="none" stroke="black" stroke-width="0.5"/>
<path d="M143.86 554.32L113.26 584.92"
fill="none" stroke="black" stroke-width="0.5"/>
<path d="M535.91 554.32L505.31 584.92"
fill="none" stroke="black" stroke-width="0.5"/>
<path d="M535.91 330.69L505.31 300.09"
fill="none" stroke="black" stroke-width="0.5"/>
<path d="M535.91 722.75L505.31 692.15"
fill="none" stroke="black" stroke-width="0.5"/>
<path d="M143.86 330.69L113.26 300.09"
fill="none" stroke="black" stroke-width="0.5"/>
<path d="M143.86 722.75L113.26 692.15"
fill="none" stroke="black" stroke-width="0.5"/>
<path d="M608.65 736.55L643.14 722.75"
fill="none" stroke="black" stroke-width="0.5"/>
<path d="M216.59 736.55L251.09 722.75"
fill="none" stroke="black" stroke-width="0.5"/>
<path d="M608.65 344.49L643.14 330.69"
fill="none" stroke="black" stroke-width="0.5"/>
<path d="M216.59 344.49L251.09 330.69"
fill="none" stroke="black" stroke-width="0.5"/>
<path d="M295.49 265.6L281.69 300.09"
fill="none" stroke="black" stroke-width="0.5"/>
<path d="M295.49 657.66L281.69 692.15"
fill="none" stroke="black" stroke-width="0.5"/>
<path d="M687.54 265.6L673.74 300.09"
fill="none" stroke="black" stroke-width="0.5"/>
<path d="M687.54 657.66L673.74 692.15"
fill="none" stroke="black" stroke-width="0.5"/>
<path d="M687.54 227.36L673.74 192.86"
fill="none" stroke="black" stroke-width="0.5"/>
<path d="M687.54 619.42L673.74 584.92"
fill="none" stroke="black" stroke-width="0.5"/>
<path d="M295.49 227.36L281.69 192.86"
fill="none" stroke="black" stroke-width="0.5"/>
<path d="M295.49 619.42L281.69 584.92"
fill="none" stroke="black" stroke-width="0.5"/>
<path d="M216.59 540.52L251.09 554.32"
fill="none" stroke="black" stroke-width="0.5"/>
<path d="M608.65 540.52L643.14 554.32"
fill="none" stroke="black" stroke-width="0.5"/>
<path d="M216.59 148.46L251.09 162.26"
fill="none" stroke="black" stroke-width="0.5"/>
<path d="M608.65 148.46L643.14 162.26"
fill="none" stroke="black" stroke-width="0.5"/>
<path d="M178.35 148.46L143.86 162.26"
fill="none" stroke="black" stroke-width="0.5"/>
<path d="M570.41 148.47L535.91 162.26"
fill="none" stroke="black" stroke-width="0.5"/>
<path d="M178.35 540.52L143.86 554.32"
fill="none" stroke="black" stroke-width="0.5"/>
<path d="M570.41 540.53L535.91 554.32"
fill="none" stroke="black" stroke-width="0.5"/>
<path d="M491.51 619.41L505.31 584.91"
fill="none" stroke="black" stroke-width="0.5"/>
<path d="M491.51 227.35L505.31 192.86"
fill="none" stroke="black" stroke-width="0.5"/>
<path d="M99.46 619.41L113.25 584.91"
fill="none" stroke="black" stroke-width="0.5"/>
<path d="M99.45 227.35L113.25 192.86"
fill="none" stroke="black" stroke-width="0.5"/>
<path d="M99.46 657.66L113.26 692.16"
fill="none" stroke="black" stroke-width="0.5"/>
<path d="M99.46 265.6L113.26 300.1"
fill="none" stroke="black" stroke-width="0.5"/>
<path d="M491.51 657.66L505.31 692.16"
fill="none" stroke="black" stroke-width="0.5"/>
<path d="M491.52 265.6L505.31 300.1"
fill="none" stroke="black" stroke-width="0.5"/>
<path d="M570.4 344.49L535.91 330.69"
fill="none" stroke="black" stroke-width="0.5"/>
<path d="M178.35 344.49L143.85 330.69"
fill="none" stroke="black" stroke-width="0.5"/>
<path d="M570.4 736.54L535.91 722.75"
fill="none" stroke="black" stroke-width="0.5"/>
<path d="M178.35 736.55L143.85 722.75"
fill="none" stroke="black" stroke-width="0.5"/>
<path d="M1.44 442.51L76.84 442.51"
fill="none" stroke="black" stroke-width="0.5"/>
<path d="M318.1 442.51L468.9 442.51"
fill="none" stroke="black" stroke-width="0.5"/>
<path d="M710.16 442.51L785.56 442.51"
fill="none" stroke="black" stroke-width="0.5"/>
<path d="M1.44 50.45L76.84 50.45"
fill="none" stroke="black" stroke-width="0.5"/>
<path d="M318.1 50.45L468.9 50.45"
fill="none" stroke="black" stroke-width="0.5"/>
<path d="M710.16 50.45L785.56 50.45"
fill="none" stroke="black" stroke-width="0.5"/>
</svg>
