<?xml version="1.0" encoding="UTF-8"?>
<svg xmlns="http://www.w3.org/2000/svg" width="99.949mm" height="99.949mm" viewBox="0.0 0.0 787.000 787.000" preserveAspectRatio="none" version="1.1">
  <title>Produce by Acme CAD Converter</title>
  <desc>Produce by Acme CAD Converter</desc>
<path d="M239.62 631.97L280.62 631.97"
fill="none" stroke="black" stroke-width="0.5"/>
<path d="M659.97 631.97L700.97 631.97"
fill="none" stroke="black" stroke-width="0.5"/>
<path d="M239.62 421.79L280.62 421.79"
fill="none" stroke="black" stroke-width="0.5"/>
<path d="M659.97 421.79L700.97 421.79"
fill="none" stroke="black" stroke-width="0.5"/>
<path d="M239.62 211.62L280.62 211.62"
fill="none" stroke="black" stroke-width="0.5"/>
<path d="M659.97 211.62L700.97 211.62"
fill="none" stroke="black" stroke-width="0.5"/>
<path d="M239.62 1.44L280.62 1.44"
fill="none" stroke="black" stroke-width="0.5"/>
<path d="M659.97 1.44L700.97 1.44"
fill="none" stroke="black" stroke-width="0.5"/>
<path d="M785.56 547.38L785.56 506.38"
fill="none" stroke="black" stroke-width="0.5"/>
<path d="M785.56 127.03L785.56 86.03"
fill="none" stroke="black" stroke-width="0.5"/>
<path d="M575.38 547.38L575.38 506.38"
fill="none" stroke="black" stroke-width="0.5"/>
<path d="M575.38 127.03L575.38 86.03"
fill="none" stroke="black" stroke-width="0.5"/>
<path d="M365.21 547.38L365.21 506.38"
fill="none" stroke="black" stroke-width="0.5"/>
<path d="M365.21 127.03L365.21 86.03"
fill="none" stroke="black" stroke-width="0.5"/>
<path d="M155.03 547.38L155.03 506.38"
fill="none" stroke="black" stroke-width="0.5"/>
<path d="M155.03 127.03L155.03 86.03"
fill="none" stroke="black" stroke-width="0.5"/>
<path d="M737.95 617.17L770.76 584.36"
fill="none" stroke="black" stroke-width="0.5"/>
<path d="M317.6 617.17L350.41 584.36"
fill="none" stroke="black" stroke-width="0.5"/>
<path d="M737.95 196.82L770.76 164.01"
fill="none" stroke="black" stroke-width="0.5"/>
<path d="M317.6 196.82L350.41 164.01"
fill="none" stroke="black" stroke-width="0.5"/>
<path d="M317.6 436.59L350.41 469.4"
fill="none" stroke="black" stroke-width="0.5"/>
<path d="M317.6 16.24L350.41 49.05"
fill="none" stroke="black" stroke-width="0.5"/>
<path d="M737.95 436.59L770.76 469.4"
fill="none" stroke="black" stroke-width="0.5"/>
<path d="M737.95 16.24L770.76 49.05"
fill="none" stroke="black" stroke-width="0.5"/>
<path d="M202.64 16.24L169.83 49.05"
fill="none" stroke="black" stroke-width="0.5"/>
<path d="M622.99 16.24L590.18 49.05"
fill="none" stroke="black" stroke-width="0.5"/>
<path d="M202.64 436.59L169.83 469.4"
fill="none" stroke="black" stroke-width="0.5"/>
<path d="M622.99 436.59L590.18 469.4"
fill="none" stroke="black" stroke-width="0.5"/>
<path d="M622.99 196.82L590.18 164.01"
fill="none" stroke="black" stroke-width="0.5"/>
<path d="M622.99 617.17L590.18 584.36"
fill="none" stroke="black" stroke-width="0.5"/>
<path d="M202.64 196.82L169.83 164.01"
fill="none" stroke="black" stroke-width="0.5"/>
<path d="M202.64 617.17L169.83 584.36"
fill="none" stroke="black" stroke-width="0.5"/>
<path d="M700.97 631.97L737.95 617.17"
fill="none" stroke="black" stroke-width="0.5"/>
<path d="M280.62 631.97L317.6 617.17"
fill="none" stroke="black" stroke-width="0.5"/>
<path d="M700.97 211.62L737.95 196.82"
fill="none" stroke="black" stroke-width="0.5"/>
<path d="M280.62 211.62L317.6 196.82"
fill="none" stroke="black" stroke-width="0.5"/>
<path d="M365.21 127.03L350.41 164.01"
fill="none" stroke="black" stroke-width="0.5"/>
<path d="M365.21 547.38L350.41 584.36"
fill="none" stroke="black" stroke-width="0.5"/>
<path d="M785.56 127.03L770.76 164.01"
fill="none" stroke="black" stroke-width="0.5"/>
<path d="M785.56 547.38L770.76 584.36"
fill="none" stroke="black" stroke-width="0.5"/>
<path d="M785.56 86.03L770.76 49.05"
fill="none" stroke="black" stroke-width="0.5"/>
<path d="M785.56 506.38L770.76 469.4"
fill="none" stroke="black" stroke-width="0.5"/>
<path d="M365.21 86.03L350.41 49.05"
fill="none" stroke="black" stroke-width="0.5"/>
<path d="M365.21 506.38L350.41 469.4"
fill="none" stroke="black" stroke-width="0.5"/>
<path d="M280.62 421.79L317.6 436.59"
fill="none" stroke="black" stroke-width="0.5"/>
<path d="M700.97 421.79L737.95 436.59"
fill="none" stroke="black" stroke-width="0.5"/>
<path d="M280.62 1.44L317.6 16.24"
fill="none" stroke="black" stroke-width="0.5"/>
<path d="M700.97 1.44L737.95 16.24"
fill="none" stroke="black" stroke-width="0.5"/>
<path d="M239.62 1.44L202.64 16.24"
fill="none" stroke="black" stroke-width="0.5"/>
<path d="M659.97 1.45L622.99 16.24"
fill="none" stroke="black" stroke-width="0.5"/>
<path d="M239.62 421.79L202.64 436.59"
fill="none" stroke="black" stroke-width="0.5"/>
<path d="M659.97 421.8L622.99 436.59"
fill="none" stroke="black" stroke-width="0.5"/>
<path d="M575.38 506.37L590.17 469.39"
fill="none" stroke="black" stroke-width="0.5"/>
<path d="M575.38 86.02L590.17 49.04"
fill="none" stroke="black" stroke-width="0.5"/>
<path d="M155.03 506.37L169.82 469.39"
fill="none" stroke="black" stroke-width="0.5"/>
<path d="M155.03 86.02L169.82 49.04"
fill="none" stroke="black" stroke-width="0.5"/>
<path d="M155.03 547.39L169.83 584.37"
fill="none" stroke="black" stroke-width="0.5"/>
<path d="M155.04 127.04L169.83 164.02"
fill="none" stroke="black" stroke-width="0.5"/>
<path d="M575.38 547.39L590.18 584.37"
fill="none" stroke="black" stroke-width="0.5"/>
<path d="M575.39 127.04L590.18 164.02"
fill="none" stroke="black" stroke-width="0.5"/>
<path d="M659.96 211.61L622.98 196.82"
fill="none" stroke="black" stroke-width="0.5"/>
<path d="M239.61 211.62L202.63 196.82"
fill="none" stroke="black" stroke-width="0.5"/>
<path d="M659.96 631.96L622.98 617.17"
fill="none" stroke="black" stroke-width="0.5"/>
<path d="M239.61 631.97L202.63 617.17"
fill="none" stroke="black" stroke-width="0.5"/>
<path d="M37.39 785.56L62.5 785.56"
fill="none" stroke="black" stroke-width="0.5"/>
<path d="M457.74 785.56L482.85 785.56"
fill="none" stroke="black" stroke-width="0.5"/>
<path d="M37.39 365.21L62.5 365.21"
fill="none" stroke="black" stroke-width="0.5"/>
<path d="M457.74 365.21L482.85 365.21"
fill="none" stroke="black" stroke-width="0.5"/>
<path d="M37.39 688.55L62.5 688.55"
fill="none" stroke="black" stroke-width="0.5"/>
<path d="M457.74 688.55L482.85 688.55"
fill="none" stroke="black" stroke-width="0.5"/>
<path d="M37.39 268.2L62.5 268.2"
fill="none" stroke="black" stroke-width="0.5"/>
<path d="M457.74 268.2L482.85 268.2"
fill="none" stroke="black" stroke-width="0.5"/>
<path d="M421.79 749.61L421.79 724.5"
fill="none" stroke="black" stroke-width="0.5"/>
<path d="M421.79 329.26L421.79 304.15"
fill="none" stroke="black" stroke-width="0.5"/>
<path d="M1.44 749.61L1.44 724.5"
fill="none" stroke="black" stroke-width="0.5"/>
<path d="M1.44 329.26L1.44 304.15"
fill="none" stroke="black" stroke-width="0.5"/>
<path d="M518.8 749.61L518.8 724.5"
fill="none" stroke="black" stroke-width="0.5"/>
<path d="M518.8 329.26L518.8 304.15"
fill="none" stroke="black" stroke-width="0.5"/>
<path d="M98.45 749.61L98.45 724.5"
fill="none" stroke="black" stroke-width="0.5"/>
<path d="M98.45 329.26L98.45 304.15"
fill="none" stroke="black" stroke-width="0.5"/>
<path d="M482.85 785.56L505.73 772.49"
fill="none" stroke="black" stroke-width="0.5"/>
<path d="M62.5 785.56L85.38 772.49"
fill="none" stroke="black" stroke-width="0.5"/>
<path d="M482.85 365.21L505.73 352.14"
fill="none" stroke="black" stroke-width="0.5"/>
<path d="M62.5 365.21L85.38 352.14"
fill="none" stroke="black" stroke-width="0.5"/>
<path d="M98.45 329.26L85.38 352.14"
fill="none" stroke="black" stroke-width="0.5"/>
<path d="M98.45 749.61L85.38 772.49"
fill="none" stroke="black" stroke-width="0.5"/>
<path d="M518.8 329.26L505.73 352.14"
fill="none" stroke="black" stroke-width="0.5"/>
<path d="M518.8 749.61L505.73 772.49"
fill="none" stroke="black" stroke-width="0.5"/>
<path d="M518.8 304.15L505.73 281.27"
fill="none" stroke="black" stroke-width="0.5"/>
<path d="M518.8 724.5L505.73 701.62"
fill="none" stroke="black" stroke-width="0.5"/>
<path d="M98.45 304.15L85.38 281.27"
fill="none" stroke="black" stroke-width="0.5"/>
<path d="M98.45 724.5L85.38 701.62"
fill="none" stroke="black" stroke-width="0.5"/>
<path d="M62.5 688.55L85.38 701.62"
fill="none" stroke="black" stroke-width="0.5"/>
<path d="M482.85 688.55L505.73 701.62"
fill="none" stroke="black" stroke-width="0.5"/>
<path d="M62.5 268.2L85.38 281.27"
fill="none" stroke="black" stroke-width="0.5"/>
<path d="M482.85 268.2L505.73 281.27"
fill="none" stroke="black" stroke-width="0.5"/>
<path d="M37.39 268.2L14.51 281.27"
fill="none" stroke="black" stroke-width="0.5"/>
<path d="M457.74 268.2L434.86 281.27"
fill="none" stroke="black" stroke-width="0.5"/>
<path d="M37.39 688.55L14.51 701.62"
fill="none" stroke="black" stroke-width="0.5"/>
<path d="M457.74 688.55L434.86 701.62"
fill="none" stroke="black" stroke-width="0.5"/>
<path d="M421.79 724.5L434.86 701.62"
fill="none" stroke="black" stroke-width="0.5"/>
<path d="M421.79 304.15L434.86 281.27"
fill="none" stroke="black" stroke-width="0.5"/>
<path d="M1.44 724.5L14.51 701.62"
fill="none" stroke="black" stroke-width="0.5"/>
<path d="M1.44 304.15L14.51 281.27"
fill="none" stroke="black" stroke-width="0.5"/>
<path d="M1.44 749.61L14.51 772.49"
fill="none" stroke="black" stroke-width="0.5"/>
<path d="M1.44 329.26L14.51 352.14"
fill="none" stroke="black" stroke-width="0.5"/>
<path d="M421.79 749.61L434.86 772.49"
fill="none" stroke="black" stroke-width="0.5"/>
<path d="M421.79 329.26L434.86 352.14"
fill="none" stroke="black" stroke-width="0.5"/>
<path d="M457.74 365.21L434.86 352.14"
fill="none" stroke="black" stroke-width="0.5"/>
<path d="M37.39 365.21L14.51 352.14"
fill="none" stroke="black" stroke-width="0.5"/>
<path d="M457.74 785.56L434.86 772.49"
fill="none" stroke="black" stroke-width="0.5"/>
<path d="M37.39 785.56L14.51 772.49"
fill="none" stroke="black" stroke-width="0.5"/>
</svg>
