<?xml version="1.0" encoding="UTF-8"?>
<svg xmlns="http://www.w3.org/2000/svg" width="99.949mm" height="99.949mm" viewBox="0.0 0.0 787.000 787.000" preserveAspectRatio="none" version="1.1">
  <title>Produce by Acme CAD Converter</title>
  <desc>Produce by Acme CAD Converter</desc>
<path d="M83.5 752.62L123.27 752.62"
fill="none" stroke="black" stroke-width="0.5"/>
<path d="M491.23 752.62L531 752.62"
fill="none" stroke="black" stroke-width="0.5"/>
<path d="M83.5 548.75L123.27 548.75"
fill="none" stroke="black" stroke-width="0.5"/>
<path d="M491.23 548.75L531 548.75"
fill="none" stroke="black" stroke-width="0.5"/>
<path d="M83.5 344.89L123.27 344.89"
fill="none" stroke="black" stroke-width="0.5"/>
<path d="M491.23 344.89L531 344.89"
fill="none" stroke="black" stroke-width="0.5"/>
<path d="M83.5 141.02L123.27 141.02"
fill="none" stroke="black" stroke-width="0.5"/>
<path d="M491.23 141.02L531 141.02"
fill="none" stroke="black" stroke-width="0.5"/>
<path d="M613.05 670.57L613.05 630.8"
fill="none" stroke="black" stroke-width="0.5"/>
<path d="M613.05 262.84L613.05 223.07"
fill="none" stroke="black" stroke-width="0.5"/>
<path d="M409.19 670.57L409.19 630.8"
fill="none" stroke="black" stroke-width="0.5"/>
<path d="M409.19 262.84L409.19 223.07"
fill="none" stroke="black" stroke-width="0.5"/>
<path d="M205.32 670.57L205.32 630.8"
fill="none" stroke="black" stroke-width="0.5"/>
<path d="M205.32 262.84L205.32 223.07"
fill="none" stroke="black" stroke-width="0.5"/>
<path d="M1.45 670.57L1.45 630.8"
fill="none" stroke="black" stroke-width="0.5"/>
<path d="M1.45 262.84L1.45 223.07"
fill="none" stroke="black" stroke-width="0.5"/>
<path d="M566.88 738.27L598.7 706.45"
fill="none" stroke="black" stroke-width="0.5"/>
<path d="M159.14 738.27L190.96 706.45"
fill="none" stroke="black" stroke-width="0.5"/>
<path d="M566.88 330.53L598.7 298.71"
fill="none" stroke="black" stroke-width="0.5"/>
<path d="M159.14 330.53L190.96 298.71"
fill="none" stroke="black" stroke-width="0.5"/>
<path d="M159.14 563.11L190.96 594.93"
fill="none" stroke="black" stroke-width="0.5"/>
<path d="M159.14 155.37L190.96 187.19"
fill="none" stroke="black" stroke-width="0.5"/>
<path d="M566.88 563.11L598.7 594.93"
fill="none" stroke="black" stroke-width="0.5"/>
<path d="M566.88 155.37L598.7 187.19"
fill="none" stroke="black" stroke-width="0.5"/>
<path d="M47.62 155.37L15.8 187.19"
fill="none" stroke="black" stroke-width="0.5"/>
<path d="M455.36 155.37L423.54 187.19"
fill="none" stroke="black" stroke-width="0.5"/>
<path d="M47.62 563.11L15.8 594.93"
fill="none" stroke="black" stroke-width="0.5"/>
<path d="M455.36 563.11L423.54 594.93"
fill="none" stroke="black" stroke-width="0.5"/>
<path d="M455.36 330.53L423.54 298.71"
fill="none" stroke="black" stroke-width="0.5"/>
<path d="M455.36 738.27L423.54 706.45"
fill="none" stroke="black" stroke-width="0.5"/>
<path d="M47.62 330.53L15.8 298.71"
fill="none" stroke="black" stroke-width="0.5"/>
<path d="M47.62 738.27L15.8 706.45"
fill="none" stroke="black" stroke-width="0.5"/>
<path d="M531 752.62L566.88 738.27"
fill="none" stroke="black" stroke-width="0.5"/>
<path d="M123.27 752.62L159.14 738.27"
fill="none" stroke="black" stroke-width="0.5"/>
<path d="M531 344.89L566.88 330.53"
fill="none" stroke="black" stroke-width="0.5"/>
<path d="M123.27 344.89L159.14 330.53"
fill="none" stroke="black" stroke-width="0.5"/>
<path d="M205.32 262.84L190.96 298.71"
fill="none" stroke="black" stroke-width="0.5"/>
<path d="M205.32 670.57L190.96 706.45"
fill="none" stroke="black" stroke-width="0.5"/>
<path d="M613.05 262.84L598.7 298.71"
fill="none" stroke="black" stroke-width="0.5"/>
<path d="M613.05 670.57L598.7 706.45"
fill="none" stroke="black" stroke-width="0.5"/>
<path d="M613.05 223.07L598.7 187.19"
fill="none" stroke="black" stroke-width="0.5"/>
<path d="M613.05 630.8L598.7 594.93"
fill="none" stroke="black" stroke-width="0.5"/>
<path d="M205.32 223.07L190.96 187.19"
fill="none" stroke="black" stroke-width="0.5"/>
<path d="M205.32 630.8L190.96 594.93"
fill="none" stroke="black" stroke-width="0.5"/>
<path d="M123.27 548.75L159.14 563.11"
fill="none" stroke="black" stroke-width="0.5"/>
<path d="M531 548.75L566.88 563.11"
fill="none" stroke="black" stroke-width="0.5"/>
<path d="M123.27 141.02L159.14 155.37"
fill="none" stroke="black" stroke-width="0.5"/>
<path d="M531 141.02L566.88 155.37"
fill="none" stroke="black" stroke-width="0.5"/>
<path d="M83.5 141.02L47.62 155.37"
fill="none" stroke="black" stroke-width="0.5"/>
<path d="M491.23 141.02L455.36 155.37"
fill="none" stroke="black" stroke-width="0.5"/>
<path d="M83.5 548.75L47.62 563.11"
fill="none" stroke="black" stroke-width="0.5"/>
<path d="M491.23 548.76L455.36 563.11"
fill="none" stroke="black" stroke-width="0.5"/>
<path d="M409.19 630.8L423.53 594.92"
fill="none" stroke="black" stroke-width="0.5"/>
<path d="M409.18 223.06L423.53 187.19"
fill="none" stroke="black" stroke-width="0.5"/>
<path d="M1.45 630.8L15.8 594.92"
fill="none" stroke="black" stroke-width="0.5"/>
<path d="M1.44 223.06L15.8 187.19"
fill="none" stroke="black" stroke-width="0.5"/>
<path d="M1.45 670.58L15.8 706.45"
fill="none" stroke="black" stroke-width="0.5"/>
<path d="M1.46 262.84L15.8 298.72"
fill="none" stroke="black" stroke-width="0.5"/>
<path d="M409.19 670.58L423.54 706.45"
fill="none" stroke="black" stroke-width="0.5"/>
<path d="M409.19 262.84L423.54 298.72"
fill="none" stroke="black" stroke-width="0.5"/>
<path d="M491.23 344.88L455.35 330.53"
fill="none" stroke="black" stroke-width="0.5"/>
<path d="M83.49 344.89L47.62 330.53"
fill="none" stroke="black" stroke-width="0.5"/>
<path d="M491.23 752.62L455.35 738.27"
fill="none" stroke="black" stroke-width="0.5"/>
<path d="M83.49 752.62L47.62 738.27"
fill="none" stroke="black" stroke-width="0.5"/>
<path d="M236.68 446.82L377.82 446.82"
fill="none" stroke="black" stroke-width="0.5"/>
<path d="M644.42 446.82L785.56 446.82"
fill="none" stroke="black" stroke-width="0.5"/>
<path d="M236.68 39.08L377.82 39.08"
fill="none" stroke="black" stroke-width="0.5"/>
<path d="M644.42 39.08L785.56 39.08"
fill="none" stroke="black" stroke-width="0.5"/>
<path d="M98.68 442.11L108.09 442.11"
fill="none" stroke="black" stroke-width="0.5"/>
<path d="M506.41 442.11L515.82 442.11"
fill="none" stroke="black" stroke-width="0.5"/>
<path d="M98.68 34.38L108.09 34.38"
fill="none" stroke="black" stroke-width="0.5"/>
<path d="M506.41 34.38L515.82 34.38"
fill="none" stroke="black" stroke-width="0.5"/>
<path d="M98.68 451.52L108.09 451.52"
fill="none" stroke="black" stroke-width="0.5"/>
<path d="M506.41 451.52L515.82 451.52"
fill="none" stroke="black" stroke-width="0.5"/>
<path d="M98.68 43.79L108.09 43.79"
fill="none" stroke="black" stroke-width="0.5"/>
<path d="M506.41 43.79L515.82 43.79"
fill="none" stroke="black" stroke-width="0.5"/>
<path d="M515.82 451.52L515.82 442.11"
fill="none" stroke="black" stroke-width="0.5"/>
<path d="M515.82 43.79L515.82 34.38"
fill="none" stroke="black" stroke-width="0.5"/>
<path d="M108.09 451.52L108.09 442.11"
fill="none" stroke="black" stroke-width="0.5"/>
<path d="M108.09 43.79L108.09 34.38"
fill="none" stroke="black" stroke-width="0.5"/>
<path d="M506.41 451.52L506.41 442.11"
fill="none" stroke="black" stroke-width="0.5"/>
<path d="M506.41 43.79L506.41 34.38"
fill="none" stroke="black" stroke-width="0.5"/>
<path d="M98.68 451.52L98.68 442.11"
fill="none" stroke="black" stroke-width="0.5"/>
<path d="M98.68 43.79L98.68 34.38"
fill="none" stroke="black" stroke-width="0.5"/>
</svg>
