<?xml version="1.0" encoding="UTF-8"?>
<svg xmlns="http://www.w3.org/2000/svg" width="99.949mm" height="99.949mm" viewBox="0.0 0.0 787.000 787.000" preserveAspectRatio="none" version="1.1">
  <title>Produce by Acme CAD Converter</title>
  <desc>Produce by Acme CAD Converter</desc>
<path d="M135.05 785.56L264.39 785.56"
fill="none" stroke="black" stroke-width="0.5"/>
<path d="M393.73 785.56L523.08 785.56"
fill="none" stroke="black" stroke-width="0.5"/>
<path d="M134.83 561.52L135.05 561.52"
fill="none" stroke="black" stroke-width="0.5"/>
<path d="M264.39 561.52L393.73 561.52"
fill="none" stroke="black" stroke-width="0.5"/>
<path d="M523.08 561.52L652.17 561.52"
fill="none" stroke="black" stroke-width="0.5"/>
<path d="M135.05 337.49L264.39 337.49"
fill="none" stroke="black" stroke-width="0.5"/>
<path d="M393.73 337.49L523.08 337.49"
fill="none" stroke="black" stroke-width="0.5"/>
<path d="M134.83 113.46L135.05 113.46"
fill="none" stroke="black" stroke-width="0.5"/>
<path d="M264.39 113.46L393.73 113.46"
fill="none" stroke="black" stroke-width="0.5"/>
<path d="M523.08 113.46L652.17 113.46"
fill="none" stroke="black" stroke-width="0.5"/>
<path d="M393.73 785.56L458.41 673.54"
fill="none" stroke="black" stroke-width="0.5"/>
<path d="M523.08 561.52L587.75 449.51"
fill="none" stroke="black" stroke-width="0.5"/>
<path d="M135.05 785.56L199.72 673.54"
fill="none" stroke="black" stroke-width="0.5"/>
<path d="M264.39 561.52L329.06 449.51"
fill="none" stroke="black" stroke-width="0.5"/>
<path d="M393.73 337.49L458.41 225.48"
fill="none" stroke="black" stroke-width="0.5"/>
<path d="M523.08 113.46L587.75 1.44"
fill="none" stroke="black" stroke-width="0.5"/>
<path d="M135.05 337.49L199.72 225.48"
fill="none" stroke="black" stroke-width="0.5"/>
<path d="M264.39 113.46L329.06 1.44"
fill="none" stroke="black" stroke-width="0.5"/>
<path d="M652.17 113.01L587.75 1.44"
fill="none" stroke="black" stroke-width="0.5"/>
<path d="M652.17 561.08L587.75 449.51"
fill="none" stroke="black" stroke-width="0.5"/>
<path d="M523.08 337.49L458.41 225.48"
fill="none" stroke="black" stroke-width="0.5"/>
<path d="M393.73 113.46L329.06 1.44"
fill="none" stroke="black" stroke-width="0.5"/>
<path d="M523.08 785.56L458.41 673.54"
fill="none" stroke="black" stroke-width="0.5"/>
<path d="M393.73 561.52L329.06 449.51"
fill="none" stroke="black" stroke-width="0.5"/>
<path d="M264.39 337.49L199.72 225.48"
fill="none" stroke="black" stroke-width="0.5"/>
<path d="M135.05 113.46L134.83 113.09"
fill="none" stroke="black" stroke-width="0.5"/>
<path d="M264.39 785.56L199.72 673.54"
fill="none" stroke="black" stroke-width="0.5"/>
<path d="M135.05 561.52L134.83 561.16"
fill="none" stroke="black" stroke-width="0.5"/>
</svg>
