<?xml version="1.0" encoding="UTF-8"?>
<svg xmlns="http://www.w3.org/2000/svg" width="99.949mm" height="99.949mm" viewBox="0.0 0.0 787.000 787.000" preserveAspectRatio="none" version="1.1">
  <title>Produce by Acme CAD Converter</title>
  <desc>Produce by Acme CAD Converter</desc>
<path d="M640.65 571.71L722.71 429.57"
fill="none" stroke="black" stroke-width="0.5"/>
<path d="M476.03 785.56L558.34 642.99"
fill="none" stroke="black" stroke-width="0.5"/>
<path d="M640.65 144.01L722.71 1.88"
fill="none" stroke="black" stroke-width="0.5"/>
<path d="M476.03 357.86L558.34 215.29"
fill="none" stroke="black" stroke-width="0.5"/>
<path d="M311.42 571.71L393.72 429.14"
fill="none" stroke="black" stroke-width="0.5"/>
<path d="M146.79 785.56L229.1 642.99"
fill="none" stroke="black" stroke-width="0.5"/>
<path d="M311.42 144.01L393.72 1.44"
fill="none" stroke="black" stroke-width="0.5"/>
<path d="M146.79 357.86L229.1 215.29"
fill="none" stroke="black" stroke-width="0.5"/>
<path d="M64.29 429.47L64.48 429.14"
fill="none" stroke="black" stroke-width="0.5"/>
<path d="M64.29 1.77L64.48 1.44"
fill="none" stroke="black" stroke-width="0.5"/>
<path d="M640.65 144.01L558.34 1.44"
fill="none" stroke="black" stroke-width="0.5"/>
<path d="M640.65 571.71L558.34 429.14"
fill="none" stroke="black" stroke-width="0.5"/>
<path d="M476.03 357.86L393.72 215.29"
fill="none" stroke="black" stroke-width="0.5"/>
<path d="M311.42 144.01L229.1 1.44"
fill="none" stroke="black" stroke-width="0.5"/>
<path d="M476.03 785.56L393.72 642.99"
fill="none" stroke="black" stroke-width="0.5"/>
<path d="M311.42 571.71L229.1 429.14"
fill="none" stroke="black" stroke-width="0.5"/>
<path d="M146.79 357.86L64.48 215.29"
fill="none" stroke="black" stroke-width="0.5"/>
<path d="M146.79 785.56L64.48 642.99"
fill="none" stroke="black" stroke-width="0.5"/>
</svg>
