<?xml version="1.0" encoding="UTF-8"?>
<svg xmlns="http://www.w3.org/2000/svg" width="99.949mm" height="99.949mm" viewBox="0.0 0.0 787.000 787.000" preserveAspectRatio="none" version="1.1">
  <title>Produce by Acme CAD Converter</title>
  <desc>Produce by Acme CAD Converter</desc>
<path d="M270.98 527.96L319.99 527.96"
fill="none" stroke="black" stroke-width="0.5"/>
<path d="M663.04 527.96L712.05 527.96"
fill="none" stroke="black" stroke-width="0.5"/>
<path d="M74.95 429.95L123.96 429.95"
fill="none" stroke="black" stroke-width="0.5"/>
<path d="M467.01 429.95L516.02 429.95"
fill="none" stroke="black" stroke-width="0.5"/>
<path d="M270.98 331.94L319.99 331.94"
fill="none" stroke="black" stroke-width="0.5"/>
<path d="M663.04 331.94L712.05 331.94"
fill="none" stroke="black" stroke-width="0.5"/>
<path d="M74.95 233.92L123.96 233.92"
fill="none" stroke="black" stroke-width="0.5"/>
<path d="M467.01 233.92L516.02 233.92"
fill="none" stroke="black" stroke-width="0.5"/>
<path d="M687.54 552.47L687.54 503.46"
fill="none" stroke="black" stroke-width="0.5"/>
<path d="M687.54 356.44L687.54 307.43"
fill="none" stroke="black" stroke-width="0.5"/>
<path d="M491.51 454.45L491.51 405.45"
fill="none" stroke="black" stroke-width="0.5"/>
<path d="M491.51 258.42L491.51 209.42"
fill="none" stroke="black" stroke-width="0.5"/>
<path d="M295.49 552.47L295.49 503.46"
fill="none" stroke="black" stroke-width="0.5"/>
<path d="M295.49 356.44L295.49 307.43"
fill="none" stroke="black" stroke-width="0.5"/>
<path d="M99.46 454.45L99.46 405.45"
fill="none" stroke="black" stroke-width="0.5"/>
<path d="M99.46 258.42L99.46 209.42"
fill="none" stroke="black" stroke-width="0.5"/>
<path d="M123.96 280.48L99.46 283.54"
fill="none" stroke="black" stroke-width="0.5"/>
<path d="M319.99 280.48L295.49 283.54"
fill="none" stroke="black" stroke-width="0.5"/>
<path d="M516.02 280.48L491.51 283.54"
fill="none" stroke="black" stroke-width="0.5"/>
<path d="M712.05 280.48L687.54 283.54"
fill="none" stroke="black" stroke-width="0.5"/>
<path d="M123.96 378.49L99.46 381.55"
fill="none" stroke="black" stroke-width="0.5"/>
<path d="M319.99 378.49L295.49 381.55"
fill="none" stroke="black" stroke-width="0.5"/>
<path d="M516.02 378.49L491.51 381.55"
fill="none" stroke="black" stroke-width="0.5"/>
<path d="M712.05 378.49L687.54 381.55"
fill="none" stroke="black" stroke-width="0.5"/>
<path d="M123.96 476.51L99.46 479.57"
fill="none" stroke="black" stroke-width="0.5"/>
<path d="M319.99 476.51L295.49 479.57"
fill="none" stroke="black" stroke-width="0.5"/>
<path d="M516.02 476.51L491.51 479.57"
fill="none" stroke="black" stroke-width="0.5"/>
<path d="M712.05 476.51L687.54 479.57"
fill="none" stroke="black" stroke-width="0.5"/>
<path d="M123.96 574.52L99.46 577.58"
fill="none" stroke="black" stroke-width="0.5"/>
<path d="M319.99 574.52L295.49 577.58"
fill="none" stroke="black" stroke-width="0.5"/>
<path d="M516.02 574.52L491.51 577.58"
fill="none" stroke="black" stroke-width="0.5"/>
<path d="M712.05 574.52L687.54 577.58"
fill="none" stroke="black" stroke-width="0.5"/>
<path d="M712.05 574.52L761.05 550.02"
fill="none" stroke="black" stroke-width="0.5"/>
<path d="M516.02 574.52L565.03 550.02"
fill="none" stroke="black" stroke-width="0.5"/>
<path d="M712.05 476.51L761.05 452"
fill="none" stroke="black" stroke-width="0.5"/>
<path d="M319.99 574.52L369 550.02"
fill="none" stroke="black" stroke-width="0.5"/>
<path d="M516.02 476.51L565.03 452"
fill="none" stroke="black" stroke-width="0.5"/>
<path d="M712.05 378.49L761.05 353.99"
fill="none" stroke="black" stroke-width="0.5"/>
<path d="M123.96 574.52L172.97 550.02"
fill="none" stroke="black" stroke-width="0.5"/>
<path d="M319.99 476.51L369 452"
fill="none" stroke="black" stroke-width="0.5"/>
<path d="M516.02 378.49L565.03 353.99"
fill="none" stroke="black" stroke-width="0.5"/>
<path d="M712.05 280.48L761.05 255.97"
fill="none" stroke="black" stroke-width="0.5"/>
<path d="M123.96 476.51L172.97 452"
fill="none" stroke="black" stroke-width="0.5"/>
<path d="M319.99 378.49L369 353.99"
fill="none" stroke="black" stroke-width="0.5"/>
<path d="M516.02 280.48L565.03 255.97"
fill="none" stroke="black" stroke-width="0.5"/>
<path d="M123.96 378.49L172.97 353.99"
fill="none" stroke="black" stroke-width="0.5"/>
<path d="M319.99 280.48L369 255.97"
fill="none" stroke="black" stroke-width="0.5"/>
<path d="M123.96 280.48L172.97 255.97"
fill="none" stroke="black" stroke-width="0.5"/>
<path d="M761.05 550.02L785.56 546.96"
fill="none" stroke="black" stroke-width="0.5"/>
<path d="M565.03 550.02L589.53 546.96"
fill="none" stroke="black" stroke-width="0.5"/>
<path d="M369 550.02L393.5 546.96"
fill="none" stroke="black" stroke-width="0.5"/>
<path d="M172.97 550.02L197.47 546.96"
fill="none" stroke="black" stroke-width="0.5"/>
<path d="M1.44 546.96L1.44 546.96"
fill="none" stroke="black" stroke-width="0.5"/>
<path d="M761.05 452L785.56 448.94"
fill="none" stroke="black" stroke-width="0.5"/>
<path d="M565.03 452L589.53 448.94"
fill="none" stroke="black" stroke-width="0.5"/>
<path d="M369 452L393.5 448.94"
fill="none" stroke="black" stroke-width="0.5"/>
<path d="M172.97 452L197.47 448.94"
fill="none" stroke="black" stroke-width="0.5"/>
<path d="M1.44 448.94L1.44 448.94"
fill="none" stroke="black" stroke-width="0.5"/>
<path d="M761.05 353.99L785.56 350.93"
fill="none" stroke="black" stroke-width="0.5"/>
<path d="M565.03 353.99L589.53 350.93"
fill="none" stroke="black" stroke-width="0.5"/>
<path d="M369 353.99L393.5 350.93"
fill="none" stroke="black" stroke-width="0.5"/>
<path d="M172.97 353.99L197.47 350.93"
fill="none" stroke="black" stroke-width="0.5"/>
<path d="M1.44 350.93L1.44 350.93"
fill="none" stroke="black" stroke-width="0.5"/>
<path d="M761.05 255.97L785.56 252.91"
fill="none" stroke="black" stroke-width="0.5"/>
<path d="M565.03 255.97L589.53 252.91"
fill="none" stroke="black" stroke-width="0.5"/>
<path d="M369 255.97L393.5 252.91"
fill="none" stroke="black" stroke-width="0.5"/>
<path d="M172.97 255.97L197.47 252.91"
fill="none" stroke="black" stroke-width="0.5"/>
<path d="M1.44 252.91L1.44 252.91"
fill="none" stroke="black" stroke-width="0.5"/>
<path d="M785.56 252.91L785.56 252.91"
fill="none" stroke="black" stroke-width="0.5"/>
<path d="M614.03 255.97L589.53 252.91"
fill="none" stroke="black" stroke-width="0.5"/>
<path d="M418 255.97L393.5 252.91"
fill="none" stroke="black" stroke-width="0.5"/>
<path d="M221.97 255.97L197.47 252.91"
fill="none" stroke="black" stroke-width="0.5"/>
<path d="M785.56 350.93L785.56 350.93"
fill="none" stroke="black" stroke-width="0.5"/>
<path d="M25.95 255.97L1.44 252.91"
fill="none" stroke="black" stroke-width="0.5"/>
<path d="M614.03 353.99L589.53 350.93"
fill="none" stroke="black" stroke-width="0.5"/>
<path d="M418 353.99L393.5 350.93"
fill="none" stroke="black" stroke-width="0.5"/>
<path d="M221.97 353.99L197.47 350.93"
fill="none" stroke="black" stroke-width="0.5"/>
<path d="M785.56 448.94L785.56 448.94"
fill="none" stroke="black" stroke-width="0.5"/>
<path d="M25.95 353.99L1.44 350.93"
fill="none" stroke="black" stroke-width="0.5"/>
<path d="M614.03 452L589.53 448.94"
fill="none" stroke="black" stroke-width="0.5"/>
<path d="M418 452L393.5 448.94"
fill="none" stroke="black" stroke-width="0.5"/>
<path d="M221.97 452L197.47 448.94"
fill="none" stroke="black" stroke-width="0.5"/>
<path d="M785.56 546.96L785.56 546.96"
fill="none" stroke="black" stroke-width="0.5"/>
<path d="M25.95 452L1.44 448.94"
fill="none" stroke="black" stroke-width="0.5"/>
<path d="M614.03 550.02L589.53 546.96"
fill="none" stroke="black" stroke-width="0.5"/>
<path d="M418 550.02L393.5 546.96"
fill="none" stroke="black" stroke-width="0.5"/>
<path d="M221.97 550.02L197.47 546.96"
fill="none" stroke="black" stroke-width="0.5"/>
<path d="M25.95 550.02L1.44 546.96"
fill="none" stroke="black" stroke-width="0.5"/>
<path d="M25.95 550.02L74.95 574.52"
fill="none" stroke="black" stroke-width="0.5"/>
<path d="M25.95 452L74.95 476.51"
fill="none" stroke="black" stroke-width="0.5"/>
<path d="M221.97 550.02L270.98 574.52"
fill="none" stroke="black" stroke-width="0.5"/>
<path d="M25.95 353.99L74.95 378.49"
fill="none" stroke="black" stroke-width="0.5"/>
<path d="M221.97 452L270.98 476.51"
fill="none" stroke="black" stroke-width="0.5"/>
<path d="M418 550.02L467.01 574.52"
fill="none" stroke="black" stroke-width="0.5"/>
<path d="M25.95 255.97L74.95 280.48"
fill="none" stroke="black" stroke-width="0.5"/>
<path d="M221.97 353.99L270.98 378.49"
fill="none" stroke="black" stroke-width="0.5"/>
<path d="M418 452L467.01 476.51"
fill="none" stroke="black" stroke-width="0.5"/>
<path d="M614.03 550.02L663.04 574.52"
fill="none" stroke="black" stroke-width="0.5"/>
<path d="M221.97 255.97L270.98 280.48"
fill="none" stroke="black" stroke-width="0.5"/>
<path d="M418 353.99L467.01 378.49"
fill="none" stroke="black" stroke-width="0.5"/>
<path d="M614.03 452L663.04 476.51"
fill="none" stroke="black" stroke-width="0.5"/>
<path d="M418 255.97L467.01 280.48"
fill="none" stroke="black" stroke-width="0.5"/>
<path d="M614.03 353.99L663.04 378.49"
fill="none" stroke="black" stroke-width="0.5"/>
<path d="M614.03 255.97L663.04 280.48"
fill="none" stroke="black" stroke-width="0.5"/>
<path d="M74.95 574.52L99.46 577.58"
fill="none" stroke="black" stroke-width="0.5"/>
<path d="M270.98 574.52L295.49 577.58"
fill="none" stroke="black" stroke-width="0.5"/>
<path d="M467.01 574.52L491.51 577.58"
fill="none" stroke="black" stroke-width="0.5"/>
<path d="M663.04 574.52L687.54 577.58"
fill="none" stroke="black" stroke-width="0.5"/>
<path d="M74.95 476.51L99.46 479.57"
fill="none" stroke="black" stroke-width="0.5"/>
<path d="M270.98 476.51L295.49 479.57"
fill="none" stroke="black" stroke-width="0.5"/>
<path d="M467.01 476.51L491.51 479.57"
fill="none" stroke="black" stroke-width="0.5"/>
<path d="M663.04 476.51L687.54 479.57"
fill="none" stroke="black" stroke-width="0.5"/>
<path d="M74.95 378.49L99.46 381.55"
fill="none" stroke="black" stroke-width="0.5"/>
<path d="M270.98 378.49L295.49 381.55"
fill="none" stroke="black" stroke-width="0.5"/>
<path d="M467.01 378.49L491.51 381.55"
fill="none" stroke="black" stroke-width="0.5"/>
<path d="M663.04 378.49L687.54 381.55"
fill="none" stroke="black" stroke-width="0.5"/>
<path d="M74.95 280.48L99.46 283.54"
fill="none" stroke="black" stroke-width="0.5"/>
<path d="M270.98 280.48L295.49 283.54"
fill="none" stroke="black" stroke-width="0.5"/>
<path d="M467.01 280.48L491.51 283.54"
fill="none" stroke="black" stroke-width="0.5"/>
<path d="M663.04 280.48L687.54 283.54"
fill="none" stroke="black" stroke-width="0.5"/>
</svg>
