<?xml version="1.0" encoding="UTF-8"?>
<svg xmlns="http://www.w3.org/2000/svg" width="99.949mm" height="99.949mm" viewBox="0.0 0.0 787.000 787.000" preserveAspectRatio="none" version="1.1">
  <title>Produce by Acme CAD Converter</title>
  <desc>Produce by Acme CAD Converter</desc>
<path d="M91.29 560.24L107.62 560.24"
fill="none" stroke="black" stroke-width="0.5"/>
<path d="M483.35 560.24L499.68 560.24"
fill="none" stroke="black" stroke-width="0.5"/>
<path d="M287.32 462.23L303.65 462.23"
fill="none" stroke="black" stroke-width="0.5"/>
<path d="M679.38 462.23L695.71 462.23"
fill="none" stroke="black" stroke-width="0.5"/>
<path d="M91.29 364.21L107.62 364.21"
fill="none" stroke="black" stroke-width="0.5"/>
<path d="M483.35 364.21L499.68 364.21"
fill="none" stroke="black" stroke-width="0.5"/>
<path d="M287.32 266.2L303.65 266.2"
fill="none" stroke="black" stroke-width="0.5"/>
<path d="M679.38 266.2L695.71 266.2"
fill="none" stroke="black" stroke-width="0.5"/>
<path d="M91.29 520.8L107.62 520.8"
fill="none" stroke="black" stroke-width="0.5"/>
<path d="M483.35 520.8L499.68 520.8"
fill="none" stroke="black" stroke-width="0.5"/>
<path d="M287.32 422.79L303.65 422.79"
fill="none" stroke="black" stroke-width="0.5"/>
<path d="M679.38 422.79L695.71 422.79"
fill="none" stroke="black" stroke-width="0.5"/>
<path d="M91.29 324.77L107.62 324.77"
fill="none" stroke="black" stroke-width="0.5"/>
<path d="M483.35 324.77L499.68 324.77"
fill="none" stroke="black" stroke-width="0.5"/>
<path d="M287.32 226.76L303.65 226.76"
fill="none" stroke="black" stroke-width="0.5"/>
<path d="M679.38 226.76L695.71 226.76"
fill="none" stroke="black" stroke-width="0.5"/>
<path d="M667.82 450.68L667.82 434.34"
fill="none" stroke="black" stroke-width="0.5"/>
<path d="M667.82 254.65L667.82 238.31"
fill="none" stroke="black" stroke-width="0.5"/>
<path d="M471.79 548.69L471.79 532.35"
fill="none" stroke="black" stroke-width="0.5"/>
<path d="M471.79 352.66L471.79 336.32"
fill="none" stroke="black" stroke-width="0.5"/>
<path d="M275.77 450.68L275.77 434.34"
fill="none" stroke="black" stroke-width="0.5"/>
<path d="M275.77 254.65L275.77 238.31"
fill="none" stroke="black" stroke-width="0.5"/>
<path d="M79.74 548.69L79.74 532.35"
fill="none" stroke="black" stroke-width="0.5"/>
<path d="M79.74 352.66L79.74 336.32"
fill="none" stroke="black" stroke-width="0.5"/>
<path d="M707.26 450.68L707.26 434.34"
fill="none" stroke="black" stroke-width="0.5"/>
<path d="M707.26 254.65L707.26 238.31"
fill="none" stroke="black" stroke-width="0.5"/>
<path d="M511.23 548.69L511.23 532.35"
fill="none" stroke="black" stroke-width="0.5"/>
<path d="M511.23 352.66L511.23 336.32"
fill="none" stroke="black" stroke-width="0.5"/>
<path d="M315.21 450.68L315.21 434.34"
fill="none" stroke="black" stroke-width="0.5"/>
<path d="M315.21 254.65L315.21 238.31"
fill="none" stroke="black" stroke-width="0.5"/>
<path d="M119.18 548.69L119.18 532.35"
fill="none" stroke="black" stroke-width="0.5"/>
<path d="M119.18 352.66L119.18 336.32"
fill="none" stroke="black" stroke-width="0.5"/>
<path d="M695.71 462.23L707.26 450.68"
fill="none" stroke="black" stroke-width="0.5"/>
<path d="M499.68 560.24L511.23 548.69"
fill="none" stroke="black" stroke-width="0.5"/>
<path d="M695.71 266.2L707.26 254.65"
fill="none" stroke="black" stroke-width="0.5"/>
<path d="M499.68 364.21L511.23 352.66"
fill="none" stroke="black" stroke-width="0.5"/>
<path d="M303.65 462.23L315.21 450.68"
fill="none" stroke="black" stroke-width="0.5"/>
<path d="M107.62 560.24L119.18 548.69"
fill="none" stroke="black" stroke-width="0.5"/>
<path d="M303.65 266.2L315.21 254.65"
fill="none" stroke="black" stroke-width="0.5"/>
<path d="M107.62 364.21L119.18 352.66"
fill="none" stroke="black" stroke-width="0.5"/>
<path d="M107.62 520.8L119.18 532.35"
fill="none" stroke="black" stroke-width="0.5"/>
<path d="M107.62 324.77L119.18 336.32"
fill="none" stroke="black" stroke-width="0.5"/>
<path d="M303.65 422.79L315.21 434.34"
fill="none" stroke="black" stroke-width="0.5"/>
<path d="M499.68 520.8L511.23 532.35"
fill="none" stroke="black" stroke-width="0.5"/>
<path d="M303.65 226.76L315.21 238.31"
fill="none" stroke="black" stroke-width="0.5"/>
<path d="M499.68 324.77L511.23 336.32"
fill="none" stroke="black" stroke-width="0.5"/>
<path d="M695.71 422.79L707.26 434.34"
fill="none" stroke="black" stroke-width="0.5"/>
<path d="M695.71 226.76L707.26 238.31"
fill="none" stroke="black" stroke-width="0.5"/>
<path d="M91.29 324.77L79.74 336.32"
fill="none" stroke="black" stroke-width="0.5"/>
<path d="M287.32 226.76L275.77 238.31"
fill="none" stroke="black" stroke-width="0.5"/>
<path d="M91.29 520.8L79.74 532.35"
fill="none" stroke="black" stroke-width="0.5"/>
<path d="M287.32 422.79L275.77 434.34"
fill="none" stroke="black" stroke-width="0.5"/>
<path d="M483.35 324.77L471.79 336.32"
fill="none" stroke="black" stroke-width="0.5"/>
<path d="M679.38 226.76L667.82 238.31"
fill="none" stroke="black" stroke-width="0.5"/>
<path d="M483.35 520.8L471.79 532.35"
fill="none" stroke="black" stroke-width="0.5"/>
<path d="M679.38 422.79L667.82 434.34"
fill="none" stroke="black" stroke-width="0.5"/>
<path d="M679.38 266.2L667.82 254.65"
fill="none" stroke="black" stroke-width="0.5"/>
<path d="M679.38 462.23L667.82 450.68"
fill="none" stroke="black" stroke-width="0.5"/>
<path d="M483.35 364.21L471.79 352.66"
fill="none" stroke="black" stroke-width="0.5"/>
<path d="M287.32 266.2L275.77 254.65"
fill="none" stroke="black" stroke-width="0.5"/>
<path d="M483.35 560.24L471.79 548.69"
fill="none" stroke="black" stroke-width="0.5"/>
<path d="M287.32 462.23L275.77 450.68"
fill="none" stroke="black" stroke-width="0.5"/>
<path d="M91.29 364.21L79.74 352.66"
fill="none" stroke="black" stroke-width="0.5"/>
<path d="M91.29 560.24L79.74 548.69"
fill="none" stroke="black" stroke-width="0.5"/>
<path d="M266.49 501.37L324.48 501.37"
fill="none" stroke="black" stroke-width="0.5"/>
<path d="M658.54 501.37L716.54 501.37"
fill="none" stroke="black" stroke-width="0.5"/>
<path d="M70.46 403.36L128.46 403.36"
fill="none" stroke="black" stroke-width="0.5"/>
<path d="M462.52 403.36L520.51 403.36"
fill="none" stroke="black" stroke-width="0.5"/>
<path d="M266.49 305.34L324.48 305.34"
fill="none" stroke="black" stroke-width="0.5"/>
<path d="M658.54 305.34L716.54 305.34"
fill="none" stroke="black" stroke-width="0.5"/>
<path d="M70.46 207.33L128.46 207.33"
fill="none" stroke="black" stroke-width="0.5"/>
<path d="M462.52 207.33L520.51 207.33"
fill="none" stroke="black" stroke-width="0.5"/>
<path d="M266.49 579.67L324.48 579.67"
fill="none" stroke="black" stroke-width="0.5"/>
<path d="M658.54 579.67L716.54 579.67"
fill="none" stroke="black" stroke-width="0.5"/>
<path d="M70.46 481.66L128.46 481.66"
fill="none" stroke="black" stroke-width="0.5"/>
<path d="M462.52 481.66L520.51 481.66"
fill="none" stroke="black" stroke-width="0.5"/>
<path d="M266.49 383.64L324.48 383.64"
fill="none" stroke="black" stroke-width="0.5"/>
<path d="M658.54 383.64L716.54 383.64"
fill="none" stroke="black" stroke-width="0.5"/>
<path d="M70.46 285.63L128.46 285.63"
fill="none" stroke="black" stroke-width="0.5"/>
<path d="M462.52 285.63L520.51 285.63"
fill="none" stroke="black" stroke-width="0.5"/>
<path d="M197.47 197.47L128.46 207.33"
fill="none" stroke="black" stroke-width="0.5"/>
<path d="M589.53 197.47L520.51 207.33"
fill="none" stroke="black" stroke-width="0.5"/>
<path d="M266.49 579.67L197.47 589.53"
fill="none" stroke="black" stroke-width="0.5"/>
<path d="M658.54 579.67L589.53 589.53"
fill="none" stroke="black" stroke-width="0.5"/>
<path d="M1.44 589.53L1.44 589.53"
fill="none" stroke="black" stroke-width="0.5"/>
<path d="M324.48 579.67L393.5 589.53"
fill="none" stroke="black" stroke-width="0.5"/>
<path d="M716.54 579.67L785.56 589.53"
fill="none" stroke="black" stroke-width="0.5"/>
<path d="M1.44 197.47L70.46 207.33"
fill="none" stroke="black" stroke-width="0.5"/>
<path d="M393.5 197.47L462.52 207.33"
fill="none" stroke="black" stroke-width="0.5"/>
<path d="M785.56 197.47L785.56 197.47"
fill="none" stroke="black" stroke-width="0.5"/>
<path d="M658.54 305.34L520.51 285.63"
fill="none" stroke="black" stroke-width="0.5"/>
<path d="M266.49 305.34L128.46 285.63"
fill="none" stroke="black" stroke-width="0.5"/>
<path d="M716.54 305.34L785.56 295.49"
fill="none" stroke="black" stroke-width="0.5"/>
<path d="M324.48 305.34L462.52 285.63"
fill="none" stroke="black" stroke-width="0.5"/>
<path d="M1.44 295.49L70.46 285.63"
fill="none" stroke="black" stroke-width="0.5"/>
<path d="M266.49 383.64L128.46 403.36"
fill="none" stroke="black" stroke-width="0.5"/>
<path d="M658.54 383.64L520.51 403.36"
fill="none" stroke="black" stroke-width="0.5"/>
<path d="M1.44 393.5L70.46 403.36"
fill="none" stroke="black" stroke-width="0.5"/>
<path d="M324.48 383.64L462.52 403.36"
fill="none" stroke="black" stroke-width="0.5"/>
<path d="M716.54 383.64L785.56 393.5"
fill="none" stroke="black" stroke-width="0.5"/>
<path d="M658.54 501.37L520.51 481.66"
fill="none" stroke="black" stroke-width="0.5"/>
<path d="M266.49 501.37L128.46 481.66"
fill="none" stroke="black" stroke-width="0.5"/>
<path d="M716.54 501.37L785.56 491.51"
fill="none" stroke="black" stroke-width="0.5"/>
<path d="M324.48 501.37L462.52 481.66"
fill="none" stroke="black" stroke-width="0.5"/>
<path d="M1.44 491.51L70.46 481.66"
fill="none" stroke="black" stroke-width="0.5"/>
</svg>
