<?xml version="1.0" encoding="UTF-8"?>
<svg xmlns="http://www.w3.org/2000/svg" width="99.949mm" height="99.949mm" viewBox="0.0 0.0 787.000 787.000" preserveAspectRatio="none" version="1.1">
  <title>Produce by Acme CAD Converter</title>
  <desc>Produce by Acme CAD Converter</desc>
<path d="M191.15 785.56L292.32 785.56"
fill="none" stroke="black" stroke-width="0.5"/>
<path d="M393.5 785.56L494.68 785.56"
fill="none" stroke="black" stroke-width="0.5"/>
<path d="M191.15 734.97L216.44 734.97"
fill="none" stroke="black" stroke-width="0.5"/>
<path d="M317.62 734.97L418.79 734.97"
fill="none" stroke="black" stroke-width="0.5"/>
<path d="M519.97 734.97L595.85 734.97"
fill="none" stroke="black" stroke-width="0.5"/>
<path d="M241.74 684.38L342.91 684.38"
fill="none" stroke="black" stroke-width="0.5"/>
<path d="M444.09 684.38L545.26 684.38"
fill="none" stroke="black" stroke-width="0.5"/>
<path d="M191.15 633.79L267.03 633.79"
fill="none" stroke="black" stroke-width="0.5"/>
<path d="M368.21 633.79L469.38 633.79"
fill="none" stroke="black" stroke-width="0.5"/>
<path d="M570.56 633.79L595.85 633.79"
fill="none" stroke="black" stroke-width="0.5"/>
<path d="M292.32 583.21L393.5 583.21"
fill="none" stroke="black" stroke-width="0.5"/>
<path d="M494.68 583.21L595.85 583.21"
fill="none" stroke="black" stroke-width="0.5"/>
<path d="M216.44 532.62L317.62 532.62"
fill="none" stroke="black" stroke-width="0.5"/>
<path d="M418.79 532.62L519.97 532.62"
fill="none" stroke="black" stroke-width="0.5"/>
<path d="M191.15 482.03L241.74 482.03"
fill="none" stroke="black" stroke-width="0.5"/>
<path d="M342.91 482.03L444.09 482.03"
fill="none" stroke="black" stroke-width="0.5"/>
<path d="M545.26 482.03L595.85 482.03"
fill="none" stroke="black" stroke-width="0.5"/>
<path d="M267.03 431.44L368.21 431.44"
fill="none" stroke="black" stroke-width="0.5"/>
<path d="M469.38 431.44L570.56 431.44"
fill="none" stroke="black" stroke-width="0.5"/>
<path d="M191.15 380.85L292.32 380.85"
fill="none" stroke="black" stroke-width="0.5"/>
<path d="M393.5 380.85L494.68 380.85"
fill="none" stroke="black" stroke-width="0.5"/>
<path d="M191.15 330.26L216.44 330.26"
fill="none" stroke="black" stroke-width="0.5"/>
<path d="M317.62 330.26L418.79 330.26"
fill="none" stroke="black" stroke-width="0.5"/>
<path d="M519.97 330.26L595.85 330.26"
fill="none" stroke="black" stroke-width="0.5"/>
<path d="M241.74 279.68L342.91 279.68"
fill="none" stroke="black" stroke-width="0.5"/>
<path d="M444.09 279.68L545.26 279.68"
fill="none" stroke="black" stroke-width="0.5"/>
<path d="M191.15 229.09L267.03 229.09"
fill="none" stroke="black" stroke-width="0.5"/>
<path d="M368.21 229.09L469.38 229.09"
fill="none" stroke="black" stroke-width="0.5"/>
<path d="M570.56 229.09L595.85 229.09"
fill="none" stroke="black" stroke-width="0.5"/>
<path d="M292.32 178.5L393.5 178.5"
fill="none" stroke="black" stroke-width="0.5"/>
<path d="M494.68 178.5L595.85 178.5"
fill="none" stroke="black" stroke-width="0.5"/>
<path d="M216.44 127.91L317.62 127.91"
fill="none" stroke="black" stroke-width="0.5"/>
<path d="M418.79 127.91L519.97 127.91"
fill="none" stroke="black" stroke-width="0.5"/>
<path d="M191.15 77.32L241.74 77.32"
fill="none" stroke="black" stroke-width="0.5"/>
<path d="M342.91 77.32L444.09 77.32"
fill="none" stroke="black" stroke-width="0.5"/>
<path d="M545.26 77.32L595.85 77.32"
fill="none" stroke="black" stroke-width="0.5"/>
<path d="M267.03 26.74L368.21 26.74"
fill="none" stroke="black" stroke-width="0.5"/>
<path d="M469.38 26.74L570.56 26.74"
fill="none" stroke="black" stroke-width="0.5"/>
<path d="M216.44 760.26L317.62 760.26"
fill="none" stroke="black" stroke-width="0.5"/>
<path d="M418.79 760.26L519.97 760.26"
fill="none" stroke="black" stroke-width="0.5"/>
<path d="M191.15 709.68L241.74 709.68"
fill="none" stroke="black" stroke-width="0.5"/>
<path d="M342.91 709.68L444.09 709.68"
fill="none" stroke="black" stroke-width="0.5"/>
<path d="M545.26 709.68L595.85 709.68"
fill="none" stroke="black" stroke-width="0.5"/>
<path d="M267.03 659.09L368.21 659.09"
fill="none" stroke="black" stroke-width="0.5"/>
<path d="M469.38 659.09L570.56 659.09"
fill="none" stroke="black" stroke-width="0.5"/>
<path d="M191.15 608.5L292.32 608.5"
fill="none" stroke="black" stroke-width="0.5"/>
<path d="M393.5 608.5L494.68 608.5"
fill="none" stroke="black" stroke-width="0.5"/>
<path d="M191.15 557.91L216.44 557.91"
fill="none" stroke="black" stroke-width="0.5"/>
<path d="M317.62 557.91L418.79 557.91"
fill="none" stroke="black" stroke-width="0.5"/>
<path d="M519.97 557.91L595.85 557.91"
fill="none" stroke="black" stroke-width="0.5"/>
<path d="M241.74 507.32L342.91 507.32"
fill="none" stroke="black" stroke-width="0.5"/>
<path d="M444.09 507.32L545.26 507.32"
fill="none" stroke="black" stroke-width="0.5"/>
<path d="M191.15 456.74L267.03 456.74"
fill="none" stroke="black" stroke-width="0.5"/>
<path d="M368.21 456.74L469.38 456.74"
fill="none" stroke="black" stroke-width="0.5"/>
<path d="M570.56 456.74L595.85 456.74"
fill="none" stroke="black" stroke-width="0.5"/>
<path d="M292.32 406.15L393.5 406.15"
fill="none" stroke="black" stroke-width="0.5"/>
<path d="M494.68 406.15L595.85 406.15"
fill="none" stroke="black" stroke-width="0.5"/>
<path d="M216.44 355.56L317.62 355.56"
fill="none" stroke="black" stroke-width="0.5"/>
<path d="M418.79 355.56L519.97 355.56"
fill="none" stroke="black" stroke-width="0.5"/>
<path d="M191.15 304.97L241.74 304.97"
fill="none" stroke="black" stroke-width="0.5"/>
<path d="M342.91 304.97L444.09 304.97"
fill="none" stroke="black" stroke-width="0.5"/>
<path d="M545.26 304.97L595.85 304.97"
fill="none" stroke="black" stroke-width="0.5"/>
<path d="M267.03 254.38L368.21 254.38"
fill="none" stroke="black" stroke-width="0.5"/>
<path d="M469.38 254.38L570.56 254.38"
fill="none" stroke="black" stroke-width="0.5"/>
<path d="M191.15 203.79L292.32 203.79"
fill="none" stroke="black" stroke-width="0.5"/>
<path d="M393.5 203.79L494.68 203.79"
fill="none" stroke="black" stroke-width="0.5"/>
<path d="M191.15 153.21L216.44 153.21"
fill="none" stroke="black" stroke-width="0.5"/>
<path d="M317.62 153.21L418.79 153.21"
fill="none" stroke="black" stroke-width="0.5"/>
<path d="M519.97 153.21L595.85 153.21"
fill="none" stroke="black" stroke-width="0.5"/>
<path d="M241.74 102.62L342.91 102.62"
fill="none" stroke="black" stroke-width="0.5"/>
<path d="M444.09 102.62L545.26 102.62"
fill="none" stroke="black" stroke-width="0.5"/>
<path d="M191.15 52.03L267.03 52.03"
fill="none" stroke="black" stroke-width="0.5"/>
<path d="M368.21 52.03L469.38 52.03"
fill="none" stroke="black" stroke-width="0.5"/>
<path d="M570.56 52.03L595.85 52.03"
fill="none" stroke="black" stroke-width="0.5"/>
<path d="M292.32 1.44L393.5 1.44"
fill="none" stroke="black" stroke-width="0.5"/>
<path d="M494.68 1.44L595.85 1.44"
fill="none" stroke="black" stroke-width="0.5"/>
<path d="M519.97 734.97L545.26 709.68"
fill="none" stroke="black" stroke-width="0.5"/>
<path d="M570.56 633.79L595.85 608.5"
fill="none" stroke="black" stroke-width="0.5"/>
<path d="M317.62 734.97L342.91 709.68"
fill="none" stroke="black" stroke-width="0.5"/>
<path d="M368.21 633.79L393.5 608.5"
fill="none" stroke="black" stroke-width="0.5"/>
<path d="M418.79 532.62L444.09 507.32"
fill="none" stroke="black" stroke-width="0.5"/>
<path d="M469.38 431.44L494.68 406.15"
fill="none" stroke="black" stroke-width="0.5"/>
<path d="M519.97 330.26L545.26 304.97"
fill="none" stroke="black" stroke-width="0.5"/>
<path d="M570.56 229.09L595.85 203.79"
fill="none" stroke="black" stroke-width="0.5"/>
<path d="M216.44 532.62L241.74 507.32"
fill="none" stroke="black" stroke-width="0.5"/>
<path d="M267.03 431.44L292.32 406.15"
fill="none" stroke="black" stroke-width="0.5"/>
<path d="M317.62 330.26L342.91 304.97"
fill="none" stroke="black" stroke-width="0.5"/>
<path d="M368.21 229.09L393.5 203.79"
fill="none" stroke="black" stroke-width="0.5"/>
<path d="M418.79 127.91L444.09 102.62"
fill="none" stroke="black" stroke-width="0.5"/>
<path d="M469.38 26.74L494.68 1.44"
fill="none" stroke="black" stroke-width="0.5"/>
<path d="M216.44 127.91L241.74 102.62"
fill="none" stroke="black" stroke-width="0.5"/>
<path d="M267.03 26.74L292.32 1.44"
fill="none" stroke="black" stroke-width="0.5"/>
<path d="M418.79 734.97L444.09 709.68"
fill="none" stroke="black" stroke-width="0.5"/>
<path d="M469.38 633.79L494.68 608.5"
fill="none" stroke="black" stroke-width="0.5"/>
<path d="M519.97 532.62L545.26 507.32"
fill="none" stroke="black" stroke-width="0.5"/>
<path d="M570.56 431.44L595.85 406.15"
fill="none" stroke="black" stroke-width="0.5"/>
<path d="M216.44 734.97L241.74 709.68"
fill="none" stroke="black" stroke-width="0.5"/>
<path d="M267.03 633.79L292.32 608.5"
fill="none" stroke="black" stroke-width="0.5"/>
<path d="M317.62 532.62L342.91 507.32"
fill="none" stroke="black" stroke-width="0.5"/>
<path d="M368.21 431.44L393.5 406.15"
fill="none" stroke="black" stroke-width="0.5"/>
<path d="M418.79 330.26L444.09 304.97"
fill="none" stroke="black" stroke-width="0.5"/>
<path d="M469.38 229.09L494.68 203.79"
fill="none" stroke="black" stroke-width="0.5"/>
<path d="M519.97 127.91L545.26 102.62"
fill="none" stroke="black" stroke-width="0.5"/>
<path d="M570.56 26.74L595.85 1.44"
fill="none" stroke="black" stroke-width="0.5"/>
<path d="M216.44 330.26L241.74 304.97"
fill="none" stroke="black" stroke-width="0.5"/>
<path d="M267.03 229.09L292.32 203.79"
fill="none" stroke="black" stroke-width="0.5"/>
<path d="M317.62 127.91L342.91 102.62"
fill="none" stroke="black" stroke-width="0.5"/>
<path d="M368.21 26.74L393.5 1.44"
fill="none" stroke="black" stroke-width="0.5"/>
<path d="M191.15 1.44L191.15 1.44"
fill="none" stroke="black" stroke-width="0.5"/>
<path d="M595.85 785.56L595.85 785.56"
fill="none" stroke="black" stroke-width="0.5"/>
<path d="M393.5 785.56L418.79 760.26"
fill="none" stroke="black" stroke-width="0.5"/>
<path d="M444.09 684.38L469.38 659.09"
fill="none" stroke="black" stroke-width="0.5"/>
<path d="M494.68 583.21L519.97 557.91"
fill="none" stroke="black" stroke-width="0.5"/>
<path d="M545.26 482.03L570.56 456.74"
fill="none" stroke="black" stroke-width="0.5"/>
<path d="M191.15 785.56L216.44 760.26"
fill="none" stroke="black" stroke-width="0.5"/>
<path d="M595.85 380.85L595.85 380.85"
fill="none" stroke="black" stroke-width="0.5"/>
<path d="M241.74 684.38L267.03 659.09"
fill="none" stroke="black" stroke-width="0.5"/>
<path d="M292.32 583.21L317.62 557.91"
fill="none" stroke="black" stroke-width="0.5"/>
<path d="M342.91 482.03L368.21 456.74"
fill="none" stroke="black" stroke-width="0.5"/>
<path d="M393.5 380.85L418.79 355.56"
fill="none" stroke="black" stroke-width="0.5"/>
<path d="M444.09 279.68L469.38 254.38"
fill="none" stroke="black" stroke-width="0.5"/>
<path d="M494.68 178.5L519.97 153.21"
fill="none" stroke="black" stroke-width="0.5"/>
<path d="M545.26 77.32L570.56 52.03"
fill="none" stroke="black" stroke-width="0.5"/>
<path d="M191.15 380.85L216.44 355.56"
fill="none" stroke="black" stroke-width="0.5"/>
<path d="M241.74 279.68L267.03 254.38"
fill="none" stroke="black" stroke-width="0.5"/>
<path d="M292.32 178.5L317.62 153.21"
fill="none" stroke="black" stroke-width="0.5"/>
<path d="M342.91 77.32L368.21 52.03"
fill="none" stroke="black" stroke-width="0.5"/>
<path d="M494.68 785.56L519.97 760.26"
fill="none" stroke="black" stroke-width="0.5"/>
<path d="M545.26 684.38L570.56 659.09"
fill="none" stroke="black" stroke-width="0.5"/>
<path d="M595.85 583.21L595.85 583.21"
fill="none" stroke="black" stroke-width="0.5"/>
<path d="M292.32 785.56L317.62 760.26"
fill="none" stroke="black" stroke-width="0.5"/>
<path d="M342.91 684.38L368.21 659.09"
fill="none" stroke="black" stroke-width="0.5"/>
<path d="M393.5 583.21L418.79 557.91"
fill="none" stroke="black" stroke-width="0.5"/>
<path d="M444.09 482.03L469.38 456.74"
fill="none" stroke="black" stroke-width="0.5"/>
<path d="M494.68 380.85L519.97 355.56"
fill="none" stroke="black" stroke-width="0.5"/>
<path d="M545.26 279.68L570.56 254.38"
fill="none" stroke="black" stroke-width="0.5"/>
<path d="M191.15 583.21L216.44 557.91"
fill="none" stroke="black" stroke-width="0.5"/>
<path d="M241.74 482.03L267.03 456.74"
fill="none" stroke="black" stroke-width="0.5"/>
<path d="M292.32 380.85L317.62 355.56"
fill="none" stroke="black" stroke-width="0.5"/>
<path d="M342.91 279.68L368.21 254.38"
fill="none" stroke="black" stroke-width="0.5"/>
<path d="M393.5 178.5L418.79 153.21"
fill="none" stroke="black" stroke-width="0.5"/>
<path d="M444.09 77.32L469.38 52.03"
fill="none" stroke="black" stroke-width="0.5"/>
<path d="M191.15 178.5L216.44 153.21"
fill="none" stroke="black" stroke-width="0.5"/>
<path d="M241.74 77.32L267.03 52.03"
fill="none" stroke="black" stroke-width="0.5"/>
</svg>
