<?xml version="1.0" encoding="UTF-8"?>
<svg xmlns="http://www.w3.org/2000/svg" width="99.949mm" height="99.949mm" viewBox="0.0 0.0 787.000 787.000" preserveAspectRatio="none" version="1.1">
  <title>Produce by Acme CAD Converter</title>
  <desc>Produce by Acme CAD Converter</desc>
<path d="M687.64 785.56L785.56 687.64"
fill="none" stroke="black" stroke-width="0.5"/>
<path d="M491.59 785.56L785.56 491.59"
fill="none" stroke="black" stroke-width="0.5"/>
<path d="M295.53 785.56L785.56 295.53"
fill="none" stroke="black" stroke-width="0.5"/>
<path d="M99.47 785.56L785.56 99.47"
fill="none" stroke="black" stroke-width="0.5"/>
<path d="M1.44 687.53L687.53 1.44"
fill="none" stroke="black" stroke-width="0.5"/>
<path d="M1.44 491.47L491.47 1.44"
fill="none" stroke="black" stroke-width="0.5"/>
<path d="M1.44 295.41L295.41 1.44"
fill="none" stroke="black" stroke-width="0.5"/>
<path d="M1.44 99.36L99.36 1.44"
fill="none" stroke="black" stroke-width="0.5"/>
<path d="M589.62 785.56L785.56 589.62"
fill="none" stroke="black" stroke-width="0.5"/>
<path d="M197.5 785.56L785.56 197.5"
fill="none" stroke="black" stroke-width="0.5"/>
<path d="M1.44 589.5L589.5 1.44"
fill="none" stroke="black" stroke-width="0.5"/>
<path d="M1.44 197.38L197.38 1.44"
fill="none" stroke="black" stroke-width="0.5"/>
<path d="M1.44 687.5L99.48 785.54"
fill="none" stroke="black" stroke-width="0.5"/>
<path d="M99.48 785.54L99.5 785.56"
fill="none" stroke="black" stroke-width="0.5"/>
<path d="M1.44 491.44L197.52 687.52"
fill="none" stroke="black" stroke-width="0.5"/>
<path d="M197.52 687.52L295.56 785.56"
fill="none" stroke="black" stroke-width="0.5"/>
<path d="M1.44 295.38L295.55 589.48"
fill="none" stroke="black" stroke-width="0.5"/>
<path d="M295.55 589.48L491.62 785.56"
fill="none" stroke="black" stroke-width="0.5"/>
<path d="M1.44 99.32L393.57 491.45"
fill="none" stroke="black" stroke-width="0.5"/>
<path d="M393.57 491.45L687.68 785.56"
fill="none" stroke="black" stroke-width="0.5"/>
<path d="M99.62 1.44L491.6 393.43"
fill="none" stroke="black" stroke-width="0.5"/>
<path d="M491.6 393.43L785.56 687.38"
fill="none" stroke="black" stroke-width="0.5"/>
<path d="M295.68 1.44L589.63 295.4"
fill="none" stroke="black" stroke-width="0.5"/>
<path d="M589.63 295.4L785.56 491.32"
fill="none" stroke="black" stroke-width="0.5"/>
<path d="M491.74 1.44L687.66 197.37"
fill="none" stroke="black" stroke-width="0.5"/>
<path d="M687.66 197.37L785.56 295.26"
fill="none" stroke="black" stroke-width="0.5"/>
<path d="M687.79 1.44L785.56 99.21"
fill="none" stroke="black" stroke-width="0.5"/>
<path d="M1.44 785.53L1.47 785.56"
fill="none" stroke="black" stroke-width="0.5"/>
<path d="M1.44 393.41L295.55 687.52"
fill="none" stroke="black" stroke-width="0.5"/>
<path d="M295.55 687.52L393.59 785.56"
fill="none" stroke="black" stroke-width="0.5"/>
<path d="M1.59 1.44L491.6 491.45"
fill="none" stroke="black" stroke-width="0.5"/>
<path d="M491.6 491.45L785.56 785.41"
fill="none" stroke="black" stroke-width="0.5"/>
<path d="M393.71 1.44L687.66 295.4"
fill="none" stroke="black" stroke-width="0.5"/>
<path d="M687.66 295.4L785.56 393.29"
fill="none" stroke="black" stroke-width="0.5"/>
<path d="M393.56 785.56L442.59 736.53"
fill="none" stroke="black" stroke-width="0.5"/>
<path d="M540.62 638.5L638.65 540.47"
fill="none" stroke="black" stroke-width="0.5"/>
<path d="M736.67 442.44L785.56 393.56"
fill="none" stroke="black" stroke-width="0.5"/>
<path d="M1.44 785.56L50.47 736.53"
fill="none" stroke="black" stroke-width="0.5"/>
<path d="M148.5 638.5L246.53 540.47"
fill="none" stroke="black" stroke-width="0.5"/>
<path d="M344.56 442.44L442.59 344.41"
fill="none" stroke="black" stroke-width="0.5"/>
<path d="M540.62 246.38L638.65 148.35"
fill="none" stroke="black" stroke-width="0.5"/>
<path d="M736.67 50.33L785.56 1.44"
fill="none" stroke="black" stroke-width="0.5"/>
<path d="M1.44 393.44L50.47 344.41"
fill="none" stroke="black" stroke-width="0.5"/>
<path d="M148.5 246.38L246.53 148.35"
fill="none" stroke="black" stroke-width="0.5"/>
<path d="M344.56 50.33L393.44 1.44"
fill="none" stroke="black" stroke-width="0.5"/>
<path d="M1.44 589.47L50.47 638.5"
fill="none" stroke="black" stroke-width="0.5"/>
<path d="M148.5 736.53L197.53 785.56"
fill="none" stroke="black" stroke-width="0.5"/>
<path d="M1.44 197.35L50.47 246.38"
fill="none" stroke="black" stroke-width="0.5"/>
<path d="M148.5 344.41L246.53 442.44"
fill="none" stroke="black" stroke-width="0.5"/>
<path d="M344.56 540.47L442.59 638.5"
fill="none" stroke="black" stroke-width="0.5"/>
<path d="M540.62 736.53L589.65 785.56"
fill="none" stroke="black" stroke-width="0.5"/>
<path d="M197.65 1.44L246.53 50.33"
fill="none" stroke="black" stroke-width="0.5"/>
<path d="M344.56 148.35L442.59 246.38"
fill="none" stroke="black" stroke-width="0.5"/>
<path d="M540.62 344.41L638.65 442.44"
fill="none" stroke="black" stroke-width="0.5"/>
<path d="M736.67 540.47L785.56 589.35"
fill="none" stroke="black" stroke-width="0.5"/>
<path d="M589.76 1.44L638.65 50.33"
fill="none" stroke="black" stroke-width="0.5"/>
<path d="M736.67 148.35L785.56 197.24"
fill="none" stroke="black" stroke-width="0.5"/>
<path d="M90.82 718.89L108.15 718.89"
fill="none" stroke="black" stroke-width="0.5"/>
<path d="M482.94 718.89L500.27 718.89"
fill="none" stroke="black" stroke-width="0.5"/>
<path d="M286.88 522.83L304.21 522.83"
fill="none" stroke="black" stroke-width="0.5"/>
<path d="M679 522.83L696.33 522.83"
fill="none" stroke="black" stroke-width="0.5"/>
<path d="M90.82 326.78L108.15 326.78"
fill="none" stroke="black" stroke-width="0.5"/>
<path d="M482.94 326.78L500.27 326.78"
fill="none" stroke="black" stroke-width="0.5"/>
<path d="M286.88 130.71L304.21 130.71"
fill="none" stroke="black" stroke-width="0.5"/>
<path d="M679 130.71L696.33 130.71"
fill="none" stroke="black" stroke-width="0.5"/>
<path d="M90.82 656.14L108.15 656.14"
fill="none" stroke="black" stroke-width="0.5"/>
<path d="M482.94 656.14L500.27 656.14"
fill="none" stroke="black" stroke-width="0.5"/>
<path d="M286.88 460.08L304.21 460.08"
fill="none" stroke="black" stroke-width="0.5"/>
<path d="M679 460.08L696.33 460.08"
fill="none" stroke="black" stroke-width="0.5"/>
<path d="M90.82 264.02L108.15 264.02"
fill="none" stroke="black" stroke-width="0.5"/>
<path d="M482.94 264.02L500.27 264.02"
fill="none" stroke="black" stroke-width="0.5"/>
<path d="M286.88 67.96L304.21 67.96"
fill="none" stroke="black" stroke-width="0.5"/>
<path d="M679 67.96L696.33 67.96"
fill="none" stroke="black" stroke-width="0.5"/>
<path d="M666.74 510.58L666.74 472.33"
fill="none" stroke="black" stroke-width="0.5"/>
<path d="M666.74 118.46L666.74 80.21"
fill="none" stroke="black" stroke-width="0.5"/>
<path d="M470.69 706.64L470.69 668.39"
fill="none" stroke="black" stroke-width="0.5"/>
<path d="M470.69 314.52L470.69 276.27"
fill="none" stroke="black" stroke-width="0.5"/>
<path d="M274.63 510.58L274.63 472.33"
fill="none" stroke="black" stroke-width="0.5"/>
<path d="M274.63 118.46L274.63 80.21"
fill="none" stroke="black" stroke-width="0.5"/>
<path d="M78.57 706.64L78.57 668.39"
fill="none" stroke="black" stroke-width="0.5"/>
<path d="M78.57 314.52L78.57 276.27"
fill="none" stroke="black" stroke-width="0.5"/>
<path d="M500.27 718.89L512.52 706.64"
fill="none" stroke="black" stroke-width="0.5"/>
<path d="M696.33 522.83L708.58 510.58"
fill="none" stroke="black" stroke-width="0.5"/>
<path d="M108.15 718.89L120.4 706.64"
fill="none" stroke="black" stroke-width="0.5"/>
<path d="M304.21 522.83L316.46 510.58"
fill="none" stroke="black" stroke-width="0.5"/>
<path d="M500.27 326.78L512.52 314.52"
fill="none" stroke="black" stroke-width="0.5"/>
<path d="M696.33 130.71L708.58 118.46"
fill="none" stroke="black" stroke-width="0.5"/>
<path d="M108.15 326.78L120.4 314.52"
fill="none" stroke="black" stroke-width="0.5"/>
<path d="M304.21 130.71L316.46 118.46"
fill="none" stroke="black" stroke-width="0.5"/>
<path d="M108.15 656.14L120.4 668.39"
fill="none" stroke="black" stroke-width="0.5"/>
<path d="M108.15 264.02L120.4 276.27"
fill="none" stroke="black" stroke-width="0.5"/>
<path d="M304.21 460.08L316.46 472.33"
fill="none" stroke="black" stroke-width="0.5"/>
<path d="M500.27 656.14L512.52 668.39"
fill="none" stroke="black" stroke-width="0.5"/>
<path d="M304.21 67.96L316.46 80.21"
fill="none" stroke="black" stroke-width="0.5"/>
<path d="M500.27 264.02L512.52 276.27"
fill="none" stroke="black" stroke-width="0.5"/>
<path d="M696.33 460.08L708.58 472.33"
fill="none" stroke="black" stroke-width="0.5"/>
<path d="M696.33 67.96L708.58 80.21"
fill="none" stroke="black" stroke-width="0.5"/>
<path d="M286.88 67.96L274.63 80.21"
fill="none" stroke="black" stroke-width="0.5"/>
<path d="M90.82 264.02L78.57 276.27"
fill="none" stroke="black" stroke-width="0.5"/>
<path d="M679 67.96L666.74 80.21"
fill="none" stroke="black" stroke-width="0.5"/>
<path d="M482.94 264.02L470.69 276.27"
fill="none" stroke="black" stroke-width="0.5"/>
<path d="M286.88 460.08L274.63 472.33"
fill="none" stroke="black" stroke-width="0.5"/>
<path d="M90.82 656.14L78.57 668.39"
fill="none" stroke="black" stroke-width="0.5"/>
<path d="M679 460.08L666.74 472.33"
fill="none" stroke="black" stroke-width="0.5"/>
<path d="M482.94 656.14L470.69 668.39"
fill="none" stroke="black" stroke-width="0.5"/>
<path d="M679 130.71L666.74 118.46"
fill="none" stroke="black" stroke-width="0.5"/>
<path d="M679 522.83L666.74 510.58"
fill="none" stroke="black" stroke-width="0.5"/>
<path d="M482.94 326.78L470.69 314.52"
fill="none" stroke="black" stroke-width="0.5"/>
<path d="M286.88 130.71L274.63 118.46"
fill="none" stroke="black" stroke-width="0.5"/>
<path d="M482.94 718.89L470.69 706.64"
fill="none" stroke="black" stroke-width="0.5"/>
<path d="M286.88 522.83L274.63 510.58"
fill="none" stroke="black" stroke-width="0.5"/>
<path d="M90.82 326.78L78.57 314.52"
fill="none" stroke="black" stroke-width="0.5"/>
<path d="M90.82 718.89L78.57 706.64"
fill="none" stroke="black" stroke-width="0.5"/>
</svg>
