<?xml version="1.0" encoding="UTF-8"?>
<svg xmlns="http://www.w3.org/2000/svg" width="99.949mm" height="99.949mm" viewBox="0.0 0.0 787.000 787.000" preserveAspectRatio="none" version="1.1">
  <title>Produce by Acme CAD Converter</title>
  <desc>Produce by Acme CAD Converter</desc>
<path d="M258.29 785.56L304.68 785.56"
fill="none" stroke="black" stroke-width="0.5"/>
<path d="M482.32 785.56L528.71 785.56"
fill="none" stroke="black" stroke-width="0.5"/>
<path d="M169.47 561.52L192.66 561.52"
fill="none" stroke="black" stroke-width="0.5"/>
<path d="M370.31 561.52L416.69 561.52"
fill="none" stroke="black" stroke-width="0.5"/>
<path d="M594.34 561.52L617.53 561.52"
fill="none" stroke="black" stroke-width="0.5"/>
<path d="M258.29 337.49L304.68 337.49"
fill="none" stroke="black" stroke-width="0.5"/>
<path d="M482.32 337.49L528.71 337.49"
fill="none" stroke="black" stroke-width="0.5"/>
<path d="M169.47 113.46L192.66 113.46"
fill="none" stroke="black" stroke-width="0.5"/>
<path d="M370.31 113.46L416.69 113.46"
fill="none" stroke="black" stroke-width="0.5"/>
<path d="M594.34 113.46L617.53 113.46"
fill="none" stroke="black" stroke-width="0.5"/>
<path d="M258.29 673.54L304.68 673.54"
fill="none" stroke="black" stroke-width="0.5"/>
<path d="M482.32 673.54L528.71 673.54"
fill="none" stroke="black" stroke-width="0.5"/>
<path d="M169.47 449.51L192.66 449.51"
fill="none" stroke="black" stroke-width="0.5"/>
<path d="M370.31 449.51L416.69 449.51"
fill="none" stroke="black" stroke-width="0.5"/>
<path d="M594.34 449.51L617.53 449.51"
fill="none" stroke="black" stroke-width="0.5"/>
<path d="M258.29 225.48L304.68 225.48"
fill="none" stroke="black" stroke-width="0.5"/>
<path d="M482.32 225.48L528.71 225.48"
fill="none" stroke="black" stroke-width="0.5"/>
<path d="M169.47 1.44L192.66 1.44"
fill="none" stroke="black" stroke-width="0.5"/>
<path d="M370.31 1.44L416.69 1.44"
fill="none" stroke="black" stroke-width="0.5"/>
<path d="M594.34 1.44L617.53 1.44"
fill="none" stroke="black" stroke-width="0.5"/>
<path d="M561.52 752.74L561.52 706.35"
fill="none" stroke="black" stroke-width="0.5"/>
<path d="M561.52 528.71L561.52 482.32"
fill="none" stroke="black" stroke-width="0.5"/>
<path d="M561.52 304.68L561.52 258.29"
fill="none" stroke="black" stroke-width="0.5"/>
<path d="M561.52 80.65L561.52 34.26"
fill="none" stroke="black" stroke-width="0.5"/>
<path d="M449.51 752.74L449.51 706.35"
fill="none" stroke="black" stroke-width="0.5"/>
<path d="M449.51 528.71L449.51 482.32"
fill="none" stroke="black" stroke-width="0.5"/>
<path d="M449.51 304.68L449.51 258.29"
fill="none" stroke="black" stroke-width="0.5"/>
<path d="M449.51 80.65L449.51 34.26"
fill="none" stroke="black" stroke-width="0.5"/>
<path d="M337.49 752.74L337.49 706.35"
fill="none" stroke="black" stroke-width="0.5"/>
<path d="M337.49 528.71L337.49 482.32"
fill="none" stroke="black" stroke-width="0.5"/>
<path d="M337.49 304.68L337.49 258.29"
fill="none" stroke="black" stroke-width="0.5"/>
<path d="M337.49 80.65L337.49 34.26"
fill="none" stroke="black" stroke-width="0.5"/>
<path d="M225.48 752.74L225.48 706.35"
fill="none" stroke="black" stroke-width="0.5"/>
<path d="M225.48 528.71L225.48 482.32"
fill="none" stroke="black" stroke-width="0.5"/>
<path d="M225.48 304.68L225.48 258.29"
fill="none" stroke="black" stroke-width="0.5"/>
<path d="M225.48 80.65L225.48 34.26"
fill="none" stroke="black" stroke-width="0.5"/>
<path d="M561.52 752.74L561.52 706.35"
fill="none" stroke="black" stroke-width="0.5"/>
<path d="M561.52 528.71L561.52 482.32"
fill="none" stroke="black" stroke-width="0.5"/>
<path d="M561.52 304.68L561.52 258.29"
fill="none" stroke="black" stroke-width="0.5"/>
<path d="M561.52 80.65L561.52 34.26"
fill="none" stroke="black" stroke-width="0.5"/>
<path d="M449.51 752.74L449.51 706.35"
fill="none" stroke="black" stroke-width="0.5"/>
<path d="M449.51 528.71L449.51 482.32"
fill="none" stroke="black" stroke-width="0.5"/>
<path d="M449.51 304.68L449.51 258.29"
fill="none" stroke="black" stroke-width="0.5"/>
<path d="M449.51 80.65L449.51 34.26"
fill="none" stroke="black" stroke-width="0.5"/>
<path d="M337.49 752.74L337.49 706.35"
fill="none" stroke="black" stroke-width="0.5"/>
<path d="M337.49 528.71L337.49 482.32"
fill="none" stroke="black" stroke-width="0.5"/>
<path d="M337.49 304.68L337.49 258.29"
fill="none" stroke="black" stroke-width="0.5"/>
<path d="M337.49 80.65L337.49 34.26"
fill="none" stroke="black" stroke-width="0.5"/>
<path d="M225.48 752.74L225.48 706.35"
fill="none" stroke="black" stroke-width="0.5"/>
<path d="M225.48 528.71L225.48 482.32"
fill="none" stroke="black" stroke-width="0.5"/>
<path d="M225.48 304.68L225.48 258.29"
fill="none" stroke="black" stroke-width="0.5"/>
<path d="M225.48 80.65L225.48 34.26"
fill="none" stroke="black" stroke-width="0.5"/>
<path d="M528.71 785.56L561.52 752.74"
fill="none" stroke="black" stroke-width="0.5"/>
<path d="M304.68 785.56L337.49 752.74"
fill="none" stroke="black" stroke-width="0.5"/>
<path d="M416.69 561.52L449.51 528.71"
fill="none" stroke="black" stroke-width="0.5"/>
<path d="M528.71 337.49L561.52 304.68"
fill="none" stroke="black" stroke-width="0.5"/>
<path d="M192.66 561.52L225.48 528.71"
fill="none" stroke="black" stroke-width="0.5"/>
<path d="M304.68 337.49L337.49 304.68"
fill="none" stroke="black" stroke-width="0.5"/>
<path d="M416.69 113.46L449.51 80.65"
fill="none" stroke="black" stroke-width="0.5"/>
<path d="M192.66 113.46L225.48 80.65"
fill="none" stroke="black" stroke-width="0.5"/>
<path d="M304.68 673.54L337.49 706.35"
fill="none" stroke="black" stroke-width="0.5"/>
<path d="M192.66 449.51L225.48 482.32"
fill="none" stroke="black" stroke-width="0.5"/>
<path d="M528.71 673.54L561.52 706.35"
fill="none" stroke="black" stroke-width="0.5"/>
<path d="M416.69 449.51L449.51 482.32"
fill="none" stroke="black" stroke-width="0.5"/>
<path d="M304.68 225.48L337.49 258.29"
fill="none" stroke="black" stroke-width="0.5"/>
<path d="M192.66 1.44L225.48 34.26"
fill="none" stroke="black" stroke-width="0.5"/>
<path d="M528.71 225.48L561.52 258.29"
fill="none" stroke="black" stroke-width="0.5"/>
<path d="M416.69 1.44L449.51 34.26"
fill="none" stroke="black" stroke-width="0.5"/>
<path d="M370.31 1.44L337.49 34.26"
fill="none" stroke="black" stroke-width="0.5"/>
<path d="M258.29 225.48L225.48 258.29"
fill="none" stroke="black" stroke-width="0.5"/>
<path d="M594.34 1.44L561.52 34.26"
fill="none" stroke="black" stroke-width="0.5"/>
<path d="M482.32 225.48L449.51 258.29"
fill="none" stroke="black" stroke-width="0.5"/>
<path d="M370.31 449.51L337.49 482.32"
fill="none" stroke="black" stroke-width="0.5"/>
<path d="M258.29 673.54L225.48 706.35"
fill="none" stroke="black" stroke-width="0.5"/>
<path d="M594.34 449.51L561.52 482.32"
fill="none" stroke="black" stroke-width="0.5"/>
<path d="M482.32 673.54L449.51 706.35"
fill="none" stroke="black" stroke-width="0.5"/>
<path d="M594.34 113.46L561.52 80.65"
fill="none" stroke="black" stroke-width="0.5"/>
<path d="M370.31 113.46L337.49 80.65"
fill="none" stroke="black" stroke-width="0.5"/>
<path d="M482.32 337.49L449.51 304.68"
fill="none" stroke="black" stroke-width="0.5"/>
<path d="M594.34 561.52L561.52 528.71"
fill="none" stroke="black" stroke-width="0.5"/>
<path d="M258.29 337.49L225.48 304.68"
fill="none" stroke="black" stroke-width="0.5"/>
<path d="M370.31 561.52L337.49 528.71"
fill="none" stroke="black" stroke-width="0.5"/>
<path d="M482.32 785.56L449.51 752.74"
fill="none" stroke="black" stroke-width="0.5"/>
<path d="M258.29 785.56L225.48 752.74"
fill="none" stroke="black" stroke-width="0.5"/>
</svg>
