<?xml version="1.0" encoding="UTF-8"?>
<svg xmlns="http://www.w3.org/2000/svg" width="99.949mm" height="99.949mm" viewBox="0.0 0.0 787.000 787.000" preserveAspectRatio="none" version="1.1">
  <title>Produce by Acme CAD Converter</title>
  <desc>Produce by Acme CAD Converter</desc>
<path d="M239.05 754.19L246.85 754.19"
fill="none" stroke="black" stroke-width="0.5"/>
<path d="M439.79 754.19L447.58 754.19"
fill="none" stroke="black" stroke-width="0.5"/>
<path d="M289.24 653.83L297.03 653.83"
fill="none" stroke="black" stroke-width="0.5"/>
<path d="M489.97 653.83L497.76 653.83"
fill="none" stroke="black" stroke-width="0.5"/>
<path d="M339.42 553.46L347.21 553.46"
fill="none" stroke="black" stroke-width="0.5"/>
<path d="M540.15 553.46L547.95 553.46"
fill="none" stroke="black" stroke-width="0.5"/>
<path d="M192.77 453.09L196.66 453.09"
fill="none" stroke="black" stroke-width="0.5"/>
<path d="M389.6 453.09L397.4 453.09"
fill="none" stroke="black" stroke-width="0.5"/>
<path d="M590.34 453.09L594.23 453.09"
fill="none" stroke="black" stroke-width="0.5"/>
<path d="M239.05 352.73L246.85 352.73"
fill="none" stroke="black" stroke-width="0.5"/>
<path d="M439.79 352.73L447.58 352.73"
fill="none" stroke="black" stroke-width="0.5"/>
<path d="M289.24 252.36L297.03 252.36"
fill="none" stroke="black" stroke-width="0.5"/>
<path d="M489.97 252.36L497.76 252.36"
fill="none" stroke="black" stroke-width="0.5"/>
<path d="M339.42 151.99L347.21 151.99"
fill="none" stroke="black" stroke-width="0.5"/>
<path d="M540.15 151.99L547.95 151.99"
fill="none" stroke="black" stroke-width="0.5"/>
<path d="M192.77 51.63L196.66 51.63"
fill="none" stroke="black" stroke-width="0.5"/>
<path d="M389.6 51.63L397.4 51.63"
fill="none" stroke="black" stroke-width="0.5"/>
<path d="M590.34 51.63L594.23 51.63"
fill="none" stroke="black" stroke-width="0.5"/>
<path d="M239.05 735.37L246.85 735.37"
fill="none" stroke="black" stroke-width="0.5"/>
<path d="M439.79 735.37L447.58 735.37"
fill="none" stroke="black" stroke-width="0.5"/>
<path d="M289.24 635.01L297.03 635.01"
fill="none" stroke="black" stroke-width="0.5"/>
<path d="M489.97 635.01L497.76 635.01"
fill="none" stroke="black" stroke-width="0.5"/>
<path d="M339.42 534.64L347.21 534.64"
fill="none" stroke="black" stroke-width="0.5"/>
<path d="M540.15 534.64L547.95 534.64"
fill="none" stroke="black" stroke-width="0.5"/>
<path d="M192.77 434.27L196.66 434.27"
fill="none" stroke="black" stroke-width="0.5"/>
<path d="M389.6 434.27L397.4 434.27"
fill="none" stroke="black" stroke-width="0.5"/>
<path d="M590.34 434.27L594.23 434.27"
fill="none" stroke="black" stroke-width="0.5"/>
<path d="M239.05 333.91L246.85 333.91"
fill="none" stroke="black" stroke-width="0.5"/>
<path d="M439.79 333.91L447.58 333.91"
fill="none" stroke="black" stroke-width="0.5"/>
<path d="M289.24 233.54L297.03 233.54"
fill="none" stroke="black" stroke-width="0.5"/>
<path d="M489.97 233.54L497.76 233.54"
fill="none" stroke="black" stroke-width="0.5"/>
<path d="M339.42 133.17L347.21 133.17"
fill="none" stroke="black" stroke-width="0.5"/>
<path d="M540.15 133.17L547.95 133.17"
fill="none" stroke="black" stroke-width="0.5"/>
<path d="M192.77 32.81L196.66 32.81"
fill="none" stroke="black" stroke-width="0.5"/>
<path d="M389.6 32.81L397.4 32.81"
fill="none" stroke="black" stroke-width="0.5"/>
<path d="M590.34 32.81L594.23 32.81"
fill="none" stroke="black" stroke-width="0.5"/>
<path d="M584.82 447.58L584.82 439.79"
fill="none" stroke="black" stroke-width="0.5"/>
<path d="M584.82 46.11L584.82 38.32"
fill="none" stroke="black" stroke-width="0.5"/>
<path d="M534.64 547.95L534.64 540.15"
fill="none" stroke="black" stroke-width="0.5"/>
<path d="M534.64 146.48L534.64 138.69"
fill="none" stroke="black" stroke-width="0.5"/>
<path d="M484.46 648.31L484.46 640.52"
fill="none" stroke="black" stroke-width="0.5"/>
<path d="M484.46 246.85L484.46 239.05"
fill="none" stroke="black" stroke-width="0.5"/>
<path d="M434.27 748.68L434.27 740.89"
fill="none" stroke="black" stroke-width="0.5"/>
<path d="M434.27 347.21L434.27 339.42"
fill="none" stroke="black" stroke-width="0.5"/>
<path d="M384.09 447.58L384.09 439.79"
fill="none" stroke="black" stroke-width="0.5"/>
<path d="M384.09 46.11L384.09 38.32"
fill="none" stroke="black" stroke-width="0.5"/>
<path d="M333.91 547.95L333.91 540.15"
fill="none" stroke="black" stroke-width="0.5"/>
<path d="M333.91 146.48L333.91 138.69"
fill="none" stroke="black" stroke-width="0.5"/>
<path d="M283.72 648.31L283.72 640.52"
fill="none" stroke="black" stroke-width="0.5"/>
<path d="M283.72 246.85L283.72 239.05"
fill="none" stroke="black" stroke-width="0.5"/>
<path d="M233.54 748.68L233.54 740.89"
fill="none" stroke="black" stroke-width="0.5"/>
<path d="M233.54 347.21L233.54 339.42"
fill="none" stroke="black" stroke-width="0.5"/>
<path d="M553.46 547.95L553.46 540.15"
fill="none" stroke="black" stroke-width="0.5"/>
<path d="M553.46 146.48L553.46 138.69"
fill="none" stroke="black" stroke-width="0.5"/>
<path d="M503.28 648.31L503.28 640.52"
fill="none" stroke="black" stroke-width="0.5"/>
<path d="M503.28 246.85L503.28 239.05"
fill="none" stroke="black" stroke-width="0.5"/>
<path d="M453.09 748.68L453.09 740.89"
fill="none" stroke="black" stroke-width="0.5"/>
<path d="M453.09 347.21L453.09 339.42"
fill="none" stroke="black" stroke-width="0.5"/>
<path d="M402.91 447.58L402.91 439.79"
fill="none" stroke="black" stroke-width="0.5"/>
<path d="M402.91 46.11L402.91 38.32"
fill="none" stroke="black" stroke-width="0.5"/>
<path d="M352.73 547.95L352.73 540.15"
fill="none" stroke="black" stroke-width="0.5"/>
<path d="M352.73 146.48L352.73 138.69"
fill="none" stroke="black" stroke-width="0.5"/>
<path d="M302.54 648.31L302.54 640.52"
fill="none" stroke="black" stroke-width="0.5"/>
<path d="M302.54 246.85L302.54 239.05"
fill="none" stroke="black" stroke-width="0.5"/>
<path d="M252.36 748.68L252.36 740.89"
fill="none" stroke="black" stroke-width="0.5"/>
<path d="M252.36 347.21L252.36 339.42"
fill="none" stroke="black" stroke-width="0.5"/>
<path d="M202.18 447.58L202.18 439.79"
fill="none" stroke="black" stroke-width="0.5"/>
<path d="M202.18 46.11L202.18 38.32"
fill="none" stroke="black" stroke-width="0.5"/>
<path d="M447.58 754.19L453.09 748.68"
fill="none" stroke="black" stroke-width="0.5"/>
<path d="M497.76 653.83L503.28 648.31"
fill="none" stroke="black" stroke-width="0.5"/>
<path d="M547.95 553.46L553.46 547.95"
fill="none" stroke="black" stroke-width="0.5"/>
<path d="M246.85 754.19L252.36 748.68"
fill="none" stroke="black" stroke-width="0.5"/>
<path d="M297.03 653.83L302.54 648.31"
fill="none" stroke="black" stroke-width="0.5"/>
<path d="M347.21 553.46L352.73 547.95"
fill="none" stroke="black" stroke-width="0.5"/>
<path d="M397.4 453.09L402.91 447.58"
fill="none" stroke="black" stroke-width="0.5"/>
<path d="M447.58 352.73L453.09 347.21"
fill="none" stroke="black" stroke-width="0.5"/>
<path d="M497.76 252.36L503.28 246.85"
fill="none" stroke="black" stroke-width="0.5"/>
<path d="M547.95 151.99L553.46 146.48"
fill="none" stroke="black" stroke-width="0.5"/>
<path d="M196.66 453.09L202.18 447.58"
fill="none" stroke="black" stroke-width="0.5"/>
<path d="M246.85 352.73L252.36 347.21"
fill="none" stroke="black" stroke-width="0.5"/>
<path d="M297.03 252.36L302.54 246.85"
fill="none" stroke="black" stroke-width="0.5"/>
<path d="M347.21 151.99L352.73 146.48"
fill="none" stroke="black" stroke-width="0.5"/>
<path d="M397.4 51.63L402.91 46.11"
fill="none" stroke="black" stroke-width="0.5"/>
<path d="M196.66 51.63L202.18 46.11"
fill="none" stroke="black" stroke-width="0.5"/>
<path d="M246.85 735.37L252.36 740.89"
fill="none" stroke="black" stroke-width="0.5"/>
<path d="M297.03 635.01L302.54 640.52"
fill="none" stroke="black" stroke-width="0.5"/>
<path d="M447.58 735.37L453.09 740.89"
fill="none" stroke="black" stroke-width="0.5"/>
<path d="M196.66 434.27L202.18 439.79"
fill="none" stroke="black" stroke-width="0.5"/>
<path d="M347.21 534.64L352.73 540.15"
fill="none" stroke="black" stroke-width="0.5"/>
<path d="M497.76 635.01L503.28 640.52"
fill="none" stroke="black" stroke-width="0.5"/>
<path d="M246.85 333.91L252.36 339.42"
fill="none" stroke="black" stroke-width="0.5"/>
<path d="M397.4 434.27L402.91 439.79"
fill="none" stroke="black" stroke-width="0.5"/>
<path d="M547.95 534.64L553.46 540.15"
fill="none" stroke="black" stroke-width="0.5"/>
<path d="M297.03 233.54L302.54 239.05"
fill="none" stroke="black" stroke-width="0.5"/>
<path d="M447.58 333.91L453.09 339.42"
fill="none" stroke="black" stroke-width="0.5"/>
<path d="M196.66 32.81L202.18 38.32"
fill="none" stroke="black" stroke-width="0.5"/>
<path d="M347.21 133.17L352.73 138.69"
fill="none" stroke="black" stroke-width="0.5"/>
<path d="M497.76 233.54L503.28 239.05"
fill="none" stroke="black" stroke-width="0.5"/>
<path d="M397.4 32.81L402.91 38.32"
fill="none" stroke="black" stroke-width="0.5"/>
<path d="M547.95 133.17L553.46 138.69"
fill="none" stroke="black" stroke-width="0.5"/>
<path d="M389.6 32.81L384.09 38.32"
fill="none" stroke="black" stroke-width="0.5"/>
<path d="M339.42 133.17L333.91 138.69"
fill="none" stroke="black" stroke-width="0.5"/>
<path d="M289.24 233.54L283.72 239.05"
fill="none" stroke="black" stroke-width="0.5"/>
<path d="M239.05 333.91L233.54 339.42"
fill="none" stroke="black" stroke-width="0.5"/>
<path d="M590.34 32.81L584.82 38.32"
fill="none" stroke="black" stroke-width="0.5"/>
<path d="M540.15 133.17L534.64 138.69"
fill="none" stroke="black" stroke-width="0.5"/>
<path d="M489.97 233.54L484.46 239.05"
fill="none" stroke="black" stroke-width="0.5"/>
<path d="M439.79 333.91L434.27 339.42"
fill="none" stroke="black" stroke-width="0.5"/>
<path d="M389.6 434.27L384.09 439.79"
fill="none" stroke="black" stroke-width="0.5"/>
<path d="M339.42 534.64L333.91 540.15"
fill="none" stroke="black" stroke-width="0.5"/>
<path d="M289.24 635.01L283.72 640.52"
fill="none" stroke="black" stroke-width="0.5"/>
<path d="M239.05 735.37L233.54 740.89"
fill="none" stroke="black" stroke-width="0.5"/>
<path d="M590.34 434.27L584.82 439.79"
fill="none" stroke="black" stroke-width="0.5"/>
<path d="M540.15 534.64L534.64 540.15"
fill="none" stroke="black" stroke-width="0.5"/>
<path d="M489.97 635.01L484.46 640.52"
fill="none" stroke="black" stroke-width="0.5"/>
<path d="M439.79 735.37L434.27 740.89"
fill="none" stroke="black" stroke-width="0.5"/>
<path d="M590.34 51.63L584.82 46.11"
fill="none" stroke="black" stroke-width="0.5"/>
<path d="M540.15 151.99L534.64 146.48"
fill="none" stroke="black" stroke-width="0.5"/>
<path d="M389.6 51.63L384.09 46.11"
fill="none" stroke="black" stroke-width="0.5"/>
<path d="M489.97 252.36L484.46 246.85"
fill="none" stroke="black" stroke-width="0.5"/>
<path d="M339.42 151.99L333.91 146.48"
fill="none" stroke="black" stroke-width="0.5"/>
<path d="M590.34 453.09L584.82 447.58"
fill="none" stroke="black" stroke-width="0.5"/>
<path d="M439.79 352.73L434.27 347.21"
fill="none" stroke="black" stroke-width="0.5"/>
<path d="M289.24 252.36L283.72 246.85"
fill="none" stroke="black" stroke-width="0.5"/>
<path d="M540.15 553.46L534.64 547.95"
fill="none" stroke="black" stroke-width="0.5"/>
<path d="M389.6 453.09L384.09 447.58"
fill="none" stroke="black" stroke-width="0.5"/>
<path d="M239.05 352.73L233.54 347.21"
fill="none" stroke="black" stroke-width="0.5"/>
<path d="M489.97 653.83L484.46 648.31"
fill="none" stroke="black" stroke-width="0.5"/>
<path d="M339.42 553.46L333.91 547.95"
fill="none" stroke="black" stroke-width="0.5"/>
<path d="M439.79 754.19L434.27 748.68"
fill="none" stroke="black" stroke-width="0.5"/>
<path d="M289.24 653.83L283.72 648.31"
fill="none" stroke="black" stroke-width="0.5"/>
<path d="M239.05 754.19L233.54 748.68"
fill="none" stroke="black" stroke-width="0.5"/>
<path d="M335.36 785.56L351.27 785.56"
fill="none" stroke="black" stroke-width="0.5"/>
<path d="M536.1 785.56L552 785.56"
fill="none" stroke="black" stroke-width="0.5"/>
<path d="M192.77 685.19L200.72 685.19"
fill="none" stroke="black" stroke-width="0.5"/>
<path d="M385.55 685.19L401.45 685.19"
fill="none" stroke="black" stroke-width="0.5"/>
<path d="M586.28 685.19L594.23 685.19"
fill="none" stroke="black" stroke-width="0.5"/>
<path d="M235 584.82L250.9 584.82"
fill="none" stroke="black" stroke-width="0.5"/>
<path d="M435.73 584.82L451.64 584.82"
fill="none" stroke="black" stroke-width="0.5"/>
<path d="M285.18 484.46L301.09 484.46"
fill="none" stroke="black" stroke-width="0.5"/>
<path d="M485.91 484.46L501.82 484.46"
fill="none" stroke="black" stroke-width="0.5"/>
<path d="M335.36 384.09L351.27 384.09"
fill="none" stroke="black" stroke-width="0.5"/>
<path d="M536.1 384.09L552 384.09"
fill="none" stroke="black" stroke-width="0.5"/>
<path d="M192.77 283.72L200.72 283.72"
fill="none" stroke="black" stroke-width="0.5"/>
<path d="M385.55 283.72L401.45 283.72"
fill="none" stroke="black" stroke-width="0.5"/>
<path d="M586.28 283.72L594.23 283.72"
fill="none" stroke="black" stroke-width="0.5"/>
<path d="M235 183.36L250.9 183.36"
fill="none" stroke="black" stroke-width="0.5"/>
<path d="M435.73 183.36L451.64 183.36"
fill="none" stroke="black" stroke-width="0.5"/>
<path d="M285.18 82.99L301.09 82.99"
fill="none" stroke="black" stroke-width="0.5"/>
<path d="M485.91 82.99L501.82 82.99"
fill="none" stroke="black" stroke-width="0.5"/>
<path d="M335.36 704.01L351.27 704.01"
fill="none" stroke="black" stroke-width="0.5"/>
<path d="M536.1 704.01L552 704.01"
fill="none" stroke="black" stroke-width="0.5"/>
<path d="M192.77 603.64L200.72 603.64"
fill="none" stroke="black" stroke-width="0.5"/>
<path d="M385.55 603.64L401.45 603.64"
fill="none" stroke="black" stroke-width="0.5"/>
<path d="M586.28 603.64L594.23 603.64"
fill="none" stroke="black" stroke-width="0.5"/>
<path d="M235 503.28L250.9 503.28"
fill="none" stroke="black" stroke-width="0.5"/>
<path d="M435.73 503.28L451.64 503.28"
fill="none" stroke="black" stroke-width="0.5"/>
<path d="M285.18 402.91L301.09 402.91"
fill="none" stroke="black" stroke-width="0.5"/>
<path d="M485.91 402.91L501.82 402.91"
fill="none" stroke="black" stroke-width="0.5"/>
<path d="M335.36 302.54L351.27 302.54"
fill="none" stroke="black" stroke-width="0.5"/>
<path d="M536.1 302.54L552 302.54"
fill="none" stroke="black" stroke-width="0.5"/>
<path d="M192.77 202.18L200.72 202.18"
fill="none" stroke="black" stroke-width="0.5"/>
<path d="M385.55 202.18L401.45 202.18"
fill="none" stroke="black" stroke-width="0.5"/>
<path d="M586.28 202.18L594.23 202.18"
fill="none" stroke="black" stroke-width="0.5"/>
<path d="M235 101.81L250.9 101.81"
fill="none" stroke="black" stroke-width="0.5"/>
<path d="M435.73 101.81L451.64 101.81"
fill="none" stroke="black" stroke-width="0.5"/>
<path d="M285.18 1.44L301.09 1.44"
fill="none" stroke="black" stroke-width="0.5"/>
<path d="M485.91 1.44L501.82 1.44"
fill="none" stroke="black" stroke-width="0.5"/>
<path d="M553.46 652.37L553.46 636.46"
fill="none" stroke="black" stroke-width="0.5"/>
<path d="M553.46 250.9L553.46 235"
fill="none" stroke="black" stroke-width="0.5"/>
<path d="M503.28 752.74L503.28 736.83"
fill="none" stroke="black" stroke-width="0.5"/>
<path d="M503.28 351.27L503.28 335.36"
fill="none" stroke="black" stroke-width="0.5"/>
<path d="M453.09 451.64L453.09 435.73"
fill="none" stroke="black" stroke-width="0.5"/>
<path d="M453.09 50.17L453.09 34.26"
fill="none" stroke="black" stroke-width="0.5"/>
<path d="M402.91 552L402.91 536.1"
fill="none" stroke="black" stroke-width="0.5"/>
<path d="M402.91 150.54L402.91 134.63"
fill="none" stroke="black" stroke-width="0.5"/>
<path d="M352.73 652.37L352.73 636.46"
fill="none" stroke="black" stroke-width="0.5"/>
<path d="M352.73 250.9L352.73 235"
fill="none" stroke="black" stroke-width="0.5"/>
<path d="M302.54 752.74L302.54 736.83"
fill="none" stroke="black" stroke-width="0.5"/>
<path d="M302.54 351.27L302.54 335.36"
fill="none" stroke="black" stroke-width="0.5"/>
<path d="M252.36 451.64L252.36 435.73"
fill="none" stroke="black" stroke-width="0.5"/>
<path d="M252.36 50.17L252.36 34.26"
fill="none" stroke="black" stroke-width="0.5"/>
<path d="M202.18 552L202.18 536.1"
fill="none" stroke="black" stroke-width="0.5"/>
<path d="M202.18 150.54L202.18 134.63"
fill="none" stroke="black" stroke-width="0.5"/>
<path d="M584.82 752.74L584.82 736.83"
fill="none" stroke="black" stroke-width="0.5"/>
<path d="M584.82 351.27L584.82 335.36"
fill="none" stroke="black" stroke-width="0.5"/>
<path d="M534.64 451.64L534.64 435.73"
fill="none" stroke="black" stroke-width="0.5"/>
<path d="M534.64 50.17L534.64 34.26"
fill="none" stroke="black" stroke-width="0.5"/>
<path d="M484.46 552L484.46 536.1"
fill="none" stroke="black" stroke-width="0.5"/>
<path d="M484.46 150.54L484.46 134.63"
fill="none" stroke="black" stroke-width="0.5"/>
<path d="M434.27 652.37L434.27 636.46"
fill="none" stroke="black" stroke-width="0.5"/>
<path d="M434.27 250.9L434.27 235"
fill="none" stroke="black" stroke-width="0.5"/>
<path d="M384.09 752.74L384.09 736.83"
fill="none" stroke="black" stroke-width="0.5"/>
<path d="M384.09 351.27L384.09 335.36"
fill="none" stroke="black" stroke-width="0.5"/>
<path d="M333.91 451.64L333.91 435.73"
fill="none" stroke="black" stroke-width="0.5"/>
<path d="M333.91 50.17L333.91 34.26"
fill="none" stroke="black" stroke-width="0.5"/>
<path d="M283.72 552L283.72 536.1"
fill="none" stroke="black" stroke-width="0.5"/>
<path d="M283.72 150.54L283.72 134.63"
fill="none" stroke="black" stroke-width="0.5"/>
<path d="M233.54 652.37L233.54 636.46"
fill="none" stroke="black" stroke-width="0.5"/>
<path d="M233.54 250.9L233.54 235"
fill="none" stroke="black" stroke-width="0.5"/>
<path d="M566.35 779.82L579.08 767.09"
fill="none" stroke="black" stroke-width="0.5"/>
<path d="M365.62 779.82L378.35 767.09"
fill="none" stroke="black" stroke-width="0.5"/>
<path d="M415.8 679.45L428.53 666.72"
fill="none" stroke="black" stroke-width="0.5"/>
<path d="M465.99 579.08L478.72 566.35"
fill="none" stroke="black" stroke-width="0.5"/>
<path d="M516.17 478.72L528.9 465.99"
fill="none" stroke="black" stroke-width="0.5"/>
<path d="M566.35 378.35L579.08 365.62"
fill="none" stroke="black" stroke-width="0.5"/>
<path d="M215.07 679.45L227.8 666.72"
fill="none" stroke="black" stroke-width="0.5"/>
<path d="M265.25 579.08L277.98 566.35"
fill="none" stroke="black" stroke-width="0.5"/>
<path d="M315.44 478.72L328.17 465.99"
fill="none" stroke="black" stroke-width="0.5"/>
<path d="M365.62 378.35L378.35 365.62"
fill="none" stroke="black" stroke-width="0.5"/>
<path d="M415.8 277.98L428.53 265.25"
fill="none" stroke="black" stroke-width="0.5"/>
<path d="M465.99 177.62L478.72 164.89"
fill="none" stroke="black" stroke-width="0.5"/>
<path d="M516.17 77.25L528.9 64.52"
fill="none" stroke="black" stroke-width="0.5"/>
<path d="M215.07 277.98L227.8 265.25"
fill="none" stroke="black" stroke-width="0.5"/>
<path d="M265.25 177.62L277.98 164.89"
fill="none" stroke="black" stroke-width="0.5"/>
<path d="M315.44 77.25L328.17 64.52"
fill="none" stroke="black" stroke-width="0.5"/>
<path d="M215.07 609.38L227.8 622.11"
fill="none" stroke="black" stroke-width="0.5"/>
<path d="M365.62 709.75L378.35 722.48"
fill="none" stroke="black" stroke-width="0.5"/>
<path d="M265.25 509.02L277.98 521.75"
fill="none" stroke="black" stroke-width="0.5"/>
<path d="M415.8 609.38L428.53 622.11"
fill="none" stroke="black" stroke-width="0.5"/>
<path d="M566.35 709.75L579.08 722.48"
fill="none" stroke="black" stroke-width="0.5"/>
<path d="M315.44 408.65L328.17 421.38"
fill="none" stroke="black" stroke-width="0.5"/>
<path d="M465.99 509.02L478.72 521.75"
fill="none" stroke="black" stroke-width="0.5"/>
<path d="M215.07 207.92L227.8 220.65"
fill="none" stroke="black" stroke-width="0.5"/>
<path d="M365.62 308.28L378.35 321.01"
fill="none" stroke="black" stroke-width="0.5"/>
<path d="M516.17 408.65L528.9 421.38"
fill="none" stroke="black" stroke-width="0.5"/>
<path d="M265.25 107.55L277.98 120.28"
fill="none" stroke="black" stroke-width="0.5"/>
<path d="M415.8 207.92L428.53 220.65"
fill="none" stroke="black" stroke-width="0.5"/>
<path d="M566.35 308.28L579.08 321.01"
fill="none" stroke="black" stroke-width="0.5"/>
<path d="M315.44 7.18L328.17 19.91"
fill="none" stroke="black" stroke-width="0.5"/>
<path d="M465.99 107.55L478.72 120.28"
fill="none" stroke="black" stroke-width="0.5"/>
<path d="M516.17 7.18L528.9 19.91"
fill="none" stroke="black" stroke-width="0.5"/>
<path d="M270.83 7.18L258.1 19.91"
fill="none" stroke="black" stroke-width="0.5"/>
<path d="M220.65 107.55L207.92 120.28"
fill="none" stroke="black" stroke-width="0.5"/>
<path d="M471.56 7.18L458.83 19.91"
fill="none" stroke="black" stroke-width="0.5"/>
<path d="M421.38 107.55L408.65 120.28"
fill="none" stroke="black" stroke-width="0.5"/>
<path d="M371.2 207.92L358.47 220.65"
fill="none" stroke="black" stroke-width="0.5"/>
<path d="M321.01 308.28L308.28 321.01"
fill="none" stroke="black" stroke-width="0.5"/>
<path d="M270.83 408.65L258.1 421.38"
fill="none" stroke="black" stroke-width="0.5"/>
<path d="M220.65 509.02L207.92 521.75"
fill="none" stroke="black" stroke-width="0.5"/>
<path d="M571.93 207.92L559.2 220.65"
fill="none" stroke="black" stroke-width="0.5"/>
<path d="M521.75 308.28L509.02 321.01"
fill="none" stroke="black" stroke-width="0.5"/>
<path d="M471.56 408.65L458.83 421.38"
fill="none" stroke="black" stroke-width="0.5"/>
<path d="M421.38 509.02L408.65 521.75"
fill="none" stroke="black" stroke-width="0.5"/>
<path d="M371.2 609.38L358.47 622.11"
fill="none" stroke="black" stroke-width="0.5"/>
<path d="M321.01 709.75L308.28 722.48"
fill="none" stroke="black" stroke-width="0.5"/>
<path d="M571.93 609.38L559.2 622.11"
fill="none" stroke="black" stroke-width="0.5"/>
<path d="M521.75 709.75L509.02 722.48"
fill="none" stroke="black" stroke-width="0.5"/>
<path d="M471.56 77.25L458.83 64.52"
fill="none" stroke="black" stroke-width="0.5"/>
<path d="M571.93 277.98L559.2 265.25"
fill="none" stroke="black" stroke-width="0.5"/>
<path d="M421.38 177.62L408.65 164.89"
fill="none" stroke="black" stroke-width="0.5"/>
<path d="M270.83 77.25L258.1 64.52"
fill="none" stroke="black" stroke-width="0.5"/>
<path d="M521.75 378.35L509.02 365.62"
fill="none" stroke="black" stroke-width="0.5"/>
<path d="M371.2 277.98L358.47 265.25"
fill="none" stroke="black" stroke-width="0.5"/>
<path d="M220.65 177.62L207.92 164.89"
fill="none" stroke="black" stroke-width="0.5"/>
<path d="M471.56 478.72L458.83 465.99"
fill="none" stroke="black" stroke-width="0.5"/>
<path d="M321.01 378.35L308.28 365.62"
fill="none" stroke="black" stroke-width="0.5"/>
<path d="M571.93 679.45L559.2 666.72"
fill="none" stroke="black" stroke-width="0.5"/>
<path d="M421.38 579.08L408.65 566.35"
fill="none" stroke="black" stroke-width="0.5"/>
<path d="M270.83 478.72L258.1 465.99"
fill="none" stroke="black" stroke-width="0.5"/>
<path d="M521.75 779.82L509.02 767.09"
fill="none" stroke="black" stroke-width="0.5"/>
<path d="M371.2 679.45L358.47 666.72"
fill="none" stroke="black" stroke-width="0.5"/>
<path d="M220.65 579.08L207.92 566.35"
fill="none" stroke="black" stroke-width="0.5"/>
<path d="M321.01 779.82L308.28 767.09"
fill="none" stroke="black" stroke-width="0.5"/>
<path d="M552 785.56L566.35 779.82"
fill="none" stroke="black" stroke-width="0.5"/>
<path d="M351.27 785.56L365.62 779.82"
fill="none" stroke="black" stroke-width="0.5"/>
<path d="M401.45 685.19L415.8 679.45"
fill="none" stroke="black" stroke-width="0.5"/>
<path d="M200.72 685.19L215.07 679.45"
fill="none" stroke="black" stroke-width="0.5"/>
<path d="M451.64 584.82L465.99 579.08"
fill="none" stroke="black" stroke-width="0.5"/>
<path d="M250.9 584.82L265.25 579.08"
fill="none" stroke="black" stroke-width="0.5"/>
<path d="M501.82 484.46L516.17 478.72"
fill="none" stroke="black" stroke-width="0.5"/>
<path d="M301.09 484.46L315.44 478.72"
fill="none" stroke="black" stroke-width="0.5"/>
<path d="M552 384.09L566.35 378.35"
fill="none" stroke="black" stroke-width="0.5"/>
<path d="M351.27 384.09L365.62 378.35"
fill="none" stroke="black" stroke-width="0.5"/>
<path d="M401.45 283.72L415.8 277.98"
fill="none" stroke="black" stroke-width="0.5"/>
<path d="M200.72 283.72L215.07 277.98"
fill="none" stroke="black" stroke-width="0.5"/>
<path d="M451.64 183.36L465.99 177.62"
fill="none" stroke="black" stroke-width="0.5"/>
<path d="M250.9 183.36L265.25 177.62"
fill="none" stroke="black" stroke-width="0.5"/>
<path d="M501.82 82.99L516.17 77.25"
fill="none" stroke="black" stroke-width="0.5"/>
<path d="M301.09 82.99L315.44 77.25"
fill="none" stroke="black" stroke-width="0.5"/>
<path d="M233.54 250.9L227.8 265.25"
fill="none" stroke="black" stroke-width="0.5"/>
<path d="M283.72 150.54L277.98 164.89"
fill="none" stroke="black" stroke-width="0.5"/>
<path d="M333.91 50.17L328.17 64.52"
fill="none" stroke="black" stroke-width="0.5"/>
<path d="M233.54 652.37L227.8 666.72"
fill="none" stroke="black" stroke-width="0.5"/>
<path d="M283.72 552L277.98 566.35"
fill="none" stroke="black" stroke-width="0.5"/>
<path d="M333.91 451.64L328.17 465.99"
fill="none" stroke="black" stroke-width="0.5"/>
<path d="M384.09 351.27L378.35 365.62"
fill="none" stroke="black" stroke-width="0.5"/>
<path d="M434.27 250.9L428.53 265.25"
fill="none" stroke="black" stroke-width="0.5"/>
<path d="M484.46 150.54L478.72 164.89"
fill="none" stroke="black" stroke-width="0.5"/>
<path d="M534.64 50.17L528.9 64.52"
fill="none" stroke="black" stroke-width="0.5"/>
<path d="M384.09 752.74L378.35 767.09"
fill="none" stroke="black" stroke-width="0.5"/>
<path d="M434.27 652.37L428.53 666.72"
fill="none" stroke="black" stroke-width="0.5"/>
<path d="M484.46 552L478.72 566.35"
fill="none" stroke="black" stroke-width="0.5"/>
<path d="M534.64 451.64L528.9 465.99"
fill="none" stroke="black" stroke-width="0.5"/>
<path d="M584.82 351.27L579.08 365.62"
fill="none" stroke="black" stroke-width="0.5"/>
<path d="M584.82 752.74L579.08 767.09"
fill="none" stroke="black" stroke-width="0.5"/>
<path d="M534.64 34.26L528.9 19.91"
fill="none" stroke="black" stroke-width="0.5"/>
<path d="M584.82 335.36L579.08 321.01"
fill="none" stroke="black" stroke-width="0.5"/>
<path d="M484.46 134.63L478.72 120.28"
fill="none" stroke="black" stroke-width="0.5"/>
<path d="M534.64 435.73L528.9 421.38"
fill="none" stroke="black" stroke-width="0.5"/>
<path d="M434.27 235L428.53 220.65"
fill="none" stroke="black" stroke-width="0.5"/>
<path d="M333.91 34.26L328.17 19.91"
fill="none" stroke="black" stroke-width="0.5"/>
<path d="M584.82 736.83L579.08 722.48"
fill="none" stroke="black" stroke-width="0.5"/>
<path d="M484.46 536.1L478.72 521.75"
fill="none" stroke="black" stroke-width="0.5"/>
<path d="M384.09 335.36L378.35 321.01"
fill="none" stroke="black" stroke-width="0.5"/>
<path d="M283.72 134.63L277.98 120.28"
fill="none" stroke="black" stroke-width="0.5"/>
<path d="M434.27 636.46L428.53 622.11"
fill="none" stroke="black" stroke-width="0.5"/>
<path d="M333.91 435.73L328.17 421.38"
fill="none" stroke="black" stroke-width="0.5"/>
<path d="M233.54 235L227.8 220.65"
fill="none" stroke="black" stroke-width="0.5"/>
<path d="M384.09 736.83L378.35 722.48"
fill="none" stroke="black" stroke-width="0.5"/>
<path d="M283.72 536.1L277.98 521.75"
fill="none" stroke="black" stroke-width="0.5"/>
<path d="M233.54 636.46L227.8 622.11"
fill="none" stroke="black" stroke-width="0.5"/>
<path d="M351.27 704.01L365.62 709.75"
fill="none" stroke="black" stroke-width="0.5"/>
<path d="M200.72 603.64L215.07 609.38"
fill="none" stroke="black" stroke-width="0.5"/>
<path d="M552 704.01L566.35 709.75"
fill="none" stroke="black" stroke-width="0.5"/>
<path d="M401.45 603.64L415.8 609.38"
fill="none" stroke="black" stroke-width="0.5"/>
<path d="M250.9 503.28L265.25 509.02"
fill="none" stroke="black" stroke-width="0.5"/>
<path d="M451.64 503.28L465.99 509.02"
fill="none" stroke="black" stroke-width="0.5"/>
<path d="M301.09 402.91L315.44 408.65"
fill="none" stroke="black" stroke-width="0.5"/>
<path d="M501.82 402.91L516.17 408.65"
fill="none" stroke="black" stroke-width="0.5"/>
<path d="M351.27 302.54L365.62 308.28"
fill="none" stroke="black" stroke-width="0.5"/>
<path d="M200.72 202.18L215.07 207.92"
fill="none" stroke="black" stroke-width="0.5"/>
<path d="M552 302.54L566.35 308.28"
fill="none" stroke="black" stroke-width="0.5"/>
<path d="M401.45 202.18L415.8 207.92"
fill="none" stroke="black" stroke-width="0.5"/>
<path d="M250.9 101.81L265.25 107.55"
fill="none" stroke="black" stroke-width="0.5"/>
<path d="M451.64 101.81L465.99 107.55"
fill="none" stroke="black" stroke-width="0.5"/>
<path d="M301.09 1.44L315.44 7.18"
fill="none" stroke="black" stroke-width="0.5"/>
<path d="M501.82 1.44L516.17 7.18"
fill="none" stroke="black" stroke-width="0.5"/>
<path d="M285.18 1.44L270.83 7.18"
fill="none" stroke="black" stroke-width="0.5"/>
<path d="M485.92 1.44L471.57 7.18"
fill="none" stroke="black" stroke-width="0.5"/>
<path d="M235 101.81L220.65 107.55"
fill="none" stroke="black" stroke-width="0.5"/>
<path d="M435.73 101.81L421.38 107.55"
fill="none" stroke="black" stroke-width="0.5"/>
<path d="M385.55 202.18L371.2 207.92"
fill="none" stroke="black" stroke-width="0.5"/>
<path d="M586.28 202.18L571.93 207.92"
fill="none" stroke="black" stroke-width="0.5"/>
<path d="M335.37 302.54L321.02 308.28"
fill="none" stroke="black" stroke-width="0.5"/>
<path d="M536.1 302.54L521.75 308.28"
fill="none" stroke="black" stroke-width="0.5"/>
<path d="M285.18 402.91L270.83 408.65"
fill="none" stroke="black" stroke-width="0.5"/>
<path d="M485.92 402.91L471.56 408.65"
fill="none" stroke="black" stroke-width="0.5"/>
<path d="M235 503.28L220.65 509.01"
fill="none" stroke="black" stroke-width="0.5"/>
<path d="M435.73 503.28L421.38 509.02"
fill="none" stroke="black" stroke-width="0.5"/>
<path d="M385.55 603.64L371.2 609.38"
fill="none" stroke="black" stroke-width="0.5"/>
<path d="M586.28 603.65L571.93 609.38"
fill="none" stroke="black" stroke-width="0.5"/>
<path d="M335.36 704.01L321.01 709.75"
fill="none" stroke="black" stroke-width="0.5"/>
<path d="M536.1 704.01L521.75 709.75"
fill="none" stroke="black" stroke-width="0.5"/>
<path d="M553.46 636.46L559.2 622.11"
fill="none" stroke="black" stroke-width="0.5"/>
<path d="M503.28 736.83L509.01 722.48"
fill="none" stroke="black" stroke-width="0.5"/>
<path d="M553.46 234.99L559.2 220.64"
fill="none" stroke="black" stroke-width="0.5"/>
<path d="M503.27 335.36L509.01 321.01"
fill="none" stroke="black" stroke-width="0.5"/>
<path d="M453.09 435.73L458.83 421.38"
fill="none" stroke="black" stroke-width="0.5"/>
<path d="M402.91 536.1L408.65 521.74"
fill="none" stroke="black" stroke-width="0.5"/>
<path d="M352.73 636.46L358.46 622.11"
fill="none" stroke="black" stroke-width="0.5"/>
<path d="M302.54 736.83L308.28 722.48"
fill="none" stroke="black" stroke-width="0.5"/>
<path d="M453.09 34.26L458.83 19.91"
fill="none" stroke="black" stroke-width="0.5"/>
<path d="M402.91 134.63L408.65 120.28"
fill="none" stroke="black" stroke-width="0.5"/>
<path d="M352.72 235L358.46 220.65"
fill="none" stroke="black" stroke-width="0.5"/>
<path d="M302.54 335.36L308.28 321.01"
fill="none" stroke="black" stroke-width="0.5"/>
<path d="M252.36 435.73L258.1 421.38"
fill="none" stroke="black" stroke-width="0.5"/>
<path d="M202.17 536.1L207.91 521.75"
fill="none" stroke="black" stroke-width="0.5"/>
<path d="M252.36 34.26L258.1 19.91"
fill="none" stroke="black" stroke-width="0.5"/>
<path d="M202.17 134.63L207.91 120.28"
fill="none" stroke="black" stroke-width="0.5"/>
<path d="M202.18 552L207.92 566.35"
fill="none" stroke="black" stroke-width="0.5"/>
<path d="M302.54 752.74L308.28 767.09"
fill="none" stroke="black" stroke-width="0.5"/>
<path d="M252.36 451.64L258.1 465.99"
fill="none" stroke="black" stroke-width="0.5"/>
<path d="M352.73 652.37L358.47 666.72"
fill="none" stroke="black" stroke-width="0.5"/>
<path d="M202.18 150.54L207.92 164.89"
fill="none" stroke="black" stroke-width="0.5"/>
<path d="M302.55 351.27L308.29 365.62"
fill="none" stroke="black" stroke-width="0.5"/>
<path d="M402.91 552L408.65 566.36"
fill="none" stroke="black" stroke-width="0.5"/>
<path d="M503.28 752.74L509.02 767.09"
fill="none" stroke="black" stroke-width="0.5"/>
<path d="M252.36 50.17L258.1 64.52"
fill="none" stroke="black" stroke-width="0.5"/>
<path d="M352.73 250.9L358.47 265.25"
fill="none" stroke="black" stroke-width="0.5"/>
<path d="M453.1 451.64L458.83 465.99"
fill="none" stroke="black" stroke-width="0.5"/>
<path d="M553.46 652.37L559.2 666.72"
fill="none" stroke="black" stroke-width="0.5"/>
<path d="M402.91 150.54L408.65 164.89"
fill="none" stroke="black" stroke-width="0.5"/>
<path d="M503.28 351.27L509.02 365.62"
fill="none" stroke="black" stroke-width="0.5"/>
<path d="M453.1 50.17L458.84 64.52"
fill="none" stroke="black" stroke-width="0.5"/>
<path d="M553.46 250.91L559.2 265.26"
fill="none" stroke="black" stroke-width="0.5"/>
<path d="M485.91 82.99L471.56 77.25"
fill="none" stroke="black" stroke-width="0.5"/>
<path d="M285.17 82.99L270.82 77.25"
fill="none" stroke="black" stroke-width="0.5"/>
<path d="M435.72 183.36L421.37 177.62"
fill="none" stroke="black" stroke-width="0.5"/>
<path d="M586.28 283.72L571.93 277.98"
fill="none" stroke="black" stroke-width="0.5"/>
<path d="M234.99 183.36L220.64 177.62"
fill="none" stroke="black" stroke-width="0.5"/>
<path d="M385.54 283.72L371.19 277.98"
fill="none" stroke="black" stroke-width="0.5"/>
<path d="M536.09 384.09L521.74 378.35"
fill="none" stroke="black" stroke-width="0.5"/>
<path d="M335.36 384.09L321.01 378.35"
fill="none" stroke="black" stroke-width="0.5"/>
<path d="M485.91 484.46L471.56 478.72"
fill="none" stroke="black" stroke-width="0.5"/>
<path d="M285.18 484.46L270.83 478.72"
fill="none" stroke="black" stroke-width="0.5"/>
<path d="M435.73 584.82L421.38 579.08"
fill="none" stroke="black" stroke-width="0.5"/>
<path d="M586.28 685.19L571.93 679.45"
fill="none" stroke="black" stroke-width="0.5"/>
<path d="M234.99 584.82L220.64 579.09"
fill="none" stroke="black" stroke-width="0.5"/>
<path d="M385.54 685.19L371.19 679.45"
fill="none" stroke="black" stroke-width="0.5"/>
<path d="M536.1 785.56L521.75 779.82"
fill="none" stroke="black" stroke-width="0.5"/>
<path d="M335.36 785.56L321.01 779.82"
fill="none" stroke="black" stroke-width="0.5"/>
</svg>
