<?xml version="1.0" encoding="UTF-8"?>
<svg xmlns="http://www.w3.org/2000/svg" width="99.949mm" height="99.949mm" viewBox="0.0 0.0 787.000 787.000" preserveAspectRatio="none" version="1.1">
  <title>Produce by Acme CAD Converter</title>
  <desc>Produce by Acme CAD Converter</desc>
<path d="M234.42 765.19L247.08 765.19"
fill="none" stroke="black" stroke-width="0.5"/>
<path d="M438.09 765.19L450.74 765.19"
fill="none" stroke="black" stroke-width="0.5"/>
<path d="M285.34 663.36L297.99 663.36"
fill="none" stroke="black" stroke-width="0.5"/>
<path d="M489.01 663.36L501.66 663.36"
fill="none" stroke="black" stroke-width="0.5"/>
<path d="M336.26 561.52L348.91 561.52"
fill="none" stroke="black" stroke-width="0.5"/>
<path d="M539.92 561.52L552.58 561.52"
fill="none" stroke="black" stroke-width="0.5"/>
<path d="M189.83 459.69L196.16 459.69"
fill="none" stroke="black" stroke-width="0.5"/>
<path d="M387.17 459.69L399.83 459.69"
fill="none" stroke="black" stroke-width="0.5"/>
<path d="M590.84 459.69L597.17 459.69"
fill="none" stroke="black" stroke-width="0.5"/>
<path d="M234.42 357.86L247.08 357.86"
fill="none" stroke="black" stroke-width="0.5"/>
<path d="M438.09 357.86L450.74 357.86"
fill="none" stroke="black" stroke-width="0.5"/>
<path d="M285.34 256.03L297.99 256.03"
fill="none" stroke="black" stroke-width="0.5"/>
<path d="M489.01 256.03L501.66 256.03"
fill="none" stroke="black" stroke-width="0.5"/>
<path d="M336.26 154.19L348.91 154.19"
fill="none" stroke="black" stroke-width="0.5"/>
<path d="M539.92 154.19L552.58 154.19"
fill="none" stroke="black" stroke-width="0.5"/>
<path d="M189.83 52.36L196.16 52.36"
fill="none" stroke="black" stroke-width="0.5"/>
<path d="M387.17 52.36L399.83 52.36"
fill="none" stroke="black" stroke-width="0.5"/>
<path d="M590.84 52.36L597.17 52.36"
fill="none" stroke="black" stroke-width="0.5"/>
<path d="M234.42 734.64L247.08 734.64"
fill="none" stroke="black" stroke-width="0.5"/>
<path d="M438.09 734.64L450.74 734.64"
fill="none" stroke="black" stroke-width="0.5"/>
<path d="M285.34 632.81L297.99 632.81"
fill="none" stroke="black" stroke-width="0.5"/>
<path d="M489.01 632.81L501.66 632.81"
fill="none" stroke="black" stroke-width="0.5"/>
<path d="M336.26 530.97L348.91 530.97"
fill="none" stroke="black" stroke-width="0.5"/>
<path d="M539.92 530.97L552.58 530.97"
fill="none" stroke="black" stroke-width="0.5"/>
<path d="M189.83 429.14L196.16 429.14"
fill="none" stroke="black" stroke-width="0.5"/>
<path d="M387.17 429.14L399.83 429.14"
fill="none" stroke="black" stroke-width="0.5"/>
<path d="M590.84 429.14L597.17 429.14"
fill="none" stroke="black" stroke-width="0.5"/>
<path d="M234.42 327.31L247.08 327.31"
fill="none" stroke="black" stroke-width="0.5"/>
<path d="M438.09 327.31L450.74 327.31"
fill="none" stroke="black" stroke-width="0.5"/>
<path d="M285.34 225.48L297.99 225.48"
fill="none" stroke="black" stroke-width="0.5"/>
<path d="M489.01 225.48L501.66 225.48"
fill="none" stroke="black" stroke-width="0.5"/>
<path d="M336.26 123.64L348.91 123.64"
fill="none" stroke="black" stroke-width="0.5"/>
<path d="M539.92 123.64L552.58 123.64"
fill="none" stroke="black" stroke-width="0.5"/>
<path d="M189.83 21.81L196.16 21.81"
fill="none" stroke="black" stroke-width="0.5"/>
<path d="M387.17 21.81L399.83 21.81"
fill="none" stroke="black" stroke-width="0.5"/>
<path d="M590.84 21.81L597.17 21.81"
fill="none" stroke="black" stroke-width="0.5"/>
<path d="M581.89 450.74L581.89 438.09"
fill="none" stroke="black" stroke-width="0.5"/>
<path d="M581.89 43.41L581.89 30.76"
fill="none" stroke="black" stroke-width="0.5"/>
<path d="M530.97 552.58L530.97 539.92"
fill="none" stroke="black" stroke-width="0.5"/>
<path d="M530.97 145.24L530.97 132.59"
fill="none" stroke="black" stroke-width="0.5"/>
<path d="M480.06 654.41L480.06 641.76"
fill="none" stroke="black" stroke-width="0.5"/>
<path d="M480.06 247.08L480.06 234.42"
fill="none" stroke="black" stroke-width="0.5"/>
<path d="M429.14 756.24L429.14 743.59"
fill="none" stroke="black" stroke-width="0.5"/>
<path d="M429.14 348.91L429.14 336.26"
fill="none" stroke="black" stroke-width="0.5"/>
<path d="M378.23 450.74L378.23 438.09"
fill="none" stroke="black" stroke-width="0.5"/>
<path d="M378.23 43.41L378.23 30.76"
fill="none" stroke="black" stroke-width="0.5"/>
<path d="M327.31 552.58L327.31 539.92"
fill="none" stroke="black" stroke-width="0.5"/>
<path d="M327.31 145.24L327.31 132.59"
fill="none" stroke="black" stroke-width="0.5"/>
<path d="M276.39 654.41L276.39 641.76"
fill="none" stroke="black" stroke-width="0.5"/>
<path d="M276.39 247.08L276.39 234.42"
fill="none" stroke="black" stroke-width="0.5"/>
<path d="M225.48 756.24L225.48 743.59"
fill="none" stroke="black" stroke-width="0.5"/>
<path d="M225.48 348.91L225.48 336.26"
fill="none" stroke="black" stroke-width="0.5"/>
<path d="M561.52 552.58L561.52 539.92"
fill="none" stroke="black" stroke-width="0.5"/>
<path d="M561.52 145.24L561.52 132.59"
fill="none" stroke="black" stroke-width="0.5"/>
<path d="M510.61 654.41L510.61 641.76"
fill="none" stroke="black" stroke-width="0.5"/>
<path d="M510.61 247.08L510.61 234.42"
fill="none" stroke="black" stroke-width="0.5"/>
<path d="M459.69 756.24L459.69 743.59"
fill="none" stroke="black" stroke-width="0.5"/>
<path d="M459.69 348.91L459.69 336.26"
fill="none" stroke="black" stroke-width="0.5"/>
<path d="M408.77 450.74L408.77 438.09"
fill="none" stroke="black" stroke-width="0.5"/>
<path d="M408.77 43.41L408.77 30.76"
fill="none" stroke="black" stroke-width="0.5"/>
<path d="M357.86 552.58L357.86 539.92"
fill="none" stroke="black" stroke-width="0.5"/>
<path d="M357.86 145.24L357.86 132.59"
fill="none" stroke="black" stroke-width="0.5"/>
<path d="M306.94 654.41L306.94 641.76"
fill="none" stroke="black" stroke-width="0.5"/>
<path d="M306.94 247.08L306.94 234.42"
fill="none" stroke="black" stroke-width="0.5"/>
<path d="M256.03 756.24L256.03 743.59"
fill="none" stroke="black" stroke-width="0.5"/>
<path d="M256.03 348.91L256.03 336.26"
fill="none" stroke="black" stroke-width="0.5"/>
<path d="M205.11 450.74L205.11 438.09"
fill="none" stroke="black" stroke-width="0.5"/>
<path d="M205.11 43.41L205.11 30.76"
fill="none" stroke="black" stroke-width="0.5"/>
<path d="M450.74 765.19L459.69 756.24"
fill="none" stroke="black" stroke-width="0.5"/>
<path d="M501.66 663.36L510.61 654.41"
fill="none" stroke="black" stroke-width="0.5"/>
<path d="M552.58 561.52L561.52 552.58"
fill="none" stroke="black" stroke-width="0.5"/>
<path d="M247.08 765.19L256.03 756.24"
fill="none" stroke="black" stroke-width="0.5"/>
<path d="M297.99 663.36L306.94 654.41"
fill="none" stroke="black" stroke-width="0.5"/>
<path d="M348.91 561.52L357.86 552.58"
fill="none" stroke="black" stroke-width="0.5"/>
<path d="M399.83 459.69L408.77 450.74"
fill="none" stroke="black" stroke-width="0.5"/>
<path d="M450.74 357.86L459.69 348.91"
fill="none" stroke="black" stroke-width="0.5"/>
<path d="M501.66 256.03L510.61 247.08"
fill="none" stroke="black" stroke-width="0.5"/>
<path d="M552.58 154.19L561.52 145.24"
fill="none" stroke="black" stroke-width="0.5"/>
<path d="M196.16 459.69L205.11 450.74"
fill="none" stroke="black" stroke-width="0.5"/>
<path d="M247.08 357.86L256.03 348.91"
fill="none" stroke="black" stroke-width="0.5"/>
<path d="M297.99 256.03L306.94 247.08"
fill="none" stroke="black" stroke-width="0.5"/>
<path d="M348.91 154.19L357.86 145.24"
fill="none" stroke="black" stroke-width="0.5"/>
<path d="M399.83 52.36L408.77 43.41"
fill="none" stroke="black" stroke-width="0.5"/>
<path d="M196.16 52.36L205.11 43.41"
fill="none" stroke="black" stroke-width="0.5"/>
<path d="M247.08 734.64L256.03 743.59"
fill="none" stroke="black" stroke-width="0.5"/>
<path d="M297.99 632.81L306.94 641.76"
fill="none" stroke="black" stroke-width="0.5"/>
<path d="M450.74 734.64L459.69 743.59"
fill="none" stroke="black" stroke-width="0.5"/>
<path d="M196.16 429.14L205.11 438.09"
fill="none" stroke="black" stroke-width="0.5"/>
<path d="M348.91 530.97L357.86 539.92"
fill="none" stroke="black" stroke-width="0.5"/>
<path d="M501.66 632.81L510.61 641.76"
fill="none" stroke="black" stroke-width="0.5"/>
<path d="M247.08 327.31L256.03 336.26"
fill="none" stroke="black" stroke-width="0.5"/>
<path d="M399.83 429.14L408.77 438.09"
fill="none" stroke="black" stroke-width="0.5"/>
<path d="M552.58 530.97L561.52 539.92"
fill="none" stroke="black" stroke-width="0.5"/>
<path d="M297.99 225.48L306.94 234.42"
fill="none" stroke="black" stroke-width="0.5"/>
<path d="M450.74 327.31L459.69 336.26"
fill="none" stroke="black" stroke-width="0.5"/>
<path d="M196.16 21.81L205.11 30.76"
fill="none" stroke="black" stroke-width="0.5"/>
<path d="M348.91 123.64L357.86 132.59"
fill="none" stroke="black" stroke-width="0.5"/>
<path d="M501.66 225.48L510.61 234.42"
fill="none" stroke="black" stroke-width="0.5"/>
<path d="M399.83 21.81L408.77 30.76"
fill="none" stroke="black" stroke-width="0.5"/>
<path d="M552.58 123.64L561.52 132.59"
fill="none" stroke="black" stroke-width="0.5"/>
<path d="M387.17 21.81L378.23 30.76"
fill="none" stroke="black" stroke-width="0.5"/>
<path d="M336.26 123.64L327.31 132.59"
fill="none" stroke="black" stroke-width="0.5"/>
<path d="M285.34 225.48L276.39 234.42"
fill="none" stroke="black" stroke-width="0.5"/>
<path d="M234.42 327.31L225.48 336.26"
fill="none" stroke="black" stroke-width="0.5"/>
<path d="M590.84 21.81L581.89 30.76"
fill="none" stroke="black" stroke-width="0.5"/>
<path d="M539.92 123.64L530.97 132.59"
fill="none" stroke="black" stroke-width="0.5"/>
<path d="M489.01 225.48L480.06 234.42"
fill="none" stroke="black" stroke-width="0.5"/>
<path d="M438.09 327.31L429.14 336.26"
fill="none" stroke="black" stroke-width="0.5"/>
<path d="M387.17 429.14L378.23 438.09"
fill="none" stroke="black" stroke-width="0.5"/>
<path d="M336.26 530.97L327.31 539.92"
fill="none" stroke="black" stroke-width="0.5"/>
<path d="M285.34 632.81L276.39 641.76"
fill="none" stroke="black" stroke-width="0.5"/>
<path d="M234.42 734.64L225.48 743.59"
fill="none" stroke="black" stroke-width="0.5"/>
<path d="M590.84 429.14L581.89 438.09"
fill="none" stroke="black" stroke-width="0.5"/>
<path d="M539.92 530.97L530.97 539.92"
fill="none" stroke="black" stroke-width="0.5"/>
<path d="M489.01 632.81L480.06 641.76"
fill="none" stroke="black" stroke-width="0.5"/>
<path d="M438.09 734.64L429.14 743.59"
fill="none" stroke="black" stroke-width="0.5"/>
<path d="M590.84 52.36L581.89 43.41"
fill="none" stroke="black" stroke-width="0.5"/>
<path d="M539.92 154.19L530.97 145.24"
fill="none" stroke="black" stroke-width="0.5"/>
<path d="M387.17 52.36L378.23 43.41"
fill="none" stroke="black" stroke-width="0.5"/>
<path d="M489.01 256.03L480.06 247.08"
fill="none" stroke="black" stroke-width="0.5"/>
<path d="M336.26 154.19L327.31 145.24"
fill="none" stroke="black" stroke-width="0.5"/>
<path d="M590.84 459.69L581.89 450.74"
fill="none" stroke="black" stroke-width="0.5"/>
<path d="M438.09 357.86L429.14 348.91"
fill="none" stroke="black" stroke-width="0.5"/>
<path d="M285.34 256.03L276.39 247.08"
fill="none" stroke="black" stroke-width="0.5"/>
<path d="M539.92 561.52L530.97 552.58"
fill="none" stroke="black" stroke-width="0.5"/>
<path d="M387.17 459.69L378.23 450.74"
fill="none" stroke="black" stroke-width="0.5"/>
<path d="M234.42 357.86L225.48 348.91"
fill="none" stroke="black" stroke-width="0.5"/>
<path d="M489.01 663.36L480.06 654.41"
fill="none" stroke="black" stroke-width="0.5"/>
<path d="M336.26 561.52L327.31 552.58"
fill="none" stroke="black" stroke-width="0.5"/>
<path d="M438.09 765.19L429.14 756.24"
fill="none" stroke="black" stroke-width="0.5"/>
<path d="M285.34 663.36L276.39 654.41"
fill="none" stroke="black" stroke-width="0.5"/>
<path d="M234.42 765.19L225.48 756.24"
fill="none" stroke="black" stroke-width="0.5"/>
<path d="M333.36 785.56L351.81 785.56"
fill="none" stroke="black" stroke-width="0.5"/>
<path d="M537.02 785.56L555.48 785.56"
fill="none" stroke="black" stroke-width="0.5"/>
<path d="M189.83 683.72L199.06 683.72"
fill="none" stroke="black" stroke-width="0.5"/>
<path d="M384.27 683.72L402.73 683.72"
fill="none" stroke="black" stroke-width="0.5"/>
<path d="M587.94 683.72L597.17 683.72"
fill="none" stroke="black" stroke-width="0.5"/>
<path d="M231.52 581.89L249.98 581.89"
fill="none" stroke="black" stroke-width="0.5"/>
<path d="M435.19 581.89L453.64 581.89"
fill="none" stroke="black" stroke-width="0.5"/>
<path d="M282.44 480.06L300.89 480.06"
fill="none" stroke="black" stroke-width="0.5"/>
<path d="M486.11 480.06L504.56 480.06"
fill="none" stroke="black" stroke-width="0.5"/>
<path d="M333.36 378.23L351.81 378.23"
fill="none" stroke="black" stroke-width="0.5"/>
<path d="M537.02 378.23L555.48 378.23"
fill="none" stroke="black" stroke-width="0.5"/>
<path d="M189.83 276.39L199.06 276.39"
fill="none" stroke="black" stroke-width="0.5"/>
<path d="M384.27 276.39L402.73 276.39"
fill="none" stroke="black" stroke-width="0.5"/>
<path d="M587.94 276.39L597.17 276.39"
fill="none" stroke="black" stroke-width="0.5"/>
<path d="M231.52 174.56L249.98 174.56"
fill="none" stroke="black" stroke-width="0.5"/>
<path d="M435.19 174.56L453.64 174.56"
fill="none" stroke="black" stroke-width="0.5"/>
<path d="M282.44 72.73L300.89 72.73"
fill="none" stroke="black" stroke-width="0.5"/>
<path d="M486.11 72.73L504.56 72.73"
fill="none" stroke="black" stroke-width="0.5"/>
<path d="M333.36 714.27L351.81 714.27"
fill="none" stroke="black" stroke-width="0.5"/>
<path d="M537.02 714.27L555.48 714.27"
fill="none" stroke="black" stroke-width="0.5"/>
<path d="M189.83 612.44L199.06 612.44"
fill="none" stroke="black" stroke-width="0.5"/>
<path d="M384.27 612.44L402.73 612.44"
fill="none" stroke="black" stroke-width="0.5"/>
<path d="M587.94 612.44L597.17 612.44"
fill="none" stroke="black" stroke-width="0.5"/>
<path d="M231.52 510.61L249.98 510.61"
fill="none" stroke="black" stroke-width="0.5"/>
<path d="M435.19 510.61L453.64 510.61"
fill="none" stroke="black" stroke-width="0.5"/>
<path d="M282.44 408.77L300.89 408.77"
fill="none" stroke="black" stroke-width="0.5"/>
<path d="M486.11 408.77L504.56 408.77"
fill="none" stroke="black" stroke-width="0.5"/>
<path d="M333.36 306.94L351.81 306.94"
fill="none" stroke="black" stroke-width="0.5"/>
<path d="M537.02 306.94L555.48 306.94"
fill="none" stroke="black" stroke-width="0.5"/>
<path d="M189.83 205.11L199.06 205.11"
fill="none" stroke="black" stroke-width="0.5"/>
<path d="M384.27 205.11L402.73 205.11"
fill="none" stroke="black" stroke-width="0.5"/>
<path d="M587.94 205.11L597.17 205.11"
fill="none" stroke="black" stroke-width="0.5"/>
<path d="M231.52 103.28L249.98 103.28"
fill="none" stroke="black" stroke-width="0.5"/>
<path d="M435.19 103.28L453.64 103.28"
fill="none" stroke="black" stroke-width="0.5"/>
<path d="M282.44 1.44L300.89 1.44"
fill="none" stroke="black" stroke-width="0.5"/>
<path d="M486.11 1.44L504.56 1.44"
fill="none" stroke="black" stroke-width="0.5"/>
<path d="M561.52 657.31L561.52 638.86"
fill="none" stroke="black" stroke-width="0.5"/>
<path d="M561.52 249.98L561.52 231.52"
fill="none" stroke="black" stroke-width="0.5"/>
<path d="M510.61 759.14L510.61 740.69"
fill="none" stroke="black" stroke-width="0.5"/>
<path d="M510.61 351.81L510.61 333.36"
fill="none" stroke="black" stroke-width="0.5"/>
<path d="M459.69 453.64L459.69 435.19"
fill="none" stroke="black" stroke-width="0.5"/>
<path d="M459.69 46.31L459.69 27.86"
fill="none" stroke="black" stroke-width="0.5"/>
<path d="M408.77 555.48L408.77 537.02"
fill="none" stroke="black" stroke-width="0.5"/>
<path d="M408.77 148.14L408.77 129.69"
fill="none" stroke="black" stroke-width="0.5"/>
<path d="M357.86 657.31L357.86 638.86"
fill="none" stroke="black" stroke-width="0.5"/>
<path d="M357.86 249.98L357.86 231.52"
fill="none" stroke="black" stroke-width="0.5"/>
<path d="M306.94 759.14L306.94 740.69"
fill="none" stroke="black" stroke-width="0.5"/>
<path d="M306.94 351.81L306.94 333.36"
fill="none" stroke="black" stroke-width="0.5"/>
<path d="M256.03 453.64L256.03 435.19"
fill="none" stroke="black" stroke-width="0.5"/>
<path d="M256.03 46.31L256.03 27.86"
fill="none" stroke="black" stroke-width="0.5"/>
<path d="M205.11 555.48L205.11 537.02"
fill="none" stroke="black" stroke-width="0.5"/>
<path d="M205.11 148.14L205.11 129.69"
fill="none" stroke="black" stroke-width="0.5"/>
<path d="M581.89 759.14L581.89 740.69"
fill="none" stroke="black" stroke-width="0.5"/>
<path d="M581.89 351.81L581.89 333.36"
fill="none" stroke="black" stroke-width="0.5"/>
<path d="M530.97 453.64L530.97 435.19"
fill="none" stroke="black" stroke-width="0.5"/>
<path d="M530.97 46.31L530.97 27.86"
fill="none" stroke="black" stroke-width="0.5"/>
<path d="M480.06 555.48L480.06 537.02"
fill="none" stroke="black" stroke-width="0.5"/>
<path d="M480.06 148.14L480.06 129.69"
fill="none" stroke="black" stroke-width="0.5"/>
<path d="M429.14 657.31L429.14 638.86"
fill="none" stroke="black" stroke-width="0.5"/>
<path d="M429.14 249.98L429.14 231.52"
fill="none" stroke="black" stroke-width="0.5"/>
<path d="M378.23 759.14L378.23 740.69"
fill="none" stroke="black" stroke-width="0.5"/>
<path d="M378.23 351.81L378.23 333.36"
fill="none" stroke="black" stroke-width="0.5"/>
<path d="M327.31 453.64L327.31 435.19"
fill="none" stroke="black" stroke-width="0.5"/>
<path d="M327.31 46.31L327.31 27.86"
fill="none" stroke="black" stroke-width="0.5"/>
<path d="M276.39 555.48L276.39 537.02"
fill="none" stroke="black" stroke-width="0.5"/>
<path d="M276.39 148.14L276.39 129.69"
fill="none" stroke="black" stroke-width="0.5"/>
<path d="M225.48 657.31L225.48 638.86"
fill="none" stroke="black" stroke-width="0.5"/>
<path d="M225.48 249.98L225.48 231.52"
fill="none" stroke="black" stroke-width="0.5"/>
<path d="M555.48 785.56L572.29 775.95"
fill="none" stroke="black" stroke-width="0.5"/>
<path d="M351.81 785.56L368.62 775.95"
fill="none" stroke="black" stroke-width="0.5"/>
<path d="M402.73 683.72L419.54 674.12"
fill="none" stroke="black" stroke-width="0.5"/>
<path d="M453.64 581.89L470.45 572.29"
fill="none" stroke="black" stroke-width="0.5"/>
<path d="M199.06 683.72L215.87 674.12"
fill="none" stroke="black" stroke-width="0.5"/>
<path d="M504.56 480.06L521.37 470.45"
fill="none" stroke="black" stroke-width="0.5"/>
<path d="M249.98 581.89L266.79 572.29"
fill="none" stroke="black" stroke-width="0.5"/>
<path d="M555.48 378.23L572.29 368.62"
fill="none" stroke="black" stroke-width="0.5"/>
<path d="M300.89 480.06L317.7 470.45"
fill="none" stroke="black" stroke-width="0.5"/>
<path d="M351.81 378.23L368.62 368.62"
fill="none" stroke="black" stroke-width="0.5"/>
<path d="M402.73 276.39L419.54 266.79"
fill="none" stroke="black" stroke-width="0.5"/>
<path d="M453.64 174.56L470.45 164.95"
fill="none" stroke="black" stroke-width="0.5"/>
<path d="M199.06 276.39L215.87 266.79"
fill="none" stroke="black" stroke-width="0.5"/>
<path d="M504.56 72.73L521.37 63.12"
fill="none" stroke="black" stroke-width="0.5"/>
<path d="M249.98 174.56L266.79 164.95"
fill="none" stroke="black" stroke-width="0.5"/>
<path d="M300.89 72.73L317.7 63.12"
fill="none" stroke="black" stroke-width="0.5"/>
<path d="M327.31 46.31L317.7 63.12"
fill="none" stroke="black" stroke-width="0.5"/>
<path d="M276.39 148.14L266.79 164.95"
fill="none" stroke="black" stroke-width="0.5"/>
<path d="M225.48 249.98L215.87 266.79"
fill="none" stroke="black" stroke-width="0.5"/>
<path d="M530.97 46.31L521.37 63.12"
fill="none" stroke="black" stroke-width="0.5"/>
<path d="M480.06 148.14L470.45 164.95"
fill="none" stroke="black" stroke-width="0.5"/>
<path d="M429.14 249.98L419.54 266.79"
fill="none" stroke="black" stroke-width="0.5"/>
<path d="M378.23 351.81L368.62 368.62"
fill="none" stroke="black" stroke-width="0.5"/>
<path d="M327.31 453.64L317.7 470.45"
fill="none" stroke="black" stroke-width="0.5"/>
<path d="M276.39 555.48L266.79 572.29"
fill="none" stroke="black" stroke-width="0.5"/>
<path d="M225.48 657.31L215.87 674.12"
fill="none" stroke="black" stroke-width="0.5"/>
<path d="M581.89 351.81L572.29 368.62"
fill="none" stroke="black" stroke-width="0.5"/>
<path d="M530.97 453.64L521.37 470.45"
fill="none" stroke="black" stroke-width="0.5"/>
<path d="M480.06 555.48L470.45 572.29"
fill="none" stroke="black" stroke-width="0.5"/>
<path d="M429.14 657.31L419.54 674.12"
fill="none" stroke="black" stroke-width="0.5"/>
<path d="M378.23 759.14L368.62 775.95"
fill="none" stroke="black" stroke-width="0.5"/>
<path d="M581.89 759.14L572.29 775.95"
fill="none" stroke="black" stroke-width="0.5"/>
<path d="M530.97 27.86L521.37 11.05"
fill="none" stroke="black" stroke-width="0.5"/>
<path d="M480.06 129.69L470.45 112.88"
fill="none" stroke="black" stroke-width="0.5"/>
<path d="M581.89 333.36L572.29 316.55"
fill="none" stroke="black" stroke-width="0.5"/>
<path d="M327.31 27.86L317.7 11.05"
fill="none" stroke="black" stroke-width="0.5"/>
<path d="M429.14 231.52L419.54 214.71"
fill="none" stroke="black" stroke-width="0.5"/>
<path d="M530.97 435.19L521.37 418.38"
fill="none" stroke="black" stroke-width="0.5"/>
<path d="M276.39 129.69L266.79 112.88"
fill="none" stroke="black" stroke-width="0.5"/>
<path d="M378.23 333.36L368.62 316.55"
fill="none" stroke="black" stroke-width="0.5"/>
<path d="M480.06 537.02L470.45 520.21"
fill="none" stroke="black" stroke-width="0.5"/>
<path d="M581.89 740.69L572.29 723.88"
fill="none" stroke="black" stroke-width="0.5"/>
<path d="M225.48 231.52L215.87 214.71"
fill="none" stroke="black" stroke-width="0.5"/>
<path d="M327.31 435.19L317.7 418.38"
fill="none" stroke="black" stroke-width="0.5"/>
<path d="M429.14 638.86L419.54 622.05"
fill="none" stroke="black" stroke-width="0.5"/>
<path d="M276.39 537.02L266.79 520.21"
fill="none" stroke="black" stroke-width="0.5"/>
<path d="M378.23 740.69L368.62 723.88"
fill="none" stroke="black" stroke-width="0.5"/>
<path d="M225.48 638.86L215.87 622.05"
fill="none" stroke="black" stroke-width="0.5"/>
<path d="M351.81 714.27L368.62 723.88"
fill="none" stroke="black" stroke-width="0.5"/>
<path d="M199.06 612.44L215.87 622.05"
fill="none" stroke="black" stroke-width="0.5"/>
<path d="M555.48 714.27L572.29 723.88"
fill="none" stroke="black" stroke-width="0.5"/>
<path d="M402.73 612.44L419.54 622.05"
fill="none" stroke="black" stroke-width="0.5"/>
<path d="M249.98 510.61L266.79 520.21"
fill="none" stroke="black" stroke-width="0.5"/>
<path d="M453.64 510.61L470.45 520.21"
fill="none" stroke="black" stroke-width="0.5"/>
<path d="M300.89 408.77L317.7 418.38"
fill="none" stroke="black" stroke-width="0.5"/>
<path d="M504.56 408.77L521.37 418.38"
fill="none" stroke="black" stroke-width="0.5"/>
<path d="M351.81 306.94L368.62 316.55"
fill="none" stroke="black" stroke-width="0.5"/>
<path d="M199.06 205.11L215.87 214.71"
fill="none" stroke="black" stroke-width="0.5"/>
<path d="M555.48 306.94L572.29 316.55"
fill="none" stroke="black" stroke-width="0.5"/>
<path d="M402.73 205.11L419.54 214.71"
fill="none" stroke="black" stroke-width="0.5"/>
<path d="M249.98 103.28L266.79 112.88"
fill="none" stroke="black" stroke-width="0.5"/>
<path d="M453.64 103.28L470.45 112.88"
fill="none" stroke="black" stroke-width="0.5"/>
<path d="M300.89 1.44L317.7 11.05"
fill="none" stroke="black" stroke-width="0.5"/>
<path d="M504.56 1.44L521.37 11.05"
fill="none" stroke="black" stroke-width="0.5"/>
<path d="M282.44 1.44L265.63 11.05"
fill="none" stroke="black" stroke-width="0.5"/>
<path d="M231.52 103.28L214.71 112.88"
fill="none" stroke="black" stroke-width="0.5"/>
<path d="M486.11 1.44L469.3 11.05"
fill="none" stroke="black" stroke-width="0.5"/>
<path d="M435.19 103.28L418.38 112.88"
fill="none" stroke="black" stroke-width="0.5"/>
<path d="M384.27 205.11L367.46 214.71"
fill="none" stroke="black" stroke-width="0.5"/>
<path d="M333.36 306.94L316.55 316.55"
fill="none" stroke="black" stroke-width="0.5"/>
<path d="M587.94 205.11L571.13 214.71"
fill="none" stroke="black" stroke-width="0.5"/>
<path d="M282.44 408.77L265.63 418.38"
fill="none" stroke="black" stroke-width="0.5"/>
<path d="M537.02 306.94L520.21 316.55"
fill="none" stroke="black" stroke-width="0.5"/>
<path d="M231.52 510.61L214.71 520.21"
fill="none" stroke="black" stroke-width="0.5"/>
<path d="M486.11 408.77L469.3 418.38"
fill="none" stroke="black" stroke-width="0.5"/>
<path d="M435.19 510.61L418.38 520.21"
fill="none" stroke="black" stroke-width="0.5"/>
<path d="M384.27 612.44L367.46 622.05"
fill="none" stroke="black" stroke-width="0.5"/>
<path d="M333.36 714.27L316.55 723.88"
fill="none" stroke="black" stroke-width="0.5"/>
<path d="M587.94 612.44L571.13 622.05"
fill="none" stroke="black" stroke-width="0.5"/>
<path d="M537.02 714.27L520.21 723.88"
fill="none" stroke="black" stroke-width="0.5"/>
<path d="M510.61 740.69L520.21 723.88"
fill="none" stroke="black" stroke-width="0.5"/>
<path d="M561.52 638.86L571.13 622.05"
fill="none" stroke="black" stroke-width="0.5"/>
<path d="M306.94 740.69L316.55 723.88"
fill="none" stroke="black" stroke-width="0.5"/>
<path d="M357.86 638.86L367.46 622.05"
fill="none" stroke="black" stroke-width="0.5"/>
<path d="M408.77 537.02L418.38 520.21"
fill="none" stroke="black" stroke-width="0.5"/>
<path d="M459.69 435.19L469.3 418.38"
fill="none" stroke="black" stroke-width="0.5"/>
<path d="M510.61 333.36L520.21 316.55"
fill="none" stroke="black" stroke-width="0.5"/>
<path d="M561.52 231.52L571.13 214.71"
fill="none" stroke="black" stroke-width="0.5"/>
<path d="M205.11 537.02L214.71 520.21"
fill="none" stroke="black" stroke-width="0.5"/>
<path d="M256.03 435.19L265.63 418.38"
fill="none" stroke="black" stroke-width="0.5"/>
<path d="M306.94 333.36L316.55 316.55"
fill="none" stroke="black" stroke-width="0.5"/>
<path d="M357.86 231.52L367.46 214.71"
fill="none" stroke="black" stroke-width="0.5"/>
<path d="M408.77 129.69L418.38 112.88"
fill="none" stroke="black" stroke-width="0.5"/>
<path d="M459.69 27.86L469.3 11.05"
fill="none" stroke="black" stroke-width="0.5"/>
<path d="M205.11 129.69L214.71 112.88"
fill="none" stroke="black" stroke-width="0.5"/>
<path d="M256.03 27.86L265.63 11.05"
fill="none" stroke="black" stroke-width="0.5"/>
<path d="M306.94 759.14L316.55 775.95"
fill="none" stroke="black" stroke-width="0.5"/>
<path d="M205.11 555.48L214.71 572.29"
fill="none" stroke="black" stroke-width="0.5"/>
<path d="M357.86 657.31L367.46 674.12"
fill="none" stroke="black" stroke-width="0.5"/>
<path d="M256.03 453.64L265.63 470.45"
fill="none" stroke="black" stroke-width="0.5"/>
<path d="M510.61 759.14L520.21 775.95"
fill="none" stroke="black" stroke-width="0.5"/>
<path d="M408.77 555.48L418.38 572.29"
fill="none" stroke="black" stroke-width="0.5"/>
<path d="M306.94 351.81L316.55 368.62"
fill="none" stroke="black" stroke-width="0.5"/>
<path d="M205.11 148.14L214.71 164.95"
fill="none" stroke="black" stroke-width="0.5"/>
<path d="M561.52 657.31L571.13 674.12"
fill="none" stroke="black" stroke-width="0.5"/>
<path d="M459.69 453.64L469.3 470.45"
fill="none" stroke="black" stroke-width="0.5"/>
<path d="M357.86 249.98L367.46 266.79"
fill="none" stroke="black" stroke-width="0.5"/>
<path d="M256.03 46.31L265.63 63.12"
fill="none" stroke="black" stroke-width="0.5"/>
<path d="M510.61 351.81L520.21 368.62"
fill="none" stroke="black" stroke-width="0.5"/>
<path d="M408.77 148.14L418.38 164.95"
fill="none" stroke="black" stroke-width="0.5"/>
<path d="M561.52 249.98L571.13 266.79"
fill="none" stroke="black" stroke-width="0.5"/>
<path d="M459.69 46.31L469.3 63.12"
fill="none" stroke="black" stroke-width="0.5"/>
<path d="M486.11 72.73L469.3 63.12"
fill="none" stroke="black" stroke-width="0.5"/>
<path d="M282.44 72.73L265.63 63.12"
fill="none" stroke="black" stroke-width="0.5"/>
<path d="M435.19 174.56L418.38 164.95"
fill="none" stroke="black" stroke-width="0.5"/>
<path d="M587.94 276.39L571.13 266.79"
fill="none" stroke="black" stroke-width="0.5"/>
<path d="M231.52 174.56L214.71 164.95"
fill="none" stroke="black" stroke-width="0.5"/>
<path d="M384.27 276.39L367.46 266.79"
fill="none" stroke="black" stroke-width="0.5"/>
<path d="M537.02 378.23L520.21 368.62"
fill="none" stroke="black" stroke-width="0.5"/>
<path d="M333.36 378.23L316.55 368.62"
fill="none" stroke="black" stroke-width="0.5"/>
<path d="M486.11 480.06L469.3 470.45"
fill="none" stroke="black" stroke-width="0.5"/>
<path d="M282.44 480.06L265.63 470.45"
fill="none" stroke="black" stroke-width="0.5"/>
<path d="M435.19 581.89L418.38 572.29"
fill="none" stroke="black" stroke-width="0.5"/>
<path d="M587.94 683.72L571.13 674.12"
fill="none" stroke="black" stroke-width="0.5"/>
<path d="M231.52 581.89L214.71 572.29"
fill="none" stroke="black" stroke-width="0.5"/>
<path d="M384.27 683.72L367.46 674.12"
fill="none" stroke="black" stroke-width="0.5"/>
<path d="M537.02 785.56L520.21 775.95"
fill="none" stroke="black" stroke-width="0.5"/>
<path d="M333.36 785.56L316.55 775.95"
fill="none" stroke="black" stroke-width="0.5"/>
</svg>
