<?xml version="1.0" encoding="UTF-8"?>
<svg xmlns="http://www.w3.org/2000/svg" width="99.949mm" height="99.949mm" viewBox="0.0 0.0 787.000 787.000" preserveAspectRatio="none" version="1.1">
  <title>Produce by Acme CAD Converter</title>
  <desc>Produce by Acme CAD Converter</desc>
<path d="M270.56 785.56L292.41 785.56"
fill="none" stroke="black" stroke-width="0.5"/>
<path d="M494.59 785.56L516.44 785.56"
fill="none" stroke="black" stroke-width="0.5"/>
<path d="M169.47 561.52L180.39 561.52"
fill="none" stroke="black" stroke-width="0.5"/>
<path d="M382.57 561.52L404.43 561.52"
fill="none" stroke="black" stroke-width="0.5"/>
<path d="M606.61 561.52L617.53 561.52"
fill="none" stroke="black" stroke-width="0.5"/>
<path d="M270.56 337.49L292.41 337.49"
fill="none" stroke="black" stroke-width="0.5"/>
<path d="M494.59 337.49L516.44 337.49"
fill="none" stroke="black" stroke-width="0.5"/>
<path d="M169.47 113.46L180.39 113.46"
fill="none" stroke="black" stroke-width="0.5"/>
<path d="M382.57 113.46L404.43 113.46"
fill="none" stroke="black" stroke-width="0.5"/>
<path d="M606.61 113.46L617.53 113.46"
fill="none" stroke="black" stroke-width="0.5"/>
<path d="M270.56 673.54L292.41 673.54"
fill="none" stroke="black" stroke-width="0.5"/>
<path d="M494.59 673.54L516.44 673.54"
fill="none" stroke="black" stroke-width="0.5"/>
<path d="M169.47 449.51L180.39 449.51"
fill="none" stroke="black" stroke-width="0.5"/>
<path d="M382.57 449.51L404.43 449.51"
fill="none" stroke="black" stroke-width="0.5"/>
<path d="M606.61 449.51L617.53 449.51"
fill="none" stroke="black" stroke-width="0.5"/>
<path d="M270.56 225.48L292.41 225.48"
fill="none" stroke="black" stroke-width="0.5"/>
<path d="M494.59 225.48L516.44 225.48"
fill="none" stroke="black" stroke-width="0.5"/>
<path d="M169.47 1.44L180.39 1.44"
fill="none" stroke="black" stroke-width="0.5"/>
<path d="M382.57 1.44L404.43 1.44"
fill="none" stroke="black" stroke-width="0.5"/>
<path d="M606.61 1.44L617.53 1.44"
fill="none" stroke="black" stroke-width="0.5"/>
<path d="M561.52 740.47L561.52 718.62"
fill="none" stroke="black" stroke-width="0.5"/>
<path d="M561.52 516.44L561.52 494.59"
fill="none" stroke="black" stroke-width="0.5"/>
<path d="M561.52 292.41L561.52 270.56"
fill="none" stroke="black" stroke-width="0.5"/>
<path d="M561.52 68.38L561.52 46.53"
fill="none" stroke="black" stroke-width="0.5"/>
<path d="M337.49 740.47L337.49 718.62"
fill="none" stroke="black" stroke-width="0.5"/>
<path d="M337.49 516.44L337.49 494.59"
fill="none" stroke="black" stroke-width="0.5"/>
<path d="M337.49 292.41L337.49 270.56"
fill="none" stroke="black" stroke-width="0.5"/>
<path d="M337.49 68.38L337.49 46.53"
fill="none" stroke="black" stroke-width="0.5"/>
<path d="M449.51 740.47L449.51 718.62"
fill="none" stroke="black" stroke-width="0.5"/>
<path d="M449.51 516.44L449.51 494.59"
fill="none" stroke="black" stroke-width="0.5"/>
<path d="M449.51 292.41L449.51 270.56"
fill="none" stroke="black" stroke-width="0.5"/>
<path d="M449.51 68.38L449.51 46.53"
fill="none" stroke="black" stroke-width="0.5"/>
<path d="M225.48 740.47L225.48 718.62"
fill="none" stroke="black" stroke-width="0.5"/>
<path d="M225.48 516.44L225.48 494.59"
fill="none" stroke="black" stroke-width="0.5"/>
<path d="M225.48 292.41L225.48 270.56"
fill="none" stroke="black" stroke-width="0.5"/>
<path d="M225.48 68.38L225.48 46.53"
fill="none" stroke="black" stroke-width="0.5"/>
<path d="M536.15 777.67L553.64 760.19"
fill="none" stroke="black" stroke-width="0.5"/>
<path d="M312.12 777.67L329.61 760.19"
fill="none" stroke="black" stroke-width="0.5"/>
<path d="M424.14 553.64L441.62 536.15"
fill="none" stroke="black" stroke-width="0.5"/>
<path d="M536.15 329.61L553.64 312.12"
fill="none" stroke="black" stroke-width="0.5"/>
<path d="M200.1 553.64L217.59 536.15"
fill="none" stroke="black" stroke-width="0.5"/>
<path d="M312.12 329.61L329.61 312.12"
fill="none" stroke="black" stroke-width="0.5"/>
<path d="M424.14 105.57L441.62 88.09"
fill="none" stroke="black" stroke-width="0.5"/>
<path d="M200.1 105.57L217.59 88.09"
fill="none" stroke="black" stroke-width="0.5"/>
<path d="M312.12 681.43L329.61 698.91"
fill="none" stroke="black" stroke-width="0.5"/>
<path d="M200.1 457.39L217.59 474.88"
fill="none" stroke="black" stroke-width="0.5"/>
<path d="M536.15 681.43L553.64 698.91"
fill="none" stroke="black" stroke-width="0.5"/>
<path d="M424.14 457.39L441.62 474.88"
fill="none" stroke="black" stroke-width="0.5"/>
<path d="M312.12 233.36L329.61 250.85"
fill="none" stroke="black" stroke-width="0.5"/>
<path d="M200.1 9.33L217.59 26.81"
fill="none" stroke="black" stroke-width="0.5"/>
<path d="M536.15 233.36L553.64 250.85"
fill="none" stroke="black" stroke-width="0.5"/>
<path d="M424.14 9.33L441.62 26.81"
fill="none" stroke="black" stroke-width="0.5"/>
<path d="M362.86 9.33L345.38 26.81"
fill="none" stroke="black" stroke-width="0.5"/>
<path d="M250.85 233.36L233.36 250.85"
fill="none" stroke="black" stroke-width="0.5"/>
<path d="M586.9 9.33L569.41 26.81"
fill="none" stroke="black" stroke-width="0.5"/>
<path d="M474.88 233.36L457.39 250.85"
fill="none" stroke="black" stroke-width="0.5"/>
<path d="M362.86 457.39L345.38 474.88"
fill="none" stroke="black" stroke-width="0.5"/>
<path d="M250.85 681.43L233.36 698.91"
fill="none" stroke="black" stroke-width="0.5"/>
<path d="M586.9 457.39L569.41 474.88"
fill="none" stroke="black" stroke-width="0.5"/>
<path d="M474.88 681.43L457.39 698.91"
fill="none" stroke="black" stroke-width="0.5"/>
<path d="M586.9 105.57L569.41 88.09"
fill="none" stroke="black" stroke-width="0.5"/>
<path d="M362.86 105.57L345.38 88.09"
fill="none" stroke="black" stroke-width="0.5"/>
<path d="M474.88 329.61L457.39 312.12"
fill="none" stroke="black" stroke-width="0.5"/>
<path d="M586.9 553.64L569.41 536.15"
fill="none" stroke="black" stroke-width="0.5"/>
<path d="M250.85 329.61L233.36 312.12"
fill="none" stroke="black" stroke-width="0.5"/>
<path d="M362.86 553.64L345.38 536.15"
fill="none" stroke="black" stroke-width="0.5"/>
<path d="M474.88 777.67L457.39 760.19"
fill="none" stroke="black" stroke-width="0.5"/>
<path d="M250.85 777.67L233.36 760.19"
fill="none" stroke="black" stroke-width="0.5"/>
<path d="M516.44 785.56L536.15 777.67"
fill="none" stroke="black" stroke-width="0.5"/>
<path d="M292.41 785.56L312.12 777.67"
fill="none" stroke="black" stroke-width="0.5"/>
<path d="M404.43 561.52L424.14 553.64"
fill="none" stroke="black" stroke-width="0.5"/>
<path d="M180.39 561.52L200.1 553.64"
fill="none" stroke="black" stroke-width="0.5"/>
<path d="M516.44 337.49L536.15 329.61"
fill="none" stroke="black" stroke-width="0.5"/>
<path d="M292.41 337.49L312.12 329.61"
fill="none" stroke="black" stroke-width="0.5"/>
<path d="M404.43 113.46L424.14 105.57"
fill="none" stroke="black" stroke-width="0.5"/>
<path d="M180.39 113.46L200.1 105.57"
fill="none" stroke="black" stroke-width="0.5"/>
<path d="M225.48 68.38L217.59 88.09"
fill="none" stroke="black" stroke-width="0.5"/>
<path d="M225.48 516.44L217.59 536.15"
fill="none" stroke="black" stroke-width="0.5"/>
<path d="M337.49 292.41L329.61 312.12"
fill="none" stroke="black" stroke-width="0.5"/>
<path d="M449.51 68.38L441.62 88.09"
fill="none" stroke="black" stroke-width="0.5"/>
<path d="M337.49 740.47L329.61 760.19"
fill="none" stroke="black" stroke-width="0.5"/>
<path d="M449.51 516.44L441.62 536.15"
fill="none" stroke="black" stroke-width="0.5"/>
<path d="M561.52 292.41L553.64 312.12"
fill="none" stroke="black" stroke-width="0.5"/>
<path d="M561.52 740.47L553.64 760.19"
fill="none" stroke="black" stroke-width="0.5"/>
<path d="M561.52 270.56L553.64 250.85"
fill="none" stroke="black" stroke-width="0.5"/>
<path d="M449.51 46.53L441.62 26.81"
fill="none" stroke="black" stroke-width="0.5"/>
<path d="M561.52 718.62L553.64 698.91"
fill="none" stroke="black" stroke-width="0.5"/>
<path d="M449.51 494.59L441.62 474.88"
fill="none" stroke="black" stroke-width="0.5"/>
<path d="M337.49 270.56L329.61 250.85"
fill="none" stroke="black" stroke-width="0.5"/>
<path d="M225.48 46.53L217.59 26.81"
fill="none" stroke="black" stroke-width="0.5"/>
<path d="M337.49 718.62L329.61 698.91"
fill="none" stroke="black" stroke-width="0.5"/>
<path d="M225.48 494.59L217.59 474.88"
fill="none" stroke="black" stroke-width="0.5"/>
<path d="M292.41 673.54L312.12 681.43"
fill="none" stroke="black" stroke-width="0.5"/>
<path d="M516.44 673.54L536.15 681.43"
fill="none" stroke="black" stroke-width="0.5"/>
<path d="M180.39 449.51L200.1 457.39"
fill="none" stroke="black" stroke-width="0.5"/>
<path d="M404.43 449.51L424.14 457.39"
fill="none" stroke="black" stroke-width="0.5"/>
<path d="M292.41 225.48L312.12 233.36"
fill="none" stroke="black" stroke-width="0.5"/>
<path d="M516.44 225.48L536.15 233.36"
fill="none" stroke="black" stroke-width="0.5"/>
<path d="M180.39 1.44L200.1 9.33"
fill="none" stroke="black" stroke-width="0.5"/>
<path d="M404.43 1.44L424.14 9.33"
fill="none" stroke="black" stroke-width="0.5"/>
<path d="M382.58 1.44L362.87 9.33"
fill="none" stroke="black" stroke-width="0.5"/>
<path d="M606.61 1.45L586.9 9.33"
fill="none" stroke="black" stroke-width="0.5"/>
<path d="M270.56 225.48L250.85 233.36"
fill="none" stroke="black" stroke-width="0.5"/>
<path d="M494.59 225.48L474.88 233.36"
fill="none" stroke="black" stroke-width="0.5"/>
<path d="M382.57 449.51L362.86 457.39"
fill="none" stroke="black" stroke-width="0.5"/>
<path d="M606.61 449.51L586.9 457.39"
fill="none" stroke="black" stroke-width="0.5"/>
<path d="M270.56 673.54L250.85 681.43"
fill="none" stroke="black" stroke-width="0.5"/>
<path d="M494.59 673.54L474.88 681.43"
fill="none" stroke="black" stroke-width="0.5"/>
<path d="M561.52 494.59L569.41 474.88"
fill="none" stroke="black" stroke-width="0.5"/>
<path d="M449.51 718.62L457.39 698.91"
fill="none" stroke="black" stroke-width="0.5"/>
<path d="M561.52 46.52L569.4 26.81"
fill="none" stroke="black" stroke-width="0.5"/>
<path d="M449.5 270.55L457.39 250.84"
fill="none" stroke="black" stroke-width="0.5"/>
<path d="M337.49 494.59L345.37 474.88"
fill="none" stroke="black" stroke-width="0.5"/>
<path d="M225.48 718.62L233.36 698.91"
fill="none" stroke="black" stroke-width="0.5"/>
<path d="M337.49 46.52L345.37 26.81"
fill="none" stroke="black" stroke-width="0.5"/>
<path d="M225.47 270.56L233.36 250.85"
fill="none" stroke="black" stroke-width="0.5"/>
<path d="M225.48 740.47L233.36 760.19"
fill="none" stroke="black" stroke-width="0.5"/>
<path d="M225.48 292.41L233.36 312.12"
fill="none" stroke="black" stroke-width="0.5"/>
<path d="M337.5 516.45L345.38 536.16"
fill="none" stroke="black" stroke-width="0.5"/>
<path d="M449.51 740.48L457.39 760.19"
fill="none" stroke="black" stroke-width="0.5"/>
<path d="M337.5 68.38L345.38 88.09"
fill="none" stroke="black" stroke-width="0.5"/>
<path d="M449.51 292.41L457.39 312.12"
fill="none" stroke="black" stroke-width="0.5"/>
<path d="M561.53 516.45L569.41 536.16"
fill="none" stroke="black" stroke-width="0.5"/>
<path d="M561.53 68.38L569.41 88.09"
fill="none" stroke="black" stroke-width="0.5"/>
<path d="M606.6 113.46L586.89 105.57"
fill="none" stroke="black" stroke-width="0.5"/>
<path d="M382.57 113.46L362.86 105.57"
fill="none" stroke="black" stroke-width="0.5"/>
<path d="M494.59 337.49L474.88 329.61"
fill="none" stroke="black" stroke-width="0.5"/>
<path d="M270.55 337.49L250.84 329.61"
fill="none" stroke="black" stroke-width="0.5"/>
<path d="M606.6 561.52L586.89 553.64"
fill="none" stroke="black" stroke-width="0.5"/>
<path d="M382.57 561.52L362.86 553.64"
fill="none" stroke="black" stroke-width="0.5"/>
<path d="M494.59 785.56L474.88 777.67"
fill="none" stroke="black" stroke-width="0.5"/>
<path d="M270.55 785.56L250.84 777.67"
fill="none" stroke="black" stroke-width="0.5"/>
</svg>
