<?xml version="1.0" encoding="UTF-8"?>
<svg xmlns="http://www.w3.org/2000/svg" width="99.949mm" height="99.949mm" viewBox="0.0 0.0 787.000 787.000" preserveAspectRatio="none" version="1.1">
  <title>Produce by Acme CAD Converter</title>
  <desc>Produce by Acme CAD Converter</desc>
<path d="M266.99 785.56L295.98 785.56"
fill="none" stroke="black" stroke-width="0.5"/>
<path d="M491.02 785.56L520.01 785.56"
fill="none" stroke="black" stroke-width="0.5"/>
<path d="M169.47 561.52L183.97 561.52"
fill="none" stroke="black" stroke-width="0.5"/>
<path d="M379 561.52L408 561.52"
fill="none" stroke="black" stroke-width="0.5"/>
<path d="M603.03 561.52L617.53 561.52"
fill="none" stroke="black" stroke-width="0.5"/>
<path d="M266.99 337.49L295.98 337.49"
fill="none" stroke="black" stroke-width="0.5"/>
<path d="M491.02 337.49L520.01 337.49"
fill="none" stroke="black" stroke-width="0.5"/>
<path d="M169.47 113.46L183.97 113.46"
fill="none" stroke="black" stroke-width="0.5"/>
<path d="M379 113.46L408 113.46"
fill="none" stroke="black" stroke-width="0.5"/>
<path d="M603.03 113.46L617.53 113.46"
fill="none" stroke="black" stroke-width="0.5"/>
<path d="M266.99 673.54L295.98 673.54"
fill="none" stroke="black" stroke-width="0.5"/>
<path d="M491.02 673.54L520.01 673.54"
fill="none" stroke="black" stroke-width="0.5"/>
<path d="M169.47 449.51L183.97 449.51"
fill="none" stroke="black" stroke-width="0.5"/>
<path d="M379 449.51L408 449.51"
fill="none" stroke="black" stroke-width="0.5"/>
<path d="M603.03 449.51L617.53 449.51"
fill="none" stroke="black" stroke-width="0.5"/>
<path d="M266.99 225.48L295.98 225.48"
fill="none" stroke="black" stroke-width="0.5"/>
<path d="M491.02 225.48L520.01 225.48"
fill="none" stroke="black" stroke-width="0.5"/>
<path d="M169.47 1.44L183.97 1.44"
fill="none" stroke="black" stroke-width="0.5"/>
<path d="M379 1.44L408 1.44"
fill="none" stroke="black" stroke-width="0.5"/>
<path d="M603.03 1.44L617.53 1.44"
fill="none" stroke="black" stroke-width="0.5"/>
<path d="M561.52 744.05L561.52 715.05"
fill="none" stroke="black" stroke-width="0.5"/>
<path d="M561.52 520.01L561.52 491.02"
fill="none" stroke="black" stroke-width="0.5"/>
<path d="M561.52 295.98L561.52 266.99"
fill="none" stroke="black" stroke-width="0.5"/>
<path d="M561.52 71.95L561.52 42.95"
fill="none" stroke="black" stroke-width="0.5"/>
<path d="M449.51 744.05L449.51 715.05"
fill="none" stroke="black" stroke-width="0.5"/>
<path d="M449.51 520.01L449.51 491.02"
fill="none" stroke="black" stroke-width="0.5"/>
<path d="M449.51 295.98L449.51 266.99"
fill="none" stroke="black" stroke-width="0.5"/>
<path d="M449.51 71.95L449.51 42.95"
fill="none" stroke="black" stroke-width="0.5"/>
<path d="M337.49 744.05L337.49 715.05"
fill="none" stroke="black" stroke-width="0.5"/>
<path d="M337.49 520.01L337.49 491.02"
fill="none" stroke="black" stroke-width="0.5"/>
<path d="M337.49 295.98L337.49 266.99"
fill="none" stroke="black" stroke-width="0.5"/>
<path d="M337.49 71.95L337.49 42.95"
fill="none" stroke="black" stroke-width="0.5"/>
<path d="M225.48 744.05L225.48 715.05"
fill="none" stroke="black" stroke-width="0.5"/>
<path d="M225.48 520.01L225.48 491.02"
fill="none" stroke="black" stroke-width="0.5"/>
<path d="M225.48 295.98L225.48 266.99"
fill="none" stroke="black" stroke-width="0.5"/>
<path d="M225.48 71.95L225.48 42.95"
fill="none" stroke="black" stroke-width="0.5"/>
<path d="M561.52 744.05L561.52 715.05"
fill="none" stroke="black" stroke-width="0.5"/>
<path d="M561.52 520.01L561.52 491.02"
fill="none" stroke="black" stroke-width="0.5"/>
<path d="M561.52 295.98L561.52 266.99"
fill="none" stroke="black" stroke-width="0.5"/>
<path d="M561.52 71.95L561.52 42.95"
fill="none" stroke="black" stroke-width="0.5"/>
<path d="M449.51 744.05L449.51 715.05"
fill="none" stroke="black" stroke-width="0.5"/>
<path d="M449.51 520.01L449.51 491.02"
fill="none" stroke="black" stroke-width="0.5"/>
<path d="M449.51 295.98L449.51 266.99"
fill="none" stroke="black" stroke-width="0.5"/>
<path d="M449.51 71.95L449.51 42.95"
fill="none" stroke="black" stroke-width="0.5"/>
<path d="M337.49 744.05L337.49 715.05"
fill="none" stroke="black" stroke-width="0.5"/>
<path d="M337.49 520.01L337.49 491.02"
fill="none" stroke="black" stroke-width="0.5"/>
<path d="M337.49 295.98L337.49 266.99"
fill="none" stroke="black" stroke-width="0.5"/>
<path d="M337.49 71.95L337.49 42.95"
fill="none" stroke="black" stroke-width="0.5"/>
<path d="M225.48 744.05L225.48 715.05"
fill="none" stroke="black" stroke-width="0.5"/>
<path d="M225.48 520.01L225.48 491.02"
fill="none" stroke="black" stroke-width="0.5"/>
<path d="M225.48 295.98L225.48 266.99"
fill="none" stroke="black" stroke-width="0.5"/>
<path d="M225.48 71.95L225.48 42.95"
fill="none" stroke="black" stroke-width="0.5"/>
<path d="M520.01 785.56L546.43 770.46"
fill="none" stroke="black" stroke-width="0.5"/>
<path d="M295.98 785.56L322.4 770.46"
fill="none" stroke="black" stroke-width="0.5"/>
<path d="M408 561.52L434.41 546.43"
fill="none" stroke="black" stroke-width="0.5"/>
<path d="M183.97 561.52L210.38 546.43"
fill="none" stroke="black" stroke-width="0.5"/>
<path d="M520.01 337.49L546.43 322.4"
fill="none" stroke="black" stroke-width="0.5"/>
<path d="M295.98 337.49L322.4 322.4"
fill="none" stroke="black" stroke-width="0.5"/>
<path d="M408 113.46L434.41 98.37"
fill="none" stroke="black" stroke-width="0.5"/>
<path d="M183.97 113.46L210.38 98.37"
fill="none" stroke="black" stroke-width="0.5"/>
<path d="M225.48 71.95L210.38 98.37"
fill="none" stroke="black" stroke-width="0.5"/>
<path d="M449.51 71.95L434.41 98.37"
fill="none" stroke="black" stroke-width="0.5"/>
<path d="M337.49 295.98L322.4 322.4"
fill="none" stroke="black" stroke-width="0.5"/>
<path d="M225.48 520.01L210.38 546.43"
fill="none" stroke="black" stroke-width="0.5"/>
<path d="M561.52 295.98L546.43 322.4"
fill="none" stroke="black" stroke-width="0.5"/>
<path d="M449.51 520.01L434.41 546.43"
fill="none" stroke="black" stroke-width="0.5"/>
<path d="M337.49 744.05L322.4 770.46"
fill="none" stroke="black" stroke-width="0.5"/>
<path d="M561.52 744.05L546.43 770.46"
fill="none" stroke="black" stroke-width="0.5"/>
<path d="M449.51 42.95L434.41 16.54"
fill="none" stroke="black" stroke-width="0.5"/>
<path d="M561.52 266.99L546.43 240.57"
fill="none" stroke="black" stroke-width="0.5"/>
<path d="M225.48 42.95L210.38 16.54"
fill="none" stroke="black" stroke-width="0.5"/>
<path d="M337.49 266.99L322.4 240.57"
fill="none" stroke="black" stroke-width="0.5"/>
<path d="M449.51 491.02L434.41 464.6"
fill="none" stroke="black" stroke-width="0.5"/>
<path d="M561.52 715.05L546.43 688.63"
fill="none" stroke="black" stroke-width="0.5"/>
<path d="M225.48 491.02L210.38 464.6"
fill="none" stroke="black" stroke-width="0.5"/>
<path d="M337.49 715.05L322.4 688.63"
fill="none" stroke="black" stroke-width="0.5"/>
<path d="M295.98 673.54L322.4 688.63"
fill="none" stroke="black" stroke-width="0.5"/>
<path d="M520.01 673.54L546.43 688.63"
fill="none" stroke="black" stroke-width="0.5"/>
<path d="M183.97 449.51L210.38 464.6"
fill="none" stroke="black" stroke-width="0.5"/>
<path d="M408 449.51L434.41 464.6"
fill="none" stroke="black" stroke-width="0.5"/>
<path d="M295.98 225.48L322.4 240.57"
fill="none" stroke="black" stroke-width="0.5"/>
<path d="M520.01 225.48L546.43 240.57"
fill="none" stroke="black" stroke-width="0.5"/>
<path d="M183.97 1.44L210.38 16.54"
fill="none" stroke="black" stroke-width="0.5"/>
<path d="M408 1.44L434.41 16.54"
fill="none" stroke="black" stroke-width="0.5"/>
<path d="M379 1.44L352.59 16.54"
fill="none" stroke="black" stroke-width="0.5"/>
<path d="M603.03 1.44L576.62 16.54"
fill="none" stroke="black" stroke-width="0.5"/>
<path d="M266.99 225.48L240.57 240.57"
fill="none" stroke="black" stroke-width="0.5"/>
<path d="M491.02 225.48L464.6 240.57"
fill="none" stroke="black" stroke-width="0.5"/>
<path d="M379 449.51L352.59 464.6"
fill="none" stroke="black" stroke-width="0.5"/>
<path d="M603.03 449.51L576.62 464.6"
fill="none" stroke="black" stroke-width="0.5"/>
<path d="M266.99 673.54L240.57 688.63"
fill="none" stroke="black" stroke-width="0.5"/>
<path d="M491.02 673.54L464.6 688.63"
fill="none" stroke="black" stroke-width="0.5"/>
<path d="M449.51 715.05L464.6 688.63"
fill="none" stroke="black" stroke-width="0.5"/>
<path d="M561.52 491.02L576.62 464.6"
fill="none" stroke="black" stroke-width="0.5"/>
<path d="M225.48 715.05L240.57 688.63"
fill="none" stroke="black" stroke-width="0.5"/>
<path d="M337.49 491.02L352.59 464.6"
fill="none" stroke="black" stroke-width="0.5"/>
<path d="M449.51 266.99L464.6 240.57"
fill="none" stroke="black" stroke-width="0.5"/>
<path d="M561.52 42.95L576.62 16.54"
fill="none" stroke="black" stroke-width="0.5"/>
<path d="M225.48 266.99L240.57 240.57"
fill="none" stroke="black" stroke-width="0.5"/>
<path d="M337.49 42.95L352.59 16.54"
fill="none" stroke="black" stroke-width="0.5"/>
<path d="M225.48 744.05L240.57 770.46"
fill="none" stroke="black" stroke-width="0.5"/>
<path d="M449.51 744.05L464.6 770.46"
fill="none" stroke="black" stroke-width="0.5"/>
<path d="M337.49 520.01L352.59 546.43"
fill="none" stroke="black" stroke-width="0.5"/>
<path d="M225.48 295.98L240.57 322.4"
fill="none" stroke="black" stroke-width="0.5"/>
<path d="M561.52 520.01L576.62 546.43"
fill="none" stroke="black" stroke-width="0.5"/>
<path d="M449.51 295.98L464.6 322.4"
fill="none" stroke="black" stroke-width="0.5"/>
<path d="M337.49 71.95L352.59 98.37"
fill="none" stroke="black" stroke-width="0.5"/>
<path d="M561.52 71.95L576.62 98.37"
fill="none" stroke="black" stroke-width="0.5"/>
<path d="M603.03 113.46L576.62 98.37"
fill="none" stroke="black" stroke-width="0.5"/>
<path d="M379 113.46L352.59 98.37"
fill="none" stroke="black" stroke-width="0.5"/>
<path d="M491.02 337.49L464.6 322.4"
fill="none" stroke="black" stroke-width="0.5"/>
<path d="M266.99 337.49L240.57 322.4"
fill="none" stroke="black" stroke-width="0.5"/>
<path d="M603.03 561.52L576.62 546.43"
fill="none" stroke="black" stroke-width="0.5"/>
<path d="M379 561.52L352.59 546.43"
fill="none" stroke="black" stroke-width="0.5"/>
<path d="M491.02 785.56L464.6 770.46"
fill="none" stroke="black" stroke-width="0.5"/>
<path d="M266.99 785.56L240.57 770.46"
fill="none" stroke="black" stroke-width="0.5"/>
</svg>
