<?xml version="1.0" encoding="UTF-8"?>
<svg xmlns="http://www.w3.org/2000/svg" width="99.949mm" height="99.949mm" viewBox="0.0 0.0 787.000 787.000" preserveAspectRatio="none" version="1.1">
  <title>Produce by Acme CAD Converter</title>
  <desc>Produce by Acme CAD Converter</desc>
<path d="M235.11 770.18L244.4 770.18"
fill="none" stroke="black" stroke-width="0.5"/>
<path d="M440.11 770.18L449.39 770.18"
fill="none" stroke="black" stroke-width="0.5"/>
<path d="M286.36 667.68L295.64 667.68"
fill="none" stroke="black" stroke-width="0.5"/>
<path d="M491.36 667.68L500.64 667.68"
fill="none" stroke="black" stroke-width="0.5"/>
<path d="M337.61 565.19L346.89 565.19"
fill="none" stroke="black" stroke-width="0.5"/>
<path d="M542.6 565.19L551.89 565.19"
fill="none" stroke="black" stroke-width="0.5"/>
<path d="M188.5 462.69L193.15 462.69"
fill="none" stroke="black" stroke-width="0.5"/>
<path d="M388.86 462.69L398.14 462.69"
fill="none" stroke="black" stroke-width="0.5"/>
<path d="M593.85 462.69L598.5 462.69"
fill="none" stroke="black" stroke-width="0.5"/>
<path d="M235.11 360.19L244.4 360.19"
fill="none" stroke="black" stroke-width="0.5"/>
<path d="M440.11 360.19L449.39 360.19"
fill="none" stroke="black" stroke-width="0.5"/>
<path d="M286.36 257.69L295.64 257.69"
fill="none" stroke="black" stroke-width="0.5"/>
<path d="M491.36 257.69L500.64 257.69"
fill="none" stroke="black" stroke-width="0.5"/>
<path d="M337.61 155.19L346.89 155.19"
fill="none" stroke="black" stroke-width="0.5"/>
<path d="M542.6 155.19L551.89 155.19"
fill="none" stroke="black" stroke-width="0.5"/>
<path d="M188.5 52.69L193.15 52.69"
fill="none" stroke="black" stroke-width="0.5"/>
<path d="M388.86 52.69L398.14 52.69"
fill="none" stroke="black" stroke-width="0.5"/>
<path d="M593.85 52.69L598.5 52.69"
fill="none" stroke="black" stroke-width="0.5"/>
<path d="M235.11 734.31L244.4 734.31"
fill="none" stroke="black" stroke-width="0.5"/>
<path d="M440.11 734.31L449.39 734.31"
fill="none" stroke="black" stroke-width="0.5"/>
<path d="M286.36 631.81L295.64 631.81"
fill="none" stroke="black" stroke-width="0.5"/>
<path d="M491.36 631.81L500.64 631.81"
fill="none" stroke="black" stroke-width="0.5"/>
<path d="M337.61 529.31L346.89 529.31"
fill="none" stroke="black" stroke-width="0.5"/>
<path d="M542.6 529.31L551.89 529.31"
fill="none" stroke="black" stroke-width="0.5"/>
<path d="M188.5 426.81L193.15 426.81"
fill="none" stroke="black" stroke-width="0.5"/>
<path d="M388.86 426.81L398.14 426.81"
fill="none" stroke="black" stroke-width="0.5"/>
<path d="M593.85 426.81L598.5 426.81"
fill="none" stroke="black" stroke-width="0.5"/>
<path d="M235.11 324.31L244.4 324.31"
fill="none" stroke="black" stroke-width="0.5"/>
<path d="M440.11 324.31L449.39 324.31"
fill="none" stroke="black" stroke-width="0.5"/>
<path d="M286.36 221.81L295.64 221.81"
fill="none" stroke="black" stroke-width="0.5"/>
<path d="M491.36 221.81L500.64 221.81"
fill="none" stroke="black" stroke-width="0.5"/>
<path d="M337.61 119.32L346.89 119.32"
fill="none" stroke="black" stroke-width="0.5"/>
<path d="M542.6 119.32L551.89 119.32"
fill="none" stroke="black" stroke-width="0.5"/>
<path d="M188.5 16.82L193.15 16.82"
fill="none" stroke="black" stroke-width="0.5"/>
<path d="M388.86 16.82L398.14 16.82"
fill="none" stroke="black" stroke-width="0.5"/>
<path d="M593.85 16.82L598.5 16.82"
fill="none" stroke="black" stroke-width="0.5"/>
<path d="M580.56 449.39L580.56 440.11"
fill="none" stroke="black" stroke-width="0.5"/>
<path d="M580.56 39.4L580.56 30.11"
fill="none" stroke="black" stroke-width="0.5"/>
<path d="M529.31 551.89L529.31 542.6"
fill="none" stroke="black" stroke-width="0.5"/>
<path d="M529.31 141.9L529.31 132.61"
fill="none" stroke="black" stroke-width="0.5"/>
<path d="M478.06 654.39L478.06 645.1"
fill="none" stroke="black" stroke-width="0.5"/>
<path d="M478.06 244.4L478.06 235.11"
fill="none" stroke="black" stroke-width="0.5"/>
<path d="M426.81 756.89L426.81 747.6"
fill="none" stroke="black" stroke-width="0.5"/>
<path d="M426.81 346.89L426.81 337.61"
fill="none" stroke="black" stroke-width="0.5"/>
<path d="M375.56 449.39L375.56 440.11"
fill="none" stroke="black" stroke-width="0.5"/>
<path d="M375.56 39.4L375.56 30.11"
fill="none" stroke="black" stroke-width="0.5"/>
<path d="M324.31 551.89L324.31 542.6"
fill="none" stroke="black" stroke-width="0.5"/>
<path d="M324.31 141.9L324.31 132.61"
fill="none" stroke="black" stroke-width="0.5"/>
<path d="M273.06 654.39L273.06 645.1"
fill="none" stroke="black" stroke-width="0.5"/>
<path d="M273.06 244.4L273.06 235.11"
fill="none" stroke="black" stroke-width="0.5"/>
<path d="M221.81 756.89L221.81 747.6"
fill="none" stroke="black" stroke-width="0.5"/>
<path d="M221.81 346.89L221.81 337.61"
fill="none" stroke="black" stroke-width="0.5"/>
<path d="M565.19 551.89L565.19 542.6"
fill="none" stroke="black" stroke-width="0.5"/>
<path d="M565.19 141.9L565.19 132.61"
fill="none" stroke="black" stroke-width="0.5"/>
<path d="M513.94 654.39L513.94 645.1"
fill="none" stroke="black" stroke-width="0.5"/>
<path d="M513.94 244.4L513.94 235.11"
fill="none" stroke="black" stroke-width="0.5"/>
<path d="M462.69 756.89L462.69 747.6"
fill="none" stroke="black" stroke-width="0.5"/>
<path d="M462.69 346.89L462.69 337.61"
fill="none" stroke="black" stroke-width="0.5"/>
<path d="M411.44 449.39L411.44 440.11"
fill="none" stroke="black" stroke-width="0.5"/>
<path d="M411.44 39.4L411.44 30.11"
fill="none" stroke="black" stroke-width="0.5"/>
<path d="M360.19 551.89L360.19 542.6"
fill="none" stroke="black" stroke-width="0.5"/>
<path d="M360.19 141.9L360.19 132.61"
fill="none" stroke="black" stroke-width="0.5"/>
<path d="M308.94 654.39L308.94 645.1"
fill="none" stroke="black" stroke-width="0.5"/>
<path d="M308.94 244.4L308.94 235.11"
fill="none" stroke="black" stroke-width="0.5"/>
<path d="M257.69 756.89L257.69 747.6"
fill="none" stroke="black" stroke-width="0.5"/>
<path d="M257.69 346.89L257.69 337.61"
fill="none" stroke="black" stroke-width="0.5"/>
<path d="M206.44 449.39L206.44 440.11"
fill="none" stroke="black" stroke-width="0.5"/>
<path d="M206.44 39.4L206.44 30.11"
fill="none" stroke="black" stroke-width="0.5"/>
<path d="M449.39 770.18L457.85 765.35"
fill="none" stroke="black" stroke-width="0.5"/>
<path d="M500.64 667.68L509.1 662.85"
fill="none" stroke="black" stroke-width="0.5"/>
<path d="M244.4 770.18L252.86 765.35"
fill="none" stroke="black" stroke-width="0.5"/>
<path d="M551.89 565.19L560.35 560.35"
fill="none" stroke="black" stroke-width="0.5"/>
<path d="M295.64 667.68L304.1 662.85"
fill="none" stroke="black" stroke-width="0.5"/>
<path d="M346.89 565.19L355.35 560.35"
fill="none" stroke="black" stroke-width="0.5"/>
<path d="M398.14 462.69L406.6 457.85"
fill="none" stroke="black" stroke-width="0.5"/>
<path d="M449.39 360.19L457.85 355.35"
fill="none" stroke="black" stroke-width="0.5"/>
<path d="M193.15 462.69L201.61 457.85"
fill="none" stroke="black" stroke-width="0.5"/>
<path d="M500.64 257.69L509.1 252.86"
fill="none" stroke="black" stroke-width="0.5"/>
<path d="M244.4 360.19L252.86 355.35"
fill="none" stroke="black" stroke-width="0.5"/>
<path d="M551.89 155.19L560.35 150.36"
fill="none" stroke="black" stroke-width="0.5"/>
<path d="M295.64 257.69L304.1 252.86"
fill="none" stroke="black" stroke-width="0.5"/>
<path d="M346.89 155.19L355.35 150.36"
fill="none" stroke="black" stroke-width="0.5"/>
<path d="M398.14 52.69L406.6 47.86"
fill="none" stroke="black" stroke-width="0.5"/>
<path d="M193.15 52.69L201.61 47.86"
fill="none" stroke="black" stroke-width="0.5"/>
<path d="M206.44 39.4L201.61 47.86"
fill="none" stroke="black" stroke-width="0.5"/>
<path d="M411.44 39.4L406.6 47.86"
fill="none" stroke="black" stroke-width="0.5"/>
<path d="M360.19 141.9L355.35 150.36"
fill="none" stroke="black" stroke-width="0.5"/>
<path d="M308.94 244.4L304.1 252.86"
fill="none" stroke="black" stroke-width="0.5"/>
<path d="M257.69 346.89L252.86 355.35"
fill="none" stroke="black" stroke-width="0.5"/>
<path d="M206.44 449.39L201.61 457.85"
fill="none" stroke="black" stroke-width="0.5"/>
<path d="M565.19 141.9L560.35 150.36"
fill="none" stroke="black" stroke-width="0.5"/>
<path d="M513.94 244.4L509.1 252.86"
fill="none" stroke="black" stroke-width="0.5"/>
<path d="M462.69 346.89L457.85 355.35"
fill="none" stroke="black" stroke-width="0.5"/>
<path d="M411.44 449.39L406.6 457.85"
fill="none" stroke="black" stroke-width="0.5"/>
<path d="M360.19 551.89L355.35 560.35"
fill="none" stroke="black" stroke-width="0.5"/>
<path d="M308.94 654.39L304.1 662.85"
fill="none" stroke="black" stroke-width="0.5"/>
<path d="M257.69 756.89L252.86 765.35"
fill="none" stroke="black" stroke-width="0.5"/>
<path d="M565.19 551.89L560.35 560.35"
fill="none" stroke="black" stroke-width="0.5"/>
<path d="M513.94 654.39L509.1 662.85"
fill="none" stroke="black" stroke-width="0.5"/>
<path d="M462.69 756.89L457.85 765.35"
fill="none" stroke="black" stroke-width="0.5"/>
<path d="M565.19 132.61L560.35 124.15"
fill="none" stroke="black" stroke-width="0.5"/>
<path d="M411.44 30.11L406.6 21.65"
fill="none" stroke="black" stroke-width="0.5"/>
<path d="M513.94 235.11L509.1 226.65"
fill="none" stroke="black" stroke-width="0.5"/>
<path d="M360.19 132.61L355.35 124.15"
fill="none" stroke="black" stroke-width="0.5"/>
<path d="M462.69 337.61L457.85 329.15"
fill="none" stroke="black" stroke-width="0.5"/>
<path d="M565.19 542.6L560.35 534.14"
fill="none" stroke="black" stroke-width="0.5"/>
<path d="M206.44 30.11L201.61 21.65"
fill="none" stroke="black" stroke-width="0.5"/>
<path d="M308.94 235.11L304.1 226.65"
fill="none" stroke="black" stroke-width="0.5"/>
<path d="M411.44 440.11L406.6 431.65"
fill="none" stroke="black" stroke-width="0.5"/>
<path d="M513.94 645.1L509.1 636.64"
fill="none" stroke="black" stroke-width="0.5"/>
<path d="M257.69 337.61L252.86 329.15"
fill="none" stroke="black" stroke-width="0.5"/>
<path d="M360.19 542.6L355.35 534.14"
fill="none" stroke="black" stroke-width="0.5"/>
<path d="M462.69 747.6L457.85 739.14"
fill="none" stroke="black" stroke-width="0.5"/>
<path d="M206.44 440.11L201.61 431.65"
fill="none" stroke="black" stroke-width="0.5"/>
<path d="M308.94 645.1L304.1 636.64"
fill="none" stroke="black" stroke-width="0.5"/>
<path d="M257.69 747.6L252.86 739.14"
fill="none" stroke="black" stroke-width="0.5"/>
<path d="M244.4 734.31L252.86 739.14"
fill="none" stroke="black" stroke-width="0.5"/>
<path d="M449.39 734.31L457.85 739.14"
fill="none" stroke="black" stroke-width="0.5"/>
<path d="M295.64 631.81L304.1 636.64"
fill="none" stroke="black" stroke-width="0.5"/>
<path d="M500.64 631.81L509.1 636.64"
fill="none" stroke="black" stroke-width="0.5"/>
<path d="M346.89 529.31L355.35 534.14"
fill="none" stroke="black" stroke-width="0.5"/>
<path d="M193.15 426.81L201.61 431.65"
fill="none" stroke="black" stroke-width="0.5"/>
<path d="M551.89 529.31L560.35 534.14"
fill="none" stroke="black" stroke-width="0.5"/>
<path d="M398.14 426.81L406.6 431.65"
fill="none" stroke="black" stroke-width="0.5"/>
<path d="M244.4 324.31L252.86 329.15"
fill="none" stroke="black" stroke-width="0.5"/>
<path d="M449.39 324.31L457.85 329.15"
fill="none" stroke="black" stroke-width="0.5"/>
<path d="M295.64 221.81L304.1 226.65"
fill="none" stroke="black" stroke-width="0.5"/>
<path d="M500.64 221.81L509.1 226.65"
fill="none" stroke="black" stroke-width="0.5"/>
<path d="M346.89 119.32L355.35 124.15"
fill="none" stroke="black" stroke-width="0.5"/>
<path d="M193.15 16.82L201.61 21.65"
fill="none" stroke="black" stroke-width="0.5"/>
<path d="M551.89 119.32L560.35 124.15"
fill="none" stroke="black" stroke-width="0.5"/>
<path d="M398.14 16.82L406.6 21.65"
fill="none" stroke="black" stroke-width="0.5"/>
<path d="M388.86 16.82L380.4 21.65"
fill="none" stroke="black" stroke-width="0.5"/>
<path d="M337.61 119.32L329.15 124.15"
fill="none" stroke="black" stroke-width="0.5"/>
<path d="M593.85 16.82L585.39 21.65"
fill="none" stroke="black" stroke-width="0.5"/>
<path d="M286.36 221.81L277.9 226.65"
fill="none" stroke="black" stroke-width="0.5"/>
<path d="M542.6 119.32L534.14 124.15"
fill="none" stroke="black" stroke-width="0.5"/>
<path d="M235.11 324.31L226.65 329.15"
fill="none" stroke="black" stroke-width="0.5"/>
<path d="M491.36 221.81L482.9 226.65"
fill="none" stroke="black" stroke-width="0.5"/>
<path d="M440.11 324.31L431.65 329.15"
fill="none" stroke="black" stroke-width="0.5"/>
<path d="M388.86 426.81L380.4 431.65"
fill="none" stroke="black" stroke-width="0.5"/>
<path d="M337.61 529.31L329.15 534.14"
fill="none" stroke="black" stroke-width="0.5"/>
<path d="M593.85 426.81L585.39 431.65"
fill="none" stroke="black" stroke-width="0.5"/>
<path d="M286.36 631.81L277.9 636.64"
fill="none" stroke="black" stroke-width="0.5"/>
<path d="M542.6 529.31L534.14 534.14"
fill="none" stroke="black" stroke-width="0.5"/>
<path d="M235.11 734.31L226.65 739.14"
fill="none" stroke="black" stroke-width="0.5"/>
<path d="M491.36 631.81L482.9 636.64"
fill="none" stroke="black" stroke-width="0.5"/>
<path d="M440.11 734.31L431.65 739.14"
fill="none" stroke="black" stroke-width="0.5"/>
<path d="M426.81 747.6L431.65 739.14"
fill="none" stroke="black" stroke-width="0.5"/>
<path d="M478.06 645.1L482.9 636.64"
fill="none" stroke="black" stroke-width="0.5"/>
<path d="M529.31 542.6L534.14 534.14"
fill="none" stroke="black" stroke-width="0.5"/>
<path d="M580.56 440.11L585.39 431.65"
fill="none" stroke="black" stroke-width="0.5"/>
<path d="M221.81 747.6L226.65 739.14"
fill="none" stroke="black" stroke-width="0.5"/>
<path d="M273.06 645.1L277.9 636.64"
fill="none" stroke="black" stroke-width="0.5"/>
<path d="M324.31 542.6L329.15 534.14"
fill="none" stroke="black" stroke-width="0.5"/>
<path d="M375.56 440.11L380.4 431.65"
fill="none" stroke="black" stroke-width="0.5"/>
<path d="M426.81 337.61L431.65 329.15"
fill="none" stroke="black" stroke-width="0.5"/>
<path d="M478.06 235.11L482.9 226.65"
fill="none" stroke="black" stroke-width="0.5"/>
<path d="M529.31 132.61L534.14 124.15"
fill="none" stroke="black" stroke-width="0.5"/>
<path d="M580.56 30.11L585.39 21.65"
fill="none" stroke="black" stroke-width="0.5"/>
<path d="M221.81 337.61L226.65 329.15"
fill="none" stroke="black" stroke-width="0.5"/>
<path d="M273.06 235.11L277.9 226.65"
fill="none" stroke="black" stroke-width="0.5"/>
<path d="M324.31 132.61L329.15 124.15"
fill="none" stroke="black" stroke-width="0.5"/>
<path d="M375.56 30.11L380.4 21.65"
fill="none" stroke="black" stroke-width="0.5"/>
<path d="M221.81 756.89L226.65 765.35"
fill="none" stroke="black" stroke-width="0.5"/>
<path d="M273.06 654.39L277.9 662.85"
fill="none" stroke="black" stroke-width="0.5"/>
<path d="M426.81 756.89L431.65 765.35"
fill="none" stroke="black" stroke-width="0.5"/>
<path d="M324.31 551.89L329.15 560.35"
fill="none" stroke="black" stroke-width="0.5"/>
<path d="M221.81 346.89L226.65 355.35"
fill="none" stroke="black" stroke-width="0.5"/>
<path d="M478.06 654.39L482.9 662.85"
fill="none" stroke="black" stroke-width="0.5"/>
<path d="M375.56 449.39L380.4 457.85"
fill="none" stroke="black" stroke-width="0.5"/>
<path d="M273.06 244.4L277.9 252.86"
fill="none" stroke="black" stroke-width="0.5"/>
<path d="M529.31 551.89L534.14 560.35"
fill="none" stroke="black" stroke-width="0.5"/>
<path d="M426.81 346.89L431.65 355.35"
fill="none" stroke="black" stroke-width="0.5"/>
<path d="M324.31 141.9L329.15 150.36"
fill="none" stroke="black" stroke-width="0.5"/>
<path d="M580.56 449.39L585.39 457.85"
fill="none" stroke="black" stroke-width="0.5"/>
<path d="M478.06 244.4L482.9 252.86"
fill="none" stroke="black" stroke-width="0.5"/>
<path d="M375.56 39.4L380.4 47.86"
fill="none" stroke="black" stroke-width="0.5"/>
<path d="M529.31 141.9L534.14 150.36"
fill="none" stroke="black" stroke-width="0.5"/>
<path d="M580.56 39.4L585.39 47.86"
fill="none" stroke="black" stroke-width="0.5"/>
<path d="M593.85 52.69L585.39 47.86"
fill="none" stroke="black" stroke-width="0.5"/>
<path d="M388.86 52.69L380.4 47.86"
fill="none" stroke="black" stroke-width="0.5"/>
<path d="M542.6 155.19L534.14 150.36"
fill="none" stroke="black" stroke-width="0.5"/>
<path d="M337.61 155.19L329.15 150.36"
fill="none" stroke="black" stroke-width="0.5"/>
<path d="M491.36 257.69L482.9 252.86"
fill="none" stroke="black" stroke-width="0.5"/>
<path d="M286.36 257.69L277.9 252.86"
fill="none" stroke="black" stroke-width="0.5"/>
<path d="M440.11 360.19L431.65 355.35"
fill="none" stroke="black" stroke-width="0.5"/>
<path d="M593.85 462.69L585.39 457.85"
fill="none" stroke="black" stroke-width="0.5"/>
<path d="M235.11 360.19L226.65 355.35"
fill="none" stroke="black" stroke-width="0.5"/>
<path d="M388.86 462.69L380.4 457.85"
fill="none" stroke="black" stroke-width="0.5"/>
<path d="M542.6 565.19L534.14 560.35"
fill="none" stroke="black" stroke-width="0.5"/>
<path d="M337.61 565.19L329.15 560.35"
fill="none" stroke="black" stroke-width="0.5"/>
<path d="M491.36 667.68L482.9 662.85"
fill="none" stroke="black" stroke-width="0.5"/>
<path d="M286.36 667.68L277.9 662.85"
fill="none" stroke="black" stroke-width="0.5"/>
<path d="M440.11 770.18L431.65 765.35"
fill="none" stroke="black" stroke-width="0.5"/>
<path d="M235.11 770.18L226.65 765.35"
fill="none" stroke="black" stroke-width="0.5"/>
<path d="M335.75 785.56L348.75 785.56"
fill="none" stroke="black" stroke-width="0.5"/>
<path d="M540.75 785.56L553.75 785.56"
fill="none" stroke="black" stroke-width="0.5"/>
<path d="M188.5 683.06L195 683.06"
fill="none" stroke="black" stroke-width="0.5"/>
<path d="M387 683.06L400 683.06"
fill="none" stroke="black" stroke-width="0.5"/>
<path d="M592 683.06L598.5 683.06"
fill="none" stroke="black" stroke-width="0.5"/>
<path d="M233.25 580.56L246.25 580.56"
fill="none" stroke="black" stroke-width="0.5"/>
<path d="M438.25 580.56L451.25 580.56"
fill="none" stroke="black" stroke-width="0.5"/>
<path d="M284.5 478.06L297.5 478.06"
fill="none" stroke="black" stroke-width="0.5"/>
<path d="M489.5 478.06L502.5 478.06"
fill="none" stroke="black" stroke-width="0.5"/>
<path d="M335.75 375.56L348.75 375.56"
fill="none" stroke="black" stroke-width="0.5"/>
<path d="M540.75 375.56L553.75 375.56"
fill="none" stroke="black" stroke-width="0.5"/>
<path d="M188.5 273.06L195 273.06"
fill="none" stroke="black" stroke-width="0.5"/>
<path d="M387 273.06L400 273.06"
fill="none" stroke="black" stroke-width="0.5"/>
<path d="M592 273.06L598.5 273.06"
fill="none" stroke="black" stroke-width="0.5"/>
<path d="M233.25 170.57L246.25 170.57"
fill="none" stroke="black" stroke-width="0.5"/>
<path d="M438.25 170.57L451.25 170.57"
fill="none" stroke="black" stroke-width="0.5"/>
<path d="M284.5 68.07L297.5 68.07"
fill="none" stroke="black" stroke-width="0.5"/>
<path d="M489.5 68.07L502.5 68.07"
fill="none" stroke="black" stroke-width="0.5"/>
<path d="M335.75 718.93L348.75 718.93"
fill="none" stroke="black" stroke-width="0.5"/>
<path d="M540.75 718.93L553.75 718.93"
fill="none" stroke="black" stroke-width="0.5"/>
<path d="M188.5 616.43L195 616.43"
fill="none" stroke="black" stroke-width="0.5"/>
<path d="M387 616.43L400 616.43"
fill="none" stroke="black" stroke-width="0.5"/>
<path d="M592 616.43L598.5 616.43"
fill="none" stroke="black" stroke-width="0.5"/>
<path d="M233.25 513.94L246.25 513.94"
fill="none" stroke="black" stroke-width="0.5"/>
<path d="M438.25 513.94L451.25 513.94"
fill="none" stroke="black" stroke-width="0.5"/>
<path d="M284.5 411.44L297.5 411.44"
fill="none" stroke="black" stroke-width="0.5"/>
<path d="M489.5 411.44L502.5 411.44"
fill="none" stroke="black" stroke-width="0.5"/>
<path d="M335.75 308.94L348.75 308.94"
fill="none" stroke="black" stroke-width="0.5"/>
<path d="M540.75 308.94L553.75 308.94"
fill="none" stroke="black" stroke-width="0.5"/>
<path d="M188.5 206.44L195 206.44"
fill="none" stroke="black" stroke-width="0.5"/>
<path d="M387 206.44L400 206.44"
fill="none" stroke="black" stroke-width="0.5"/>
<path d="M592 206.44L598.5 206.44"
fill="none" stroke="black" stroke-width="0.5"/>
<path d="M233.25 103.94L246.25 103.94"
fill="none" stroke="black" stroke-width="0.5"/>
<path d="M438.25 103.94L451.25 103.94"
fill="none" stroke="black" stroke-width="0.5"/>
<path d="M284.5 1.44L297.5 1.44"
fill="none" stroke="black" stroke-width="0.5"/>
<path d="M489.5 1.44L502.5 1.44"
fill="none" stroke="black" stroke-width="0.5"/>
<path d="M565.19 656.24L565.19 643.25"
fill="none" stroke="black" stroke-width="0.5"/>
<path d="M565.19 246.25L565.19 233.25"
fill="none" stroke="black" stroke-width="0.5"/>
<path d="M513.94 758.74L513.94 745.75"
fill="none" stroke="black" stroke-width="0.5"/>
<path d="M513.94 348.75L513.94 335.75"
fill="none" stroke="black" stroke-width="0.5"/>
<path d="M462.69 451.25L462.69 438.25"
fill="none" stroke="black" stroke-width="0.5"/>
<path d="M462.69 41.25L462.69 28.26"
fill="none" stroke="black" stroke-width="0.5"/>
<path d="M411.44 553.75L411.44 540.75"
fill="none" stroke="black" stroke-width="0.5"/>
<path d="M411.44 143.75L411.44 130.76"
fill="none" stroke="black" stroke-width="0.5"/>
<path d="M360.19 656.24L360.19 643.25"
fill="none" stroke="black" stroke-width="0.5"/>
<path d="M360.19 246.25L360.19 233.25"
fill="none" stroke="black" stroke-width="0.5"/>
<path d="M308.94 758.74L308.94 745.75"
fill="none" stroke="black" stroke-width="0.5"/>
<path d="M308.94 348.75L308.94 335.75"
fill="none" stroke="black" stroke-width="0.5"/>
<path d="M257.69 451.25L257.69 438.25"
fill="none" stroke="black" stroke-width="0.5"/>
<path d="M257.69 41.25L257.69 28.26"
fill="none" stroke="black" stroke-width="0.5"/>
<path d="M206.44 553.75L206.44 540.75"
fill="none" stroke="black" stroke-width="0.5"/>
<path d="M206.44 143.75L206.44 130.76"
fill="none" stroke="black" stroke-width="0.5"/>
<path d="M580.56 758.74L580.56 745.75"
fill="none" stroke="black" stroke-width="0.5"/>
<path d="M580.56 348.75L580.56 335.75"
fill="none" stroke="black" stroke-width="0.5"/>
<path d="M529.31 451.25L529.31 438.25"
fill="none" stroke="black" stroke-width="0.5"/>
<path d="M529.31 41.25L529.31 28.26"
fill="none" stroke="black" stroke-width="0.5"/>
<path d="M478.06 553.75L478.06 540.75"
fill="none" stroke="black" stroke-width="0.5"/>
<path d="M478.06 143.75L478.06 130.76"
fill="none" stroke="black" stroke-width="0.5"/>
<path d="M426.81 656.24L426.81 643.25"
fill="none" stroke="black" stroke-width="0.5"/>
<path d="M426.81 246.25L426.81 233.25"
fill="none" stroke="black" stroke-width="0.5"/>
<path d="M375.56 758.74L375.56 745.75"
fill="none" stroke="black" stroke-width="0.5"/>
<path d="M375.56 348.75L375.56 335.75"
fill="none" stroke="black" stroke-width="0.5"/>
<path d="M324.31 451.25L324.31 438.25"
fill="none" stroke="black" stroke-width="0.5"/>
<path d="M324.31 41.25L324.31 28.26"
fill="none" stroke="black" stroke-width="0.5"/>
<path d="M273.06 553.75L273.06 540.75"
fill="none" stroke="black" stroke-width="0.5"/>
<path d="M273.06 143.75L273.06 130.76"
fill="none" stroke="black" stroke-width="0.5"/>
<path d="M221.81 656.24L221.81 643.25"
fill="none" stroke="black" stroke-width="0.5"/>
<path d="M221.81 246.25L221.81 233.25"
fill="none" stroke="black" stroke-width="0.5"/>
<path d="M565.47 780.87L575.87 770.47"
fill="none" stroke="black" stroke-width="0.5"/>
<path d="M360.47 780.87L370.87 770.47"
fill="none" stroke="black" stroke-width="0.5"/>
<path d="M411.72 678.37L422.12 667.97"
fill="none" stroke="black" stroke-width="0.5"/>
<path d="M462.97 575.87L473.37 565.47"
fill="none" stroke="black" stroke-width="0.5"/>
<path d="M514.22 473.37L524.62 462.97"
fill="none" stroke="black" stroke-width="0.5"/>
<path d="M565.47 370.87L575.87 360.47"
fill="none" stroke="black" stroke-width="0.5"/>
<path d="M206.72 678.37L217.12 667.97"
fill="none" stroke="black" stroke-width="0.5"/>
<path d="M257.97 575.87L268.37 565.47"
fill="none" stroke="black" stroke-width="0.5"/>
<path d="M309.22 473.37L319.62 462.97"
fill="none" stroke="black" stroke-width="0.5"/>
<path d="M360.47 370.87L370.87 360.47"
fill="none" stroke="black" stroke-width="0.5"/>
<path d="M411.72 268.37L422.12 257.97"
fill="none" stroke="black" stroke-width="0.5"/>
<path d="M462.97 165.88L473.37 155.48"
fill="none" stroke="black" stroke-width="0.5"/>
<path d="M514.22 63.38L524.62 52.98"
fill="none" stroke="black" stroke-width="0.5"/>
<path d="M206.72 268.37L217.12 257.97"
fill="none" stroke="black" stroke-width="0.5"/>
<path d="M257.97 165.88L268.37 155.48"
fill="none" stroke="black" stroke-width="0.5"/>
<path d="M309.22 63.38L319.62 52.98"
fill="none" stroke="black" stroke-width="0.5"/>
<path d="M206.72 621.12L217.12 631.52"
fill="none" stroke="black" stroke-width="0.5"/>
<path d="M360.47 723.62L370.87 734.02"
fill="none" stroke="black" stroke-width="0.5"/>
<path d="M257.97 518.63L268.37 529.03"
fill="none" stroke="black" stroke-width="0.5"/>
<path d="M411.72 621.12L422.12 631.52"
fill="none" stroke="black" stroke-width="0.5"/>
<path d="M565.47 723.62L575.87 734.02"
fill="none" stroke="black" stroke-width="0.5"/>
<path d="M309.22 416.13L319.62 426.53"
fill="none" stroke="black" stroke-width="0.5"/>
<path d="M462.97 518.63L473.37 529.03"
fill="none" stroke="black" stroke-width="0.5"/>
<path d="M206.72 211.13L217.12 221.53"
fill="none" stroke="black" stroke-width="0.5"/>
<path d="M360.47 313.63L370.87 324.03"
fill="none" stroke="black" stroke-width="0.5"/>
<path d="M514.22 416.13L524.62 426.53"
fill="none" stroke="black" stroke-width="0.5"/>
<path d="M257.97 108.63L268.37 119.03"
fill="none" stroke="black" stroke-width="0.5"/>
<path d="M411.72 211.13L422.12 221.53"
fill="none" stroke="black" stroke-width="0.5"/>
<path d="M565.47 313.63L575.87 324.03"
fill="none" stroke="black" stroke-width="0.5"/>
<path d="M309.22 6.13L319.62 16.53"
fill="none" stroke="black" stroke-width="0.5"/>
<path d="M462.97 108.63L473.37 119.03"
fill="none" stroke="black" stroke-width="0.5"/>
<path d="M514.22 6.13L524.62 16.53"
fill="none" stroke="black" stroke-width="0.5"/>
<path d="M272.78 6.13L262.38 16.53"
fill="none" stroke="black" stroke-width="0.5"/>
<path d="M221.53 108.63L211.13 119.03"
fill="none" stroke="black" stroke-width="0.5"/>
<path d="M477.78 6.13L467.38 16.53"
fill="none" stroke="black" stroke-width="0.5"/>
<path d="M426.53 108.63L416.13 119.03"
fill="none" stroke="black" stroke-width="0.5"/>
<path d="M375.28 211.13L364.88 221.53"
fill="none" stroke="black" stroke-width="0.5"/>
<path d="M324.03 313.63L313.63 324.03"
fill="none" stroke="black" stroke-width="0.5"/>
<path d="M272.78 416.13L262.38 426.53"
fill="none" stroke="black" stroke-width="0.5"/>
<path d="M221.53 518.63L211.13 529.03"
fill="none" stroke="black" stroke-width="0.5"/>
<path d="M580.28 211.13L569.88 221.53"
fill="none" stroke="black" stroke-width="0.5"/>
<path d="M529.03 313.63L518.63 324.03"
fill="none" stroke="black" stroke-width="0.5"/>
<path d="M477.78 416.13L467.38 426.53"
fill="none" stroke="black" stroke-width="0.5"/>
<path d="M426.53 518.63L416.13 529.03"
fill="none" stroke="black" stroke-width="0.5"/>
<path d="M375.28 621.12L364.88 631.52"
fill="none" stroke="black" stroke-width="0.5"/>
<path d="M324.03 723.62L313.63 734.02"
fill="none" stroke="black" stroke-width="0.5"/>
<path d="M580.28 621.12L569.88 631.52"
fill="none" stroke="black" stroke-width="0.5"/>
<path d="M529.03 723.62L518.63 734.02"
fill="none" stroke="black" stroke-width="0.5"/>
<path d="M477.78 63.38L467.38 52.98"
fill="none" stroke="black" stroke-width="0.5"/>
<path d="M580.28 268.37L569.88 257.97"
fill="none" stroke="black" stroke-width="0.5"/>
<path d="M426.53 165.88L416.13 155.48"
fill="none" stroke="black" stroke-width="0.5"/>
<path d="M272.78 63.38L262.38 52.98"
fill="none" stroke="black" stroke-width="0.5"/>
<path d="M529.03 370.87L518.63 360.47"
fill="none" stroke="black" stroke-width="0.5"/>
<path d="M375.28 268.37L364.88 257.97"
fill="none" stroke="black" stroke-width="0.5"/>
<path d="M221.53 165.88L211.13 155.48"
fill="none" stroke="black" stroke-width="0.5"/>
<path d="M477.78 473.37L467.38 462.97"
fill="none" stroke="black" stroke-width="0.5"/>
<path d="M324.03 370.87L313.63 360.47"
fill="none" stroke="black" stroke-width="0.5"/>
<path d="M580.28 678.37L569.88 667.97"
fill="none" stroke="black" stroke-width="0.5"/>
<path d="M426.53 575.87L416.13 565.47"
fill="none" stroke="black" stroke-width="0.5"/>
<path d="M272.78 473.37L262.38 462.97"
fill="none" stroke="black" stroke-width="0.5"/>
<path d="M529.03 780.87L518.63 770.47"
fill="none" stroke="black" stroke-width="0.5"/>
<path d="M375.28 678.37L364.88 667.97"
fill="none" stroke="black" stroke-width="0.5"/>
<path d="M221.53 575.87L211.13 565.47"
fill="none" stroke="black" stroke-width="0.5"/>
<path d="M324.03 780.87L313.63 770.47"
fill="none" stroke="black" stroke-width="0.5"/>
<path d="M553.75 785.56L565.47 780.87"
fill="none" stroke="black" stroke-width="0.5"/>
<path d="M348.75 785.56L360.47 780.87"
fill="none" stroke="black" stroke-width="0.5"/>
<path d="M400 683.06L411.72 678.37"
fill="none" stroke="black" stroke-width="0.5"/>
<path d="M195 683.06L206.72 678.37"
fill="none" stroke="black" stroke-width="0.5"/>
<path d="M451.25 580.56L462.97 575.87"
fill="none" stroke="black" stroke-width="0.5"/>
<path d="M246.25 580.56L257.97 575.87"
fill="none" stroke="black" stroke-width="0.5"/>
<path d="M502.5 478.06L514.22 473.37"
fill="none" stroke="black" stroke-width="0.5"/>
<path d="M297.5 478.06L309.22 473.37"
fill="none" stroke="black" stroke-width="0.5"/>
<path d="M553.75 375.56L565.47 370.87"
fill="none" stroke="black" stroke-width="0.5"/>
<path d="M348.75 375.56L360.47 370.87"
fill="none" stroke="black" stroke-width="0.5"/>
<path d="M400 273.06L411.72 268.37"
fill="none" stroke="black" stroke-width="0.5"/>
<path d="M195 273.06L206.72 268.37"
fill="none" stroke="black" stroke-width="0.5"/>
<path d="M451.25 170.57L462.97 165.88"
fill="none" stroke="black" stroke-width="0.5"/>
<path d="M246.25 170.57L257.97 165.88"
fill="none" stroke="black" stroke-width="0.5"/>
<path d="M502.5 68.07L514.22 63.38"
fill="none" stroke="black" stroke-width="0.5"/>
<path d="M297.5 68.07L309.22 63.38"
fill="none" stroke="black" stroke-width="0.5"/>
<path d="M221.81 246.25L217.12 257.97"
fill="none" stroke="black" stroke-width="0.5"/>
<path d="M273.06 143.75L268.37 155.48"
fill="none" stroke="black" stroke-width="0.5"/>
<path d="M324.31 41.25L319.62 52.98"
fill="none" stroke="black" stroke-width="0.5"/>
<path d="M221.81 656.24L217.12 667.97"
fill="none" stroke="black" stroke-width="0.5"/>
<path d="M273.06 553.75L268.37 565.47"
fill="none" stroke="black" stroke-width="0.5"/>
<path d="M324.31 451.25L319.62 462.97"
fill="none" stroke="black" stroke-width="0.5"/>
<path d="M375.56 348.75L370.87 360.47"
fill="none" stroke="black" stroke-width="0.5"/>
<path d="M426.81 246.25L422.12 257.97"
fill="none" stroke="black" stroke-width="0.5"/>
<path d="M478.06 143.75L473.37 155.48"
fill="none" stroke="black" stroke-width="0.5"/>
<path d="M529.31 41.25L524.62 52.98"
fill="none" stroke="black" stroke-width="0.5"/>
<path d="M375.56 758.74L370.87 770.47"
fill="none" stroke="black" stroke-width="0.5"/>
<path d="M426.81 656.24L422.12 667.97"
fill="none" stroke="black" stroke-width="0.5"/>
<path d="M478.06 553.75L473.37 565.47"
fill="none" stroke="black" stroke-width="0.5"/>
<path d="M529.31 451.25L524.62 462.97"
fill="none" stroke="black" stroke-width="0.5"/>
<path d="M580.56 348.75L575.87 360.47"
fill="none" stroke="black" stroke-width="0.5"/>
<path d="M580.56 758.74L575.87 770.47"
fill="none" stroke="black" stroke-width="0.5"/>
<path d="M529.31 28.26L524.62 16.53"
fill="none" stroke="black" stroke-width="0.5"/>
<path d="M580.56 335.75L575.87 324.03"
fill="none" stroke="black" stroke-width="0.5"/>
<path d="M478.06 130.76L473.37 119.03"
fill="none" stroke="black" stroke-width="0.5"/>
<path d="M529.31 438.25L524.62 426.53"
fill="none" stroke="black" stroke-width="0.5"/>
<path d="M426.81 233.25L422.12 221.53"
fill="none" stroke="black" stroke-width="0.5"/>
<path d="M324.31 28.26L319.62 16.53"
fill="none" stroke="black" stroke-width="0.5"/>
<path d="M580.56 745.75L575.87 734.02"
fill="none" stroke="black" stroke-width="0.5"/>
<path d="M478.06 540.75L473.37 529.03"
fill="none" stroke="black" stroke-width="0.5"/>
<path d="M375.56 335.75L370.87 324.03"
fill="none" stroke="black" stroke-width="0.5"/>
<path d="M273.06 130.76L268.37 119.03"
fill="none" stroke="black" stroke-width="0.5"/>
<path d="M426.81 643.25L422.12 631.52"
fill="none" stroke="black" stroke-width="0.5"/>
<path d="M324.31 438.25L319.62 426.53"
fill="none" stroke="black" stroke-width="0.5"/>
<path d="M221.81 233.25L217.12 221.53"
fill="none" stroke="black" stroke-width="0.5"/>
<path d="M375.56 745.75L370.87 734.02"
fill="none" stroke="black" stroke-width="0.5"/>
<path d="M273.06 540.75L268.37 529.03"
fill="none" stroke="black" stroke-width="0.5"/>
<path d="M221.81 643.25L217.12 631.52"
fill="none" stroke="black" stroke-width="0.5"/>
<path d="M348.75 718.93L360.47 723.62"
fill="none" stroke="black" stroke-width="0.5"/>
<path d="M195 616.43L206.72 621.12"
fill="none" stroke="black" stroke-width="0.5"/>
<path d="M553.75 718.93L565.47 723.62"
fill="none" stroke="black" stroke-width="0.5"/>
<path d="M400 616.43L411.72 621.12"
fill="none" stroke="black" stroke-width="0.5"/>
<path d="M246.25 513.94L257.97 518.63"
fill="none" stroke="black" stroke-width="0.5"/>
<path d="M451.25 513.94L462.97 518.63"
fill="none" stroke="black" stroke-width="0.5"/>
<path d="M297.5 411.44L309.22 416.13"
fill="none" stroke="black" stroke-width="0.5"/>
<path d="M502.5 411.44L514.22 416.13"
fill="none" stroke="black" stroke-width="0.5"/>
<path d="M348.75 308.94L360.47 313.63"
fill="none" stroke="black" stroke-width="0.5"/>
<path d="M195 206.44L206.72 211.13"
fill="none" stroke="black" stroke-width="0.5"/>
<path d="M553.75 308.94L565.47 313.63"
fill="none" stroke="black" stroke-width="0.5"/>
<path d="M400 206.44L411.72 211.13"
fill="none" stroke="black" stroke-width="0.5"/>
<path d="M246.25 103.94L257.97 108.63"
fill="none" stroke="black" stroke-width="0.5"/>
<path d="M451.25 103.94L462.97 108.63"
fill="none" stroke="black" stroke-width="0.5"/>
<path d="M297.5 1.44L309.22 6.13"
fill="none" stroke="black" stroke-width="0.5"/>
<path d="M502.5 1.44L514.22 6.13"
fill="none" stroke="black" stroke-width="0.5"/>
<path d="M284.51 1.44L272.78 6.13"
fill="none" stroke="black" stroke-width="0.5"/>
<path d="M489.5 1.44L477.78 6.13"
fill="none" stroke="black" stroke-width="0.5"/>
<path d="M233.26 103.94L221.53 108.63"
fill="none" stroke="black" stroke-width="0.5"/>
<path d="M438.25 103.94L426.53 108.63"
fill="none" stroke="black" stroke-width="0.5"/>
<path d="M387 206.44L375.28 211.13"
fill="none" stroke="black" stroke-width="0.5"/>
<path d="M592 206.44L580.28 211.13"
fill="none" stroke="black" stroke-width="0.5"/>
<path d="M335.75 308.94L324.03 313.63"
fill="none" stroke="black" stroke-width="0.5"/>
<path d="M540.75 308.94L529.03 313.63"
fill="none" stroke="black" stroke-width="0.5"/>
<path d="M284.51 411.44L272.78 416.13"
fill="none" stroke="black" stroke-width="0.5"/>
<path d="M489.5 411.44L477.78 416.13"
fill="none" stroke="black" stroke-width="0.5"/>
<path d="M233.25 513.94L221.53 518.62"
fill="none" stroke="black" stroke-width="0.5"/>
<path d="M438.25 513.94L426.53 518.63"
fill="none" stroke="black" stroke-width="0.5"/>
<path d="M387 616.43L375.28 621.12"
fill="none" stroke="black" stroke-width="0.5"/>
<path d="M592 616.44L580.28 621.12"
fill="none" stroke="black" stroke-width="0.5"/>
<path d="M335.75 718.93L324.03 723.62"
fill="none" stroke="black" stroke-width="0.5"/>
<path d="M540.75 718.94L529.03 723.62"
fill="none" stroke="black" stroke-width="0.5"/>
<path d="M565.19 643.25L569.87 631.52"
fill="none" stroke="black" stroke-width="0.5"/>
<path d="M513.94 745.74L518.62 734.02"
fill="none" stroke="black" stroke-width="0.5"/>
<path d="M565.18 233.25L569.87 221.53"
fill="none" stroke="black" stroke-width="0.5"/>
<path d="M513.93 335.75L518.62 324.03"
fill="none" stroke="black" stroke-width="0.5"/>
<path d="M462.68 438.25L467.37 426.53"
fill="none" stroke="black" stroke-width="0.5"/>
<path d="M411.44 540.75L416.13 529.02"
fill="none" stroke="black" stroke-width="0.5"/>
<path d="M360.19 643.25L364.88 631.52"
fill="none" stroke="black" stroke-width="0.5"/>
<path d="M308.94 745.75L313.63 734.02"
fill="none" stroke="black" stroke-width="0.5"/>
<path d="M462.68 28.25L467.37 16.53"
fill="none" stroke="black" stroke-width="0.5"/>
<path d="M411.43 130.75L416.12 119.03"
fill="none" stroke="black" stroke-width="0.5"/>
<path d="M360.19 233.25L364.87 221.53"
fill="none" stroke="black" stroke-width="0.5"/>
<path d="M308.94 335.75L313.62 324.03"
fill="none" stroke="black" stroke-width="0.5"/>
<path d="M257.69 438.25L262.38 426.53"
fill="none" stroke="black" stroke-width="0.5"/>
<path d="M206.44 540.75L211.13 529.03"
fill="none" stroke="black" stroke-width="0.5"/>
<path d="M257.69 28.26L262.38 16.53"
fill="none" stroke="black" stroke-width="0.5"/>
<path d="M206.44 130.76L211.13 119.03"
fill="none" stroke="black" stroke-width="0.5"/>
<path d="M206.44 553.75L211.13 565.47"
fill="none" stroke="black" stroke-width="0.5"/>
<path d="M308.94 758.74L313.63 770.47"
fill="none" stroke="black" stroke-width="0.5"/>
<path d="M257.69 451.25L262.38 462.97"
fill="none" stroke="black" stroke-width="0.5"/>
<path d="M360.19 656.24L364.88 667.97"
fill="none" stroke="black" stroke-width="0.5"/>
<path d="M206.44 143.75L211.13 155.48"
fill="none" stroke="black" stroke-width="0.5"/>
<path d="M308.94 348.75L313.63 360.47"
fill="none" stroke="black" stroke-width="0.5"/>
<path d="M411.44 553.75L416.13 565.47"
fill="none" stroke="black" stroke-width="0.5"/>
<path d="M513.94 758.75L518.63 770.47"
fill="none" stroke="black" stroke-width="0.5"/>
<path d="M257.69 41.25L262.38 52.98"
fill="none" stroke="black" stroke-width="0.5"/>
<path d="M360.19 246.25L364.88 257.97"
fill="none" stroke="black" stroke-width="0.5"/>
<path d="M462.69 451.25L467.38 462.97"
fill="none" stroke="black" stroke-width="0.5"/>
<path d="M565.19 656.25L569.88 667.97"
fill="none" stroke="black" stroke-width="0.5"/>
<path d="M411.44 143.75L416.13 155.48"
fill="none" stroke="black" stroke-width="0.5"/>
<path d="M513.94 348.75L518.63 360.47"
fill="none" stroke="black" stroke-width="0.5"/>
<path d="M462.69 41.26L467.38 52.98"
fill="none" stroke="black" stroke-width="0.5"/>
<path d="M565.19 246.25L569.88 257.98"
fill="none" stroke="black" stroke-width="0.5"/>
<path d="M489.5 68.07L477.77 63.38"
fill="none" stroke="black" stroke-width="0.5"/>
<path d="M284.5 68.07L272.78 63.38"
fill="none" stroke="black" stroke-width="0.5"/>
<path d="M438.25 170.57L426.52 165.88"
fill="none" stroke="black" stroke-width="0.5"/>
<path d="M591.99 273.06L580.27 268.37"
fill="none" stroke="black" stroke-width="0.5"/>
<path d="M233.25 170.57L221.53 165.88"
fill="none" stroke="black" stroke-width="0.5"/>
<path d="M387 273.06L375.27 268.37"
fill="none" stroke="black" stroke-width="0.5"/>
<path d="M540.75 375.56L529.02 370.87"
fill="none" stroke="black" stroke-width="0.5"/>
<path d="M335.75 375.56L324.03 370.87"
fill="none" stroke="black" stroke-width="0.5"/>
<path d="M489.5 478.06L477.77 473.37"
fill="none" stroke="black" stroke-width="0.5"/>
<path d="M284.5 478.06L272.78 473.37"
fill="none" stroke="black" stroke-width="0.5"/>
<path d="M438.25 580.56L426.53 575.87"
fill="none" stroke="black" stroke-width="0.5"/>
<path d="M592 683.06L580.27 678.37"
fill="none" stroke="black" stroke-width="0.5"/>
<path d="M233.25 580.56L221.53 575.87"
fill="none" stroke="black" stroke-width="0.5"/>
<path d="M387 683.06L375.28 678.37"
fill="none" stroke="black" stroke-width="0.5"/>
<path d="M540.75 785.56L529.03 780.87"
fill="none" stroke="black" stroke-width="0.5"/>
<path d="M335.75 785.56L324.03 780.87"
fill="none" stroke="black" stroke-width="0.5"/>
</svg>
