<?xml version="1.0" encoding="UTF-8"?>
<svg xmlns="http://www.w3.org/2000/svg" width="99.949mm" height="99.949mm" viewBox="0.0 0.0 787.000 787.000" preserveAspectRatio="none" version="1.1">
  <title>Produce by Acme CAD Converter</title>
  <desc>Produce by Acme CAD Converter</desc>
<path d="M197.47 638.54L393.5 638.54"
fill="none" stroke="black" stroke-width="0.5"/>
<path d="M589.53 638.54L785.56 638.54"
fill="none" stroke="black" stroke-width="0.5"/>
<path d="M1.44 442.51L197.47 442.51"
fill="none" stroke="black" stroke-width="0.5"/>
<path d="M393.5 442.51L589.53 442.51"
fill="none" stroke="black" stroke-width="0.5"/>
<path d="M197.47 246.48L393.5 246.48"
fill="none" stroke="black" stroke-width="0.5"/>
<path d="M589.53 246.48L785.56 246.48"
fill="none" stroke="black" stroke-width="0.5"/>
<path d="M1.44 50.45L197.47 50.45"
fill="none" stroke="black" stroke-width="0.5"/>
<path d="M393.5 50.45L589.53 50.45"
fill="none" stroke="black" stroke-width="0.5"/>
<path d="M1.44 442.51L99.46 540.52"
fill="none" stroke="black" stroke-width="0.5"/>
<path d="M197.47 638.54L295.49 736.55"
fill="none" stroke="black" stroke-width="0.5"/>
<path d="M1.44 50.45L99.46 148.46"
fill="none" stroke="black" stroke-width="0.5"/>
<path d="M197.47 246.48L295.49 344.49"
fill="none" stroke="black" stroke-width="0.5"/>
<path d="M393.5 442.51L491.51 540.52"
fill="none" stroke="black" stroke-width="0.5"/>
<path d="M589.53 638.54L687.54 736.55"
fill="none" stroke="black" stroke-width="0.5"/>
<path d="M393.5 50.45L491.51 148.46"
fill="none" stroke="black" stroke-width="0.5"/>
<path d="M589.53 246.48L687.54 344.49"
fill="none" stroke="black" stroke-width="0.5"/>
<path d="M687.54 736.55L785.56 638.54"
fill="none" stroke="black" stroke-width="0.5"/>
<path d="M295.49 736.55L393.5 638.54"
fill="none" stroke="black" stroke-width="0.5"/>
<path d="M491.51 540.52L589.53 442.51"
fill="none" stroke="black" stroke-width="0.5"/>
<path d="M687.54 344.49L785.56 246.48"
fill="none" stroke="black" stroke-width="0.5"/>
<path d="M99.46 540.52L197.47 442.51"
fill="none" stroke="black" stroke-width="0.5"/>
<path d="M295.49 344.49L393.5 246.48"
fill="none" stroke="black" stroke-width="0.5"/>
<path d="M491.51 148.46L589.53 50.45"
fill="none" stroke="black" stroke-width="0.5"/>
<path d="M99.46 148.46L197.47 50.45"
fill="none" stroke="black" stroke-width="0.5"/>
</svg>
