<?xml version="1.0" encoding="UTF-8"?>
<svg xmlns="http://www.w3.org/2000/svg" width="99.949mm" height="99.949mm" viewBox="0.0 0.0 787.000 787.000" preserveAspectRatio="none" version="1.1">
  <title>Produce by Acme CAD Converter</title>
  <desc>Produce by Acme CAD Converter</desc>
<path d="M62.7 687.54L136.21 687.54"
fill="none" stroke="black" stroke-width="0.5"/>
<path d="M258.73 687.54L332.24 687.54"
fill="none" stroke="black" stroke-width="0.5"/>
<path d="M454.76 687.54L528.27 687.54"
fill="none" stroke="black" stroke-width="0.5"/>
<path d="M650.79 687.54L724.3 687.54"
fill="none" stroke="black" stroke-width="0.5"/>
<path d="M62.7 491.51L136.21 491.51"
fill="none" stroke="black" stroke-width="0.5"/>
<path d="M258.73 491.51L332.24 491.51"
fill="none" stroke="black" stroke-width="0.5"/>
<path d="M454.76 491.51L528.27 491.51"
fill="none" stroke="black" stroke-width="0.5"/>
<path d="M650.79 491.51L724.3 491.51"
fill="none" stroke="black" stroke-width="0.5"/>
<path d="M62.7 295.49L136.21 295.49"
fill="none" stroke="black" stroke-width="0.5"/>
<path d="M258.73 295.49L332.24 295.49"
fill="none" stroke="black" stroke-width="0.5"/>
<path d="M454.76 295.49L528.27 295.49"
fill="none" stroke="black" stroke-width="0.5"/>
<path d="M650.79 295.49L724.3 295.49"
fill="none" stroke="black" stroke-width="0.5"/>
<path d="M62.7 99.46L136.21 99.46"
fill="none" stroke="black" stroke-width="0.5"/>
<path d="M258.73 99.46L332.24 99.46"
fill="none" stroke="black" stroke-width="0.5"/>
<path d="M454.76 99.46L528.27 99.46"
fill="none" stroke="black" stroke-width="0.5"/>
<path d="M650.79 99.46L724.3 99.46"
fill="none" stroke="black" stroke-width="0.5"/>
<path d="M687.54 785.56L687.54 687.54"
fill="none" stroke="black" stroke-width="0.5"/>
<path d="M687.54 491.51L687.54 295.49"
fill="none" stroke="black" stroke-width="0.5"/>
<path d="M687.54 99.46L687.54 1.44"
fill="none" stroke="black" stroke-width="0.5"/>
<path d="M491.51 687.54L491.51 491.51"
fill="none" stroke="black" stroke-width="0.5"/>
<path d="M491.51 295.49L491.51 99.46"
fill="none" stroke="black" stroke-width="0.5"/>
<path d="M295.49 785.56L295.49 687.54"
fill="none" stroke="black" stroke-width="0.5"/>
<path d="M295.49 491.51L295.49 295.49"
fill="none" stroke="black" stroke-width="0.5"/>
<path d="M295.49 99.46L295.49 1.44"
fill="none" stroke="black" stroke-width="0.5"/>
<path d="M99.46 687.54L99.46 491.51"
fill="none" stroke="black" stroke-width="0.5"/>
<path d="M99.46 295.49L99.46 99.46"
fill="none" stroke="black" stroke-width="0.5"/>
</svg>
