<?xml version="1.0" encoding="UTF-8"?>
<svg xmlns="http://www.w3.org/2000/svg" width="99.949mm" height="99.949mm" viewBox="0.0 0.0 787.000 787.000" preserveAspectRatio="none" version="1.1">
  <title>Produce by Acme CAD Converter</title>
  <desc>Produce by Acme CAD Converter</desc>
<path d="M1.44 687.54L99.46 687.54"
fill="none" stroke="black" stroke-width="0.5"/>
<path d="M295.49 687.54L491.51 687.54"
fill="none" stroke="black" stroke-width="0.5"/>
<path d="M687.54 687.54L785.56 687.54"
fill="none" stroke="black" stroke-width="0.5"/>
<path d="M1.44 491.51L99.46 491.51"
fill="none" stroke="black" stroke-width="0.5"/>
<path d="M295.49 491.51L491.51 491.51"
fill="none" stroke="black" stroke-width="0.5"/>
<path d="M687.54 491.51L785.56 491.51"
fill="none" stroke="black" stroke-width="0.5"/>
<path d="M1.44 295.49L99.46 295.49"
fill="none" stroke="black" stroke-width="0.5"/>
<path d="M295.49 295.49L491.51 295.49"
fill="none" stroke="black" stroke-width="0.5"/>
<path d="M687.54 295.49L785.56 295.49"
fill="none" stroke="black" stroke-width="0.5"/>
<path d="M1.44 99.46L99.46 99.46"
fill="none" stroke="black" stroke-width="0.5"/>
<path d="M295.49 99.46L491.51 99.46"
fill="none" stroke="black" stroke-width="0.5"/>
<path d="M687.54 99.46L785.56 99.46"
fill="none" stroke="black" stroke-width="0.5"/>
<path d="M182.25 648.34L212.69 648.34"
fill="none" stroke="black" stroke-width="0.5"/>
<path d="M574.31 648.34L604.75 648.34"
fill="none" stroke="black" stroke-width="0.5"/>
<path d="M182.25 256.28L212.69 256.28"
fill="none" stroke="black" stroke-width="0.5"/>
<path d="M574.31 256.28L604.75 256.28"
fill="none" stroke="black" stroke-width="0.5"/>
<path d="M182.25 530.72L212.69 530.72"
fill="none" stroke="black" stroke-width="0.5"/>
<path d="M574.31 530.72L604.75 530.72"
fill="none" stroke="black" stroke-width="0.5"/>
<path d="M182.25 138.66L212.69 138.66"
fill="none" stroke="black" stroke-width="0.5"/>
<path d="M574.31 138.66L604.75 138.66"
fill="none" stroke="black" stroke-width="0.5"/>
<path d="M530.72 604.75L530.72 574.31"
fill="none" stroke="black" stroke-width="0.5"/>
<path d="M530.72 212.69L530.72 182.25"
fill="none" stroke="black" stroke-width="0.5"/>
<path d="M138.66 604.75L138.66 574.31"
fill="none" stroke="black" stroke-width="0.5"/>
<path d="M138.66 212.69L138.66 182.25"
fill="none" stroke="black" stroke-width="0.5"/>
<path d="M648.34 604.75L648.34 574.31"
fill="none" stroke="black" stroke-width="0.5"/>
<path d="M648.34 212.69L648.34 182.25"
fill="none" stroke="black" stroke-width="0.5"/>
<path d="M256.28 604.75L256.28 574.31"
fill="none" stroke="black" stroke-width="0.5"/>
<path d="M256.28 212.69L256.28 182.25"
fill="none" stroke="black" stroke-width="0.5"/>
<path d="M604.75 648.34L632.49 632.49"
fill="none" stroke="black" stroke-width="0.5"/>
<path d="M212.69 648.34L240.43 632.49"
fill="none" stroke="black" stroke-width="0.5"/>
<path d="M604.75 256.28L632.49 240.43"
fill="none" stroke="black" stroke-width="0.5"/>
<path d="M212.69 256.28L240.43 240.43"
fill="none" stroke="black" stroke-width="0.5"/>
<path d="M256.28 212.69L240.43 240.43"
fill="none" stroke="black" stroke-width="0.5"/>
<path d="M256.28 604.75L240.43 632.49"
fill="none" stroke="black" stroke-width="0.5"/>
<path d="M648.34 212.69L632.49 240.43"
fill="none" stroke="black" stroke-width="0.5"/>
<path d="M648.34 604.75L632.49 632.49"
fill="none" stroke="black" stroke-width="0.5"/>
<path d="M648.34 182.25L632.49 154.51"
fill="none" stroke="black" stroke-width="0.5"/>
<path d="M648.34 574.31L632.49 546.57"
fill="none" stroke="black" stroke-width="0.5"/>
<path d="M256.28 182.25L240.43 154.51"
fill="none" stroke="black" stroke-width="0.5"/>
<path d="M256.28 574.31L240.43 546.57"
fill="none" stroke="black" stroke-width="0.5"/>
<path d="M212.69 530.72L240.43 546.57"
fill="none" stroke="black" stroke-width="0.5"/>
<path d="M604.75 530.72L632.49 546.57"
fill="none" stroke="black" stroke-width="0.5"/>
<path d="M212.69 138.66L240.43 154.51"
fill="none" stroke="black" stroke-width="0.5"/>
<path d="M604.75 138.66L632.49 154.51"
fill="none" stroke="black" stroke-width="0.5"/>
<path d="M182.25 138.66L154.51 154.51"
fill="none" stroke="black" stroke-width="0.5"/>
<path d="M574.31 138.66L546.57 154.51"
fill="none" stroke="black" stroke-width="0.5"/>
<path d="M182.25 530.72L154.51 546.57"
fill="none" stroke="black" stroke-width="0.5"/>
<path d="M574.31 530.72L546.57 546.57"
fill="none" stroke="black" stroke-width="0.5"/>
<path d="M530.72 574.31L546.57 546.57"
fill="none" stroke="black" stroke-width="0.5"/>
<path d="M530.72 182.25L546.57 154.51"
fill="none" stroke="black" stroke-width="0.5"/>
<path d="M138.66 574.31L154.51 546.57"
fill="none" stroke="black" stroke-width="0.5"/>
<path d="M138.66 182.25L154.51 154.51"
fill="none" stroke="black" stroke-width="0.5"/>
<path d="M138.66 604.75L154.51 632.49"
fill="none" stroke="black" stroke-width="0.5"/>
<path d="M138.66 212.69L154.51 240.43"
fill="none" stroke="black" stroke-width="0.5"/>
<path d="M530.72 604.75L546.57 632.49"
fill="none" stroke="black" stroke-width="0.5"/>
<path d="M530.72 212.69L546.57 240.43"
fill="none" stroke="black" stroke-width="0.5"/>
<path d="M574.31 256.28L546.57 240.43"
fill="none" stroke="black" stroke-width="0.5"/>
<path d="M182.25 256.28L154.51 240.43"
fill="none" stroke="black" stroke-width="0.5"/>
<path d="M574.31 648.34L546.57 632.49"
fill="none" stroke="black" stroke-width="0.5"/>
<path d="M182.25 648.34L154.51 632.49"
fill="none" stroke="black" stroke-width="0.5"/>
</svg>
