<?xml version="1.0" encoding="UTF-8"?>
<svg xmlns="http://www.w3.org/2000/svg" width="99.949mm" height="99.949mm" viewBox="0.0 0.0 787.000 787.000" preserveAspectRatio="none" version="1.1">
  <title>Produce by Acme CAD Converter</title>
  <desc>Produce by Acme CAD Converter</desc>
<path d="M1.44 540.52L50.45 540.52"
fill="none" stroke="black" stroke-width="0.5"/>
<path d="M148.46 540.52L246.48 540.52"
fill="none" stroke="black" stroke-width="0.5"/>
<path d="M344.49 540.52L442.51 540.52"
fill="none" stroke="black" stroke-width="0.5"/>
<path d="M540.52 540.52L638.54 540.52"
fill="none" stroke="black" stroke-width="0.5"/>
<path d="M736.55 540.52L785.56 540.52"
fill="none" stroke="black" stroke-width="0.5"/>
<path d="M1.44 442.51L50.45 442.51"
fill="none" stroke="black" stroke-width="0.5"/>
<path d="M148.46 442.51L246.48 442.51"
fill="none" stroke="black" stroke-width="0.5"/>
<path d="M344.49 442.51L442.51 442.51"
fill="none" stroke="black" stroke-width="0.5"/>
<path d="M540.52 442.51L638.54 442.51"
fill="none" stroke="black" stroke-width="0.5"/>
<path d="M736.55 442.51L785.56 442.51"
fill="none" stroke="black" stroke-width="0.5"/>
<path d="M1.44 344.49L50.45 344.49"
fill="none" stroke="black" stroke-width="0.5"/>
<path d="M148.46 344.49L246.48 344.49"
fill="none" stroke="black" stroke-width="0.5"/>
<path d="M344.49 344.49L442.51 344.49"
fill="none" stroke="black" stroke-width="0.5"/>
<path d="M540.52 344.49L638.54 344.49"
fill="none" stroke="black" stroke-width="0.5"/>
<path d="M736.55 344.49L785.56 344.49"
fill="none" stroke="black" stroke-width="0.5"/>
<path d="M1.44 246.48L50.45 246.48"
fill="none" stroke="black" stroke-width="0.5"/>
<path d="M148.46 246.48L246.48 246.48"
fill="none" stroke="black" stroke-width="0.5"/>
<path d="M344.49 246.48L442.51 246.48"
fill="none" stroke="black" stroke-width="0.5"/>
<path d="M540.52 246.48L638.54 246.48"
fill="none" stroke="black" stroke-width="0.5"/>
<path d="M736.55 246.48L785.56 246.48"
fill="none" stroke="black" stroke-width="0.5"/>
<path d="M261.18 491.51L329.79 491.51"
fill="none" stroke="black" stroke-width="0.5"/>
<path d="M653.24 491.51L721.85 491.51"
fill="none" stroke="black" stroke-width="0.5"/>
<path d="M261.18 295.49L329.79 295.49"
fill="none" stroke="black" stroke-width="0.5"/>
<path d="M653.24 295.49L721.85 295.49"
fill="none" stroke="black" stroke-width="0.5"/>
<path d="M96.52 494.45L102.4 494.45"
fill="none" stroke="black" stroke-width="0.5"/>
<path d="M488.57 494.45L494.45 494.45"
fill="none" stroke="black" stroke-width="0.5"/>
<path d="M96.52 298.43L102.4 298.43"
fill="none" stroke="black" stroke-width="0.5"/>
<path d="M488.57 298.43L494.45 298.43"
fill="none" stroke="black" stroke-width="0.5"/>
<path d="M96.52 488.57L102.4 488.57"
fill="none" stroke="black" stroke-width="0.5"/>
<path d="M488.57 488.57L494.45 488.57"
fill="none" stroke="black" stroke-width="0.5"/>
<path d="M96.52 292.55L102.4 292.55"
fill="none" stroke="black" stroke-width="0.5"/>
<path d="M488.57 292.55L494.45 292.55"
fill="none" stroke="black" stroke-width="0.5"/>
<path d="M488.57 494.45L488.57 488.57"
fill="none" stroke="black" stroke-width="0.5"/>
<path d="M488.57 298.43L488.57 292.55"
fill="none" stroke="black" stroke-width="0.5"/>
<path d="M96.52 494.45L96.52 488.57"
fill="none" stroke="black" stroke-width="0.5"/>
<path d="M96.52 298.43L96.52 292.55"
fill="none" stroke="black" stroke-width="0.5"/>
<path d="M494.45 494.45L494.45 488.57"
fill="none" stroke="black" stroke-width="0.5"/>
<path d="M494.45 298.43L494.45 292.55"
fill="none" stroke="black" stroke-width="0.5"/>
<path d="M102.4 494.45L102.4 488.57"
fill="none" stroke="black" stroke-width="0.5"/>
<path d="M102.4 298.43L102.4 292.55"
fill="none" stroke="black" stroke-width="0.5"/>
</svg>
