<?xml version="1.0" encoding="UTF-8"?>
<svg xmlns="http://www.w3.org/2000/svg" width="99.949mm" height="99.949mm" viewBox="0.0 0.0 787.000 787.000" preserveAspectRatio="none" version="1.1">
  <title>Produce by Acme CAD Converter</title>
  <desc>Produce by Acme CAD Converter</desc>
<path d="M630.02 771.67L642.96 756.25"
fill="none" stroke="black" stroke-width="0.5"/>
<path d="M533.71 763.25L546.66 747.82"
fill="none" stroke="black" stroke-width="0.5"/>
<path d="M611.39 670.68L624.33 655.25"
fill="none" stroke="black" stroke-width="0.5"/>
<path d="M437.4 754.82L450.35 739.39"
fill="none" stroke="black" stroke-width="0.5"/>
<path d="M515.08 662.25L528.03 646.82"
fill="none" stroke="black" stroke-width="0.5"/>
<path d="M592.76 569.68L605.7 554.25"
fill="none" stroke="black" stroke-width="0.5"/>
<path d="M670.43 477.11L683.38 461.68"
fill="none" stroke="black" stroke-width="0.5"/>
<path d="M341.1 746.4L354.04 730.97"
fill="none" stroke="black" stroke-width="0.5"/>
<path d="M418.77 653.83L431.72 638.4"
fill="none" stroke="black" stroke-width="0.5"/>
<path d="M496.45 561.25L509.4 545.83"
fill="none" stroke="black" stroke-width="0.5"/>
<path d="M574.13 468.68L587.07 453.25"
fill="none" stroke="black" stroke-width="0.5"/>
<path d="M651.8 376.11L664.75 360.68"
fill="none" stroke="black" stroke-width="0.5"/>
<path d="M244.79 737.97L257.73 722.54"
fill="none" stroke="black" stroke-width="0.5"/>
<path d="M322.47 645.4L335.41 629.97"
fill="none" stroke="black" stroke-width="0.5"/>
<path d="M400.14 552.83L413.09 537.4"
fill="none" stroke="black" stroke-width="0.5"/>
<path d="M477.82 460.26L490.77 444.83"
fill="none" stroke="black" stroke-width="0.5"/>
<path d="M555.5 367.69L568.44 352.26"
fill="none" stroke="black" stroke-width="0.5"/>
<path d="M633.17 275.11L646.12 259.69"
fill="none" stroke="black" stroke-width="0.5"/>
<path d="M148.48 729.55L161.43 714.12"
fill="none" stroke="black" stroke-width="0.5"/>
<path d="M226.16 636.97L239.1 621.55"
fill="none" stroke="black" stroke-width="0.5"/>
<path d="M303.84 544.4L316.78 528.97"
fill="none" stroke="black" stroke-width="0.5"/>
<path d="M381.51 451.83L394.46 436.4"
fill="none" stroke="black" stroke-width="0.5"/>
<path d="M459.19 359.26L472.14 343.83"
fill="none" stroke="black" stroke-width="0.5"/>
<path d="M536.87 266.69L549.81 251.26"
fill="none" stroke="black" stroke-width="0.5"/>
<path d="M614.54 174.12L627.49 158.69"
fill="none" stroke="black" stroke-width="0.5"/>
<path d="M129.85 628.55L142.8 613.12"
fill="none" stroke="black" stroke-width="0.5"/>
<path d="M207.53 535.98L220.47 520.55"
fill="none" stroke="black" stroke-width="0.5"/>
<path d="M285.21 443.41L298.15 427.98"
fill="none" stroke="black" stroke-width="0.5"/>
<path d="M362.88 350.83L375.83 335.41"
fill="none" stroke="black" stroke-width="0.5"/>
<path d="M440.56 258.26L453.51 242.83"
fill="none" stroke="black" stroke-width="0.5"/>
<path d="M518.24 165.69L531.18 150.26"
fill="none" stroke="black" stroke-width="0.5"/>
<path d="M595.91 73.12L608.86 57.69"
fill="none" stroke="black" stroke-width="0.5"/>
<path d="M111.22 527.55L124.17 512.12"
fill="none" stroke="black" stroke-width="0.5"/>
<path d="M188.9 434.98L201.84 419.55"
fill="none" stroke="black" stroke-width="0.5"/>
<path d="M266.58 342.41L279.52 326.98"
fill="none" stroke="black" stroke-width="0.5"/>
<path d="M344.25 249.84L357.2 234.41"
fill="none" stroke="black" stroke-width="0.5"/>
<path d="M421.93 157.27L434.88 141.84"
fill="none" stroke="black" stroke-width="0.5"/>
<path d="M499.61 64.69L512.55 49.26"
fill="none" stroke="black" stroke-width="0.5"/>
<path d="M92.59 426.55L105.54 411.13"
fill="none" stroke="black" stroke-width="0.5"/>
<path d="M170.27 333.98L183.21 318.55"
fill="none" stroke="black" stroke-width="0.5"/>
<path d="M247.95 241.41L260.89 225.98"
fill="none" stroke="black" stroke-width="0.5"/>
<path d="M325.62 148.84L338.57 133.41"
fill="none" stroke="black" stroke-width="0.5"/>
<path d="M403.3 56.27L416.24 40.84"
fill="none" stroke="black" stroke-width="0.5"/>
<path d="M151.64 232.98L164.58 217.56"
fill="none" stroke="black" stroke-width="0.5"/>
<path d="M229.32 140.41L242.26 124.98"
fill="none" stroke="black" stroke-width="0.5"/>
<path d="M306.99 47.84L319.94 32.41"
fill="none" stroke="black" stroke-width="0.5"/>
<path d="M133.01 131.99L145.95 116.56"
fill="none" stroke="black" stroke-width="0.5"/>
<path d="M210.68 39.42L223.63 23.99"
fill="none" stroke="black" stroke-width="0.5"/>
<path d="M114.38 30.99L127.32 15.56"
fill="none" stroke="black" stroke-width="0.5"/>
<path d="M148.48 729.55L164.53 730.95"
fill="none" stroke="black" stroke-width="0.5"/>
<path d="M244.79 737.97L260.84 739.38"
fill="none" stroke="black" stroke-width="0.5"/>
<path d="M341.1 746.4L357.15 747.8"
fill="none" stroke="black" stroke-width="0.5"/>
<path d="M437.4 754.82L453.45 756.23"
fill="none" stroke="black" stroke-width="0.5"/>
<path d="M533.71 763.25L549.76 764.65"
fill="none" stroke="black" stroke-width="0.5"/>
<path d="M630.02 771.67L646.07 773.08"
fill="none" stroke="black" stroke-width="0.5"/>
<path d="M129.85 628.55L145.9 629.95"
fill="none" stroke="black" stroke-width="0.5"/>
<path d="M226.16 636.97L242.21 638.38"
fill="none" stroke="black" stroke-width="0.5"/>
<path d="M322.47 645.4L338.52 646.8"
fill="none" stroke="black" stroke-width="0.5"/>
<path d="M418.77 653.83L434.82 655.23"
fill="none" stroke="black" stroke-width="0.5"/>
<path d="M515.08 662.25L531.13 663.66"
fill="none" stroke="black" stroke-width="0.5"/>
<path d="M611.39 670.68L627.44 672.08"
fill="none" stroke="black" stroke-width="0.5"/>
<path d="M111.22 527.55L127.27 528.96"
fill="none" stroke="black" stroke-width="0.5"/>
<path d="M207.53 535.98L223.58 537.38"
fill="none" stroke="black" stroke-width="0.5"/>
<path d="M303.84 544.4L319.89 545.81"
fill="none" stroke="black" stroke-width="0.5"/>
<path d="M400.14 552.83L416.19 554.23"
fill="none" stroke="black" stroke-width="0.5"/>
<path d="M496.45 561.25L512.5 562.66"
fill="none" stroke="black" stroke-width="0.5"/>
<path d="M592.76 569.68L608.81 571.09"
fill="none" stroke="black" stroke-width="0.5"/>
<path d="M92.59 426.55L108.64 427.96"
fill="none" stroke="black" stroke-width="0.5"/>
<path d="M188.9 434.98L204.95 436.38"
fill="none" stroke="black" stroke-width="0.5"/>
<path d="M285.21 443.41L301.26 444.81"
fill="none" stroke="black" stroke-width="0.5"/>
<path d="M381.51 451.83L397.56 453.24"
fill="none" stroke="black" stroke-width="0.5"/>
<path d="M477.82 460.26L493.87 461.66"
fill="none" stroke="black" stroke-width="0.5"/>
<path d="M574.13 468.68L590.18 470.09"
fill="none" stroke="black" stroke-width="0.5"/>
<path d="M670.43 477.11L686.49 478.51"
fill="none" stroke="black" stroke-width="0.5"/>
<path d="M170.27 333.98L186.32 335.39"
fill="none" stroke="black" stroke-width="0.5"/>
<path d="M266.58 342.41L282.63 343.81"
fill="none" stroke="black" stroke-width="0.5"/>
<path d="M362.88 350.83L378.93 352.24"
fill="none" stroke="black" stroke-width="0.5"/>
<path d="M459.19 359.26L475.24 360.66"
fill="none" stroke="black" stroke-width="0.5"/>
<path d="M555.5 367.69L571.55 369.09"
fill="none" stroke="black" stroke-width="0.5"/>
<path d="M651.8 376.11L667.85 377.52"
fill="none" stroke="black" stroke-width="0.5"/>
<path d="M151.64 232.98L167.69 234.39"
fill="none" stroke="black" stroke-width="0.5"/>
<path d="M247.95 241.41L264 242.81"
fill="none" stroke="black" stroke-width="0.5"/>
<path d="M344.25 249.84L360.3 251.24"
fill="none" stroke="black" stroke-width="0.5"/>
<path d="M440.56 258.26L456.61 259.67"
fill="none" stroke="black" stroke-width="0.5"/>
<path d="M536.87 266.69L552.92 268.09"
fill="none" stroke="black" stroke-width="0.5"/>
<path d="M633.17 275.11L649.22 276.52"
fill="none" stroke="black" stroke-width="0.5"/>
<path d="M133.01 131.99L149.06 133.39"
fill="none" stroke="black" stroke-width="0.5"/>
<path d="M229.32 140.41L245.37 141.82"
fill="none" stroke="black" stroke-width="0.5"/>
<path d="M325.62 148.84L341.67 150.24"
fill="none" stroke="black" stroke-width="0.5"/>
<path d="M421.93 157.27L437.98 158.67"
fill="none" stroke="black" stroke-width="0.5"/>
<path d="M518.24 165.69L534.29 167.1"
fill="none" stroke="black" stroke-width="0.5"/>
<path d="M614.54 174.12L630.59 175.52"
fill="none" stroke="black" stroke-width="0.5"/>
<path d="M114.38 30.99L130.43 32.39"
fill="none" stroke="black" stroke-width="0.5"/>
<path d="M210.68 39.42L226.74 40.82"
fill="none" stroke="black" stroke-width="0.5"/>
<path d="M306.99 47.84L323.04 49.25"
fill="none" stroke="black" stroke-width="0.5"/>
<path d="M403.3 56.27L419.35 57.67"
fill="none" stroke="black" stroke-width="0.5"/>
<path d="M499.61 64.69L515.66 66.1"
fill="none" stroke="black" stroke-width="0.5"/>
<path d="M595.91 73.12L611.96 74.52"
fill="none" stroke="black" stroke-width="0.5"/>
<path d="M686.49 478.51L683.38 461.68"
fill="none" stroke="black" stroke-width="0.5"/>
<path d="M667.86 377.52L664.75 360.68"
fill="none" stroke="black" stroke-width="0.5"/>
<path d="M649.23 276.52L646.12 259.69"
fill="none" stroke="black" stroke-width="0.5"/>
<path d="M630.6 175.52L627.49 158.69"
fill="none" stroke="black" stroke-width="0.5"/>
<path d="M611.97 74.52L608.86 57.69"
fill="none" stroke="black" stroke-width="0.5"/>
<path d="M646.07 773.08L642.96 756.25"
fill="none" stroke="black" stroke-width="0.5"/>
<path d="M627.44 672.08L624.33 655.25"
fill="none" stroke="black" stroke-width="0.5"/>
<path d="M608.81 571.09L605.7 554.25"
fill="none" stroke="black" stroke-width="0.5"/>
<path d="M590.18 470.09L587.07 453.25"
fill="none" stroke="black" stroke-width="0.5"/>
<path d="M571.55 369.09L568.44 352.26"
fill="none" stroke="black" stroke-width="0.5"/>
<path d="M552.92 268.09L549.81 251.26"
fill="none" stroke="black" stroke-width="0.5"/>
<path d="M534.29 167.1L531.18 150.26"
fill="none" stroke="black" stroke-width="0.5"/>
<path d="M515.66 66.1L512.55 49.26"
fill="none" stroke="black" stroke-width="0.5"/>
<path d="M549.76 764.65L546.66 747.82"
fill="none" stroke="black" stroke-width="0.5"/>
<path d="M531.13 663.66L528.03 646.82"
fill="none" stroke="black" stroke-width="0.5"/>
<path d="M512.5 562.66L509.4 545.83"
fill="none" stroke="black" stroke-width="0.5"/>
<path d="M493.87 461.66L490.77 444.83"
fill="none" stroke="black" stroke-width="0.5"/>
<path d="M475.24 360.66L472.14 343.83"
fill="none" stroke="black" stroke-width="0.5"/>
<path d="M456.61 259.67L453.51 242.83"
fill="none" stroke="black" stroke-width="0.5"/>
<path d="M437.98 158.67L434.88 141.84"
fill="none" stroke="black" stroke-width="0.5"/>
<path d="M419.35 57.67L416.25 40.84"
fill="none" stroke="black" stroke-width="0.5"/>
<path d="M453.45 756.23L450.35 739.39"
fill="none" stroke="black" stroke-width="0.5"/>
<path d="M434.82 655.23L431.72 638.4"
fill="none" stroke="black" stroke-width="0.5"/>
<path d="M416.19 554.23L413.09 537.4"
fill="none" stroke="black" stroke-width="0.5"/>
<path d="M397.56 453.24L394.46 436.4"
fill="none" stroke="black" stroke-width="0.5"/>
<path d="M378.93 352.24L375.83 335.41"
fill="none" stroke="black" stroke-width="0.5"/>
<path d="M360.3 251.24L357.2 234.41"
fill="none" stroke="black" stroke-width="0.5"/>
<path d="M341.67 150.24L338.57 133.41"
fill="none" stroke="black" stroke-width="0.5"/>
<path d="M323.04 49.25L319.94 32.41"
fill="none" stroke="black" stroke-width="0.5"/>
<path d="M357.15 747.8L354.04 730.97"
fill="none" stroke="black" stroke-width="0.5"/>
<path d="M338.52 646.8L335.41 629.97"
fill="none" stroke="black" stroke-width="0.5"/>
<path d="M319.89 545.81L316.78 528.98"
fill="none" stroke="black" stroke-width="0.5"/>
<path d="M301.26 444.81L298.15 427.98"
fill="none" stroke="black" stroke-width="0.5"/>
<path d="M282.63 343.81L279.52 326.98"
fill="none" stroke="black" stroke-width="0.5"/>
<path d="M264 242.81L260.89 225.98"
fill="none" stroke="black" stroke-width="0.5"/>
<path d="M245.37 141.82L242.26 124.99"
fill="none" stroke="black" stroke-width="0.5"/>
<path d="M226.74 40.82L223.63 23.99"
fill="none" stroke="black" stroke-width="0.5"/>
<path d="M260.84 739.38L257.74 722.54"
fill="none" stroke="black" stroke-width="0.5"/>
<path d="M242.21 638.38L239.11 621.55"
fill="none" stroke="black" stroke-width="0.5"/>
<path d="M223.58 537.38L220.47 520.55"
fill="none" stroke="black" stroke-width="0.5"/>
<path d="M204.95 436.38L201.84 419.55"
fill="none" stroke="black" stroke-width="0.5"/>
<path d="M186.32 335.39L183.21 318.55"
fill="none" stroke="black" stroke-width="0.5"/>
<path d="M167.69 234.39L164.58 217.56"
fill="none" stroke="black" stroke-width="0.5"/>
<path d="M149.06 133.39L145.95 116.56"
fill="none" stroke="black" stroke-width="0.5"/>
<path d="M130.43 32.39L127.32 15.56"
fill="none" stroke="black" stroke-width="0.5"/>
<path d="M164.53 730.95L161.43 714.12"
fill="none" stroke="black" stroke-width="0.5"/>
<path d="M145.9 629.95L142.8 613.12"
fill="none" stroke="black" stroke-width="0.5"/>
<path d="M127.27 528.96L124.17 512.12"
fill="none" stroke="black" stroke-width="0.5"/>
<path d="M108.64 427.96L105.54 411.13"
fill="none" stroke="black" stroke-width="0.5"/>
<path d="M644.17 747.26L665.08 725.47"
fill="none" stroke="black" stroke-width="0.5"/>
<path d="M500.87 725.04L521.78 703.24"
fill="none" stroke="black" stroke-width="0.5"/>
<path d="M626.36 594.24L647.28 572.45"
fill="none" stroke="black" stroke-width="0.5"/>
<path d="M357.57 702.82L378.48 681.02"
fill="none" stroke="black" stroke-width="0.5"/>
<path d="M483.07 572.02L503.98 550.22"
fill="none" stroke="black" stroke-width="0.5"/>
<path d="M608.56 441.23L629.48 419.43"
fill="none" stroke="black" stroke-width="0.5"/>
<path d="M214.27 680.59L235.18 658.79"
fill="none" stroke="black" stroke-width="0.5"/>
<path d="M339.77 549.8L360.68 528"
fill="none" stroke="black" stroke-width="0.5"/>
<path d="M465.26 419L486.18 397.2"
fill="none" stroke="black" stroke-width="0.5"/>
<path d="M590.76 288.2L611.68 266.41"
fill="none" stroke="black" stroke-width="0.5"/>
<path d="M91.55 636.92L91.88 636.57"
fill="none" stroke="black" stroke-width="0.5"/>
<path d="M196.47 527.57L217.38 505.77"
fill="none" stroke="black" stroke-width="0.5"/>
<path d="M321.96 396.78L342.88 374.98"
fill="none" stroke="black" stroke-width="0.5"/>
<path d="M447.46 265.98L468.38 244.18"
fill="none" stroke="black" stroke-width="0.5"/>
<path d="M572.96 135.18L593.88 113.39"
fill="none" stroke="black" stroke-width="0.5"/>
<path d="M178.67 374.55L199.58 352.75"
fill="none" stroke="black" stroke-width="0.5"/>
<path d="M304.16 243.76L325.08 221.96"
fill="none" stroke="black" stroke-width="0.5"/>
<path d="M429.66 112.96L450.58 91.16"
fill="none" stroke="black" stroke-width="0.5"/>
<path d="M160.86 221.53L181.78 199.73"
fill="none" stroke="black" stroke-width="0.5"/>
<path d="M286.36 90.74L307.28 68.94"
fill="none" stroke="black" stroke-width="0.5"/>
<path d="M143.06 68.51L163.98 46.71"
fill="none" stroke="black" stroke-width="0.5"/>
<path d="M668.05 750.97L665.08 725.47"
fill="none" stroke="black" stroke-width="0.5"/>
<path d="M650.25 597.95L647.28 572.45"
fill="none" stroke="black" stroke-width="0.5"/>
<path d="M632.45 444.93L629.48 419.43"
fill="none" stroke="black" stroke-width="0.5"/>
<path d="M614.65 291.91L611.68 266.41"
fill="none" stroke="black" stroke-width="0.5"/>
<path d="M596.84 138.89L593.88 113.39"
fill="none" stroke="black" stroke-width="0.5"/>
<path d="M524.75 728.74L521.78 703.24"
fill="none" stroke="black" stroke-width="0.5"/>
<path d="M506.95 575.72L503.98 550.22"
fill="none" stroke="black" stroke-width="0.5"/>
<path d="M489.15 422.71L486.18 397.2"
fill="none" stroke="black" stroke-width="0.5"/>
<path d="M471.35 269.68L468.38 244.18"
fill="none" stroke="black" stroke-width="0.5"/>
<path d="M453.54 116.66L450.58 91.16"
fill="none" stroke="black" stroke-width="0.5"/>
<path d="M381.45 706.52L378.48 681.02"
fill="none" stroke="black" stroke-width="0.5"/>
<path d="M363.65 553.5L360.68 528"
fill="none" stroke="black" stroke-width="0.5"/>
<path d="M345.85 400.48L342.88 374.98"
fill="none" stroke="black" stroke-width="0.5"/>
<path d="M328.05 247.46L325.08 221.96"
fill="none" stroke="black" stroke-width="0.5"/>
<path d="M310.25 94.44L307.28 68.94"
fill="none" stroke="black" stroke-width="0.5"/>
<path d="M238.15 684.3L235.19 658.79"
fill="none" stroke="black" stroke-width="0.5"/>
<path d="M220.35 531.28L217.38 505.77"
fill="none" stroke="black" stroke-width="0.5"/>
<path d="M202.55 378.26L199.58 352.75"
fill="none" stroke="black" stroke-width="0.5"/>
<path d="M184.75 225.24L181.78 199.73"
fill="none" stroke="black" stroke-width="0.5"/>
<path d="M166.95 72.22L163.98 46.71"
fill="none" stroke="black" stroke-width="0.5"/>
<path d="M214.27 680.59L238.15 684.3"
fill="none" stroke="black" stroke-width="0.5"/>
<path d="M357.57 702.82L381.45 706.52"
fill="none" stroke="black" stroke-width="0.5"/>
<path d="M500.87 725.04L524.75 728.74"
fill="none" stroke="black" stroke-width="0.5"/>
<path d="M644.17 747.26L668.05 750.97"
fill="none" stroke="black" stroke-width="0.5"/>
<path d="M196.47 527.57L220.35 531.28"
fill="none" stroke="black" stroke-width="0.5"/>
<path d="M339.77 549.8L363.65 553.5"
fill="none" stroke="black" stroke-width="0.5"/>
<path d="M483.07 572.02L506.95 575.72"
fill="none" stroke="black" stroke-width="0.5"/>
<path d="M626.36 594.24L650.25 597.95"
fill="none" stroke="black" stroke-width="0.5"/>
<path d="M178.67 374.55L202.55 378.26"
fill="none" stroke="black" stroke-width="0.5"/>
<path d="M321.96 396.78L345.85 400.48"
fill="none" stroke="black" stroke-width="0.5"/>
<path d="M465.26 419L489.15 422.7"
fill="none" stroke="black" stroke-width="0.5"/>
<path d="M608.56 441.23L632.45 444.93"
fill="none" stroke="black" stroke-width="0.5"/>
<path d="M160.86 221.53L184.75 225.24"
fill="none" stroke="black" stroke-width="0.5"/>
<path d="M304.16 243.76L328.05 247.46"
fill="none" stroke="black" stroke-width="0.5"/>
<path d="M447.46 265.98L471.34 269.68"
fill="none" stroke="black" stroke-width="0.5"/>
<path d="M590.76 288.2L614.65 291.91"
fill="none" stroke="black" stroke-width="0.5"/>
<path d="M143.06 68.51L166.94 72.22"
fill="none" stroke="black" stroke-width="0.5"/>
<path d="M286.36 90.74L310.24 94.44"
fill="none" stroke="black" stroke-width="0.5"/>
<path d="M429.66 112.96L453.54 116.66"
fill="none" stroke="black" stroke-width="0.5"/>
<path d="M572.96 135.18L596.84 138.89"
fill="none" stroke="black" stroke-width="0.5"/>
<path d="M640.92 776.55L659.73 769.33"
fill="none" stroke="black" stroke-width="0.5"/>
<path d="M447.96 765.79L466.76 758.58"
fill="none" stroke="black" stroke-width="0.5"/>
<path d="M560.78 722.49L579.58 715.27"
fill="none" stroke="black" stroke-width="0.5"/>
<path d="M673.59 679.18L692.4 671.96"
fill="none" stroke="black" stroke-width="0.5"/>
<path d="M254.99 755.04L273.8 747.82"
fill="none" stroke="black" stroke-width="0.5"/>
<path d="M367.81 711.73L386.61 704.52"
fill="none" stroke="black" stroke-width="0.5"/>
<path d="M480.63 668.43L499.43 661.21"
fill="none" stroke="black" stroke-width="0.5"/>
<path d="M593.45 625.12L612.25 617.9"
fill="none" stroke="black" stroke-width="0.5"/>
<path d="M174.85 700.98L193.65 693.76"
fill="none" stroke="black" stroke-width="0.5"/>
<path d="M287.66 657.67L306.47 650.46"
fill="none" stroke="black" stroke-width="0.5"/>
<path d="M400.48 614.37L419.28 607.15"
fill="none" stroke="black" stroke-width="0.5"/>
<path d="M513.3 571.06L532.1 563.84"
fill="none" stroke="black" stroke-width="0.5"/>
<path d="M626.12 527.75L644.92 520.54"
fill="none" stroke="black" stroke-width="0.5"/>
<path d="M94.7 646.92L113.5 639.7"
fill="none" stroke="black" stroke-width="0.5"/>
<path d="M207.52 603.61L226.32 596.4"
fill="none" stroke="black" stroke-width="0.5"/>
<path d="M320.33 560.31L339.14 553.09"
fill="none" stroke="black" stroke-width="0.5"/>
<path d="M433.15 517L451.95 509.78"
fill="none" stroke="black" stroke-width="0.5"/>
<path d="M545.97 473.69L564.77 466.48"
fill="none" stroke="black" stroke-width="0.5"/>
<path d="M658.79 430.39L677.59 423.17"
fill="none" stroke="black" stroke-width="0.5"/>
<path d="M127.37 549.55L146.17 542.34"
fill="none" stroke="black" stroke-width="0.5"/>
<path d="M240.19 506.25L258.99 499.03"
fill="none" stroke="black" stroke-width="0.5"/>
<path d="M353 462.94L371.81 455.72"
fill="none" stroke="black" stroke-width="0.5"/>
<path d="M465.82 419.63L484.62 412.42"
fill="none" stroke="black" stroke-width="0.5"/>
<path d="M578.64 376.33L597.44 369.11"
fill="none" stroke="black" stroke-width="0.5"/>
<path d="M160.04 452.19L178.84 444.97"
fill="none" stroke="black" stroke-width="0.5"/>
<path d="M272.86 408.88L291.66 401.66"
fill="none" stroke="black" stroke-width="0.5"/>
<path d="M385.67 365.57L404.48 358.36"
fill="none" stroke="black" stroke-width="0.5"/>
<path d="M498.49 322.27L517.29 315.05"
fill="none" stroke="black" stroke-width="0.5"/>
<path d="M611.31 278.96L630.11 271.74"
fill="none" stroke="black" stroke-width="0.5"/>
<path d="M192.71 354.82L211.51 347.6"
fill="none" stroke="black" stroke-width="0.5"/>
<path d="M305.53 311.51L324.33 304.3"
fill="none" stroke="black" stroke-width="0.5"/>
<path d="M418.34 268.21L437.15 260.99"
fill="none" stroke="black" stroke-width="0.5"/>
<path d="M531.16 224.9L549.96 217.68"
fill="none" stroke="black" stroke-width="0.5"/>
<path d="M643.98 181.59L662.78 174.38"
fill="none" stroke="black" stroke-width="0.5"/>
<path d="M112.56 300.76L131.37 293.54"
fill="none" stroke="black" stroke-width="0.5"/>
<path d="M225.38 257.45L244.18 250.24"
fill="none" stroke="black" stroke-width="0.5"/>
<path d="M338.2 214.15L357 206.93"
fill="none" stroke="black" stroke-width="0.5"/>
<path d="M451.01 170.84L469.82 163.62"
fill="none" stroke="black" stroke-width="0.5"/>
<path d="M563.83 127.54L582.64 120.32"
fill="none" stroke="black" stroke-width="0.5"/>
<path d="M676.65 84.23L695.45 77.01"
fill="none" stroke="black" stroke-width="0.5"/>
<path d="M145.23 203.39L164.04 196.18"
fill="none" stroke="black" stroke-width="0.5"/>
<path d="M258.05 160.09L276.85 152.87"
fill="none" stroke="black" stroke-width="0.5"/>
<path d="M370.87 116.78L389.67 109.56"
fill="none" stroke="black" stroke-width="0.5"/>
<path d="M483.69 73.48L502.49 66.26"
fill="none" stroke="black" stroke-width="0.5"/>
<path d="M596.5 30.17L615.3 22.95"
fill="none" stroke="black" stroke-width="0.5"/>
<path d="M177.9 106.03L196.71 98.81"
fill="none" stroke="black" stroke-width="0.5"/>
<path d="M290.72 62.72L309.52 55.5"
fill="none" stroke="black" stroke-width="0.5"/>
<path d="M403.54 19.41L422.34 12.2"
fill="none" stroke="black" stroke-width="0.5"/>
<path d="M97.76 51.97L116.56 44.75"
fill="none" stroke="black" stroke-width="0.5"/>
<path d="M210.57 8.66L229.38 1.44"
fill="none" stroke="black" stroke-width="0.5"/>
<path d="M94.7 646.92L108.06 655.93"
fill="none" stroke="black" stroke-width="0.5"/>
<path d="M174.85 700.98L188.21 709.99"
fill="none" stroke="black" stroke-width="0.5"/>
<path d="M254.99 755.04L268.35 764.05"
fill="none" stroke="black" stroke-width="0.5"/>
<path d="M127.37 549.55L140.73 558.56"
fill="none" stroke="black" stroke-width="0.5"/>
<path d="M207.52 603.61L220.87 612.62"
fill="none" stroke="black" stroke-width="0.5"/>
<path d="M287.66 657.67L301.02 666.68"
fill="none" stroke="black" stroke-width="0.5"/>
<path d="M367.81 711.73L381.17 720.74"
fill="none" stroke="black" stroke-width="0.5"/>
<path d="M447.96 765.79L461.32 774.8"
fill="none" stroke="black" stroke-width="0.5"/>
<path d="M160.04 452.19L173.4 461.2"
fill="none" stroke="black" stroke-width="0.5"/>
<path d="M240.19 506.25L253.55 515.26"
fill="none" stroke="black" stroke-width="0.5"/>
<path d="M320.33 560.31L333.69 569.32"
fill="none" stroke="black" stroke-width="0.5"/>
<path d="M400.48 614.37L413.84 623.38"
fill="none" stroke="black" stroke-width="0.5"/>
<path d="M480.63 668.43L493.99 677.44"
fill="none" stroke="black" stroke-width="0.5"/>
<path d="M560.78 722.49L574.13 731.5"
fill="none" stroke="black" stroke-width="0.5"/>
<path d="M640.92 776.55L654.28 785.56"
fill="none" stroke="black" stroke-width="0.5"/>
<path d="M112.56 300.76L125.92 309.77"
fill="none" stroke="black" stroke-width="0.5"/>
<path d="M192.71 354.82L206.07 363.83"
fill="none" stroke="black" stroke-width="0.5"/>
<path d="M272.86 408.88L286.21 417.89"
fill="none" stroke="black" stroke-width="0.5"/>
<path d="M353 462.94L366.36 471.95"
fill="none" stroke="black" stroke-width="0.5"/>
<path d="M433.15 517L446.51 526.01"
fill="none" stroke="black" stroke-width="0.5"/>
<path d="M513.3 571.06L526.66 580.07"
fill="none" stroke="black" stroke-width="0.5"/>
<path d="M593.45 625.12L606.8 634.13"
fill="none" stroke="black" stroke-width="0.5"/>
<path d="M673.59 679.18L686.95 688.19"
fill="none" stroke="black" stroke-width="0.5"/>
<path d="M145.23 203.39L158.59 212.4"
fill="none" stroke="black" stroke-width="0.5"/>
<path d="M225.38 257.45L238.74 266.46"
fill="none" stroke="black" stroke-width="0.5"/>
<path d="M305.53 311.51L318.89 320.52"
fill="none" stroke="black" stroke-width="0.5"/>
<path d="M385.67 365.57L399.03 374.58"
fill="none" stroke="black" stroke-width="0.5"/>
<path d="M465.82 419.63L479.18 428.64"
fill="none" stroke="black" stroke-width="0.5"/>
<path d="M545.97 473.69L559.33 482.7"
fill="none" stroke="black" stroke-width="0.5"/>
<path d="M626.12 527.75L639.47 536.76"
fill="none" stroke="black" stroke-width="0.5"/>
<path d="M97.76 51.97L111.11 60.98"
fill="none" stroke="black" stroke-width="0.5"/>
<path d="M177.9 106.03L191.26 115.04"
fill="none" stroke="black" stroke-width="0.5"/>
<path d="M258.05 160.09L271.41 169.1"
fill="none" stroke="black" stroke-width="0.5"/>
<path d="M338.2 214.15L351.56 223.16"
fill="none" stroke="black" stroke-width="0.5"/>
<path d="M418.34 268.21L431.7 277.22"
fill="none" stroke="black" stroke-width="0.5"/>
<path d="M498.49 322.27L511.85 331.28"
fill="none" stroke="black" stroke-width="0.5"/>
<path d="M578.64 376.33L592 385.34"
fill="none" stroke="black" stroke-width="0.5"/>
<path d="M658.79 430.39L672.14 439.4"
fill="none" stroke="black" stroke-width="0.5"/>
<path d="M210.57 8.66L223.93 17.67"
fill="none" stroke="black" stroke-width="0.5"/>
<path d="M290.72 62.72L304.08 71.73"
fill="none" stroke="black" stroke-width="0.5"/>
<path d="M370.87 116.78L384.23 125.79"
fill="none" stroke="black" stroke-width="0.5"/>
<path d="M451.01 170.84L464.37 179.85"
fill="none" stroke="black" stroke-width="0.5"/>
<path d="M531.16 224.9L544.52 233.91"
fill="none" stroke="black" stroke-width="0.5"/>
<path d="M611.31 278.96L624.67 287.97"
fill="none" stroke="black" stroke-width="0.5"/>
<path d="M403.54 19.41L416.9 28.42"
fill="none" stroke="black" stroke-width="0.5"/>
<path d="M483.69 73.48L497.04 82.48"
fill="none" stroke="black" stroke-width="0.5"/>
<path d="M563.83 127.54L577.19 136.54"
fill="none" stroke="black" stroke-width="0.5"/>
<path d="M643.98 181.59L657.34 190.6"
fill="none" stroke="black" stroke-width="0.5"/>
<path d="M596.5 30.17L609.86 39.18"
fill="none" stroke="black" stroke-width="0.5"/>
<path d="M676.65 84.23L690.01 93.24"
fill="none" stroke="black" stroke-width="0.5"/>
<path d="M654.28 785.56L659.73 769.33"
fill="none" stroke="black" stroke-width="0.5"/>
<path d="M686.95 688.19L692.4 671.96"
fill="none" stroke="black" stroke-width="0.5"/>
<path d="M574.13 731.5L579.58 715.27"
fill="none" stroke="black" stroke-width="0.5"/>
<path d="M606.8 634.13L612.25 617.9"
fill="none" stroke="black" stroke-width="0.5"/>
<path d="M639.47 536.76L644.92 520.54"
fill="none" stroke="black" stroke-width="0.5"/>
<path d="M672.14 439.4L677.59 423.17"
fill="none" stroke="black" stroke-width="0.5"/>
<path d="M461.32 774.8L466.76 758.58"
fill="none" stroke="black" stroke-width="0.5"/>
<path d="M493.99 677.44L499.43 661.21"
fill="none" stroke="black" stroke-width="0.5"/>
<path d="M526.66 580.07L532.1 563.84"
fill="none" stroke="black" stroke-width="0.5"/>
<path d="M559.33 482.7L564.77 466.48"
fill="none" stroke="black" stroke-width="0.5"/>
<path d="M592 385.34L597.44 369.11"
fill="none" stroke="black" stroke-width="0.5"/>
<path d="M624.67 287.97L630.11 271.74"
fill="none" stroke="black" stroke-width="0.5"/>
<path d="M657.34 190.6L662.78 174.38"
fill="none" stroke="black" stroke-width="0.5"/>
<path d="M690.01 93.24L695.45 77.01"
fill="none" stroke="black" stroke-width="0.5"/>
<path d="M381.17 720.74L386.61 704.52"
fill="none" stroke="black" stroke-width="0.5"/>
<path d="M413.84 623.38L419.29 607.15"
fill="none" stroke="black" stroke-width="0.5"/>
<path d="M446.51 526.01L451.95 509.78"
fill="none" stroke="black" stroke-width="0.5"/>
<path d="M479.18 428.64L484.63 412.42"
fill="none" stroke="black" stroke-width="0.5"/>
<path d="M511.85 331.28L517.29 315.05"
fill="none" stroke="black" stroke-width="0.5"/>
<path d="M544.52 233.91L549.97 217.68"
fill="none" stroke="black" stroke-width="0.5"/>
<path d="M577.19 136.54L582.64 120.32"
fill="none" stroke="black" stroke-width="0.5"/>
<path d="M609.86 39.18L615.31 22.95"
fill="none" stroke="black" stroke-width="0.5"/>
<path d="M268.35 764.05L273.8 747.82"
fill="none" stroke="black" stroke-width="0.5"/>
<path d="M301.02 666.68L306.47 650.46"
fill="none" stroke="black" stroke-width="0.5"/>
<path d="M333.69 569.32L339.14 553.09"
fill="none" stroke="black" stroke-width="0.5"/>
<path d="M366.36 471.95L371.81 455.72"
fill="none" stroke="black" stroke-width="0.5"/>
<path d="M399.03 374.58L404.48 358.36"
fill="none" stroke="black" stroke-width="0.5"/>
<path d="M431.7 277.22L437.15 260.99"
fill="none" stroke="black" stroke-width="0.5"/>
<path d="M464.37 179.85L469.82 163.62"
fill="none" stroke="black" stroke-width="0.5"/>
<path d="M497.04 82.48L502.49 66.26"
fill="none" stroke="black" stroke-width="0.5"/>
<path d="M188.21 709.99L193.65 693.76"
fill="none" stroke="black" stroke-width="0.5"/>
<path d="M220.87 612.62L226.32 596.4"
fill="none" stroke="black" stroke-width="0.5"/>
<path d="M253.55 515.26L258.99 499.03"
fill="none" stroke="black" stroke-width="0.5"/>
<path d="M286.22 417.89L291.66 401.66"
fill="none" stroke="black" stroke-width="0.5"/>
<path d="M318.89 320.52L324.33 304.3"
fill="none" stroke="black" stroke-width="0.5"/>
<path d="M351.56 223.16L357 206.93"
fill="none" stroke="black" stroke-width="0.5"/>
<path d="M384.23 125.79L389.67 109.56"
fill="none" stroke="black" stroke-width="0.5"/>
<path d="M416.9 28.42L422.34 12.2"
fill="none" stroke="black" stroke-width="0.5"/>
<path d="M108.06 655.93L113.5 639.7"
fill="none" stroke="black" stroke-width="0.5"/>
<path d="M140.73 558.56L146.17 542.34"
fill="none" stroke="black" stroke-width="0.5"/>
<path d="M173.4 461.2L178.84 444.97"
fill="none" stroke="black" stroke-width="0.5"/>
<path d="M206.07 363.83L211.51 347.6"
fill="none" stroke="black" stroke-width="0.5"/>
<path d="M238.74 266.46L244.18 250.24"
fill="none" stroke="black" stroke-width="0.5"/>
<path d="M271.41 169.1L276.85 152.87"
fill="none" stroke="black" stroke-width="0.5"/>
<path d="M304.08 71.73L309.52 55.5"
fill="none" stroke="black" stroke-width="0.5"/>
<path d="M125.92 309.77L131.37 293.54"
fill="none" stroke="black" stroke-width="0.5"/>
<path d="M158.59 212.4L164.04 196.18"
fill="none" stroke="black" stroke-width="0.5"/>
<path d="M191.26 115.04L196.71 98.81"
fill="none" stroke="black" stroke-width="0.5"/>
<path d="M223.93 17.67L229.38 1.44"
fill="none" stroke="black" stroke-width="0.5"/>
<path d="M111.12 60.98L116.56 44.75"
fill="none" stroke="black" stroke-width="0.5"/>
</svg>
