<?xml version="1.0" encoding="UTF-8"?>
<svg xmlns="http://www.w3.org/2000/svg" width="99.949mm" height="99.949mm" viewBox="0.0 0.0 787.000 787.000" preserveAspectRatio="none" version="1.1">
  <title>Produce by Acme CAD Converter</title>
  <desc>Produce by Acme CAD Converter</desc>
<path d="M459.42 556.57L556.57 459.42"
fill="none" stroke="black" stroke-width="0.5"/>
<path d="M1.44 556.57L98.59 459.42"
fill="none" stroke="black" stroke-width="0.5"/>
<path d="M459.42 98.59L556.57 1.44"
fill="none" stroke="black" stroke-width="0.5"/>
<path d="M1.44 98.59L98.59 1.44"
fill="none" stroke="black" stroke-width="0.5"/>
<path d="M785.56 327.58L688.41 230.43"
fill="none" stroke="black" stroke-width="0.5"/>
<path d="M785.56 785.56L688.41 688.41"
fill="none" stroke="black" stroke-width="0.5"/>
<path d="M327.58 327.58L230.43 230.43"
fill="none" stroke="black" stroke-width="0.5"/>
<path d="M327.58 785.56L230.43 688.41"
fill="none" stroke="black" stroke-width="0.5"/>
<path d="M32.84 778.45L67.19 778.45"
fill="none" stroke="black" stroke-width="0.5"/>
<path d="M490.82 778.45L525.17 778.45"
fill="none" stroke="black" stroke-width="0.5"/>
<path d="M261.83 549.46L296.18 549.46"
fill="none" stroke="black" stroke-width="0.5"/>
<path d="M719.81 549.46L754.16 549.46"
fill="none" stroke="black" stroke-width="0.5"/>
<path d="M32.84 320.47L67.19 320.47"
fill="none" stroke="black" stroke-width="0.5"/>
<path d="M490.82 320.47L525.17 320.47"
fill="none" stroke="black" stroke-width="0.5"/>
<path d="M261.83 91.48L296.18 91.48"
fill="none" stroke="black" stroke-width="0.5"/>
<path d="M719.81 91.48L754.16 91.48"
fill="none" stroke="black" stroke-width="0.5"/>
<path d="M32.84 695.52L67.19 695.52"
fill="none" stroke="black" stroke-width="0.5"/>
<path d="M490.82 695.52L525.17 695.52"
fill="none" stroke="black" stroke-width="0.5"/>
<path d="M261.83 466.53L296.18 466.53"
fill="none" stroke="black" stroke-width="0.5"/>
<path d="M719.81 466.53L754.16 466.53"
fill="none" stroke="black" stroke-width="0.5"/>
<path d="M32.84 237.54L67.19 237.54"
fill="none" stroke="black" stroke-width="0.5"/>
<path d="M490.82 237.54L525.17 237.54"
fill="none" stroke="black" stroke-width="0.5"/>
<path d="M261.83 8.55L296.18 8.55"
fill="none" stroke="black" stroke-width="0.5"/>
<path d="M719.81 8.55L754.16 8.55"
fill="none" stroke="black" stroke-width="0.5"/>
<path d="M695.52 525.17L695.52 490.82"
fill="none" stroke="black" stroke-width="0.5"/>
<path d="M695.52 67.19L695.52 32.84"
fill="none" stroke="black" stroke-width="0.5"/>
<path d="M466.53 754.16L466.53 719.81"
fill="none" stroke="black" stroke-width="0.5"/>
<path d="M466.53 296.18L466.53 261.83"
fill="none" stroke="black" stroke-width="0.5"/>
<path d="M237.54 525.17L237.54 490.82"
fill="none" stroke="black" stroke-width="0.5"/>
<path d="M237.54 67.19L237.54 32.84"
fill="none" stroke="black" stroke-width="0.5"/>
<path d="M8.55 754.16L8.55 719.81"
fill="none" stroke="black" stroke-width="0.5"/>
<path d="M8.55 296.18L8.55 261.83"
fill="none" stroke="black" stroke-width="0.5"/>
<path d="M778.45 525.17L778.45 490.82"
fill="none" stroke="black" stroke-width="0.5"/>
<path d="M778.45 67.19L778.45 32.84"
fill="none" stroke="black" stroke-width="0.5"/>
<path d="M549.46 754.16L549.46 719.81"
fill="none" stroke="black" stroke-width="0.5"/>
<path d="M549.46 296.18L549.46 261.83"
fill="none" stroke="black" stroke-width="0.5"/>
<path d="M320.47 525.17L320.47 490.82"
fill="none" stroke="black" stroke-width="0.5"/>
<path d="M320.47 67.19L320.47 32.84"
fill="none" stroke="black" stroke-width="0.5"/>
<path d="M91.48 754.16L91.48 719.81"
fill="none" stroke="black" stroke-width="0.5"/>
<path d="M91.48 296.18L91.48 261.83"
fill="none" stroke="black" stroke-width="0.5"/>
<path d="M525.17 778.45L549.46 754.16"
fill="none" stroke="black" stroke-width="0.5"/>
<path d="M754.16 549.46L778.45 525.17"
fill="none" stroke="black" stroke-width="0.5"/>
<path d="M67.19 778.45L91.48 754.16"
fill="none" stroke="black" stroke-width="0.5"/>
<path d="M296.18 549.46L320.47 525.17"
fill="none" stroke="black" stroke-width="0.5"/>
<path d="M525.17 320.47L549.46 296.18"
fill="none" stroke="black" stroke-width="0.5"/>
<path d="M754.16 91.48L778.45 67.19"
fill="none" stroke="black" stroke-width="0.5"/>
<path d="M67.19 320.47L91.48 296.18"
fill="none" stroke="black" stroke-width="0.5"/>
<path d="M296.18 91.48L320.47 67.19"
fill="none" stroke="black" stroke-width="0.5"/>
<path d="M67.19 695.52L91.48 719.81"
fill="none" stroke="black" stroke-width="0.5"/>
<path d="M67.19 237.54L91.48 261.83"
fill="none" stroke="black" stroke-width="0.5"/>
<path d="M296.18 466.53L320.47 490.82"
fill="none" stroke="black" stroke-width="0.5"/>
<path d="M525.17 695.52L549.46 719.81"
fill="none" stroke="black" stroke-width="0.5"/>
<path d="M296.18 8.55L320.47 32.84"
fill="none" stroke="black" stroke-width="0.5"/>
<path d="M525.17 237.54L549.46 261.83"
fill="none" stroke="black" stroke-width="0.5"/>
<path d="M754.16 466.53L778.45 490.82"
fill="none" stroke="black" stroke-width="0.5"/>
<path d="M754.16 8.55L778.45 32.84"
fill="none" stroke="black" stroke-width="0.5"/>
<path d="M261.83 8.55L237.54 32.84"
fill="none" stroke="black" stroke-width="0.5"/>
<path d="M32.84 237.54L8.55 261.83"
fill="none" stroke="black" stroke-width="0.5"/>
<path d="M719.81 8.55L695.52 32.84"
fill="none" stroke="black" stroke-width="0.5"/>
<path d="M490.82 237.54L466.53 261.83"
fill="none" stroke="black" stroke-width="0.5"/>
<path d="M261.83 466.53L237.54 490.82"
fill="none" stroke="black" stroke-width="0.5"/>
<path d="M32.84 695.52L8.55 719.81"
fill="none" stroke="black" stroke-width="0.5"/>
<path d="M719.81 466.53L695.52 490.82"
fill="none" stroke="black" stroke-width="0.5"/>
<path d="M490.82 695.52L466.53 719.81"
fill="none" stroke="black" stroke-width="0.5"/>
<path d="M719.81 91.48L695.52 67.19"
fill="none" stroke="black" stroke-width="0.5"/>
<path d="M719.81 549.46L695.52 525.17"
fill="none" stroke="black" stroke-width="0.5"/>
<path d="M490.82 320.47L466.53 296.18"
fill="none" stroke="black" stroke-width="0.5"/>
<path d="M261.83 91.48L237.54 67.19"
fill="none" stroke="black" stroke-width="0.5"/>
<path d="M490.82 778.45L466.53 754.16"
fill="none" stroke="black" stroke-width="0.5"/>
<path d="M261.83 549.46L237.54 525.17"
fill="none" stroke="black" stroke-width="0.5"/>
<path d="M32.84 320.47L8.55 296.18"
fill="none" stroke="black" stroke-width="0.5"/>
<path d="M32.84 778.45L8.55 754.16"
fill="none" stroke="black" stroke-width="0.5"/>
</svg>
