<?xml version="1.0" encoding="UTF-8"?>
<svg xmlns="http://www.w3.org/2000/svg" width="99.949mm" height="99.949mm" viewBox="0.0 0.0 787.000 787.000" preserveAspectRatio="none" version="1.1">
  <title>Produce by Acme CAD Converter</title>
  <desc>Produce by Acme CAD Converter</desc>
<path d="M355.8 778.8L431.2 778.8"
fill="none" stroke="black" stroke-width="0.5"/>
<path d="M355.8 765.28L431.2 765.28"
fill="none" stroke="black" stroke-width="0.5"/>
<path d="M355.8 751.76L431.2 751.76"
fill="none" stroke="black" stroke-width="0.5"/>
<path d="M355.8 738.24L431.2 738.24"
fill="none" stroke="black" stroke-width="0.5"/>
<path d="M355.8 724.72L431.2 724.72"
fill="none" stroke="black" stroke-width="0.5"/>
<path d="M355.8 711.2L431.2 711.2"
fill="none" stroke="black" stroke-width="0.5"/>
<path d="M355.8 697.68L431.2 697.68"
fill="none" stroke="black" stroke-width="0.5"/>
<path d="M355.8 684.16L431.2 684.16"
fill="none" stroke="black" stroke-width="0.5"/>
<path d="M355.8 670.64L431.2 670.64"
fill="none" stroke="black" stroke-width="0.5"/>
<path d="M355.8 657.12L431.2 657.12"
fill="none" stroke="black" stroke-width="0.5"/>
<path d="M355.8 643.61L431.2 643.61"
fill="none" stroke="black" stroke-width="0.5"/>
<path d="M355.8 630.09L431.2 630.09"
fill="none" stroke="black" stroke-width="0.5"/>
<path d="M355.8 616.57L431.2 616.57"
fill="none" stroke="black" stroke-width="0.5"/>
<path d="M355.8 603.05L431.2 603.05"
fill="none" stroke="black" stroke-width="0.5"/>
<path d="M355.8 589.53L431.2 589.53"
fill="none" stroke="black" stroke-width="0.5"/>
<path d="M355.8 576.01L431.2 576.01"
fill="none" stroke="black" stroke-width="0.5"/>
<path d="M355.8 562.49L431.2 562.49"
fill="none" stroke="black" stroke-width="0.5"/>
<path d="M355.8 548.97L431.2 548.97"
fill="none" stroke="black" stroke-width="0.5"/>
<path d="M355.8 535.45L431.2 535.45"
fill="none" stroke="black" stroke-width="0.5"/>
<path d="M355.8 521.93L431.2 521.93"
fill="none" stroke="black" stroke-width="0.5"/>
<path d="M355.8 508.41L431.2 508.41"
fill="none" stroke="black" stroke-width="0.5"/>
<path d="M355.8 494.89L431.2 494.89"
fill="none" stroke="black" stroke-width="0.5"/>
<path d="M355.8 481.37L431.2 481.37"
fill="none" stroke="black" stroke-width="0.5"/>
<path d="M355.8 467.86L431.2 467.86"
fill="none" stroke="black" stroke-width="0.5"/>
<path d="M355.8 454.34L431.2 454.34"
fill="none" stroke="black" stroke-width="0.5"/>
<path d="M355.8 440.82L431.2 440.82"
fill="none" stroke="black" stroke-width="0.5"/>
<path d="M355.8 427.3L431.2 427.3"
fill="none" stroke="black" stroke-width="0.5"/>
<path d="M355.8 413.78L431.2 413.78"
fill="none" stroke="black" stroke-width="0.5"/>
<path d="M355.8 400.26L431.2 400.26"
fill="none" stroke="black" stroke-width="0.5"/>
<path d="M355.8 386.74L431.2 386.74"
fill="none" stroke="black" stroke-width="0.5"/>
<path d="M355.8 373.22L431.2 373.22"
fill="none" stroke="black" stroke-width="0.5"/>
<path d="M355.8 359.7L431.2 359.7"
fill="none" stroke="black" stroke-width="0.5"/>
<path d="M355.8 346.18L431.2 346.18"
fill="none" stroke="black" stroke-width="0.5"/>
<path d="M355.8 332.66L431.2 332.66"
fill="none" stroke="black" stroke-width="0.5"/>
<path d="M355.8 319.14L431.2 319.14"
fill="none" stroke="black" stroke-width="0.5"/>
<path d="M355.8 305.63L431.2 305.63"
fill="none" stroke="black" stroke-width="0.5"/>
<path d="M355.8 292.11L431.2 292.11"
fill="none" stroke="black" stroke-width="0.5"/>
<path d="M355.8 278.59L431.2 278.59"
fill="none" stroke="black" stroke-width="0.5"/>
<path d="M355.8 265.07L431.2 265.07"
fill="none" stroke="black" stroke-width="0.5"/>
<path d="M355.8 251.55L431.2 251.55"
fill="none" stroke="black" stroke-width="0.5"/>
<path d="M355.8 238.03L431.2 238.03"
fill="none" stroke="black" stroke-width="0.5"/>
<path d="M355.8 224.51L431.2 224.51"
fill="none" stroke="black" stroke-width="0.5"/>
<path d="M355.8 210.99L431.2 210.99"
fill="none" stroke="black" stroke-width="0.5"/>
<path d="M355.8 197.47L431.2 197.47"
fill="none" stroke="black" stroke-width="0.5"/>
<path d="M355.8 183.95L431.2 183.95"
fill="none" stroke="black" stroke-width="0.5"/>
<path d="M355.8 170.43L431.2 170.43"
fill="none" stroke="black" stroke-width="0.5"/>
<path d="M355.8 156.91L431.2 156.91"
fill="none" stroke="black" stroke-width="0.5"/>
<path d="M355.8 143.39L431.2 143.39"
fill="none" stroke="black" stroke-width="0.5"/>
<path d="M355.8 129.88L431.2 129.88"
fill="none" stroke="black" stroke-width="0.5"/>
<path d="M355.8 116.36L431.2 116.36"
fill="none" stroke="black" stroke-width="0.5"/>
<path d="M355.8 102.84L431.2 102.84"
fill="none" stroke="black" stroke-width="0.5"/>
<path d="M355.8 89.32L431.2 89.32"
fill="none" stroke="black" stroke-width="0.5"/>
<path d="M355.8 75.8L431.2 75.8"
fill="none" stroke="black" stroke-width="0.5"/>
<path d="M355.8 62.28L431.2 62.28"
fill="none" stroke="black" stroke-width="0.5"/>
<path d="M355.8 48.76L431.2 48.76"
fill="none" stroke="black" stroke-width="0.5"/>
<path d="M355.8 35.24L431.2 35.24"
fill="none" stroke="black" stroke-width="0.5"/>
<path d="M355.8 21.72L431.2 21.72"
fill="none" stroke="black" stroke-width="0.5"/>
<path d="M355.8 8.2L431.2 8.2"
fill="none" stroke="black" stroke-width="0.5"/>
<path d="M416.25 785.56L420.15 778.8"
fill="none" stroke="black" stroke-width="0.5"/>
<path d="M427.96 765.28L431.2 759.66"
fill="none" stroke="black" stroke-width="0.5"/>
<path d="M401.3 778.8L409.11 765.28"
fill="none" stroke="black" stroke-width="0.5"/>
<path d="M416.91 751.76L424.72 738.24"
fill="none" stroke="black" stroke-width="0.5"/>
<path d="M378.55 785.56L382.45 778.8"
fill="none" stroke="black" stroke-width="0.5"/>
<path d="M390.26 765.28L398.06 751.76"
fill="none" stroke="black" stroke-width="0.5"/>
<path d="M405.87 738.24L413.67 724.72"
fill="none" stroke="black" stroke-width="0.5"/>
<path d="M421.48 711.2L429.28 697.68"
fill="none" stroke="black" stroke-width="0.5"/>
<path d="M363.6 778.8L371.41 765.28"
fill="none" stroke="black" stroke-width="0.5"/>
<path d="M379.21 751.76L387.02 738.24"
fill="none" stroke="black" stroke-width="0.5"/>
<path d="M394.82 724.72L402.63 711.2"
fill="none" stroke="black" stroke-width="0.5"/>
<path d="M410.43 697.68L418.24 684.16"
fill="none" stroke="black" stroke-width="0.5"/>
<path d="M426.04 670.64L431.2 661.71"
fill="none" stroke="black" stroke-width="0.5"/>
<path d="M355.8 759.66L360.36 751.76"
fill="none" stroke="black" stroke-width="0.5"/>
<path d="M368.17 738.24L375.97 724.72"
fill="none" stroke="black" stroke-width="0.5"/>
<path d="M383.78 711.2L391.58 697.68"
fill="none" stroke="black" stroke-width="0.5"/>
<path d="M399.39 684.16L407.19 670.64"
fill="none" stroke="black" stroke-width="0.5"/>
<path d="M415 657.12L422.8 643.61"
fill="none" stroke="black" stroke-width="0.5"/>
<path d="M430.61 630.09L431.2 629.06"
fill="none" stroke="black" stroke-width="0.5"/>
<path d="M357.12 724.72L364.93 711.2"
fill="none" stroke="black" stroke-width="0.5"/>
<path d="M372.73 697.68L380.54 684.16"
fill="none" stroke="black" stroke-width="0.5"/>
<path d="M388.34 670.64L396.15 657.12"
fill="none" stroke="black" stroke-width="0.5"/>
<path d="M403.95 643.61L411.76 630.09"
fill="none" stroke="black" stroke-width="0.5"/>
<path d="M419.56 616.57L427.37 603.05"
fill="none" stroke="black" stroke-width="0.5"/>
<path d="M361.69 684.16L369.49 670.64"
fill="none" stroke="black" stroke-width="0.5"/>
<path d="M377.3 657.12L385.1 643.61"
fill="none" stroke="black" stroke-width="0.5"/>
<path d="M392.91 630.09L400.71 616.57"
fill="none" stroke="black" stroke-width="0.5"/>
<path d="M408.52 603.05L416.33 589.53"
fill="none" stroke="black" stroke-width="0.5"/>
<path d="M424.13 576.01L431.2 563.76"
fill="none" stroke="black" stroke-width="0.5"/>
<path d="M355.8 661.71L358.45 657.12"
fill="none" stroke="black" stroke-width="0.5"/>
<path d="M366.25 643.61L374.06 630.09"
fill="none" stroke="black" stroke-width="0.5"/>
<path d="M381.86 616.57L389.67 603.05"
fill="none" stroke="black" stroke-width="0.5"/>
<path d="M397.47 589.53L405.28 576.01"
fill="none" stroke="black" stroke-width="0.5"/>
<path d="M413.09 562.49L420.89 548.97"
fill="none" stroke="black" stroke-width="0.5"/>
<path d="M428.7 535.45L431.2 531.11"
fill="none" stroke="black" stroke-width="0.5"/>
<path d="M355.8 629.06L363.01 616.57"
fill="none" stroke="black" stroke-width="0.5"/>
<path d="M370.82 603.05L378.62 589.53"
fill="none" stroke="black" stroke-width="0.5"/>
<path d="M386.43 576.01L394.23 562.49"
fill="none" stroke="black" stroke-width="0.5"/>
<path d="M402.04 548.97L409.85 535.45"
fill="none" stroke="black" stroke-width="0.5"/>
<path d="M417.65 521.93L425.46 508.41"
fill="none" stroke="black" stroke-width="0.5"/>
<path d="M359.77 589.53L367.58 576.01"
fill="none" stroke="black" stroke-width="0.5"/>
<path d="M375.38 562.49L383.19 548.97"
fill="none" stroke="black" stroke-width="0.5"/>
<path d="M390.99 535.45L398.8 521.93"
fill="none" stroke="black" stroke-width="0.5"/>
<path d="M406.61 508.41L414.41 494.89"
fill="none" stroke="black" stroke-width="0.5"/>
<path d="M422.22 481.37L430.02 467.86"
fill="none" stroke="black" stroke-width="0.5"/>
<path d="M355.8 563.76L356.53 562.49"
fill="none" stroke="black" stroke-width="0.5"/>
<path d="M364.34 548.97L372.15 535.45"
fill="none" stroke="black" stroke-width="0.5"/>
<path d="M379.95 521.93L387.76 508.41"
fill="none" stroke="black" stroke-width="0.5"/>
<path d="M395.56 494.89L403.37 481.37"
fill="none" stroke="black" stroke-width="0.5"/>
<path d="M411.17 467.86L418.98 454.34"
fill="none" stroke="black" stroke-width="0.5"/>
<path d="M426.78 440.82L431.2 433.16"
fill="none" stroke="black" stroke-width="0.5"/>
<path d="M355.8 531.11L361.1 521.93"
fill="none" stroke="black" stroke-width="0.5"/>
<path d="M368.91 508.41L376.71 494.89"
fill="none" stroke="black" stroke-width="0.5"/>
<path d="M384.52 481.37L392.32 467.86"
fill="none" stroke="black" stroke-width="0.5"/>
<path d="M400.13 454.34L407.93 440.82"
fill="none" stroke="black" stroke-width="0.5"/>
<path d="M415.74 427.3L423.54 413.78"
fill="none" stroke="black" stroke-width="0.5"/>
<path d="M357.86 494.89L365.67 481.37"
fill="none" stroke="black" stroke-width="0.5"/>
<path d="M373.47 467.86L381.28 454.34"
fill="none" stroke="black" stroke-width="0.5"/>
<path d="M389.08 440.82L396.89 427.3"
fill="none" stroke="black" stroke-width="0.5"/>
<path d="M404.69 413.78L412.5 400.26"
fill="none" stroke="black" stroke-width="0.5"/>
<path d="M420.3 386.74L428.11 373.22"
fill="none" stroke="black" stroke-width="0.5"/>
<path d="M362.43 454.34L370.23 440.82"
fill="none" stroke="black" stroke-width="0.5"/>
<path d="M378.04 427.3L385.84 413.78"
fill="none" stroke="black" stroke-width="0.5"/>
<path d="M393.65 400.26L401.45 386.74"
fill="none" stroke="black" stroke-width="0.5"/>
<path d="M409.26 373.22L417.06 359.7"
fill="none" stroke="black" stroke-width="0.5"/>
<path d="M424.87 346.18L431.2 335.21"
fill="none" stroke="black" stroke-width="0.5"/>
<path d="M355.8 433.17L359.19 427.3"
fill="none" stroke="black" stroke-width="0.5"/>
<path d="M366.99 413.78L374.8 400.26"
fill="none" stroke="black" stroke-width="0.5"/>
<path d="M382.6 386.74L390.41 373.22"
fill="none" stroke="black" stroke-width="0.5"/>
<path d="M398.21 359.7L406.02 346.18"
fill="none" stroke="black" stroke-width="0.5"/>
<path d="M413.82 332.66L421.63 319.14"
fill="none" stroke="black" stroke-width="0.5"/>
<path d="M429.43 305.63L431.2 302.56"
fill="none" stroke="black" stroke-width="0.5"/>
<path d="M355.95 400.26L363.75 386.74"
fill="none" stroke="black" stroke-width="0.5"/>
<path d="M371.56 373.22L379.36 359.7"
fill="none" stroke="black" stroke-width="0.5"/>
<path d="M387.17 346.18L394.97 332.66"
fill="none" stroke="black" stroke-width="0.5"/>
<path d="M402.78 319.14L410.58 305.63"
fill="none" stroke="black" stroke-width="0.5"/>
<path d="M418.39 292.11L426.19 278.59"
fill="none" stroke="black" stroke-width="0.5"/>
<path d="M360.51 359.7L368.32 346.18"
fill="none" stroke="black" stroke-width="0.5"/>
<path d="M376.12 332.66L383.93 319.14"
fill="none" stroke="black" stroke-width="0.5"/>
<path d="M391.73 305.63L399.54 292.11"
fill="none" stroke="black" stroke-width="0.5"/>
<path d="M407.34 278.59L415.15 265.07"
fill="none" stroke="black" stroke-width="0.5"/>
<path d="M422.95 251.55L430.76 238.03"
fill="none" stroke="black" stroke-width="0.5"/>
<path d="M355.8 335.22L357.27 332.66"
fill="none" stroke="black" stroke-width="0.5"/>
<path d="M365.08 319.14L372.88 305.63"
fill="none" stroke="black" stroke-width="0.5"/>
<path d="M380.69 292.11L388.49 278.59"
fill="none" stroke="black" stroke-width="0.5"/>
<path d="M396.3 265.07L404.1 251.55"
fill="none" stroke="black" stroke-width="0.5"/>
<path d="M411.91 238.03L419.71 224.51"
fill="none" stroke="black" stroke-width="0.5"/>
<path d="M427.52 210.99L431.2 204.61"
fill="none" stroke="black" stroke-width="0.5"/>
<path d="M355.8 302.57L361.84 292.11"
fill="none" stroke="black" stroke-width="0.5"/>
<path d="M369.64 278.59L377.45 265.07"
fill="none" stroke="black" stroke-width="0.5"/>
<path d="M385.25 251.55L393.06 238.03"
fill="none" stroke="black" stroke-width="0.5"/>
<path d="M400.86 224.51L408.67 210.99"
fill="none" stroke="black" stroke-width="0.5"/>
<path d="M416.48 197.47L424.28 183.95"
fill="none" stroke="black" stroke-width="0.5"/>
<path d="M358.6 265.07L366.4 251.55"
fill="none" stroke="black" stroke-width="0.5"/>
<path d="M374.21 238.03L382.01 224.51"
fill="none" stroke="black" stroke-width="0.5"/>
<path d="M389.82 210.99L397.62 197.47"
fill="none" stroke="black" stroke-width="0.5"/>
<path d="M405.43 183.95L413.24 170.43"
fill="none" stroke="black" stroke-width="0.5"/>
<path d="M421.04 156.91L428.85 143.39"
fill="none" stroke="black" stroke-width="0.5"/>
<path d="M363.16 224.51L370.97 210.99"
fill="none" stroke="black" stroke-width="0.5"/>
<path d="M378.77 197.47L386.58 183.95"
fill="none" stroke="black" stroke-width="0.5"/>
<path d="M394.38 170.43L402.19 156.91"
fill="none" stroke="black" stroke-width="0.5"/>
<path d="M410 143.39L417.8 129.88"
fill="none" stroke="black" stroke-width="0.5"/>
<path d="M425.61 116.36L431.2 106.66"
fill="none" stroke="black" stroke-width="0.5"/>
<path d="M355.8 204.62L359.92 197.47"
fill="none" stroke="black" stroke-width="0.5"/>
<path d="M367.73 183.95L375.53 170.43"
fill="none" stroke="black" stroke-width="0.5"/>
<path d="M383.34 156.91L391.14 143.39"
fill="none" stroke="black" stroke-width="0.5"/>
<path d="M398.95 129.88L406.76 116.36"
fill="none" stroke="black" stroke-width="0.5"/>
<path d="M414.56 102.84L422.37 89.32"
fill="none" stroke="black" stroke-width="0.5"/>
<path d="M430.17 75.8L431.2 74.01"
fill="none" stroke="black" stroke-width="0.5"/>
<path d="M356.68 170.43L364.49 156.91"
fill="none" stroke="black" stroke-width="0.5"/>
<path d="M372.3 143.39L380.1 129.88"
fill="none" stroke="black" stroke-width="0.5"/>
<path d="M387.91 116.36L395.71 102.84"
fill="none" stroke="black" stroke-width="0.5"/>
<path d="M403.52 89.32L411.32 75.8"
fill="none" stroke="black" stroke-width="0.5"/>
<path d="M419.13 62.28L426.93 48.76"
fill="none" stroke="black" stroke-width="0.5"/>
<path d="M361.25 129.88L369.06 116.36"
fill="none" stroke="black" stroke-width="0.5"/>
<path d="M376.86 102.84L384.67 89.32"
fill="none" stroke="black" stroke-width="0.5"/>
<path d="M392.47 75.8L400.28 62.28"
fill="none" stroke="black" stroke-width="0.5"/>
<path d="M408.08 48.76L415.89 35.24"
fill="none" stroke="black" stroke-width="0.5"/>
<path d="M423.69 21.72L431.2 8.72"
fill="none" stroke="black" stroke-width="0.5"/>
<path d="M355.8 106.67L358.01 102.84"
fill="none" stroke="black" stroke-width="0.5"/>
<path d="M365.82 89.32L373.62 75.8"
fill="none" stroke="black" stroke-width="0.5"/>
<path d="M381.43 62.28L389.23 48.76"
fill="none" stroke="black" stroke-width="0.5"/>
<path d="M397.04 35.24L404.84 21.72"
fill="none" stroke="black" stroke-width="0.5"/>
<path d="M412.65 8.2L416.55 1.44"
fill="none" stroke="black" stroke-width="0.5"/>
<path d="M355.8 74.02L362.58 62.28"
fill="none" stroke="black" stroke-width="0.5"/>
<path d="M370.38 48.76L378.19 35.24"
fill="none" stroke="black" stroke-width="0.5"/>
<path d="M385.99 21.72L393.8 8.2"
fill="none" stroke="black" stroke-width="0.5"/>
<path d="M359.34 35.24L367.14 21.72"
fill="none" stroke="black" stroke-width="0.5"/>
<path d="M374.95 8.2L378.85 1.44"
fill="none" stroke="black" stroke-width="0.5"/>
<path d="M355.8 8.72L356.1 8.2"
fill="none" stroke="black" stroke-width="0.5"/>
</svg>
