<?xml version="1.0" encoding="UTF-8"?>
<svg xmlns="http://www.w3.org/2000/svg" width="99.949mm" height="99.949mm" viewBox="0.0 0.0 787.000 787.000" preserveAspectRatio="none" version="1.1">
  <title>Produce by Acme CAD Converter</title>
  <desc>Produce by Acme CAD Converter</desc>
<path d="M449.51 785.56L561.52 673.54"
fill="none" stroke="black" stroke-width="0.5"/>
<path d="M673.54 561.52L785.56 449.51"
fill="none" stroke="black" stroke-width="0.5"/>
<path d="M1.44 785.56L113.46 673.54"
fill="none" stroke="black" stroke-width="0.5"/>
<path d="M225.48 561.52L337.49 449.51"
fill="none" stroke="black" stroke-width="0.5"/>
<path d="M449.51 337.49L561.52 225.48"
fill="none" stroke="black" stroke-width="0.5"/>
<path d="M673.54 113.46L785.56 1.44"
fill="none" stroke="black" stroke-width="0.5"/>
<path d="M1.44 337.49L113.46 225.48"
fill="none" stroke="black" stroke-width="0.5"/>
<path d="M225.48 113.46L337.49 1.44"
fill="none" stroke="black" stroke-width="0.5"/>
<path d="M785.56 113.46L673.54 1.44"
fill="none" stroke="black" stroke-width="0.5"/>
<path d="M785.56 561.52L673.54 449.51"
fill="none" stroke="black" stroke-width="0.5"/>
<path d="M561.52 337.49L449.51 225.48"
fill="none" stroke="black" stroke-width="0.5"/>
<path d="M337.49 113.46L225.48 1.44"
fill="none" stroke="black" stroke-width="0.5"/>
<path d="M561.52 785.56L449.51 673.54"
fill="none" stroke="black" stroke-width="0.5"/>
<path d="M337.49 561.52L225.48 449.51"
fill="none" stroke="black" stroke-width="0.5"/>
<path d="M113.46 337.49L1.44 225.48"
fill="none" stroke="black" stroke-width="0.5"/>
<path d="M113.46 785.56L1.44 673.54"
fill="none" stroke="black" stroke-width="0.5"/>
</svg>
