<?xml version="1.0" encoding="UTF-8"?>
<svg xmlns="http://www.w3.org/2000/svg" width="99.949mm" height="99.949mm" viewBox="0.0 0.0 787.000 787.000" preserveAspectRatio="none" version="1.1">
  <title>Produce by Acme CAD Converter</title>
  <desc>Produce by Acme CAD Converter</desc>
<path d="M167.18 761.05L223.77 761.05"
fill="none" stroke="black" stroke-width="0.5"/>
<path d="M393.54 761.05L450.12 761.05"
fill="none" stroke="black" stroke-width="0.5"/>
<path d="M619.89 761.05L619.91 761.05"
fill="none" stroke="black" stroke-width="0.5"/>
<path d="M223.77 663.04L280.36 663.04"
fill="none" stroke="black" stroke-width="0.5"/>
<path d="M450.12 663.04L506.71 663.04"
fill="none" stroke="black" stroke-width="0.5"/>
<path d="M280.36 565.03L336.95 565.03"
fill="none" stroke="black" stroke-width="0.5"/>
<path d="M506.71 565.03L563.3 565.03"
fill="none" stroke="black" stroke-width="0.5"/>
<path d="M167.09 467.01L167.18 467.01"
fill="none" stroke="black" stroke-width="0.5"/>
<path d="M336.95 467.01L393.54 467.01"
fill="none" stroke="black" stroke-width="0.5"/>
<path d="M563.3 467.01L619.89 467.01"
fill="none" stroke="black" stroke-width="0.5"/>
<path d="M167.18 369L223.77 369"
fill="none" stroke="black" stroke-width="0.5"/>
<path d="M393.54 369L450.12 369"
fill="none" stroke="black" stroke-width="0.5"/>
<path d="M619.89 369L619.91 369"
fill="none" stroke="black" stroke-width="0.5"/>
<path d="M223.77 270.98L280.36 270.98"
fill="none" stroke="black" stroke-width="0.5"/>
<path d="M450.12 270.98L506.71 270.98"
fill="none" stroke="black" stroke-width="0.5"/>
<path d="M280.36 172.97L336.95 172.97"
fill="none" stroke="black" stroke-width="0.5"/>
<path d="M506.71 172.97L563.3 172.97"
fill="none" stroke="black" stroke-width="0.5"/>
<path d="M167.09 74.95L167.18 74.95"
fill="none" stroke="black" stroke-width="0.5"/>
<path d="M336.95 74.95L393.54 74.95"
fill="none" stroke="black" stroke-width="0.5"/>
<path d="M563.3 74.95L619.89 74.95"
fill="none" stroke="black" stroke-width="0.5"/>
<path d="M619.89 761.05L619.91 761.01"
fill="none" stroke="black" stroke-width="0.5"/>
<path d="M393.54 761.05L421.83 712.05"
fill="none" stroke="black" stroke-width="0.5"/>
<path d="M450.12 663.04L478.42 614.03"
fill="none" stroke="black" stroke-width="0.5"/>
<path d="M506.71 565.03L535.01 516.02"
fill="none" stroke="black" stroke-width="0.5"/>
<path d="M563.3 467.01L591.59 418"
fill="none" stroke="black" stroke-width="0.5"/>
<path d="M619.89 369L619.91 368.95"
fill="none" stroke="black" stroke-width="0.5"/>
<path d="M167.18 761.05L195.48 712.05"
fill="none" stroke="black" stroke-width="0.5"/>
<path d="M223.77 663.04L252.06 614.03"
fill="none" stroke="black" stroke-width="0.5"/>
<path d="M280.36 565.03L308.65 516.02"
fill="none" stroke="black" stroke-width="0.5"/>
<path d="M336.95 467.01L365.24 418"
fill="none" stroke="black" stroke-width="0.5"/>
<path d="M393.54 369L421.83 319.99"
fill="none" stroke="black" stroke-width="0.5"/>
<path d="M450.12 270.98L478.42 221.97"
fill="none" stroke="black" stroke-width="0.5"/>
<path d="M506.71 172.97L535.01 123.96"
fill="none" stroke="black" stroke-width="0.5"/>
<path d="M563.3 74.95L591.59 25.95"
fill="none" stroke="black" stroke-width="0.5"/>
<path d="M167.18 369L195.48 319.99"
fill="none" stroke="black" stroke-width="0.5"/>
<path d="M223.77 270.98L252.06 221.97"
fill="none" stroke="black" stroke-width="0.5"/>
<path d="M280.36 172.97L308.65 123.96"
fill="none" stroke="black" stroke-width="0.5"/>
<path d="M336.95 74.95L365.24 25.95"
fill="none" stroke="black" stroke-width="0.5"/>
<path d="M619.89 74.95L591.59 25.95"
fill="none" stroke="black" stroke-width="0.5"/>
<path d="M563.3 172.97L535.01 123.96"
fill="none" stroke="black" stroke-width="0.5"/>
<path d="M619.89 467.01L591.59 418"
fill="none" stroke="black" stroke-width="0.5"/>
<path d="M506.71 270.98L478.42 221.97"
fill="none" stroke="black" stroke-width="0.5"/>
<path d="M393.54 74.95L365.24 25.95"
fill="none" stroke="black" stroke-width="0.5"/>
<path d="M563.3 565.03L535.01 516.02"
fill="none" stroke="black" stroke-width="0.5"/>
<path d="M450.12 369L421.83 319.99"
fill="none" stroke="black" stroke-width="0.5"/>
<path d="M336.95 172.97L308.65 123.96"
fill="none" stroke="black" stroke-width="0.5"/>
<path d="M506.71 663.04L478.42 614.03"
fill="none" stroke="black" stroke-width="0.5"/>
<path d="M393.54 467.01L365.24 418"
fill="none" stroke="black" stroke-width="0.5"/>
<path d="M280.36 270.98L252.06 221.97"
fill="none" stroke="black" stroke-width="0.5"/>
<path d="M167.18 74.95L167.09 74.79"
fill="none" stroke="black" stroke-width="0.5"/>
<path d="M450.12 761.05L421.83 712.05"
fill="none" stroke="black" stroke-width="0.5"/>
<path d="M336.95 565.03L308.65 516.02"
fill="none" stroke="black" stroke-width="0.5"/>
<path d="M223.77 369L195.48 319.99"
fill="none" stroke="black" stroke-width="0.5"/>
<path d="M280.36 663.04L252.06 614.03"
fill="none" stroke="black" stroke-width="0.5"/>
<path d="M167.18 467.01L167.09 466.85"
fill="none" stroke="black" stroke-width="0.5"/>
<path d="M223.77 761.05L195.48 712.05"
fill="none" stroke="black" stroke-width="0.5"/>
<path d="M571.79 785.56L619.91 702.2"
fill="none" stroke="black" stroke-width="0.5"/>
<path d="M458.61 785.56L619.91 506.17"
fill="none" stroke="black" stroke-width="0.5"/>
<path d="M345.43 785.56L619.91 310.14"
fill="none" stroke="black" stroke-width="0.5"/>
<path d="M232.26 785.56L619.91 114.12"
fill="none" stroke="black" stroke-width="0.5"/>
<path d="M167.09 702.41L571.79 1.44"
fill="none" stroke="black" stroke-width="0.5"/>
<path d="M167.09 506.38L458.61 1.44"
fill="none" stroke="black" stroke-width="0.5"/>
<path d="M167.09 310.35L345.43 1.44"
fill="none" stroke="black" stroke-width="0.5"/>
<path d="M167.09 114.32L232.26 1.44"
fill="none" stroke="black" stroke-width="0.5"/>
</svg>
