<?xml version="1.0" encoding="UTF-8"?>
<svg xmlns="http://www.w3.org/2000/svg" width="99.949mm" height="99.949mm" viewBox="0.0 0.0 787.000 787.000" preserveAspectRatio="none" version="1.1">
  <title>Produce by Acme CAD Converter</title>
  <desc>Produce by Acme CAD Converter</desc>
<path d="M44.43 592.54L66.83 592.54"
fill="none" stroke="black" stroke-width="0.5"/>
<path d="M492.49 592.54L514.89 592.54"
fill="none" stroke="black" stroke-width="0.5"/>
<path d="M268.46 480.53L290.86 480.53"
fill="none" stroke="black" stroke-width="0.5"/>
<path d="M716.52 480.53L738.93 480.53"
fill="none" stroke="black" stroke-width="0.5"/>
<path d="M44.43 368.51L66.83 368.51"
fill="none" stroke="black" stroke-width="0.5"/>
<path d="M492.49 368.51L514.89 368.51"
fill="none" stroke="black" stroke-width="0.5"/>
<path d="M268.46 256.5L290.86 256.5"
fill="none" stroke="black" stroke-width="0.5"/>
<path d="M716.52 256.5L738.93 256.5"
fill="none" stroke="black" stroke-width="0.5"/>
<path d="M716.52 256.5L683.24 173.29"
fill="none" stroke="black" stroke-width="0.5"/>
<path d="M716.52 480.53L683.24 397.32"
fill="none" stroke="black" stroke-width="0.5"/>
<path d="M492.49 368.51L459.21 285.31"
fill="none" stroke="black" stroke-width="0.5"/>
<path d="M492.49 592.54L459.21 509.34"
fill="none" stroke="black" stroke-width="0.5"/>
<path d="M268.46 256.5L235.18 173.29"
fill="none" stroke="black" stroke-width="0.5"/>
<path d="M268.46 480.53L235.18 397.32"
fill="none" stroke="black" stroke-width="0.5"/>
<path d="M44.43 368.51L11.14 285.31"
fill="none" stroke="black" stroke-width="0.5"/>
<path d="M44.43 592.54L11.14 509.34"
fill="none" stroke="black" stroke-width="0.5"/>
<path d="M11.14 509.34L80.67 544.1"
fill="none" stroke="black" stroke-width="0.5"/>
<path d="M11.14 285.31L80.67 320.07"
fill="none" stroke="black" stroke-width="0.5"/>
<path d="M235.18 397.32L304.7 432.09"
fill="none" stroke="black" stroke-width="0.5"/>
<path d="M459.21 509.34L528.74 544.1"
fill="none" stroke="black" stroke-width="0.5"/>
<path d="M235.18 173.29L304.7 208.05"
fill="none" stroke="black" stroke-width="0.5"/>
<path d="M459.21 285.31L528.74 320.07"
fill="none" stroke="black" stroke-width="0.5"/>
<path d="M683.24 397.32L752.77 432.09"
fill="none" stroke="black" stroke-width="0.5"/>
<path d="M683.24 173.29L752.77 208.05"
fill="none" stroke="black" stroke-width="0.5"/>
<path d="M103.76 239.26L42.19 300.83"
fill="none" stroke="black" stroke-width="0.5"/>
<path d="M285.57 169.47L266.22 188.81"
fill="none" stroke="black" stroke-width="0.5"/>
<path d="M103.76 463.3L42.19 524.86"
fill="none" stroke="black" stroke-width="0.5"/>
<path d="M327.79 351.28L266.22 412.85"
fill="none" stroke="black" stroke-width="0.5"/>
<path d="M551.82 239.26L490.26 300.83"
fill="none" stroke="black" stroke-width="0.5"/>
<path d="M733.64 169.47L714.29 188.81"
fill="none" stroke="black" stroke-width="0.5"/>
<path d="M327.79 575.31L285.57 617.53"
fill="none" stroke="black" stroke-width="0.5"/>
<path d="M551.82 463.3L490.26 524.86"
fill="none" stroke="black" stroke-width="0.5"/>
<path d="M775.86 351.28L714.29 412.85"
fill="none" stroke="black" stroke-width="0.5"/>
<path d="M775.86 575.31L733.64 617.53"
fill="none" stroke="black" stroke-width="0.5"/>
<path d="M763.79 617.53L775.86 575.31"
fill="none" stroke="black" stroke-width="0.5"/>
<path d="M738.93 480.53L775.86 351.28"
fill="none" stroke="black" stroke-width="0.5"/>
<path d="M738.93 256.5L763.79 169.47"
fill="none" stroke="black" stroke-width="0.5"/>
<path d="M514.89 592.54L551.82 463.3"
fill="none" stroke="black" stroke-width="0.5"/>
<path d="M514.89 368.51L551.82 239.26"
fill="none" stroke="black" stroke-width="0.5"/>
<path d="M315.72 617.53L327.79 575.31"
fill="none" stroke="black" stroke-width="0.5"/>
<path d="M290.86 480.53L327.79 351.28"
fill="none" stroke="black" stroke-width="0.5"/>
<path d="M290.86 256.5L315.72 169.47"
fill="none" stroke="black" stroke-width="0.5"/>
<path d="M66.83 592.54L103.76 463.3"
fill="none" stroke="black" stroke-width="0.5"/>
<path d="M66.83 368.51L103.76 239.26"
fill="none" stroke="black" stroke-width="0.5"/>
<path d="M225.48 527.92L337.49 527.92"
fill="none" stroke="black" stroke-width="0.5"/>
<path d="M673.54 527.92L785.56 527.92"
fill="none" stroke="black" stroke-width="0.5"/>
<path d="M1.44 415.9L113.46 415.9"
fill="none" stroke="black" stroke-width="0.5"/>
<path d="M449.51 415.9L561.52 415.9"
fill="none" stroke="black" stroke-width="0.5"/>
<path d="M225.48 303.89L337.49 303.89"
fill="none" stroke="black" stroke-width="0.5"/>
<path d="M673.54 303.89L785.56 303.89"
fill="none" stroke="black" stroke-width="0.5"/>
<path d="M1.44 191.87L113.46 191.87"
fill="none" stroke="black" stroke-width="0.5"/>
<path d="M449.51 191.87L561.52 191.87"
fill="none" stroke="black" stroke-width="0.5"/>
</svg>
