<?xml version="1.0" encoding="UTF-8"?>
<svg xmlns="http://www.w3.org/2000/svg" width="99.949mm" height="99.949mm" viewBox="0.0 0.0 787.000 787.000" preserveAspectRatio="none" version="1.1">
  <title>Produce by Acme CAD Converter</title>
  <desc>Produce by Acme CAD Converter</desc>
<path d="M633.16 589.53L698.5 393.5"
fill="none" stroke="black" stroke-width="0.5"/>
<path d="M437.13 785.56L502.48 589.53"
fill="none" stroke="black" stroke-width="0.5"/>
<path d="M633.16 197.47L698.5 1.44"
fill="none" stroke="black" stroke-width="0.5"/>
<path d="M437.13 393.5L502.48 197.47"
fill="none" stroke="black" stroke-width="0.5"/>
<path d="M241.1 589.53L306.45 393.5"
fill="none" stroke="black" stroke-width="0.5"/>
<path d="M437.13 1.44L437.13 1.44"
fill="none" stroke="black" stroke-width="0.5"/>
<path d="M45.07 785.56L110.42 589.53"
fill="none" stroke="black" stroke-width="0.5"/>
<path d="M241.1 197.47L306.45 1.44"
fill="none" stroke="black" stroke-width="0.5"/>
<path d="M45.07 393.5L110.42 197.47"
fill="none" stroke="black" stroke-width="0.5"/>
<path d="M45.07 1.44L45.07 1.44"
fill="none" stroke="black" stroke-width="0.5"/>
<path d="M722.91 9.57L698.5 1.44"
fill="none" stroke="black" stroke-width="0.5"/>
<path d="M330.87 9.59L306.45 1.44"
fill="none" stroke="black" stroke-width="0.5"/>
<path d="M526.9 205.62L477.89 189.28"
fill="none" stroke="black" stroke-width="0.5"/>
<path d="M722.93 401.65L673.92 385.31"
fill="none" stroke="black" stroke-width="0.5"/>
<path d="M134.87 205.63L85.86 189.29"
fill="none" stroke="black" stroke-width="0.5"/>
<path d="M330.9 401.65L281.89 385.31"
fill="none" stroke="black" stroke-width="0.5"/>
<path d="M526.92 597.68L477.92 581.34"
fill="none" stroke="black" stroke-width="0.5"/>
<path d="M698.5 785.56L673.95 777.37"
fill="none" stroke="black" stroke-width="0.5"/>
<path d="M134.9 597.69L85.89 581.35"
fill="none" stroke="black" stroke-width="0.5"/>
<path d="M306.45 785.56L281.92 777.38"
fill="none" stroke="black" stroke-width="0.5"/>
<path d="M134.92 597.7L189.71 652.49"
fill="none" stroke="black" stroke-width="0.5"/>
<path d="M134.92 205.64L189.71 260.43"
fill="none" stroke="black" stroke-width="0.5"/>
<path d="M330.95 401.67L385.74 456.46"
fill="none" stroke="black" stroke-width="0.5"/>
<path d="M526.98 597.7L581.77 652.49"
fill="none" stroke="black" stroke-width="0.5"/>
<path d="M330.95 9.61L385.74 64.4"
fill="none" stroke="black" stroke-width="0.5"/>
<path d="M526.98 205.64L581.77 260.43"
fill="none" stroke="black" stroke-width="0.5"/>
<path d="M723.01 401.67L777.79 456.46"
fill="none" stroke="black" stroke-width="0.5"/>
<path d="M723.01 9.61L777.79 64.4"
fill="none" stroke="black" stroke-width="0.5"/>
<path d="M224.77 1.44L205.23 4.23"
fill="none" stroke="black" stroke-width="0.5"/>
<path d="M616.82 1.44L597.29 4.23"
fill="none" stroke="black" stroke-width="0.5"/>
<path d="M85.92 189.3L9.21 200.26"
fill="none" stroke="black" stroke-width="0.5"/>
<path d="M477.97 189.3L401.26 200.26"
fill="none" stroke="black" stroke-width="0.5"/>
<path d="M281.94 385.33L205.23 396.29"
fill="none" stroke="black" stroke-width="0.5"/>
<path d="M674 385.33L597.29 396.29"
fill="none" stroke="black" stroke-width="0.5"/>
<path d="M85.92 581.36L9.21 592.32"
fill="none" stroke="black" stroke-width="0.5"/>
<path d="M477.97 581.36L401.26 592.32"
fill="none" stroke="black" stroke-width="0.5"/>
<path d="M281.94 777.39L224.77 785.56"
fill="none" stroke="black" stroke-width="0.5"/>
<path d="M674 777.39L616.82 785.56"
fill="none" stroke="black" stroke-width="0.5"/>
</svg>
