<?xml version="1.0" encoding="UTF-8"?>
<svg xmlns="http://www.w3.org/2000/svg" width="99.949mm" height="99.949mm" viewBox="0.0 0.0 787.000 787.000" preserveAspectRatio="none" version="1.1">
  <title>Produce by Acme CAD Converter</title>
  <desc>Produce by Acme CAD Converter</desc>
<path d="M687.64 785.56L785.56 687.64"
fill="none" stroke="black" stroke-width="0.5"/>
<path d="M491.59 785.56L785.56 491.59"
fill="none" stroke="black" stroke-width="0.5"/>
<path d="M295.53 785.56L785.56 295.53"
fill="none" stroke="black" stroke-width="0.5"/>
<path d="M99.47 785.56L785.56 99.47"
fill="none" stroke="black" stroke-width="0.5"/>
<path d="M1.44 687.53L687.53 1.44"
fill="none" stroke="black" stroke-width="0.5"/>
<path d="M1.44 491.47L491.47 1.44"
fill="none" stroke="black" stroke-width="0.5"/>
<path d="M1.44 295.41L295.41 1.44"
fill="none" stroke="black" stroke-width="0.5"/>
<path d="M1.44 99.36L99.36 1.44"
fill="none" stroke="black" stroke-width="0.5"/>
<path d="M589.62 785.56L785.56 589.62"
fill="none" stroke="black" stroke-width="0.5"/>
<path d="M197.5 785.56L785.56 197.5"
fill="none" stroke="black" stroke-width="0.5"/>
<path d="M1.44 589.5L589.5 1.44"
fill="none" stroke="black" stroke-width="0.5"/>
<path d="M1.44 197.38L197.38 1.44"
fill="none" stroke="black" stroke-width="0.5"/>
<path d="M1.44 687.5L99.48 785.54"
fill="none" stroke="black" stroke-width="0.5"/>
<path d="M99.48 785.54L99.5 785.56"
fill="none" stroke="black" stroke-width="0.5"/>
<path d="M1.44 491.44L197.52 687.52"
fill="none" stroke="black" stroke-width="0.5"/>
<path d="M197.52 687.52L295.56 785.56"
fill="none" stroke="black" stroke-width="0.5"/>
<path d="M1.44 295.38L295.55 589.48"
fill="none" stroke="black" stroke-width="0.5"/>
<path d="M295.55 589.48L491.62 785.56"
fill="none" stroke="black" stroke-width="0.5"/>
<path d="M1.44 99.32L393.57 491.45"
fill="none" stroke="black" stroke-width="0.5"/>
<path d="M393.57 491.45L687.68 785.56"
fill="none" stroke="black" stroke-width="0.5"/>
<path d="M99.62 1.44L491.6 393.43"
fill="none" stroke="black" stroke-width="0.5"/>
<path d="M491.6 393.43L785.56 687.38"
fill="none" stroke="black" stroke-width="0.5"/>
<path d="M295.68 1.44L589.63 295.4"
fill="none" stroke="black" stroke-width="0.5"/>
<path d="M589.63 295.4L785.56 491.32"
fill="none" stroke="black" stroke-width="0.5"/>
<path d="M491.74 1.44L687.66 197.37"
fill="none" stroke="black" stroke-width="0.5"/>
<path d="M687.66 197.37L785.56 295.26"
fill="none" stroke="black" stroke-width="0.5"/>
<path d="M687.79 1.44L785.56 99.21"
fill="none" stroke="black" stroke-width="0.5"/>
<path d="M1.44 785.53L1.47 785.56"
fill="none" stroke="black" stroke-width="0.5"/>
<path d="M1.44 393.41L295.55 687.52"
fill="none" stroke="black" stroke-width="0.5"/>
<path d="M295.55 687.52L393.59 785.56"
fill="none" stroke="black" stroke-width="0.5"/>
<path d="M1.59 1.44L491.6 491.45"
fill="none" stroke="black" stroke-width="0.5"/>
<path d="M491.6 491.45L785.56 785.41"
fill="none" stroke="black" stroke-width="0.5"/>
<path d="M393.71 1.44L687.66 295.4"
fill="none" stroke="black" stroke-width="0.5"/>
<path d="M687.66 295.4L785.56 393.29"
fill="none" stroke="black" stroke-width="0.5"/>
<path d="M393.56 785.56L442.59 736.53"
fill="none" stroke="black" stroke-width="0.5"/>
<path d="M540.62 638.5L638.65 540.47"
fill="none" stroke="black" stroke-width="0.5"/>
<path d="M736.67 442.44L785.56 393.56"
fill="none" stroke="black" stroke-width="0.5"/>
<path d="M1.44 785.56L50.47 736.53"
fill="none" stroke="black" stroke-width="0.5"/>
<path d="M148.5 638.5L246.53 540.47"
fill="none" stroke="black" stroke-width="0.5"/>
<path d="M344.56 442.44L442.59 344.41"
fill="none" stroke="black" stroke-width="0.5"/>
<path d="M540.62 246.38L638.65 148.35"
fill="none" stroke="black" stroke-width="0.5"/>
<path d="M736.67 50.33L785.56 1.44"
fill="none" stroke="black" stroke-width="0.5"/>
<path d="M1.44 393.44L50.47 344.41"
fill="none" stroke="black" stroke-width="0.5"/>
<path d="M148.5 246.38L246.53 148.35"
fill="none" stroke="black" stroke-width="0.5"/>
<path d="M344.56 50.33L393.44 1.44"
fill="none" stroke="black" stroke-width="0.5"/>
<path d="M1.44 589.47L50.47 638.5"
fill="none" stroke="black" stroke-width="0.5"/>
<path d="M148.5 736.53L197.53 785.56"
fill="none" stroke="black" stroke-width="0.5"/>
<path d="M1.44 197.35L50.47 246.38"
fill="none" stroke="black" stroke-width="0.5"/>
<path d="M148.5 344.41L246.53 442.44"
fill="none" stroke="black" stroke-width="0.5"/>
<path d="M344.56 540.47L442.59 638.5"
fill="none" stroke="black" stroke-width="0.5"/>
<path d="M540.62 736.53L589.65 785.56"
fill="none" stroke="black" stroke-width="0.5"/>
<path d="M197.65 1.44L246.53 50.33"
fill="none" stroke="black" stroke-width="0.5"/>
<path d="M344.56 148.35L442.59 246.38"
fill="none" stroke="black" stroke-width="0.5"/>
<path d="M540.62 344.41L638.65 442.44"
fill="none" stroke="black" stroke-width="0.5"/>
<path d="M736.67 540.47L785.56 589.35"
fill="none" stroke="black" stroke-width="0.5"/>
<path d="M589.76 1.44L638.65 50.33"
fill="none" stroke="black" stroke-width="0.5"/>
<path d="M736.67 148.35L785.56 197.24"
fill="none" stroke="black" stroke-width="0.5"/>
<path d="M83.19 687.52L104.11 687.52"
fill="none" stroke="black" stroke-width="0.5"/>
<path d="M475.31 687.52L496.22 687.52"
fill="none" stroke="black" stroke-width="0.5"/>
<path d="M279.25 491.45L300.17 491.45"
fill="none" stroke="black" stroke-width="0.5"/>
<path d="M671.36 491.45L692.28 491.45"
fill="none" stroke="black" stroke-width="0.5"/>
<path d="M83.19 295.4L104.11 295.4"
fill="none" stroke="black" stroke-width="0.5"/>
<path d="M475.31 295.4L496.22 295.4"
fill="none" stroke="black" stroke-width="0.5"/>
<path d="M279.25 99.34L300.17 99.34"
fill="none" stroke="black" stroke-width="0.5"/>
<path d="M671.36 99.34L692.28 99.34"
fill="none" stroke="black" stroke-width="0.5"/>
<path d="M83.19 656.14L125.03 656.14"
fill="none" stroke="black" stroke-width="0.5"/>
<path d="M475.31 656.14L517.14 656.14"
fill="none" stroke="black" stroke-width="0.5"/>
<path d="M279.25 460.08L321.08 460.08"
fill="none" stroke="black" stroke-width="0.5"/>
<path d="M671.36 460.08L713.2 460.08"
fill="none" stroke="black" stroke-width="0.5"/>
<path d="M83.19 264.02L125.03 264.02"
fill="none" stroke="black" stroke-width="0.5"/>
<path d="M475.31 264.02L517.14 264.02"
fill="none" stroke="black" stroke-width="0.5"/>
<path d="M279.25 67.96L321.08 67.96"
fill="none" stroke="black" stroke-width="0.5"/>
<path d="M671.36 67.96L713.2 67.96"
fill="none" stroke="black" stroke-width="0.5"/>
<path d="M671.36 522.83L671.36 460.08"
fill="none" stroke="black" stroke-width="0.5"/>
<path d="M671.36 130.71L671.36 67.96"
fill="none" stroke="black" stroke-width="0.5"/>
<path d="M475.31 718.89L475.31 656.14"
fill="none" stroke="black" stroke-width="0.5"/>
<path d="M475.31 326.78L475.31 264.02"
fill="none" stroke="black" stroke-width="0.5"/>
<path d="M279.25 522.83L279.25 460.08"
fill="none" stroke="black" stroke-width="0.5"/>
<path d="M279.25 130.71L279.25 67.96"
fill="none" stroke="black" stroke-width="0.5"/>
<path d="M83.19 718.89L83.19 656.14"
fill="none" stroke="black" stroke-width="0.5"/>
<path d="M83.19 326.78L83.19 264.02"
fill="none" stroke="black" stroke-width="0.5"/>
</svg>
