<?xml version="1.0" encoding="UTF-8"?>
<svg xmlns="http://www.w3.org/2000/svg" width="99.949mm" height="99.949mm" viewBox="0.0 0.0 787.000 787.000" preserveAspectRatio="none" version="1.1">
  <title>Produce by Acme CAD Converter</title>
  <desc>Produce by Acme CAD Converter</desc>
<path d="M1.44 714.27L144.01 714.27"
fill="none" stroke="black" stroke-width="0.5"/>
<path d="M429.14 714.27L571.71 714.27"
fill="none" stroke="black" stroke-width="0.5"/>
<path d="M215.29 500.42L357.86 500.42"
fill="none" stroke="black" stroke-width="0.5"/>
<path d="M642.99 500.42L785.56 500.42"
fill="none" stroke="black" stroke-width="0.5"/>
<path d="M1.44 286.58L144.01 286.58"
fill="none" stroke="black" stroke-width="0.5"/>
<path d="M429.14 286.58L571.71 286.58"
fill="none" stroke="black" stroke-width="0.5"/>
<path d="M215.29 72.73L357.86 72.73"
fill="none" stroke="black" stroke-width="0.5"/>
<path d="M642.99 72.73L785.56 72.73"
fill="none" stroke="black" stroke-width="0.5"/>
<path d="M714.27 571.71L714.27 429.14"
fill="none" stroke="black" stroke-width="0.5"/>
<path d="M714.27 144.01L714.27 1.44"
fill="none" stroke="black" stroke-width="0.5"/>
<path d="M500.42 785.56L500.42 642.99"
fill="none" stroke="black" stroke-width="0.5"/>
<path d="M500.42 357.86L500.42 215.29"
fill="none" stroke="black" stroke-width="0.5"/>
<path d="M286.58 571.71L286.58 429.14"
fill="none" stroke="black" stroke-width="0.5"/>
<path d="M286.58 144.01L286.58 1.44"
fill="none" stroke="black" stroke-width="0.5"/>
<path d="M72.73 785.56L72.73 642.99"
fill="none" stroke="black" stroke-width="0.5"/>
<path d="M72.73 357.86L72.73 215.29"
fill="none" stroke="black" stroke-width="0.5"/>
</svg>
