<?xml version="1.0" encoding="UTF-8"?>
<svg xmlns="http://www.w3.org/2000/svg" width="99.949mm" height="99.949mm" viewBox="0.0 0.0 787.000 787.000" preserveAspectRatio="none" version="1.1">
  <title>Produce by Acme CAD Converter</title>
  <desc>Produce by Acme CAD Converter</desc>
<path d="M25.94 221.39L4.5 248.96"
fill="none" stroke="black" stroke-width="0.5"/>
<path d="M221.98 25.36L200.54 52.93"
fill="none" stroke="black" stroke-width="0.5"/>
<path d="M123.96 319.41L102.52 346.98"
fill="none" stroke="black" stroke-width="0.5"/>
<path d="M319.99 123.38L298.55 150.94"
fill="none" stroke="black" stroke-width="0.5"/>
<path d="M25.94 613.45L4.5 641.02"
fill="none" stroke="black" stroke-width="0.5"/>
<path d="M221.98 417.42L200.54 444.99"
fill="none" stroke="black" stroke-width="0.5"/>
<path d="M418.01 221.39L396.57 248.96"
fill="none" stroke="black" stroke-width="0.5"/>
<path d="M614.04 25.36L592.59 52.93"
fill="none" stroke="black" stroke-width="0.5"/>
<path d="M123.96 711.47L102.52 739.03"
fill="none" stroke="black" stroke-width="0.5"/>
<path d="M319.99 515.44L298.55 543"
fill="none" stroke="black" stroke-width="0.5"/>
<path d="M516.02 319.41L494.58 346.98"
fill="none" stroke="black" stroke-width="0.5"/>
<path d="M712.05 123.38L690.61 150.94"
fill="none" stroke="black" stroke-width="0.5"/>
<path d="M418.01 613.45L396.57 641.02"
fill="none" stroke="black" stroke-width="0.5"/>
<path d="M614.04 417.42L592.59 444.99"
fill="none" stroke="black" stroke-width="0.5"/>
<path d="M516.02 711.47L494.58 739.03"
fill="none" stroke="black" stroke-width="0.5"/>
<path d="M712.05 515.44L690.61 543"
fill="none" stroke="black" stroke-width="0.5"/>
<path d="M622.2 785L638.54 735.97"
fill="none" stroke="black" stroke-width="0.5"/>
<path d="M712.05 515.44L736.56 441.93"
fill="none" stroke="black" stroke-width="0.5"/>
<path d="M516.02 711.47L540.53 637.95"
fill="none" stroke="black" stroke-width="0.5"/>
<path d="M614.04 417.42L638.54 343.91"
fill="none" stroke="black" stroke-width="0.5"/>
<path d="M712.05 123.38L736.56 49.86"
fill="none" stroke="black" stroke-width="0.5"/>
<path d="M418.01 613.45L442.51 539.94"
fill="none" stroke="black" stroke-width="0.5"/>
<path d="M516.02 319.41L540.53 245.9"
fill="none" stroke="black" stroke-width="0.5"/>
<path d="M614.04 25.36L621.83 2"
fill="none" stroke="black" stroke-width="0.5"/>
<path d="M230.14 785L246.48 735.97"
fill="none" stroke="black" stroke-width="0.5"/>
<path d="M319.99 515.44L344.5 441.93"
fill="none" stroke="black" stroke-width="0.5"/>
<path d="M418.01 221.39L442.51 147.88"
fill="none" stroke="black" stroke-width="0.5"/>
<path d="M123.96 711.47L148.47 637.95"
fill="none" stroke="black" stroke-width="0.5"/>
<path d="M221.98 417.42L246.48 343.91"
fill="none" stroke="black" stroke-width="0.5"/>
<path d="M319.99 123.38L344.5 49.86"
fill="none" stroke="black" stroke-width="0.5"/>
<path d="M25.94 613.45L50.45 539.94"
fill="none" stroke="black" stroke-width="0.5"/>
<path d="M123.96 319.41L148.47 245.9"
fill="none" stroke="black" stroke-width="0.5"/>
<path d="M221.98 25.36L229.76 2"
fill="none" stroke="black" stroke-width="0.5"/>
<path d="M25.94 221.39L50.45 147.88"
fill="none" stroke="black" stroke-width="0.5"/>
<path d="M638.54 735.97L659.98 708.4"
fill="none" stroke="black" stroke-width="0.5"/>
<path d="M736.56 441.93L758 414.36"
fill="none" stroke="black" stroke-width="0.5"/>
<path d="M540.53 637.95L561.97 610.39"
fill="none" stroke="black" stroke-width="0.5"/>
<path d="M638.54 343.91L659.98 316.34"
fill="none" stroke="black" stroke-width="0.5"/>
<path d="M442.51 539.94L463.95 512.38"
fill="none" stroke="black" stroke-width="0.5"/>
<path d="M246.48 735.97L267.92 708.4"
fill="none" stroke="black" stroke-width="0.5"/>
<path d="M736.56 49.86L758 22.3"
fill="none" stroke="black" stroke-width="0.5"/>
<path d="M540.53 245.9L561.97 218.33"
fill="none" stroke="black" stroke-width="0.5"/>
<path d="M344.5 441.93L365.94 414.36"
fill="none" stroke="black" stroke-width="0.5"/>
<path d="M148.47 637.95L169.9 610.39"
fill="none" stroke="black" stroke-width="0.5"/>
<path d="M442.51 147.88L463.95 120.31"
fill="none" stroke="black" stroke-width="0.5"/>
<path d="M246.48 343.91L267.92 316.34"
fill="none" stroke="black" stroke-width="0.5"/>
<path d="M50.45 539.94L71.89 512.38"
fill="none" stroke="black" stroke-width="0.5"/>
<path d="M344.5 49.86L365.94 22.3"
fill="none" stroke="black" stroke-width="0.5"/>
<path d="M148.47 245.9L169.9 218.33"
fill="none" stroke="black" stroke-width="0.5"/>
<path d="M50.45 147.88L71.89 120.31"
fill="none" stroke="black" stroke-width="0.5"/>
<path d="M99.46 98.87L71.89 120.31"
fill="none" stroke="black" stroke-width="0.5"/>
<path d="M392.04 2L365.94 22.3"
fill="none" stroke="black" stroke-width="0.5"/>
<path d="M197.47 196.89L169.9 218.33"
fill="none" stroke="black" stroke-width="0.5"/>
<path d="M491.52 98.87L463.95 120.31"
fill="none" stroke="black" stroke-width="0.5"/>
<path d="M295.49 294.9L267.92 316.34"
fill="none" stroke="black" stroke-width="0.5"/>
<path d="M99.46 490.93L71.89 512.38"
fill="none" stroke="black" stroke-width="0.5"/>
<path d="M784.1 2L758 22.3"
fill="none" stroke="black" stroke-width="0.5"/>
<path d="M589.53 196.89L561.97 218.33"
fill="none" stroke="black" stroke-width="0.5"/>
<path d="M393.51 392.92L365.94 414.36"
fill="none" stroke="black" stroke-width="0.5"/>
<path d="M197.47 588.95L169.9 610.39"
fill="none" stroke="black" stroke-width="0.5"/>
<path d="M687.55 294.9L659.98 316.34"
fill="none" stroke="black" stroke-width="0.5"/>
<path d="M491.52 490.93L463.95 512.38"
fill="none" stroke="black" stroke-width="0.5"/>
<path d="M295.49 686.96L267.92 708.4"
fill="none" stroke="black" stroke-width="0.5"/>
<path d="M785.56 392.92L758 414.36"
fill="none" stroke="black" stroke-width="0.5"/>
<path d="M589.53 588.95L561.97 610.39"
fill="none" stroke="black" stroke-width="0.5"/>
<path d="M393.51 784.98L393.47 785"
fill="none" stroke="black" stroke-width="0.5"/>
<path d="M687.55 686.96L659.98 708.4"
fill="none" stroke="black" stroke-width="0.5"/>
<path d="M785.56 784.99L785.54 785"
fill="none" stroke="black" stroke-width="0.5"/>
<path d="M393.51 784.98L467.02 760.47"
fill="none" stroke="black" stroke-width="0.5"/>
<path d="M687.55 686.96L761.06 662.46"
fill="none" stroke="black" stroke-width="0.5"/>
<path d="M1.44 784.98L74.95 760.47"
fill="none" stroke="black" stroke-width="0.5"/>
<path d="M295.49 686.96L369 662.46"
fill="none" stroke="black" stroke-width="0.5"/>
<path d="M589.53 588.95L663.04 564.44"
fill="none" stroke="black" stroke-width="0.5"/>
<path d="M197.47 588.95L270.99 564.44"
fill="none" stroke="black" stroke-width="0.5"/>
<path d="M491.52 490.93L565.03 466.43"
fill="none" stroke="black" stroke-width="0.5"/>
<path d="M99.46 490.93L172.97 466.43"
fill="none" stroke="black" stroke-width="0.5"/>
<path d="M393.51 392.92L467.02 368.42"
fill="none" stroke="black" stroke-width="0.5"/>
<path d="M687.55 294.9L761.06 270.4"
fill="none" stroke="black" stroke-width="0.5"/>
<path d="M1.44 392.92L74.95 368.42"
fill="none" stroke="black" stroke-width="0.5"/>
<path d="M295.49 294.9L369 270.4"
fill="none" stroke="black" stroke-width="0.5"/>
<path d="M589.53 196.89L663.04 172.38"
fill="none" stroke="black" stroke-width="0.5"/>
<path d="M197.47 196.89L270.99 172.38"
fill="none" stroke="black" stroke-width="0.5"/>
<path d="M491.52 98.87L565.03 74.37"
fill="none" stroke="black" stroke-width="0.5"/>
<path d="M99.46 98.87L172.97 74.37"
fill="none" stroke="black" stroke-width="0.5"/>
<path d="M761.06 662.46L785.56 643.41"
fill="none" stroke="black" stroke-width="0.5"/>
<path d="M467.02 760.47L494.58 739.03"
fill="none" stroke="black" stroke-width="0.5"/>
<path d="M663.04 564.44L690.61 543"
fill="none" stroke="black" stroke-width="0.5"/>
<path d="M369 662.46L396.57 641.02"
fill="none" stroke="black" stroke-width="0.5"/>
<path d="M565.03 466.43L592.59 444.99"
fill="none" stroke="black" stroke-width="0.5"/>
<path d="M761.06 270.4L785.56 251.35"
fill="none" stroke="black" stroke-width="0.5"/>
<path d="M74.95 760.47L102.52 739.03"
fill="none" stroke="black" stroke-width="0.5"/>
<path d="M270.99 564.44L298.55 543"
fill="none" stroke="black" stroke-width="0.5"/>
<path d="M467.02 368.42L494.58 346.98"
fill="none" stroke="black" stroke-width="0.5"/>
<path d="M663.04 172.38L690.61 150.94"
fill="none" stroke="black" stroke-width="0.5"/>
<path d="M1.44 643.4L4.5 641.02"
fill="none" stroke="black" stroke-width="0.5"/>
<path d="M172.97 466.43L200.54 444.99"
fill="none" stroke="black" stroke-width="0.5"/>
<path d="M369 270.4L396.57 248.96"
fill="none" stroke="black" stroke-width="0.5"/>
<path d="M565.03 74.37L592.59 52.93"
fill="none" stroke="black" stroke-width="0.5"/>
<path d="M74.95 368.42L102.52 346.98"
fill="none" stroke="black" stroke-width="0.5"/>
<path d="M270.99 172.38L298.55 150.94"
fill="none" stroke="black" stroke-width="0.5"/>
<path d="M1.44 251.34L4.5 248.96"
fill="none" stroke="black" stroke-width="0.5"/>
<path d="M172.97 74.37L200.54 52.93"
fill="none" stroke="black" stroke-width="0.5"/>
<path d="M70.08 276.67L63.27 285.43"
fill="none" stroke="black" stroke-width="0.5"/>
<path d="M266.11 80.64L259.3 89.39"
fill="none" stroke="black" stroke-width="0.5"/>
<path d="M70.08 668.73L63.27 677.48"
fill="none" stroke="black" stroke-width="0.5"/>
<path d="M266.11 472.7L259.3 481.45"
fill="none" stroke="black" stroke-width="0.5"/>
<path d="M462.14 276.67L455.33 285.43"
fill="none" stroke="black" stroke-width="0.5"/>
<path d="M658.17 80.64L651.36 89.39"
fill="none" stroke="black" stroke-width="0.5"/>
<path d="M462.14 668.73L455.33 677.48"
fill="none" stroke="black" stroke-width="0.5"/>
<path d="M658.17 472.7L651.36 481.45"
fill="none" stroke="black" stroke-width="0.5"/>
<path d="M673.55 434.93L677.05 424.42"
fill="none" stroke="black" stroke-width="0.5"/>
<path d="M477.51 630.96L481.02 620.45"
fill="none" stroke="black" stroke-width="0.5"/>
<path d="M673.55 42.87L677.05 32.35"
fill="none" stroke="black" stroke-width="0.5"/>
<path d="M477.51 238.91L481.02 228.38"
fill="none" stroke="black" stroke-width="0.5"/>
<path d="M281.48 434.93L284.99 424.42"
fill="none" stroke="black" stroke-width="0.5"/>
<path d="M85.45 630.96L88.96 620.45"
fill="none" stroke="black" stroke-width="0.5"/>
<path d="M281.48 42.87L284.99 32.35"
fill="none" stroke="black" stroke-width="0.5"/>
<path d="M85.45 238.91L88.96 228.38"
fill="none" stroke="black" stroke-width="0.5"/>
<path d="M692.42 778.71L699.23 769.95"
fill="none" stroke="black" stroke-width="0.5"/>
<path d="M692.42 386.65L699.23 377.89"
fill="none" stroke="black" stroke-width="0.5"/>
<path d="M496.4 582.68L503.21 573.93"
fill="none" stroke="black" stroke-width="0.5"/>
<path d="M300.37 778.71L307.18 769.95"
fill="none" stroke="black" stroke-width="0.5"/>
<path d="M496.4 190.62L503.21 181.86"
fill="none" stroke="black" stroke-width="0.5"/>
<path d="M300.37 386.65L307.18 377.89"
fill="none" stroke="black" stroke-width="0.5"/>
<path d="M104.33 582.68L111.14 573.93"
fill="none" stroke="black" stroke-width="0.5"/>
<path d="M104.33 190.62L111.14 181.86"
fill="none" stroke="black" stroke-width="0.5"/>
<path d="M142.19 152.76L133.44 159.57"
fill="none" stroke="black" stroke-width="0.5"/>
<path d="M534.25 152.76L525.5 159.57"
fill="none" stroke="black" stroke-width="0.5"/>
<path d="M338.23 348.79L329.47 355.6"
fill="none" stroke="black" stroke-width="0.5"/>
<path d="M142.19 544.82L133.44 551.63"
fill="none" stroke="black" stroke-width="0.5"/>
<path d="M730.28 348.79L721.53 355.6"
fill="none" stroke="black" stroke-width="0.5"/>
<path d="M534.25 544.82L525.5 551.63"
fill="none" stroke="black" stroke-width="0.5"/>
<path d="M338.23 740.85L329.47 747.66"
fill="none" stroke="black" stroke-width="0.5"/>
<path d="M730.28 740.85L721.53 747.66"
fill="none" stroke="black" stroke-width="0.5"/>
<path d="M768.05 725.48L778.57 721.97"
fill="none" stroke="black" stroke-width="0.5"/>
<path d="M375.99 725.48L386.51 721.97"
fill="none" stroke="black" stroke-width="0.5"/>
<path d="M572.02 529.44L582.54 525.94"
fill="none" stroke="black" stroke-width="0.5"/>
<path d="M179.96 529.44L190.48 525.94"
fill="none" stroke="black" stroke-width="0.5"/>
<path d="M768.05 333.41L778.57 329.9"
fill="none" stroke="black" stroke-width="0.5"/>
<path d="M375.99 333.41L386.51 329.9"
fill="none" stroke="black" stroke-width="0.5"/>
<path d="M572.02 137.38L582.54 133.88"
fill="none" stroke="black" stroke-width="0.5"/>
<path d="M179.96 137.38L190.48 133.88"
fill="none" stroke="black" stroke-width="0.5"/>
<path d="M424.28 706.59L433.03 699.78"
fill="none" stroke="black" stroke-width="0.5"/>
<path d="M620.31 510.56L629.06 503.75"
fill="none" stroke="black" stroke-width="0.5"/>
<path d="M32.22 706.59L40.97 699.78"
fill="none" stroke="black" stroke-width="0.5"/>
<path d="M228.25 510.56L237 503.75"
fill="none" stroke="black" stroke-width="0.5"/>
<path d="M424.28 314.53L433.03 307.72"
fill="none" stroke="black" stroke-width="0.5"/>
<path d="M620.31 118.5L629.06 111.69"
fill="none" stroke="black" stroke-width="0.5"/>
<path d="M32.22 314.53L40.97 307.72"
fill="none" stroke="black" stroke-width="0.5"/>
<path d="M228.25 118.5L237 111.69"
fill="none" stroke="black" stroke-width="0.5"/>
</svg>
