<?xml version="1.0" encoding="UTF-8"?>
<svg xmlns="http://www.w3.org/2000/svg" width="99.949mm" height="99.949mm" viewBox="0.0 0.0 787.000 787.000" preserveAspectRatio="none" version="1.1">
  <title>Produce by Acme CAD Converter</title>
  <desc>Produce by Acme CAD Converter</desc>
<path d="M1.44 733.28L105.99 733.28"
fill="none" stroke="black" stroke-width="0.5"/>
<path d="M454.49 733.28L559.04 733.28"
fill="none" stroke="black" stroke-width="0.5"/>
<path d="M227.96 506.76L332.51 506.76"
fill="none" stroke="black" stroke-width="0.5"/>
<path d="M681.01 506.76L785.56 506.76"
fill="none" stroke="black" stroke-width="0.5"/>
<path d="M1.44 280.24L105.99 280.24"
fill="none" stroke="black" stroke-width="0.5"/>
<path d="M454.49 280.24L559.04 280.24"
fill="none" stroke="black" stroke-width="0.5"/>
<path d="M227.96 53.72L332.51 53.72"
fill="none" stroke="black" stroke-width="0.5"/>
<path d="M681.01 53.72L785.56 53.72"
fill="none" stroke="black" stroke-width="0.5"/>
<path d="M733.28 559.04L733.28 454.49"
fill="none" stroke="black" stroke-width="0.5"/>
<path d="M733.28 105.99L733.28 1.44"
fill="none" stroke="black" stroke-width="0.5"/>
<path d="M506.76 785.56L506.76 681.01"
fill="none" stroke="black" stroke-width="0.5"/>
<path d="M506.76 332.51L506.76 227.96"
fill="none" stroke="black" stroke-width="0.5"/>
<path d="M280.24 559.04L280.24 454.49"
fill="none" stroke="black" stroke-width="0.5"/>
<path d="M280.24 105.99L280.24 1.44"
fill="none" stroke="black" stroke-width="0.5"/>
<path d="M53.72 785.56L53.72 681.01"
fill="none" stroke="black" stroke-width="0.5"/>
<path d="M53.72 332.51L53.72 227.96"
fill="none" stroke="black" stroke-width="0.5"/>
</svg>
