<?xml version="1.0" encoding="UTF-8"?>
<svg xmlns="http://www.w3.org/2000/svg" width="99.949mm" height="99.949mm" viewBox="0.0 0.0 787.000 787.000" preserveAspectRatio="none" version="1.1">
  <title>Produce by Acme CAD Converter</title>
  <desc>Produce by Acme CAD Converter</desc>
<path d="M98.31 785.56L165.95 785.56"
fill="none" stroke="black" stroke-width="0.5"/>
<path d="M621.05 785.56L688.69 785.56"
fill="none" stroke="black" stroke-width="0.5"/>
<path d="M98.31 524.19L165.95 524.19"
fill="none" stroke="black" stroke-width="0.5"/>
<path d="M621.05 524.19L688.69 524.19"
fill="none" stroke="black" stroke-width="0.5"/>
<path d="M98.31 262.81L165.95 262.81"
fill="none" stroke="black" stroke-width="0.5"/>
<path d="M621.05 262.81L688.69 262.81"
fill="none" stroke="black" stroke-width="0.5"/>
<path d="M98.31 1.44L165.95 1.44"
fill="none" stroke="black" stroke-width="0.5"/>
<path d="M621.05 1.44L688.69 1.44"
fill="none" stroke="black" stroke-width="0.5"/>
<path d="M785.56 688.69L785.56 621.05"
fill="none" stroke="black" stroke-width="0.5"/>
<path d="M785.56 165.95L785.56 98.31"
fill="none" stroke="black" stroke-width="0.5"/>
<path d="M524.19 688.69L524.19 621.05"
fill="none" stroke="black" stroke-width="0.5"/>
<path d="M524.19 165.95L524.19 98.31"
fill="none" stroke="black" stroke-width="0.5"/>
<path d="M262.81 688.69L262.81 621.05"
fill="none" stroke="black" stroke-width="0.5"/>
<path d="M262.81 165.95L262.81 98.31"
fill="none" stroke="black" stroke-width="0.5"/>
<path d="M1.44 688.69L1.44 621.05"
fill="none" stroke="black" stroke-width="0.5"/>
<path d="M1.44 165.95L1.44 98.31"
fill="none" stroke="black" stroke-width="0.5"/>
<path d="M688.69 785.56L750.34 750.34"
fill="none" stroke="black" stroke-width="0.5"/>
<path d="M165.95 785.56L227.6 750.34"
fill="none" stroke="black" stroke-width="0.5"/>
<path d="M688.69 262.81L750.34 227.6"
fill="none" stroke="black" stroke-width="0.5"/>
<path d="M165.95 262.81L227.6 227.6"
fill="none" stroke="black" stroke-width="0.5"/>
<path d="M262.81 165.95L227.6 227.6"
fill="none" stroke="black" stroke-width="0.5"/>
<path d="M262.81 688.69L227.6 750.34"
fill="none" stroke="black" stroke-width="0.5"/>
<path d="M785.56 165.95L750.34 227.6"
fill="none" stroke="black" stroke-width="0.5"/>
<path d="M785.56 688.69L750.34 750.34"
fill="none" stroke="black" stroke-width="0.5"/>
<path d="M785.56 98.31L750.34 36.66"
fill="none" stroke="black" stroke-width="0.5"/>
<path d="M785.56 621.05L750.34 559.4"
fill="none" stroke="black" stroke-width="0.5"/>
<path d="M262.81 98.31L227.6 36.66"
fill="none" stroke="black" stroke-width="0.5"/>
<path d="M262.81 621.05L227.6 559.4"
fill="none" stroke="black" stroke-width="0.5"/>
<path d="M165.95 524.19L227.6 559.4"
fill="none" stroke="black" stroke-width="0.5"/>
<path d="M688.69 524.19L750.34 559.4"
fill="none" stroke="black" stroke-width="0.5"/>
<path d="M165.95 1.44L227.6 36.66"
fill="none" stroke="black" stroke-width="0.5"/>
<path d="M688.69 1.44L750.34 36.66"
fill="none" stroke="black" stroke-width="0.5"/>
<path d="M98.31 1.44L36.66 36.66"
fill="none" stroke="black" stroke-width="0.5"/>
<path d="M621.05 1.44L559.4 36.66"
fill="none" stroke="black" stroke-width="0.5"/>
<path d="M98.31 524.19L36.66 559.4"
fill="none" stroke="black" stroke-width="0.5"/>
<path d="M621.05 524.19L559.4 559.4"
fill="none" stroke="black" stroke-width="0.5"/>
<path d="M524.19 621.05L559.4 559.4"
fill="none" stroke="black" stroke-width="0.5"/>
<path d="M524.19 98.31L559.4 36.66"
fill="none" stroke="black" stroke-width="0.5"/>
<path d="M1.44 621.05L36.66 559.4"
fill="none" stroke="black" stroke-width="0.5"/>
<path d="M1.44 98.31L36.66 36.66"
fill="none" stroke="black" stroke-width="0.5"/>
<path d="M1.44 688.69L36.66 750.34"
fill="none" stroke="black" stroke-width="0.5"/>
<path d="M1.44 165.95L36.66 227.6"
fill="none" stroke="black" stroke-width="0.5"/>
<path d="M524.19 688.69L559.4 750.34"
fill="none" stroke="black" stroke-width="0.5"/>
<path d="M524.19 165.95L559.4 227.6"
fill="none" stroke="black" stroke-width="0.5"/>
<path d="M621.05 262.81L559.4 227.6"
fill="none" stroke="black" stroke-width="0.5"/>
<path d="M98.31 262.81L36.66 227.6"
fill="none" stroke="black" stroke-width="0.5"/>
<path d="M621.05 785.56L559.4 750.34"
fill="none" stroke="black" stroke-width="0.5"/>
<path d="M98.31 785.56L36.66 750.34"
fill="none" stroke="black" stroke-width="0.5"/>
</svg>
