<?xml version="1.0" encoding="UTF-8"?>
<svg xmlns="http://www.w3.org/2000/svg" width="99.949mm" height="99.949mm" viewBox="0.0 0.0 787.000 787.000" preserveAspectRatio="none" version="1.1">
  <title>Produce by Acme CAD Converter</title>
  <desc>Produce by Acme CAD Converter</desc>
<path d="M98.3 785.56L165.96 785.56"
fill="none" stroke="black" stroke-width="0.5"/>
<path d="M621.04 785.56L688.7 785.56"
fill="none" stroke="black" stroke-width="0.5"/>
<path d="M98.3 524.19L165.96 524.19"
fill="none" stroke="black" stroke-width="0.5"/>
<path d="M621.04 524.19L688.7 524.19"
fill="none" stroke="black" stroke-width="0.5"/>
<path d="M98.3 262.81L165.96 262.81"
fill="none" stroke="black" stroke-width="0.5"/>
<path d="M621.04 262.81L688.7 262.81"
fill="none" stroke="black" stroke-width="0.5"/>
<path d="M98.3 1.44L165.96 1.44"
fill="none" stroke="black" stroke-width="0.5"/>
<path d="M621.04 1.44L688.7 1.44"
fill="none" stroke="black" stroke-width="0.5"/>
<path d="M785.56 688.7L785.56 621.04"
fill="none" stroke="black" stroke-width="0.5"/>
<path d="M785.56 165.96L785.56 98.3"
fill="none" stroke="black" stroke-width="0.5"/>
<path d="M524.19 688.7L524.19 621.04"
fill="none" stroke="black" stroke-width="0.5"/>
<path d="M524.19 165.96L524.19 98.3"
fill="none" stroke="black" stroke-width="0.5"/>
<path d="M262.81 688.7L262.81 621.04"
fill="none" stroke="black" stroke-width="0.5"/>
<path d="M262.81 165.96L262.81 98.3"
fill="none" stroke="black" stroke-width="0.5"/>
<path d="M1.44 688.7L1.44 621.04"
fill="none" stroke="black" stroke-width="0.5"/>
<path d="M1.44 165.96L1.44 98.3"
fill="none" stroke="black" stroke-width="0.5"/>
<path d="M688.7 785.56L750.34 750.34"
fill="none" stroke="black" stroke-width="0.5"/>
<path d="M165.96 785.56L227.59 750.34"
fill="none" stroke="black" stroke-width="0.5"/>
<path d="M688.7 262.81L750.34 227.59"
fill="none" stroke="black" stroke-width="0.5"/>
<path d="M165.96 262.81L227.59 227.59"
fill="none" stroke="black" stroke-width="0.5"/>
<path d="M262.81 165.96L227.59 227.59"
fill="none" stroke="black" stroke-width="0.5"/>
<path d="M262.81 688.7L227.59 750.34"
fill="none" stroke="black" stroke-width="0.5"/>
<path d="M785.56 165.96L750.34 227.59"
fill="none" stroke="black" stroke-width="0.5"/>
<path d="M785.56 688.7L750.34 750.34"
fill="none" stroke="black" stroke-width="0.5"/>
<path d="M785.56 98.3L750.34 36.66"
fill="none" stroke="black" stroke-width="0.5"/>
<path d="M785.56 621.04L750.34 559.41"
fill="none" stroke="black" stroke-width="0.5"/>
<path d="M262.81 98.3L227.59 36.66"
fill="none" stroke="black" stroke-width="0.5"/>
<path d="M262.81 621.04L227.59 559.41"
fill="none" stroke="black" stroke-width="0.5"/>
<path d="M165.96 524.19L227.59 559.41"
fill="none" stroke="black" stroke-width="0.5"/>
<path d="M688.7 524.19L750.34 559.41"
fill="none" stroke="black" stroke-width="0.5"/>
<path d="M165.96 1.44L227.59 36.66"
fill="none" stroke="black" stroke-width="0.5"/>
<path d="M688.7 1.44L750.34 36.66"
fill="none" stroke="black" stroke-width="0.5"/>
<path d="M98.3 1.44L36.66 36.66"
fill="none" stroke="black" stroke-width="0.5"/>
<path d="M621.04 1.44L559.41 36.66"
fill="none" stroke="black" stroke-width="0.5"/>
<path d="M98.3 524.19L36.66 559.41"
fill="none" stroke="black" stroke-width="0.5"/>
<path d="M621.04 524.19L559.41 559.41"
fill="none" stroke="black" stroke-width="0.5"/>
<path d="M524.19 621.04L559.41 559.41"
fill="none" stroke="black" stroke-width="0.5"/>
<path d="M524.19 98.3L559.41 36.66"
fill="none" stroke="black" stroke-width="0.5"/>
<path d="M1.44 621.04L36.66 559.41"
fill="none" stroke="black" stroke-width="0.5"/>
<path d="M1.44 98.3L36.66 36.66"
fill="none" stroke="black" stroke-width="0.5"/>
<path d="M1.44 688.7L36.66 750.34"
fill="none" stroke="black" stroke-width="0.5"/>
<path d="M1.44 165.96L36.66 227.59"
fill="none" stroke="black" stroke-width="0.5"/>
<path d="M524.19 688.7L559.41 750.34"
fill="none" stroke="black" stroke-width="0.5"/>
<path d="M524.19 165.96L559.41 227.59"
fill="none" stroke="black" stroke-width="0.5"/>
<path d="M621.04 262.81L559.41 227.59"
fill="none" stroke="black" stroke-width="0.5"/>
<path d="M98.3 262.81L36.66 227.59"
fill="none" stroke="black" stroke-width="0.5"/>
<path d="M621.04 785.56L559.41 750.34"
fill="none" stroke="black" stroke-width="0.5"/>
<path d="M98.3 785.56L36.66 750.34"
fill="none" stroke="black" stroke-width="0.5"/>
</svg>
