<?xml version="1.0" encoding="UTF-8"?>
<svg xmlns="http://www.w3.org/2000/svg" width="99.949mm" height="99.949mm" viewBox="0.0 0.0 787.000 787.000" preserveAspectRatio="none" version="1.1">
  <title>Produce by Acme CAD Converter</title>
  <desc>Produce by Acme CAD Converter</desc>
<path d="M69.07 733.26L90.72 733.26"
fill="none" stroke="black" stroke-width="0.5"/>
<path d="M487.18 733.26L508.82 733.26"
fill="none" stroke="black" stroke-width="0.5"/>
<path d="M278.12 524.21L299.77 524.21"
fill="none" stroke="black" stroke-width="0.5"/>
<path d="M696.23 524.21L717.87 524.21"
fill="none" stroke="black" stroke-width="0.5"/>
<path d="M69.07 315.15L90.72 315.15"
fill="none" stroke="black" stroke-width="0.5"/>
<path d="M487.18 315.15L508.82 315.15"
fill="none" stroke="black" stroke-width="0.5"/>
<path d="M278.12 106.1L299.77 106.1"
fill="none" stroke="black" stroke-width="0.5"/>
<path d="M696.23 106.1L717.87 106.1"
fill="none" stroke="black" stroke-width="0.5"/>
<path d="M69.07 681L90.72 681"
fill="none" stroke="black" stroke-width="0.5"/>
<path d="M487.18 681L508.82 681"
fill="none" stroke="black" stroke-width="0.5"/>
<path d="M278.12 471.94L299.77 471.94"
fill="none" stroke="black" stroke-width="0.5"/>
<path d="M696.23 471.94L717.87 471.94"
fill="none" stroke="black" stroke-width="0.5"/>
<path d="M69.07 262.89L90.72 262.89"
fill="none" stroke="black" stroke-width="0.5"/>
<path d="M487.18 262.89L508.82 262.89"
fill="none" stroke="black" stroke-width="0.5"/>
<path d="M278.12 53.84L299.77 53.84"
fill="none" stroke="black" stroke-width="0.5"/>
<path d="M696.23 53.84L717.87 53.84"
fill="none" stroke="black" stroke-width="0.5"/>
<path d="M680.92 508.9L680.92 487.25"
fill="none" stroke="black" stroke-width="0.5"/>
<path d="M680.92 90.79L680.92 69.15"
fill="none" stroke="black" stroke-width="0.5"/>
<path d="M471.87 717.95L471.87 696.31"
fill="none" stroke="black" stroke-width="0.5"/>
<path d="M471.87 299.84L471.87 278.2"
fill="none" stroke="black" stroke-width="0.5"/>
<path d="M262.81 508.9L262.81 487.25"
fill="none" stroke="black" stroke-width="0.5"/>
<path d="M262.81 90.79L262.81 69.15"
fill="none" stroke="black" stroke-width="0.5"/>
<path d="M53.76 717.95L53.76 696.31"
fill="none" stroke="black" stroke-width="0.5"/>
<path d="M53.76 299.84L53.76 278.2"
fill="none" stroke="black" stroke-width="0.5"/>
<path d="M733.18 508.9L733.18 487.25"
fill="none" stroke="black" stroke-width="0.5"/>
<path d="M733.18 90.79L733.18 69.15"
fill="none" stroke="black" stroke-width="0.5"/>
<path d="M524.13 717.95L524.13 696.31"
fill="none" stroke="black" stroke-width="0.5"/>
<path d="M524.13 299.84L524.13 278.2"
fill="none" stroke="black" stroke-width="0.5"/>
<path d="M315.08 508.9L315.08 487.25"
fill="none" stroke="black" stroke-width="0.5"/>
<path d="M315.08 90.79L315.08 69.15"
fill="none" stroke="black" stroke-width="0.5"/>
<path d="M106.02 717.95L106.02 696.31"
fill="none" stroke="black" stroke-width="0.5"/>
<path d="M106.02 299.84L106.02 278.2"
fill="none" stroke="black" stroke-width="0.5"/>
<path d="M508.82 733.26L524.13 717.95"
fill="none" stroke="black" stroke-width="0.5"/>
<path d="M717.87 524.21L733.18 508.9"
fill="none" stroke="black" stroke-width="0.5"/>
<path d="M90.72 733.26L106.02 717.95"
fill="none" stroke="black" stroke-width="0.5"/>
<path d="M299.77 524.21L315.08 508.9"
fill="none" stroke="black" stroke-width="0.5"/>
<path d="M508.82 315.15L524.13 299.84"
fill="none" stroke="black" stroke-width="0.5"/>
<path d="M717.87 106.1L733.18 90.79"
fill="none" stroke="black" stroke-width="0.5"/>
<path d="M90.72 315.15L106.02 299.84"
fill="none" stroke="black" stroke-width="0.5"/>
<path d="M299.77 106.1L315.08 90.79"
fill="none" stroke="black" stroke-width="0.5"/>
<path d="M90.72 681L106.02 696.31"
fill="none" stroke="black" stroke-width="0.5"/>
<path d="M90.72 262.89L106.02 278.2"
fill="none" stroke="black" stroke-width="0.5"/>
<path d="M299.77 471.94L315.08 487.25"
fill="none" stroke="black" stroke-width="0.5"/>
<path d="M508.82 681L524.13 696.31"
fill="none" stroke="black" stroke-width="0.5"/>
<path d="M299.77 53.84L315.08 69.15"
fill="none" stroke="black" stroke-width="0.5"/>
<path d="M508.82 262.89L524.13 278.2"
fill="none" stroke="black" stroke-width="0.5"/>
<path d="M717.87 471.94L733.18 487.25"
fill="none" stroke="black" stroke-width="0.5"/>
<path d="M717.87 53.84L733.18 69.15"
fill="none" stroke="black" stroke-width="0.5"/>
<path d="M278.12 53.84L262.81 69.15"
fill="none" stroke="black" stroke-width="0.5"/>
<path d="M69.07 262.89L53.76 278.2"
fill="none" stroke="black" stroke-width="0.5"/>
<path d="M696.23 53.84L680.92 69.15"
fill="none" stroke="black" stroke-width="0.5"/>
<path d="M487.18 262.89L471.87 278.2"
fill="none" stroke="black" stroke-width="0.5"/>
<path d="M278.12 471.94L262.81 487.25"
fill="none" stroke="black" stroke-width="0.5"/>
<path d="M69.07 681L53.76 696.31"
fill="none" stroke="black" stroke-width="0.5"/>
<path d="M696.23 471.94L680.92 487.25"
fill="none" stroke="black" stroke-width="0.5"/>
<path d="M487.18 681L471.87 696.31"
fill="none" stroke="black" stroke-width="0.5"/>
<path d="M696.23 106.1L680.92 90.79"
fill="none" stroke="black" stroke-width="0.5"/>
<path d="M696.23 524.21L680.92 508.9"
fill="none" stroke="black" stroke-width="0.5"/>
<path d="M487.18 315.15L471.87 299.84"
fill="none" stroke="black" stroke-width="0.5"/>
<path d="M278.12 106.1L262.81 90.79"
fill="none" stroke="black" stroke-width="0.5"/>
<path d="M487.18 733.26L471.87 717.95"
fill="none" stroke="black" stroke-width="0.5"/>
<path d="M278.12 524.21L262.81 508.9"
fill="none" stroke="black" stroke-width="0.5"/>
<path d="M69.07 315.15L53.76 299.84"
fill="none" stroke="black" stroke-width="0.5"/>
<path d="M69.07 733.26L53.76 717.95"
fill="none" stroke="black" stroke-width="0.5"/>
<path d="M268.65 785.52L309.24 785.52"
fill="none" stroke="black" stroke-width="0.5"/>
<path d="M686.76 785.52L727.34 785.52"
fill="none" stroke="black" stroke-width="0.5"/>
<path d="M59.6 576.47L100.19 576.47"
fill="none" stroke="black" stroke-width="0.5"/>
<path d="M477.71 576.47L518.29 576.47"
fill="none" stroke="black" stroke-width="0.5"/>
<path d="M268.65 367.42L309.24 367.42"
fill="none" stroke="black" stroke-width="0.5"/>
<path d="M686.76 367.42L727.34 367.42"
fill="none" stroke="black" stroke-width="0.5"/>
<path d="M59.6 158.36L100.19 158.36"
fill="none" stroke="black" stroke-width="0.5"/>
<path d="M477.71 158.36L518.29 158.36"
fill="none" stroke="black" stroke-width="0.5"/>
<path d="M268.65 628.73L309.24 628.73"
fill="none" stroke="black" stroke-width="0.5"/>
<path d="M686.76 628.73L727.34 628.73"
fill="none" stroke="black" stroke-width="0.5"/>
<path d="M59.6 419.68L100.19 419.68"
fill="none" stroke="black" stroke-width="0.5"/>
<path d="M477.71 419.68L518.29 419.68"
fill="none" stroke="black" stroke-width="0.5"/>
<path d="M268.65 210.63L309.24 210.63"
fill="none" stroke="black" stroke-width="0.5"/>
<path d="M686.76 210.63L727.34 210.63"
fill="none" stroke="black" stroke-width="0.5"/>
<path d="M59.6 1.58L100.19 1.58"
fill="none" stroke="black" stroke-width="0.5"/>
<path d="M477.71 1.58L518.29 1.58"
fill="none" stroke="black" stroke-width="0.5"/>
<path d="M628.66 727.42L628.66 686.84"
fill="none" stroke="black" stroke-width="0.5"/>
<path d="M628.66 309.31L628.66 268.73"
fill="none" stroke="black" stroke-width="0.5"/>
<path d="M419.6 518.37L419.6 477.78"
fill="none" stroke="black" stroke-width="0.5"/>
<path d="M419.6 100.26L419.6 59.68"
fill="none" stroke="black" stroke-width="0.5"/>
<path d="M210.55 727.42L210.55 686.84"
fill="none" stroke="black" stroke-width="0.5"/>
<path d="M210.55 309.31L210.55 268.73"
fill="none" stroke="black" stroke-width="0.5"/>
<path d="M1.5 518.37L1.5 477.78"
fill="none" stroke="black" stroke-width="0.5"/>
<path d="M1.5 100.26L1.5 59.68"
fill="none" stroke="black" stroke-width="0.5"/>
<path d="M785.45 727.42L785.45 686.84"
fill="none" stroke="black" stroke-width="0.5"/>
<path d="M785.45 309.31L785.45 268.73"
fill="none" stroke="black" stroke-width="0.5"/>
<path d="M576.39 518.37L576.39 477.78"
fill="none" stroke="black" stroke-width="0.5"/>
<path d="M576.39 100.26L576.39 59.68"
fill="none" stroke="black" stroke-width="0.5"/>
<path d="M367.34 727.42L367.34 686.84"
fill="none" stroke="black" stroke-width="0.5"/>
<path d="M367.34 309.31L367.34 268.73"
fill="none" stroke="black" stroke-width="0.5"/>
<path d="M158.29 518.37L158.29 477.78"
fill="none" stroke="black" stroke-width="0.5"/>
<path d="M158.29 100.26L158.29 59.68"
fill="none" stroke="black" stroke-width="0.5"/>
<path d="M727.31 785.54L764.28 764.41"
fill="none" stroke="black" stroke-width="0.5"/>
<path d="M309.25 785.52L346.23 764.39"
fill="none" stroke="black" stroke-width="0.5"/>
<path d="M518.32 576.45L555.29 555.32"
fill="none" stroke="black" stroke-width="0.5"/>
<path d="M727.39 367.39L764.37 346.26"
fill="none" stroke="black" stroke-width="0.5"/>
<path d="M100.26 576.43L137.24 555.29"
fill="none" stroke="black" stroke-width="0.5"/>
<path d="M309.33 367.36L346.3 346.23"
fill="none" stroke="black" stroke-width="0.5"/>
<path d="M518.4 158.3L555.38 137.17"
fill="none" stroke="black" stroke-width="0.5"/>
<path d="M100.34 158.27L137.32 137.15"
fill="none" stroke="black" stroke-width="0.5"/>
<path d="M158.23 100.35L137.1 137.33"
fill="none" stroke="black" stroke-width="0.5"/>
<path d="M158.26 518.42L137.13 555.39"
fill="none" stroke="black" stroke-width="0.5"/>
<path d="M367.32 309.34L346.19 346.32"
fill="none" stroke="black" stroke-width="0.5"/>
<path d="M576.39 100.28L555.26 137.25"
fill="none" stroke="black" stroke-width="0.5"/>
<path d="M367.35 727.4L346.22 764.38"
fill="none" stroke="black" stroke-width="0.5"/>
<path d="M576.41 518.33L555.28 555.31"
fill="none" stroke="black" stroke-width="0.5"/>
<path d="M785.47 309.27L764.35 346.24"
fill="none" stroke="black" stroke-width="0.5"/>
<path d="M785.5 727.32L764.37 764.3"
fill="none" stroke="black" stroke-width="0.5"/>
<path d="M785.56 268.92L764.42 231.94"
fill="none" stroke="black" stroke-width="0.5"/>
<path d="M576.49 59.85L555.36 22.88"
fill="none" stroke="black" stroke-width="0.5"/>
<path d="M785.53 686.98L764.4 650"
fill="none" stroke="black" stroke-width="0.5"/>
<path d="M576.46 477.91L555.33 440.93"
fill="none" stroke="black" stroke-width="0.5"/>
<path d="M367.4 268.84L346.28 231.87"
fill="none" stroke="black" stroke-width="0.5"/>
<path d="M158.34 59.78L137.22 22.8"
fill="none" stroke="black" stroke-width="0.5"/>
<path d="M367.38 686.9L346.25 649.92"
fill="none" stroke="black" stroke-width="0.5"/>
<path d="M158.32 477.83L137.19 440.86"
fill="none" stroke="black" stroke-width="0.5"/>
<path d="M309.18 628.7L346.15 649.83"
fill="none" stroke="black" stroke-width="0.5"/>
<path d="M100.1 419.64L137.08 440.77"
fill="none" stroke="black" stroke-width="0.5"/>
<path d="M727.23 628.67L764.21 649.8"
fill="none" stroke="black" stroke-width="0.5"/>
<path d="M518.17 419.61L555.14 440.74"
fill="none" stroke="black" stroke-width="0.5"/>
<path d="M309.09 210.54L346.07 231.67"
fill="none" stroke="black" stroke-width="0.5"/>
<path d="M100.03 1.48L137 22.61"
fill="none" stroke="black" stroke-width="0.5"/>
<path d="M727.15 210.52L764.13 231.65"
fill="none" stroke="black" stroke-width="0.5"/>
<path d="M518.08 1.46L555.06 22.58"
fill="none" stroke="black" stroke-width="0.5"/>
<path d="M59.76 1.48L22.79 22.61"
fill="none" stroke="black" stroke-width="0.5"/>
<path d="M477.82 1.51L440.84 22.64"
fill="none" stroke="black" stroke-width="0.5"/>
<path d="M268.75 210.57L231.78 231.7"
fill="none" stroke="black" stroke-width="0.5"/>
<path d="M59.68 419.64L22.7 440.77"
fill="none" stroke="black" stroke-width="0.5"/>
<path d="M686.81 210.6L649.83 231.73"
fill="none" stroke="black" stroke-width="0.5"/>
<path d="M477.74 419.66L440.77 440.79"
fill="none" stroke="black" stroke-width="0.5"/>
<path d="M268.67 628.73L231.69 649.85"
fill="none" stroke="black" stroke-width="0.5"/>
<path d="M686.73 628.75L649.76 649.88"
fill="none" stroke="black" stroke-width="0.5"/>
<path d="M628.71 686.75L649.84 649.77"
fill="none" stroke="black" stroke-width="0.5"/>
<path d="M628.68 268.68L649.81 231.71"
fill="none" stroke="black" stroke-width="0.5"/>
<path d="M419.62 477.76L440.75 440.78"
fill="none" stroke="black" stroke-width="0.5"/>
<path d="M210.56 686.82L231.69 649.85"
fill="none" stroke="black" stroke-width="0.5"/>
<path d="M419.6 59.7L440.72 22.72"
fill="none" stroke="black" stroke-width="0.5"/>
<path d="M210.53 268.77L231.67 231.79"
fill="none" stroke="black" stroke-width="0.5"/>
<path d="M1.47 477.83L22.6 440.86"
fill="none" stroke="black" stroke-width="0.5"/>
<path d="M1.44 59.78L22.57 22.8"
fill="none" stroke="black" stroke-width="0.5"/>
<path d="M1.53 518.42L22.65 555.39"
fill="none" stroke="black" stroke-width="0.5"/>
<path d="M210.59 727.48L231.71 764.46"
fill="none" stroke="black" stroke-width="0.5"/>
<path d="M1.55 100.35L22.68 137.33"
fill="none" stroke="black" stroke-width="0.5"/>
<path d="M210.61 309.43L231.74 346.4"
fill="none" stroke="black" stroke-width="0.5"/>
<path d="M419.67 518.49L440.8 555.47"
fill="none" stroke="black" stroke-width="0.5"/>
<path d="M628.74 727.56L649.87 764.53"
fill="none" stroke="black" stroke-width="0.5"/>
<path d="M419.7 100.44L440.83 137.41"
fill="none" stroke="black" stroke-width="0.5"/>
<path d="M628.77 309.5L649.9 346.48"
fill="none" stroke="black" stroke-width="0.5"/>
<path d="M477.5 158.25L440.53 137.12"
fill="none" stroke="black" stroke-width="0.5"/>
<path d="M686.57 367.31L649.6 346.18"
fill="none" stroke="black" stroke-width="0.5"/>
<path d="M59.45 158.27L22.47 137.15"
fill="none" stroke="black" stroke-width="0.5"/>
<path d="M268.51 367.33L231.54 346.21"
fill="none" stroke="black" stroke-width="0.5"/>
<path d="M477.58 576.4L440.61 555.27"
fill="none" stroke="black" stroke-width="0.5"/>
<path d="M686.65 785.46L649.67 764.33"
fill="none" stroke="black" stroke-width="0.5"/>
<path d="M59.52 576.43L22.55 555.29"
fill="none" stroke="black" stroke-width="0.5"/>
<path d="M268.59 785.49L231.62 764.36"
fill="none" stroke="black" stroke-width="0.5"/>
</svg>
