<?xml version="1.0" encoding="UTF-8"?>
<svg xmlns="http://www.w3.org/2000/svg" width="99.949mm" height="99.949mm" viewBox="0.0 0.0 787.000 787.000" preserveAspectRatio="none" version="1.1">
  <title>Produce by Acme CAD Converter</title>
  <desc>Produce by Acme CAD Converter</desc>
<path d="M78.01 785.56L186.25 785.56"
fill="none" stroke="black" stroke-width="0.5"/>
<path d="M600.75 785.56L708.99 785.56"
fill="none" stroke="black" stroke-width="0.5"/>
<path d="M78.01 524.19L186.25 524.19"
fill="none" stroke="black" stroke-width="0.5"/>
<path d="M600.75 524.19L708.99 524.19"
fill="none" stroke="black" stroke-width="0.5"/>
<path d="M78.01 262.81L186.25 262.81"
fill="none" stroke="black" stroke-width="0.5"/>
<path d="M600.75 262.81L708.99 262.81"
fill="none" stroke="black" stroke-width="0.5"/>
<path d="M78.01 1.44L186.25 1.44"
fill="none" stroke="black" stroke-width="0.5"/>
<path d="M600.75 1.44L708.99 1.44"
fill="none" stroke="black" stroke-width="0.5"/>
<path d="M785.56 708.99L785.56 600.75"
fill="none" stroke="black" stroke-width="0.5"/>
<path d="M785.56 186.25L785.56 78.01"
fill="none" stroke="black" stroke-width="0.5"/>
<path d="M524.19 708.99L524.19 600.75"
fill="none" stroke="black" stroke-width="0.5"/>
<path d="M524.19 186.25L524.19 78.01"
fill="none" stroke="black" stroke-width="0.5"/>
<path d="M262.81 708.99L262.81 600.75"
fill="none" stroke="black" stroke-width="0.5"/>
<path d="M262.81 186.25L262.81 78.01"
fill="none" stroke="black" stroke-width="0.5"/>
<path d="M1.44 708.99L1.44 600.75"
fill="none" stroke="black" stroke-width="0.5"/>
<path d="M1.44 186.25L1.44 78.01"
fill="none" stroke="black" stroke-width="0.5"/>
<path d="M708.99 785.56L785.56 708.99"
fill="none" stroke="black" stroke-width="0.5"/>
<path d="M186.25 785.56L262.81 708.99"
fill="none" stroke="black" stroke-width="0.5"/>
<path d="M708.99 262.81L785.56 186.25"
fill="none" stroke="black" stroke-width="0.5"/>
<path d="M186.25 262.81L262.81 186.25"
fill="none" stroke="black" stroke-width="0.5"/>
<path d="M186.25 524.19L262.81 600.75"
fill="none" stroke="black" stroke-width="0.5"/>
<path d="M186.25 1.44L262.81 78.01"
fill="none" stroke="black" stroke-width="0.5"/>
<path d="M708.99 524.19L785.56 600.75"
fill="none" stroke="black" stroke-width="0.5"/>
<path d="M708.99 1.44L785.56 78.01"
fill="none" stroke="black" stroke-width="0.5"/>
<path d="M78.01 1.44L1.44 78.01"
fill="none" stroke="black" stroke-width="0.5"/>
<path d="M600.75 1.44L524.19 78.01"
fill="none" stroke="black" stroke-width="0.5"/>
<path d="M78.01 524.19L1.44 600.75"
fill="none" stroke="black" stroke-width="0.5"/>
<path d="M600.75 524.19L524.19 600.75"
fill="none" stroke="black" stroke-width="0.5"/>
<path d="M600.75 262.81L524.19 186.25"
fill="none" stroke="black" stroke-width="0.5"/>
<path d="M600.75 785.56L524.19 708.99"
fill="none" stroke="black" stroke-width="0.5"/>
<path d="M78.01 262.81L1.44 186.25"
fill="none" stroke="black" stroke-width="0.5"/>
<path d="M78.01 785.56L1.44 708.99"
fill="none" stroke="black" stroke-width="0.5"/>
</svg>
