<?xml version="1.0" encoding="UTF-8"?>
<svg xmlns="http://www.w3.org/2000/svg" width="99.949mm" height="99.949mm" viewBox="0.0 0.0 787.000 787.000" preserveAspectRatio="none" version="1.1">
  <title>Produce by Acme CAD Converter</title>
  <desc>Produce by Acme CAD Converter</desc>
<path d="M57.97 749.92L87.49 749.92"
fill="none" stroke="black" stroke-width="0.5"/>
<path d="M485.66 749.92L515.19 749.92"
fill="none" stroke="black" stroke-width="0.5"/>
<path d="M271.81 536.07L301.34 536.07"
fill="none" stroke="black" stroke-width="0.5"/>
<path d="M699.51 536.07L729.03 536.07"
fill="none" stroke="black" stroke-width="0.5"/>
<path d="M57.97 322.22L87.49 322.22"
fill="none" stroke="black" stroke-width="0.5"/>
<path d="M485.66 322.22L515.19 322.22"
fill="none" stroke="black" stroke-width="0.5"/>
<path d="M271.81 108.37L301.34 108.37"
fill="none" stroke="black" stroke-width="0.5"/>
<path d="M699.51 108.37L729.03 108.37"
fill="none" stroke="black" stroke-width="0.5"/>
<path d="M57.97 678.63L87.49 678.63"
fill="none" stroke="black" stroke-width="0.5"/>
<path d="M485.66 678.63L515.19 678.63"
fill="none" stroke="black" stroke-width="0.5"/>
<path d="M271.81 464.78L301.34 464.78"
fill="none" stroke="black" stroke-width="0.5"/>
<path d="M699.51 464.78L729.03 464.78"
fill="none" stroke="black" stroke-width="0.5"/>
<path d="M57.97 250.93L87.49 250.93"
fill="none" stroke="black" stroke-width="0.5"/>
<path d="M485.66 250.93L515.19 250.93"
fill="none" stroke="black" stroke-width="0.5"/>
<path d="M271.81 37.08L301.34 37.08"
fill="none" stroke="black" stroke-width="0.5"/>
<path d="M699.51 37.08L729.03 37.08"
fill="none" stroke="black" stroke-width="0.5"/>
<path d="M678.63 515.19L678.63 485.66"
fill="none" stroke="black" stroke-width="0.5"/>
<path d="M678.63 87.49L678.63 57.97"
fill="none" stroke="black" stroke-width="0.5"/>
<path d="M464.78 729.03L464.78 699.51"
fill="none" stroke="black" stroke-width="0.5"/>
<path d="M464.78 301.34L464.78 271.81"
fill="none" stroke="black" stroke-width="0.5"/>
<path d="M250.93 515.19L250.93 485.66"
fill="none" stroke="black" stroke-width="0.5"/>
<path d="M250.93 87.49L250.93 57.97"
fill="none" stroke="black" stroke-width="0.5"/>
<path d="M37.08 729.03L37.08 699.51"
fill="none" stroke="black" stroke-width="0.5"/>
<path d="M37.08 301.34L37.08 271.81"
fill="none" stroke="black" stroke-width="0.5"/>
<path d="M749.92 515.19L749.92 485.66"
fill="none" stroke="black" stroke-width="0.5"/>
<path d="M749.92 87.49L749.92 57.97"
fill="none" stroke="black" stroke-width="0.5"/>
<path d="M536.07 729.03L536.07 699.51"
fill="none" stroke="black" stroke-width="0.5"/>
<path d="M536.07 301.34L536.07 271.81"
fill="none" stroke="black" stroke-width="0.5"/>
<path d="M322.22 515.19L322.22 485.66"
fill="none" stroke="black" stroke-width="0.5"/>
<path d="M322.22 87.49L322.22 57.97"
fill="none" stroke="black" stroke-width="0.5"/>
<path d="M108.37 729.03L108.37 699.51"
fill="none" stroke="black" stroke-width="0.5"/>
<path d="M108.37 301.34L108.37 271.81"
fill="none" stroke="black" stroke-width="0.5"/>
<path d="M515.19 749.92L536.07 729.03"
fill="none" stroke="black" stroke-width="0.5"/>
<path d="M729.03 536.07L749.92 515.19"
fill="none" stroke="black" stroke-width="0.5"/>
<path d="M87.49 749.92L108.37 729.03"
fill="none" stroke="black" stroke-width="0.5"/>
<path d="M301.34 536.07L322.22 515.19"
fill="none" stroke="black" stroke-width="0.5"/>
<path d="M515.19 322.22L536.07 301.34"
fill="none" stroke="black" stroke-width="0.5"/>
<path d="M729.03 108.37L749.92 87.49"
fill="none" stroke="black" stroke-width="0.5"/>
<path d="M87.49 322.22L108.37 301.34"
fill="none" stroke="black" stroke-width="0.5"/>
<path d="M301.34 108.37L322.22 87.49"
fill="none" stroke="black" stroke-width="0.5"/>
<path d="M87.49 678.63L108.37 699.51"
fill="none" stroke="black" stroke-width="0.5"/>
<path d="M87.49 250.93L108.37 271.81"
fill="none" stroke="black" stroke-width="0.5"/>
<path d="M301.34 464.78L322.22 485.66"
fill="none" stroke="black" stroke-width="0.5"/>
<path d="M515.19 678.63L536.07 699.51"
fill="none" stroke="black" stroke-width="0.5"/>
<path d="M301.34 37.08L322.22 57.97"
fill="none" stroke="black" stroke-width="0.5"/>
<path d="M515.19 250.93L536.07 271.81"
fill="none" stroke="black" stroke-width="0.5"/>
<path d="M729.03 464.78L749.92 485.66"
fill="none" stroke="black" stroke-width="0.5"/>
<path d="M729.03 37.08L749.92 57.97"
fill="none" stroke="black" stroke-width="0.5"/>
<path d="M271.81 37.08L250.93 57.97"
fill="none" stroke="black" stroke-width="0.5"/>
<path d="M57.97 250.93L37.08 271.81"
fill="none" stroke="black" stroke-width="0.5"/>
<path d="M699.51 37.08L678.63 57.97"
fill="none" stroke="black" stroke-width="0.5"/>
<path d="M485.66 250.93L464.78 271.81"
fill="none" stroke="black" stroke-width="0.5"/>
<path d="M271.81 464.78L250.93 485.66"
fill="none" stroke="black" stroke-width="0.5"/>
<path d="M57.97 678.63L37.08 699.51"
fill="none" stroke="black" stroke-width="0.5"/>
<path d="M699.51 464.78L678.63 485.66"
fill="none" stroke="black" stroke-width="0.5"/>
<path d="M485.66 678.63L464.78 699.51"
fill="none" stroke="black" stroke-width="0.5"/>
<path d="M699.51 108.37L678.63 87.49"
fill="none" stroke="black" stroke-width="0.5"/>
<path d="M699.51 536.07L678.63 515.19"
fill="none" stroke="black" stroke-width="0.5"/>
<path d="M485.66 322.22L464.78 301.34"
fill="none" stroke="black" stroke-width="0.5"/>
<path d="M271.81 108.37L250.93 87.49"
fill="none" stroke="black" stroke-width="0.5"/>
<path d="M485.66 749.92L464.78 729.03"
fill="none" stroke="black" stroke-width="0.5"/>
<path d="M271.81 536.07L250.93 515.19"
fill="none" stroke="black" stroke-width="0.5"/>
<path d="M57.97 322.22L37.08 301.34"
fill="none" stroke="black" stroke-width="0.5"/>
<path d="M57.97 749.92L37.08 729.03"
fill="none" stroke="black" stroke-width="0.5"/>
<path d="M268.13 785.56L305.02 785.56"
fill="none" stroke="black" stroke-width="0.5"/>
<path d="M695.83 785.56L732.72 785.56"
fill="none" stroke="black" stroke-width="0.5"/>
<path d="M54.28 571.71L91.17 571.71"
fill="none" stroke="black" stroke-width="0.5"/>
<path d="M481.98 571.71L518.87 571.71"
fill="none" stroke="black" stroke-width="0.5"/>
<path d="M268.13 357.86L305.02 357.86"
fill="none" stroke="black" stroke-width="0.5"/>
<path d="M695.83 357.86L732.72 357.86"
fill="none" stroke="black" stroke-width="0.5"/>
<path d="M54.28 144.01L91.17 144.01"
fill="none" stroke="black" stroke-width="0.5"/>
<path d="M481.98 144.01L518.87 144.01"
fill="none" stroke="black" stroke-width="0.5"/>
<path d="M268.13 642.99L305.02 642.99"
fill="none" stroke="black" stroke-width="0.5"/>
<path d="M695.83 642.99L732.72 642.99"
fill="none" stroke="black" stroke-width="0.5"/>
<path d="M54.28 429.14L91.17 429.14"
fill="none" stroke="black" stroke-width="0.5"/>
<path d="M481.98 429.14L518.87 429.14"
fill="none" stroke="black" stroke-width="0.5"/>
<path d="M268.13 215.29L305.02 215.29"
fill="none" stroke="black" stroke-width="0.5"/>
<path d="M695.83 215.29L732.72 215.29"
fill="none" stroke="black" stroke-width="0.5"/>
<path d="M54.28 1.44L91.17 1.44"
fill="none" stroke="black" stroke-width="0.5"/>
<path d="M481.98 1.44L518.87 1.44"
fill="none" stroke="black" stroke-width="0.5"/>
<path d="M642.99 732.72L642.99 695.83"
fill="none" stroke="black" stroke-width="0.5"/>
<path d="M642.99 305.02L642.99 268.13"
fill="none" stroke="black" stroke-width="0.5"/>
<path d="M429.14 518.87L429.14 481.98"
fill="none" stroke="black" stroke-width="0.5"/>
<path d="M429.14 91.17L429.14 54.28"
fill="none" stroke="black" stroke-width="0.5"/>
<path d="M215.29 732.72L215.29 695.83"
fill="none" stroke="black" stroke-width="0.5"/>
<path d="M215.29 305.02L215.29 268.13"
fill="none" stroke="black" stroke-width="0.5"/>
<path d="M1.44 518.87L1.44 481.98"
fill="none" stroke="black" stroke-width="0.5"/>
<path d="M1.44 91.17L1.44 54.28"
fill="none" stroke="black" stroke-width="0.5"/>
<path d="M785.56 732.72L785.56 695.83"
fill="none" stroke="black" stroke-width="0.5"/>
<path d="M785.56 305.02L785.56 268.13"
fill="none" stroke="black" stroke-width="0.5"/>
<path d="M571.71 518.87L571.71 481.98"
fill="none" stroke="black" stroke-width="0.5"/>
<path d="M571.71 91.17L571.71 54.28"
fill="none" stroke="black" stroke-width="0.5"/>
<path d="M357.86 732.72L357.86 695.83"
fill="none" stroke="black" stroke-width="0.5"/>
<path d="M357.86 305.02L357.86 268.13"
fill="none" stroke="black" stroke-width="0.5"/>
<path d="M144.01 518.87L144.01 481.98"
fill="none" stroke="black" stroke-width="0.5"/>
<path d="M144.01 91.17L144.01 54.28"
fill="none" stroke="black" stroke-width="0.5"/>
<path d="M732.72 785.56L766.35 766.35"
fill="none" stroke="black" stroke-width="0.5"/>
<path d="M305.02 785.56L338.65 766.35"
fill="none" stroke="black" stroke-width="0.5"/>
<path d="M518.87 571.71L552.5 552.5"
fill="none" stroke="black" stroke-width="0.5"/>
<path d="M732.72 357.86L766.35 338.65"
fill="none" stroke="black" stroke-width="0.5"/>
<path d="M91.17 571.71L124.8 552.5"
fill="none" stroke="black" stroke-width="0.5"/>
<path d="M305.02 357.86L338.65 338.65"
fill="none" stroke="black" stroke-width="0.5"/>
<path d="M518.87 144.01L552.5 124.8"
fill="none" stroke="black" stroke-width="0.5"/>
<path d="M91.17 144.01L124.8 124.8"
fill="none" stroke="black" stroke-width="0.5"/>
<path d="M144.01 91.17L124.8 124.8"
fill="none" stroke="black" stroke-width="0.5"/>
<path d="M144.01 518.87L124.8 552.5"
fill="none" stroke="black" stroke-width="0.5"/>
<path d="M357.86 305.02L338.65 338.65"
fill="none" stroke="black" stroke-width="0.5"/>
<path d="M571.71 91.17L552.5 124.8"
fill="none" stroke="black" stroke-width="0.5"/>
<path d="M357.86 732.72L338.65 766.35"
fill="none" stroke="black" stroke-width="0.5"/>
<path d="M571.71 518.87L552.5 552.5"
fill="none" stroke="black" stroke-width="0.5"/>
<path d="M785.56 305.02L766.35 338.65"
fill="none" stroke="black" stroke-width="0.5"/>
<path d="M785.56 732.72L766.35 766.35"
fill="none" stroke="black" stroke-width="0.5"/>
<path d="M785.56 268.13L766.35 234.5"
fill="none" stroke="black" stroke-width="0.5"/>
<path d="M571.71 54.28L552.5 20.65"
fill="none" stroke="black" stroke-width="0.5"/>
<path d="M785.56 695.83L766.35 662.2"
fill="none" stroke="black" stroke-width="0.5"/>
<path d="M571.71 481.98L552.5 448.35"
fill="none" stroke="black" stroke-width="0.5"/>
<path d="M357.86 268.13L338.65 234.5"
fill="none" stroke="black" stroke-width="0.5"/>
<path d="M144.01 54.28L124.8 20.65"
fill="none" stroke="black" stroke-width="0.5"/>
<path d="M357.86 695.83L338.65 662.2"
fill="none" stroke="black" stroke-width="0.5"/>
<path d="M144.01 481.98L124.8 448.35"
fill="none" stroke="black" stroke-width="0.5"/>
<path d="M305.02 642.99L338.65 662.2"
fill="none" stroke="black" stroke-width="0.5"/>
<path d="M91.17 429.14L124.8 448.35"
fill="none" stroke="black" stroke-width="0.5"/>
<path d="M732.72 642.99L766.35 662.2"
fill="none" stroke="black" stroke-width="0.5"/>
<path d="M518.87 429.14L552.5 448.35"
fill="none" stroke="black" stroke-width="0.5"/>
<path d="M305.02 215.29L338.65 234.5"
fill="none" stroke="black" stroke-width="0.5"/>
<path d="M91.17 1.44L124.8 20.65"
fill="none" stroke="black" stroke-width="0.5"/>
<path d="M732.72 215.29L766.35 234.5"
fill="none" stroke="black" stroke-width="0.5"/>
<path d="M518.87 1.44L552.5 20.65"
fill="none" stroke="black" stroke-width="0.5"/>
<path d="M54.28 1.44L20.65 20.65"
fill="none" stroke="black" stroke-width="0.5"/>
<path d="M481.98 1.44L448.35 20.65"
fill="none" stroke="black" stroke-width="0.5"/>
<path d="M268.13 215.29L234.5 234.5"
fill="none" stroke="black" stroke-width="0.5"/>
<path d="M54.28 429.14L20.65 448.35"
fill="none" stroke="black" stroke-width="0.5"/>
<path d="M695.83 215.29L662.2 234.5"
fill="none" stroke="black" stroke-width="0.5"/>
<path d="M481.98 429.14L448.35 448.35"
fill="none" stroke="black" stroke-width="0.5"/>
<path d="M268.13 642.99L234.5 662.2"
fill="none" stroke="black" stroke-width="0.5"/>
<path d="M695.83 642.99L662.2 662.2"
fill="none" stroke="black" stroke-width="0.5"/>
<path d="M642.99 695.83L662.2 662.2"
fill="none" stroke="black" stroke-width="0.5"/>
<path d="M642.99 268.13L662.2 234.5"
fill="none" stroke="black" stroke-width="0.5"/>
<path d="M429.14 481.98L448.35 448.35"
fill="none" stroke="black" stroke-width="0.5"/>
<path d="M215.29 695.83L234.5 662.2"
fill="none" stroke="black" stroke-width="0.5"/>
<path d="M429.14 54.28L448.35 20.65"
fill="none" stroke="black" stroke-width="0.5"/>
<path d="M215.29 268.13L234.5 234.5"
fill="none" stroke="black" stroke-width="0.5"/>
<path d="M1.44 481.98L20.65 448.35"
fill="none" stroke="black" stroke-width="0.5"/>
<path d="M1.44 54.28L20.65 20.65"
fill="none" stroke="black" stroke-width="0.5"/>
<path d="M1.44 518.87L20.65 552.5"
fill="none" stroke="black" stroke-width="0.5"/>
<path d="M215.29 732.72L234.5 766.35"
fill="none" stroke="black" stroke-width="0.5"/>
<path d="M1.44 91.17L20.65 124.8"
fill="none" stroke="black" stroke-width="0.5"/>
<path d="M215.29 305.02L234.5 338.65"
fill="none" stroke="black" stroke-width="0.5"/>
<path d="M429.14 518.87L448.35 552.5"
fill="none" stroke="black" stroke-width="0.5"/>
<path d="M642.99 732.72L662.2 766.35"
fill="none" stroke="black" stroke-width="0.5"/>
<path d="M429.14 91.17L448.35 124.8"
fill="none" stroke="black" stroke-width="0.5"/>
<path d="M642.99 305.02L662.2 338.65"
fill="none" stroke="black" stroke-width="0.5"/>
<path d="M481.98 144.01L448.35 124.8"
fill="none" stroke="black" stroke-width="0.5"/>
<path d="M695.83 357.86L662.2 338.65"
fill="none" stroke="black" stroke-width="0.5"/>
<path d="M54.28 144.01L20.65 124.8"
fill="none" stroke="black" stroke-width="0.5"/>
<path d="M268.13 357.86L234.5 338.65"
fill="none" stroke="black" stroke-width="0.5"/>
<path d="M481.98 571.71L448.35 552.5"
fill="none" stroke="black" stroke-width="0.5"/>
<path d="M695.83 785.56L662.2 766.35"
fill="none" stroke="black" stroke-width="0.5"/>
<path d="M54.28 571.71L20.65 552.5"
fill="none" stroke="black" stroke-width="0.5"/>
<path d="M268.13 785.56L234.5 766.35"
fill="none" stroke="black" stroke-width="0.5"/>
</svg>
