<?xml version="1.0" encoding="UTF-8"?>
<svg xmlns="http://www.w3.org/2000/svg" width="99.949mm" height="99.949mm" viewBox="0.0 0.0 787.000 787.000" preserveAspectRatio="none" version="1.1">
  <title>Produce by Acme CAD Converter</title>
  <desc>Produce by Acme CAD Converter</desc>
<path d="M55.51 763.78L78.06 763.78"
fill="none" stroke="black" stroke-width="0.5"/>
<path d="M491.13 763.78L513.68 763.78"
fill="none" stroke="black" stroke-width="0.5"/>
<path d="M273.32 545.97L295.87 545.97"
fill="none" stroke="black" stroke-width="0.5"/>
<path d="M708.94 545.97L731.49 545.97"
fill="none" stroke="black" stroke-width="0.5"/>
<path d="M55.51 328.16L78.06 328.16"
fill="none" stroke="black" stroke-width="0.5"/>
<path d="M491.13 328.16L513.68 328.16"
fill="none" stroke="black" stroke-width="0.5"/>
<path d="M273.32 110.35L295.87 110.35"
fill="none" stroke="black" stroke-width="0.5"/>
<path d="M708.94 110.35L731.49 110.35"
fill="none" stroke="black" stroke-width="0.5"/>
<path d="M55.51 676.65L78.06 676.65"
fill="none" stroke="black" stroke-width="0.5"/>
<path d="M491.13 676.65L513.68 676.65"
fill="none" stroke="black" stroke-width="0.5"/>
<path d="M273.32 458.84L295.87 458.84"
fill="none" stroke="black" stroke-width="0.5"/>
<path d="M708.94 458.84L731.49 458.84"
fill="none" stroke="black" stroke-width="0.5"/>
<path d="M55.51 241.03L78.06 241.03"
fill="none" stroke="black" stroke-width="0.5"/>
<path d="M491.13 241.03L513.68 241.03"
fill="none" stroke="black" stroke-width="0.5"/>
<path d="M273.32 23.22L295.87 23.22"
fill="none" stroke="black" stroke-width="0.5"/>
<path d="M708.94 23.22L731.49 23.22"
fill="none" stroke="black" stroke-width="0.5"/>
<path d="M676.65 513.68L676.65 491.13"
fill="none" stroke="black" stroke-width="0.5"/>
<path d="M676.65 78.06L676.65 55.51"
fill="none" stroke="black" stroke-width="0.5"/>
<path d="M458.84 731.49L458.84 708.94"
fill="none" stroke="black" stroke-width="0.5"/>
<path d="M458.84 295.87L458.84 273.32"
fill="none" stroke="black" stroke-width="0.5"/>
<path d="M241.03 513.68L241.03 491.13"
fill="none" stroke="black" stroke-width="0.5"/>
<path d="M241.03 78.06L241.03 55.51"
fill="none" stroke="black" stroke-width="0.5"/>
<path d="M23.22 731.49L23.22 708.94"
fill="none" stroke="black" stroke-width="0.5"/>
<path d="M23.22 295.87L23.22 273.32"
fill="none" stroke="black" stroke-width="0.5"/>
<path d="M763.78 513.68L763.78 491.13"
fill="none" stroke="black" stroke-width="0.5"/>
<path d="M763.78 78.06L763.78 55.51"
fill="none" stroke="black" stroke-width="0.5"/>
<path d="M545.97 731.49L545.97 708.94"
fill="none" stroke="black" stroke-width="0.5"/>
<path d="M545.97 295.87L545.97 273.32"
fill="none" stroke="black" stroke-width="0.5"/>
<path d="M328.16 513.68L328.16 491.13"
fill="none" stroke="black" stroke-width="0.5"/>
<path d="M328.16 78.06L328.16 55.51"
fill="none" stroke="black" stroke-width="0.5"/>
<path d="M110.35 731.49L110.35 708.94"
fill="none" stroke="black" stroke-width="0.5"/>
<path d="M110.35 295.87L110.35 273.32"
fill="none" stroke="black" stroke-width="0.5"/>
<path d="M513.68 763.78L534.23 752.04"
fill="none" stroke="black" stroke-width="0.5"/>
<path d="M731.49 545.97L752.04 534.23"
fill="none" stroke="black" stroke-width="0.5"/>
<path d="M78.06 763.78L98.61 752.04"
fill="none" stroke="black" stroke-width="0.5"/>
<path d="M295.87 545.97L316.42 534.23"
fill="none" stroke="black" stroke-width="0.5"/>
<path d="M513.68 328.16L534.23 316.42"
fill="none" stroke="black" stroke-width="0.5"/>
<path d="M731.49 110.35L752.04 98.61"
fill="none" stroke="black" stroke-width="0.5"/>
<path d="M78.06 328.16L98.61 316.42"
fill="none" stroke="black" stroke-width="0.5"/>
<path d="M295.87 110.35L316.42 98.61"
fill="none" stroke="black" stroke-width="0.5"/>
<path d="M110.35 295.87L98.61 316.42"
fill="none" stroke="black" stroke-width="0.5"/>
<path d="M328.16 78.06L316.42 98.61"
fill="none" stroke="black" stroke-width="0.5"/>
<path d="M110.35 731.49L98.61 752.04"
fill="none" stroke="black" stroke-width="0.5"/>
<path d="M328.16 513.68L316.42 534.23"
fill="none" stroke="black" stroke-width="0.5"/>
<path d="M545.97 295.87L534.23 316.42"
fill="none" stroke="black" stroke-width="0.5"/>
<path d="M763.78 78.06L752.04 98.61"
fill="none" stroke="black" stroke-width="0.5"/>
<path d="M545.97 731.49L534.23 752.04"
fill="none" stroke="black" stroke-width="0.5"/>
<path d="M763.78 513.68L752.04 534.23"
fill="none" stroke="black" stroke-width="0.5"/>
<path d="M763.78 55.51L752.04 34.96"
fill="none" stroke="black" stroke-width="0.5"/>
<path d="M763.78 491.13L752.04 470.58"
fill="none" stroke="black" stroke-width="0.5"/>
<path d="M545.97 273.32L534.23 252.77"
fill="none" stroke="black" stroke-width="0.5"/>
<path d="M328.16 55.51L316.42 34.96"
fill="none" stroke="black" stroke-width="0.5"/>
<path d="M545.97 708.94L534.23 688.39"
fill="none" stroke="black" stroke-width="0.5"/>
<path d="M328.16 491.13L316.42 470.58"
fill="none" stroke="black" stroke-width="0.5"/>
<path d="M110.35 273.32L98.61 252.77"
fill="none" stroke="black" stroke-width="0.5"/>
<path d="M110.35 708.94L98.61 688.39"
fill="none" stroke="black" stroke-width="0.5"/>
<path d="M78.06 676.65L98.61 688.39"
fill="none" stroke="black" stroke-width="0.5"/>
<path d="M513.68 676.65L534.23 688.39"
fill="none" stroke="black" stroke-width="0.5"/>
<path d="M295.87 458.84L316.42 470.58"
fill="none" stroke="black" stroke-width="0.5"/>
<path d="M78.06 241.03L98.61 252.77"
fill="none" stroke="black" stroke-width="0.5"/>
<path d="M731.49 458.84L752.04 470.58"
fill="none" stroke="black" stroke-width="0.5"/>
<path d="M513.68 241.03L534.23 252.77"
fill="none" stroke="black" stroke-width="0.5"/>
<path d="M295.87 23.22L316.42 34.96"
fill="none" stroke="black" stroke-width="0.5"/>
<path d="M731.49 23.22L752.04 34.96"
fill="none" stroke="black" stroke-width="0.5"/>
<path d="M273.32 23.22L252.77 34.96"
fill="none" stroke="black" stroke-width="0.5"/>
<path d="M55.51 241.03L34.96 252.77"
fill="none" stroke="black" stroke-width="0.5"/>
<path d="M708.94 23.22L688.39 34.96"
fill="none" stroke="black" stroke-width="0.5"/>
<path d="M491.13 241.03L470.58 252.77"
fill="none" stroke="black" stroke-width="0.5"/>
<path d="M273.32 458.84L252.77 470.58"
fill="none" stroke="black" stroke-width="0.5"/>
<path d="M55.51 676.65L34.96 688.39"
fill="none" stroke="black" stroke-width="0.5"/>
<path d="M708.94 458.84L688.39 470.58"
fill="none" stroke="black" stroke-width="0.5"/>
<path d="M491.13 676.65L470.58 688.39"
fill="none" stroke="black" stroke-width="0.5"/>
<path d="M676.65 491.13L688.39 470.58"
fill="none" stroke="black" stroke-width="0.5"/>
<path d="M458.84 708.94L470.58 688.39"
fill="none" stroke="black" stroke-width="0.5"/>
<path d="M676.65 55.51L688.39 34.96"
fill="none" stroke="black" stroke-width="0.5"/>
<path d="M458.84 273.32L470.58 252.77"
fill="none" stroke="black" stroke-width="0.5"/>
<path d="M241.03 491.13L252.77 470.58"
fill="none" stroke="black" stroke-width="0.5"/>
<path d="M23.22 708.94L34.96 688.39"
fill="none" stroke="black" stroke-width="0.5"/>
<path d="M241.03 55.51L252.77 34.96"
fill="none" stroke="black" stroke-width="0.5"/>
<path d="M23.22 273.32L34.96 252.77"
fill="none" stroke="black" stroke-width="0.5"/>
<path d="M23.22 731.49L34.96 752.04"
fill="none" stroke="black" stroke-width="0.5"/>
<path d="M23.22 295.87L34.96 316.42"
fill="none" stroke="black" stroke-width="0.5"/>
<path d="M241.03 513.68L252.77 534.23"
fill="none" stroke="black" stroke-width="0.5"/>
<path d="M458.84 731.49L470.58 752.04"
fill="none" stroke="black" stroke-width="0.5"/>
<path d="M241.03 78.06L252.77 98.61"
fill="none" stroke="black" stroke-width="0.5"/>
<path d="M458.84 295.87L470.58 316.42"
fill="none" stroke="black" stroke-width="0.5"/>
<path d="M676.65 513.68L688.39 534.23"
fill="none" stroke="black" stroke-width="0.5"/>
<path d="M676.65 78.06L688.39 98.61"
fill="none" stroke="black" stroke-width="0.5"/>
<path d="M708.94 110.35L688.39 98.61"
fill="none" stroke="black" stroke-width="0.5"/>
<path d="M273.32 110.35L252.77 98.61"
fill="none" stroke="black" stroke-width="0.5"/>
<path d="M491.13 328.16L470.58 316.42"
fill="none" stroke="black" stroke-width="0.5"/>
<path d="M708.94 545.97L688.39 534.23"
fill="none" stroke="black" stroke-width="0.5"/>
<path d="M55.51 328.16L34.96 316.42"
fill="none" stroke="black" stroke-width="0.5"/>
<path d="M273.32 545.97L252.77 534.23"
fill="none" stroke="black" stroke-width="0.5"/>
<path d="M491.13 763.78L470.58 752.04"
fill="none" stroke="black" stroke-width="0.5"/>
<path d="M55.51 763.78L34.96 752.04"
fill="none" stroke="black" stroke-width="0.5"/>
<path d="M267.68 785.56L301.51 785.56"
fill="none" stroke="black" stroke-width="0.5"/>
<path d="M703.3 785.56L737.13 785.56"
fill="none" stroke="black" stroke-width="0.5"/>
<path d="M49.87 567.75L83.7 567.75"
fill="none" stroke="black" stroke-width="0.5"/>
<path d="M485.49 567.75L519.32 567.75"
fill="none" stroke="black" stroke-width="0.5"/>
<path d="M267.68 349.94L301.51 349.94"
fill="none" stroke="black" stroke-width="0.5"/>
<path d="M703.3 349.94L737.13 349.94"
fill="none" stroke="black" stroke-width="0.5"/>
<path d="M49.87 132.13L83.7 132.13"
fill="none" stroke="black" stroke-width="0.5"/>
<path d="M485.49 132.13L519.32 132.13"
fill="none" stroke="black" stroke-width="0.5"/>
<path d="M267.68 654.87L301.51 654.87"
fill="none" stroke="black" stroke-width="0.5"/>
<path d="M703.3 654.87L737.13 654.87"
fill="none" stroke="black" stroke-width="0.5"/>
<path d="M49.87 437.06L83.7 437.06"
fill="none" stroke="black" stroke-width="0.5"/>
<path d="M485.49 437.06L519.32 437.06"
fill="none" stroke="black" stroke-width="0.5"/>
<path d="M267.68 219.25L301.51 219.25"
fill="none" stroke="black" stroke-width="0.5"/>
<path d="M703.3 219.25L737.13 219.25"
fill="none" stroke="black" stroke-width="0.5"/>
<path d="M49.87 1.44L83.7 1.44"
fill="none" stroke="black" stroke-width="0.5"/>
<path d="M485.49 1.44L519.32 1.44"
fill="none" stroke="black" stroke-width="0.5"/>
<path d="M654.87 737.13L654.87 703.3"
fill="none" stroke="black" stroke-width="0.5"/>
<path d="M654.87 301.51L654.87 267.68"
fill="none" stroke="black" stroke-width="0.5"/>
<path d="M437.06 519.32L437.06 485.49"
fill="none" stroke="black" stroke-width="0.5"/>
<path d="M437.06 83.7L437.06 49.87"
fill="none" stroke="black" stroke-width="0.5"/>
<path d="M219.25 737.13L219.25 703.3"
fill="none" stroke="black" stroke-width="0.5"/>
<path d="M219.25 301.51L219.25 267.68"
fill="none" stroke="black" stroke-width="0.5"/>
<path d="M1.44 519.32L1.44 485.49"
fill="none" stroke="black" stroke-width="0.5"/>
<path d="M1.44 83.7L1.44 49.87"
fill="none" stroke="black" stroke-width="0.5"/>
<path d="M785.56 737.13L785.56 703.3"
fill="none" stroke="black" stroke-width="0.5"/>
<path d="M785.56 301.51L785.56 267.68"
fill="none" stroke="black" stroke-width="0.5"/>
<path d="M567.75 519.32L567.75 485.49"
fill="none" stroke="black" stroke-width="0.5"/>
<path d="M567.75 83.7L567.75 49.87"
fill="none" stroke="black" stroke-width="0.5"/>
<path d="M349.94 737.13L349.94 703.3"
fill="none" stroke="black" stroke-width="0.5"/>
<path d="M349.94 301.51L349.94 267.68"
fill="none" stroke="black" stroke-width="0.5"/>
<path d="M132.13 519.32L132.13 485.49"
fill="none" stroke="black" stroke-width="0.5"/>
<path d="M132.13 83.7L132.13 49.87"
fill="none" stroke="black" stroke-width="0.5"/>
<path d="M737.13 785.56L767.95 767.95"
fill="none" stroke="black" stroke-width="0.5"/>
<path d="M301.51 785.56L332.33 767.95"
fill="none" stroke="black" stroke-width="0.5"/>
<path d="M519.32 567.75L550.14 550.14"
fill="none" stroke="black" stroke-width="0.5"/>
<path d="M737.13 349.94L767.95 332.33"
fill="none" stroke="black" stroke-width="0.5"/>
<path d="M83.7 567.75L114.52 550.14"
fill="none" stroke="black" stroke-width="0.5"/>
<path d="M301.51 349.94L332.33 332.33"
fill="none" stroke="black" stroke-width="0.5"/>
<path d="M519.32 132.13L550.14 114.52"
fill="none" stroke="black" stroke-width="0.5"/>
<path d="M83.7 132.13L114.52 114.52"
fill="none" stroke="black" stroke-width="0.5"/>
<path d="M132.13 83.7L114.52 114.52"
fill="none" stroke="black" stroke-width="0.5"/>
<path d="M132.13 519.32L114.52 550.14"
fill="none" stroke="black" stroke-width="0.5"/>
<path d="M349.94 301.51L332.33 332.33"
fill="none" stroke="black" stroke-width="0.5"/>
<path d="M567.75 83.7L550.14 114.52"
fill="none" stroke="black" stroke-width="0.5"/>
<path d="M349.94 737.13L332.33 767.95"
fill="none" stroke="black" stroke-width="0.5"/>
<path d="M567.75 519.32L550.14 550.14"
fill="none" stroke="black" stroke-width="0.5"/>
<path d="M785.56 301.51L767.95 332.33"
fill="none" stroke="black" stroke-width="0.5"/>
<path d="M785.56 737.13L767.95 767.95"
fill="none" stroke="black" stroke-width="0.5"/>
<path d="M785.56 267.68L767.95 236.86"
fill="none" stroke="black" stroke-width="0.5"/>
<path d="M567.75 49.87L550.14 19.05"
fill="none" stroke="black" stroke-width="0.5"/>
<path d="M785.56 703.3L767.95 672.48"
fill="none" stroke="black" stroke-width="0.5"/>
<path d="M567.75 485.49L550.14 454.67"
fill="none" stroke="black" stroke-width="0.5"/>
<path d="M349.94 267.68L332.33 236.86"
fill="none" stroke="black" stroke-width="0.5"/>
<path d="M132.13 49.87L114.52 19.05"
fill="none" stroke="black" stroke-width="0.5"/>
<path d="M349.94 703.3L332.33 672.48"
fill="none" stroke="black" stroke-width="0.5"/>
<path d="M132.13 485.49L114.52 454.67"
fill="none" stroke="black" stroke-width="0.5"/>
<path d="M301.51 654.87L332.33 672.48"
fill="none" stroke="black" stroke-width="0.5"/>
<path d="M83.7 437.06L114.52 454.67"
fill="none" stroke="black" stroke-width="0.5"/>
<path d="M737.13 654.87L767.95 672.48"
fill="none" stroke="black" stroke-width="0.5"/>
<path d="M519.32 437.06L550.14 454.67"
fill="none" stroke="black" stroke-width="0.5"/>
<path d="M301.51 219.25L332.33 236.86"
fill="none" stroke="black" stroke-width="0.5"/>
<path d="M83.7 1.44L114.52 19.05"
fill="none" stroke="black" stroke-width="0.5"/>
<path d="M737.13 219.25L767.95 236.86"
fill="none" stroke="black" stroke-width="0.5"/>
<path d="M519.32 1.44L550.14 19.05"
fill="none" stroke="black" stroke-width="0.5"/>
<path d="M49.87 1.44L19.05 19.05"
fill="none" stroke="black" stroke-width="0.5"/>
<path d="M485.49 1.44L454.67 19.05"
fill="none" stroke="black" stroke-width="0.5"/>
<path d="M267.68 219.25L236.86 236.86"
fill="none" stroke="black" stroke-width="0.5"/>
<path d="M49.87 437.06L19.05 454.67"
fill="none" stroke="black" stroke-width="0.5"/>
<path d="M703.3 219.25L672.48 236.86"
fill="none" stroke="black" stroke-width="0.5"/>
<path d="M485.49 437.06L454.67 454.67"
fill="none" stroke="black" stroke-width="0.5"/>
<path d="M267.68 654.87L236.86 672.48"
fill="none" stroke="black" stroke-width="0.5"/>
<path d="M703.3 654.87L672.48 672.48"
fill="none" stroke="black" stroke-width="0.5"/>
<path d="M654.87 703.3L672.48 672.48"
fill="none" stroke="black" stroke-width="0.5"/>
<path d="M654.87 267.68L672.48 236.86"
fill="none" stroke="black" stroke-width="0.5"/>
<path d="M437.06 485.49L454.67 454.67"
fill="none" stroke="black" stroke-width="0.5"/>
<path d="M219.25 703.3L236.86 672.48"
fill="none" stroke="black" stroke-width="0.5"/>
<path d="M437.06 49.87L454.67 19.05"
fill="none" stroke="black" stroke-width="0.5"/>
<path d="M219.25 267.68L236.86 236.86"
fill="none" stroke="black" stroke-width="0.5"/>
<path d="M1.44 485.49L19.05 454.67"
fill="none" stroke="black" stroke-width="0.5"/>
<path d="M1.44 49.87L19.05 19.05"
fill="none" stroke="black" stroke-width="0.5"/>
<path d="M1.44 519.32L19.05 550.14"
fill="none" stroke="black" stroke-width="0.5"/>
<path d="M219.25 737.13L236.86 767.95"
fill="none" stroke="black" stroke-width="0.5"/>
<path d="M1.44 83.7L19.05 114.52"
fill="none" stroke="black" stroke-width="0.5"/>
<path d="M219.25 301.51L236.86 332.33"
fill="none" stroke="black" stroke-width="0.5"/>
<path d="M437.06 519.32L454.67 550.14"
fill="none" stroke="black" stroke-width="0.5"/>
<path d="M654.87 737.13L672.48 767.95"
fill="none" stroke="black" stroke-width="0.5"/>
<path d="M437.06 83.7L454.67 114.52"
fill="none" stroke="black" stroke-width="0.5"/>
<path d="M654.87 301.51L672.48 332.33"
fill="none" stroke="black" stroke-width="0.5"/>
<path d="M485.49 132.13L454.67 114.52"
fill="none" stroke="black" stroke-width="0.5"/>
<path d="M703.3 349.94L672.48 332.33"
fill="none" stroke="black" stroke-width="0.5"/>
<path d="M49.87 132.13L19.05 114.52"
fill="none" stroke="black" stroke-width="0.5"/>
<path d="M267.68 349.94L236.86 332.33"
fill="none" stroke="black" stroke-width="0.5"/>
<path d="M485.49 567.75L454.67 550.14"
fill="none" stroke="black" stroke-width="0.5"/>
<path d="M703.3 785.56L672.48 767.95"
fill="none" stroke="black" stroke-width="0.5"/>
<path d="M49.87 567.75L19.05 550.14"
fill="none" stroke="black" stroke-width="0.5"/>
<path d="M267.68 785.56L236.86 767.95"
fill="none" stroke="black" stroke-width="0.5"/>
</svg>
