<?xml version="1.0" encoding="UTF-8"?>
<svg xmlns="http://www.w3.org/2000/svg" width="99.949mm" height="99.949mm" viewBox="0.0 0.0 787.000 787.000" preserveAspectRatio="none" version="1.1">
  <title>Produce by Acme CAD Converter</title>
  <desc>Produce by Acme CAD Converter</desc>
<path d="M42.96 785.56L71.95 785.56"
fill="none" stroke="black" stroke-width="0.5"/>
<path d="M266.99 785.56L295.98 785.56"
fill="none" stroke="black" stroke-width="0.5"/>
<path d="M491.02 785.56L520.01 785.56"
fill="none" stroke="black" stroke-width="0.5"/>
<path d="M715.05 785.56L744.04 785.56"
fill="none" stroke="black" stroke-width="0.5"/>
<path d="M42.96 673.54L71.95 673.54"
fill="none" stroke="black" stroke-width="0.5"/>
<path d="M266.99 673.54L295.98 673.54"
fill="none" stroke="black" stroke-width="0.5"/>
<path d="M491.02 673.54L520.01 673.54"
fill="none" stroke="black" stroke-width="0.5"/>
<path d="M715.05 673.54L744.04 673.54"
fill="none" stroke="black" stroke-width="0.5"/>
<path d="M42.96 561.52L71.95 561.52"
fill="none" stroke="black" stroke-width="0.5"/>
<path d="M266.99 561.52L295.98 561.52"
fill="none" stroke="black" stroke-width="0.5"/>
<path d="M491.02 561.52L520.01 561.52"
fill="none" stroke="black" stroke-width="0.5"/>
<path d="M715.05 561.52L744.04 561.52"
fill="none" stroke="black" stroke-width="0.5"/>
<path d="M42.96 449.51L71.95 449.51"
fill="none" stroke="black" stroke-width="0.5"/>
<path d="M266.99 449.51L295.98 449.51"
fill="none" stroke="black" stroke-width="0.5"/>
<path d="M491.02 449.51L520.01 449.51"
fill="none" stroke="black" stroke-width="0.5"/>
<path d="M715.05 449.51L744.04 449.51"
fill="none" stroke="black" stroke-width="0.5"/>
<path d="M42.96 337.49L71.95 337.49"
fill="none" stroke="black" stroke-width="0.5"/>
<path d="M266.99 337.49L295.98 337.49"
fill="none" stroke="black" stroke-width="0.5"/>
<path d="M491.02 337.49L520.01 337.49"
fill="none" stroke="black" stroke-width="0.5"/>
<path d="M715.05 337.49L744.04 337.49"
fill="none" stroke="black" stroke-width="0.5"/>
<path d="M42.96 225.48L71.95 225.48"
fill="none" stroke="black" stroke-width="0.5"/>
<path d="M266.99 225.48L295.98 225.48"
fill="none" stroke="black" stroke-width="0.5"/>
<path d="M491.02 225.48L520.01 225.48"
fill="none" stroke="black" stroke-width="0.5"/>
<path d="M715.05 225.48L744.04 225.48"
fill="none" stroke="black" stroke-width="0.5"/>
<path d="M42.96 113.46L71.95 113.46"
fill="none" stroke="black" stroke-width="0.5"/>
<path d="M266.99 113.46L295.98 113.46"
fill="none" stroke="black" stroke-width="0.5"/>
<path d="M491.02 113.46L520.01 113.46"
fill="none" stroke="black" stroke-width="0.5"/>
<path d="M715.05 113.46L744.04 113.46"
fill="none" stroke="black" stroke-width="0.5"/>
<path d="M42.96 1.44L71.95 1.44"
fill="none" stroke="black" stroke-width="0.5"/>
<path d="M266.99 1.44L295.98 1.44"
fill="none" stroke="black" stroke-width="0.5"/>
<path d="M491.02 1.44L520.01 1.44"
fill="none" stroke="black" stroke-width="0.5"/>
<path d="M715.05 1.44L744.04 1.44"
fill="none" stroke="black" stroke-width="0.5"/>
<path d="M785.56 744.04L785.56 715.05"
fill="none" stroke="black" stroke-width="0.5"/>
<path d="M785.56 520.01L785.56 491.02"
fill="none" stroke="black" stroke-width="0.5"/>
<path d="M785.56 295.98L785.56 266.99"
fill="none" stroke="black" stroke-width="0.5"/>
<path d="M785.56 71.95L785.56 42.96"
fill="none" stroke="black" stroke-width="0.5"/>
<path d="M673.54 744.04L673.54 715.05"
fill="none" stroke="black" stroke-width="0.5"/>
<path d="M673.54 520.01L673.54 491.02"
fill="none" stroke="black" stroke-width="0.5"/>
<path d="M673.54 295.98L673.54 266.99"
fill="none" stroke="black" stroke-width="0.5"/>
<path d="M673.54 71.95L673.54 42.96"
fill="none" stroke="black" stroke-width="0.5"/>
<path d="M561.52 744.04L561.52 715.05"
fill="none" stroke="black" stroke-width="0.5"/>
<path d="M561.52 520.01L561.52 491.02"
fill="none" stroke="black" stroke-width="0.5"/>
<path d="M561.52 295.98L561.52 266.99"
fill="none" stroke="black" stroke-width="0.5"/>
<path d="M561.52 71.95L561.52 42.96"
fill="none" stroke="black" stroke-width="0.5"/>
<path d="M449.51 744.04L449.51 715.05"
fill="none" stroke="black" stroke-width="0.5"/>
<path d="M449.51 520.01L449.51 491.02"
fill="none" stroke="black" stroke-width="0.5"/>
<path d="M449.51 295.98L449.51 266.99"
fill="none" stroke="black" stroke-width="0.5"/>
<path d="M449.51 71.95L449.51 42.96"
fill="none" stroke="black" stroke-width="0.5"/>
<path d="M337.49 744.04L337.49 715.05"
fill="none" stroke="black" stroke-width="0.5"/>
<path d="M337.49 520.01L337.49 491.02"
fill="none" stroke="black" stroke-width="0.5"/>
<path d="M337.49 295.98L337.49 266.99"
fill="none" stroke="black" stroke-width="0.5"/>
<path d="M337.49 71.95L337.49 42.96"
fill="none" stroke="black" stroke-width="0.5"/>
<path d="M225.48 744.04L225.48 715.05"
fill="none" stroke="black" stroke-width="0.5"/>
<path d="M225.48 520.01L225.48 491.02"
fill="none" stroke="black" stroke-width="0.5"/>
<path d="M225.48 295.98L225.48 266.99"
fill="none" stroke="black" stroke-width="0.5"/>
<path d="M225.48 71.95L225.48 42.96"
fill="none" stroke="black" stroke-width="0.5"/>
<path d="M113.46 744.04L113.46 715.05"
fill="none" stroke="black" stroke-width="0.5"/>
<path d="M113.46 520.01L113.46 491.02"
fill="none" stroke="black" stroke-width="0.5"/>
<path d="M113.46 295.98L113.46 266.99"
fill="none" stroke="black" stroke-width="0.5"/>
<path d="M113.46 71.95L113.46 42.96"
fill="none" stroke="black" stroke-width="0.5"/>
<path d="M1.44 744.04L1.44 715.05"
fill="none" stroke="black" stroke-width="0.5"/>
<path d="M1.44 520.01L1.44 491.02"
fill="none" stroke="black" stroke-width="0.5"/>
<path d="M1.44 295.98L1.44 266.99"
fill="none" stroke="black" stroke-width="0.5"/>
<path d="M1.44 71.95L1.44 42.96"
fill="none" stroke="black" stroke-width="0.5"/>
<path d="M744.04 785.56L770.46 770.46"
fill="none" stroke="black" stroke-width="0.5"/>
<path d="M520.01 785.56L546.43 770.46"
fill="none" stroke="black" stroke-width="0.5"/>
<path d="M744.04 561.52L770.46 546.43"
fill="none" stroke="black" stroke-width="0.5"/>
<path d="M295.98 785.56L322.4 770.46"
fill="none" stroke="black" stroke-width="0.5"/>
<path d="M520.01 561.52L546.43 546.43"
fill="none" stroke="black" stroke-width="0.5"/>
<path d="M71.95 785.56L98.37 770.46"
fill="none" stroke="black" stroke-width="0.5"/>
<path d="M744.04 337.49L770.46 322.4"
fill="none" stroke="black" stroke-width="0.5"/>
<path d="M295.98 561.52L322.4 546.43"
fill="none" stroke="black" stroke-width="0.5"/>
<path d="M520.01 337.49L546.43 322.4"
fill="none" stroke="black" stroke-width="0.5"/>
<path d="M71.95 561.52L98.37 546.43"
fill="none" stroke="black" stroke-width="0.5"/>
<path d="M744.04 113.46L770.46 98.37"
fill="none" stroke="black" stroke-width="0.5"/>
<path d="M295.98 337.49L322.4 322.4"
fill="none" stroke="black" stroke-width="0.5"/>
<path d="M520.01 113.46L546.43 98.37"
fill="none" stroke="black" stroke-width="0.5"/>
<path d="M71.95 337.49L98.37 322.4"
fill="none" stroke="black" stroke-width="0.5"/>
<path d="M295.98 113.46L322.4 98.37"
fill="none" stroke="black" stroke-width="0.5"/>
<path d="M71.95 113.46L98.37 98.37"
fill="none" stroke="black" stroke-width="0.5"/>
<path d="M113.46 71.95L98.37 98.37"
fill="none" stroke="black" stroke-width="0.5"/>
<path d="M113.46 295.98L98.37 322.4"
fill="none" stroke="black" stroke-width="0.5"/>
<path d="M337.49 71.95L322.4 98.37"
fill="none" stroke="black" stroke-width="0.5"/>
<path d="M113.46 520.01L98.37 546.43"
fill="none" stroke="black" stroke-width="0.5"/>
<path d="M337.49 295.98L322.4 322.4"
fill="none" stroke="black" stroke-width="0.5"/>
<path d="M113.46 744.04L98.37 770.46"
fill="none" stroke="black" stroke-width="0.5"/>
<path d="M561.52 71.95L546.43 98.37"
fill="none" stroke="black" stroke-width="0.5"/>
<path d="M337.49 520.01L322.4 546.43"
fill="none" stroke="black" stroke-width="0.5"/>
<path d="M561.52 295.98L546.43 322.4"
fill="none" stroke="black" stroke-width="0.5"/>
<path d="M337.49 744.04L322.4 770.46"
fill="none" stroke="black" stroke-width="0.5"/>
<path d="M785.56 71.95L770.46 98.37"
fill="none" stroke="black" stroke-width="0.5"/>
<path d="M561.52 520.01L546.43 546.43"
fill="none" stroke="black" stroke-width="0.5"/>
<path d="M785.56 295.98L770.46 322.4"
fill="none" stroke="black" stroke-width="0.5"/>
<path d="M561.52 744.04L546.43 770.46"
fill="none" stroke="black" stroke-width="0.5"/>
<path d="M785.56 520.01L770.46 546.43"
fill="none" stroke="black" stroke-width="0.5"/>
<path d="M785.56 744.04L770.46 770.46"
fill="none" stroke="black" stroke-width="0.5"/>
<path d="M785.56 42.96L770.46 16.54"
fill="none" stroke="black" stroke-width="0.5"/>
<path d="M785.56 266.99L770.46 240.57"
fill="none" stroke="black" stroke-width="0.5"/>
<path d="M561.52 42.96L546.43 16.54"
fill="none" stroke="black" stroke-width="0.5"/>
<path d="M785.56 491.02L770.46 464.6"
fill="none" stroke="black" stroke-width="0.5"/>
<path d="M561.52 266.99L546.43 240.57"
fill="none" stroke="black" stroke-width="0.5"/>
<path d="M785.56 715.05L770.46 688.63"
fill="none" stroke="black" stroke-width="0.5"/>
<path d="M337.49 42.96L322.4 16.54"
fill="none" stroke="black" stroke-width="0.5"/>
<path d="M561.52 491.02L546.43 464.6"
fill="none" stroke="black" stroke-width="0.5"/>
<path d="M337.49 266.99L322.4 240.57"
fill="none" stroke="black" stroke-width="0.5"/>
<path d="M561.52 715.05L546.43 688.63"
fill="none" stroke="black" stroke-width="0.5"/>
<path d="M113.46 42.96L98.37 16.54"
fill="none" stroke="black" stroke-width="0.5"/>
<path d="M337.49 491.02L322.4 464.6"
fill="none" stroke="black" stroke-width="0.5"/>
<path d="M113.46 266.99L98.37 240.57"
fill="none" stroke="black" stroke-width="0.5"/>
<path d="M337.49 715.05L322.4 688.63"
fill="none" stroke="black" stroke-width="0.5"/>
<path d="M113.46 491.02L98.37 464.6"
fill="none" stroke="black" stroke-width="0.5"/>
<path d="M113.46 715.05L98.37 688.63"
fill="none" stroke="black" stroke-width="0.5"/>
<path d="M71.95 673.54L98.37 688.63"
fill="none" stroke="black" stroke-width="0.5"/>
<path d="M295.98 673.54L322.4 688.63"
fill="none" stroke="black" stroke-width="0.5"/>
<path d="M71.95 449.51L98.37 464.6"
fill="none" stroke="black" stroke-width="0.5"/>
<path d="M520.01 673.54L546.43 688.63"
fill="none" stroke="black" stroke-width="0.5"/>
<path d="M295.98 449.51L322.4 464.6"
fill="none" stroke="black" stroke-width="0.5"/>
<path d="M744.04 673.54L770.46 688.63"
fill="none" stroke="black" stroke-width="0.5"/>
<path d="M71.95 225.48L98.37 240.57"
fill="none" stroke="black" stroke-width="0.5"/>
<path d="M520.01 449.51L546.43 464.6"
fill="none" stroke="black" stroke-width="0.5"/>
<path d="M295.98 225.48L322.4 240.57"
fill="none" stroke="black" stroke-width="0.5"/>
<path d="M744.04 449.51L770.46 464.6"
fill="none" stroke="black" stroke-width="0.5"/>
<path d="M71.95 1.44L98.37 16.54"
fill="none" stroke="black" stroke-width="0.5"/>
<path d="M520.01 225.48L546.43 240.57"
fill="none" stroke="black" stroke-width="0.5"/>
<path d="M295.98 1.44L322.4 16.54"
fill="none" stroke="black" stroke-width="0.5"/>
<path d="M744.04 225.48L770.46 240.57"
fill="none" stroke="black" stroke-width="0.5"/>
<path d="M520.01 1.44L546.43 16.54"
fill="none" stroke="black" stroke-width="0.5"/>
<path d="M744.04 1.44L770.46 16.54"
fill="none" stroke="black" stroke-width="0.5"/>
<path d="M42.96 1.44L16.54 16.54"
fill="none" stroke="black" stroke-width="0.5"/>
<path d="M266.99 1.44L240.57 16.54"
fill="none" stroke="black" stroke-width="0.5"/>
<path d="M42.96 225.48L16.54 240.57"
fill="none" stroke="black" stroke-width="0.5"/>
<path d="M491.02 1.44L464.6 16.54"
fill="none" stroke="black" stroke-width="0.5"/>
<path d="M266.99 225.48L240.57 240.57"
fill="none" stroke="black" stroke-width="0.5"/>
<path d="M715.05 1.44L688.63 16.54"
fill="none" stroke="black" stroke-width="0.5"/>
<path d="M42.96 449.51L16.54 464.6"
fill="none" stroke="black" stroke-width="0.5"/>
<path d="M491.02 225.48L464.6 240.57"
fill="none" stroke="black" stroke-width="0.5"/>
<path d="M266.99 449.51L240.57 464.6"
fill="none" stroke="black" stroke-width="0.5"/>
<path d="M715.05 225.48L688.63 240.57"
fill="none" stroke="black" stroke-width="0.5"/>
<path d="M42.96 673.54L16.54 688.63"
fill="none" stroke="black" stroke-width="0.5"/>
<path d="M491.02 449.51L464.6 464.6"
fill="none" stroke="black" stroke-width="0.5"/>
<path d="M266.99 673.54L240.57 688.63"
fill="none" stroke="black" stroke-width="0.5"/>
<path d="M715.05 449.51L688.63 464.6"
fill="none" stroke="black" stroke-width="0.5"/>
<path d="M491.02 673.54L464.6 688.63"
fill="none" stroke="black" stroke-width="0.5"/>
<path d="M715.05 673.54L688.63 688.63"
fill="none" stroke="black" stroke-width="0.5"/>
<path d="M673.54 715.05L688.63 688.63"
fill="none" stroke="black" stroke-width="0.5"/>
<path d="M673.54 491.02L688.63 464.6"
fill="none" stroke="black" stroke-width="0.5"/>
<path d="M449.51 715.05L464.6 688.63"
fill="none" stroke="black" stroke-width="0.5"/>
<path d="M673.54 266.99L688.63 240.57"
fill="none" stroke="black" stroke-width="0.5"/>
<path d="M449.51 491.02L464.6 464.6"
fill="none" stroke="black" stroke-width="0.5"/>
<path d="M673.54 42.96L688.63 16.54"
fill="none" stroke="black" stroke-width="0.5"/>
<path d="M225.48 715.05L240.57 688.63"
fill="none" stroke="black" stroke-width="0.5"/>
<path d="M449.51 266.99L464.6 240.57"
fill="none" stroke="black" stroke-width="0.5"/>
<path d="M225.48 491.02L240.57 464.6"
fill="none" stroke="black" stroke-width="0.5"/>
<path d="M449.51 42.96L464.6 16.54"
fill="none" stroke="black" stroke-width="0.5"/>
<path d="M1.44 715.05L16.54 688.63"
fill="none" stroke="black" stroke-width="0.5"/>
<path d="M225.48 266.99L240.57 240.57"
fill="none" stroke="black" stroke-width="0.5"/>
<path d="M1.44 491.02L16.54 464.6"
fill="none" stroke="black" stroke-width="0.5"/>
<path d="M225.48 42.96L240.57 16.54"
fill="none" stroke="black" stroke-width="0.5"/>
<path d="M1.44 266.99L16.54 240.57"
fill="none" stroke="black" stroke-width="0.5"/>
<path d="M1.44 42.96L16.54 16.54"
fill="none" stroke="black" stroke-width="0.5"/>
<path d="M1.44 744.04L16.54 770.46"
fill="none" stroke="black" stroke-width="0.5"/>
<path d="M1.44 520.01L16.54 546.43"
fill="none" stroke="black" stroke-width="0.5"/>
<path d="M225.48 744.04L240.57 770.46"
fill="none" stroke="black" stroke-width="0.5"/>
<path d="M1.44 295.98L16.54 322.4"
fill="none" stroke="black" stroke-width="0.5"/>
<path d="M225.48 520.01L240.57 546.43"
fill="none" stroke="black" stroke-width="0.5"/>
<path d="M1.44 71.95L16.54 98.37"
fill="none" stroke="black" stroke-width="0.5"/>
<path d="M449.51 744.04L464.6 770.46"
fill="none" stroke="black" stroke-width="0.5"/>
<path d="M225.48 295.98L240.57 322.4"
fill="none" stroke="black" stroke-width="0.5"/>
<path d="M449.51 520.01L464.6 546.43"
fill="none" stroke="black" stroke-width="0.5"/>
<path d="M225.48 71.95L240.57 98.37"
fill="none" stroke="black" stroke-width="0.5"/>
<path d="M673.54 744.04L688.63 770.46"
fill="none" stroke="black" stroke-width="0.5"/>
<path d="M449.51 295.98L464.6 322.4"
fill="none" stroke="black" stroke-width="0.5"/>
<path d="M673.54 520.01L688.63 546.43"
fill="none" stroke="black" stroke-width="0.5"/>
<path d="M449.51 71.95L464.6 98.37"
fill="none" stroke="black" stroke-width="0.5"/>
<path d="M673.54 295.98L688.63 322.4"
fill="none" stroke="black" stroke-width="0.5"/>
<path d="M673.54 71.95L688.63 98.37"
fill="none" stroke="black" stroke-width="0.5"/>
<path d="M715.05 113.46L688.63 98.37"
fill="none" stroke="black" stroke-width="0.5"/>
<path d="M491.02 113.46L464.6 98.37"
fill="none" stroke="black" stroke-width="0.5"/>
<path d="M715.05 337.49L688.63 322.4"
fill="none" stroke="black" stroke-width="0.5"/>
<path d="M266.99 113.46L240.57 98.37"
fill="none" stroke="black" stroke-width="0.5"/>
<path d="M491.02 337.49L464.6 322.4"
fill="none" stroke="black" stroke-width="0.5"/>
<path d="M42.96 113.46L16.54 98.37"
fill="none" stroke="black" stroke-width="0.5"/>
<path d="M715.05 561.52L688.63 546.43"
fill="none" stroke="black" stroke-width="0.5"/>
<path d="M266.99 337.49L240.57 322.4"
fill="none" stroke="black" stroke-width="0.5"/>
<path d="M491.02 561.52L464.6 546.43"
fill="none" stroke="black" stroke-width="0.5"/>
<path d="M42.96 337.49L16.54 322.4"
fill="none" stroke="black" stroke-width="0.5"/>
<path d="M715.05 785.56L688.63 770.46"
fill="none" stroke="black" stroke-width="0.5"/>
<path d="M266.99 561.52L240.57 546.43"
fill="none" stroke="black" stroke-width="0.5"/>
<path d="M491.02 785.56L464.6 770.46"
fill="none" stroke="black" stroke-width="0.5"/>
<path d="M42.96 561.52L16.54 546.43"
fill="none" stroke="black" stroke-width="0.5"/>
<path d="M266.99 785.56L240.57 770.46"
fill="none" stroke="black" stroke-width="0.5"/>
<path d="M42.96 785.56L16.54 770.46"
fill="none" stroke="black" stroke-width="0.5"/>
<path d="M163.87 623.13L175.07 623.13"
fill="none" stroke="black" stroke-width="0.5"/>
<path d="M611.93 623.13L623.13 623.13"
fill="none" stroke="black" stroke-width="0.5"/>
<path d="M163.87 175.07L175.07 175.07"
fill="none" stroke="black" stroke-width="0.5"/>
<path d="M611.93 175.07L623.13 175.07"
fill="none" stroke="black" stroke-width="0.5"/>
<path d="M163.87 611.93L175.07 611.93"
fill="none" stroke="black" stroke-width="0.5"/>
<path d="M611.93 611.93L623.13 611.93"
fill="none" stroke="black" stroke-width="0.5"/>
<path d="M163.87 163.87L175.07 163.87"
fill="none" stroke="black" stroke-width="0.5"/>
<path d="M611.93 163.87L623.13 163.87"
fill="none" stroke="black" stroke-width="0.5"/>
<path d="M611.93 623.13L611.93 611.93"
fill="none" stroke="black" stroke-width="0.5"/>
<path d="M611.93 175.07L611.93 163.87"
fill="none" stroke="black" stroke-width="0.5"/>
<path d="M163.87 623.13L163.87 611.93"
fill="none" stroke="black" stroke-width="0.5"/>
<path d="M163.87 175.07L163.87 163.87"
fill="none" stroke="black" stroke-width="0.5"/>
<path d="M623.13 623.13L623.13 611.93"
fill="none" stroke="black" stroke-width="0.5"/>
<path d="M623.13 175.07L623.13 163.87"
fill="none" stroke="black" stroke-width="0.5"/>
<path d="M175.07 623.13L175.07 611.93"
fill="none" stroke="black" stroke-width="0.5"/>
<path d="M175.07 175.07L175.07 163.87"
fill="none" stroke="black" stroke-width="0.5"/>
</svg>
