<?xml version="1.0" encoding="UTF-8"?>
<svg xmlns="http://www.w3.org/2000/svg" width="99.949mm" height="99.949mm" viewBox="0.0 0.0 787.000 787.000" preserveAspectRatio="none" version="1.1">
  <title>Produce by Acme CAD Converter</title>
  <desc>Produce by Acme CAD Converter</desc>
<path d="M86.77 736.55L112.14 736.55"
fill="none" stroke="black" stroke-width="0.5"/>
<path d="M282.8 736.55L308.17 736.55"
fill="none" stroke="black" stroke-width="0.5"/>
<path d="M478.83 736.55L504.2 736.55"
fill="none" stroke="black" stroke-width="0.5"/>
<path d="M674.86 736.55L700.23 736.55"
fill="none" stroke="black" stroke-width="0.5"/>
<path d="M86.77 638.54L112.14 638.54"
fill="none" stroke="black" stroke-width="0.5"/>
<path d="M282.8 638.54L308.17 638.54"
fill="none" stroke="black" stroke-width="0.5"/>
<path d="M478.83 638.54L504.2 638.54"
fill="none" stroke="black" stroke-width="0.5"/>
<path d="M674.86 638.54L700.23 638.54"
fill="none" stroke="black" stroke-width="0.5"/>
<path d="M86.77 540.52L112.14 540.52"
fill="none" stroke="black" stroke-width="0.5"/>
<path d="M282.8 540.52L308.17 540.52"
fill="none" stroke="black" stroke-width="0.5"/>
<path d="M478.83 540.52L504.2 540.52"
fill="none" stroke="black" stroke-width="0.5"/>
<path d="M674.86 540.52L700.23 540.52"
fill="none" stroke="black" stroke-width="0.5"/>
<path d="M86.77 442.51L112.14 442.51"
fill="none" stroke="black" stroke-width="0.5"/>
<path d="M282.8 442.51L308.17 442.51"
fill="none" stroke="black" stroke-width="0.5"/>
<path d="M478.83 442.51L504.2 442.51"
fill="none" stroke="black" stroke-width="0.5"/>
<path d="M674.86 442.51L700.23 442.51"
fill="none" stroke="black" stroke-width="0.5"/>
<path d="M86.77 344.49L112.14 344.49"
fill="none" stroke="black" stroke-width="0.5"/>
<path d="M282.8 344.49L308.17 344.49"
fill="none" stroke="black" stroke-width="0.5"/>
<path d="M478.83 344.49L504.2 344.49"
fill="none" stroke="black" stroke-width="0.5"/>
<path d="M674.86 344.49L700.23 344.49"
fill="none" stroke="black" stroke-width="0.5"/>
<path d="M86.77 246.48L112.14 246.48"
fill="none" stroke="black" stroke-width="0.5"/>
<path d="M282.8 246.48L308.17 246.48"
fill="none" stroke="black" stroke-width="0.5"/>
<path d="M478.83 246.48L504.2 246.48"
fill="none" stroke="black" stroke-width="0.5"/>
<path d="M674.86 246.48L700.23 246.48"
fill="none" stroke="black" stroke-width="0.5"/>
<path d="M86.77 148.46L112.14 148.46"
fill="none" stroke="black" stroke-width="0.5"/>
<path d="M282.8 148.46L308.17 148.46"
fill="none" stroke="black" stroke-width="0.5"/>
<path d="M478.83 148.46L504.2 148.46"
fill="none" stroke="black" stroke-width="0.5"/>
<path d="M674.86 148.46L700.23 148.46"
fill="none" stroke="black" stroke-width="0.5"/>
<path d="M86.77 50.45L112.14 50.45"
fill="none" stroke="black" stroke-width="0.5"/>
<path d="M282.8 50.45L308.17 50.45"
fill="none" stroke="black" stroke-width="0.5"/>
<path d="M478.83 50.45L504.2 50.45"
fill="none" stroke="black" stroke-width="0.5"/>
<path d="M674.86 50.45L700.23 50.45"
fill="none" stroke="black" stroke-width="0.5"/>
<path d="M736.55 700.23L736.55 674.86"
fill="none" stroke="black" stroke-width="0.5"/>
<path d="M736.55 504.2L736.55 478.83"
fill="none" stroke="black" stroke-width="0.5"/>
<path d="M736.55 308.17L736.55 282.8"
fill="none" stroke="black" stroke-width="0.5"/>
<path d="M736.55 112.14L736.55 86.77"
fill="none" stroke="black" stroke-width="0.5"/>
<path d="M638.54 700.23L638.54 674.86"
fill="none" stroke="black" stroke-width="0.5"/>
<path d="M638.54 504.2L638.54 478.83"
fill="none" stroke="black" stroke-width="0.5"/>
<path d="M638.54 308.17L638.54 282.8"
fill="none" stroke="black" stroke-width="0.5"/>
<path d="M638.54 112.14L638.54 86.77"
fill="none" stroke="black" stroke-width="0.5"/>
<path d="M540.52 700.23L540.52 674.86"
fill="none" stroke="black" stroke-width="0.5"/>
<path d="M540.52 504.2L540.52 478.83"
fill="none" stroke="black" stroke-width="0.5"/>
<path d="M540.52 308.17L540.52 282.8"
fill="none" stroke="black" stroke-width="0.5"/>
<path d="M540.52 112.14L540.52 86.77"
fill="none" stroke="black" stroke-width="0.5"/>
<path d="M442.51 700.23L442.51 674.86"
fill="none" stroke="black" stroke-width="0.5"/>
<path d="M442.51 504.2L442.51 478.83"
fill="none" stroke="black" stroke-width="0.5"/>
<path d="M442.51 308.17L442.51 282.8"
fill="none" stroke="black" stroke-width="0.5"/>
<path d="M442.51 112.14L442.51 86.77"
fill="none" stroke="black" stroke-width="0.5"/>
<path d="M344.49 700.23L344.49 674.86"
fill="none" stroke="black" stroke-width="0.5"/>
<path d="M344.49 504.2L344.49 478.83"
fill="none" stroke="black" stroke-width="0.5"/>
<path d="M344.49 308.17L344.49 282.8"
fill="none" stroke="black" stroke-width="0.5"/>
<path d="M344.49 112.14L344.49 86.77"
fill="none" stroke="black" stroke-width="0.5"/>
<path d="M246.48 700.23L246.48 674.86"
fill="none" stroke="black" stroke-width="0.5"/>
<path d="M246.48 504.2L246.48 478.83"
fill="none" stroke="black" stroke-width="0.5"/>
<path d="M246.48 308.17L246.48 282.8"
fill="none" stroke="black" stroke-width="0.5"/>
<path d="M246.48 112.14L246.48 86.77"
fill="none" stroke="black" stroke-width="0.5"/>
<path d="M148.46 700.23L148.46 674.86"
fill="none" stroke="black" stroke-width="0.5"/>
<path d="M148.46 504.2L148.46 478.83"
fill="none" stroke="black" stroke-width="0.5"/>
<path d="M148.46 308.17L148.46 282.8"
fill="none" stroke="black" stroke-width="0.5"/>
<path d="M148.46 112.14L148.46 86.77"
fill="none" stroke="black" stroke-width="0.5"/>
<path d="M50.45 700.23L50.45 674.86"
fill="none" stroke="black" stroke-width="0.5"/>
<path d="M50.45 504.2L50.45 478.83"
fill="none" stroke="black" stroke-width="0.5"/>
<path d="M50.45 308.17L50.45 282.8"
fill="none" stroke="black" stroke-width="0.5"/>
<path d="M50.45 112.14L50.45 86.77"
fill="none" stroke="black" stroke-width="0.5"/>
<path d="M700.23 736.55L723.34 723.34"
fill="none" stroke="black" stroke-width="0.5"/>
<path d="M504.2 736.55L527.32 723.34"
fill="none" stroke="black" stroke-width="0.5"/>
<path d="M700.23 540.52L723.34 527.32"
fill="none" stroke="black" stroke-width="0.5"/>
<path d="M308.17 736.55L331.29 723.34"
fill="none" stroke="black" stroke-width="0.5"/>
<path d="M504.2 540.52L527.32 527.32"
fill="none" stroke="black" stroke-width="0.5"/>
<path d="M112.14 736.55L135.26 723.34"
fill="none" stroke="black" stroke-width="0.5"/>
<path d="M700.23 344.49L723.34 331.29"
fill="none" stroke="black" stroke-width="0.5"/>
<path d="M308.17 540.52L331.29 527.32"
fill="none" stroke="black" stroke-width="0.5"/>
<path d="M504.2 344.49L527.32 331.29"
fill="none" stroke="black" stroke-width="0.5"/>
<path d="M112.14 540.52L135.26 527.32"
fill="none" stroke="black" stroke-width="0.5"/>
<path d="M700.23 148.46L723.34 135.26"
fill="none" stroke="black" stroke-width="0.5"/>
<path d="M308.17 344.49L331.29 331.29"
fill="none" stroke="black" stroke-width="0.5"/>
<path d="M504.2 148.46L527.32 135.26"
fill="none" stroke="black" stroke-width="0.5"/>
<path d="M112.14 344.49L135.26 331.29"
fill="none" stroke="black" stroke-width="0.5"/>
<path d="M308.17 148.46L331.29 135.26"
fill="none" stroke="black" stroke-width="0.5"/>
<path d="M112.14 148.46L135.26 135.26"
fill="none" stroke="black" stroke-width="0.5"/>
<path d="M148.46 112.14L135.26 135.26"
fill="none" stroke="black" stroke-width="0.5"/>
<path d="M148.46 308.17L135.26 331.29"
fill="none" stroke="black" stroke-width="0.5"/>
<path d="M344.49 112.14L331.29 135.26"
fill="none" stroke="black" stroke-width="0.5"/>
<path d="M148.46 504.2L135.26 527.32"
fill="none" stroke="black" stroke-width="0.5"/>
<path d="M344.49 308.17L331.29 331.29"
fill="none" stroke="black" stroke-width="0.5"/>
<path d="M148.46 700.23L135.26 723.34"
fill="none" stroke="black" stroke-width="0.5"/>
<path d="M540.52 112.14L527.32 135.26"
fill="none" stroke="black" stroke-width="0.5"/>
<path d="M344.49 504.2L331.29 527.32"
fill="none" stroke="black" stroke-width="0.5"/>
<path d="M540.52 308.17L527.32 331.29"
fill="none" stroke="black" stroke-width="0.5"/>
<path d="M344.49 700.23L331.29 723.34"
fill="none" stroke="black" stroke-width="0.5"/>
<path d="M736.55 112.14L723.34 135.26"
fill="none" stroke="black" stroke-width="0.5"/>
<path d="M540.52 504.2L527.32 527.32"
fill="none" stroke="black" stroke-width="0.5"/>
<path d="M736.55 308.17L723.34 331.29"
fill="none" stroke="black" stroke-width="0.5"/>
<path d="M540.52 700.23L527.32 723.34"
fill="none" stroke="black" stroke-width="0.5"/>
<path d="M736.55 504.2L723.34 527.32"
fill="none" stroke="black" stroke-width="0.5"/>
<path d="M736.55 700.23L723.34 723.34"
fill="none" stroke="black" stroke-width="0.5"/>
<path d="M736.55 86.77L723.34 63.66"
fill="none" stroke="black" stroke-width="0.5"/>
<path d="M736.55 282.8L723.34 259.68"
fill="none" stroke="black" stroke-width="0.5"/>
<path d="M540.52 86.77L527.32 63.66"
fill="none" stroke="black" stroke-width="0.5"/>
<path d="M736.55 478.83L723.34 455.71"
fill="none" stroke="black" stroke-width="0.5"/>
<path d="M540.52 282.8L527.32 259.68"
fill="none" stroke="black" stroke-width="0.5"/>
<path d="M736.55 674.86L723.34 651.74"
fill="none" stroke="black" stroke-width="0.5"/>
<path d="M344.49 86.77L331.29 63.66"
fill="none" stroke="black" stroke-width="0.5"/>
<path d="M540.52 478.83L527.32 455.71"
fill="none" stroke="black" stroke-width="0.5"/>
<path d="M344.49 282.8L331.29 259.68"
fill="none" stroke="black" stroke-width="0.5"/>
<path d="M540.52 674.86L527.32 651.74"
fill="none" stroke="black" stroke-width="0.5"/>
<path d="M148.46 86.77L135.26 63.66"
fill="none" stroke="black" stroke-width="0.5"/>
<path d="M344.49 478.83L331.29 455.71"
fill="none" stroke="black" stroke-width="0.5"/>
<path d="M148.46 282.8L135.26 259.68"
fill="none" stroke="black" stroke-width="0.5"/>
<path d="M344.49 674.86L331.29 651.74"
fill="none" stroke="black" stroke-width="0.5"/>
<path d="M148.46 478.83L135.26 455.71"
fill="none" stroke="black" stroke-width="0.5"/>
<path d="M148.46 674.86L135.26 651.74"
fill="none" stroke="black" stroke-width="0.5"/>
<path d="M112.14 638.54L135.26 651.74"
fill="none" stroke="black" stroke-width="0.5"/>
<path d="M308.17 638.54L331.29 651.74"
fill="none" stroke="black" stroke-width="0.5"/>
<path d="M112.14 442.51L135.26 455.71"
fill="none" stroke="black" stroke-width="0.5"/>
<path d="M504.2 638.54L527.32 651.74"
fill="none" stroke="black" stroke-width="0.5"/>
<path d="M308.17 442.51L331.29 455.71"
fill="none" stroke="black" stroke-width="0.5"/>
<path d="M700.23 638.54L723.34 651.74"
fill="none" stroke="black" stroke-width="0.5"/>
<path d="M112.14 246.48L135.26 259.68"
fill="none" stroke="black" stroke-width="0.5"/>
<path d="M504.2 442.51L527.32 455.71"
fill="none" stroke="black" stroke-width="0.5"/>
<path d="M308.17 246.48L331.29 259.68"
fill="none" stroke="black" stroke-width="0.5"/>
<path d="M700.23 442.51L723.34 455.71"
fill="none" stroke="black" stroke-width="0.5"/>
<path d="M112.14 50.45L135.26 63.66"
fill="none" stroke="black" stroke-width="0.5"/>
<path d="M504.2 246.48L527.32 259.68"
fill="none" stroke="black" stroke-width="0.5"/>
<path d="M308.17 50.45L331.29 63.66"
fill="none" stroke="black" stroke-width="0.5"/>
<path d="M700.23 246.48L723.34 259.68"
fill="none" stroke="black" stroke-width="0.5"/>
<path d="M504.2 50.45L527.32 63.66"
fill="none" stroke="black" stroke-width="0.5"/>
<path d="M700.23 50.45L723.34 63.66"
fill="none" stroke="black" stroke-width="0.5"/>
<path d="M86.77 50.45L63.66 63.66"
fill="none" stroke="black" stroke-width="0.5"/>
<path d="M282.8 50.45L259.68 63.66"
fill="none" stroke="black" stroke-width="0.5"/>
<path d="M86.77 246.48L63.66 259.68"
fill="none" stroke="black" stroke-width="0.5"/>
<path d="M478.83 50.45L455.71 63.66"
fill="none" stroke="black" stroke-width="0.5"/>
<path d="M282.8 246.48L259.68 259.68"
fill="none" stroke="black" stroke-width="0.5"/>
<path d="M674.86 50.45L651.74 63.66"
fill="none" stroke="black" stroke-width="0.5"/>
<path d="M86.77 442.51L63.66 455.71"
fill="none" stroke="black" stroke-width="0.5"/>
<path d="M478.83 246.48L455.71 259.68"
fill="none" stroke="black" stroke-width="0.5"/>
<path d="M282.8 442.51L259.68 455.71"
fill="none" stroke="black" stroke-width="0.5"/>
<path d="M674.86 246.48L651.74 259.68"
fill="none" stroke="black" stroke-width="0.5"/>
<path d="M86.77 638.54L63.66 651.74"
fill="none" stroke="black" stroke-width="0.5"/>
<path d="M478.83 442.51L455.71 455.71"
fill="none" stroke="black" stroke-width="0.5"/>
<path d="M282.8 638.54L259.68 651.74"
fill="none" stroke="black" stroke-width="0.5"/>
<path d="M674.86 442.51L651.74 455.71"
fill="none" stroke="black" stroke-width="0.5"/>
<path d="M478.83 638.54L455.71 651.74"
fill="none" stroke="black" stroke-width="0.5"/>
<path d="M674.86 638.54L651.74 651.74"
fill="none" stroke="black" stroke-width="0.5"/>
<path d="M638.54 674.86L651.74 651.74"
fill="none" stroke="black" stroke-width="0.5"/>
<path d="M638.54 478.83L651.74 455.71"
fill="none" stroke="black" stroke-width="0.5"/>
<path d="M442.51 674.86L455.71 651.74"
fill="none" stroke="black" stroke-width="0.5"/>
<path d="M638.54 282.8L651.74 259.68"
fill="none" stroke="black" stroke-width="0.5"/>
<path d="M442.51 478.83L455.71 455.71"
fill="none" stroke="black" stroke-width="0.5"/>
<path d="M638.54 86.77L651.74 63.66"
fill="none" stroke="black" stroke-width="0.5"/>
<path d="M246.48 674.86L259.68 651.74"
fill="none" stroke="black" stroke-width="0.5"/>
<path d="M442.51 282.8L455.71 259.68"
fill="none" stroke="black" stroke-width="0.5"/>
<path d="M246.48 478.83L259.68 455.71"
fill="none" stroke="black" stroke-width="0.5"/>
<path d="M442.51 86.77L455.71 63.66"
fill="none" stroke="black" stroke-width="0.5"/>
<path d="M50.45 674.86L63.66 651.74"
fill="none" stroke="black" stroke-width="0.5"/>
<path d="M246.48 282.8L259.68 259.68"
fill="none" stroke="black" stroke-width="0.5"/>
<path d="M50.45 478.83L63.66 455.71"
fill="none" stroke="black" stroke-width="0.5"/>
<path d="M246.48 86.77L259.68 63.66"
fill="none" stroke="black" stroke-width="0.5"/>
<path d="M50.45 282.8L63.66 259.68"
fill="none" stroke="black" stroke-width="0.5"/>
<path d="M50.45 86.77L63.66 63.66"
fill="none" stroke="black" stroke-width="0.5"/>
<path d="M50.45 700.23L63.66 723.34"
fill="none" stroke="black" stroke-width="0.5"/>
<path d="M50.45 504.2L63.66 527.32"
fill="none" stroke="black" stroke-width="0.5"/>
<path d="M246.48 700.23L259.68 723.34"
fill="none" stroke="black" stroke-width="0.5"/>
<path d="M50.45 308.17L63.66 331.29"
fill="none" stroke="black" stroke-width="0.5"/>
<path d="M246.48 504.2L259.68 527.32"
fill="none" stroke="black" stroke-width="0.5"/>
<path d="M50.45 112.14L63.66 135.26"
fill="none" stroke="black" stroke-width="0.5"/>
<path d="M442.51 700.23L455.71 723.34"
fill="none" stroke="black" stroke-width="0.5"/>
<path d="M246.48 308.17L259.68 331.29"
fill="none" stroke="black" stroke-width="0.5"/>
<path d="M442.51 504.2L455.71 527.32"
fill="none" stroke="black" stroke-width="0.5"/>
<path d="M246.48 112.14L259.68 135.26"
fill="none" stroke="black" stroke-width="0.5"/>
<path d="M638.54 700.23L651.74 723.34"
fill="none" stroke="black" stroke-width="0.5"/>
<path d="M442.51 308.17L455.71 331.29"
fill="none" stroke="black" stroke-width="0.5"/>
<path d="M638.54 504.2L651.74 527.32"
fill="none" stroke="black" stroke-width="0.5"/>
<path d="M442.51 112.14L455.71 135.26"
fill="none" stroke="black" stroke-width="0.5"/>
<path d="M638.54 308.17L651.74 331.29"
fill="none" stroke="black" stroke-width="0.5"/>
<path d="M638.54 112.14L651.74 135.26"
fill="none" stroke="black" stroke-width="0.5"/>
<path d="M674.86 148.46L651.74 135.26"
fill="none" stroke="black" stroke-width="0.5"/>
<path d="M478.83 148.46L455.71 135.26"
fill="none" stroke="black" stroke-width="0.5"/>
<path d="M674.86 344.49L651.74 331.29"
fill="none" stroke="black" stroke-width="0.5"/>
<path d="M282.8 148.46L259.68 135.26"
fill="none" stroke="black" stroke-width="0.5"/>
<path d="M478.83 344.49L455.71 331.29"
fill="none" stroke="black" stroke-width="0.5"/>
<path d="M86.77 148.46L63.66 135.26"
fill="none" stroke="black" stroke-width="0.5"/>
<path d="M674.86 540.52L651.74 527.32"
fill="none" stroke="black" stroke-width="0.5"/>
<path d="M282.8 344.49L259.68 331.29"
fill="none" stroke="black" stroke-width="0.5"/>
<path d="M478.83 540.52L455.71 527.32"
fill="none" stroke="black" stroke-width="0.5"/>
<path d="M86.77 344.49L63.66 331.29"
fill="none" stroke="black" stroke-width="0.5"/>
<path d="M674.86 736.55L651.74 723.34"
fill="none" stroke="black" stroke-width="0.5"/>
<path d="M282.8 540.52L259.68 527.32"
fill="none" stroke="black" stroke-width="0.5"/>
<path d="M478.83 736.55L455.71 723.34"
fill="none" stroke="black" stroke-width="0.5"/>
<path d="M86.77 540.52L63.66 527.32"
fill="none" stroke="black" stroke-width="0.5"/>
<path d="M282.8 736.55L259.68 723.34"
fill="none" stroke="black" stroke-width="0.5"/>
<path d="M86.77 736.55L63.66 723.34"
fill="none" stroke="black" stroke-width="0.5"/>
<path d="M1.44 589.53L58.62 589.53"
fill="none" stroke="black" stroke-width="0.5"/>
<path d="M336.32 589.53L450.68 589.53"
fill="none" stroke="black" stroke-width="0.5"/>
<path d="M728.38 589.53L785.56 589.53"
fill="none" stroke="black" stroke-width="0.5"/>
<path d="M1.44 197.47L58.62 197.47"
fill="none" stroke="black" stroke-width="0.5"/>
<path d="M336.32 197.47L450.68 197.47"
fill="none" stroke="black" stroke-width="0.5"/>
<path d="M728.38 197.47L785.56 197.47"
fill="none" stroke="black" stroke-width="0.5"/>
<path d="M192.57 594.43L202.37 594.43"
fill="none" stroke="black" stroke-width="0.5"/>
<path d="M584.63 594.43L594.43 594.43"
fill="none" stroke="black" stroke-width="0.5"/>
<path d="M192.57 202.37L202.37 202.37"
fill="none" stroke="black" stroke-width="0.5"/>
<path d="M584.63 202.37L594.43 202.37"
fill="none" stroke="black" stroke-width="0.5"/>
<path d="M192.57 584.63L202.37 584.63"
fill="none" stroke="black" stroke-width="0.5"/>
<path d="M584.63 584.63L594.43 584.63"
fill="none" stroke="black" stroke-width="0.5"/>
<path d="M192.57 192.57L202.37 192.57"
fill="none" stroke="black" stroke-width="0.5"/>
<path d="M584.63 192.57L594.43 192.57"
fill="none" stroke="black" stroke-width="0.5"/>
<path d="M584.63 594.43L584.63 584.63"
fill="none" stroke="black" stroke-width="0.5"/>
<path d="M584.63 202.37L584.63 192.57"
fill="none" stroke="black" stroke-width="0.5"/>
<path d="M192.57 594.43L192.57 584.63"
fill="none" stroke="black" stroke-width="0.5"/>
<path d="M192.57 202.37L192.57 192.57"
fill="none" stroke="black" stroke-width="0.5"/>
<path d="M594.43 594.43L594.43 584.63"
fill="none" stroke="black" stroke-width="0.5"/>
<path d="M594.43 202.37L594.43 192.57"
fill="none" stroke="black" stroke-width="0.5"/>
<path d="M202.37 594.43L202.37 584.63"
fill="none" stroke="black" stroke-width="0.5"/>
<path d="M202.37 202.37L202.37 192.57"
fill="none" stroke="black" stroke-width="0.5"/>
</svg>
