<?xml version="1.0" encoding="UTF-8"?>
<svg xmlns="http://www.w3.org/2000/svg" width="99.949mm" height="99.949mm" viewBox="0.0 0.0 787.000 787.000" preserveAspectRatio="none" version="1.1">
  <title>Produce by Acme CAD Converter</title>
  <desc>Produce by Acme CAD Converter</desc>
<path d="M99.3 531.31L159.76 531.31"
fill="none" stroke="black" stroke-width="0.5"/>
<path d="M502.39 531.31L562.85 531.31"
fill="none" stroke="black" stroke-width="0.5"/>
<path d="M99.3 128.22L159.76 128.22"
fill="none" stroke="black" stroke-width="0.5"/>
<path d="M502.39 128.22L562.85 128.22"
fill="none" stroke="black" stroke-width="0.5"/>
<path d="M421.23 430.07L480.51 418.22"
fill="none" stroke="black" stroke-width="0.5"/>
<path d="M18.14 430.07L77.43 418.22"
fill="none" stroke="black" stroke-width="0.5"/>
<path d="M421.23 26.98L480.51 15.13"
fill="none" stroke="black" stroke-width="0.5"/>
<path d="M18.14 26.98L77.43 15.13"
fill="none" stroke="black" stroke-width="0.5"/>
<path d="M404.53 684.67L460.67 662.21"
fill="none" stroke="black" stroke-width="0.5"/>
<path d="M1.44 684.67L57.58 662.21"
fill="none" stroke="black" stroke-width="0.5"/>
<path d="M404.53 281.58L460.67 259.12"
fill="none" stroke="black" stroke-width="0.5"/>
<path d="M1.44 281.58L57.58 259.12"
fill="none" stroke="black" stroke-width="0.5"/>
<path d="M597.37 563.03L647.68 529.49"
fill="none" stroke="black" stroke-width="0.5"/>
<path d="M194.29 563.02L244.6 529.48"
fill="none" stroke="black" stroke-width="0.5"/>
<path d="M597.38 159.93L647.69 126.39"
fill="none" stroke="black" stroke-width="0.5"/>
<path d="M194.31 159.92L244.61 126.39"
fill="none" stroke="black" stroke-width="0.5"/>
<path d="M718.63 585.43L761.38 542.67"
fill="none" stroke="black" stroke-width="0.5"/>
<path d="M315.54 585.43L358.29 542.67"
fill="none" stroke="black" stroke-width="0.5"/>
<path d="M718.63 182.34L761.38 139.58"
fill="none" stroke="black" stroke-width="0.5"/>
<path d="M315.54 182.34L358.29 139.58"
fill="none" stroke="black" stroke-width="0.5"/>
<path d="M499.14 668.5L532.67 618.2"
fill="none" stroke="black" stroke-width="0.5"/>
<path d="M499.13 265.43L532.67 215.12"
fill="none" stroke="black" stroke-width="0.5"/>
<path d="M96.04 668.52L129.58 618.21"
fill="none" stroke="black" stroke-width="0.5"/>
<path d="M96.03 265.44L129.57 215.13"
fill="none" stroke="black" stroke-width="0.5"/>
<path d="M633.83 757.25L656.29 701.11"
fill="none" stroke="black" stroke-width="0.5"/>
<path d="M633.83 354.16L656.29 298.02"
fill="none" stroke="black" stroke-width="0.5"/>
<path d="M230.74 757.25L253.2 701.11"
fill="none" stroke="black" stroke-width="0.5"/>
<path d="M230.74 354.16L253.2 298.02"
fill="none" stroke="black" stroke-width="0.5"/>
<path d="M424.95 538.35L436.81 479.06"
fill="none" stroke="black" stroke-width="0.5"/>
<path d="M424.95 135.26L436.81 75.97"
fill="none" stroke="black" stroke-width="0.5"/>
<path d="M21.86 538.35L33.72 479.06"
fill="none" stroke="black" stroke-width="0.5"/>
<path d="M21.86 135.26L33.72 75.97"
fill="none" stroke="black" stroke-width="0.5"/>
<path d="M703.65 469.8L703.65 409.34"
fill="none" stroke="black" stroke-width="0.5"/>
<path d="M703.65 66.71L703.65 6.25"
fill="none" stroke="black" stroke-width="0.5"/>
<path d="M300.56 469.8L300.56 409.34"
fill="none" stroke="black" stroke-width="0.5"/>
<path d="M300.56 66.71L300.56 6.25"
fill="none" stroke="black" stroke-width="0.5"/>
<path d="M785.56 338.03L773.7 278.74"
fill="none" stroke="black" stroke-width="0.5"/>
<path d="M785.56 741.12L773.7 681.83"
fill="none" stroke="black" stroke-width="0.5"/>
<path d="M382.47 338.03L370.61 278.74"
fill="none" stroke="black" stroke-width="0.5"/>
<path d="M382.47 741.12L370.61 681.83"
fill="none" stroke="black" stroke-width="0.5"/>
<path d="M501.9 336.86L479.44 280.72"
fill="none" stroke="black" stroke-width="0.5"/>
<path d="M501.9 739.95L479.44 683.81"
fill="none" stroke="black" stroke-width="0.5"/>
<path d="M98.81 336.86L76.35 280.72"
fill="none" stroke="black" stroke-width="0.5"/>
<path d="M98.81 739.95L76.35 683.81"
fill="none" stroke="black" stroke-width="0.5"/>
<path d="M677.74 227.76L644.2 177.45"
fill="none" stroke="black" stroke-width="0.5"/>
<path d="M677.73 630.84L644.19 580.53"
fill="none" stroke="black" stroke-width="0.5"/>
<path d="M274.64 227.75L241.1 177.44"
fill="none" stroke="black" stroke-width="0.5"/>
<path d="M274.63 630.83L241.1 580.52"
fill="none" stroke="black" stroke-width="0.5"/>
<path d="M587.7 249.09L544.95 206.33"
fill="none" stroke="black" stroke-width="0.5"/>
<path d="M587.7 652.18L544.95 609.42"
fill="none" stroke="black" stroke-width="0.5"/>
<path d="M184.61 249.09L141.86 206.33"
fill="none" stroke="black" stroke-width="0.5"/>
<path d="M184.61 652.18L141.86 609.42"
fill="none" stroke="black" stroke-width="0.5"/>
<path d="M719.06 377.64L668.75 344.11"
fill="none" stroke="black" stroke-width="0.5"/>
<path d="M315.99 377.66L265.68 344.12"
fill="none" stroke="black" stroke-width="0.5"/>
<path d="M719.08 780.75L668.77 747.21"
fill="none" stroke="black" stroke-width="0.5"/>
<path d="M316 780.75L265.69 747.21"
fill="none" stroke="black" stroke-width="0.5"/>
<path d="M505.66 57.53L449.53 35.07"
fill="none" stroke="black" stroke-width="0.5"/>
<path d="M102.57 57.53L46.44 35.07"
fill="none" stroke="black" stroke-width="0.5"/>
<path d="M505.66 460.62L449.53 438.16"
fill="none" stroke="black" stroke-width="0.5"/>
<path d="M102.57 460.62L46.44 438.16"
fill="none" stroke="black" stroke-width="0.5"/>
<path d="M610.86 51.05L551.57 39.19"
fill="none" stroke="black" stroke-width="0.5"/>
<path d="M207.77 51.05L148.48 39.19"
fill="none" stroke="black" stroke-width="0.5"/>
<path d="M610.86 454.14L551.57 442.28"
fill="none" stroke="black" stroke-width="0.5"/>
<path d="M207.77 454.14L148.48 442.28"
fill="none" stroke="black" stroke-width="0.5"/>
</svg>
