<?xml version="1.0" encoding="UTF-8"?>
<svg xmlns="http://www.w3.org/2000/svg" width="99.949mm" height="99.949mm" viewBox="0.0 0.0 787.000 787.000" preserveAspectRatio="none" version="1.1">
  <title>Produce by Acme CAD Converter</title>
  <desc>Produce by Acme CAD Converter</desc>
<path d="M7.67 773.75L66.48 773.75"
fill="none" stroke="black" stroke-width="0.5"/>
<path d="M37.07 785.56L37.07 744.35"
fill="none" stroke="black" stroke-width="0.5"/>
<path d="M37.07 19.04L37.07 1.44"
fill="none" stroke="black" stroke-width="0.5"/>
<path d="M170.06 765.33L228.87 765.33"
fill="none" stroke="black" stroke-width="0.5"/>
<path d="M199.46 785.56L199.46 735.92"
fill="none" stroke="black" stroke-width="0.5"/>
<path d="M199.46 10.62L199.46 1.44"
fill="none" stroke="black" stroke-width="0.5"/>
<path d="M344.94 761.72L403.74 761.72"
fill="none" stroke="black" stroke-width="0.5"/>
<path d="M374.34 785.56L374.34 732.32"
fill="none" stroke="black" stroke-width="0.5"/>
<path d="M374.34 7.01L374.34 1.44"
fill="none" stroke="black" stroke-width="0.5"/>
<path d="M561.64 704.06L620.45 704.06"
fill="none" stroke="black" stroke-width="0.5"/>
<path d="M591.04 733.46L591.04 674.66"
fill="none" stroke="black" stroke-width="0.5"/>
<path d="M47.37 652.92L106.18 652.92"
fill="none" stroke="black" stroke-width="0.5"/>
<path d="M76.77 682.33L76.77 623.52"
fill="none" stroke="black" stroke-width="0.5"/>
<path d="M297.89 605.9L356.7 605.9"
fill="none" stroke="black" stroke-width="0.5"/>
<path d="M327.29 635.31L327.29 576.5"
fill="none" stroke="black" stroke-width="0.5"/>
<path d="M504.13 681.02L562.94 681.02"
fill="none" stroke="black" stroke-width="0.5"/>
<path d="M533.54 710.42L533.54 651.61"
fill="none" stroke="black" stroke-width="0.5"/>
<path d="M663.25 626.32L722.06 626.32"
fill="none" stroke="black" stroke-width="0.5"/>
<path d="M692.66 655.73L692.66 596.92"
fill="none" stroke="black" stroke-width="0.5"/>
<path d="M718.4 520.08L777.21 520.08"
fill="none" stroke="black" stroke-width="0.5"/>
<path d="M747.81 549.48L747.81 490.67"
fill="none" stroke="black" stroke-width="0.5"/>
<path d="M146.45 509.9L205.26 509.9"
fill="none" stroke="black" stroke-width="0.5"/>
<path d="M175.85 539.3L175.85 480.49"
fill="none" stroke="black" stroke-width="0.5"/>
<path d="M406.26 533.31L465.07 533.31"
fill="none" stroke="black" stroke-width="0.5"/>
<path d="M435.66 562.72L435.66 503.91"
fill="none" stroke="black" stroke-width="0.5"/>
<path d="M543.85 501.46L602.66 501.46"
fill="none" stroke="black" stroke-width="0.5"/>
<path d="M573.26 530.87L573.26 472.06"
fill="none" stroke="black" stroke-width="0.5"/>
<path d="M31.66 440.87L90.47 440.87"
fill="none" stroke="black" stroke-width="0.5"/>
<path d="M61.06 470.28L61.06 411.47"
fill="none" stroke="black" stroke-width="0.5"/>
<path d="M255.59 462.26L314.4 462.26"
fill="none" stroke="black" stroke-width="0.5"/>
<path d="M284.99 491.67L284.99 432.86"
fill="none" stroke="black" stroke-width="0.5"/>
<path d="M450.23 458.77L509.04 458.77"
fill="none" stroke="black" stroke-width="0.5"/>
<path d="M479.64 488.18L479.64 429.37"
fill="none" stroke="black" stroke-width="0.5"/>
<path d="M671.83 429.86L730.64 429.86"
fill="none" stroke="black" stroke-width="0.5"/>
<path d="M701.23 459.26L701.23 400.45"
fill="none" stroke="black" stroke-width="0.5"/>
<path d="M1.44 349.01L15.65 349.01"
fill="none" stroke="black" stroke-width="0.5"/>
<path d="M740.96 349.01L785.56 349.01"
fill="none" stroke="black" stroke-width="0.5"/>
<path d="M770.36 378.41L770.36 319.6"
fill="none" stroke="black" stroke-width="0.5"/>
<path d="M208.37 312.91L267.18 312.91"
fill="none" stroke="black" stroke-width="0.5"/>
<path d="M237.78 342.31L237.78 283.5"
fill="none" stroke="black" stroke-width="0.5"/>
<path d="M331.9 342.13L390.71 342.13"
fill="none" stroke="black" stroke-width="0.5"/>
<path d="M361.3 371.53L361.3 312.72"
fill="none" stroke="black" stroke-width="0.5"/>
<path d="M610.81 313.29L669.62 313.29"
fill="none" stroke="black" stroke-width="0.5"/>
<path d="M640.21 342.69L640.21 283.88"
fill="none" stroke="black" stroke-width="0.5"/>
<path d="M94.09 231.38L152.89 231.38"
fill="none" stroke="black" stroke-width="0.5"/>
<path d="M123.49 260.79L123.49 201.98"
fill="none" stroke="black" stroke-width="0.5"/>
<path d="M266.02 250.07L324.83 250.07"
fill="none" stroke="black" stroke-width="0.5"/>
<path d="M295.42 279.47L295.42 220.67"
fill="none" stroke="black" stroke-width="0.5"/>
<path d="M497.18 212.1L555.99 212.1"
fill="none" stroke="black" stroke-width="0.5"/>
<path d="M526.58 241.5L526.58 182.69"
fill="none" stroke="black" stroke-width="0.5"/>
<path d="M657.14 264.76L715.95 264.76"
fill="none" stroke="black" stroke-width="0.5"/>
<path d="M686.54 294.16L686.54 235.35"
fill="none" stroke="black" stroke-width="0.5"/>
<path d="M1.44 161.98L16.75 161.98"
fill="none" stroke="black" stroke-width="0.5"/>
<path d="M742.05 161.98L785.56 161.98"
fill="none" stroke="black" stroke-width="0.5"/>
<path d="M771.46 191.38L771.46 132.57"
fill="none" stroke="black" stroke-width="0.5"/>
<path d="M150.53 158.67L209.34 158.67"
fill="none" stroke="black" stroke-width="0.5"/>
<path d="M179.94 188.07L179.94 129.27"
fill="none" stroke="black" stroke-width="0.5"/>
<path d="M391.47 188.18L450.28 188.18"
fill="none" stroke="black" stroke-width="0.5"/>
<path d="M420.88 217.59L420.88 158.78"
fill="none" stroke="black" stroke-width="0.5"/>
<path d="M547.28 194.69L606.09 194.69"
fill="none" stroke="black" stroke-width="0.5"/>
<path d="M576.68 224.1L576.68 165.29"
fill="none" stroke="black" stroke-width="0.5"/>
<path d="M112.66 72.62L171.47 72.62"
fill="none" stroke="black" stroke-width="0.5"/>
<path d="M142.07 102.02L142.07 43.21"
fill="none" stroke="black" stroke-width="0.5"/>
<path d="M278.05 23.23L336.86 23.23"
fill="none" stroke="black" stroke-width="0.5"/>
<path d="M307.46 785.56L307.46 777.94"
fill="none" stroke="black" stroke-width="0.5"/>
<path d="M307.46 52.64L307.46 1.44"
fill="none" stroke="black" stroke-width="0.5"/>
<path d="M453.93 69.75L512.74 69.75"
fill="none" stroke="black" stroke-width="0.5"/>
<path d="M483.33 99.16L483.33 40.35"
fill="none" stroke="black" stroke-width="0.5"/>
<path d="M706.16 74.2L764.97 74.2"
fill="none" stroke="black" stroke-width="0.5"/>
<path d="M735.57 103.61L735.57 44.8"
fill="none" stroke="black" stroke-width="0.5"/>
</svg>
