<?xml version="1.0" encoding="UTF-8"?>
<svg xmlns="http://www.w3.org/2000/svg" width="99.949mm" height="99.949mm" viewBox="0.0 0.0 787.000 787.000" preserveAspectRatio="none" version="1.1">
  <title>Produce by Acme CAD Converter</title>
  <desc>Produce by Acme CAD Converter</desc>
<path d="M211.07 729.55L323.09 729.55"
fill="none" stroke="black" stroke-width="0.5"/>
<path d="M435.11 729.55L547.12 729.55"
fill="none" stroke="black" stroke-width="0.5"/>
<path d="M169.47 505.52L211.07 505.52"
fill="none" stroke="black" stroke-width="0.5"/>
<path d="M323.09 505.52L435.11 505.52"
fill="none" stroke="black" stroke-width="0.5"/>
<path d="M547.12 505.52L617.53 505.52"
fill="none" stroke="black" stroke-width="0.5"/>
<path d="M211.07 281.48L323.09 281.48"
fill="none" stroke="black" stroke-width="0.5"/>
<path d="M435.11 281.48L547.12 281.48"
fill="none" stroke="black" stroke-width="0.5"/>
<path d="M169.47 57.45L211.07 57.45"
fill="none" stroke="black" stroke-width="0.5"/>
<path d="M323.09 57.45L435.11 57.45"
fill="none" stroke="black" stroke-width="0.5"/>
<path d="M547.12 57.45L617.53 57.45"
fill="none" stroke="black" stroke-width="0.5"/>
<path d="M603.13 561.52L603.13 449.51"
fill="none" stroke="black" stroke-width="0.5"/>
<path d="M603.13 113.46L603.13 1.44"
fill="none" stroke="black" stroke-width="0.5"/>
<path d="M491.11 785.56L491.11 673.54"
fill="none" stroke="black" stroke-width="0.5"/>
<path d="M491.11 337.49L491.11 225.48"
fill="none" stroke="black" stroke-width="0.5"/>
<path d="M379.1 561.52L379.1 449.51"
fill="none" stroke="black" stroke-width="0.5"/>
<path d="M379.1 113.46L379.1 1.44"
fill="none" stroke="black" stroke-width="0.5"/>
<path d="M267.08 785.56L267.08 673.54"
fill="none" stroke="black" stroke-width="0.5"/>
<path d="M267.08 337.49L267.08 225.48"
fill="none" stroke="black" stroke-width="0.5"/>
<path d="M252.58 785.56L281.58 785.56"
fill="none" stroke="black" stroke-width="0.5"/>
<path d="M476.62 785.56L505.61 785.56"
fill="none" stroke="black" stroke-width="0.5"/>
<path d="M169.47 561.52L169.56 561.52"
fill="none" stroke="black" stroke-width="0.5"/>
<path d="M364.6 561.52L393.6 561.52"
fill="none" stroke="black" stroke-width="0.5"/>
<path d="M588.63 561.52L617.53 561.52"
fill="none" stroke="black" stroke-width="0.5"/>
<path d="M252.58 337.49L281.58 337.49"
fill="none" stroke="black" stroke-width="0.5"/>
<path d="M476.62 337.49L505.61 337.49"
fill="none" stroke="black" stroke-width="0.5"/>
<path d="M169.47 113.46L169.56 113.46"
fill="none" stroke="black" stroke-width="0.5"/>
<path d="M364.6 113.46L393.6 113.46"
fill="none" stroke="black" stroke-width="0.5"/>
<path d="M588.63 113.46L617.53 113.46"
fill="none" stroke="black" stroke-width="0.5"/>
<path d="M252.58 673.54L281.58 673.54"
fill="none" stroke="black" stroke-width="0.5"/>
<path d="M476.62 673.54L505.61 673.54"
fill="none" stroke="black" stroke-width="0.5"/>
<path d="M169.47 449.51L169.56 449.51"
fill="none" stroke="black" stroke-width="0.5"/>
<path d="M364.6 449.51L393.6 449.51"
fill="none" stroke="black" stroke-width="0.5"/>
<path d="M588.63 449.51L617.53 449.51"
fill="none" stroke="black" stroke-width="0.5"/>
<path d="M252.58 225.48L281.58 225.48"
fill="none" stroke="black" stroke-width="0.5"/>
<path d="M476.62 225.48L505.61 225.48"
fill="none" stroke="black" stroke-width="0.5"/>
<path d="M169.47 1.44L169.56 1.44"
fill="none" stroke="black" stroke-width="0.5"/>
<path d="M364.6 1.44L393.6 1.44"
fill="none" stroke="black" stroke-width="0.5"/>
<path d="M588.63 1.44L617.53 1.44"
fill="none" stroke="black" stroke-width="0.5"/>
<path d="M547.12 744.05L547.12 715.05"
fill="none" stroke="black" stroke-width="0.5"/>
<path d="M547.12 520.01L547.12 491.02"
fill="none" stroke="black" stroke-width="0.5"/>
<path d="M547.12 295.98L547.12 266.99"
fill="none" stroke="black" stroke-width="0.5"/>
<path d="M547.12 71.95L547.12 42.95"
fill="none" stroke="black" stroke-width="0.5"/>
<path d="M435.11 744.05L435.11 715.05"
fill="none" stroke="black" stroke-width="0.5"/>
<path d="M435.11 520.01L435.11 491.02"
fill="none" stroke="black" stroke-width="0.5"/>
<path d="M435.11 295.98L435.11 266.99"
fill="none" stroke="black" stroke-width="0.5"/>
<path d="M435.11 71.95L435.11 42.95"
fill="none" stroke="black" stroke-width="0.5"/>
<path d="M323.09 744.05L323.09 715.05"
fill="none" stroke="black" stroke-width="0.5"/>
<path d="M323.09 520.01L323.09 491.02"
fill="none" stroke="black" stroke-width="0.5"/>
<path d="M323.09 295.98L323.09 266.99"
fill="none" stroke="black" stroke-width="0.5"/>
<path d="M323.09 71.95L323.09 42.95"
fill="none" stroke="black" stroke-width="0.5"/>
<path d="M211.07 744.05L211.07 715.05"
fill="none" stroke="black" stroke-width="0.5"/>
<path d="M211.07 520.01L211.07 491.02"
fill="none" stroke="black" stroke-width="0.5"/>
<path d="M211.07 295.98L211.07 266.99"
fill="none" stroke="black" stroke-width="0.5"/>
<path d="M211.07 71.95L211.07 42.95"
fill="none" stroke="black" stroke-width="0.5"/>
<path d="M547.12 744.05L547.12 715.05"
fill="none" stroke="black" stroke-width="0.5"/>
<path d="M547.12 520.01L547.12 491.02"
fill="none" stroke="black" stroke-width="0.5"/>
<path d="M547.12 295.98L547.12 266.99"
fill="none" stroke="black" stroke-width="0.5"/>
<path d="M547.12 71.95L547.12 42.95"
fill="none" stroke="black" stroke-width="0.5"/>
<path d="M435.11 744.05L435.11 715.05"
fill="none" stroke="black" stroke-width="0.5"/>
<path d="M435.11 520.01L435.11 491.02"
fill="none" stroke="black" stroke-width="0.5"/>
<path d="M435.11 295.98L435.11 266.99"
fill="none" stroke="black" stroke-width="0.5"/>
<path d="M435.11 71.95L435.11 42.95"
fill="none" stroke="black" stroke-width="0.5"/>
<path d="M323.09 744.05L323.09 715.05"
fill="none" stroke="black" stroke-width="0.5"/>
<path d="M323.09 520.01L323.09 491.02"
fill="none" stroke="black" stroke-width="0.5"/>
<path d="M323.09 295.98L323.09 266.99"
fill="none" stroke="black" stroke-width="0.5"/>
<path d="M323.09 71.95L323.09 42.95"
fill="none" stroke="black" stroke-width="0.5"/>
<path d="M211.07 744.05L211.07 715.05"
fill="none" stroke="black" stroke-width="0.5"/>
<path d="M211.07 520.01L211.07 491.02"
fill="none" stroke="black" stroke-width="0.5"/>
<path d="M211.07 295.98L211.07 266.99"
fill="none" stroke="black" stroke-width="0.5"/>
<path d="M211.07 71.95L211.07 42.95"
fill="none" stroke="black" stroke-width="0.5"/>
<path d="M505.61 785.56L532.03 770.46"
fill="none" stroke="black" stroke-width="0.5"/>
<path d="M281.58 785.56L308 770.46"
fill="none" stroke="black" stroke-width="0.5"/>
<path d="M393.6 561.52L420.01 546.43"
fill="none" stroke="black" stroke-width="0.5"/>
<path d="M169.56 561.52L195.98 546.43"
fill="none" stroke="black" stroke-width="0.5"/>
<path d="M505.61 337.49L532.03 322.4"
fill="none" stroke="black" stroke-width="0.5"/>
<path d="M281.58 337.49L308 322.4"
fill="none" stroke="black" stroke-width="0.5"/>
<path d="M393.6 113.46L420.01 98.37"
fill="none" stroke="black" stroke-width="0.5"/>
<path d="M169.56 113.46L195.98 98.37"
fill="none" stroke="black" stroke-width="0.5"/>
<path d="M211.07 71.95L195.98 98.37"
fill="none" stroke="black" stroke-width="0.5"/>
<path d="M435.11 71.95L420.01 98.37"
fill="none" stroke="black" stroke-width="0.5"/>
<path d="M323.09 295.98L308 322.4"
fill="none" stroke="black" stroke-width="0.5"/>
<path d="M211.07 520.01L195.98 546.43"
fill="none" stroke="black" stroke-width="0.5"/>
<path d="M547.12 295.98L532.03 322.4"
fill="none" stroke="black" stroke-width="0.5"/>
<path d="M435.11 520.01L420.01 546.43"
fill="none" stroke="black" stroke-width="0.5"/>
<path d="M323.09 744.05L308 770.46"
fill="none" stroke="black" stroke-width="0.5"/>
<path d="M547.12 744.05L532.03 770.46"
fill="none" stroke="black" stroke-width="0.5"/>
<path d="M435.11 42.95L420.01 16.54"
fill="none" stroke="black" stroke-width="0.5"/>
<path d="M547.12 266.99L532.03 240.57"
fill="none" stroke="black" stroke-width="0.5"/>
<path d="M211.07 42.95L195.98 16.54"
fill="none" stroke="black" stroke-width="0.5"/>
<path d="M323.09 266.99L308 240.57"
fill="none" stroke="black" stroke-width="0.5"/>
<path d="M435.11 491.02L420.01 464.6"
fill="none" stroke="black" stroke-width="0.5"/>
<path d="M547.12 715.05L532.03 688.63"
fill="none" stroke="black" stroke-width="0.5"/>
<path d="M211.07 491.02L195.98 464.6"
fill="none" stroke="black" stroke-width="0.5"/>
<path d="M323.09 715.05L308 688.63"
fill="none" stroke="black" stroke-width="0.5"/>
<path d="M281.58 673.54L308 688.63"
fill="none" stroke="black" stroke-width="0.5"/>
<path d="M505.61 673.54L532.03 688.63"
fill="none" stroke="black" stroke-width="0.5"/>
<path d="M169.56 449.51L195.98 464.6"
fill="none" stroke="black" stroke-width="0.5"/>
<path d="M393.6 449.51L420.01 464.6"
fill="none" stroke="black" stroke-width="0.5"/>
<path d="M281.58 225.48L308 240.57"
fill="none" stroke="black" stroke-width="0.5"/>
<path d="M505.61 225.48L532.03 240.57"
fill="none" stroke="black" stroke-width="0.5"/>
<path d="M169.56 1.44L195.98 16.54"
fill="none" stroke="black" stroke-width="0.5"/>
<path d="M393.6 1.44L420.01 16.54"
fill="none" stroke="black" stroke-width="0.5"/>
<path d="M364.6 1.44L338.18 16.54"
fill="none" stroke="black" stroke-width="0.5"/>
<path d="M588.63 1.44L562.22 16.54"
fill="none" stroke="black" stroke-width="0.5"/>
<path d="M252.58 225.48L226.17 240.57"
fill="none" stroke="black" stroke-width="0.5"/>
<path d="M476.62 225.48L450.2 240.57"
fill="none" stroke="black" stroke-width="0.5"/>
<path d="M364.6 449.51L338.18 464.6"
fill="none" stroke="black" stroke-width="0.5"/>
<path d="M588.63 449.51L562.22 464.6"
fill="none" stroke="black" stroke-width="0.5"/>
<path d="M252.58 673.54L226.17 688.63"
fill="none" stroke="black" stroke-width="0.5"/>
<path d="M476.62 673.54L450.2 688.63"
fill="none" stroke="black" stroke-width="0.5"/>
<path d="M435.11 715.05L450.2 688.63"
fill="none" stroke="black" stroke-width="0.5"/>
<path d="M547.12 491.02L562.22 464.6"
fill="none" stroke="black" stroke-width="0.5"/>
<path d="M211.07 715.05L226.17 688.63"
fill="none" stroke="black" stroke-width="0.5"/>
<path d="M323.09 491.02L338.18 464.6"
fill="none" stroke="black" stroke-width="0.5"/>
<path d="M435.11 266.99L450.2 240.57"
fill="none" stroke="black" stroke-width="0.5"/>
<path d="M547.12 42.95L562.22 16.54"
fill="none" stroke="black" stroke-width="0.5"/>
<path d="M211.07 266.99L226.17 240.57"
fill="none" stroke="black" stroke-width="0.5"/>
<path d="M323.09 42.95L338.18 16.54"
fill="none" stroke="black" stroke-width="0.5"/>
<path d="M211.07 744.05L226.17 770.46"
fill="none" stroke="black" stroke-width="0.5"/>
<path d="M435.11 744.05L450.2 770.46"
fill="none" stroke="black" stroke-width="0.5"/>
<path d="M323.09 520.01L338.18 546.43"
fill="none" stroke="black" stroke-width="0.5"/>
<path d="M211.07 295.98L226.17 322.4"
fill="none" stroke="black" stroke-width="0.5"/>
<path d="M547.12 520.01L562.22 546.43"
fill="none" stroke="black" stroke-width="0.5"/>
<path d="M435.11 295.98L450.2 322.4"
fill="none" stroke="black" stroke-width="0.5"/>
<path d="M323.09 71.95L338.18 98.37"
fill="none" stroke="black" stroke-width="0.5"/>
<path d="M547.12 71.95L562.22 98.37"
fill="none" stroke="black" stroke-width="0.5"/>
<path d="M588.63 113.46L562.22 98.37"
fill="none" stroke="black" stroke-width="0.5"/>
<path d="M364.6 113.46L338.18 98.37"
fill="none" stroke="black" stroke-width="0.5"/>
<path d="M476.62 337.49L450.2 322.4"
fill="none" stroke="black" stroke-width="0.5"/>
<path d="M252.58 337.49L226.17 322.4"
fill="none" stroke="black" stroke-width="0.5"/>
<path d="M588.63 561.52L562.22 546.43"
fill="none" stroke="black" stroke-width="0.5"/>
<path d="M364.6 561.52L338.18 546.43"
fill="none" stroke="black" stroke-width="0.5"/>
<path d="M476.62 785.56L450.2 770.46"
fill="none" stroke="black" stroke-width="0.5"/>
<path d="M252.58 785.56L226.17 770.46"
fill="none" stroke="black" stroke-width="0.5"/>
</svg>
