<?xml version="1.0" encoding="UTF-8"?>
<svg xmlns="http://www.w3.org/2000/svg" width="99.949mm" height="99.949mm" viewBox="0.0 0.0 787.000 787.000" preserveAspectRatio="none" version="1.1">
  <title>Produce by Acme CAD Converter</title>
  <desc>Produce by Acme CAD Converter</desc>
<path d="M714.28 547.83L785.56 424.37"
fill="none" stroke="black" stroke-width="0.5"/>
<path d="M500.43 733.03L571.71 609.57"
fill="none" stroke="black" stroke-width="0.5"/>
<path d="M714.28 177.43L785.56 53.97"
fill="none" stroke="black" stroke-width="0.5"/>
<path d="M500.43 362.63L571.71 239.17"
fill="none" stroke="black" stroke-width="0.5"/>
<path d="M286.57 547.83L357.86 424.37"
fill="none" stroke="black" stroke-width="0.5"/>
<path d="M72.73 733.03L144.01 609.57"
fill="none" stroke="black" stroke-width="0.5"/>
<path d="M286.57 177.43L357.86 53.97"
fill="none" stroke="black" stroke-width="0.5"/>
<path d="M72.73 362.63L144.01 239.17"
fill="none" stroke="black" stroke-width="0.5"/>
<path d="M714.28 177.43L643 53.97"
fill="none" stroke="black" stroke-width="0.5"/>
<path d="M714.28 547.83L643 424.37"
fill="none" stroke="black" stroke-width="0.5"/>
<path d="M500.43 362.63L429.14 239.17"
fill="none" stroke="black" stroke-width="0.5"/>
<path d="M286.57 177.43L215.29 53.97"
fill="none" stroke="black" stroke-width="0.5"/>
<path d="M500.43 733.03L429.14 609.57"
fill="none" stroke="black" stroke-width="0.5"/>
<path d="M286.57 547.83L215.29 424.37"
fill="none" stroke="black" stroke-width="0.5"/>
<path d="M72.73 362.63L1.44 239.17"
fill="none" stroke="black" stroke-width="0.5"/>
<path d="M72.73 733.03L1.44 609.57"
fill="none" stroke="black" stroke-width="0.5"/>
</svg>
