<?xml version="1.0" encoding="UTF-8"?>
<svg xmlns="http://www.w3.org/2000/svg" width="99.949mm" height="99.949mm" viewBox="0.0 0.0 787.000 787.000" preserveAspectRatio="none" version="1.1">
  <title>Produce by Acme CAD Converter</title>
  <desc>Produce by Acme CAD Converter</desc>
<path d="M57.45 729.55L281.48 729.55"
fill="none" stroke="black" stroke-width="0.5"/>
<path d="M505.52 505.52L729.55 505.52"
fill="none" stroke="black" stroke-width="0.5"/>
<path d="M57.45 281.48L281.48 281.48"
fill="none" stroke="black" stroke-width="0.5"/>
<path d="M505.52 57.45L729.55 57.45"
fill="none" stroke="black" stroke-width="0.5"/>
<path d="M580.19 785.56L580.19 673.54"
fill="none" stroke="black" stroke-width="0.5"/>
<path d="M580.19 337.49L580.19 225.48"
fill="none" stroke="black" stroke-width="0.5"/>
<path d="M132.13 561.52L132.13 449.51"
fill="none" stroke="black" stroke-width="0.5"/>
<path d="M132.13 113.46L132.13 1.44"
fill="none" stroke="black" stroke-width="0.5"/>
<path d="M580.19 748.22L654.87 673.54"
fill="none" stroke="black" stroke-width="0.5"/>
<path d="M580.19 300.15L654.87 225.48"
fill="none" stroke="black" stroke-width="0.5"/>
<path d="M132.13 524.18L206.81 449.51"
fill="none" stroke="black" stroke-width="0.5"/>
<path d="M132.13 76.12L206.81 1.44"
fill="none" stroke="black" stroke-width="0.5"/>
<path d="M654.87 337.49L610.07 270.28"
fill="none" stroke="black" stroke-width="0.5"/>
<path d="M654.87 785.56L610.07 718.35"
fill="none" stroke="black" stroke-width="0.5"/>
<path d="M206.81 113.46L162 46.25"
fill="none" stroke="black" stroke-width="0.5"/>
<path d="M206.81 561.52L162 494.31"
fill="none" stroke="black" stroke-width="0.5"/>
</svg>
