<?xml version="1.0" encoding="UTF-8"?>
<svg xmlns="http://www.w3.org/2000/svg" width="99.949mm" height="99.949mm" viewBox="0.0 0.0 787.000 787.000" preserveAspectRatio="none" version="1.1">
  <title>Produce by Acme CAD Converter</title>
  <desc>Produce by Acme CAD Converter</desc>
<path d="M393.52 733.04L491.54 563.27"
fill="none" stroke="black" stroke-width="0.5"/>
<path d="M589.55 393.5L687.57 223.73"
fill="none" stroke="black" stroke-width="0.5"/>
<path d="M1.45 733.04L99.47 563.27"
fill="none" stroke="black" stroke-width="0.5"/>
<path d="M197.48 393.5L295.5 223.73"
fill="none" stroke="black" stroke-width="0.5"/>
<path d="M785.56 393.45L687.57 223.73"
fill="none" stroke="black" stroke-width="0.5"/>
<path d="M589.55 53.96L589.55 53.96"
fill="none" stroke="black" stroke-width="0.5"/>
<path d="M589.55 733.04L491.54 563.27"
fill="none" stroke="black" stroke-width="0.5"/>
<path d="M393.52 393.5L295.5 223.73"
fill="none" stroke="black" stroke-width="0.5"/>
<path d="M197.48 53.96L197.48 53.96"
fill="none" stroke="black" stroke-width="0.5"/>
<path d="M197.48 733.04L99.47 563.27"
fill="none" stroke="black" stroke-width="0.5"/>
<path d="M1.45 393.5L1.44 393.49"
fill="none" stroke="black" stroke-width="0.5"/>
<path d="M393.52 619.86L491.54 450.09"
fill="none" stroke="black" stroke-width="0.5"/>
<path d="M589.55 280.32L687.57 110.55"
fill="none" stroke="black" stroke-width="0.5"/>
<path d="M1.45 619.86L99.47 450.09"
fill="none" stroke="black" stroke-width="0.5"/>
<path d="M197.48 280.32L295.5 110.55"
fill="none" stroke="black" stroke-width="0.5"/>
<path d="M785.56 280.27L687.57 110.55"
fill="none" stroke="black" stroke-width="0.5"/>
<path d="M589.55 619.86L491.54 450.09"
fill="none" stroke="black" stroke-width="0.5"/>
<path d="M393.52 280.32L295.5 110.55"
fill="none" stroke="black" stroke-width="0.5"/>
<path d="M197.48 619.86L99.47 450.09"
fill="none" stroke="black" stroke-width="0.5"/>
<path d="M1.45 280.32L1.44 280.31"
fill="none" stroke="black" stroke-width="0.5"/>
<path d="M654.9 733.04L687.57 676.45"
fill="none" stroke="black" stroke-width="0.5"/>
<path d="M262.83 733.04L295.5 676.45"
fill="none" stroke="black" stroke-width="0.5"/>
<path d="M393.52 506.68L491.54 336.91"
fill="none" stroke="black" stroke-width="0.5"/>
<path d="M589.55 167.14L654.9 53.96"
fill="none" stroke="black" stroke-width="0.5"/>
<path d="M1.45 506.68L99.47 336.91"
fill="none" stroke="black" stroke-width="0.5"/>
<path d="M197.48 167.14L262.83 53.96"
fill="none" stroke="black" stroke-width="0.5"/>
<path d="M785.56 167.09L720.24 53.96"
fill="none" stroke="black" stroke-width="0.5"/>
<path d="M720.24 733.04L687.57 676.45"
fill="none" stroke="black" stroke-width="0.5"/>
<path d="M589.55 506.68L491.54 336.91"
fill="none" stroke="black" stroke-width="0.5"/>
<path d="M393.52 167.14L328.17 53.96"
fill="none" stroke="black" stroke-width="0.5"/>
<path d="M328.17 733.04L295.5 676.45"
fill="none" stroke="black" stroke-width="0.5"/>
<path d="M197.48 506.68L99.47 336.91"
fill="none" stroke="black" stroke-width="0.5"/>
<path d="M1.45 167.14L1.44 167.13"
fill="none" stroke="black" stroke-width="0.5"/>
</svg>
