<?xml version="1.0" encoding="UTF-8"?>
<svg xmlns="http://www.w3.org/2000/svg" width="99.949mm" height="99.949mm" viewBox="0.0 0.0 787.000 787.000" preserveAspectRatio="none" version="1.1">
  <title>Produce by Acme CAD Converter</title>
  <desc>Produce by Acme CAD Converter</desc>
<path d="M507.99 783.12L512.69 774.1"
fill="none" stroke="black" stroke-width="0.5"/>
<path d="M595.92 614.21L600.61 605.19"
fill="none" stroke="black" stroke-width="0.5"/>
<path d="M775.85 268.57L780.54 259.55"
fill="none" stroke="black" stroke-width="0.5"/>
<path d="M278.8 533.31L283.49 524.3"
fill="none" stroke="black" stroke-width="0.5"/>
<path d="M368.29 361.4L372.98 352.38"
fill="none" stroke="black" stroke-width="0.5"/>
<path d="M456.22 192.49L460.91 183.47"
fill="none" stroke="black" stroke-width="0.5"/>
<path d="M139.1 111.6L143.79 102.59"
fill="none" stroke="black" stroke-width="0.5"/>
<path d="M498.98 778.42L503.67 769.41"
fill="none" stroke="black" stroke-width="0.5"/>
<path d="M586.9 609.51L591.59 600.5"
fill="none" stroke="black" stroke-width="0.5"/>
<path d="M766.83 263.88L771.52 254.87"
fill="none" stroke="black" stroke-width="0.5"/>
<path d="M269.78 528.62L274.48 519.6"
fill="none" stroke="black" stroke-width="0.5"/>
<path d="M359.27 356.71L363.97 347.69"
fill="none" stroke="black" stroke-width="0.5"/>
<path d="M447.2 187.8L451.9 178.78"
fill="none" stroke="black" stroke-width="0.5"/>
<path d="M130.08 106.91L134.77 97.89"
fill="none" stroke="black" stroke-width="0.5"/>
<path d="M368.29 361.4L359.27 356.71"
fill="none" stroke="black" stroke-width="0.5"/>
<path d="M507.99 783.12L498.98 778.42"
fill="none" stroke="black" stroke-width="0.5"/>
<path d="M372.98 352.38L363.97 347.69"
fill="none" stroke="black" stroke-width="0.5"/>
<path d="M512.69 774.1L503.67 769.41"
fill="none" stroke="black" stroke-width="0.5"/>
<path d="M456.22 192.49L447.2 187.8"
fill="none" stroke="black" stroke-width="0.5"/>
<path d="M595.92 614.21L586.9 609.51"
fill="none" stroke="black" stroke-width="0.5"/>
<path d="M460.91 183.47L451.9 178.78"
fill="none" stroke="black" stroke-width="0.5"/>
<path d="M600.61 605.19L591.59 600.5"
fill="none" stroke="black" stroke-width="0.5"/>
<path d="M775.85 268.57L766.83 263.88"
fill="none" stroke="black" stroke-width="0.5"/>
<path d="M139.1 111.6L130.08 106.91"
fill="none" stroke="black" stroke-width="0.5"/>
<path d="M278.8 533.31L269.78 528.62"
fill="none" stroke="black" stroke-width="0.5"/>
<path d="M780.54 259.55L771.52 254.87"
fill="none" stroke="black" stroke-width="0.5"/>
<path d="M143.79 102.59L134.77 97.89"
fill="none" stroke="black" stroke-width="0.5"/>
<path d="M283.49 524.3L274.48 519.6"
fill="none" stroke="black" stroke-width="0.5"/>
<path d="M734.92 632.08L742.99 625.89"
fill="none" stroke="black" stroke-width="0.5"/>
<path d="M138.3 688.33L146.36 682.14"
fill="none" stroke="black" stroke-width="0.5"/>
<path d="M431.3 463.49L439.37 457.31"
fill="none" stroke="black" stroke-width="0.5"/>
<path d="M707.65 251.45L715.72 245.26"
fill="none" stroke="black" stroke-width="0.5"/>
<path d="M111.03 307.7L119.09 301.52"
fill="none" stroke="black" stroke-width="0.5"/>
<path d="M404.03 82.87L412.11 76.68"
fill="none" stroke="black" stroke-width="0.5"/>
<path d="M728.73 624.01L736.8 617.83"
fill="none" stroke="black" stroke-width="0.5"/>
<path d="M132.11 680.27L140.18 674.08"
fill="none" stroke="black" stroke-width="0.5"/>
<path d="M425.12 455.43L433.18 449.24"
fill="none" stroke="black" stroke-width="0.5"/>
<path d="M701.46 243.39L709.53 237.2"
fill="none" stroke="black" stroke-width="0.5"/>
<path d="M104.84 299.64L112.91 293.45"
fill="none" stroke="black" stroke-width="0.5"/>
<path d="M397.85 74.8L405.91 68.61"
fill="none" stroke="black" stroke-width="0.5"/>
<path d="M707.65 251.45L701.46 243.39"
fill="none" stroke="black" stroke-width="0.5"/>
<path d="M734.92 632.08L728.73 624.01"
fill="none" stroke="black" stroke-width="0.5"/>
<path d="M715.72 245.26L709.53 237.2"
fill="none" stroke="black" stroke-width="0.5"/>
<path d="M742.99 625.89L736.8 617.83"
fill="none" stroke="black" stroke-width="0.5"/>
<path d="M111.03 307.7L104.84 299.64"
fill="none" stroke="black" stroke-width="0.5"/>
<path d="M138.3 688.33L132.11 680.27"
fill="none" stroke="black" stroke-width="0.5"/>
<path d="M119.09 301.52L112.91 293.45"
fill="none" stroke="black" stroke-width="0.5"/>
<path d="M146.36 682.14L140.18 674.08"
fill="none" stroke="black" stroke-width="0.5"/>
<path d="M404.03 82.87L397.85 74.8"
fill="none" stroke="black" stroke-width="0.5"/>
<path d="M431.3 463.49L425.12 455.43"
fill="none" stroke="black" stroke-width="0.5"/>
<path d="M412.11 76.68L405.91 68.61"
fill="none" stroke="black" stroke-width="0.5"/>
<path d="M439.37 457.31L433.18 449.24"
fill="none" stroke="black" stroke-width="0.5"/>
<path d="M674.43 785.55L684.5 784.22"
fill="none" stroke="black" stroke-width="0.5"/>
<path d="M146.64 602.06L156.72 600.74"
fill="none" stroke="black" stroke-width="0.5"/>
<path d="M269.5 585.89L279.58 584.57"
fill="none" stroke="black" stroke-width="0.5"/>
<path d="M458.3 561.04L468.37 559.71"
fill="none" stroke="black" stroke-width="0.5"/>
<path d="M757.95 521.58L768.03 520.26"
fill="none" stroke="black" stroke-width="0.5"/>
<path d="M53.37 361.37L63.44 360.05"
fill="none" stroke="black" stroke-width="0.5"/>
<path d="M242.17 336.52L252.24 335.19"
fill="none" stroke="black" stroke-width="0.5"/>
<path d="M541.82 297.07L551.9 295.74"
fill="none" stroke="black" stroke-width="0.5"/>
<path d="M664.68 280.89L674.76 279.57"
fill="none" stroke="black" stroke-width="0.5"/>
<path d="M26.03 112.01L36.11 110.68"
fill="none" stroke="black" stroke-width="0.5"/>
<path d="M325.69 72.55L335.77 71.22"
fill="none" stroke="black" stroke-width="0.5"/>
<path d="M448.54 56.37L458.63 55.05"
fill="none" stroke="black" stroke-width="0.5"/>
<path d="M637.34 31.52L647.42 30.2"
fill="none" stroke="black" stroke-width="0.5"/>
<path d="M673.1 775.47L683.18 774.15"
fill="none" stroke="black" stroke-width="0.5"/>
<path d="M145.31 591.99L155.39 590.66"
fill="none" stroke="black" stroke-width="0.5"/>
<path d="M268.17 575.81L278.25 574.48"
fill="none" stroke="black" stroke-width="0.5"/>
<path d="M456.97 550.95L467.04 549.63"
fill="none" stroke="black" stroke-width="0.5"/>
<path d="M756.63 511.51L766.7 510.18"
fill="none" stroke="black" stroke-width="0.5"/>
<path d="M52.04 351.3L62.11 349.97"
fill="none" stroke="black" stroke-width="0.5"/>
<path d="M240.84 326.44L250.91 325.11"
fill="none" stroke="black" stroke-width="0.5"/>
<path d="M540.49 286.99L550.57 285.67"
fill="none" stroke="black" stroke-width="0.5"/>
<path d="M663.35 270.82L673.43 269.49"
fill="none" stroke="black" stroke-width="0.5"/>
<path d="M24.71 101.92L34.78 100.6"
fill="none" stroke="black" stroke-width="0.5"/>
<path d="M324.36 62.47L334.44 61.15"
fill="none" stroke="black" stroke-width="0.5"/>
<path d="M447.22 46.3L457.3 44.97"
fill="none" stroke="black" stroke-width="0.5"/>
<path d="M636.02 21.44L646.09 20.12"
fill="none" stroke="black" stroke-width="0.5"/>
<path d="M664.63 280.9L663.3 270.82"
fill="none" stroke="black" stroke-width="0.5"/>
<path d="M448.5 56.38L447.18 46.3"
fill="none" stroke="black" stroke-width="0.5"/>
<path d="M269.47 585.89L268.15 575.82"
fill="none" stroke="black" stroke-width="0.5"/>
<path d="M53.35 361.37L52.02 351.3"
fill="none" stroke="black" stroke-width="0.5"/>
<path d="M674.7 279.57L673.38 269.5"
fill="none" stroke="black" stroke-width="0.5"/>
<path d="M458.59 55.05L457.26 44.98"
fill="none" stroke="black" stroke-width="0.5"/>
<path d="M279.55 584.57L278.22 574.49"
fill="none" stroke="black" stroke-width="0.5"/>
<path d="M63.43 360.05L62.1 349.97"
fill="none" stroke="black" stroke-width="0.5"/>
<path d="M637.3 31.52L635.97 21.45"
fill="none" stroke="black" stroke-width="0.5"/>
<path d="M674.39 785.56L673.06 775.48"
fill="none" stroke="black" stroke-width="0.5"/>
<path d="M458.27 561.04L456.94 550.96"
fill="none" stroke="black" stroke-width="0.5"/>
<path d="M242.15 336.52L240.82 326.44"
fill="none" stroke="black" stroke-width="0.5"/>
<path d="M26.03 112.01L24.71 101.92"
fill="none" stroke="black" stroke-width="0.5"/>
<path d="M647.38 30.2L646.05 20.12"
fill="none" stroke="black" stroke-width="0.5"/>
<path d="M684.46 784.23L683.14 774.15"
fill="none" stroke="black" stroke-width="0.5"/>
<path d="M468.35 559.71L467.02 549.63"
fill="none" stroke="black" stroke-width="0.5"/>
<path d="M252.23 335.2L250.9 325.11"
fill="none" stroke="black" stroke-width="0.5"/>
<path d="M36.11 110.68L34.78 100.6"
fill="none" stroke="black" stroke-width="0.5"/>
<path d="M757.92 521.59L756.6 511.51"
fill="none" stroke="black" stroke-width="0.5"/>
<path d="M541.81 297.07L540.48 286.99"
fill="none" stroke="black" stroke-width="0.5"/>
<path d="M325.69 72.55L324.36 62.47"
fill="none" stroke="black" stroke-width="0.5"/>
<path d="M146.65 602.06L145.33 591.99"
fill="none" stroke="black" stroke-width="0.5"/>
<path d="M768.01 520.26L766.68 510.19"
fill="none" stroke="black" stroke-width="0.5"/>
<path d="M551.88 295.74L550.56 285.67"
fill="none" stroke="black" stroke-width="0.5"/>
<path d="M335.77 71.22L334.44 61.15"
fill="none" stroke="black" stroke-width="0.5"/>
<path d="M156.73 600.74L155.4 590.66"
fill="none" stroke="black" stroke-width="0.5"/>
<path d="M215.76 458.74L224.33 464.2"
fill="none" stroke="black" stroke-width="0.5"/>
<path d="M321.49 526.1L330.06 531.57"
fill="none" stroke="black" stroke-width="0.5"/>
<path d="M478.67 626.23L487.24 631.69"
fill="none" stroke="black" stroke-width="0.5"/>
<path d="M174.14 27.74L182.71 33.21"
fill="none" stroke="black" stroke-width="0.5"/>
<path d="M279.88 95.1L288.45 100.57"
fill="none" stroke="black" stroke-width="0.5"/>
<path d="M437.05 195.24L445.62 200.7"
fill="none" stroke="black" stroke-width="0.5"/>
<path d="M221.22 450.17L229.79 455.63"
fill="none" stroke="black" stroke-width="0.5"/>
<path d="M326.95 517.53L335.52 522.99"
fill="none" stroke="black" stroke-width="0.5"/>
<path d="M484.13 617.66L492.7 623.12"
fill="none" stroke="black" stroke-width="0.5"/>
<path d="M179.6 19.17L188.18 24.63"
fill="none" stroke="black" stroke-width="0.5"/>
<path d="M285.34 86.53L293.91 91.99"
fill="none" stroke="black" stroke-width="0.5"/>
<path d="M442.51 186.66L451.09 192.13"
fill="none" stroke="black" stroke-width="0.5"/>
<path d="M215.76 458.74L221.22 450.17"
fill="none" stroke="black" stroke-width="0.5"/>
<path d="M174.14 27.74L179.6 19.17"
fill="none" stroke="black" stroke-width="0.5"/>
<path d="M224.33 464.2L229.79 455.63"
fill="none" stroke="black" stroke-width="0.5"/>
<path d="M182.71 33.21L188.18 24.63"
fill="none" stroke="black" stroke-width="0.5"/>
<path d="M321.49 526.1L326.95 517.53"
fill="none" stroke="black" stroke-width="0.5"/>
<path d="M279.88 95.1L285.34 86.53"
fill="none" stroke="black" stroke-width="0.5"/>
<path d="M330.06 531.57L335.52 522.99"
fill="none" stroke="black" stroke-width="0.5"/>
<path d="M288.45 100.57L293.91 91.99"
fill="none" stroke="black" stroke-width="0.5"/>
<path d="M478.67 626.23L484.13 617.66"
fill="none" stroke="black" stroke-width="0.5"/>
<path d="M437.05 195.24L442.51 186.66"
fill="none" stroke="black" stroke-width="0.5"/>
<path d="M487.24 631.69L492.7 623.12"
fill="none" stroke="black" stroke-width="0.5"/>
<path d="M445.62 200.7L451.09 192.13"
fill="none" stroke="black" stroke-width="0.5"/>
<path d="M6.46 502.67L13.96 509.53"
fill="none" stroke="black" stroke-width="0.5"/>
<path d="M227.01 704.75L234.5 711.62"
fill="none" stroke="black" stroke-width="0.5"/>
<path d="M281.97 755.12L289.46 761.98"
fill="none" stroke="black" stroke-width="0.5"/>
<path d="M359.9 88.08L367.39 94.95"
fill="none" stroke="black" stroke-width="0.5"/>
<path d="M414.86 138.44L422.35 145.31"
fill="none" stroke="black" stroke-width="0.5"/>
<path d="M609.21 316.53L616.71 323.4"
fill="none" stroke="black" stroke-width="0.5"/>
<path d="M13.34 495.17L20.83 502.04"
fill="none" stroke="black" stroke-width="0.5"/>
<path d="M233.87 697.26L241.37 704.13"
fill="none" stroke="black" stroke-width="0.5"/>
<path d="M288.83 747.62L296.33 754.49"
fill="none" stroke="black" stroke-width="0.5"/>
<path d="M366.76 80.58L374.26 87.45"
fill="none" stroke="black" stroke-width="0.5"/>
<path d="M421.72 130.95L429.22 137.81"
fill="none" stroke="black" stroke-width="0.5"/>
<path d="M616.08 309.04L623.57 315.91"
fill="none" stroke="black" stroke-width="0.5"/>
<path d="M227.01 704.75L233.87 697.26"
fill="none" stroke="black" stroke-width="0.5"/>
<path d="M359.9 88.08L366.76 80.58"
fill="none" stroke="black" stroke-width="0.5"/>
<path d="M234.5 711.62L241.37 704.13"
fill="none" stroke="black" stroke-width="0.5"/>
<path d="M367.39 94.95L374.26 87.45"
fill="none" stroke="black" stroke-width="0.5"/>
<path d="M281.97 755.12L288.83 747.62"
fill="none" stroke="black" stroke-width="0.5"/>
<path d="M414.86 138.44L421.72 130.95"
fill="none" stroke="black" stroke-width="0.5"/>
<path d="M289.46 761.98L296.33 754.49"
fill="none" stroke="black" stroke-width="0.5"/>
<path d="M422.35 145.31L429.22 137.81"
fill="none" stroke="black" stroke-width="0.5"/>
<path d="M609.21 316.53L616.08 309.04"
fill="none" stroke="black" stroke-width="0.5"/>
<path d="M6.46 502.67L13.34 495.17"
fill="none" stroke="black" stroke-width="0.5"/>
<path d="M616.71 323.4L623.57 315.91"
fill="none" stroke="black" stroke-width="0.5"/>
<path d="M13.96 509.53L20.83 502.04"
fill="none" stroke="black" stroke-width="0.5"/>
<path d="M88.58 16.32L89.91 26.39"
fill="none" stroke="black" stroke-width="0.5"/>
<path d="M101.85 117.1L103.17 127.18"
fill="none" stroke="black" stroke-width="0.5"/>
<path d="M152.71 503.43L154.03 513.51"
fill="none" stroke="black" stroke-width="0.5"/>
<path d="M177.7 693.28L179.03 703.36"
fill="none" stroke="black" stroke-width="0.5"/>
<path d="M309.02 115.54L310.35 125.62"
fill="none" stroke="black" stroke-width="0.5"/>
<path d="M334.02 305.39L335.34 315.48"
fill="none" stroke="black" stroke-width="0.5"/>
<path d="M347.28 406.18L348.61 416.25"
fill="none" stroke="black" stroke-width="0.5"/>
<path d="M503.6 18.3L504.93 28.37"
fill="none" stroke="black" stroke-width="0.5"/>
<path d="M554.46 404.62L555.79 414.7"
fill="none" stroke="black" stroke-width="0.5"/>
<path d="M579.45 594.47L580.78 604.55"
fill="none" stroke="black" stroke-width="0.5"/>
<path d="M592.72 695.26L594.05 705.33"
fill="none" stroke="black" stroke-width="0.5"/>
<path d="M710.77 16.74L712.1 26.81"
fill="none" stroke="black" stroke-width="0.5"/>
<path d="M735.77 206.59L737.09 216.67"
fill="none" stroke="black" stroke-width="0.5"/>
<path d="M749.04 307.37L750.36 317.45"
fill="none" stroke="black" stroke-width="0.5"/>
<path d="M98.65 14.99L99.98 25.07"
fill="none" stroke="black" stroke-width="0.5"/>
<path d="M111.92 115.77L113.25 125.85"
fill="none" stroke="black" stroke-width="0.5"/>
<path d="M162.78 502.1L164.11 512.18"
fill="none" stroke="black" stroke-width="0.5"/>
<path d="M187.78 691.95L189.1 702.03"
fill="none" stroke="black" stroke-width="0.5"/>
<path d="M319.09 114.21L320.42 124.29"
fill="none" stroke="black" stroke-width="0.5"/>
<path d="M344.09 304.07L345.42 314.15"
fill="none" stroke="black" stroke-width="0.5"/>
<path d="M357.36 404.85L358.68 414.92"
fill="none" stroke="black" stroke-width="0.5"/>
<path d="M513.68 16.97L515 27.05"
fill="none" stroke="black" stroke-width="0.5"/>
<path d="M564.53 403.3L565.86 413.37"
fill="none" stroke="black" stroke-width="0.5"/>
<path d="M589.53 593.15L590.86 603.22"
fill="none" stroke="black" stroke-width="0.5"/>
<path d="M602.8 693.93L604.12 704.01"
fill="none" stroke="black" stroke-width="0.5"/>
<path d="M720.85 15.41L722.17 25.49"
fill="none" stroke="black" stroke-width="0.5"/>
<path d="M745.85 205.27L747.17 215.34"
fill="none" stroke="black" stroke-width="0.5"/>
<path d="M759.11 306.04L760.44 316.12"
fill="none" stroke="black" stroke-width="0.5"/>
<path d="M177.7 693.28L187.78 691.95"
fill="none" stroke="black" stroke-width="0.5"/>
<path d="M579.45 594.47L589.53 593.15"
fill="none" stroke="black" stroke-width="0.5"/>
<path d="M334.02 305.39L344.09 304.07"
fill="none" stroke="black" stroke-width="0.5"/>
<path d="M735.77 206.59L745.85 205.27"
fill="none" stroke="black" stroke-width="0.5"/>
<path d="M88.58 16.32L98.65 14.99"
fill="none" stroke="black" stroke-width="0.5"/>
<path d="M179.03 703.36L189.1 702.03"
fill="none" stroke="black" stroke-width="0.5"/>
<path d="M580.78 604.55L590.86 603.22"
fill="none" stroke="black" stroke-width="0.5"/>
<path d="M335.34 315.48L345.42 314.15"
fill="none" stroke="black" stroke-width="0.5"/>
<path d="M737.09 216.67L747.17 215.34"
fill="none" stroke="black" stroke-width="0.5"/>
<path d="M89.91 26.39L99.98 25.07"
fill="none" stroke="black" stroke-width="0.5"/>
<path d="M592.72 695.26L602.8 693.93"
fill="none" stroke="black" stroke-width="0.5"/>
<path d="M347.28 406.18L357.36 404.85"
fill="none" stroke="black" stroke-width="0.5"/>
<path d="M749.04 307.37L759.11 306.04"
fill="none" stroke="black" stroke-width="0.5"/>
<path d="M101.85 117.1L111.92 115.77"
fill="none" stroke="black" stroke-width="0.5"/>
<path d="M503.6 18.3L513.68 16.97"
fill="none" stroke="black" stroke-width="0.5"/>
<path d="M594.05 705.33L604.12 704.01"
fill="none" stroke="black" stroke-width="0.5"/>
<path d="M348.61 416.25L358.68 414.92"
fill="none" stroke="black" stroke-width="0.5"/>
<path d="M750.36 317.45L760.44 316.12"
fill="none" stroke="black" stroke-width="0.5"/>
<path d="M103.17 127.18L113.25 125.85"
fill="none" stroke="black" stroke-width="0.5"/>
<path d="M504.93 28.37L515 27.05"
fill="none" stroke="black" stroke-width="0.5"/>
<path d="M152.71 503.43L162.78 502.1"
fill="none" stroke="black" stroke-width="0.5"/>
<path d="M554.46 404.62L564.53 403.3"
fill="none" stroke="black" stroke-width="0.5"/>
<path d="M309.02 115.54L319.09 114.21"
fill="none" stroke="black" stroke-width="0.5"/>
<path d="M710.77 16.74L720.85 15.41"
fill="none" stroke="black" stroke-width="0.5"/>
<path d="M154.03 513.51L164.11 512.18"
fill="none" stroke="black" stroke-width="0.5"/>
<path d="M555.79 414.7L565.86 413.37"
fill="none" stroke="black" stroke-width="0.5"/>
<path d="M310.35 125.62L320.42 124.29"
fill="none" stroke="black" stroke-width="0.5"/>
<path d="M712.1 26.81L722.17 25.49"
fill="none" stroke="black" stroke-width="0.5"/>
<path d="M693.17 763.82L693.17 679.12"
fill="none" stroke="black" stroke-width="0.5"/>
<path d="M693.17 424.99L693.17 340.28"
fill="none" stroke="black" stroke-width="0.5"/>
<path d="M693.17 86.15L693.17 1.44"
fill="none" stroke="black" stroke-width="0.5"/>
<path d="M523.75 594.41L523.75 509.7"
fill="none" stroke="black" stroke-width="0.5"/>
<path d="M523.75 255.57L523.75 170.86"
fill="none" stroke="black" stroke-width="0.5"/>
<path d="M354.33 763.82L354.33 679.12"
fill="none" stroke="black" stroke-width="0.5"/>
<path d="M354.33 424.99L354.33 340.28"
fill="none" stroke="black" stroke-width="0.5"/>
<path d="M354.33 86.15L354.33 1.44"
fill="none" stroke="black" stroke-width="0.5"/>
<path d="M184.92 594.41L184.92 509.7"
fill="none" stroke="black" stroke-width="0.5"/>
<path d="M184.92 255.57L184.92 170.86"
fill="none" stroke="black" stroke-width="0.5"/>
<path d="M15.5 763.82L15.5 679.12"
fill="none" stroke="black" stroke-width="0.5"/>
<path d="M15.5 424.99L15.5 340.28"
fill="none" stroke="black" stroke-width="0.5"/>
<path d="M15.5 86.15L15.5 1.44"
fill="none" stroke="black" stroke-width="0.5"/>
<path d="M15.5 763.82L71.97 763.82"
fill="none" stroke="black" stroke-width="0.5"/>
<path d="M354.33 763.82L410.81 763.82"
fill="none" stroke="black" stroke-width="0.5"/>
<path d="M693.17 763.82L749.65 763.82"
fill="none" stroke="black" stroke-width="0.5"/>
<path d="M184.92 594.41L241.39 594.41"
fill="none" stroke="black" stroke-width="0.5"/>
<path d="M523.75 594.41L580.23 594.41"
fill="none" stroke="black" stroke-width="0.5"/>
<path d="M15.5 424.99L71.97 424.99"
fill="none" stroke="black" stroke-width="0.5"/>
<path d="M354.33 424.99L410.81 424.99"
fill="none" stroke="black" stroke-width="0.5"/>
<path d="M693.17 424.99L749.65 424.99"
fill="none" stroke="black" stroke-width="0.5"/>
<path d="M184.92 255.57L241.39 255.57"
fill="none" stroke="black" stroke-width="0.5"/>
<path d="M523.75 255.57L580.23 255.57"
fill="none" stroke="black" stroke-width="0.5"/>
<path d="M15.5 86.15L71.97 86.15"
fill="none" stroke="black" stroke-width="0.5"/>
<path d="M354.33 86.15L410.81 86.15"
fill="none" stroke="black" stroke-width="0.5"/>
<path d="M693.17 86.15L749.65 86.15"
fill="none" stroke="black" stroke-width="0.5"/>
</svg>
