<?xml version="1.0" encoding="UTF-8"?>
<svg xmlns="http://www.w3.org/2000/svg" width="99.949mm" height="99.949mm" viewBox="0.0 0.0 787.000 787.000" preserveAspectRatio="none" version="1.1">
  <title>Produce by Acme CAD Converter</title>
  <desc>Produce by Acme CAD Converter</desc>
<path d="M11.88 660.81L26.64 660.81"
fill="none" stroke="black" stroke-width="0.5"/>
<path d="M510.87 660.81L525.63 660.81"
fill="none" stroke="black" stroke-width="0.5"/>
<path d="M261.37 494.48L276.13 494.48"
fill="none" stroke="black" stroke-width="0.5"/>
<path d="M760.36 494.48L775.12 494.48"
fill="none" stroke="black" stroke-width="0.5"/>
<path d="M11.88 328.16L26.64 328.16"
fill="none" stroke="black" stroke-width="0.5"/>
<path d="M510.87 328.16L525.63 328.16"
fill="none" stroke="black" stroke-width="0.5"/>
<path d="M261.37 161.83L276.13 161.83"
fill="none" stroke="black" stroke-width="0.5"/>
<path d="M760.36 161.83L775.12 161.83"
fill="none" stroke="black" stroke-width="0.5"/>
<path d="M11.88 625.17L26.64 625.17"
fill="none" stroke="black" stroke-width="0.5"/>
<path d="M510.87 625.17L525.63 625.17"
fill="none" stroke="black" stroke-width="0.5"/>
<path d="M261.37 458.84L276.13 458.84"
fill="none" stroke="black" stroke-width="0.5"/>
<path d="M760.36 458.84L775.12 458.84"
fill="none" stroke="black" stroke-width="0.5"/>
<path d="M11.88 292.52L26.64 292.52"
fill="none" stroke="black" stroke-width="0.5"/>
<path d="M510.87 292.52L525.63 292.52"
fill="none" stroke="black" stroke-width="0.5"/>
<path d="M261.37 126.19L276.13 126.19"
fill="none" stroke="black" stroke-width="0.5"/>
<path d="M760.36 126.19L775.12 126.19"
fill="none" stroke="black" stroke-width="0.5"/>
<path d="M749.92 484.04L749.92 469.28"
fill="none" stroke="black" stroke-width="0.5"/>
<path d="M749.92 151.39L749.92 136.63"
fill="none" stroke="black" stroke-width="0.5"/>
<path d="M500.42 650.37L500.42 635.61"
fill="none" stroke="black" stroke-width="0.5"/>
<path d="M500.42 317.72L500.42 302.96"
fill="none" stroke="black" stroke-width="0.5"/>
<path d="M250.93 484.04L250.93 469.28"
fill="none" stroke="black" stroke-width="0.5"/>
<path d="M250.93 151.39L250.93 136.63"
fill="none" stroke="black" stroke-width="0.5"/>
<path d="M1.44 650.37L1.44 635.61"
fill="none" stroke="black" stroke-width="0.5"/>
<path d="M1.44 317.72L1.44 302.96"
fill="none" stroke="black" stroke-width="0.5"/>
<path d="M785.56 484.04L785.56 469.28"
fill="none" stroke="black" stroke-width="0.5"/>
<path d="M785.56 151.39L785.56 136.63"
fill="none" stroke="black" stroke-width="0.5"/>
<path d="M536.07 650.37L536.07 635.61"
fill="none" stroke="black" stroke-width="0.5"/>
<path d="M536.07 317.72L536.07 302.96"
fill="none" stroke="black" stroke-width="0.5"/>
<path d="M286.58 484.04L286.58 469.28"
fill="none" stroke="black" stroke-width="0.5"/>
<path d="M286.58 151.39L286.58 136.63"
fill="none" stroke="black" stroke-width="0.5"/>
<path d="M37.08 650.37L37.08 635.61"
fill="none" stroke="black" stroke-width="0.5"/>
<path d="M37.08 317.72L37.08 302.96"
fill="none" stroke="black" stroke-width="0.5"/>
<path d="M775.12 494.48L785.56 484.04"
fill="none" stroke="black" stroke-width="0.5"/>
<path d="M525.63 660.81L536.07 650.37"
fill="none" stroke="black" stroke-width="0.5"/>
<path d="M775.12 161.83L785.56 151.39"
fill="none" stroke="black" stroke-width="0.5"/>
<path d="M525.63 328.16L536.07 317.72"
fill="none" stroke="black" stroke-width="0.5"/>
<path d="M276.13 494.48L286.58 484.04"
fill="none" stroke="black" stroke-width="0.5"/>
<path d="M26.64 660.81L37.08 650.37"
fill="none" stroke="black" stroke-width="0.5"/>
<path d="M276.13 161.83L286.58 151.39"
fill="none" stroke="black" stroke-width="0.5"/>
<path d="M26.64 328.16L37.08 317.72"
fill="none" stroke="black" stroke-width="0.5"/>
<path d="M26.64 625.17L37.08 635.61"
fill="none" stroke="black" stroke-width="0.5"/>
<path d="M26.64 292.52L37.08 302.96"
fill="none" stroke="black" stroke-width="0.5"/>
<path d="M276.13 458.84L286.58 469.28"
fill="none" stroke="black" stroke-width="0.5"/>
<path d="M525.63 625.17L536.07 635.61"
fill="none" stroke="black" stroke-width="0.5"/>
<path d="M276.13 126.19L286.58 136.63"
fill="none" stroke="black" stroke-width="0.5"/>
<path d="M525.63 292.52L536.07 302.96"
fill="none" stroke="black" stroke-width="0.5"/>
<path d="M775.12 458.84L785.56 469.28"
fill="none" stroke="black" stroke-width="0.5"/>
<path d="M775.12 126.19L785.56 136.63"
fill="none" stroke="black" stroke-width="0.5"/>
<path d="M11.88 292.52L1.44 302.96"
fill="none" stroke="black" stroke-width="0.5"/>
<path d="M261.37 126.19L250.93 136.63"
fill="none" stroke="black" stroke-width="0.5"/>
<path d="M11.88 625.17L1.44 635.61"
fill="none" stroke="black" stroke-width="0.5"/>
<path d="M261.37 458.84L250.93 469.28"
fill="none" stroke="black" stroke-width="0.5"/>
<path d="M510.87 292.52L500.42 302.96"
fill="none" stroke="black" stroke-width="0.5"/>
<path d="M760.36 126.19L749.92 136.63"
fill="none" stroke="black" stroke-width="0.5"/>
<path d="M510.87 625.17L500.42 635.61"
fill="none" stroke="black" stroke-width="0.5"/>
<path d="M760.36 458.84L749.92 469.28"
fill="none" stroke="black" stroke-width="0.5"/>
<path d="M760.36 161.83L749.92 151.39"
fill="none" stroke="black" stroke-width="0.5"/>
<path d="M760.36 494.48L749.92 484.04"
fill="none" stroke="black" stroke-width="0.5"/>
<path d="M510.87 328.16L500.42 317.72"
fill="none" stroke="black" stroke-width="0.5"/>
<path d="M261.37 161.83L250.93 151.39"
fill="none" stroke="black" stroke-width="0.5"/>
<path d="M510.87 660.81L500.42 650.37"
fill="none" stroke="black" stroke-width="0.5"/>
<path d="M261.37 494.48L250.93 484.04"
fill="none" stroke="black" stroke-width="0.5"/>
<path d="M11.88 328.16L1.44 317.72"
fill="none" stroke="black" stroke-width="0.5"/>
<path d="M11.88 660.81L1.44 650.37"
fill="none" stroke="black" stroke-width="0.5"/>
</svg>
