<?xml version="1.0" encoding="UTF-8"?>
<svg xmlns="http://www.w3.org/2000/svg" width="99.949mm" height="99.949mm" viewBox="0.0 0.0 787.000 787.000" preserveAspectRatio="none" version="1.1">
  <title>Produce by Acme CAD Converter</title>
  <desc>Produce by Acme CAD Converter</desc>
<path d="M30.25 640.99L36.34 640.99"
fill="none" stroke="black" stroke-width="0.5"/>
<path d="M441.91 640.99L448 640.99"
fill="none" stroke="black" stroke-width="0.5"/>
<path d="M133.17 572.38L139.26 572.38"
fill="none" stroke="black" stroke-width="0.5"/>
<path d="M544.83 572.38L550.92 572.38"
fill="none" stroke="black" stroke-width="0.5"/>
<path d="M236.08 503.77L242.17 503.77"
fill="none" stroke="black" stroke-width="0.5"/>
<path d="M647.74 503.77L653.83 503.77"
fill="none" stroke="black" stroke-width="0.5"/>
<path d="M339 435.16L345.09 435.16"
fill="none" stroke="black" stroke-width="0.5"/>
<path d="M750.66 435.16L756.75 435.16"
fill="none" stroke="black" stroke-width="0.5"/>
<path d="M30.25 366.55L36.34 366.55"
fill="none" stroke="black" stroke-width="0.5"/>
<path d="M441.91 366.55L448 366.55"
fill="none" stroke="black" stroke-width="0.5"/>
<path d="M133.17 297.94L139.26 297.94"
fill="none" stroke="black" stroke-width="0.5"/>
<path d="M544.83 297.94L550.92 297.94"
fill="none" stroke="black" stroke-width="0.5"/>
<path d="M236.08 229.33L242.17 229.33"
fill="none" stroke="black" stroke-width="0.5"/>
<path d="M647.74 229.33L653.83 229.33"
fill="none" stroke="black" stroke-width="0.5"/>
<path d="M339 160.72L345.09 160.72"
fill="none" stroke="black" stroke-width="0.5"/>
<path d="M750.66 160.72L756.75 160.72"
fill="none" stroke="black" stroke-width="0.5"/>
<path d="M30.25 626.28L36.34 626.28"
fill="none" stroke="black" stroke-width="0.5"/>
<path d="M441.91 626.28L448 626.28"
fill="none" stroke="black" stroke-width="0.5"/>
<path d="M133.17 557.67L139.26 557.67"
fill="none" stroke="black" stroke-width="0.5"/>
<path d="M544.83 557.67L550.92 557.67"
fill="none" stroke="black" stroke-width="0.5"/>
<path d="M236.08 489.06L242.17 489.06"
fill="none" stroke="black" stroke-width="0.5"/>
<path d="M647.74 489.06L653.83 489.06"
fill="none" stroke="black" stroke-width="0.5"/>
<path d="M339 420.45L345.09 420.45"
fill="none" stroke="black" stroke-width="0.5"/>
<path d="M750.66 420.45L756.75 420.45"
fill="none" stroke="black" stroke-width="0.5"/>
<path d="M30.25 351.84L36.34 351.84"
fill="none" stroke="black" stroke-width="0.5"/>
<path d="M441.91 351.84L448 351.84"
fill="none" stroke="black" stroke-width="0.5"/>
<path d="M133.17 283.23L139.26 283.23"
fill="none" stroke="black" stroke-width="0.5"/>
<path d="M544.83 283.23L550.92 283.23"
fill="none" stroke="black" stroke-width="0.5"/>
<path d="M236.08 214.62L242.17 214.62"
fill="none" stroke="black" stroke-width="0.5"/>
<path d="M647.74 214.62L653.83 214.62"
fill="none" stroke="black" stroke-width="0.5"/>
<path d="M339 146.01L345.09 146.01"
fill="none" stroke="black" stroke-width="0.5"/>
<path d="M750.66 146.01L756.75 146.01"
fill="none" stroke="black" stroke-width="0.5"/>
<path d="M746.35 430.85L746.35 424.76"
fill="none" stroke="black" stroke-width="0.5"/>
<path d="M746.35 156.41L746.35 150.32"
fill="none" stroke="black" stroke-width="0.5"/>
<path d="M643.44 499.46L643.44 493.37"
fill="none" stroke="black" stroke-width="0.5"/>
<path d="M643.44 225.02L643.44 218.93"
fill="none" stroke="black" stroke-width="0.5"/>
<path d="M540.52 568.07L540.52 561.98"
fill="none" stroke="black" stroke-width="0.5"/>
<path d="M540.52 293.63L540.52 287.54"
fill="none" stroke="black" stroke-width="0.5"/>
<path d="M437.61 636.68L437.61 630.59"
fill="none" stroke="black" stroke-width="0.5"/>
<path d="M437.61 362.24L437.61 356.15"
fill="none" stroke="black" stroke-width="0.5"/>
<path d="M334.69 430.85L334.69 424.76"
fill="none" stroke="black" stroke-width="0.5"/>
<path d="M334.69 156.41L334.69 150.32"
fill="none" stroke="black" stroke-width="0.5"/>
<path d="M231.78 499.46L231.78 493.37"
fill="none" stroke="black" stroke-width="0.5"/>
<path d="M231.78 225.02L231.78 218.93"
fill="none" stroke="black" stroke-width="0.5"/>
<path d="M128.86 568.07L128.86 561.98"
fill="none" stroke="black" stroke-width="0.5"/>
<path d="M128.86 293.63L128.86 287.54"
fill="none" stroke="black" stroke-width="0.5"/>
<path d="M25.95 636.68L25.95 630.59"
fill="none" stroke="black" stroke-width="0.5"/>
<path d="M25.95 362.24L25.95 356.15"
fill="none" stroke="black" stroke-width="0.5"/>
<path d="M761.05 430.85L761.05 424.76"
fill="none" stroke="black" stroke-width="0.5"/>
<path d="M761.05 156.41L761.05 150.32"
fill="none" stroke="black" stroke-width="0.5"/>
<path d="M658.14 499.46L658.14 493.37"
fill="none" stroke="black" stroke-width="0.5"/>
<path d="M658.14 225.02L658.14 218.93"
fill="none" stroke="black" stroke-width="0.5"/>
<path d="M555.22 568.07L555.22 561.98"
fill="none" stroke="black" stroke-width="0.5"/>
<path d="M555.22 293.63L555.22 287.54"
fill="none" stroke="black" stroke-width="0.5"/>
<path d="M452.31 636.68L452.31 630.59"
fill="none" stroke="black" stroke-width="0.5"/>
<path d="M452.31 362.24L452.31 356.15"
fill="none" stroke="black" stroke-width="0.5"/>
<path d="M349.39 430.85L349.39 424.76"
fill="none" stroke="black" stroke-width="0.5"/>
<path d="M349.39 156.41L349.39 150.32"
fill="none" stroke="black" stroke-width="0.5"/>
<path d="M246.48 499.46L246.48 493.37"
fill="none" stroke="black" stroke-width="0.5"/>
<path d="M246.48 225.02L246.48 218.93"
fill="none" stroke="black" stroke-width="0.5"/>
<path d="M143.57 568.07L143.57 561.98"
fill="none" stroke="black" stroke-width="0.5"/>
<path d="M143.57 293.63L143.57 287.54"
fill="none" stroke="black" stroke-width="0.5"/>
<path d="M40.65 636.68L40.65 630.59"
fill="none" stroke="black" stroke-width="0.5"/>
<path d="M40.65 362.24L40.65 356.15"
fill="none" stroke="black" stroke-width="0.5"/>
<path d="M756.75 435.16L761.05 430.85"
fill="none" stroke="black" stroke-width="0.5"/>
<path d="M653.83 503.77L658.14 499.46"
fill="none" stroke="black" stroke-width="0.5"/>
<path d="M550.92 572.38L555.22 568.07"
fill="none" stroke="black" stroke-width="0.5"/>
<path d="M448 640.99L452.31 636.68"
fill="none" stroke="black" stroke-width="0.5"/>
<path d="M756.75 160.72L761.05 156.41"
fill="none" stroke="black" stroke-width="0.5"/>
<path d="M653.83 229.33L658.14 225.02"
fill="none" stroke="black" stroke-width="0.5"/>
<path d="M550.92 297.94L555.22 293.63"
fill="none" stroke="black" stroke-width="0.5"/>
<path d="M448 366.55L452.31 362.24"
fill="none" stroke="black" stroke-width="0.5"/>
<path d="M345.09 435.16L349.39 430.85"
fill="none" stroke="black" stroke-width="0.5"/>
<path d="M242.17 503.77L246.48 499.46"
fill="none" stroke="black" stroke-width="0.5"/>
<path d="M139.26 572.38L143.57 568.07"
fill="none" stroke="black" stroke-width="0.5"/>
<path d="M36.34 640.99L40.65 636.68"
fill="none" stroke="black" stroke-width="0.5"/>
<path d="M345.09 160.72L349.39 156.41"
fill="none" stroke="black" stroke-width="0.5"/>
<path d="M242.17 229.33L246.48 225.02"
fill="none" stroke="black" stroke-width="0.5"/>
<path d="M139.26 297.94L143.57 293.63"
fill="none" stroke="black" stroke-width="0.5"/>
<path d="M36.34 366.55L40.65 362.24"
fill="none" stroke="black" stroke-width="0.5"/>
<path d="M36.34 626.28L40.65 630.59"
fill="none" stroke="black" stroke-width="0.5"/>
<path d="M139.26 557.67L143.57 561.98"
fill="none" stroke="black" stroke-width="0.5"/>
<path d="M36.34 351.84L40.65 356.15"
fill="none" stroke="black" stroke-width="0.5"/>
<path d="M242.17 489.06L246.48 493.37"
fill="none" stroke="black" stroke-width="0.5"/>
<path d="M448 626.28L452.31 630.59"
fill="none" stroke="black" stroke-width="0.5"/>
<path d="M139.26 283.23L143.57 287.54"
fill="none" stroke="black" stroke-width="0.5"/>
<path d="M345.09 420.45L349.39 424.76"
fill="none" stroke="black" stroke-width="0.5"/>
<path d="M550.92 557.67L555.22 561.98"
fill="none" stroke="black" stroke-width="0.5"/>
<path d="M242.17 214.62L246.48 218.93"
fill="none" stroke="black" stroke-width="0.5"/>
<path d="M448 351.84L452.31 356.15"
fill="none" stroke="black" stroke-width="0.5"/>
<path d="M653.83 489.06L658.14 493.37"
fill="none" stroke="black" stroke-width="0.5"/>
<path d="M345.09 146.01L349.39 150.32"
fill="none" stroke="black" stroke-width="0.5"/>
<path d="M550.92 283.23L555.22 287.54"
fill="none" stroke="black" stroke-width="0.5"/>
<path d="M756.75 420.45L761.05 424.76"
fill="none" stroke="black" stroke-width="0.5"/>
<path d="M653.83 214.62L658.14 218.93"
fill="none" stroke="black" stroke-width="0.5"/>
<path d="M756.75 146.01L761.05 150.32"
fill="none" stroke="black" stroke-width="0.5"/>
<path d="M30.25 351.84L25.95 356.15"
fill="none" stroke="black" stroke-width="0.5"/>
<path d="M133.17 283.23L128.86 287.54"
fill="none" stroke="black" stroke-width="0.5"/>
<path d="M236.08 214.62L231.78 218.93"
fill="none" stroke="black" stroke-width="0.5"/>
<path d="M339 146.01L334.69 150.32"
fill="none" stroke="black" stroke-width="0.5"/>
<path d="M30.25 626.28L25.95 630.59"
fill="none" stroke="black" stroke-width="0.5"/>
<path d="M133.17 557.67L128.86 561.98"
fill="none" stroke="black" stroke-width="0.5"/>
<path d="M236.08 489.06L231.78 493.37"
fill="none" stroke="black" stroke-width="0.5"/>
<path d="M339 420.45L334.69 424.76"
fill="none" stroke="black" stroke-width="0.5"/>
<path d="M441.91 351.84L437.61 356.15"
fill="none" stroke="black" stroke-width="0.5"/>
<path d="M544.83 283.23L540.52 287.54"
fill="none" stroke="black" stroke-width="0.5"/>
<path d="M647.74 214.62L643.44 218.93"
fill="none" stroke="black" stroke-width="0.5"/>
<path d="M750.66 146.01L746.35 150.32"
fill="none" stroke="black" stroke-width="0.5"/>
<path d="M441.91 626.28L437.61 630.59"
fill="none" stroke="black" stroke-width="0.5"/>
<path d="M544.83 557.67L540.52 561.98"
fill="none" stroke="black" stroke-width="0.5"/>
<path d="M647.74 489.06L643.44 493.37"
fill="none" stroke="black" stroke-width="0.5"/>
<path d="M750.66 420.45L746.35 424.76"
fill="none" stroke="black" stroke-width="0.5"/>
<path d="M750.66 160.72L746.35 156.41"
fill="none" stroke="black" stroke-width="0.5"/>
<path d="M647.74 229.33L643.44 225.02"
fill="none" stroke="black" stroke-width="0.5"/>
<path d="M750.66 435.16L746.35 430.85"
fill="none" stroke="black" stroke-width="0.5"/>
<path d="M544.83 297.94L540.52 293.63"
fill="none" stroke="black" stroke-width="0.5"/>
<path d="M339 160.72L334.69 156.41"
fill="none" stroke="black" stroke-width="0.5"/>
<path d="M647.74 503.77L643.44 499.46"
fill="none" stroke="black" stroke-width="0.5"/>
<path d="M441.91 366.55L437.61 362.24"
fill="none" stroke="black" stroke-width="0.5"/>
<path d="M236.08 229.33L231.78 225.02"
fill="none" stroke="black" stroke-width="0.5"/>
<path d="M544.83 572.38L540.52 568.07"
fill="none" stroke="black" stroke-width="0.5"/>
<path d="M339 435.16L334.69 430.85"
fill="none" stroke="black" stroke-width="0.5"/>
<path d="M133.17 297.94L128.86 293.63"
fill="none" stroke="black" stroke-width="0.5"/>
<path d="M441.91 640.99L437.61 636.68"
fill="none" stroke="black" stroke-width="0.5"/>
<path d="M236.08 503.77L231.78 499.46"
fill="none" stroke="black" stroke-width="0.5"/>
<path d="M30.25 366.55L25.95 362.24"
fill="none" stroke="black" stroke-width="0.5"/>
<path d="M133.17 572.38L128.86 568.07"
fill="none" stroke="black" stroke-width="0.5"/>
<path d="M30.25 640.99L25.95 636.68"
fill="none" stroke="black" stroke-width="0.5"/>
<path d="M232.91 665.49L245.34 665.49"
fill="none" stroke="black" stroke-width="0.5"/>
<path d="M644.57 665.49L657 665.49"
fill="none" stroke="black" stroke-width="0.5"/>
<path d="M335.83 596.88L348.26 596.88"
fill="none" stroke="black" stroke-width="0.5"/>
<path d="M747.49 596.88L759.92 596.88"
fill="none" stroke="black" stroke-width="0.5"/>
<path d="M27.09 528.27L39.51 528.27"
fill="none" stroke="black" stroke-width="0.5"/>
<path d="M438.74 528.27L451.17 528.27"
fill="none" stroke="black" stroke-width="0.5"/>
<path d="M130 459.66L142.43 459.66"
fill="none" stroke="black" stroke-width="0.5"/>
<path d="M541.66 459.66L554.09 459.66"
fill="none" stroke="black" stroke-width="0.5"/>
<path d="M232.91 391.05L245.34 391.05"
fill="none" stroke="black" stroke-width="0.5"/>
<path d="M644.57 391.05L657 391.05"
fill="none" stroke="black" stroke-width="0.5"/>
<path d="M335.83 322.44L348.26 322.44"
fill="none" stroke="black" stroke-width="0.5"/>
<path d="M747.49 322.44L759.92 322.44"
fill="none" stroke="black" stroke-width="0.5"/>
<path d="M27.09 253.83L39.51 253.83"
fill="none" stroke="black" stroke-width="0.5"/>
<path d="M438.74 253.83L451.17 253.83"
fill="none" stroke="black" stroke-width="0.5"/>
<path d="M130 185.22L142.43 185.22"
fill="none" stroke="black" stroke-width="0.5"/>
<path d="M541.66 185.22L554.09 185.22"
fill="none" stroke="black" stroke-width="0.5"/>
<path d="M232.91 601.78L245.34 601.78"
fill="none" stroke="black" stroke-width="0.5"/>
<path d="M644.57 601.78L657 601.78"
fill="none" stroke="black" stroke-width="0.5"/>
<path d="M335.83 533.17L348.26 533.17"
fill="none" stroke="black" stroke-width="0.5"/>
<path d="M747.49 533.17L759.92 533.17"
fill="none" stroke="black" stroke-width="0.5"/>
<path d="M27.09 464.56L39.51 464.56"
fill="none" stroke="black" stroke-width="0.5"/>
<path d="M438.74 464.56L451.17 464.56"
fill="none" stroke="black" stroke-width="0.5"/>
<path d="M130 395.95L142.43 395.95"
fill="none" stroke="black" stroke-width="0.5"/>
<path d="M541.66 395.95L554.09 395.95"
fill="none" stroke="black" stroke-width="0.5"/>
<path d="M232.91 327.34L245.34 327.34"
fill="none" stroke="black" stroke-width="0.5"/>
<path d="M644.57 327.34L657 327.34"
fill="none" stroke="black" stroke-width="0.5"/>
<path d="M335.83 258.73L348.26 258.73"
fill="none" stroke="black" stroke-width="0.5"/>
<path d="M747.49 258.73L759.92 258.73"
fill="none" stroke="black" stroke-width="0.5"/>
<path d="M27.09 190.12L39.51 190.12"
fill="none" stroke="black" stroke-width="0.5"/>
<path d="M438.74 190.12L451.17 190.12"
fill="none" stroke="black" stroke-width="0.5"/>
<path d="M130 121.51L142.43 121.51"
fill="none" stroke="black" stroke-width="0.5"/>
<path d="M541.66 121.51L554.09 121.51"
fill="none" stroke="black" stroke-width="0.5"/>
<path d="M721.85 571.24L721.85 558.81"
fill="none" stroke="black" stroke-width="0.5"/>
<path d="M721.85 296.8L721.85 284.37"
fill="none" stroke="black" stroke-width="0.5"/>
<path d="M618.93 639.85L618.93 627.42"
fill="none" stroke="black" stroke-width="0.5"/>
<path d="M618.93 365.41L618.93 352.98"
fill="none" stroke="black" stroke-width="0.5"/>
<path d="M516.02 434.02L516.02 421.59"
fill="none" stroke="black" stroke-width="0.5"/>
<path d="M516.02 159.58L516.02 147.15"
fill="none" stroke="black" stroke-width="0.5"/>
<path d="M413.1 502.63L413.1 490.2"
fill="none" stroke="black" stroke-width="0.5"/>
<path d="M413.1 228.19L413.1 215.76"
fill="none" stroke="black" stroke-width="0.5"/>
<path d="M310.19 571.24L310.19 558.81"
fill="none" stroke="black" stroke-width="0.5"/>
<path d="M310.19 296.8L310.19 284.37"
fill="none" stroke="black" stroke-width="0.5"/>
<path d="M207.27 639.85L207.27 627.42"
fill="none" stroke="black" stroke-width="0.5"/>
<path d="M207.27 365.41L207.27 352.98"
fill="none" stroke="black" stroke-width="0.5"/>
<path d="M104.36 434.02L104.36 421.59"
fill="none" stroke="black" stroke-width="0.5"/>
<path d="M104.36 159.58L104.36 147.15"
fill="none" stroke="black" stroke-width="0.5"/>
<path d="M1.44 502.63L1.44 490.2"
fill="none" stroke="black" stroke-width="0.5"/>
<path d="M1.44 228.19L1.44 215.76"
fill="none" stroke="black" stroke-width="0.5"/>
<path d="M785.56 571.24L785.56 558.81"
fill="none" stroke="black" stroke-width="0.5"/>
<path d="M785.56 296.8L785.56 284.37"
fill="none" stroke="black" stroke-width="0.5"/>
<path d="M682.64 639.85L682.64 627.42"
fill="none" stroke="black" stroke-width="0.5"/>
<path d="M682.64 365.41L682.64 352.98"
fill="none" stroke="black" stroke-width="0.5"/>
<path d="M579.73 434.02L579.73 421.59"
fill="none" stroke="black" stroke-width="0.5"/>
<path d="M579.73 159.58L579.73 147.15"
fill="none" stroke="black" stroke-width="0.5"/>
<path d="M476.81 502.63L476.81 490.2"
fill="none" stroke="black" stroke-width="0.5"/>
<path d="M476.81 228.19L476.81 215.76"
fill="none" stroke="black" stroke-width="0.5"/>
<path d="M373.9 571.24L373.9 558.81"
fill="none" stroke="black" stroke-width="0.5"/>
<path d="M373.9 296.8L373.9 284.37"
fill="none" stroke="black" stroke-width="0.5"/>
<path d="M270.98 639.85L270.98 627.42"
fill="none" stroke="black" stroke-width="0.5"/>
<path d="M270.98 365.41L270.98 352.98"
fill="none" stroke="black" stroke-width="0.5"/>
<path d="M168.07 434.02L168.07 421.59"
fill="none" stroke="black" stroke-width="0.5"/>
<path d="M168.07 159.58L168.07 147.15"
fill="none" stroke="black" stroke-width="0.5"/>
<path d="M65.15 502.63L65.15 490.2"
fill="none" stroke="black" stroke-width="0.5"/>
<path d="M65.15 228.19L65.15 215.76"
fill="none" stroke="black" stroke-width="0.5"/>
<path d="M771.13 592.39L781.07 582.45"
fill="none" stroke="black" stroke-width="0.5"/>
<path d="M668.21 661L678.16 651.06"
fill="none" stroke="black" stroke-width="0.5"/>
<path d="M771.13 317.95L781.07 308.01"
fill="none" stroke="black" stroke-width="0.5"/>
<path d="M668.21 386.56L678.16 376.62"
fill="none" stroke="black" stroke-width="0.5"/>
<path d="M565.3 455.17L575.24 445.23"
fill="none" stroke="black" stroke-width="0.5"/>
<path d="M462.38 523.78L472.33 513.84"
fill="none" stroke="black" stroke-width="0.5"/>
<path d="M359.47 592.39L369.41 582.45"
fill="none" stroke="black" stroke-width="0.5"/>
<path d="M256.55 661L266.5 651.06"
fill="none" stroke="black" stroke-width="0.5"/>
<path d="M565.3 180.73L575.24 170.79"
fill="none" stroke="black" stroke-width="0.5"/>
<path d="M462.38 249.34L472.33 239.4"
fill="none" stroke="black" stroke-width="0.5"/>
<path d="M359.47 317.95L369.41 308.01"
fill="none" stroke="black" stroke-width="0.5"/>
<path d="M256.55 386.56L266.5 376.62"
fill="none" stroke="black" stroke-width="0.5"/>
<path d="M153.64 455.17L163.58 445.23"
fill="none" stroke="black" stroke-width="0.5"/>
<path d="M50.72 523.78L60.67 513.84"
fill="none" stroke="black" stroke-width="0.5"/>
<path d="M153.64 180.73L163.58 170.79"
fill="none" stroke="black" stroke-width="0.5"/>
<path d="M50.72 249.34L60.67 239.4"
fill="none" stroke="black" stroke-width="0.5"/>
<path d="M50.72 469.05L60.67 478.99"
fill="none" stroke="black" stroke-width="0.5"/>
<path d="M256.55 606.27L266.5 616.21"
fill="none" stroke="black" stroke-width="0.5"/>
<path d="M153.64 400.44L163.58 410.38"
fill="none" stroke="black" stroke-width="0.5"/>
<path d="M359.47 537.66L369.41 547.6"
fill="none" stroke="black" stroke-width="0.5"/>
<path d="M50.72 194.61L60.67 204.55"
fill="none" stroke="black" stroke-width="0.5"/>
<path d="M256.55 331.83L266.5 341.77"
fill="none" stroke="black" stroke-width="0.5"/>
<path d="M462.38 469.05L472.33 478.99"
fill="none" stroke="black" stroke-width="0.5"/>
<path d="M153.64 126L163.58 135.94"
fill="none" stroke="black" stroke-width="0.5"/>
<path d="M668.21 606.27L678.16 616.21"
fill="none" stroke="black" stroke-width="0.5"/>
<path d="M359.47 263.22L369.41 273.16"
fill="none" stroke="black" stroke-width="0.5"/>
<path d="M565.3 400.44L575.24 410.38"
fill="none" stroke="black" stroke-width="0.5"/>
<path d="M771.13 537.66L781.07 547.6"
fill="none" stroke="black" stroke-width="0.5"/>
<path d="M462.38 194.61L472.33 204.55"
fill="none" stroke="black" stroke-width="0.5"/>
<path d="M668.21 331.83L678.16 341.77"
fill="none" stroke="black" stroke-width="0.5"/>
<path d="M565.3 126L575.24 135.94"
fill="none" stroke="black" stroke-width="0.5"/>
<path d="M771.13 263.22L781.07 273.16"
fill="none" stroke="black" stroke-width="0.5"/>
<path d="M15.87 194.61L5.93 204.55"
fill="none" stroke="black" stroke-width="0.5"/>
<path d="M118.79 126L108.84 135.94"
fill="none" stroke="black" stroke-width="0.5"/>
<path d="M15.87 469.05L5.93 478.99"
fill="none" stroke="black" stroke-width="0.5"/>
<path d="M118.79 400.44L108.84 410.38"
fill="none" stroke="black" stroke-width="0.5"/>
<path d="M221.7 331.83L211.76 341.77"
fill="none" stroke="black" stroke-width="0.5"/>
<path d="M324.62 263.22L314.67 273.16"
fill="none" stroke="black" stroke-width="0.5"/>
<path d="M427.53 194.61L417.59 204.55"
fill="none" stroke="black" stroke-width="0.5"/>
<path d="M530.45 126L520.5 135.94"
fill="none" stroke="black" stroke-width="0.5"/>
<path d="M221.7 606.27L211.76 616.21"
fill="none" stroke="black" stroke-width="0.5"/>
<path d="M324.62 537.66L314.67 547.6"
fill="none" stroke="black" stroke-width="0.5"/>
<path d="M427.53 469.05L417.59 478.99"
fill="none" stroke="black" stroke-width="0.5"/>
<path d="M530.45 400.44L520.5 410.38"
fill="none" stroke="black" stroke-width="0.5"/>
<path d="M633.36 331.83L623.42 341.77"
fill="none" stroke="black" stroke-width="0.5"/>
<path d="M736.28 263.22L726.33 273.16"
fill="none" stroke="black" stroke-width="0.5"/>
<path d="M633.36 606.27L623.42 616.21"
fill="none" stroke="black" stroke-width="0.5"/>
<path d="M736.28 537.66L726.33 547.6"
fill="none" stroke="black" stroke-width="0.5"/>
<path d="M736.28 317.95L726.33 308.01"
fill="none" stroke="black" stroke-width="0.5"/>
<path d="M530.45 180.73L520.5 170.79"
fill="none" stroke="black" stroke-width="0.5"/>
<path d="M633.36 386.56L623.42 376.62"
fill="none" stroke="black" stroke-width="0.5"/>
<path d="M427.53 249.34L417.59 239.4"
fill="none" stroke="black" stroke-width="0.5"/>
<path d="M736.28 592.39L726.33 582.45"
fill="none" stroke="black" stroke-width="0.5"/>
<path d="M530.45 455.17L520.5 445.23"
fill="none" stroke="black" stroke-width="0.5"/>
<path d="M324.62 317.95L314.67 308.01"
fill="none" stroke="black" stroke-width="0.5"/>
<path d="M633.36 661L623.42 651.06"
fill="none" stroke="black" stroke-width="0.5"/>
<path d="M118.79 180.73L108.84 170.79"
fill="none" stroke="black" stroke-width="0.5"/>
<path d="M427.53 523.78L417.59 513.84"
fill="none" stroke="black" stroke-width="0.5"/>
<path d="M221.7 386.56L211.76 376.62"
fill="none" stroke="black" stroke-width="0.5"/>
<path d="M15.87 249.34L5.93 239.4"
fill="none" stroke="black" stroke-width="0.5"/>
<path d="M324.62 592.39L314.67 582.45"
fill="none" stroke="black" stroke-width="0.5"/>
<path d="M118.79 455.17L108.84 445.23"
fill="none" stroke="black" stroke-width="0.5"/>
<path d="M221.7 661L211.76 651.06"
fill="none" stroke="black" stroke-width="0.5"/>
<path d="M15.87 523.78L5.93 513.84"
fill="none" stroke="black" stroke-width="0.5"/>
<path d="M657 665.49L668.21 661"
fill="none" stroke="black" stroke-width="0.5"/>
<path d="M759.92 596.88L771.13 592.39"
fill="none" stroke="black" stroke-width="0.5"/>
<path d="M245.34 665.49L256.55 661"
fill="none" stroke="black" stroke-width="0.5"/>
<path d="M348.26 596.88L359.47 592.39"
fill="none" stroke="black" stroke-width="0.5"/>
<path d="M451.17 528.27L462.38 523.78"
fill="none" stroke="black" stroke-width="0.5"/>
<path d="M554.09 459.66L565.3 455.17"
fill="none" stroke="black" stroke-width="0.5"/>
<path d="M657 391.05L668.21 386.56"
fill="none" stroke="black" stroke-width="0.5"/>
<path d="M759.92 322.44L771.13 317.95"
fill="none" stroke="black" stroke-width="0.5"/>
<path d="M39.51 528.27L50.72 523.78"
fill="none" stroke="black" stroke-width="0.5"/>
<path d="M142.43 459.66L153.64 455.17"
fill="none" stroke="black" stroke-width="0.5"/>
<path d="M245.34 391.05L256.55 386.56"
fill="none" stroke="black" stroke-width="0.5"/>
<path d="M348.26 322.44L359.47 317.95"
fill="none" stroke="black" stroke-width="0.5"/>
<path d="M451.17 253.83L462.38 249.34"
fill="none" stroke="black" stroke-width="0.5"/>
<path d="M554.09 185.22L565.3 180.73"
fill="none" stroke="black" stroke-width="0.5"/>
<path d="M39.51 253.83L50.72 249.34"
fill="none" stroke="black" stroke-width="0.5"/>
<path d="M142.43 185.22L153.64 180.73"
fill="none" stroke="black" stroke-width="0.5"/>
<path d="M65.15 228.19L60.67 239.4"
fill="none" stroke="black" stroke-width="0.5"/>
<path d="M168.07 159.58L163.58 170.79"
fill="none" stroke="black" stroke-width="0.5"/>
<path d="M65.15 502.63L60.67 513.84"
fill="none" stroke="black" stroke-width="0.5"/>
<path d="M168.07 434.02L163.58 445.23"
fill="none" stroke="black" stroke-width="0.5"/>
<path d="M270.98 365.41L266.5 376.62"
fill="none" stroke="black" stroke-width="0.5"/>
<path d="M373.9 296.8L369.41 308.01"
fill="none" stroke="black" stroke-width="0.5"/>
<path d="M270.98 639.85L266.5 651.06"
fill="none" stroke="black" stroke-width="0.5"/>
<path d="M476.81 228.19L472.33 239.4"
fill="none" stroke="black" stroke-width="0.5"/>
<path d="M373.9 571.24L369.41 582.45"
fill="none" stroke="black" stroke-width="0.5"/>
<path d="M579.73 159.58L575.24 170.79"
fill="none" stroke="black" stroke-width="0.5"/>
<path d="M476.81 502.63L472.33 513.84"
fill="none" stroke="black" stroke-width="0.5"/>
<path d="M579.73 434.02L575.24 445.23"
fill="none" stroke="black" stroke-width="0.5"/>
<path d="M682.64 365.41L678.16 376.62"
fill="none" stroke="black" stroke-width="0.5"/>
<path d="M785.56 296.8L781.07 308.01"
fill="none" stroke="black" stroke-width="0.5"/>
<path d="M682.64 639.85L678.16 651.06"
fill="none" stroke="black" stroke-width="0.5"/>
<path d="M785.56 571.24L781.07 582.45"
fill="none" stroke="black" stroke-width="0.5"/>
<path d="M785.56 284.37L781.07 273.16"
fill="none" stroke="black" stroke-width="0.5"/>
<path d="M785.56 558.81L781.07 547.6"
fill="none" stroke="black" stroke-width="0.5"/>
<path d="M682.64 352.98L678.16 341.77"
fill="none" stroke="black" stroke-width="0.5"/>
<path d="M579.73 147.15L575.24 135.94"
fill="none" stroke="black" stroke-width="0.5"/>
<path d="M682.64 627.42L678.16 616.21"
fill="none" stroke="black" stroke-width="0.5"/>
<path d="M579.73 421.59L575.24 410.38"
fill="none" stroke="black" stroke-width="0.5"/>
<path d="M476.81 215.76L472.33 204.55"
fill="none" stroke="black" stroke-width="0.5"/>
<path d="M476.81 490.2L472.33 478.99"
fill="none" stroke="black" stroke-width="0.5"/>
<path d="M373.9 284.37L369.41 273.16"
fill="none" stroke="black" stroke-width="0.5"/>
<path d="M373.9 558.81L369.41 547.6"
fill="none" stroke="black" stroke-width="0.5"/>
<path d="M270.98 352.98L266.5 341.77"
fill="none" stroke="black" stroke-width="0.5"/>
<path d="M168.07 147.15L163.58 135.94"
fill="none" stroke="black" stroke-width="0.5"/>
<path d="M270.98 627.42L266.5 616.21"
fill="none" stroke="black" stroke-width="0.5"/>
<path d="M168.07 421.59L163.58 410.38"
fill="none" stroke="black" stroke-width="0.5"/>
<path d="M65.15 215.76L60.67 204.55"
fill="none" stroke="black" stroke-width="0.5"/>
<path d="M65.15 490.2L60.67 478.99"
fill="none" stroke="black" stroke-width="0.5"/>
<path d="M245.34 601.78L256.55 606.27"
fill="none" stroke="black" stroke-width="0.5"/>
<path d="M39.51 464.56L50.72 469.05"
fill="none" stroke="black" stroke-width="0.5"/>
<path d="M348.26 533.17L359.47 537.66"
fill="none" stroke="black" stroke-width="0.5"/>
<path d="M142.43 395.95L153.64 400.44"
fill="none" stroke="black" stroke-width="0.5"/>
<path d="M657 601.78L668.21 606.27"
fill="none" stroke="black" stroke-width="0.5"/>
<path d="M451.17 464.56L462.38 469.05"
fill="none" stroke="black" stroke-width="0.5"/>
<path d="M245.34 327.34L256.55 331.83"
fill="none" stroke="black" stroke-width="0.5"/>
<path d="M759.92 533.17L771.13 537.66"
fill="none" stroke="black" stroke-width="0.5"/>
<path d="M39.51 190.12L50.72 194.61"
fill="none" stroke="black" stroke-width="0.5"/>
<path d="M554.09 395.95L565.3 400.44"
fill="none" stroke="black" stroke-width="0.5"/>
<path d="M348.26 258.73L359.47 263.22"
fill="none" stroke="black" stroke-width="0.5"/>
<path d="M142.43 121.51L153.64 126"
fill="none" stroke="black" stroke-width="0.5"/>
<path d="M657 327.34L668.21 331.83"
fill="none" stroke="black" stroke-width="0.5"/>
<path d="M451.17 190.12L462.38 194.61"
fill="none" stroke="black" stroke-width="0.5"/>
<path d="M759.92 258.73L771.13 263.22"
fill="none" stroke="black" stroke-width="0.5"/>
<path d="M554.09 121.51L565.3 126"
fill="none" stroke="black" stroke-width="0.5"/>
<path d="M130 121.51L118.79 126"
fill="none" stroke="black" stroke-width="0.5"/>
<path d="M27.09 190.12L15.88 194.6"
fill="none" stroke="black" stroke-width="0.5"/>
<path d="M541.66 121.51L530.45 126"
fill="none" stroke="black" stroke-width="0.5"/>
<path d="M438.75 190.12L427.54 194.61"
fill="none" stroke="black" stroke-width="0.5"/>
<path d="M335.83 258.73L324.62 263.22"
fill="none" stroke="black" stroke-width="0.5"/>
<path d="M232.92 327.34L221.71 331.83"
fill="none" stroke="black" stroke-width="0.5"/>
<path d="M130 395.95L118.79 400.44"
fill="none" stroke="black" stroke-width="0.5"/>
<path d="M27.09 464.56L15.87 469.04"
fill="none" stroke="black" stroke-width="0.5"/>
<path d="M747.49 258.73L736.28 263.22"
fill="none" stroke="black" stroke-width="0.5"/>
<path d="M644.58 327.34L633.36 331.83"
fill="none" stroke="black" stroke-width="0.5"/>
<path d="M541.66 395.95L530.45 400.44"
fill="none" stroke="black" stroke-width="0.5"/>
<path d="M438.74 464.56L427.53 469.05"
fill="none" stroke="black" stroke-width="0.5"/>
<path d="M335.83 533.17L324.62 537.66"
fill="none" stroke="black" stroke-width="0.5"/>
<path d="M232.91 601.78L221.7 606.27"
fill="none" stroke="black" stroke-width="0.5"/>
<path d="M747.49 533.17L736.28 537.66"
fill="none" stroke="black" stroke-width="0.5"/>
<path d="M644.57 601.78L633.36 606.27"
fill="none" stroke="black" stroke-width="0.5"/>
<path d="M721.85 558.81L726.33 547.6"
fill="none" stroke="black" stroke-width="0.5"/>
<path d="M618.93 627.42L623.42 616.21"
fill="none" stroke="black" stroke-width="0.5"/>
<path d="M721.85 284.37L726.33 273.16"
fill="none" stroke="black" stroke-width="0.5"/>
<path d="M618.93 352.98L623.42 341.77"
fill="none" stroke="black" stroke-width="0.5"/>
<path d="M516.02 421.59L520.5 410.38"
fill="none" stroke="black" stroke-width="0.5"/>
<path d="M413.1 490.2L417.59 478.99"
fill="none" stroke="black" stroke-width="0.5"/>
<path d="M516.02 147.15L520.5 135.94"
fill="none" stroke="black" stroke-width="0.5"/>
<path d="M310.19 558.81L314.67 547.6"
fill="none" stroke="black" stroke-width="0.5"/>
<path d="M413.1 215.76L417.58 204.55"
fill="none" stroke="black" stroke-width="0.5"/>
<path d="M207.27 627.42L211.76 616.21"
fill="none" stroke="black" stroke-width="0.5"/>
<path d="M310.19 284.37L314.67 273.16"
fill="none" stroke="black" stroke-width="0.5"/>
<path d="M207.27 352.98L211.76 341.77"
fill="none" stroke="black" stroke-width="0.5"/>
<path d="M104.36 421.59L108.84 410.38"
fill="none" stroke="black" stroke-width="0.5"/>
<path d="M1.44 490.2L5.93 478.99"
fill="none" stroke="black" stroke-width="0.5"/>
<path d="M104.36 147.15L108.84 135.94"
fill="none" stroke="black" stroke-width="0.5"/>
<path d="M1.44 215.76L5.93 204.55"
fill="none" stroke="black" stroke-width="0.5"/>
<path d="M1.44 502.63L5.93 513.84"
fill="none" stroke="black" stroke-width="0.5"/>
<path d="M1.45 228.19L5.93 239.4"
fill="none" stroke="black" stroke-width="0.5"/>
<path d="M104.36 434.02L108.84 445.23"
fill="none" stroke="black" stroke-width="0.5"/>
<path d="M207.27 639.85L211.76 651.06"
fill="none" stroke="black" stroke-width="0.5"/>
<path d="M104.36 159.58L108.85 170.79"
fill="none" stroke="black" stroke-width="0.5"/>
<path d="M207.28 365.41L211.76 376.62"
fill="none" stroke="black" stroke-width="0.5"/>
<path d="M310.19 571.24L314.67 582.45"
fill="none" stroke="black" stroke-width="0.5"/>
<path d="M310.19 296.8L314.68 308.01"
fill="none" stroke="black" stroke-width="0.5"/>
<path d="M413.11 502.63L417.59 513.84"
fill="none" stroke="black" stroke-width="0.5"/>
<path d="M413.11 228.19L417.59 239.4"
fill="none" stroke="black" stroke-width="0.5"/>
<path d="M516.02 434.02L520.5 445.23"
fill="none" stroke="black" stroke-width="0.5"/>
<path d="M618.93 639.85L623.42 651.06"
fill="none" stroke="black" stroke-width="0.5"/>
<path d="M516.02 159.58L520.51 170.79"
fill="none" stroke="black" stroke-width="0.5"/>
<path d="M618.94 365.41L623.42 376.62"
fill="none" stroke="black" stroke-width="0.5"/>
<path d="M721.85 571.24L726.33 582.45"
fill="none" stroke="black" stroke-width="0.5"/>
<path d="M721.85 296.8L726.34 308.01"
fill="none" stroke="black" stroke-width="0.5"/>
<path d="M541.66 185.22L530.44 180.73"
fill="none" stroke="black" stroke-width="0.5"/>
<path d="M747.49 322.44L736.28 317.95"
fill="none" stroke="black" stroke-width="0.5"/>
<path d="M438.74 253.83L427.53 249.34"
fill="none" stroke="black" stroke-width="0.5"/>
<path d="M644.57 391.05L633.36 386.56"
fill="none" stroke="black" stroke-width="0.5"/>
<path d="M130 185.22L118.79 180.73"
fill="none" stroke="black" stroke-width="0.5"/>
<path d="M335.83 322.44L324.62 317.95"
fill="none" stroke="black" stroke-width="0.5"/>
<path d="M541.66 459.66L530.45 455.17"
fill="none" stroke="black" stroke-width="0.5"/>
<path d="M27.08 253.83L15.87 249.35"
fill="none" stroke="black" stroke-width="0.5"/>
<path d="M747.49 596.88L736.28 592.39"
fill="none" stroke="black" stroke-width="0.5"/>
<path d="M232.91 391.05L221.7 386.56"
fill="none" stroke="black" stroke-width="0.5"/>
<path d="M438.74 528.27L427.53 523.78"
fill="none" stroke="black" stroke-width="0.5"/>
<path d="M644.57 665.49L633.36 661"
fill="none" stroke="black" stroke-width="0.5"/>
<path d="M130 459.66L118.79 455.17"
fill="none" stroke="black" stroke-width="0.5"/>
<path d="M335.83 596.88L324.62 592.39"
fill="none" stroke="black" stroke-width="0.5"/>
<path d="M27.08 528.27L15.87 523.79"
fill="none" stroke="black" stroke-width="0.5"/>
<path d="M232.91 665.49L221.7 661"
fill="none" stroke="black" stroke-width="0.5"/>
</svg>
