<?xml version="1.0" encoding="UTF-8"?>
<svg xmlns="http://www.w3.org/2000/svg" width="99.949mm" height="99.949mm" viewBox="0.0 0.0 787.000 787.000" preserveAspectRatio="none" version="1.1">
  <title>Produce by Acme CAD Converter</title>
  <desc>Produce by Acme CAD Converter</desc>
<path d="M16.1 650.63L22.43 650.63"
fill="none" stroke="black" stroke-width="0.5"/>
<path d="M443.8 650.63L450.13 650.63"
fill="none" stroke="black" stroke-width="0.5"/>
<path d="M123.03 579.35L129.35 579.35"
fill="none" stroke="black" stroke-width="0.5"/>
<path d="M550.72 579.35L557.05 579.35"
fill="none" stroke="black" stroke-width="0.5"/>
<path d="M229.95 508.06L236.28 508.06"
fill="none" stroke="black" stroke-width="0.5"/>
<path d="M657.65 508.06L663.97 508.06"
fill="none" stroke="black" stroke-width="0.5"/>
<path d="M336.87 436.78L343.2 436.78"
fill="none" stroke="black" stroke-width="0.5"/>
<path d="M764.57 436.78L770.9 436.78"
fill="none" stroke="black" stroke-width="0.5"/>
<path d="M16.1 365.5L22.43 365.5"
fill="none" stroke="black" stroke-width="0.5"/>
<path d="M443.8 365.5L450.13 365.5"
fill="none" stroke="black" stroke-width="0.5"/>
<path d="M123.03 294.21L129.35 294.21"
fill="none" stroke="black" stroke-width="0.5"/>
<path d="M550.72 294.21L557.05 294.21"
fill="none" stroke="black" stroke-width="0.5"/>
<path d="M229.95 222.93L236.28 222.93"
fill="none" stroke="black" stroke-width="0.5"/>
<path d="M657.65 222.93L663.97 222.93"
fill="none" stroke="black" stroke-width="0.5"/>
<path d="M336.87 151.65L343.2 151.65"
fill="none" stroke="black" stroke-width="0.5"/>
<path d="M764.57 151.65L770.9 151.65"
fill="none" stroke="black" stroke-width="0.5"/>
<path d="M16.1 635.35L22.43 635.35"
fill="none" stroke="black" stroke-width="0.5"/>
<path d="M443.8 635.35L450.13 635.35"
fill="none" stroke="black" stroke-width="0.5"/>
<path d="M123.03 564.07L129.35 564.07"
fill="none" stroke="black" stroke-width="0.5"/>
<path d="M550.72 564.07L557.05 564.07"
fill="none" stroke="black" stroke-width="0.5"/>
<path d="M229.95 492.79L236.28 492.79"
fill="none" stroke="black" stroke-width="0.5"/>
<path d="M657.65 492.79L663.97 492.79"
fill="none" stroke="black" stroke-width="0.5"/>
<path d="M336.87 421.5L343.2 421.5"
fill="none" stroke="black" stroke-width="0.5"/>
<path d="M764.57 421.5L770.9 421.5"
fill="none" stroke="black" stroke-width="0.5"/>
<path d="M16.1 350.22L22.43 350.22"
fill="none" stroke="black" stroke-width="0.5"/>
<path d="M443.8 350.22L450.13 350.22"
fill="none" stroke="black" stroke-width="0.5"/>
<path d="M123.03 278.94L129.35 278.94"
fill="none" stroke="black" stroke-width="0.5"/>
<path d="M550.72 278.94L557.05 278.94"
fill="none" stroke="black" stroke-width="0.5"/>
<path d="M229.95 207.65L236.28 207.65"
fill="none" stroke="black" stroke-width="0.5"/>
<path d="M657.65 207.65L663.97 207.65"
fill="none" stroke="black" stroke-width="0.5"/>
<path d="M336.87 136.37L343.2 136.37"
fill="none" stroke="black" stroke-width="0.5"/>
<path d="M764.57 136.37L770.9 136.37"
fill="none" stroke="black" stroke-width="0.5"/>
<path d="M760.1 432.3L760.1 425.98"
fill="none" stroke="black" stroke-width="0.5"/>
<path d="M760.1 147.17L760.1 140.85"
fill="none" stroke="black" stroke-width="0.5"/>
<path d="M653.17 503.59L653.17 497.26"
fill="none" stroke="black" stroke-width="0.5"/>
<path d="M653.17 218.46L653.17 212.13"
fill="none" stroke="black" stroke-width="0.5"/>
<path d="M546.25 574.87L546.25 568.54"
fill="none" stroke="black" stroke-width="0.5"/>
<path d="M546.25 289.74L546.25 283.41"
fill="none" stroke="black" stroke-width="0.5"/>
<path d="M439.32 646.15L439.32 639.83"
fill="none" stroke="black" stroke-width="0.5"/>
<path d="M439.32 361.02L439.32 354.7"
fill="none" stroke="black" stroke-width="0.5"/>
<path d="M332.4 432.3L332.4 425.98"
fill="none" stroke="black" stroke-width="0.5"/>
<path d="M332.4 147.17L332.4 140.85"
fill="none" stroke="black" stroke-width="0.5"/>
<path d="M225.48 503.59L225.48 497.26"
fill="none" stroke="black" stroke-width="0.5"/>
<path d="M225.48 218.46L225.48 212.13"
fill="none" stroke="black" stroke-width="0.5"/>
<path d="M118.55 574.87L118.55 568.54"
fill="none" stroke="black" stroke-width="0.5"/>
<path d="M118.55 289.74L118.55 283.41"
fill="none" stroke="black" stroke-width="0.5"/>
<path d="M11.63 646.15L11.63 639.83"
fill="none" stroke="black" stroke-width="0.5"/>
<path d="M11.63 361.02L11.63 354.7"
fill="none" stroke="black" stroke-width="0.5"/>
<path d="M775.37 432.3L775.37 425.98"
fill="none" stroke="black" stroke-width="0.5"/>
<path d="M775.37 147.17L775.37 140.85"
fill="none" stroke="black" stroke-width="0.5"/>
<path d="M668.45 503.59L668.45 497.26"
fill="none" stroke="black" stroke-width="0.5"/>
<path d="M668.45 218.46L668.45 212.13"
fill="none" stroke="black" stroke-width="0.5"/>
<path d="M561.52 574.87L561.52 568.54"
fill="none" stroke="black" stroke-width="0.5"/>
<path d="M561.52 289.74L561.52 283.41"
fill="none" stroke="black" stroke-width="0.5"/>
<path d="M454.6 646.15L454.6 639.83"
fill="none" stroke="black" stroke-width="0.5"/>
<path d="M454.6 361.02L454.6 354.7"
fill="none" stroke="black" stroke-width="0.5"/>
<path d="M347.68 432.3L347.68 425.98"
fill="none" stroke="black" stroke-width="0.5"/>
<path d="M347.68 147.17L347.68 140.85"
fill="none" stroke="black" stroke-width="0.5"/>
<path d="M240.75 503.59L240.75 497.26"
fill="none" stroke="black" stroke-width="0.5"/>
<path d="M240.75 218.46L240.75 212.13"
fill="none" stroke="black" stroke-width="0.5"/>
<path d="M133.83 574.87L133.83 568.54"
fill="none" stroke="black" stroke-width="0.5"/>
<path d="M133.83 289.74L133.83 283.41"
fill="none" stroke="black" stroke-width="0.5"/>
<path d="M26.9 646.15L26.9 639.83"
fill="none" stroke="black" stroke-width="0.5"/>
<path d="M26.9 361.02L26.9 354.7"
fill="none" stroke="black" stroke-width="0.5"/>
<path d="M770.9 436.78L775.37 432.3"
fill="none" stroke="black" stroke-width="0.5"/>
<path d="M663.97 508.06L668.45 503.59"
fill="none" stroke="black" stroke-width="0.5"/>
<path d="M557.05 579.35L561.52 574.87"
fill="none" stroke="black" stroke-width="0.5"/>
<path d="M450.13 650.63L454.6 646.15"
fill="none" stroke="black" stroke-width="0.5"/>
<path d="M770.9 151.65L775.37 147.17"
fill="none" stroke="black" stroke-width="0.5"/>
<path d="M663.97 222.93L668.45 218.46"
fill="none" stroke="black" stroke-width="0.5"/>
<path d="M557.05 294.21L561.52 289.74"
fill="none" stroke="black" stroke-width="0.5"/>
<path d="M450.13 365.5L454.6 361.02"
fill="none" stroke="black" stroke-width="0.5"/>
<path d="M343.2 436.78L347.68 432.3"
fill="none" stroke="black" stroke-width="0.5"/>
<path d="M236.28 508.06L240.75 503.59"
fill="none" stroke="black" stroke-width="0.5"/>
<path d="M129.35 579.35L133.83 574.87"
fill="none" stroke="black" stroke-width="0.5"/>
<path d="M22.43 650.63L26.9 646.15"
fill="none" stroke="black" stroke-width="0.5"/>
<path d="M343.2 151.65L347.68 147.17"
fill="none" stroke="black" stroke-width="0.5"/>
<path d="M236.28 222.93L240.75 218.46"
fill="none" stroke="black" stroke-width="0.5"/>
<path d="M129.35 294.21L133.83 289.74"
fill="none" stroke="black" stroke-width="0.5"/>
<path d="M22.43 365.5L26.9 361.02"
fill="none" stroke="black" stroke-width="0.5"/>
<path d="M22.43 635.35L26.9 639.83"
fill="none" stroke="black" stroke-width="0.5"/>
<path d="M129.35 564.07L133.83 568.54"
fill="none" stroke="black" stroke-width="0.5"/>
<path d="M22.43 350.22L26.9 354.7"
fill="none" stroke="black" stroke-width="0.5"/>
<path d="M236.28 492.79L240.75 497.26"
fill="none" stroke="black" stroke-width="0.5"/>
<path d="M450.13 635.35L454.6 639.83"
fill="none" stroke="black" stroke-width="0.5"/>
<path d="M129.35 278.94L133.83 283.41"
fill="none" stroke="black" stroke-width="0.5"/>
<path d="M343.2 421.5L347.68 425.98"
fill="none" stroke="black" stroke-width="0.5"/>
<path d="M557.05 564.07L561.52 568.54"
fill="none" stroke="black" stroke-width="0.5"/>
<path d="M236.28 207.65L240.75 212.13"
fill="none" stroke="black" stroke-width="0.5"/>
<path d="M450.13 350.22L454.6 354.7"
fill="none" stroke="black" stroke-width="0.5"/>
<path d="M663.97 492.79L668.45 497.26"
fill="none" stroke="black" stroke-width="0.5"/>
<path d="M343.2 136.37L347.68 140.85"
fill="none" stroke="black" stroke-width="0.5"/>
<path d="M557.05 278.94L561.52 283.41"
fill="none" stroke="black" stroke-width="0.5"/>
<path d="M770.9 421.5L775.37 425.98"
fill="none" stroke="black" stroke-width="0.5"/>
<path d="M663.97 207.65L668.45 212.13"
fill="none" stroke="black" stroke-width="0.5"/>
<path d="M770.9 136.37L775.37 140.85"
fill="none" stroke="black" stroke-width="0.5"/>
<path d="M16.1 350.22L11.63 354.7"
fill="none" stroke="black" stroke-width="0.5"/>
<path d="M123.03 278.94L118.55 283.41"
fill="none" stroke="black" stroke-width="0.5"/>
<path d="M229.95 207.65L225.48 212.13"
fill="none" stroke="black" stroke-width="0.5"/>
<path d="M336.87 136.37L332.4 140.85"
fill="none" stroke="black" stroke-width="0.5"/>
<path d="M16.1 635.35L11.63 639.83"
fill="none" stroke="black" stroke-width="0.5"/>
<path d="M123.03 564.07L118.55 568.54"
fill="none" stroke="black" stroke-width="0.5"/>
<path d="M229.95 492.79L225.48 497.26"
fill="none" stroke="black" stroke-width="0.5"/>
<path d="M336.87 421.5L332.4 425.98"
fill="none" stroke="black" stroke-width="0.5"/>
<path d="M443.8 350.22L439.32 354.7"
fill="none" stroke="black" stroke-width="0.5"/>
<path d="M550.72 278.94L546.25 283.41"
fill="none" stroke="black" stroke-width="0.5"/>
<path d="M657.65 207.65L653.17 212.13"
fill="none" stroke="black" stroke-width="0.5"/>
<path d="M764.57 136.37L760.1 140.85"
fill="none" stroke="black" stroke-width="0.5"/>
<path d="M443.8 635.35L439.32 639.83"
fill="none" stroke="black" stroke-width="0.5"/>
<path d="M550.72 564.07L546.25 568.54"
fill="none" stroke="black" stroke-width="0.5"/>
<path d="M657.65 492.79L653.17 497.26"
fill="none" stroke="black" stroke-width="0.5"/>
<path d="M764.57 421.5L760.1 425.98"
fill="none" stroke="black" stroke-width="0.5"/>
<path d="M764.57 151.65L760.1 147.17"
fill="none" stroke="black" stroke-width="0.5"/>
<path d="M657.65 222.93L653.17 218.46"
fill="none" stroke="black" stroke-width="0.5"/>
<path d="M764.57 436.78L760.1 432.3"
fill="none" stroke="black" stroke-width="0.5"/>
<path d="M550.72 294.21L546.25 289.74"
fill="none" stroke="black" stroke-width="0.5"/>
<path d="M336.87 151.65L332.4 147.17"
fill="none" stroke="black" stroke-width="0.5"/>
<path d="M657.65 508.06L653.17 503.59"
fill="none" stroke="black" stroke-width="0.5"/>
<path d="M443.8 365.5L439.32 361.02"
fill="none" stroke="black" stroke-width="0.5"/>
<path d="M229.95 222.93L225.48 218.46"
fill="none" stroke="black" stroke-width="0.5"/>
<path d="M550.72 579.35L546.25 574.87"
fill="none" stroke="black" stroke-width="0.5"/>
<path d="M336.87 436.78L332.4 432.3"
fill="none" stroke="black" stroke-width="0.5"/>
<path d="M123.03 294.21L118.55 289.74"
fill="none" stroke="black" stroke-width="0.5"/>
<path d="M443.8 650.63L439.32 646.15"
fill="none" stroke="black" stroke-width="0.5"/>
<path d="M229.95 508.06L225.48 503.59"
fill="none" stroke="black" stroke-width="0.5"/>
<path d="M16.1 365.5L11.63 361.02"
fill="none" stroke="black" stroke-width="0.5"/>
<path d="M123.03 579.35L118.55 574.87"
fill="none" stroke="black" stroke-width="0.5"/>
<path d="M16.1 650.63L11.63 646.15"
fill="none" stroke="black" stroke-width="0.5"/>
<path d="M228.5 660.81L237.73 660.81"
fill="none" stroke="black" stroke-width="0.5"/>
<path d="M656.2 660.81L665.42 660.81"
fill="none" stroke="black" stroke-width="0.5"/>
<path d="M335.42 589.53L344.65 589.53"
fill="none" stroke="black" stroke-width="0.5"/>
<path d="M763.12 589.53L772.35 589.53"
fill="none" stroke="black" stroke-width="0.5"/>
<path d="M14.65 518.25L23.88 518.25"
fill="none" stroke="black" stroke-width="0.5"/>
<path d="M442.35 518.25L451.58 518.25"
fill="none" stroke="black" stroke-width="0.5"/>
<path d="M121.58 446.96L130.8 446.96"
fill="none" stroke="black" stroke-width="0.5"/>
<path d="M549.27 446.96L558.5 446.96"
fill="none" stroke="black" stroke-width="0.5"/>
<path d="M228.5 375.68L237.73 375.68"
fill="none" stroke="black" stroke-width="0.5"/>
<path d="M656.2 375.68L665.42 375.68"
fill="none" stroke="black" stroke-width="0.5"/>
<path d="M335.42 304.4L344.65 304.4"
fill="none" stroke="black" stroke-width="0.5"/>
<path d="M763.12 304.4L772.35 304.4"
fill="none" stroke="black" stroke-width="0.5"/>
<path d="M14.65 233.11L23.88 233.11"
fill="none" stroke="black" stroke-width="0.5"/>
<path d="M442.35 233.11L451.58 233.11"
fill="none" stroke="black" stroke-width="0.5"/>
<path d="M121.58 161.83L130.8 161.83"
fill="none" stroke="black" stroke-width="0.5"/>
<path d="M549.27 161.83L558.5 161.83"
fill="none" stroke="black" stroke-width="0.5"/>
<path d="M228.5 625.17L237.73 625.17"
fill="none" stroke="black" stroke-width="0.5"/>
<path d="M656.2 625.17L665.42 625.17"
fill="none" stroke="black" stroke-width="0.5"/>
<path d="M335.42 553.89L344.65 553.89"
fill="none" stroke="black" stroke-width="0.5"/>
<path d="M763.12 553.89L772.35 553.89"
fill="none" stroke="black" stroke-width="0.5"/>
<path d="M14.65 482.6L23.88 482.6"
fill="none" stroke="black" stroke-width="0.5"/>
<path d="M442.35 482.6L451.58 482.6"
fill="none" stroke="black" stroke-width="0.5"/>
<path d="M121.58 411.32L130.8 411.32"
fill="none" stroke="black" stroke-width="0.5"/>
<path d="M549.27 411.32L558.5 411.32"
fill="none" stroke="black" stroke-width="0.5"/>
<path d="M228.5 340.04L237.73 340.04"
fill="none" stroke="black" stroke-width="0.5"/>
<path d="M656.2 340.04L665.42 340.04"
fill="none" stroke="black" stroke-width="0.5"/>
<path d="M335.42 268.75L344.65 268.75"
fill="none" stroke="black" stroke-width="0.5"/>
<path d="M763.12 268.75L772.35 268.75"
fill="none" stroke="black" stroke-width="0.5"/>
<path d="M14.65 197.47L23.88 197.47"
fill="none" stroke="black" stroke-width="0.5"/>
<path d="M442.35 197.47L451.58 197.47"
fill="none" stroke="black" stroke-width="0.5"/>
<path d="M121.58 126.19L130.8 126.19"
fill="none" stroke="black" stroke-width="0.5"/>
<path d="M549.27 126.19L558.5 126.19"
fill="none" stroke="black" stroke-width="0.5"/>
<path d="M749.92 576.32L749.92 567.09"
fill="none" stroke="black" stroke-width="0.5"/>
<path d="M749.92 291.19L749.92 281.96"
fill="none" stroke="black" stroke-width="0.5"/>
<path d="M642.99 647.6L642.99 638.38"
fill="none" stroke="black" stroke-width="0.5"/>
<path d="M642.99 362.47L642.99 353.25"
fill="none" stroke="black" stroke-width="0.5"/>
<path d="M536.07 433.75L536.07 424.53"
fill="none" stroke="black" stroke-width="0.5"/>
<path d="M536.07 148.62L536.07 139.4"
fill="none" stroke="black" stroke-width="0.5"/>
<path d="M429.14 505.04L429.14 495.81"
fill="none" stroke="black" stroke-width="0.5"/>
<path d="M429.14 219.91L429.14 210.68"
fill="none" stroke="black" stroke-width="0.5"/>
<path d="M322.22 576.32L322.22 567.09"
fill="none" stroke="black" stroke-width="0.5"/>
<path d="M322.22 291.19L322.22 281.96"
fill="none" stroke="black" stroke-width="0.5"/>
<path d="M215.29 647.6L215.29 638.38"
fill="none" stroke="black" stroke-width="0.5"/>
<path d="M215.29 362.47L215.29 353.25"
fill="none" stroke="black" stroke-width="0.5"/>
<path d="M108.37 433.75L108.37 424.53"
fill="none" stroke="black" stroke-width="0.5"/>
<path d="M108.37 148.62L108.37 139.4"
fill="none" stroke="black" stroke-width="0.5"/>
<path d="M1.44 505.04L1.44 495.81"
fill="none" stroke="black" stroke-width="0.5"/>
<path d="M1.44 219.91L1.44 210.68"
fill="none" stroke="black" stroke-width="0.5"/>
<path d="M785.56 576.32L785.56 567.09"
fill="none" stroke="black" stroke-width="0.5"/>
<path d="M785.56 291.19L785.56 281.96"
fill="none" stroke="black" stroke-width="0.5"/>
<path d="M678.63 647.6L678.63 638.38"
fill="none" stroke="black" stroke-width="0.5"/>
<path d="M678.63 362.47L678.63 353.25"
fill="none" stroke="black" stroke-width="0.5"/>
<path d="M571.71 433.75L571.71 424.53"
fill="none" stroke="black" stroke-width="0.5"/>
<path d="M571.71 148.62L571.71 139.4"
fill="none" stroke="black" stroke-width="0.5"/>
<path d="M464.78 505.04L464.78 495.81"
fill="none" stroke="black" stroke-width="0.5"/>
<path d="M464.78 219.91L464.78 210.68"
fill="none" stroke="black" stroke-width="0.5"/>
<path d="M357.86 576.32L357.86 567.09"
fill="none" stroke="black" stroke-width="0.5"/>
<path d="M357.86 291.19L357.86 281.96"
fill="none" stroke="black" stroke-width="0.5"/>
<path d="M250.93 647.6L250.93 638.38"
fill="none" stroke="black" stroke-width="0.5"/>
<path d="M250.93 362.47L250.93 353.25"
fill="none" stroke="black" stroke-width="0.5"/>
<path d="M144.01 433.75L144.01 424.53"
fill="none" stroke="black" stroke-width="0.5"/>
<path d="M144.01 148.62L144.01 139.4"
fill="none" stroke="black" stroke-width="0.5"/>
<path d="M37.08 505.04L37.08 495.81"
fill="none" stroke="black" stroke-width="0.5"/>
<path d="M37.08 219.91L37.08 210.68"
fill="none" stroke="black" stroke-width="0.5"/>
<path d="M665.42 660.81L673.83 656.01"
fill="none" stroke="black" stroke-width="0.5"/>
<path d="M772.35 589.53L780.75 584.73"
fill="none" stroke="black" stroke-width="0.5"/>
<path d="M237.73 660.81L246.13 656.01"
fill="none" stroke="black" stroke-width="0.5"/>
<path d="M344.65 589.53L353.06 584.73"
fill="none" stroke="black" stroke-width="0.5"/>
<path d="M451.58 518.25L459.98 513.44"
fill="none" stroke="black" stroke-width="0.5"/>
<path d="M558.5 446.96L566.91 442.16"
fill="none" stroke="black" stroke-width="0.5"/>
<path d="M665.42 375.68L673.83 370.88"
fill="none" stroke="black" stroke-width="0.5"/>
<path d="M772.35 304.4L780.75 299.59"
fill="none" stroke="black" stroke-width="0.5"/>
<path d="M23.88 518.25L32.28 513.44"
fill="none" stroke="black" stroke-width="0.5"/>
<path d="M130.8 446.96L139.21 442.16"
fill="none" stroke="black" stroke-width="0.5"/>
<path d="M237.73 375.68L246.13 370.88"
fill="none" stroke="black" stroke-width="0.5"/>
<path d="M344.65 304.4L353.06 299.59"
fill="none" stroke="black" stroke-width="0.5"/>
<path d="M451.58 233.11L459.98 228.31"
fill="none" stroke="black" stroke-width="0.5"/>
<path d="M558.5 161.83L566.91 157.03"
fill="none" stroke="black" stroke-width="0.5"/>
<path d="M23.88 233.11L32.28 228.31"
fill="none" stroke="black" stroke-width="0.5"/>
<path d="M130.8 161.83L139.21 157.03"
fill="none" stroke="black" stroke-width="0.5"/>
<path d="M37.08 219.91L32.28 228.31"
fill="none" stroke="black" stroke-width="0.5"/>
<path d="M144.01 148.62L139.21 157.03"
fill="none" stroke="black" stroke-width="0.5"/>
<path d="M37.08 505.04L32.28 513.44"
fill="none" stroke="black" stroke-width="0.5"/>
<path d="M144.01 433.75L139.21 442.16"
fill="none" stroke="black" stroke-width="0.5"/>
<path d="M250.93 362.47L246.13 370.88"
fill="none" stroke="black" stroke-width="0.5"/>
<path d="M357.86 291.19L353.06 299.59"
fill="none" stroke="black" stroke-width="0.5"/>
<path d="M464.78 219.91L459.98 228.31"
fill="none" stroke="black" stroke-width="0.5"/>
<path d="M250.93 647.6L246.13 656.01"
fill="none" stroke="black" stroke-width="0.5"/>
<path d="M571.71 148.62L566.91 157.03"
fill="none" stroke="black" stroke-width="0.5"/>
<path d="M357.86 576.32L353.06 584.73"
fill="none" stroke="black" stroke-width="0.5"/>
<path d="M464.78 505.04L459.98 513.44"
fill="none" stroke="black" stroke-width="0.5"/>
<path d="M571.71 433.75L566.91 442.16"
fill="none" stroke="black" stroke-width="0.5"/>
<path d="M678.63 362.47L673.83 370.88"
fill="none" stroke="black" stroke-width="0.5"/>
<path d="M785.56 291.19L780.75 299.59"
fill="none" stroke="black" stroke-width="0.5"/>
<path d="M678.63 647.6L673.83 656.01"
fill="none" stroke="black" stroke-width="0.5"/>
<path d="M785.56 576.32L780.75 584.73"
fill="none" stroke="black" stroke-width="0.5"/>
<path d="M785.56 281.96L780.75 273.56"
fill="none" stroke="black" stroke-width="0.5"/>
<path d="M571.71 139.4L566.91 130.99"
fill="none" stroke="black" stroke-width="0.5"/>
<path d="M678.63 353.25L673.83 344.84"
fill="none" stroke="black" stroke-width="0.5"/>
<path d="M785.56 567.09L780.75 558.69"
fill="none" stroke="black" stroke-width="0.5"/>
<path d="M464.78 210.68L459.98 202.27"
fill="none" stroke="black" stroke-width="0.5"/>
<path d="M571.71 424.53L566.91 416.12"
fill="none" stroke="black" stroke-width="0.5"/>
<path d="M678.63 638.38L673.83 629.97"
fill="none" stroke="black" stroke-width="0.5"/>
<path d="M357.86 281.96L353.06 273.56"
fill="none" stroke="black" stroke-width="0.5"/>
<path d="M464.78 495.81L459.98 487.41"
fill="none" stroke="black" stroke-width="0.5"/>
<path d="M144.01 139.4L139.21 130.99"
fill="none" stroke="black" stroke-width="0.5"/>
<path d="M250.93 353.25L246.13 344.84"
fill="none" stroke="black" stroke-width="0.5"/>
<path d="M357.86 567.09L353.06 558.69"
fill="none" stroke="black" stroke-width="0.5"/>
<path d="M37.08 210.68L32.28 202.27"
fill="none" stroke="black" stroke-width="0.5"/>
<path d="M144.01 424.53L139.21 416.12"
fill="none" stroke="black" stroke-width="0.5"/>
<path d="M250.93 638.38L246.13 629.97"
fill="none" stroke="black" stroke-width="0.5"/>
<path d="M37.08 495.81L32.28 487.41"
fill="none" stroke="black" stroke-width="0.5"/>
<path d="M237.73 625.17L246.13 629.97"
fill="none" stroke="black" stroke-width="0.5"/>
<path d="M23.88 482.6L32.28 487.41"
fill="none" stroke="black" stroke-width="0.5"/>
<path d="M344.65 553.89L353.06 558.69"
fill="none" stroke="black" stroke-width="0.5"/>
<path d="M130.8 411.32L139.21 416.12"
fill="none" stroke="black" stroke-width="0.5"/>
<path d="M665.42 625.17L673.83 629.97"
fill="none" stroke="black" stroke-width="0.5"/>
<path d="M451.58 482.6L459.98 487.41"
fill="none" stroke="black" stroke-width="0.5"/>
<path d="M237.73 340.04L246.13 344.84"
fill="none" stroke="black" stroke-width="0.5"/>
<path d="M23.88 197.47L32.28 202.27"
fill="none" stroke="black" stroke-width="0.5"/>
<path d="M772.35 553.89L780.75 558.69"
fill="none" stroke="black" stroke-width="0.5"/>
<path d="M558.5 411.32L566.91 416.12"
fill="none" stroke="black" stroke-width="0.5"/>
<path d="M344.65 268.75L353.06 273.56"
fill="none" stroke="black" stroke-width="0.5"/>
<path d="M130.8 126.19L139.21 130.99"
fill="none" stroke="black" stroke-width="0.5"/>
<path d="M665.42 340.04L673.83 344.84"
fill="none" stroke="black" stroke-width="0.5"/>
<path d="M451.58 197.47L459.98 202.27"
fill="none" stroke="black" stroke-width="0.5"/>
<path d="M772.35 268.75L780.75 273.56"
fill="none" stroke="black" stroke-width="0.5"/>
<path d="M558.5 126.19L566.91 130.99"
fill="none" stroke="black" stroke-width="0.5"/>
<path d="M121.58 126.19L113.17 130.99"
fill="none" stroke="black" stroke-width="0.5"/>
<path d="M14.65 197.47L6.25 202.27"
fill="none" stroke="black" stroke-width="0.5"/>
<path d="M549.27 126.19L540.87 130.99"
fill="none" stroke="black" stroke-width="0.5"/>
<path d="M442.35 197.47L433.94 202.27"
fill="none" stroke="black" stroke-width="0.5"/>
<path d="M335.42 268.75L327.02 273.56"
fill="none" stroke="black" stroke-width="0.5"/>
<path d="M228.5 340.04L220.09 344.84"
fill="none" stroke="black" stroke-width="0.5"/>
<path d="M121.58 411.32L113.17 416.12"
fill="none" stroke="black" stroke-width="0.5"/>
<path d="M14.65 482.6L6.25 487.41"
fill="none" stroke="black" stroke-width="0.5"/>
<path d="M763.12 268.75L754.72 273.56"
fill="none" stroke="black" stroke-width="0.5"/>
<path d="M656.2 340.04L647.79 344.84"
fill="none" stroke="black" stroke-width="0.5"/>
<path d="M549.27 411.32L540.87 416.12"
fill="none" stroke="black" stroke-width="0.5"/>
<path d="M442.35 482.6L433.94 487.41"
fill="none" stroke="black" stroke-width="0.5"/>
<path d="M335.42 553.89L327.02 558.69"
fill="none" stroke="black" stroke-width="0.5"/>
<path d="M228.5 625.17L220.09 629.97"
fill="none" stroke="black" stroke-width="0.5"/>
<path d="M763.12 553.89L754.72 558.69"
fill="none" stroke="black" stroke-width="0.5"/>
<path d="M656.2 625.17L647.79 629.97"
fill="none" stroke="black" stroke-width="0.5"/>
<path d="M749.92 567.09L754.72 558.69"
fill="none" stroke="black" stroke-width="0.5"/>
<path d="M642.99 638.38L647.79 629.97"
fill="none" stroke="black" stroke-width="0.5"/>
<path d="M749.92 281.96L754.72 273.56"
fill="none" stroke="black" stroke-width="0.5"/>
<path d="M642.99 353.25L647.79 344.84"
fill="none" stroke="black" stroke-width="0.5"/>
<path d="M536.07 424.53L540.87 416.12"
fill="none" stroke="black" stroke-width="0.5"/>
<path d="M429.14 495.81L433.94 487.41"
fill="none" stroke="black" stroke-width="0.5"/>
<path d="M322.22 567.09L327.02 558.69"
fill="none" stroke="black" stroke-width="0.5"/>
<path d="M536.07 139.4L540.87 130.99"
fill="none" stroke="black" stroke-width="0.5"/>
<path d="M215.29 638.38L220.09 629.97"
fill="none" stroke="black" stroke-width="0.5"/>
<path d="M429.14 210.68L433.94 202.27"
fill="none" stroke="black" stroke-width="0.5"/>
<path d="M322.22 281.96L327.02 273.56"
fill="none" stroke="black" stroke-width="0.5"/>
<path d="M215.29 353.25L220.09 344.84"
fill="none" stroke="black" stroke-width="0.5"/>
<path d="M108.37 424.53L113.17 416.12"
fill="none" stroke="black" stroke-width="0.5"/>
<path d="M1.44 495.81L6.25 487.41"
fill="none" stroke="black" stroke-width="0.5"/>
<path d="M108.37 139.4L113.17 130.99"
fill="none" stroke="black" stroke-width="0.5"/>
<path d="M1.44 210.68L6.25 202.27"
fill="none" stroke="black" stroke-width="0.5"/>
<path d="M1.44 505.04L6.25 513.44"
fill="none" stroke="black" stroke-width="0.5"/>
<path d="M215.29 647.6L220.09 656.01"
fill="none" stroke="black" stroke-width="0.5"/>
<path d="M108.37 433.75L113.17 442.16"
fill="none" stroke="black" stroke-width="0.5"/>
<path d="M1.44 219.91L6.25 228.31"
fill="none" stroke="black" stroke-width="0.5"/>
<path d="M322.22 576.32L327.02 584.73"
fill="none" stroke="black" stroke-width="0.5"/>
<path d="M215.29 362.47L220.09 370.88"
fill="none" stroke="black" stroke-width="0.5"/>
<path d="M108.37 148.62L113.17 157.03"
fill="none" stroke="black" stroke-width="0.5"/>
<path d="M429.14 505.04L433.94 513.44"
fill="none" stroke="black" stroke-width="0.5"/>
<path d="M322.22 291.19L327.02 299.59"
fill="none" stroke="black" stroke-width="0.5"/>
<path d="M642.99 647.6L647.79 656.01"
fill="none" stroke="black" stroke-width="0.5"/>
<path d="M536.07 433.75L540.87 442.16"
fill="none" stroke="black" stroke-width="0.5"/>
<path d="M429.14 219.91L433.94 228.31"
fill="none" stroke="black" stroke-width="0.5"/>
<path d="M749.92 576.32L754.72 584.73"
fill="none" stroke="black" stroke-width="0.5"/>
<path d="M642.99 362.47L647.79 370.88"
fill="none" stroke="black" stroke-width="0.5"/>
<path d="M536.07 148.62L540.87 157.03"
fill="none" stroke="black" stroke-width="0.5"/>
<path d="M749.92 291.19L754.72 299.59"
fill="none" stroke="black" stroke-width="0.5"/>
<path d="M549.27 161.83L540.87 157.03"
fill="none" stroke="black" stroke-width="0.5"/>
<path d="M763.12 304.4L754.72 299.59"
fill="none" stroke="black" stroke-width="0.5"/>
<path d="M442.35 233.11L433.94 228.31"
fill="none" stroke="black" stroke-width="0.5"/>
<path d="M656.2 375.68L647.79 370.88"
fill="none" stroke="black" stroke-width="0.5"/>
<path d="M121.58 161.83L113.17 157.03"
fill="none" stroke="black" stroke-width="0.5"/>
<path d="M335.42 304.4L327.02 299.59"
fill="none" stroke="black" stroke-width="0.5"/>
<path d="M549.27 446.96L540.87 442.16"
fill="none" stroke="black" stroke-width="0.5"/>
<path d="M763.12 589.53L754.72 584.73"
fill="none" stroke="black" stroke-width="0.5"/>
<path d="M14.65 233.11L6.25 228.31"
fill="none" stroke="black" stroke-width="0.5"/>
<path d="M228.5 375.68L220.09 370.88"
fill="none" stroke="black" stroke-width="0.5"/>
<path d="M442.35 518.25L433.94 513.44"
fill="none" stroke="black" stroke-width="0.5"/>
<path d="M656.2 660.81L647.79 656.01"
fill="none" stroke="black" stroke-width="0.5"/>
<path d="M121.58 446.96L113.17 442.16"
fill="none" stroke="black" stroke-width="0.5"/>
<path d="M335.42 589.53L327.02 584.73"
fill="none" stroke="black" stroke-width="0.5"/>
<path d="M14.65 518.25L6.25 513.44"
fill="none" stroke="black" stroke-width="0.5"/>
<path d="M228.5 660.81L220.09 656.01"
fill="none" stroke="black" stroke-width="0.5"/>
</svg>
