<?xml version="1.0" encoding="UTF-8"?>
<svg xmlns="http://www.w3.org/2000/svg" width="99.949mm" height="99.949mm" viewBox="0.0 0.0 787.000 787.000" preserveAspectRatio="none" version="1.1">
  <title>Produce by Acme CAD Converter</title>
  <desc>Produce by Acme CAD Converter</desc>
<path d="M28.86 650.79L37.74 650.79"
fill="none" stroke="black" stroke-width="0.5"/>
<path d="M440.52 650.79L449.4 650.79"
fill="none" stroke="black" stroke-width="0.5"/>
<path d="M131.77 582.18L140.65 582.18"
fill="none" stroke="black" stroke-width="0.5"/>
<path d="M543.43 582.18L552.31 582.18"
fill="none" stroke="black" stroke-width="0.5"/>
<path d="M234.69 513.57L243.57 513.57"
fill="none" stroke="black" stroke-width="0.5"/>
<path d="M646.35 513.57L655.23 513.57"
fill="none" stroke="black" stroke-width="0.5"/>
<path d="M337.6 444.96L346.48 444.96"
fill="none" stroke="black" stroke-width="0.5"/>
<path d="M749.26 444.96L758.14 444.96"
fill="none" stroke="black" stroke-width="0.5"/>
<path d="M28.86 376.35L37.74 376.35"
fill="none" stroke="black" stroke-width="0.5"/>
<path d="M440.52 376.35L449.4 376.35"
fill="none" stroke="black" stroke-width="0.5"/>
<path d="M131.77 307.74L140.65 307.74"
fill="none" stroke="black" stroke-width="0.5"/>
<path d="M543.43 307.74L552.31 307.74"
fill="none" stroke="black" stroke-width="0.5"/>
<path d="M234.69 239.13L243.57 239.13"
fill="none" stroke="black" stroke-width="0.5"/>
<path d="M646.35 239.13L655.23 239.13"
fill="none" stroke="black" stroke-width="0.5"/>
<path d="M337.6 170.52L346.48 170.52"
fill="none" stroke="black" stroke-width="0.5"/>
<path d="M749.26 170.52L758.14 170.52"
fill="none" stroke="black" stroke-width="0.5"/>
<path d="M28.86 616.48L37.74 616.48"
fill="none" stroke="black" stroke-width="0.5"/>
<path d="M440.52 616.48L449.4 616.48"
fill="none" stroke="black" stroke-width="0.5"/>
<path d="M131.77 547.87L140.65 547.87"
fill="none" stroke="black" stroke-width="0.5"/>
<path d="M543.43 547.87L552.31 547.87"
fill="none" stroke="black" stroke-width="0.5"/>
<path d="M234.69 479.26L243.57 479.26"
fill="none" stroke="black" stroke-width="0.5"/>
<path d="M646.35 479.26L655.23 479.26"
fill="none" stroke="black" stroke-width="0.5"/>
<path d="M337.6 410.65L346.48 410.65"
fill="none" stroke="black" stroke-width="0.5"/>
<path d="M749.26 410.65L758.14 410.65"
fill="none" stroke="black" stroke-width="0.5"/>
<path d="M28.86 342.04L37.74 342.04"
fill="none" stroke="black" stroke-width="0.5"/>
<path d="M440.52 342.04L449.4 342.04"
fill="none" stroke="black" stroke-width="0.5"/>
<path d="M131.77 273.43L140.65 273.43"
fill="none" stroke="black" stroke-width="0.5"/>
<path d="M543.43 273.43L552.31 273.43"
fill="none" stroke="black" stroke-width="0.5"/>
<path d="M234.69 204.82L243.57 204.82"
fill="none" stroke="black" stroke-width="0.5"/>
<path d="M646.35 204.82L655.23 204.82"
fill="none" stroke="black" stroke-width="0.5"/>
<path d="M337.6 136.21L346.48 136.21"
fill="none" stroke="black" stroke-width="0.5"/>
<path d="M749.26 136.21L758.14 136.21"
fill="none" stroke="black" stroke-width="0.5"/>
<path d="M736.55 432.24L736.55 423.36"
fill="none" stroke="black" stroke-width="0.5"/>
<path d="M736.55 157.81L736.55 148.93"
fill="none" stroke="black" stroke-width="0.5"/>
<path d="M633.64 500.85L633.64 491.97"
fill="none" stroke="black" stroke-width="0.5"/>
<path d="M633.64 226.42L633.64 217.54"
fill="none" stroke="black" stroke-width="0.5"/>
<path d="M530.72 569.46L530.72 560.58"
fill="none" stroke="black" stroke-width="0.5"/>
<path d="M530.72 295.03L530.72 286.15"
fill="none" stroke="black" stroke-width="0.5"/>
<path d="M427.81 638.07L427.81 629.19"
fill="none" stroke="black" stroke-width="0.5"/>
<path d="M427.81 363.64L427.81 354.76"
fill="none" stroke="black" stroke-width="0.5"/>
<path d="M324.89 432.24L324.89 423.36"
fill="none" stroke="black" stroke-width="0.5"/>
<path d="M324.89 157.81L324.89 148.93"
fill="none" stroke="black" stroke-width="0.5"/>
<path d="M221.98 500.85L221.98 491.97"
fill="none" stroke="black" stroke-width="0.5"/>
<path d="M221.98 226.42L221.98 217.54"
fill="none" stroke="black" stroke-width="0.5"/>
<path d="M119.06 569.46L119.06 560.58"
fill="none" stroke="black" stroke-width="0.5"/>
<path d="M119.06 295.03L119.06 286.15"
fill="none" stroke="black" stroke-width="0.5"/>
<path d="M16.15 638.07L16.15 629.19"
fill="none" stroke="black" stroke-width="0.5"/>
<path d="M16.15 363.64L16.15 354.76"
fill="none" stroke="black" stroke-width="0.5"/>
<path d="M770.86 432.24L770.86 423.36"
fill="none" stroke="black" stroke-width="0.5"/>
<path d="M770.86 157.81L770.86 148.93"
fill="none" stroke="black" stroke-width="0.5"/>
<path d="M667.94 500.85L667.94 491.97"
fill="none" stroke="black" stroke-width="0.5"/>
<path d="M667.94 226.42L667.94 217.54"
fill="none" stroke="black" stroke-width="0.5"/>
<path d="M565.03 569.46L565.03 560.58"
fill="none" stroke="black" stroke-width="0.5"/>
<path d="M565.03 295.03L565.03 286.15"
fill="none" stroke="black" stroke-width="0.5"/>
<path d="M462.11 638.07L462.11 629.19"
fill="none" stroke="black" stroke-width="0.5"/>
<path d="M462.11 363.64L462.11 354.76"
fill="none" stroke="black" stroke-width="0.5"/>
<path d="M359.2 432.24L359.2 423.36"
fill="none" stroke="black" stroke-width="0.5"/>
<path d="M359.2 157.81L359.2 148.93"
fill="none" stroke="black" stroke-width="0.5"/>
<path d="M256.28 500.85L256.28 491.97"
fill="none" stroke="black" stroke-width="0.5"/>
<path d="M256.28 226.42L256.28 217.54"
fill="none" stroke="black" stroke-width="0.5"/>
<path d="M153.37 569.46L153.37 560.58"
fill="none" stroke="black" stroke-width="0.5"/>
<path d="M153.37 295.03L153.37 286.15"
fill="none" stroke="black" stroke-width="0.5"/>
<path d="M50.45 638.07L50.45 629.19"
fill="none" stroke="black" stroke-width="0.5"/>
<path d="M50.45 363.64L50.45 354.76"
fill="none" stroke="black" stroke-width="0.5"/>
<path d="M449.4 650.79L457.49 646.16"
fill="none" stroke="black" stroke-width="0.5"/>
<path d="M552.31 582.18L560.4 577.55"
fill="none" stroke="black" stroke-width="0.5"/>
<path d="M655.23 513.57L663.32 508.94"
fill="none" stroke="black" stroke-width="0.5"/>
<path d="M758.14 444.96L766.23 440.34"
fill="none" stroke="black" stroke-width="0.5"/>
<path d="M37.74 650.79L45.83 646.16"
fill="none" stroke="black" stroke-width="0.5"/>
<path d="M140.65 582.18L148.74 577.55"
fill="none" stroke="black" stroke-width="0.5"/>
<path d="M243.57 513.57L251.66 508.94"
fill="none" stroke="black" stroke-width="0.5"/>
<path d="M346.48 444.96L354.57 440.34"
fill="none" stroke="black" stroke-width="0.5"/>
<path d="M449.4 376.35L457.49 371.73"
fill="none" stroke="black" stroke-width="0.5"/>
<path d="M552.31 307.74L560.4 303.12"
fill="none" stroke="black" stroke-width="0.5"/>
<path d="M655.23 239.13L663.32 234.51"
fill="none" stroke="black" stroke-width="0.5"/>
<path d="M758.14 170.52L766.23 165.9"
fill="none" stroke="black" stroke-width="0.5"/>
<path d="M37.74 376.35L45.83 371.73"
fill="none" stroke="black" stroke-width="0.5"/>
<path d="M140.65 307.74L148.74 303.12"
fill="none" stroke="black" stroke-width="0.5"/>
<path d="M243.57 239.13L251.66 234.51"
fill="none" stroke="black" stroke-width="0.5"/>
<path d="M346.48 170.52L354.57 165.9"
fill="none" stroke="black" stroke-width="0.5"/>
<path d="M50.45 363.64L45.83 371.73"
fill="none" stroke="black" stroke-width="0.5"/>
<path d="M153.37 295.03L148.74 303.12"
fill="none" stroke="black" stroke-width="0.5"/>
<path d="M256.28 226.42L251.66 234.51"
fill="none" stroke="black" stroke-width="0.5"/>
<path d="M50.45 638.07L45.83 646.16"
fill="none" stroke="black" stroke-width="0.5"/>
<path d="M359.2 157.81L354.57 165.9"
fill="none" stroke="black" stroke-width="0.5"/>
<path d="M153.37 569.46L148.74 577.55"
fill="none" stroke="black" stroke-width="0.5"/>
<path d="M256.28 500.85L251.66 508.94"
fill="none" stroke="black" stroke-width="0.5"/>
<path d="M359.2 432.24L354.57 440.34"
fill="none" stroke="black" stroke-width="0.5"/>
<path d="M462.11 363.64L457.49 371.73"
fill="none" stroke="black" stroke-width="0.5"/>
<path d="M565.03 295.03L560.4 303.12"
fill="none" stroke="black" stroke-width="0.5"/>
<path d="M667.94 226.42L663.32 234.51"
fill="none" stroke="black" stroke-width="0.5"/>
<path d="M462.11 638.07L457.49 646.16"
fill="none" stroke="black" stroke-width="0.5"/>
<path d="M770.86 157.81L766.23 165.9"
fill="none" stroke="black" stroke-width="0.5"/>
<path d="M565.03 569.46L560.4 577.55"
fill="none" stroke="black" stroke-width="0.5"/>
<path d="M667.94 500.85L663.32 508.94"
fill="none" stroke="black" stroke-width="0.5"/>
<path d="M770.86 432.24L766.23 440.34"
fill="none" stroke="black" stroke-width="0.5"/>
<path d="M770.86 148.93L766.23 140.84"
fill="none" stroke="black" stroke-width="0.5"/>
<path d="M667.94 217.54L663.32 209.45"
fill="none" stroke="black" stroke-width="0.5"/>
<path d="M770.86 423.36L766.23 415.27"
fill="none" stroke="black" stroke-width="0.5"/>
<path d="M565.03 286.15L560.4 278.06"
fill="none" stroke="black" stroke-width="0.5"/>
<path d="M667.94 491.97L663.32 483.88"
fill="none" stroke="black" stroke-width="0.5"/>
<path d="M359.2 148.93L354.57 140.84"
fill="none" stroke="black" stroke-width="0.5"/>
<path d="M462.11 354.76L457.49 346.66"
fill="none" stroke="black" stroke-width="0.5"/>
<path d="M565.03 560.58L560.4 552.49"
fill="none" stroke="black" stroke-width="0.5"/>
<path d="M256.28 217.54L251.66 209.45"
fill="none" stroke="black" stroke-width="0.5"/>
<path d="M359.2 423.36L354.57 415.27"
fill="none" stroke="black" stroke-width="0.5"/>
<path d="M462.11 629.19L457.49 621.1"
fill="none" stroke="black" stroke-width="0.5"/>
<path d="M153.37 286.15L148.74 278.06"
fill="none" stroke="black" stroke-width="0.5"/>
<path d="M256.28 491.97L251.66 483.88"
fill="none" stroke="black" stroke-width="0.5"/>
<path d="M50.45 354.76L45.83 346.66"
fill="none" stroke="black" stroke-width="0.5"/>
<path d="M153.37 560.58L148.74 552.49"
fill="none" stroke="black" stroke-width="0.5"/>
<path d="M50.45 629.19L45.83 621.1"
fill="none" stroke="black" stroke-width="0.5"/>
<path d="M37.74 616.48L45.83 621.1"
fill="none" stroke="black" stroke-width="0.5"/>
<path d="M140.65 547.87L148.74 552.49"
fill="none" stroke="black" stroke-width="0.5"/>
<path d="M449.4 616.48L457.49 621.1"
fill="none" stroke="black" stroke-width="0.5"/>
<path d="M243.57 479.26L251.66 483.88"
fill="none" stroke="black" stroke-width="0.5"/>
<path d="M37.74 342.04L45.83 346.66"
fill="none" stroke="black" stroke-width="0.5"/>
<path d="M552.31 547.87L560.4 552.49"
fill="none" stroke="black" stroke-width="0.5"/>
<path d="M346.48 410.65L354.57 415.27"
fill="none" stroke="black" stroke-width="0.5"/>
<path d="M140.65 273.43L148.74 278.06"
fill="none" stroke="black" stroke-width="0.5"/>
<path d="M655.23 479.26L663.32 483.88"
fill="none" stroke="black" stroke-width="0.5"/>
<path d="M449.4 342.04L457.49 346.66"
fill="none" stroke="black" stroke-width="0.5"/>
<path d="M243.57 204.82L251.66 209.45"
fill="none" stroke="black" stroke-width="0.5"/>
<path d="M758.14 410.65L766.23 415.27"
fill="none" stroke="black" stroke-width="0.5"/>
<path d="M552.31 273.43L560.4 278.06"
fill="none" stroke="black" stroke-width="0.5"/>
<path d="M346.48 136.21L354.57 140.84"
fill="none" stroke="black" stroke-width="0.5"/>
<path d="M655.23 204.82L663.32 209.45"
fill="none" stroke="black" stroke-width="0.5"/>
<path d="M758.14 136.21L766.23 140.84"
fill="none" stroke="black" stroke-width="0.5"/>
<path d="M337.6 136.21L329.51 140.84"
fill="none" stroke="black" stroke-width="0.5"/>
<path d="M234.69 204.82L226.6 209.45"
fill="none" stroke="black" stroke-width="0.5"/>
<path d="M131.77 273.43L123.68 278.06"
fill="none" stroke="black" stroke-width="0.5"/>
<path d="M28.86 342.04L20.77 346.66"
fill="none" stroke="black" stroke-width="0.5"/>
<path d="M749.26 136.21L741.17 140.84"
fill="none" stroke="black" stroke-width="0.5"/>
<path d="M646.35 204.82L638.26 209.45"
fill="none" stroke="black" stroke-width="0.5"/>
<path d="M543.43 273.43L535.34 278.06"
fill="none" stroke="black" stroke-width="0.5"/>
<path d="M440.52 342.04L432.43 346.66"
fill="none" stroke="black" stroke-width="0.5"/>
<path d="M337.6 410.65L329.51 415.27"
fill="none" stroke="black" stroke-width="0.5"/>
<path d="M234.69 479.26L226.6 483.88"
fill="none" stroke="black" stroke-width="0.5"/>
<path d="M131.77 547.87L123.68 552.49"
fill="none" stroke="black" stroke-width="0.5"/>
<path d="M28.86 616.48L20.77 621.1"
fill="none" stroke="black" stroke-width="0.5"/>
<path d="M749.26 410.65L741.17 415.27"
fill="none" stroke="black" stroke-width="0.5"/>
<path d="M646.35 479.26L638.26 483.88"
fill="none" stroke="black" stroke-width="0.5"/>
<path d="M543.43 547.87L535.34 552.49"
fill="none" stroke="black" stroke-width="0.5"/>
<path d="M440.52 616.48L432.43 621.1"
fill="none" stroke="black" stroke-width="0.5"/>
<path d="M736.55 423.36L741.17 415.27"
fill="none" stroke="black" stroke-width="0.5"/>
<path d="M633.64 491.97L638.26 483.88"
fill="none" stroke="black" stroke-width="0.5"/>
<path d="M530.72 560.58L535.34 552.49"
fill="none" stroke="black" stroke-width="0.5"/>
<path d="M736.55 148.93L741.17 140.84"
fill="none" stroke="black" stroke-width="0.5"/>
<path d="M427.81 629.19L432.43 621.1"
fill="none" stroke="black" stroke-width="0.5"/>
<path d="M633.64 217.54L638.26 209.45"
fill="none" stroke="black" stroke-width="0.5"/>
<path d="M530.72 286.15L535.34 278.06"
fill="none" stroke="black" stroke-width="0.5"/>
<path d="M427.81 354.76L432.43 346.66"
fill="none" stroke="black" stroke-width="0.5"/>
<path d="M324.89 423.36L329.51 415.27"
fill="none" stroke="black" stroke-width="0.5"/>
<path d="M221.98 491.97L226.6 483.88"
fill="none" stroke="black" stroke-width="0.5"/>
<path d="M119.06 560.58L123.68 552.49"
fill="none" stroke="black" stroke-width="0.5"/>
<path d="M324.89 148.93L329.51 140.84"
fill="none" stroke="black" stroke-width="0.5"/>
<path d="M16.15 629.19L20.77 621.1"
fill="none" stroke="black" stroke-width="0.5"/>
<path d="M221.98 217.54L226.6 209.45"
fill="none" stroke="black" stroke-width="0.5"/>
<path d="M119.06 286.15L123.68 278.06"
fill="none" stroke="black" stroke-width="0.5"/>
<path d="M16.15 354.76L20.77 346.66"
fill="none" stroke="black" stroke-width="0.5"/>
<path d="M16.15 638.07L20.77 646.16"
fill="none" stroke="black" stroke-width="0.5"/>
<path d="M119.06 569.46L123.68 577.55"
fill="none" stroke="black" stroke-width="0.5"/>
<path d="M16.15 363.64L20.77 371.73"
fill="none" stroke="black" stroke-width="0.5"/>
<path d="M221.98 500.85L226.6 508.94"
fill="none" stroke="black" stroke-width="0.5"/>
<path d="M119.06 295.03L123.68 303.12"
fill="none" stroke="black" stroke-width="0.5"/>
<path d="M427.81 638.07L432.43 646.16"
fill="none" stroke="black" stroke-width="0.5"/>
<path d="M324.89 432.24L329.51 440.34"
fill="none" stroke="black" stroke-width="0.5"/>
<path d="M221.98 226.42L226.6 234.51"
fill="none" stroke="black" stroke-width="0.5"/>
<path d="M530.72 569.46L535.34 577.55"
fill="none" stroke="black" stroke-width="0.5"/>
<path d="M427.81 363.64L432.43 371.73"
fill="none" stroke="black" stroke-width="0.5"/>
<path d="M324.89 157.81L329.51 165.9"
fill="none" stroke="black" stroke-width="0.5"/>
<path d="M633.64 500.85L638.26 508.94"
fill="none" stroke="black" stroke-width="0.5"/>
<path d="M530.72 295.03L535.34 303.12"
fill="none" stroke="black" stroke-width="0.5"/>
<path d="M736.55 432.24L741.17 440.34"
fill="none" stroke="black" stroke-width="0.5"/>
<path d="M633.64 226.42L638.26 234.51"
fill="none" stroke="black" stroke-width="0.5"/>
<path d="M736.55 157.81L741.17 165.9"
fill="none" stroke="black" stroke-width="0.5"/>
<path d="M749.26 170.52L741.17 165.9"
fill="none" stroke="black" stroke-width="0.5"/>
<path d="M646.35 239.13L638.26 234.51"
fill="none" stroke="black" stroke-width="0.5"/>
<path d="M337.6 170.52L329.51 165.9"
fill="none" stroke="black" stroke-width="0.5"/>
<path d="M543.43 307.74L535.34 303.12"
fill="none" stroke="black" stroke-width="0.5"/>
<path d="M749.26 444.96L741.17 440.34"
fill="none" stroke="black" stroke-width="0.5"/>
<path d="M234.69 239.13L226.6 234.51"
fill="none" stroke="black" stroke-width="0.5"/>
<path d="M440.52 376.35L432.43 371.73"
fill="none" stroke="black" stroke-width="0.5"/>
<path d="M646.35 513.57L638.26 508.94"
fill="none" stroke="black" stroke-width="0.5"/>
<path d="M131.77 307.74L123.68 303.12"
fill="none" stroke="black" stroke-width="0.5"/>
<path d="M337.6 444.96L329.51 440.34"
fill="none" stroke="black" stroke-width="0.5"/>
<path d="M543.43 582.18L535.34 577.55"
fill="none" stroke="black" stroke-width="0.5"/>
<path d="M28.86 376.35L20.77 371.73"
fill="none" stroke="black" stroke-width="0.5"/>
<path d="M234.69 513.57L226.6 508.94"
fill="none" stroke="black" stroke-width="0.5"/>
<path d="M440.52 650.79L432.43 646.16"
fill="none" stroke="black" stroke-width="0.5"/>
<path d="M131.77 582.18L123.68 577.55"
fill="none" stroke="black" stroke-width="0.5"/>
<path d="M28.86 650.79L20.77 646.16"
fill="none" stroke="black" stroke-width="0.5"/>
<path d="M232.91 665.49L245.34 665.49"
fill="none" stroke="black" stroke-width="0.5"/>
<path d="M644.57 665.49L657 665.49"
fill="none" stroke="black" stroke-width="0.5"/>
<path d="M335.83 596.88L348.26 596.88"
fill="none" stroke="black" stroke-width="0.5"/>
<path d="M747.49 596.88L759.92 596.88"
fill="none" stroke="black" stroke-width="0.5"/>
<path d="M27.09 528.27L39.51 528.27"
fill="none" stroke="black" stroke-width="0.5"/>
<path d="M438.74 528.27L451.17 528.27"
fill="none" stroke="black" stroke-width="0.5"/>
<path d="M130 459.66L142.43 459.66"
fill="none" stroke="black" stroke-width="0.5"/>
<path d="M541.66 459.66L554.09 459.66"
fill="none" stroke="black" stroke-width="0.5"/>
<path d="M232.91 391.05L245.34 391.05"
fill="none" stroke="black" stroke-width="0.5"/>
<path d="M644.57 391.05L657 391.05"
fill="none" stroke="black" stroke-width="0.5"/>
<path d="M335.83 322.44L348.26 322.44"
fill="none" stroke="black" stroke-width="0.5"/>
<path d="M747.49 322.44L759.92 322.44"
fill="none" stroke="black" stroke-width="0.5"/>
<path d="M27.09 253.83L39.51 253.83"
fill="none" stroke="black" stroke-width="0.5"/>
<path d="M438.74 253.83L451.17 253.83"
fill="none" stroke="black" stroke-width="0.5"/>
<path d="M130 185.22L142.43 185.22"
fill="none" stroke="black" stroke-width="0.5"/>
<path d="M541.66 185.22L554.09 185.22"
fill="none" stroke="black" stroke-width="0.5"/>
<path d="M232.91 601.78L245.34 601.78"
fill="none" stroke="black" stroke-width="0.5"/>
<path d="M644.57 601.78L657 601.78"
fill="none" stroke="black" stroke-width="0.5"/>
<path d="M335.83 533.17L348.26 533.17"
fill="none" stroke="black" stroke-width="0.5"/>
<path d="M747.49 533.17L759.92 533.17"
fill="none" stroke="black" stroke-width="0.5"/>
<path d="M27.09 464.56L39.51 464.56"
fill="none" stroke="black" stroke-width="0.5"/>
<path d="M438.74 464.56L451.17 464.56"
fill="none" stroke="black" stroke-width="0.5"/>
<path d="M130 395.95L142.43 395.95"
fill="none" stroke="black" stroke-width="0.5"/>
<path d="M541.66 395.95L554.09 395.95"
fill="none" stroke="black" stroke-width="0.5"/>
<path d="M232.91 327.34L245.34 327.34"
fill="none" stroke="black" stroke-width="0.5"/>
<path d="M644.57 327.34L657 327.34"
fill="none" stroke="black" stroke-width="0.5"/>
<path d="M335.83 258.73L348.26 258.73"
fill="none" stroke="black" stroke-width="0.5"/>
<path d="M747.49 258.73L759.92 258.73"
fill="none" stroke="black" stroke-width="0.5"/>
<path d="M27.09 190.12L39.51 190.12"
fill="none" stroke="black" stroke-width="0.5"/>
<path d="M438.74 190.12L451.17 190.12"
fill="none" stroke="black" stroke-width="0.5"/>
<path d="M130 121.51L142.43 121.51"
fill="none" stroke="black" stroke-width="0.5"/>
<path d="M541.66 121.51L554.09 121.51"
fill="none" stroke="black" stroke-width="0.5"/>
<path d="M721.85 571.24L721.85 558.81"
fill="none" stroke="black" stroke-width="0.5"/>
<path d="M721.85 296.8L721.85 284.37"
fill="none" stroke="black" stroke-width="0.5"/>
<path d="M618.93 639.85L618.93 627.42"
fill="none" stroke="black" stroke-width="0.5"/>
<path d="M618.93 365.41L618.93 352.98"
fill="none" stroke="black" stroke-width="0.5"/>
<path d="M516.02 434.02L516.02 421.59"
fill="none" stroke="black" stroke-width="0.5"/>
<path d="M516.02 159.58L516.02 147.15"
fill="none" stroke="black" stroke-width="0.5"/>
<path d="M413.1 502.63L413.1 490.2"
fill="none" stroke="black" stroke-width="0.5"/>
<path d="M413.1 228.19L413.1 215.76"
fill="none" stroke="black" stroke-width="0.5"/>
<path d="M310.19 571.24L310.19 558.81"
fill="none" stroke="black" stroke-width="0.5"/>
<path d="M310.19 296.8L310.19 284.37"
fill="none" stroke="black" stroke-width="0.5"/>
<path d="M207.27 639.85L207.27 627.42"
fill="none" stroke="black" stroke-width="0.5"/>
<path d="M207.27 365.41L207.27 352.98"
fill="none" stroke="black" stroke-width="0.5"/>
<path d="M104.36 434.02L104.36 421.59"
fill="none" stroke="black" stroke-width="0.5"/>
<path d="M104.36 159.58L104.36 147.15"
fill="none" stroke="black" stroke-width="0.5"/>
<path d="M1.44 502.63L1.44 490.2"
fill="none" stroke="black" stroke-width="0.5"/>
<path d="M1.44 228.19L1.44 215.76"
fill="none" stroke="black" stroke-width="0.5"/>
<path d="M785.56 571.24L785.56 558.81"
fill="none" stroke="black" stroke-width="0.5"/>
<path d="M785.56 296.8L785.56 284.37"
fill="none" stroke="black" stroke-width="0.5"/>
<path d="M682.64 639.85L682.64 627.42"
fill="none" stroke="black" stroke-width="0.5"/>
<path d="M682.64 365.41L682.64 352.98"
fill="none" stroke="black" stroke-width="0.5"/>
<path d="M579.73 434.02L579.73 421.59"
fill="none" stroke="black" stroke-width="0.5"/>
<path d="M579.73 159.58L579.73 147.15"
fill="none" stroke="black" stroke-width="0.5"/>
<path d="M476.81 502.63L476.81 490.2"
fill="none" stroke="black" stroke-width="0.5"/>
<path d="M476.81 228.19L476.81 215.76"
fill="none" stroke="black" stroke-width="0.5"/>
<path d="M373.9 571.24L373.9 558.81"
fill="none" stroke="black" stroke-width="0.5"/>
<path d="M373.9 296.8L373.9 284.37"
fill="none" stroke="black" stroke-width="0.5"/>
<path d="M270.98 639.85L270.98 627.42"
fill="none" stroke="black" stroke-width="0.5"/>
<path d="M270.98 365.41L270.98 352.98"
fill="none" stroke="black" stroke-width="0.5"/>
<path d="M168.07 434.02L168.07 421.59"
fill="none" stroke="black" stroke-width="0.5"/>
<path d="M168.07 159.58L168.07 147.15"
fill="none" stroke="black" stroke-width="0.5"/>
<path d="M65.15 502.63L65.15 490.2"
fill="none" stroke="black" stroke-width="0.5"/>
<path d="M65.15 228.19L65.15 215.76"
fill="none" stroke="black" stroke-width="0.5"/>
<path d="M771.13 592.39L781.07 582.45"
fill="none" stroke="black" stroke-width="0.5"/>
<path d="M668.21 661L678.16 651.06"
fill="none" stroke="black" stroke-width="0.5"/>
<path d="M771.13 317.95L781.07 308.01"
fill="none" stroke="black" stroke-width="0.5"/>
<path d="M668.21 386.56L678.16 376.62"
fill="none" stroke="black" stroke-width="0.5"/>
<path d="M565.3 455.17L575.24 445.23"
fill="none" stroke="black" stroke-width="0.5"/>
<path d="M462.38 523.78L472.33 513.84"
fill="none" stroke="black" stroke-width="0.5"/>
<path d="M359.47 592.39L369.41 582.45"
fill="none" stroke="black" stroke-width="0.5"/>
<path d="M256.55 661L266.5 651.06"
fill="none" stroke="black" stroke-width="0.5"/>
<path d="M565.3 180.73L575.24 170.79"
fill="none" stroke="black" stroke-width="0.5"/>
<path d="M462.38 249.34L472.33 239.4"
fill="none" stroke="black" stroke-width="0.5"/>
<path d="M359.47 317.95L369.41 308.01"
fill="none" stroke="black" stroke-width="0.5"/>
<path d="M256.55 386.56L266.5 376.62"
fill="none" stroke="black" stroke-width="0.5"/>
<path d="M153.64 455.17L163.58 445.23"
fill="none" stroke="black" stroke-width="0.5"/>
<path d="M50.72 523.78L60.67 513.84"
fill="none" stroke="black" stroke-width="0.5"/>
<path d="M153.64 180.73L163.58 170.79"
fill="none" stroke="black" stroke-width="0.5"/>
<path d="M50.72 249.34L60.67 239.4"
fill="none" stroke="black" stroke-width="0.5"/>
<path d="M50.72 469.05L60.67 478.99"
fill="none" stroke="black" stroke-width="0.5"/>
<path d="M256.55 606.27L266.5 616.21"
fill="none" stroke="black" stroke-width="0.5"/>
<path d="M153.64 400.44L163.58 410.38"
fill="none" stroke="black" stroke-width="0.5"/>
<path d="M359.47 537.66L369.41 547.6"
fill="none" stroke="black" stroke-width="0.5"/>
<path d="M50.72 194.61L60.67 204.55"
fill="none" stroke="black" stroke-width="0.5"/>
<path d="M256.55 331.83L266.5 341.77"
fill="none" stroke="black" stroke-width="0.5"/>
<path d="M462.38 469.05L472.33 478.99"
fill="none" stroke="black" stroke-width="0.5"/>
<path d="M153.64 126L163.58 135.94"
fill="none" stroke="black" stroke-width="0.5"/>
<path d="M668.21 606.27L678.16 616.21"
fill="none" stroke="black" stroke-width="0.5"/>
<path d="M359.47 263.22L369.41 273.16"
fill="none" stroke="black" stroke-width="0.5"/>
<path d="M565.3 400.44L575.24 410.38"
fill="none" stroke="black" stroke-width="0.5"/>
<path d="M771.13 537.66L781.07 547.6"
fill="none" stroke="black" stroke-width="0.5"/>
<path d="M462.38 194.61L472.33 204.55"
fill="none" stroke="black" stroke-width="0.5"/>
<path d="M668.21 331.83L678.16 341.77"
fill="none" stroke="black" stroke-width="0.5"/>
<path d="M565.3 126L575.24 135.94"
fill="none" stroke="black" stroke-width="0.5"/>
<path d="M771.13 263.22L781.07 273.16"
fill="none" stroke="black" stroke-width="0.5"/>
<path d="M15.87 194.61L5.93 204.55"
fill="none" stroke="black" stroke-width="0.5"/>
<path d="M118.79 126L108.84 135.94"
fill="none" stroke="black" stroke-width="0.5"/>
<path d="M15.87 469.05L5.93 478.99"
fill="none" stroke="black" stroke-width="0.5"/>
<path d="M118.79 400.44L108.84 410.38"
fill="none" stroke="black" stroke-width="0.5"/>
<path d="M221.7 331.83L211.76 341.77"
fill="none" stroke="black" stroke-width="0.5"/>
<path d="M324.62 263.22L314.67 273.16"
fill="none" stroke="black" stroke-width="0.5"/>
<path d="M427.53 194.61L417.59 204.55"
fill="none" stroke="black" stroke-width="0.5"/>
<path d="M530.45 126L520.5 135.94"
fill="none" stroke="black" stroke-width="0.5"/>
<path d="M221.7 606.27L211.76 616.21"
fill="none" stroke="black" stroke-width="0.5"/>
<path d="M324.62 537.66L314.67 547.6"
fill="none" stroke="black" stroke-width="0.5"/>
<path d="M427.53 469.05L417.59 478.99"
fill="none" stroke="black" stroke-width="0.5"/>
<path d="M530.45 400.44L520.5 410.38"
fill="none" stroke="black" stroke-width="0.5"/>
<path d="M633.36 331.83L623.42 341.77"
fill="none" stroke="black" stroke-width="0.5"/>
<path d="M736.28 263.22L726.33 273.16"
fill="none" stroke="black" stroke-width="0.5"/>
<path d="M633.36 606.27L623.42 616.21"
fill="none" stroke="black" stroke-width="0.5"/>
<path d="M736.28 537.66L726.33 547.6"
fill="none" stroke="black" stroke-width="0.5"/>
<path d="M736.28 317.95L726.33 308.01"
fill="none" stroke="black" stroke-width="0.5"/>
<path d="M530.45 180.73L520.5 170.79"
fill="none" stroke="black" stroke-width="0.5"/>
<path d="M633.36 386.56L623.42 376.62"
fill="none" stroke="black" stroke-width="0.5"/>
<path d="M427.53 249.34L417.59 239.4"
fill="none" stroke="black" stroke-width="0.5"/>
<path d="M736.28 592.39L726.33 582.45"
fill="none" stroke="black" stroke-width="0.5"/>
<path d="M530.45 455.17L520.5 445.23"
fill="none" stroke="black" stroke-width="0.5"/>
<path d="M324.62 317.95L314.67 308.01"
fill="none" stroke="black" stroke-width="0.5"/>
<path d="M633.36 661L623.42 651.06"
fill="none" stroke="black" stroke-width="0.5"/>
<path d="M118.79 180.73L108.84 170.79"
fill="none" stroke="black" stroke-width="0.5"/>
<path d="M427.53 523.78L417.59 513.84"
fill="none" stroke="black" stroke-width="0.5"/>
<path d="M221.7 386.56L211.76 376.62"
fill="none" stroke="black" stroke-width="0.5"/>
<path d="M15.87 249.34L5.93 239.4"
fill="none" stroke="black" stroke-width="0.5"/>
<path d="M324.62 592.39L314.67 582.45"
fill="none" stroke="black" stroke-width="0.5"/>
<path d="M118.79 455.17L108.84 445.23"
fill="none" stroke="black" stroke-width="0.5"/>
<path d="M221.7 661L211.76 651.06"
fill="none" stroke="black" stroke-width="0.5"/>
<path d="M15.87 523.78L5.93 513.84"
fill="none" stroke="black" stroke-width="0.5"/>
<path d="M657 665.49L668.21 661"
fill="none" stroke="black" stroke-width="0.5"/>
<path d="M759.92 596.88L771.13 592.39"
fill="none" stroke="black" stroke-width="0.5"/>
<path d="M245.34 665.49L256.55 661"
fill="none" stroke="black" stroke-width="0.5"/>
<path d="M348.26 596.88L359.47 592.39"
fill="none" stroke="black" stroke-width="0.5"/>
<path d="M451.17 528.27L462.38 523.78"
fill="none" stroke="black" stroke-width="0.5"/>
<path d="M554.09 459.66L565.3 455.17"
fill="none" stroke="black" stroke-width="0.5"/>
<path d="M657 391.05L668.21 386.56"
fill="none" stroke="black" stroke-width="0.5"/>
<path d="M759.92 322.44L771.13 317.95"
fill="none" stroke="black" stroke-width="0.5"/>
<path d="M39.51 528.27L50.72 523.78"
fill="none" stroke="black" stroke-width="0.5"/>
<path d="M142.43 459.66L153.64 455.17"
fill="none" stroke="black" stroke-width="0.5"/>
<path d="M245.34 391.05L256.55 386.56"
fill="none" stroke="black" stroke-width="0.5"/>
<path d="M348.26 322.44L359.47 317.95"
fill="none" stroke="black" stroke-width="0.5"/>
<path d="M451.17 253.83L462.38 249.34"
fill="none" stroke="black" stroke-width="0.5"/>
<path d="M554.09 185.22L565.3 180.73"
fill="none" stroke="black" stroke-width="0.5"/>
<path d="M39.51 253.83L50.72 249.34"
fill="none" stroke="black" stroke-width="0.5"/>
<path d="M142.43 185.22L153.64 180.73"
fill="none" stroke="black" stroke-width="0.5"/>
<path d="M65.15 228.19L60.67 239.4"
fill="none" stroke="black" stroke-width="0.5"/>
<path d="M168.07 159.58L163.58 170.79"
fill="none" stroke="black" stroke-width="0.5"/>
<path d="M65.15 502.63L60.67 513.84"
fill="none" stroke="black" stroke-width="0.5"/>
<path d="M168.07 434.02L163.58 445.23"
fill="none" stroke="black" stroke-width="0.5"/>
<path d="M270.98 365.41L266.5 376.62"
fill="none" stroke="black" stroke-width="0.5"/>
<path d="M373.9 296.8L369.41 308.01"
fill="none" stroke="black" stroke-width="0.5"/>
<path d="M270.98 639.85L266.5 651.06"
fill="none" stroke="black" stroke-width="0.5"/>
<path d="M476.81 228.19L472.33 239.4"
fill="none" stroke="black" stroke-width="0.5"/>
<path d="M373.9 571.24L369.41 582.45"
fill="none" stroke="black" stroke-width="0.5"/>
<path d="M579.73 159.58L575.24 170.79"
fill="none" stroke="black" stroke-width="0.5"/>
<path d="M476.81 502.63L472.33 513.84"
fill="none" stroke="black" stroke-width="0.5"/>
<path d="M579.73 434.02L575.24 445.23"
fill="none" stroke="black" stroke-width="0.5"/>
<path d="M682.64 365.41L678.16 376.62"
fill="none" stroke="black" stroke-width="0.5"/>
<path d="M785.56 296.8L781.07 308.01"
fill="none" stroke="black" stroke-width="0.5"/>
<path d="M682.64 639.85L678.16 651.06"
fill="none" stroke="black" stroke-width="0.5"/>
<path d="M785.56 571.24L781.07 582.45"
fill="none" stroke="black" stroke-width="0.5"/>
<path d="M785.56 284.37L781.07 273.16"
fill="none" stroke="black" stroke-width="0.5"/>
<path d="M785.56 558.81L781.07 547.6"
fill="none" stroke="black" stroke-width="0.5"/>
<path d="M682.64 352.98L678.16 341.77"
fill="none" stroke="black" stroke-width="0.5"/>
<path d="M579.73 147.15L575.24 135.94"
fill="none" stroke="black" stroke-width="0.5"/>
<path d="M682.64 627.42L678.16 616.21"
fill="none" stroke="black" stroke-width="0.5"/>
<path d="M579.73 421.59L575.24 410.38"
fill="none" stroke="black" stroke-width="0.5"/>
<path d="M476.81 215.76L472.33 204.55"
fill="none" stroke="black" stroke-width="0.5"/>
<path d="M476.81 490.2L472.33 478.99"
fill="none" stroke="black" stroke-width="0.5"/>
<path d="M373.9 284.37L369.41 273.16"
fill="none" stroke="black" stroke-width="0.5"/>
<path d="M373.9 558.81L369.41 547.6"
fill="none" stroke="black" stroke-width="0.5"/>
<path d="M270.98 352.98L266.5 341.77"
fill="none" stroke="black" stroke-width="0.5"/>
<path d="M168.07 147.15L163.58 135.94"
fill="none" stroke="black" stroke-width="0.5"/>
<path d="M270.98 627.42L266.5 616.21"
fill="none" stroke="black" stroke-width="0.5"/>
<path d="M168.07 421.59L163.58 410.38"
fill="none" stroke="black" stroke-width="0.5"/>
<path d="M65.15 215.76L60.67 204.55"
fill="none" stroke="black" stroke-width="0.5"/>
<path d="M65.15 490.2L60.67 478.99"
fill="none" stroke="black" stroke-width="0.5"/>
<path d="M245.34 601.78L256.55 606.27"
fill="none" stroke="black" stroke-width="0.5"/>
<path d="M39.51 464.56L50.72 469.05"
fill="none" stroke="black" stroke-width="0.5"/>
<path d="M348.26 533.17L359.47 537.66"
fill="none" stroke="black" stroke-width="0.5"/>
<path d="M142.43 395.95L153.64 400.44"
fill="none" stroke="black" stroke-width="0.5"/>
<path d="M657 601.78L668.21 606.27"
fill="none" stroke="black" stroke-width="0.5"/>
<path d="M451.17 464.56L462.38 469.05"
fill="none" stroke="black" stroke-width="0.5"/>
<path d="M245.34 327.34L256.55 331.83"
fill="none" stroke="black" stroke-width="0.5"/>
<path d="M759.92 533.17L771.13 537.66"
fill="none" stroke="black" stroke-width="0.5"/>
<path d="M39.51 190.12L50.72 194.61"
fill="none" stroke="black" stroke-width="0.5"/>
<path d="M554.09 395.95L565.3 400.44"
fill="none" stroke="black" stroke-width="0.5"/>
<path d="M348.26 258.73L359.47 263.22"
fill="none" stroke="black" stroke-width="0.5"/>
<path d="M142.43 121.51L153.64 126"
fill="none" stroke="black" stroke-width="0.5"/>
<path d="M657 327.34L668.21 331.83"
fill="none" stroke="black" stroke-width="0.5"/>
<path d="M451.17 190.12L462.38 194.61"
fill="none" stroke="black" stroke-width="0.5"/>
<path d="M759.92 258.73L771.13 263.22"
fill="none" stroke="black" stroke-width="0.5"/>
<path d="M554.09 121.51L565.3 126"
fill="none" stroke="black" stroke-width="0.5"/>
<path d="M130 121.51L118.79 126"
fill="none" stroke="black" stroke-width="0.5"/>
<path d="M27.09 190.12L15.88 194.6"
fill="none" stroke="black" stroke-width="0.5"/>
<path d="M541.66 121.51L530.45 126"
fill="none" stroke="black" stroke-width="0.5"/>
<path d="M438.75 190.12L427.54 194.61"
fill="none" stroke="black" stroke-width="0.5"/>
<path d="M335.83 258.73L324.62 263.22"
fill="none" stroke="black" stroke-width="0.5"/>
<path d="M232.92 327.34L221.71 331.83"
fill="none" stroke="black" stroke-width="0.5"/>
<path d="M130 395.95L118.79 400.44"
fill="none" stroke="black" stroke-width="0.5"/>
<path d="M27.09 464.56L15.87 469.04"
fill="none" stroke="black" stroke-width="0.5"/>
<path d="M747.49 258.73L736.28 263.22"
fill="none" stroke="black" stroke-width="0.5"/>
<path d="M644.58 327.34L633.36 331.83"
fill="none" stroke="black" stroke-width="0.5"/>
<path d="M541.66 395.95L530.45 400.44"
fill="none" stroke="black" stroke-width="0.5"/>
<path d="M438.74 464.56L427.53 469.05"
fill="none" stroke="black" stroke-width="0.5"/>
<path d="M335.83 533.17L324.62 537.66"
fill="none" stroke="black" stroke-width="0.5"/>
<path d="M232.91 601.78L221.7 606.27"
fill="none" stroke="black" stroke-width="0.5"/>
<path d="M747.49 533.17L736.28 537.66"
fill="none" stroke="black" stroke-width="0.5"/>
<path d="M644.57 601.78L633.36 606.27"
fill="none" stroke="black" stroke-width="0.5"/>
<path d="M721.85 558.81L726.33 547.6"
fill="none" stroke="black" stroke-width="0.5"/>
<path d="M618.93 627.42L623.42 616.21"
fill="none" stroke="black" stroke-width="0.5"/>
<path d="M721.85 284.37L726.33 273.16"
fill="none" stroke="black" stroke-width="0.5"/>
<path d="M618.93 352.98L623.42 341.77"
fill="none" stroke="black" stroke-width="0.5"/>
<path d="M516.02 421.59L520.5 410.38"
fill="none" stroke="black" stroke-width="0.5"/>
<path d="M413.1 490.2L417.59 478.99"
fill="none" stroke="black" stroke-width="0.5"/>
<path d="M516.02 147.15L520.5 135.94"
fill="none" stroke="black" stroke-width="0.5"/>
<path d="M310.19 558.81L314.67 547.6"
fill="none" stroke="black" stroke-width="0.5"/>
<path d="M413.1 215.76L417.58 204.55"
fill="none" stroke="black" stroke-width="0.5"/>
<path d="M207.27 627.42L211.76 616.21"
fill="none" stroke="black" stroke-width="0.5"/>
<path d="M310.19 284.37L314.67 273.16"
fill="none" stroke="black" stroke-width="0.5"/>
<path d="M207.27 352.98L211.76 341.77"
fill="none" stroke="black" stroke-width="0.5"/>
<path d="M104.36 421.59L108.84 410.38"
fill="none" stroke="black" stroke-width="0.5"/>
<path d="M1.44 490.2L5.93 478.99"
fill="none" stroke="black" stroke-width="0.5"/>
<path d="M104.36 147.15L108.84 135.94"
fill="none" stroke="black" stroke-width="0.5"/>
<path d="M1.44 215.76L5.93 204.55"
fill="none" stroke="black" stroke-width="0.5"/>
<path d="M1.44 502.63L5.93 513.84"
fill="none" stroke="black" stroke-width="0.5"/>
<path d="M1.45 228.19L5.93 239.4"
fill="none" stroke="black" stroke-width="0.5"/>
<path d="M104.36 434.02L108.84 445.23"
fill="none" stroke="black" stroke-width="0.5"/>
<path d="M207.27 639.85L211.76 651.06"
fill="none" stroke="black" stroke-width="0.5"/>
<path d="M104.36 159.58L108.85 170.79"
fill="none" stroke="black" stroke-width="0.5"/>
<path d="M207.28 365.41L211.76 376.62"
fill="none" stroke="black" stroke-width="0.5"/>
<path d="M310.19 571.24L314.67 582.45"
fill="none" stroke="black" stroke-width="0.5"/>
<path d="M310.19 296.8L314.68 308.01"
fill="none" stroke="black" stroke-width="0.5"/>
<path d="M413.11 502.63L417.59 513.84"
fill="none" stroke="black" stroke-width="0.5"/>
<path d="M413.11 228.19L417.59 239.4"
fill="none" stroke="black" stroke-width="0.5"/>
<path d="M516.02 434.02L520.5 445.23"
fill="none" stroke="black" stroke-width="0.5"/>
<path d="M618.93 639.85L623.42 651.06"
fill="none" stroke="black" stroke-width="0.5"/>
<path d="M516.02 159.58L520.51 170.79"
fill="none" stroke="black" stroke-width="0.5"/>
<path d="M618.94 365.41L623.42 376.62"
fill="none" stroke="black" stroke-width="0.5"/>
<path d="M721.85 571.24L726.33 582.45"
fill="none" stroke="black" stroke-width="0.5"/>
<path d="M721.85 296.8L726.34 308.01"
fill="none" stroke="black" stroke-width="0.5"/>
<path d="M541.66 185.22L530.44 180.73"
fill="none" stroke="black" stroke-width="0.5"/>
<path d="M747.49 322.44L736.28 317.95"
fill="none" stroke="black" stroke-width="0.5"/>
<path d="M438.74 253.83L427.53 249.34"
fill="none" stroke="black" stroke-width="0.5"/>
<path d="M644.57 391.05L633.36 386.56"
fill="none" stroke="black" stroke-width="0.5"/>
<path d="M130 185.22L118.79 180.73"
fill="none" stroke="black" stroke-width="0.5"/>
<path d="M335.83 322.44L324.62 317.95"
fill="none" stroke="black" stroke-width="0.5"/>
<path d="M541.66 459.66L530.45 455.17"
fill="none" stroke="black" stroke-width="0.5"/>
<path d="M27.08 253.83L15.87 249.35"
fill="none" stroke="black" stroke-width="0.5"/>
<path d="M747.49 596.88L736.28 592.39"
fill="none" stroke="black" stroke-width="0.5"/>
<path d="M232.91 391.05L221.7 386.56"
fill="none" stroke="black" stroke-width="0.5"/>
<path d="M438.74 528.27L427.53 523.78"
fill="none" stroke="black" stroke-width="0.5"/>
<path d="M644.57 665.49L633.36 661"
fill="none" stroke="black" stroke-width="0.5"/>
<path d="M130 459.66L118.79 455.17"
fill="none" stroke="black" stroke-width="0.5"/>
<path d="M335.83 596.88L324.62 592.39"
fill="none" stroke="black" stroke-width="0.5"/>
<path d="M27.08 528.27L15.87 523.79"
fill="none" stroke="black" stroke-width="0.5"/>
<path d="M232.91 665.49L221.7 661"
fill="none" stroke="black" stroke-width="0.5"/>
</svg>
