<?xml version="1.0" encoding="UTF-8"?>
<svg xmlns="http://www.w3.org/2000/svg" width="99.949mm" height="99.949mm" viewBox="0.0 0.0 787.000 787.000" preserveAspectRatio="none" version="1.1">
  <title>Produce by Acme CAD Converter</title>
  <desc>Produce by Acme CAD Converter</desc>
<path d="M30.5 667.94L50.8 667.94"
fill="none" stroke="black" stroke-width="0.5"/>
<path d="M500.97 667.94L521.27 667.94"
fill="none" stroke="black" stroke-width="0.5"/>
<path d="M265.73 511.12L286.03 511.12"
fill="none" stroke="black" stroke-width="0.5"/>
<path d="M736.2 511.12L756.5 511.12"
fill="none" stroke="black" stroke-width="0.5"/>
<path d="M30.5 354.29L50.8 354.29"
fill="none" stroke="black" stroke-width="0.5"/>
<path d="M500.97 354.29L521.27 354.29"
fill="none" stroke="black" stroke-width="0.5"/>
<path d="M265.73 197.47L286.03 197.47"
fill="none" stroke="black" stroke-width="0.5"/>
<path d="M736.2 197.47L756.5 197.47"
fill="none" stroke="black" stroke-width="0.5"/>
<path d="M30.5 589.53L50.8 589.53"
fill="none" stroke="black" stroke-width="0.5"/>
<path d="M500.97 589.53L521.27 589.53"
fill="none" stroke="black" stroke-width="0.5"/>
<path d="M265.73 432.71L286.03 432.71"
fill="none" stroke="black" stroke-width="0.5"/>
<path d="M736.2 432.71L756.5 432.71"
fill="none" stroke="black" stroke-width="0.5"/>
<path d="M30.5 275.88L50.8 275.88"
fill="none" stroke="black" stroke-width="0.5"/>
<path d="M500.97 275.88L521.27 275.88"
fill="none" stroke="black" stroke-width="0.5"/>
<path d="M265.73 119.06L286.03 119.06"
fill="none" stroke="black" stroke-width="0.5"/>
<path d="M736.2 119.06L756.5 119.06"
fill="none" stroke="black" stroke-width="0.5"/>
<path d="M707.15 482.06L707.15 461.76"
fill="none" stroke="black" stroke-width="0.5"/>
<path d="M707.15 168.41L707.15 148.12"
fill="none" stroke="black" stroke-width="0.5"/>
<path d="M471.91 638.88L471.91 618.59"
fill="none" stroke="black" stroke-width="0.5"/>
<path d="M471.91 325.24L471.91 304.94"
fill="none" stroke="black" stroke-width="0.5"/>
<path d="M236.68 482.06L236.68 461.76"
fill="none" stroke="black" stroke-width="0.5"/>
<path d="M236.68 168.41L236.68 148.12"
fill="none" stroke="black" stroke-width="0.5"/>
<path d="M1.44 638.88L1.44 618.59"
fill="none" stroke="black" stroke-width="0.5"/>
<path d="M1.44 325.24L1.44 304.94"
fill="none" stroke="black" stroke-width="0.5"/>
<path d="M785.56 482.06L785.56 461.76"
fill="none" stroke="black" stroke-width="0.5"/>
<path d="M785.56 168.41L785.56 148.12"
fill="none" stroke="black" stroke-width="0.5"/>
<path d="M550.32 638.88L550.32 618.59"
fill="none" stroke="black" stroke-width="0.5"/>
<path d="M550.32 325.24L550.32 304.94"
fill="none" stroke="black" stroke-width="0.5"/>
<path d="M315.09 482.06L315.09 461.76"
fill="none" stroke="black" stroke-width="0.5"/>
<path d="M315.09 168.41L315.09 148.12"
fill="none" stroke="black" stroke-width="0.5"/>
<path d="M79.85 638.88L79.85 618.59"
fill="none" stroke="black" stroke-width="0.5"/>
<path d="M79.85 325.24L79.85 304.94"
fill="none" stroke="black" stroke-width="0.5"/>
<path d="M521.27 667.94L539.76 657.37"
fill="none" stroke="black" stroke-width="0.5"/>
<path d="M756.5 511.12L774.99 500.55"
fill="none" stroke="black" stroke-width="0.5"/>
<path d="M50.8 667.94L69.29 657.37"
fill="none" stroke="black" stroke-width="0.5"/>
<path d="M286.03 511.12L304.52 500.55"
fill="none" stroke="black" stroke-width="0.5"/>
<path d="M521.27 354.29L539.76 343.73"
fill="none" stroke="black" stroke-width="0.5"/>
<path d="M756.5 197.47L774.99 186.91"
fill="none" stroke="black" stroke-width="0.5"/>
<path d="M50.8 354.29L69.29 343.73"
fill="none" stroke="black" stroke-width="0.5"/>
<path d="M286.03 197.47L304.52 186.91"
fill="none" stroke="black" stroke-width="0.5"/>
<path d="M79.85 325.24L69.29 343.73"
fill="none" stroke="black" stroke-width="0.5"/>
<path d="M315.09 168.41L304.52 186.91"
fill="none" stroke="black" stroke-width="0.5"/>
<path d="M79.85 638.88L69.29 657.37"
fill="none" stroke="black" stroke-width="0.5"/>
<path d="M315.09 482.06L304.52 500.55"
fill="none" stroke="black" stroke-width="0.5"/>
<path d="M550.32 325.24L539.76 343.73"
fill="none" stroke="black" stroke-width="0.5"/>
<path d="M785.56 168.41L774.99 186.91"
fill="none" stroke="black" stroke-width="0.5"/>
<path d="M550.32 638.88L539.76 657.37"
fill="none" stroke="black" stroke-width="0.5"/>
<path d="M785.56 482.06L774.99 500.55"
fill="none" stroke="black" stroke-width="0.5"/>
<path d="M785.56 148.12L774.99 129.63"
fill="none" stroke="black" stroke-width="0.5"/>
<path d="M785.56 461.76L774.99 443.27"
fill="none" stroke="black" stroke-width="0.5"/>
<path d="M550.32 304.94L539.76 286.45"
fill="none" stroke="black" stroke-width="0.5"/>
<path d="M315.09 148.12L304.52 129.63"
fill="none" stroke="black" stroke-width="0.5"/>
<path d="M550.32 618.59L539.76 600.09"
fill="none" stroke="black" stroke-width="0.5"/>
<path d="M315.09 461.76L304.52 443.27"
fill="none" stroke="black" stroke-width="0.5"/>
<path d="M79.85 304.94L69.29 286.45"
fill="none" stroke="black" stroke-width="0.5"/>
<path d="M79.85 618.59L69.29 600.09"
fill="none" stroke="black" stroke-width="0.5"/>
<path d="M50.8 589.53L69.29 600.09"
fill="none" stroke="black" stroke-width="0.5"/>
<path d="M521.27 589.53L539.76 600.09"
fill="none" stroke="black" stroke-width="0.5"/>
<path d="M286.03 432.71L304.52 443.27"
fill="none" stroke="black" stroke-width="0.5"/>
<path d="M50.8 275.88L69.29 286.45"
fill="none" stroke="black" stroke-width="0.5"/>
<path d="M756.5 432.71L774.99 443.27"
fill="none" stroke="black" stroke-width="0.5"/>
<path d="M521.27 275.88L539.76 286.45"
fill="none" stroke="black" stroke-width="0.5"/>
<path d="M286.03 119.06L304.52 129.63"
fill="none" stroke="black" stroke-width="0.5"/>
<path d="M756.5 119.06L774.99 129.63"
fill="none" stroke="black" stroke-width="0.5"/>
<path d="M265.73 119.06L247.24 129.63"
fill="none" stroke="black" stroke-width="0.5"/>
<path d="M30.5 275.88L12.01 286.45"
fill="none" stroke="black" stroke-width="0.5"/>
<path d="M736.2 119.06L717.71 129.63"
fill="none" stroke="black" stroke-width="0.5"/>
<path d="M500.97 275.88L482.48 286.45"
fill="none" stroke="black" stroke-width="0.5"/>
<path d="M265.73 432.71L247.24 443.27"
fill="none" stroke="black" stroke-width="0.5"/>
<path d="M30.5 589.53L12.01 600.09"
fill="none" stroke="black" stroke-width="0.5"/>
<path d="M736.2 432.71L717.71 443.27"
fill="none" stroke="black" stroke-width="0.5"/>
<path d="M500.97 589.53L482.48 600.09"
fill="none" stroke="black" stroke-width="0.5"/>
<path d="M707.15 461.76L717.71 443.27"
fill="none" stroke="black" stroke-width="0.5"/>
<path d="M471.91 618.59L482.48 600.09"
fill="none" stroke="black" stroke-width="0.5"/>
<path d="M707.15 148.12L717.71 129.63"
fill="none" stroke="black" stroke-width="0.5"/>
<path d="M471.91 304.94L482.48 286.45"
fill="none" stroke="black" stroke-width="0.5"/>
<path d="M236.68 461.76L247.24 443.27"
fill="none" stroke="black" stroke-width="0.5"/>
<path d="M1.44 618.59L12.01 600.09"
fill="none" stroke="black" stroke-width="0.5"/>
<path d="M236.68 148.12L247.24 129.63"
fill="none" stroke="black" stroke-width="0.5"/>
<path d="M1.44 304.94L12.01 286.45"
fill="none" stroke="black" stroke-width="0.5"/>
<path d="M1.44 638.88L12.01 657.37"
fill="none" stroke="black" stroke-width="0.5"/>
<path d="M1.44 325.24L12.01 343.73"
fill="none" stroke="black" stroke-width="0.5"/>
<path d="M236.68 482.06L247.24 500.55"
fill="none" stroke="black" stroke-width="0.5"/>
<path d="M471.91 638.88L482.48 657.37"
fill="none" stroke="black" stroke-width="0.5"/>
<path d="M236.68 168.41L247.24 186.91"
fill="none" stroke="black" stroke-width="0.5"/>
<path d="M471.91 325.24L482.48 343.73"
fill="none" stroke="black" stroke-width="0.5"/>
<path d="M707.15 482.06L717.71 500.55"
fill="none" stroke="black" stroke-width="0.5"/>
<path d="M707.15 168.41L717.71 186.91"
fill="none" stroke="black" stroke-width="0.5"/>
<path d="M736.2 197.47L717.71 186.91"
fill="none" stroke="black" stroke-width="0.5"/>
<path d="M265.73 197.47L247.24 186.91"
fill="none" stroke="black" stroke-width="0.5"/>
<path d="M500.97 354.29L482.48 343.73"
fill="none" stroke="black" stroke-width="0.5"/>
<path d="M736.2 511.12L717.71 500.55"
fill="none" stroke="black" stroke-width="0.5"/>
<path d="M30.5 354.29L12.01 343.73"
fill="none" stroke="black" stroke-width="0.5"/>
<path d="M265.73 511.12L247.24 500.55"
fill="none" stroke="black" stroke-width="0.5"/>
<path d="M500.97 667.94L482.48 657.37"
fill="none" stroke="black" stroke-width="0.5"/>
<path d="M30.5 667.94L12.01 657.37"
fill="none" stroke="black" stroke-width="0.5"/>
</svg>
