<?xml version="1.0" encoding="UTF-8"?>
<svg xmlns="http://www.w3.org/2000/svg" width="99.949mm" height="99.949mm" viewBox="0.0 0.0 787.000 787.000" preserveAspectRatio="none" version="1.1">
  <title>Produce by Acme CAD Converter</title>
  <desc>Produce by Acme CAD Converter</desc>
<path d="M55.42 677.23L81.59 677.23"
fill="none" stroke="black" stroke-width="0.5"/>
<path d="M488.75 677.23L514.91 677.23"
fill="none" stroke="black" stroke-width="0.5"/>
<path d="M272.09 532.78L298.25 532.78"
fill="none" stroke="black" stroke-width="0.5"/>
<path d="M705.41 532.78L731.58 532.78"
fill="none" stroke="black" stroke-width="0.5"/>
<path d="M55.42 388.34L81.59 388.34"
fill="none" stroke="black" stroke-width="0.5"/>
<path d="M488.75 388.34L514.91 388.34"
fill="none" stroke="black" stroke-width="0.5"/>
<path d="M272.09 243.9L298.25 243.9"
fill="none" stroke="black" stroke-width="0.5"/>
<path d="M705.41 243.9L731.58 243.9"
fill="none" stroke="black" stroke-width="0.5"/>
<path d="M55.42 543.1L81.59 543.1"
fill="none" stroke="black" stroke-width="0.5"/>
<path d="M488.75 543.1L514.91 543.1"
fill="none" stroke="black" stroke-width="0.5"/>
<path d="M272.09 398.66L298.25 398.66"
fill="none" stroke="black" stroke-width="0.5"/>
<path d="M705.41 398.66L731.58 398.66"
fill="none" stroke="black" stroke-width="0.5"/>
<path d="M55.42 254.22L81.59 254.22"
fill="none" stroke="black" stroke-width="0.5"/>
<path d="M488.75 254.22L514.91 254.22"
fill="none" stroke="black" stroke-width="0.5"/>
<path d="M272.09 109.77L298.25 109.77"
fill="none" stroke="black" stroke-width="0.5"/>
<path d="M705.41 109.77L731.58 109.77"
fill="none" stroke="black" stroke-width="0.5"/>
<path d="M651.43 478.8L651.43 452.64"
fill="none" stroke="black" stroke-width="0.5"/>
<path d="M651.43 189.92L651.43 163.75"
fill="none" stroke="black" stroke-width="0.5"/>
<path d="M434.77 623.25L434.77 597.08"
fill="none" stroke="black" stroke-width="0.5"/>
<path d="M434.77 334.36L434.77 308.2"
fill="none" stroke="black" stroke-width="0.5"/>
<path d="M218.11 478.8L218.11 452.64"
fill="none" stroke="black" stroke-width="0.5"/>
<path d="M218.11 189.92L218.11 163.75"
fill="none" stroke="black" stroke-width="0.5"/>
<path d="M1.44 623.25L1.44 597.08"
fill="none" stroke="black" stroke-width="0.5"/>
<path d="M1.44 334.36L1.44 308.2"
fill="none" stroke="black" stroke-width="0.5"/>
<path d="M785.56 478.8L785.56 452.64"
fill="none" stroke="black" stroke-width="0.5"/>
<path d="M785.56 189.92L785.56 163.75"
fill="none" stroke="black" stroke-width="0.5"/>
<path d="M568.89 623.25L568.89 597.08"
fill="none" stroke="black" stroke-width="0.5"/>
<path d="M568.89 334.36L568.89 308.2"
fill="none" stroke="black" stroke-width="0.5"/>
<path d="M352.23 478.8L352.23 452.64"
fill="none" stroke="black" stroke-width="0.5"/>
<path d="M352.23 189.92L352.23 163.75"
fill="none" stroke="black" stroke-width="0.5"/>
<path d="M135.57 623.25L135.57 597.08"
fill="none" stroke="black" stroke-width="0.5"/>
<path d="M135.57 334.36L135.57 308.2"
fill="none" stroke="black" stroke-width="0.5"/>
<path d="M755.18 523.34L776.11 502.41"
fill="none" stroke="black" stroke-width="0.5"/>
<path d="M538.52 667.78L559.45 646.85"
fill="none" stroke="black" stroke-width="0.5"/>
<path d="M755.18 234.46L776.11 213.52"
fill="none" stroke="black" stroke-width="0.5"/>
<path d="M538.52 378.9L559.45 357.96"
fill="none" stroke="black" stroke-width="0.5"/>
<path d="M321.85 523.34L342.79 502.41"
fill="none" stroke="black" stroke-width="0.5"/>
<path d="M105.19 667.78L126.13 646.85"
fill="none" stroke="black" stroke-width="0.5"/>
<path d="M321.85 234.46L342.79 213.52"
fill="none" stroke="black" stroke-width="0.5"/>
<path d="M105.19 378.9L126.13 357.96"
fill="none" stroke="black" stroke-width="0.5"/>
<path d="M105.19 552.54L126.13 573.48"
fill="none" stroke="black" stroke-width="0.5"/>
<path d="M105.19 263.66L126.13 284.59"
fill="none" stroke="black" stroke-width="0.5"/>
<path d="M321.85 408.1L342.79 429.04"
fill="none" stroke="black" stroke-width="0.5"/>
<path d="M538.52 552.54L559.45 573.48"
fill="none" stroke="black" stroke-width="0.5"/>
<path d="M321.85 119.22L342.79 140.15"
fill="none" stroke="black" stroke-width="0.5"/>
<path d="M538.52 263.66L559.45 284.59"
fill="none" stroke="black" stroke-width="0.5"/>
<path d="M755.18 408.1L776.11 429.04"
fill="none" stroke="black" stroke-width="0.5"/>
<path d="M755.18 119.22L776.11 140.15"
fill="none" stroke="black" stroke-width="0.5"/>
<path d="M31.82 263.66L10.89 284.59"
fill="none" stroke="black" stroke-width="0.5"/>
<path d="M248.48 119.22L227.55 140.15"
fill="none" stroke="black" stroke-width="0.5"/>
<path d="M31.82 552.54L10.89 573.48"
fill="none" stroke="black" stroke-width="0.5"/>
<path d="M248.48 408.1L227.55 429.04"
fill="none" stroke="black" stroke-width="0.5"/>
<path d="M465.15 263.66L444.21 284.59"
fill="none" stroke="black" stroke-width="0.5"/>
<path d="M681.81 119.22L660.87 140.15"
fill="none" stroke="black" stroke-width="0.5"/>
<path d="M465.15 552.54L444.21 573.48"
fill="none" stroke="black" stroke-width="0.5"/>
<path d="M681.81 408.1L660.87 429.04"
fill="none" stroke="black" stroke-width="0.5"/>
<path d="M681.81 234.46L660.87 213.52"
fill="none" stroke="black" stroke-width="0.5"/>
<path d="M681.81 523.34L660.87 502.41"
fill="none" stroke="black" stroke-width="0.5"/>
<path d="M465.15 378.9L444.21 357.96"
fill="none" stroke="black" stroke-width="0.5"/>
<path d="M248.48 234.46L227.55 213.52"
fill="none" stroke="black" stroke-width="0.5"/>
<path d="M465.15 667.78L444.21 646.85"
fill="none" stroke="black" stroke-width="0.5"/>
<path d="M248.48 523.34L227.55 502.41"
fill="none" stroke="black" stroke-width="0.5"/>
<path d="M31.82 378.9L10.89 357.96"
fill="none" stroke="black" stroke-width="0.5"/>
<path d="M31.82 667.78L10.89 646.85"
fill="none" stroke="black" stroke-width="0.5"/>
<path d="M514.91 677.23L538.52 667.78"
fill="none" stroke="black" stroke-width="0.5"/>
<path d="M731.58 532.78L755.18 523.34"
fill="none" stroke="black" stroke-width="0.5"/>
<path d="M81.59 677.23L105.19 667.78"
fill="none" stroke="black" stroke-width="0.5"/>
<path d="M298.25 532.78L321.85 523.34"
fill="none" stroke="black" stroke-width="0.5"/>
<path d="M514.91 388.34L538.52 378.9"
fill="none" stroke="black" stroke-width="0.5"/>
<path d="M731.58 243.9L755.18 234.46"
fill="none" stroke="black" stroke-width="0.5"/>
<path d="M81.59 388.34L105.19 378.9"
fill="none" stroke="black" stroke-width="0.5"/>
<path d="M298.25 243.9L321.85 234.46"
fill="none" stroke="black" stroke-width="0.5"/>
<path d="M135.57 334.36L126.13 357.96"
fill="none" stroke="black" stroke-width="0.5"/>
<path d="M135.57 623.25L126.13 646.85"
fill="none" stroke="black" stroke-width="0.5"/>
<path d="M352.23 189.92L342.79 213.52"
fill="none" stroke="black" stroke-width="0.5"/>
<path d="M352.23 478.8L342.79 502.41"
fill="none" stroke="black" stroke-width="0.5"/>
<path d="M568.89 334.36L559.45 357.96"
fill="none" stroke="black" stroke-width="0.5"/>
<path d="M568.89 623.25L559.45 646.85"
fill="none" stroke="black" stroke-width="0.5"/>
<path d="M785.56 189.92L776.11 213.52"
fill="none" stroke="black" stroke-width="0.5"/>
<path d="M785.56 478.8L776.11 502.41"
fill="none" stroke="black" stroke-width="0.5"/>
<path d="M785.56 163.75L776.11 140.15"
fill="none" stroke="black" stroke-width="0.5"/>
<path d="M785.56 452.64L776.11 429.04"
fill="none" stroke="black" stroke-width="0.5"/>
<path d="M568.89 308.2L559.45 284.59"
fill="none" stroke="black" stroke-width="0.5"/>
<path d="M568.89 597.08L559.45 573.48"
fill="none" stroke="black" stroke-width="0.5"/>
<path d="M352.23 163.75L342.79 140.15"
fill="none" stroke="black" stroke-width="0.5"/>
<path d="M352.23 452.64L342.79 429.04"
fill="none" stroke="black" stroke-width="0.5"/>
<path d="M135.57 308.2L126.13 284.59"
fill="none" stroke="black" stroke-width="0.5"/>
<path d="M135.57 597.08L126.13 573.48"
fill="none" stroke="black" stroke-width="0.5"/>
<path d="M81.59 543.1L105.19 552.54"
fill="none" stroke="black" stroke-width="0.5"/>
<path d="M514.91 543.1L538.52 552.54"
fill="none" stroke="black" stroke-width="0.5"/>
<path d="M298.25 398.66L321.85 408.1"
fill="none" stroke="black" stroke-width="0.5"/>
<path d="M81.59 254.22L105.19 263.66"
fill="none" stroke="black" stroke-width="0.5"/>
<path d="M731.58 398.66L755.18 408.1"
fill="none" stroke="black" stroke-width="0.5"/>
<path d="M514.91 254.22L538.52 263.66"
fill="none" stroke="black" stroke-width="0.5"/>
<path d="M298.25 109.77L321.85 119.22"
fill="none" stroke="black" stroke-width="0.5"/>
<path d="M731.58 109.77L755.18 119.22"
fill="none" stroke="black" stroke-width="0.5"/>
<path d="M272.09 109.77L248.48 119.22"
fill="none" stroke="black" stroke-width="0.5"/>
<path d="M55.42 254.22L31.82 263.66"
fill="none" stroke="black" stroke-width="0.5"/>
<path d="M705.41 109.78L681.81 119.22"
fill="none" stroke="black" stroke-width="0.5"/>
<path d="M488.75 254.22L465.15 263.66"
fill="none" stroke="black" stroke-width="0.5"/>
<path d="M272.09 398.66L248.48 408.1"
fill="none" stroke="black" stroke-width="0.5"/>
<path d="M55.42 543.1L31.82 552.54"
fill="none" stroke="black" stroke-width="0.5"/>
<path d="M705.41 398.66L681.81 408.11"
fill="none" stroke="black" stroke-width="0.5"/>
<path d="M488.75 543.1L465.15 552.54"
fill="none" stroke="black" stroke-width="0.5"/>
<path d="M651.43 452.63L660.87 429.03"
fill="none" stroke="black" stroke-width="0.5"/>
<path d="M651.43 163.75L660.87 140.15"
fill="none" stroke="black" stroke-width="0.5"/>
<path d="M434.77 597.08L444.21 573.47"
fill="none" stroke="black" stroke-width="0.5"/>
<path d="M434.77 308.19L444.21 284.59"
fill="none" stroke="black" stroke-width="0.5"/>
<path d="M218.11 452.63L227.54 429.03"
fill="none" stroke="black" stroke-width="0.5"/>
<path d="M218.1 163.75L227.54 140.15"
fill="none" stroke="black" stroke-width="0.5"/>
<path d="M1.44 597.08L10.88 573.47"
fill="none" stroke="black" stroke-width="0.5"/>
<path d="M1.44 308.2L10.88 284.59"
fill="none" stroke="black" stroke-width="0.5"/>
<path d="M1.44 623.25L10.89 646.85"
fill="none" stroke="black" stroke-width="0.5"/>
<path d="M1.44 334.36L10.89 357.97"
fill="none" stroke="black" stroke-width="0.5"/>
<path d="M218.11 478.81L227.55 502.41"
fill="none" stroke="black" stroke-width="0.5"/>
<path d="M218.11 189.92L227.55 213.53"
fill="none" stroke="black" stroke-width="0.5"/>
<path d="M434.77 623.25L444.21 646.85"
fill="none" stroke="black" stroke-width="0.5"/>
<path d="M434.77 334.37L444.21 357.97"
fill="none" stroke="black" stroke-width="0.5"/>
<path d="M651.43 478.81L660.87 502.41"
fill="none" stroke="black" stroke-width="0.5"/>
<path d="M651.44 189.92L660.87 213.53"
fill="none" stroke="black" stroke-width="0.5"/>
<path d="M705.41 243.9L681.81 234.45"
fill="none" stroke="black" stroke-width="0.5"/>
<path d="M272.08 243.9L248.48 234.46"
fill="none" stroke="black" stroke-width="0.5"/>
<path d="M488.75 388.34L465.14 378.9"
fill="none" stroke="black" stroke-width="0.5"/>
<path d="M705.41 532.78L681.81 523.34"
fill="none" stroke="black" stroke-width="0.5"/>
<path d="M55.42 388.34L31.82 378.9"
fill="none" stroke="black" stroke-width="0.5"/>
<path d="M272.08 532.78L248.48 523.34"
fill="none" stroke="black" stroke-width="0.5"/>
<path d="M488.75 677.22L465.15 667.78"
fill="none" stroke="black" stroke-width="0.5"/>
<path d="M55.42 677.23L31.82 667.78"
fill="none" stroke="black" stroke-width="0.5"/>
</svg>
