<?xml version="1.0" encoding="UTF-8"?>
<svg xmlns="http://www.w3.org/2000/svg" width="99.949mm" height="99.949mm" viewBox="0.0 0.0 787.000 787.000" preserveAspectRatio="none" version="1.1">
  <title>Produce by Acme CAD Converter</title>
  <desc>Produce by Acme CAD Converter</desc>
<path d="M42.95 785.56L71.95 785.56"
fill="none" stroke="black" stroke-width="0.5"/>
<path d="M491.02 785.56L520.01 785.56"
fill="none" stroke="black" stroke-width="0.5"/>
<path d="M266.99 561.52L295.98 561.52"
fill="none" stroke="black" stroke-width="0.5"/>
<path d="M715.05 561.52L744.05 561.52"
fill="none" stroke="black" stroke-width="0.5"/>
<path d="M42.95 337.49L71.95 337.49"
fill="none" stroke="black" stroke-width="0.5"/>
<path d="M491.02 337.49L520.01 337.49"
fill="none" stroke="black" stroke-width="0.5"/>
<path d="M266.99 113.46L295.98 113.46"
fill="none" stroke="black" stroke-width="0.5"/>
<path d="M715.05 113.46L744.05 113.46"
fill="none" stroke="black" stroke-width="0.5"/>
<path d="M42.95 673.54L71.95 673.54"
fill="none" stroke="black" stroke-width="0.5"/>
<path d="M491.02 673.54L520.01 673.54"
fill="none" stroke="black" stroke-width="0.5"/>
<path d="M266.99 449.51L295.98 449.51"
fill="none" stroke="black" stroke-width="0.5"/>
<path d="M715.05 449.51L744.05 449.51"
fill="none" stroke="black" stroke-width="0.5"/>
<path d="M42.95 225.48L71.95 225.48"
fill="none" stroke="black" stroke-width="0.5"/>
<path d="M491.02 225.48L520.01 225.48"
fill="none" stroke="black" stroke-width="0.5"/>
<path d="M266.99 1.44L295.98 1.44"
fill="none" stroke="black" stroke-width="0.5"/>
<path d="M715.05 1.44L744.05 1.44"
fill="none" stroke="black" stroke-width="0.5"/>
<path d="M673.54 520.01L673.54 491.02"
fill="none" stroke="black" stroke-width="0.5"/>
<path d="M673.54 71.95L673.54 42.95"
fill="none" stroke="black" stroke-width="0.5"/>
<path d="M449.51 744.05L449.51 715.05"
fill="none" stroke="black" stroke-width="0.5"/>
<path d="M449.51 295.98L449.51 266.99"
fill="none" stroke="black" stroke-width="0.5"/>
<path d="M225.48 520.01L225.48 491.02"
fill="none" stroke="black" stroke-width="0.5"/>
<path d="M225.48 71.95L225.48 42.95"
fill="none" stroke="black" stroke-width="0.5"/>
<path d="M1.44 744.05L1.44 715.05"
fill="none" stroke="black" stroke-width="0.5"/>
<path d="M1.44 295.98L1.44 266.99"
fill="none" stroke="black" stroke-width="0.5"/>
<path d="M785.56 520.01L785.56 491.02"
fill="none" stroke="black" stroke-width="0.5"/>
<path d="M785.56 71.95L785.56 42.95"
fill="none" stroke="black" stroke-width="0.5"/>
<path d="M561.52 744.05L561.52 715.05"
fill="none" stroke="black" stroke-width="0.5"/>
<path d="M561.52 295.98L561.52 266.99"
fill="none" stroke="black" stroke-width="0.5"/>
<path d="M337.49 520.01L337.49 491.02"
fill="none" stroke="black" stroke-width="0.5"/>
<path d="M337.49 71.95L337.49 42.95"
fill="none" stroke="black" stroke-width="0.5"/>
<path d="M113.46 744.05L113.46 715.05"
fill="none" stroke="black" stroke-width="0.5"/>
<path d="M113.46 295.98L113.46 266.99"
fill="none" stroke="black" stroke-width="0.5"/>
<path d="M520.01 785.56L546.43 770.46"
fill="none" stroke="black" stroke-width="0.5"/>
<path d="M744.05 561.52L770.46 546.43"
fill="none" stroke="black" stroke-width="0.5"/>
<path d="M71.95 785.56L98.37 770.46"
fill="none" stroke="black" stroke-width="0.5"/>
<path d="M295.98 561.52L322.4 546.43"
fill="none" stroke="black" stroke-width="0.5"/>
<path d="M520.01 337.49L546.43 322.4"
fill="none" stroke="black" stroke-width="0.5"/>
<path d="M744.05 113.46L770.46 98.37"
fill="none" stroke="black" stroke-width="0.5"/>
<path d="M71.95 337.49L98.37 322.4"
fill="none" stroke="black" stroke-width="0.5"/>
<path d="M295.98 113.46L322.4 98.37"
fill="none" stroke="black" stroke-width="0.5"/>
<path d="M113.46 295.98L98.37 322.4"
fill="none" stroke="black" stroke-width="0.5"/>
<path d="M337.49 71.95L322.4 98.37"
fill="none" stroke="black" stroke-width="0.5"/>
<path d="M113.46 744.05L98.37 770.46"
fill="none" stroke="black" stroke-width="0.5"/>
<path d="M337.49 520.01L322.4 546.43"
fill="none" stroke="black" stroke-width="0.5"/>
<path d="M561.52 295.98L546.43 322.4"
fill="none" stroke="black" stroke-width="0.5"/>
<path d="M785.56 71.95L770.46 98.37"
fill="none" stroke="black" stroke-width="0.5"/>
<path d="M561.52 744.05L546.43 770.46"
fill="none" stroke="black" stroke-width="0.5"/>
<path d="M785.56 520.01L770.46 546.43"
fill="none" stroke="black" stroke-width="0.5"/>
<path d="M785.56 42.95L770.46 16.54"
fill="none" stroke="black" stroke-width="0.5"/>
<path d="M785.56 491.02L770.46 464.6"
fill="none" stroke="black" stroke-width="0.5"/>
<path d="M561.52 266.99L546.43 240.57"
fill="none" stroke="black" stroke-width="0.5"/>
<path d="M337.49 42.95L322.4 16.54"
fill="none" stroke="black" stroke-width="0.5"/>
<path d="M561.52 715.05L546.43 688.63"
fill="none" stroke="black" stroke-width="0.5"/>
<path d="M337.49 491.02L322.4 464.6"
fill="none" stroke="black" stroke-width="0.5"/>
<path d="M113.46 266.99L98.37 240.57"
fill="none" stroke="black" stroke-width="0.5"/>
<path d="M113.46 715.05L98.37 688.63"
fill="none" stroke="black" stroke-width="0.5"/>
<path d="M71.95 673.54L98.37 688.63"
fill="none" stroke="black" stroke-width="0.5"/>
<path d="M520.01 673.54L546.43 688.63"
fill="none" stroke="black" stroke-width="0.5"/>
<path d="M295.98 449.51L322.4 464.6"
fill="none" stroke="black" stroke-width="0.5"/>
<path d="M71.95 225.48L98.37 240.57"
fill="none" stroke="black" stroke-width="0.5"/>
<path d="M744.05 449.51L770.46 464.6"
fill="none" stroke="black" stroke-width="0.5"/>
<path d="M520.01 225.48L546.43 240.57"
fill="none" stroke="black" stroke-width="0.5"/>
<path d="M295.98 1.44L322.4 16.54"
fill="none" stroke="black" stroke-width="0.5"/>
<path d="M744.05 1.44L770.46 16.54"
fill="none" stroke="black" stroke-width="0.5"/>
<path d="M266.99 1.44L240.57 16.54"
fill="none" stroke="black" stroke-width="0.5"/>
<path d="M42.95 225.48L16.54 240.57"
fill="none" stroke="black" stroke-width="0.5"/>
<path d="M715.05 1.44L688.63 16.54"
fill="none" stroke="black" stroke-width="0.5"/>
<path d="M491.02 225.48L464.6 240.57"
fill="none" stroke="black" stroke-width="0.5"/>
<path d="M266.99 449.51L240.57 464.6"
fill="none" stroke="black" stroke-width="0.5"/>
<path d="M42.95 673.54L16.54 688.63"
fill="none" stroke="black" stroke-width="0.5"/>
<path d="M715.05 449.51L688.63 464.6"
fill="none" stroke="black" stroke-width="0.5"/>
<path d="M491.02 673.54L464.6 688.63"
fill="none" stroke="black" stroke-width="0.5"/>
<path d="M673.54 491.02L688.63 464.6"
fill="none" stroke="black" stroke-width="0.5"/>
<path d="M449.51 715.05L464.6 688.63"
fill="none" stroke="black" stroke-width="0.5"/>
<path d="M673.54 42.95L688.63 16.54"
fill="none" stroke="black" stroke-width="0.5"/>
<path d="M449.51 266.99L464.6 240.57"
fill="none" stroke="black" stroke-width="0.5"/>
<path d="M225.48 491.02L240.57 464.6"
fill="none" stroke="black" stroke-width="0.5"/>
<path d="M1.44 715.05L16.54 688.63"
fill="none" stroke="black" stroke-width="0.5"/>
<path d="M225.48 42.95L240.57 16.54"
fill="none" stroke="black" stroke-width="0.5"/>
<path d="M1.44 266.99L16.54 240.57"
fill="none" stroke="black" stroke-width="0.5"/>
<path d="M1.44 744.05L16.54 770.46"
fill="none" stroke="black" stroke-width="0.5"/>
<path d="M1.44 295.98L16.54 322.4"
fill="none" stroke="black" stroke-width="0.5"/>
<path d="M225.48 520.01L240.57 546.43"
fill="none" stroke="black" stroke-width="0.5"/>
<path d="M449.51 744.05L464.6 770.46"
fill="none" stroke="black" stroke-width="0.5"/>
<path d="M225.48 71.95L240.57 98.37"
fill="none" stroke="black" stroke-width="0.5"/>
<path d="M449.51 295.98L464.6 322.4"
fill="none" stroke="black" stroke-width="0.5"/>
<path d="M673.54 520.01L688.63 546.43"
fill="none" stroke="black" stroke-width="0.5"/>
<path d="M673.54 71.95L688.63 98.37"
fill="none" stroke="black" stroke-width="0.5"/>
<path d="M715.05 113.46L688.63 98.37"
fill="none" stroke="black" stroke-width="0.5"/>
<path d="M266.99 113.46L240.57 98.37"
fill="none" stroke="black" stroke-width="0.5"/>
<path d="M491.02 337.49L464.6 322.4"
fill="none" stroke="black" stroke-width="0.5"/>
<path d="M715.05 561.52L688.63 546.43"
fill="none" stroke="black" stroke-width="0.5"/>
<path d="M42.95 337.49L16.54 322.4"
fill="none" stroke="black" stroke-width="0.5"/>
<path d="M266.99 561.52L240.57 546.43"
fill="none" stroke="black" stroke-width="0.5"/>
<path d="M491.02 785.56L464.6 770.46"
fill="none" stroke="black" stroke-width="0.5"/>
<path d="M42.95 785.56L16.54 770.46"
fill="none" stroke="black" stroke-width="0.5"/>
</svg>
