<?xml version="1.0" encoding="UTF-8"?>
<svg xmlns="http://www.w3.org/2000/svg" width="99.949mm" height="99.949mm" viewBox="0.0 0.0 787.000 787.000" preserveAspectRatio="none" version="1.1">
  <title>Produce by Acme CAD Converter</title>
  <desc>Produce by Acme CAD Converter</desc>
<path d="M16.76 785.56L38.4 785.56"
fill="none" stroke="black" stroke-width="0.5"/>
<path d="M504.65 785.56L526.3 785.56"
fill="none" stroke="black" stroke-width="0.5"/>
<path d="M260.7 541.61L282.35 541.61"
fill="none" stroke="black" stroke-width="0.5"/>
<path d="M748.6 541.61L770.24 541.61"
fill="none" stroke="black" stroke-width="0.5"/>
<path d="M16.76 297.66L38.4 297.66"
fill="none" stroke="black" stroke-width="0.5"/>
<path d="M504.65 297.66L526.3 297.66"
fill="none" stroke="black" stroke-width="0.5"/>
<path d="M260.7 53.72L282.35 53.72"
fill="none" stroke="black" stroke-width="0.5"/>
<path d="M748.6 53.72L770.24 53.72"
fill="none" stroke="black" stroke-width="0.5"/>
<path d="M16.76 733.28L38.4 733.28"
fill="none" stroke="black" stroke-width="0.5"/>
<path d="M504.65 733.28L526.3 733.28"
fill="none" stroke="black" stroke-width="0.5"/>
<path d="M260.7 489.34L282.35 489.34"
fill="none" stroke="black" stroke-width="0.5"/>
<path d="M748.6 489.34L770.24 489.34"
fill="none" stroke="black" stroke-width="0.5"/>
<path d="M16.76 245.39L38.4 245.39"
fill="none" stroke="black" stroke-width="0.5"/>
<path d="M504.65 245.39L526.3 245.39"
fill="none" stroke="black" stroke-width="0.5"/>
<path d="M260.7 1.44L282.35 1.44"
fill="none" stroke="black" stroke-width="0.5"/>
<path d="M748.6 1.44L770.24 1.44"
fill="none" stroke="black" stroke-width="0.5"/>
<path d="M733.28 526.3L733.28 504.65"
fill="none" stroke="black" stroke-width="0.5"/>
<path d="M733.28 38.4L733.28 16.76"
fill="none" stroke="black" stroke-width="0.5"/>
<path d="M489.34 770.24L489.34 748.6"
fill="none" stroke="black" stroke-width="0.5"/>
<path d="M489.34 282.35L489.34 260.7"
fill="none" stroke="black" stroke-width="0.5"/>
<path d="M245.39 526.3L245.39 504.65"
fill="none" stroke="black" stroke-width="0.5"/>
<path d="M245.39 38.4L245.39 16.76"
fill="none" stroke="black" stroke-width="0.5"/>
<path d="M1.44 770.24L1.44 748.6"
fill="none" stroke="black" stroke-width="0.5"/>
<path d="M1.44 282.35L1.44 260.7"
fill="none" stroke="black" stroke-width="0.5"/>
<path d="M785.56 526.3L785.56 504.65"
fill="none" stroke="black" stroke-width="0.5"/>
<path d="M785.56 38.4L785.56 16.76"
fill="none" stroke="black" stroke-width="0.5"/>
<path d="M541.61 770.24L541.61 748.6"
fill="none" stroke="black" stroke-width="0.5"/>
<path d="M541.61 282.35L541.61 260.7"
fill="none" stroke="black" stroke-width="0.5"/>
<path d="M297.66 526.3L297.66 504.65"
fill="none" stroke="black" stroke-width="0.5"/>
<path d="M297.66 38.4L297.66 16.76"
fill="none" stroke="black" stroke-width="0.5"/>
<path d="M53.72 770.24L53.72 748.6"
fill="none" stroke="black" stroke-width="0.5"/>
<path d="M53.72 282.35L53.72 260.7"
fill="none" stroke="black" stroke-width="0.5"/>
<path d="M526.3 785.56L541.61 770.24"
fill="none" stroke="black" stroke-width="0.5"/>
<path d="M770.24 541.61L785.56 526.3"
fill="none" stroke="black" stroke-width="0.5"/>
<path d="M38.4 785.56L53.72 770.24"
fill="none" stroke="black" stroke-width="0.5"/>
<path d="M282.35 541.61L297.66 526.3"
fill="none" stroke="black" stroke-width="0.5"/>
<path d="M526.3 297.66L541.61 282.35"
fill="none" stroke="black" stroke-width="0.5"/>
<path d="M770.24 53.72L785.56 38.4"
fill="none" stroke="black" stroke-width="0.5"/>
<path d="M38.4 297.66L53.72 282.35"
fill="none" stroke="black" stroke-width="0.5"/>
<path d="M282.35 53.72L297.66 38.4"
fill="none" stroke="black" stroke-width="0.5"/>
<path d="M38.4 733.28L53.72 748.6"
fill="none" stroke="black" stroke-width="0.5"/>
<path d="M38.4 245.39L53.72 260.7"
fill="none" stroke="black" stroke-width="0.5"/>
<path d="M282.35 489.34L297.66 504.65"
fill="none" stroke="black" stroke-width="0.5"/>
<path d="M526.3 733.28L541.61 748.6"
fill="none" stroke="black" stroke-width="0.5"/>
<path d="M282.35 1.44L297.66 16.76"
fill="none" stroke="black" stroke-width="0.5"/>
<path d="M526.3 245.39L541.61 260.7"
fill="none" stroke="black" stroke-width="0.5"/>
<path d="M770.24 489.34L785.56 504.65"
fill="none" stroke="black" stroke-width="0.5"/>
<path d="M770.24 1.44L785.56 16.76"
fill="none" stroke="black" stroke-width="0.5"/>
<path d="M260.7 1.44L245.39 16.76"
fill="none" stroke="black" stroke-width="0.5"/>
<path d="M16.76 245.39L1.44 260.7"
fill="none" stroke="black" stroke-width="0.5"/>
<path d="M748.6 1.44L733.28 16.76"
fill="none" stroke="black" stroke-width="0.5"/>
<path d="M504.65 245.39L489.34 260.7"
fill="none" stroke="black" stroke-width="0.5"/>
<path d="M260.7 489.34L245.39 504.65"
fill="none" stroke="black" stroke-width="0.5"/>
<path d="M16.76 733.28L1.44 748.6"
fill="none" stroke="black" stroke-width="0.5"/>
<path d="M748.6 489.34L733.28 504.65"
fill="none" stroke="black" stroke-width="0.5"/>
<path d="M504.65 733.28L489.34 748.6"
fill="none" stroke="black" stroke-width="0.5"/>
<path d="M748.6 53.72L733.28 38.4"
fill="none" stroke="black" stroke-width="0.5"/>
<path d="M748.6 541.61L733.28 526.3"
fill="none" stroke="black" stroke-width="0.5"/>
<path d="M504.65 297.66L489.34 282.35"
fill="none" stroke="black" stroke-width="0.5"/>
<path d="M260.7 53.72L245.39 38.4"
fill="none" stroke="black" stroke-width="0.5"/>
<path d="M504.65 785.56L489.34 770.24"
fill="none" stroke="black" stroke-width="0.5"/>
<path d="M260.7 541.61L245.39 526.3"
fill="none" stroke="black" stroke-width="0.5"/>
<path d="M16.76 297.66L1.44 282.35"
fill="none" stroke="black" stroke-width="0.5"/>
<path d="M16.76 785.56L1.44 770.24"
fill="none" stroke="black" stroke-width="0.5"/>
</svg>
