<?xml version="1.0" encoding="UTF-8"?>
<svg xmlns="http://www.w3.org/2000/svg" width="99.949mm" height="99.949mm" viewBox="0.0 0.0 787.000 787.000" preserveAspectRatio="none" version="1.1">
  <title>Produce by Acme CAD Converter</title>
  <desc>Produce by Acme CAD Converter</desc>
<path d="M22.94 770.62L32.22 770.62"
fill="none" stroke="black" stroke-width="0.5"/>
<path d="M441.14 770.62L450.41 770.62"
fill="none" stroke="black" stroke-width="0.5"/>
<path d="M127.49 666.07L136.77 666.07"
fill="none" stroke="black" stroke-width="0.5"/>
<path d="M545.68 666.07L554.96 666.07"
fill="none" stroke="black" stroke-width="0.5"/>
<path d="M232.04 561.52L241.32 561.52"
fill="none" stroke="black" stroke-width="0.5"/>
<path d="M650.23 561.52L659.51 561.52"
fill="none" stroke="black" stroke-width="0.5"/>
<path d="M336.59 456.98L345.86 456.98"
fill="none" stroke="black" stroke-width="0.5"/>
<path d="M754.78 456.98L764.06 456.98"
fill="none" stroke="black" stroke-width="0.5"/>
<path d="M22.94 352.43L32.22 352.43"
fill="none" stroke="black" stroke-width="0.5"/>
<path d="M441.14 352.43L450.41 352.43"
fill="none" stroke="black" stroke-width="0.5"/>
<path d="M127.49 247.88L136.77 247.88"
fill="none" stroke="black" stroke-width="0.5"/>
<path d="M545.68 247.88L554.96 247.88"
fill="none" stroke="black" stroke-width="0.5"/>
<path d="M232.04 143.33L241.32 143.33"
fill="none" stroke="black" stroke-width="0.5"/>
<path d="M650.23 143.33L659.51 143.33"
fill="none" stroke="black" stroke-width="0.5"/>
<path d="M336.59 38.78L345.86 38.78"
fill="none" stroke="black" stroke-width="0.5"/>
<path d="M754.78 38.78L764.06 38.78"
fill="none" stroke="black" stroke-width="0.5"/>
<path d="M22.94 748.22L32.22 748.22"
fill="none" stroke="black" stroke-width="0.5"/>
<path d="M441.14 748.22L450.41 748.22"
fill="none" stroke="black" stroke-width="0.5"/>
<path d="M127.49 643.67L136.77 643.67"
fill="none" stroke="black" stroke-width="0.5"/>
<path d="M545.68 643.67L554.96 643.67"
fill="none" stroke="black" stroke-width="0.5"/>
<path d="M232.04 539.12L241.32 539.12"
fill="none" stroke="black" stroke-width="0.5"/>
<path d="M650.23 539.12L659.51 539.12"
fill="none" stroke="black" stroke-width="0.5"/>
<path d="M336.59 434.57L345.86 434.57"
fill="none" stroke="black" stroke-width="0.5"/>
<path d="M754.78 434.57L764.06 434.57"
fill="none" stroke="black" stroke-width="0.5"/>
<path d="M22.94 330.02L32.22 330.02"
fill="none" stroke="black" stroke-width="0.5"/>
<path d="M441.14 330.02L450.41 330.02"
fill="none" stroke="black" stroke-width="0.5"/>
<path d="M127.49 225.48L136.77 225.48"
fill="none" stroke="black" stroke-width="0.5"/>
<path d="M545.68 225.48L554.96 225.48"
fill="none" stroke="black" stroke-width="0.5"/>
<path d="M232.04 120.93L241.32 120.93"
fill="none" stroke="black" stroke-width="0.5"/>
<path d="M650.23 120.93L659.51 120.93"
fill="none" stroke="black" stroke-width="0.5"/>
<path d="M336.59 16.38L345.86 16.38"
fill="none" stroke="black" stroke-width="0.5"/>
<path d="M754.78 16.38L764.06 16.38"
fill="none" stroke="black" stroke-width="0.5"/>
<path d="M748.22 450.41L748.22 441.14"
fill="none" stroke="black" stroke-width="0.5"/>
<path d="M748.22 32.22L748.22 22.94"
fill="none" stroke="black" stroke-width="0.5"/>
<path d="M643.67 554.96L643.67 545.68"
fill="none" stroke="black" stroke-width="0.5"/>
<path d="M643.67 136.77L643.67 127.49"
fill="none" stroke="black" stroke-width="0.5"/>
<path d="M539.12 659.51L539.12 650.23"
fill="none" stroke="black" stroke-width="0.5"/>
<path d="M539.12 241.32L539.12 232.04"
fill="none" stroke="black" stroke-width="0.5"/>
<path d="M434.57 764.06L434.57 754.78"
fill="none" stroke="black" stroke-width="0.5"/>
<path d="M434.57 345.86L434.57 336.59"
fill="none" stroke="black" stroke-width="0.5"/>
<path d="M330.02 450.41L330.02 441.14"
fill="none" stroke="black" stroke-width="0.5"/>
<path d="M330.02 32.22L330.02 22.94"
fill="none" stroke="black" stroke-width="0.5"/>
<path d="M225.48 554.96L225.48 545.68"
fill="none" stroke="black" stroke-width="0.5"/>
<path d="M225.48 136.77L225.48 127.49"
fill="none" stroke="black" stroke-width="0.5"/>
<path d="M120.93 659.51L120.93 650.23"
fill="none" stroke="black" stroke-width="0.5"/>
<path d="M120.93 241.32L120.93 232.04"
fill="none" stroke="black" stroke-width="0.5"/>
<path d="M16.38 764.06L16.38 754.78"
fill="none" stroke="black" stroke-width="0.5"/>
<path d="M16.38 345.86L16.38 336.59"
fill="none" stroke="black" stroke-width="0.5"/>
<path d="M770.62 450.41L770.62 441.14"
fill="none" stroke="black" stroke-width="0.5"/>
<path d="M770.62 32.22L770.62 22.94"
fill="none" stroke="black" stroke-width="0.5"/>
<path d="M666.07 554.96L666.07 545.68"
fill="none" stroke="black" stroke-width="0.5"/>
<path d="M666.07 136.77L666.07 127.49"
fill="none" stroke="black" stroke-width="0.5"/>
<path d="M561.52 659.51L561.52 650.23"
fill="none" stroke="black" stroke-width="0.5"/>
<path d="M561.52 241.32L561.52 232.04"
fill="none" stroke="black" stroke-width="0.5"/>
<path d="M456.98 764.06L456.98 754.78"
fill="none" stroke="black" stroke-width="0.5"/>
<path d="M456.98 345.86L456.98 336.59"
fill="none" stroke="black" stroke-width="0.5"/>
<path d="M352.43 450.41L352.43 441.14"
fill="none" stroke="black" stroke-width="0.5"/>
<path d="M352.43 32.22L352.43 22.94"
fill="none" stroke="black" stroke-width="0.5"/>
<path d="M247.88 554.96L247.88 545.68"
fill="none" stroke="black" stroke-width="0.5"/>
<path d="M247.88 136.77L247.88 127.49"
fill="none" stroke="black" stroke-width="0.5"/>
<path d="M143.33 659.51L143.33 650.23"
fill="none" stroke="black" stroke-width="0.5"/>
<path d="M143.33 241.32L143.33 232.04"
fill="none" stroke="black" stroke-width="0.5"/>
<path d="M38.78 764.06L38.78 754.78"
fill="none" stroke="black" stroke-width="0.5"/>
<path d="M38.78 345.86L38.78 336.59"
fill="none" stroke="black" stroke-width="0.5"/>
<path d="M450.41 770.62L456.98 764.06"
fill="none" stroke="black" stroke-width="0.5"/>
<path d="M554.96 666.07L561.52 659.51"
fill="none" stroke="black" stroke-width="0.5"/>
<path d="M659.51 561.52L666.07 554.96"
fill="none" stroke="black" stroke-width="0.5"/>
<path d="M764.06 456.98L770.62 450.41"
fill="none" stroke="black" stroke-width="0.5"/>
<path d="M32.22 770.62L38.78 764.06"
fill="none" stroke="black" stroke-width="0.5"/>
<path d="M136.77 666.07L143.33 659.51"
fill="none" stroke="black" stroke-width="0.5"/>
<path d="M241.32 561.52L247.88 554.96"
fill="none" stroke="black" stroke-width="0.5"/>
<path d="M345.86 456.98L352.43 450.41"
fill="none" stroke="black" stroke-width="0.5"/>
<path d="M450.41 352.43L456.98 345.86"
fill="none" stroke="black" stroke-width="0.5"/>
<path d="M554.96 247.88L561.52 241.32"
fill="none" stroke="black" stroke-width="0.5"/>
<path d="M659.51 143.33L666.07 136.77"
fill="none" stroke="black" stroke-width="0.5"/>
<path d="M764.06 38.78L770.62 32.22"
fill="none" stroke="black" stroke-width="0.5"/>
<path d="M32.22 352.43L38.78 345.86"
fill="none" stroke="black" stroke-width="0.5"/>
<path d="M136.77 247.88L143.33 241.32"
fill="none" stroke="black" stroke-width="0.5"/>
<path d="M241.32 143.33L247.88 136.77"
fill="none" stroke="black" stroke-width="0.5"/>
<path d="M345.86 38.78L352.43 32.22"
fill="none" stroke="black" stroke-width="0.5"/>
<path d="M32.22 748.22L38.78 754.78"
fill="none" stroke="black" stroke-width="0.5"/>
<path d="M136.77 643.67L143.33 650.23"
fill="none" stroke="black" stroke-width="0.5"/>
<path d="M32.22 330.02L38.78 336.59"
fill="none" stroke="black" stroke-width="0.5"/>
<path d="M241.32 539.12L247.88 545.68"
fill="none" stroke="black" stroke-width="0.5"/>
<path d="M450.41 748.22L456.98 754.78"
fill="none" stroke="black" stroke-width="0.5"/>
<path d="M136.77 225.48L143.33 232.04"
fill="none" stroke="black" stroke-width="0.5"/>
<path d="M345.86 434.57L352.43 441.14"
fill="none" stroke="black" stroke-width="0.5"/>
<path d="M554.96 643.67L561.52 650.23"
fill="none" stroke="black" stroke-width="0.5"/>
<path d="M241.32 120.93L247.88 127.49"
fill="none" stroke="black" stroke-width="0.5"/>
<path d="M450.41 330.02L456.98 336.59"
fill="none" stroke="black" stroke-width="0.5"/>
<path d="M659.51 539.12L666.07 545.68"
fill="none" stroke="black" stroke-width="0.5"/>
<path d="M345.86 16.38L352.43 22.94"
fill="none" stroke="black" stroke-width="0.5"/>
<path d="M554.96 225.48L561.52 232.04"
fill="none" stroke="black" stroke-width="0.5"/>
<path d="M764.06 434.57L770.62 441.14"
fill="none" stroke="black" stroke-width="0.5"/>
<path d="M659.51 120.93L666.07 127.49"
fill="none" stroke="black" stroke-width="0.5"/>
<path d="M764.06 16.38L770.62 22.94"
fill="none" stroke="black" stroke-width="0.5"/>
<path d="M336.59 16.38L330.02 22.94"
fill="none" stroke="black" stroke-width="0.5"/>
<path d="M232.04 120.93L225.48 127.49"
fill="none" stroke="black" stroke-width="0.5"/>
<path d="M127.49 225.48L120.93 232.04"
fill="none" stroke="black" stroke-width="0.5"/>
<path d="M22.94 330.02L16.38 336.59"
fill="none" stroke="black" stroke-width="0.5"/>
<path d="M754.78 16.38L748.22 22.94"
fill="none" stroke="black" stroke-width="0.5"/>
<path d="M650.23 120.93L643.67 127.49"
fill="none" stroke="black" stroke-width="0.5"/>
<path d="M545.68 225.48L539.12 232.04"
fill="none" stroke="black" stroke-width="0.5"/>
<path d="M441.14 330.02L434.57 336.59"
fill="none" stroke="black" stroke-width="0.5"/>
<path d="M336.59 434.57L330.02 441.14"
fill="none" stroke="black" stroke-width="0.5"/>
<path d="M232.04 539.12L225.48 545.68"
fill="none" stroke="black" stroke-width="0.5"/>
<path d="M127.49 643.67L120.93 650.23"
fill="none" stroke="black" stroke-width="0.5"/>
<path d="M22.94 748.22L16.38 754.78"
fill="none" stroke="black" stroke-width="0.5"/>
<path d="M754.78 434.57L748.22 441.14"
fill="none" stroke="black" stroke-width="0.5"/>
<path d="M650.23 539.12L643.67 545.68"
fill="none" stroke="black" stroke-width="0.5"/>
<path d="M545.68 643.67L539.12 650.23"
fill="none" stroke="black" stroke-width="0.5"/>
<path d="M441.14 748.22L434.57 754.78"
fill="none" stroke="black" stroke-width="0.5"/>
<path d="M754.78 38.78L748.22 32.22"
fill="none" stroke="black" stroke-width="0.5"/>
<path d="M650.23 143.33L643.67 136.77"
fill="none" stroke="black" stroke-width="0.5"/>
<path d="M754.78 456.98L748.22 450.41"
fill="none" stroke="black" stroke-width="0.5"/>
<path d="M545.68 247.88L539.12 241.32"
fill="none" stroke="black" stroke-width="0.5"/>
<path d="M336.59 38.78L330.02 32.22"
fill="none" stroke="black" stroke-width="0.5"/>
<path d="M650.23 561.52L643.67 554.96"
fill="none" stroke="black" stroke-width="0.5"/>
<path d="M441.14 352.43L434.57 345.86"
fill="none" stroke="black" stroke-width="0.5"/>
<path d="M232.04 143.33L225.48 136.77"
fill="none" stroke="black" stroke-width="0.5"/>
<path d="M545.68 666.07L539.12 659.51"
fill="none" stroke="black" stroke-width="0.5"/>
<path d="M336.59 456.98L330.02 450.41"
fill="none" stroke="black" stroke-width="0.5"/>
<path d="M127.49 247.88L120.93 241.32"
fill="none" stroke="black" stroke-width="0.5"/>
<path d="M441.14 770.62L434.57 764.06"
fill="none" stroke="black" stroke-width="0.5"/>
<path d="M232.04 561.52L225.48 554.96"
fill="none" stroke="black" stroke-width="0.5"/>
<path d="M22.94 352.43L16.38 345.86"
fill="none" stroke="black" stroke-width="0.5"/>
<path d="M127.49 666.07L120.93 659.51"
fill="none" stroke="black" stroke-width="0.5"/>
<path d="M22.94 770.62L16.38 764.06"
fill="none" stroke="black" stroke-width="0.5"/>
<path d="M229.91 785.56L243.44 785.56"
fill="none" stroke="black" stroke-width="0.5"/>
<path d="M648.11 785.56L661.64 785.56"
fill="none" stroke="black" stroke-width="0.5"/>
<path d="M334.46 681.01L347.99 681.01"
fill="none" stroke="black" stroke-width="0.5"/>
<path d="M752.65 681.01L766.19 681.01"
fill="none" stroke="black" stroke-width="0.5"/>
<path d="M20.81 576.46L34.35 576.46"
fill="none" stroke="black" stroke-width="0.5"/>
<path d="M439.01 576.46L452.54 576.46"
fill="none" stroke="black" stroke-width="0.5"/>
<path d="M125.36 471.91L138.89 471.91"
fill="none" stroke="black" stroke-width="0.5"/>
<path d="M543.56 471.91L557.09 471.91"
fill="none" stroke="black" stroke-width="0.5"/>
<path d="M229.91 367.36L243.44 367.36"
fill="none" stroke="black" stroke-width="0.5"/>
<path d="M648.11 367.36L661.64 367.36"
fill="none" stroke="black" stroke-width="0.5"/>
<path d="M334.46 262.81L347.99 262.81"
fill="none" stroke="black" stroke-width="0.5"/>
<path d="M752.65 262.81L766.19 262.81"
fill="none" stroke="black" stroke-width="0.5"/>
<path d="M20.81 158.27L34.35 158.27"
fill="none" stroke="black" stroke-width="0.5"/>
<path d="M439.01 158.27L452.54 158.27"
fill="none" stroke="black" stroke-width="0.5"/>
<path d="M125.36 53.72L138.89 53.72"
fill="none" stroke="black" stroke-width="0.5"/>
<path d="M543.56 53.72L557.09 53.72"
fill="none" stroke="black" stroke-width="0.5"/>
<path d="M229.91 733.28L243.44 733.28"
fill="none" stroke="black" stroke-width="0.5"/>
<path d="M648.11 733.28L661.64 733.28"
fill="none" stroke="black" stroke-width="0.5"/>
<path d="M334.46 628.73L347.99 628.73"
fill="none" stroke="black" stroke-width="0.5"/>
<path d="M752.65 628.73L766.19 628.73"
fill="none" stroke="black" stroke-width="0.5"/>
<path d="M20.81 524.19L34.35 524.19"
fill="none" stroke="black" stroke-width="0.5"/>
<path d="M439.01 524.19L452.54 524.19"
fill="none" stroke="black" stroke-width="0.5"/>
<path d="M125.36 419.64L138.89 419.64"
fill="none" stroke="black" stroke-width="0.5"/>
<path d="M543.56 419.64L557.09 419.64"
fill="none" stroke="black" stroke-width="0.5"/>
<path d="M229.91 315.09L243.44 315.09"
fill="none" stroke="black" stroke-width="0.5"/>
<path d="M648.11 315.09L661.64 315.09"
fill="none" stroke="black" stroke-width="0.5"/>
<path d="M334.46 210.54L347.99 210.54"
fill="none" stroke="black" stroke-width="0.5"/>
<path d="M752.65 210.54L766.19 210.54"
fill="none" stroke="black" stroke-width="0.5"/>
<path d="M20.81 105.99L34.35 105.99"
fill="none" stroke="black" stroke-width="0.5"/>
<path d="M439.01 105.99L452.54 105.99"
fill="none" stroke="black" stroke-width="0.5"/>
<path d="M125.36 1.44L138.89 1.44"
fill="none" stroke="black" stroke-width="0.5"/>
<path d="M543.56 1.44L557.09 1.44"
fill="none" stroke="black" stroke-width="0.5"/>
<path d="M733.28 661.64L733.28 648.11"
fill="none" stroke="black" stroke-width="0.5"/>
<path d="M733.28 243.44L733.28 229.91"
fill="none" stroke="black" stroke-width="0.5"/>
<path d="M628.73 766.19L628.73 752.65"
fill="none" stroke="black" stroke-width="0.5"/>
<path d="M628.73 347.99L628.73 334.46"
fill="none" stroke="black" stroke-width="0.5"/>
<path d="M524.19 452.54L524.19 439.01"
fill="none" stroke="black" stroke-width="0.5"/>
<path d="M524.19 34.35L524.19 20.81"
fill="none" stroke="black" stroke-width="0.5"/>
<path d="M419.64 557.09L419.64 543.56"
fill="none" stroke="black" stroke-width="0.5"/>
<path d="M419.64 138.89L419.64 125.36"
fill="none" stroke="black" stroke-width="0.5"/>
<path d="M315.09 661.64L315.09 648.11"
fill="none" stroke="black" stroke-width="0.5"/>
<path d="M315.09 243.44L315.09 229.91"
fill="none" stroke="black" stroke-width="0.5"/>
<path d="M210.54 766.19L210.54 752.65"
fill="none" stroke="black" stroke-width="0.5"/>
<path d="M210.54 347.99L210.54 334.46"
fill="none" stroke="black" stroke-width="0.5"/>
<path d="M105.99 452.54L105.99 439.01"
fill="none" stroke="black" stroke-width="0.5"/>
<path d="M105.99 34.35L105.99 20.81"
fill="none" stroke="black" stroke-width="0.5"/>
<path d="M1.44 557.09L1.44 543.56"
fill="none" stroke="black" stroke-width="0.5"/>
<path d="M1.44 138.89L1.44 125.36"
fill="none" stroke="black" stroke-width="0.5"/>
<path d="M785.56 661.64L785.56 648.11"
fill="none" stroke="black" stroke-width="0.5"/>
<path d="M785.56 243.44L785.56 229.91"
fill="none" stroke="black" stroke-width="0.5"/>
<path d="M681.01 766.19L681.01 752.65"
fill="none" stroke="black" stroke-width="0.5"/>
<path d="M681.01 347.99L681.01 334.46"
fill="none" stroke="black" stroke-width="0.5"/>
<path d="M576.46 452.54L576.46 439.01"
fill="none" stroke="black" stroke-width="0.5"/>
<path d="M576.46 34.35L576.46 20.81"
fill="none" stroke="black" stroke-width="0.5"/>
<path d="M471.91 557.09L471.91 543.56"
fill="none" stroke="black" stroke-width="0.5"/>
<path d="M471.91 138.89L471.91 125.36"
fill="none" stroke="black" stroke-width="0.5"/>
<path d="M367.36 661.64L367.36 648.11"
fill="none" stroke="black" stroke-width="0.5"/>
<path d="M367.36 243.44L367.36 229.91"
fill="none" stroke="black" stroke-width="0.5"/>
<path d="M262.81 766.19L262.81 752.65"
fill="none" stroke="black" stroke-width="0.5"/>
<path d="M262.81 347.99L262.81 334.46"
fill="none" stroke="black" stroke-width="0.5"/>
<path d="M158.27 452.54L158.27 439.01"
fill="none" stroke="black" stroke-width="0.5"/>
<path d="M158.27 34.35L158.27 20.81"
fill="none" stroke="black" stroke-width="0.5"/>
<path d="M53.72 557.09L53.72 543.56"
fill="none" stroke="black" stroke-width="0.5"/>
<path d="M53.72 138.89L53.72 125.36"
fill="none" stroke="black" stroke-width="0.5"/>
<path d="M661.64 785.56L673.97 778.51"
fill="none" stroke="black" stroke-width="0.5"/>
<path d="M766.19 681.01L778.51 673.97"
fill="none" stroke="black" stroke-width="0.5"/>
<path d="M243.44 785.56L255.77 778.51"
fill="none" stroke="black" stroke-width="0.5"/>
<path d="M347.99 681.01L360.32 673.97"
fill="none" stroke="black" stroke-width="0.5"/>
<path d="M452.54 576.46L464.87 569.42"
fill="none" stroke="black" stroke-width="0.5"/>
<path d="M557.09 471.91L569.42 464.87"
fill="none" stroke="black" stroke-width="0.5"/>
<path d="M661.64 367.36L673.97 360.32"
fill="none" stroke="black" stroke-width="0.5"/>
<path d="M766.19 262.81L778.51 255.77"
fill="none" stroke="black" stroke-width="0.5"/>
<path d="M34.35 576.46L46.67 569.42"
fill="none" stroke="black" stroke-width="0.5"/>
<path d="M138.89 471.91L151.22 464.87"
fill="none" stroke="black" stroke-width="0.5"/>
<path d="M243.44 367.36L255.77 360.32"
fill="none" stroke="black" stroke-width="0.5"/>
<path d="M347.99 262.81L360.32 255.77"
fill="none" stroke="black" stroke-width="0.5"/>
<path d="M452.54 158.27L464.87 151.22"
fill="none" stroke="black" stroke-width="0.5"/>
<path d="M557.09 53.72L569.42 46.67"
fill="none" stroke="black" stroke-width="0.5"/>
<path d="M34.35 158.27L46.67 151.22"
fill="none" stroke="black" stroke-width="0.5"/>
<path d="M138.89 53.72L151.22 46.67"
fill="none" stroke="black" stroke-width="0.5"/>
<path d="M53.72 138.89L46.67 151.22"
fill="none" stroke="black" stroke-width="0.5"/>
<path d="M158.27 34.35L151.22 46.67"
fill="none" stroke="black" stroke-width="0.5"/>
<path d="M53.72 557.09L46.67 569.42"
fill="none" stroke="black" stroke-width="0.5"/>
<path d="M158.27 452.54L151.22 464.87"
fill="none" stroke="black" stroke-width="0.5"/>
<path d="M262.81 347.99L255.77 360.32"
fill="none" stroke="black" stroke-width="0.5"/>
<path d="M367.36 243.44L360.32 255.77"
fill="none" stroke="black" stroke-width="0.5"/>
<path d="M471.91 138.89L464.87 151.22"
fill="none" stroke="black" stroke-width="0.5"/>
<path d="M576.46 34.35L569.42 46.67"
fill="none" stroke="black" stroke-width="0.5"/>
<path d="M262.81 766.19L255.77 778.51"
fill="none" stroke="black" stroke-width="0.5"/>
<path d="M367.36 661.64L360.32 673.97"
fill="none" stroke="black" stroke-width="0.5"/>
<path d="M471.91 557.09L464.87 569.42"
fill="none" stroke="black" stroke-width="0.5"/>
<path d="M576.46 452.54L569.42 464.87"
fill="none" stroke="black" stroke-width="0.5"/>
<path d="M681.01 347.99L673.97 360.32"
fill="none" stroke="black" stroke-width="0.5"/>
<path d="M785.56 243.44L778.51 255.77"
fill="none" stroke="black" stroke-width="0.5"/>
<path d="M681.01 766.19L673.97 778.51"
fill="none" stroke="black" stroke-width="0.5"/>
<path d="M785.56 661.64L778.51 673.97"
fill="none" stroke="black" stroke-width="0.5"/>
<path d="M785.56 229.91L778.51 217.58"
fill="none" stroke="black" stroke-width="0.5"/>
<path d="M576.46 20.81L569.42 8.49"
fill="none" stroke="black" stroke-width="0.5"/>
<path d="M681.01 334.46L673.97 322.13"
fill="none" stroke="black" stroke-width="0.5"/>
<path d="M785.56 648.11L778.51 635.78"
fill="none" stroke="black" stroke-width="0.5"/>
<path d="M471.91 125.36L464.87 113.03"
fill="none" stroke="black" stroke-width="0.5"/>
<path d="M576.46 439.01L569.42 426.68"
fill="none" stroke="black" stroke-width="0.5"/>
<path d="M681.01 752.65L673.97 740.33"
fill="none" stroke="black" stroke-width="0.5"/>
<path d="M367.36 229.91L360.32 217.58"
fill="none" stroke="black" stroke-width="0.5"/>
<path d="M471.91 543.56L464.87 531.23"
fill="none" stroke="black" stroke-width="0.5"/>
<path d="M158.27 20.81L151.22 8.49"
fill="none" stroke="black" stroke-width="0.5"/>
<path d="M262.81 334.46L255.77 322.13"
fill="none" stroke="black" stroke-width="0.5"/>
<path d="M367.36 648.11L360.32 635.78"
fill="none" stroke="black" stroke-width="0.5"/>
<path d="M53.72 125.36L46.67 113.03"
fill="none" stroke="black" stroke-width="0.5"/>
<path d="M158.27 439.01L151.22 426.68"
fill="none" stroke="black" stroke-width="0.5"/>
<path d="M262.81 752.65L255.77 740.33"
fill="none" stroke="black" stroke-width="0.5"/>
<path d="M53.72 543.56L46.67 531.23"
fill="none" stroke="black" stroke-width="0.5"/>
<path d="M243.44 733.28L255.77 740.33"
fill="none" stroke="black" stroke-width="0.5"/>
<path d="M34.35 524.19L46.67 531.23"
fill="none" stroke="black" stroke-width="0.5"/>
<path d="M347.99 628.73L360.32 635.78"
fill="none" stroke="black" stroke-width="0.5"/>
<path d="M661.64 733.28L673.97 740.33"
fill="none" stroke="black" stroke-width="0.5"/>
<path d="M138.89 419.64L151.22 426.68"
fill="none" stroke="black" stroke-width="0.5"/>
<path d="M452.54 524.19L464.87 531.23"
fill="none" stroke="black" stroke-width="0.5"/>
<path d="M766.19 628.73L778.51 635.78"
fill="none" stroke="black" stroke-width="0.5"/>
<path d="M243.44 315.09L255.77 322.13"
fill="none" stroke="black" stroke-width="0.5"/>
<path d="M557.09 419.64L569.42 426.68"
fill="none" stroke="black" stroke-width="0.5"/>
<path d="M34.35 105.99L46.67 113.03"
fill="none" stroke="black" stroke-width="0.5"/>
<path d="M347.99 210.54L360.32 217.58"
fill="none" stroke="black" stroke-width="0.5"/>
<path d="M661.64 315.09L673.97 322.13"
fill="none" stroke="black" stroke-width="0.5"/>
<path d="M138.89 1.44L151.22 8.49"
fill="none" stroke="black" stroke-width="0.5"/>
<path d="M452.54 105.99L464.87 113.03"
fill="none" stroke="black" stroke-width="0.5"/>
<path d="M766.19 210.54L778.51 217.58"
fill="none" stroke="black" stroke-width="0.5"/>
<path d="M557.09 1.44L569.42 8.49"
fill="none" stroke="black" stroke-width="0.5"/>
<path d="M125.36 1.44L113.03 8.49"
fill="none" stroke="black" stroke-width="0.5"/>
<path d="M20.81 105.99L8.49 113.03"
fill="none" stroke="black" stroke-width="0.5"/>
<path d="M543.56 1.44L531.23 8.49"
fill="none" stroke="black" stroke-width="0.5"/>
<path d="M439.01 105.99L426.68 113.03"
fill="none" stroke="black" stroke-width="0.5"/>
<path d="M334.46 210.54L322.13 217.58"
fill="none" stroke="black" stroke-width="0.5"/>
<path d="M229.91 315.09L217.58 322.13"
fill="none" stroke="black" stroke-width="0.5"/>
<path d="M125.36 419.64L113.03 426.68"
fill="none" stroke="black" stroke-width="0.5"/>
<path d="M20.81 524.19L8.49 531.23"
fill="none" stroke="black" stroke-width="0.5"/>
<path d="M752.65 210.54L740.33 217.58"
fill="none" stroke="black" stroke-width="0.5"/>
<path d="M648.11 315.09L635.78 322.13"
fill="none" stroke="black" stroke-width="0.5"/>
<path d="M543.56 419.64L531.23 426.68"
fill="none" stroke="black" stroke-width="0.5"/>
<path d="M439.01 524.19L426.68 531.23"
fill="none" stroke="black" stroke-width="0.5"/>
<path d="M334.46 628.73L322.13 635.78"
fill="none" stroke="black" stroke-width="0.5"/>
<path d="M229.91 733.28L217.58 740.33"
fill="none" stroke="black" stroke-width="0.5"/>
<path d="M752.65 628.73L740.33 635.78"
fill="none" stroke="black" stroke-width="0.5"/>
<path d="M648.11 733.28L635.78 740.33"
fill="none" stroke="black" stroke-width="0.5"/>
<path d="M733.28 648.11L740.33 635.78"
fill="none" stroke="black" stroke-width="0.5"/>
<path d="M628.73 752.65L635.78 740.33"
fill="none" stroke="black" stroke-width="0.5"/>
<path d="M733.28 229.91L740.33 217.58"
fill="none" stroke="black" stroke-width="0.5"/>
<path d="M628.73 334.46L635.78 322.13"
fill="none" stroke="black" stroke-width="0.5"/>
<path d="M524.19 439.01L531.23 426.68"
fill="none" stroke="black" stroke-width="0.5"/>
<path d="M419.64 543.56L426.68 531.23"
fill="none" stroke="black" stroke-width="0.5"/>
<path d="M315.09 648.11L322.13 635.78"
fill="none" stroke="black" stroke-width="0.5"/>
<path d="M210.54 752.65L217.58 740.33"
fill="none" stroke="black" stroke-width="0.5"/>
<path d="M524.19 20.81L531.23 8.49"
fill="none" stroke="black" stroke-width="0.5"/>
<path d="M419.64 125.36L426.68 113.03"
fill="none" stroke="black" stroke-width="0.5"/>
<path d="M315.09 229.91L322.13 217.58"
fill="none" stroke="black" stroke-width="0.5"/>
<path d="M210.54 334.46L217.58 322.13"
fill="none" stroke="black" stroke-width="0.5"/>
<path d="M105.99 439.01L113.03 426.68"
fill="none" stroke="black" stroke-width="0.5"/>
<path d="M1.44 543.56L8.49 531.23"
fill="none" stroke="black" stroke-width="0.5"/>
<path d="M105.99 20.81L113.03 8.49"
fill="none" stroke="black" stroke-width="0.5"/>
<path d="M1.44 125.36L8.49 113.03"
fill="none" stroke="black" stroke-width="0.5"/>
<path d="M1.44 557.09L8.49 569.42"
fill="none" stroke="black" stroke-width="0.5"/>
<path d="M210.54 766.19L217.58 778.51"
fill="none" stroke="black" stroke-width="0.5"/>
<path d="M105.99 452.54L113.03 464.87"
fill="none" stroke="black" stroke-width="0.5"/>
<path d="M1.44 138.89L8.49 151.22"
fill="none" stroke="black" stroke-width="0.5"/>
<path d="M315.09 661.64L322.13 673.97"
fill="none" stroke="black" stroke-width="0.5"/>
<path d="M210.54 347.99L217.58 360.32"
fill="none" stroke="black" stroke-width="0.5"/>
<path d="M105.99 34.35L113.03 46.67"
fill="none" stroke="black" stroke-width="0.5"/>
<path d="M419.64 557.09L426.68 569.42"
fill="none" stroke="black" stroke-width="0.5"/>
<path d="M315.09 243.44L322.13 255.77"
fill="none" stroke="black" stroke-width="0.5"/>
<path d="M628.73 766.19L635.78 778.51"
fill="none" stroke="black" stroke-width="0.5"/>
<path d="M524.19 452.54L531.23 464.87"
fill="none" stroke="black" stroke-width="0.5"/>
<path d="M419.64 138.89L426.68 151.22"
fill="none" stroke="black" stroke-width="0.5"/>
<path d="M733.28 661.64L740.33 673.97"
fill="none" stroke="black" stroke-width="0.5"/>
<path d="M628.73 347.99L635.78 360.32"
fill="none" stroke="black" stroke-width="0.5"/>
<path d="M524.19 34.35L531.23 46.67"
fill="none" stroke="black" stroke-width="0.5"/>
<path d="M733.28 243.44L740.33 255.77"
fill="none" stroke="black" stroke-width="0.5"/>
<path d="M543.56 53.72L531.23 46.67"
fill="none" stroke="black" stroke-width="0.5"/>
<path d="M752.65 262.81L740.33 255.77"
fill="none" stroke="black" stroke-width="0.5"/>
<path d="M439.01 158.27L426.68 151.22"
fill="none" stroke="black" stroke-width="0.5"/>
<path d="M125.36 53.72L113.03 46.67"
fill="none" stroke="black" stroke-width="0.5"/>
<path d="M648.11 367.36L635.78 360.32"
fill="none" stroke="black" stroke-width="0.5"/>
<path d="M334.46 262.81L322.13 255.77"
fill="none" stroke="black" stroke-width="0.5"/>
<path d="M20.81 158.27L8.49 151.22"
fill="none" stroke="black" stroke-width="0.5"/>
<path d="M543.56 471.91L531.23 464.87"
fill="none" stroke="black" stroke-width="0.5"/>
<path d="M229.91 367.36L217.58 360.32"
fill="none" stroke="black" stroke-width="0.5"/>
<path d="M752.65 681.01L740.33 673.97"
fill="none" stroke="black" stroke-width="0.5"/>
<path d="M439.01 576.46L426.68 569.42"
fill="none" stroke="black" stroke-width="0.5"/>
<path d="M125.36 471.91L113.03 464.87"
fill="none" stroke="black" stroke-width="0.5"/>
<path d="M648.11 785.56L635.78 778.51"
fill="none" stroke="black" stroke-width="0.5"/>
<path d="M334.46 681.01L322.13 673.97"
fill="none" stroke="black" stroke-width="0.5"/>
<path d="M20.81 576.46L8.49 569.42"
fill="none" stroke="black" stroke-width="0.5"/>
<path d="M229.91 785.56L217.58 778.51"
fill="none" stroke="black" stroke-width="0.5"/>
</svg>
