<?xml version="1.0" encoding="UTF-8"?>
<svg xmlns="http://www.w3.org/2000/svg" width="99.949mm" height="99.949mm" viewBox="0.0 0.0 787.000 787.000" preserveAspectRatio="none" version="1.1">
  <title>Produce by Acme CAD Converter</title>
  <desc>Produce by Acme CAD Converter</desc>
<path d="M42.97 750.24L51.75 750.24"
fill="none" stroke="black" stroke-width="0.5"/>
<path d="M438.56 750.24L447.34 750.24"
fill="none" stroke="black" stroke-width="0.5"/>
<path d="M141.87 651.34L150.65 651.34"
fill="none" stroke="black" stroke-width="0.5"/>
<path d="M537.46 651.34L546.24 651.34"
fill="none" stroke="black" stroke-width="0.5"/>
<path d="M240.77 552.44L249.54 552.44"
fill="none" stroke="black" stroke-width="0.5"/>
<path d="M636.36 552.44L645.13 552.44"
fill="none" stroke="black" stroke-width="0.5"/>
<path d="M339.66 453.54L348.44 453.54"
fill="none" stroke="black" stroke-width="0.5"/>
<path d="M735.25 453.54L744.03 453.54"
fill="none" stroke="black" stroke-width="0.5"/>
<path d="M42.97 354.65L51.75 354.65"
fill="none" stroke="black" stroke-width="0.5"/>
<path d="M438.56 354.65L447.34 354.65"
fill="none" stroke="black" stroke-width="0.5"/>
<path d="M141.87 255.75L150.65 255.75"
fill="none" stroke="black" stroke-width="0.5"/>
<path d="M537.46 255.75L546.24 255.75"
fill="none" stroke="black" stroke-width="0.5"/>
<path d="M240.77 156.85L249.54 156.85"
fill="none" stroke="black" stroke-width="0.5"/>
<path d="M636.36 156.85L645.13 156.85"
fill="none" stroke="black" stroke-width="0.5"/>
<path d="M339.66 57.96L348.44 57.96"
fill="none" stroke="black" stroke-width="0.5"/>
<path d="M735.25 57.96L744.03 57.96"
fill="none" stroke="black" stroke-width="0.5"/>
<path d="M42.97 729.04L51.75 729.04"
fill="none" stroke="black" stroke-width="0.5"/>
<path d="M438.56 729.04L447.34 729.04"
fill="none" stroke="black" stroke-width="0.5"/>
<path d="M141.87 630.15L150.65 630.15"
fill="none" stroke="black" stroke-width="0.5"/>
<path d="M537.46 630.15L546.24 630.15"
fill="none" stroke="black" stroke-width="0.5"/>
<path d="M240.77 531.25L249.54 531.25"
fill="none" stroke="black" stroke-width="0.5"/>
<path d="M636.36 531.25L645.13 531.25"
fill="none" stroke="black" stroke-width="0.5"/>
<path d="M339.66 432.35L348.44 432.35"
fill="none" stroke="black" stroke-width="0.5"/>
<path d="M735.25 432.35L744.03 432.35"
fill="none" stroke="black" stroke-width="0.5"/>
<path d="M42.97 333.46L51.75 333.46"
fill="none" stroke="black" stroke-width="0.5"/>
<path d="M438.56 333.46L447.34 333.46"
fill="none" stroke="black" stroke-width="0.5"/>
<path d="M141.87 234.56L150.65 234.56"
fill="none" stroke="black" stroke-width="0.5"/>
<path d="M537.46 234.56L546.24 234.56"
fill="none" stroke="black" stroke-width="0.5"/>
<path d="M240.77 135.66L249.54 135.66"
fill="none" stroke="black" stroke-width="0.5"/>
<path d="M636.36 135.66L645.13 135.66"
fill="none" stroke="black" stroke-width="0.5"/>
<path d="M339.66 36.76L348.44 36.76"
fill="none" stroke="black" stroke-width="0.5"/>
<path d="M735.25 36.76L744.03 36.76"
fill="none" stroke="black" stroke-width="0.5"/>
<path d="M729.04 447.34L729.04 438.56"
fill="none" stroke="black" stroke-width="0.5"/>
<path d="M729.04 51.75L729.04 42.97"
fill="none" stroke="black" stroke-width="0.5"/>
<path d="M630.15 546.23L630.15 537.46"
fill="none" stroke="black" stroke-width="0.5"/>
<path d="M630.15 150.65L630.15 141.87"
fill="none" stroke="black" stroke-width="0.5"/>
<path d="M531.25 645.13L531.25 636.35"
fill="none" stroke="black" stroke-width="0.5"/>
<path d="M531.25 249.54L531.25 240.77"
fill="none" stroke="black" stroke-width="0.5"/>
<path d="M432.35 744.03L432.35 735.25"
fill="none" stroke="black" stroke-width="0.5"/>
<path d="M432.35 348.44L432.35 339.66"
fill="none" stroke="black" stroke-width="0.5"/>
<path d="M333.46 447.34L333.46 438.56"
fill="none" stroke="black" stroke-width="0.5"/>
<path d="M333.46 51.75L333.46 42.97"
fill="none" stroke="black" stroke-width="0.5"/>
<path d="M234.56 546.23L234.56 537.46"
fill="none" stroke="black" stroke-width="0.5"/>
<path d="M234.56 150.65L234.56 141.87"
fill="none" stroke="black" stroke-width="0.5"/>
<path d="M135.66 645.13L135.66 636.35"
fill="none" stroke="black" stroke-width="0.5"/>
<path d="M135.66 249.54L135.66 240.77"
fill="none" stroke="black" stroke-width="0.5"/>
<path d="M36.77 744.03L36.77 735.25"
fill="none" stroke="black" stroke-width="0.5"/>
<path d="M36.77 348.44L36.77 339.66"
fill="none" stroke="black" stroke-width="0.5"/>
<path d="M750.24 447.34L750.24 438.56"
fill="none" stroke="black" stroke-width="0.5"/>
<path d="M750.24 51.75L750.24 42.97"
fill="none" stroke="black" stroke-width="0.5"/>
<path d="M651.34 546.23L651.34 537.46"
fill="none" stroke="black" stroke-width="0.5"/>
<path d="M651.34 150.65L651.34 141.87"
fill="none" stroke="black" stroke-width="0.5"/>
<path d="M552.44 645.13L552.44 636.35"
fill="none" stroke="black" stroke-width="0.5"/>
<path d="M552.44 249.54L552.44 240.77"
fill="none" stroke="black" stroke-width="0.5"/>
<path d="M453.55 744.03L453.55 735.25"
fill="none" stroke="black" stroke-width="0.5"/>
<path d="M453.55 348.44L453.55 339.66"
fill="none" stroke="black" stroke-width="0.5"/>
<path d="M354.65 447.34L354.65 438.56"
fill="none" stroke="black" stroke-width="0.5"/>
<path d="M354.65 51.75L354.65 42.97"
fill="none" stroke="black" stroke-width="0.5"/>
<path d="M255.75 546.23L255.75 537.46"
fill="none" stroke="black" stroke-width="0.5"/>
<path d="M255.75 150.65L255.75 141.87"
fill="none" stroke="black" stroke-width="0.5"/>
<path d="M156.86 645.13L156.86 636.35"
fill="none" stroke="black" stroke-width="0.5"/>
<path d="M156.86 249.54L156.86 240.77"
fill="none" stroke="black" stroke-width="0.5"/>
<path d="M57.96 744.03L57.96 735.25"
fill="none" stroke="black" stroke-width="0.5"/>
<path d="M57.96 348.44L57.96 339.66"
fill="none" stroke="black" stroke-width="0.5"/>
<path d="M447.34 750.24L453.55 744.03"
fill="none" stroke="black" stroke-width="0.5"/>
<path d="M546.24 651.34L552.44 645.13"
fill="none" stroke="black" stroke-width="0.5"/>
<path d="M645.13 552.44L651.34 546.23"
fill="none" stroke="black" stroke-width="0.5"/>
<path d="M744.03 453.54L750.24 447.34"
fill="none" stroke="black" stroke-width="0.5"/>
<path d="M51.75 750.24L57.96 744.03"
fill="none" stroke="black" stroke-width="0.5"/>
<path d="M150.65 651.34L156.86 645.13"
fill="none" stroke="black" stroke-width="0.5"/>
<path d="M249.54 552.44L255.75 546.23"
fill="none" stroke="black" stroke-width="0.5"/>
<path d="M348.44 453.54L354.65 447.34"
fill="none" stroke="black" stroke-width="0.5"/>
<path d="M447.34 354.65L453.55 348.44"
fill="none" stroke="black" stroke-width="0.5"/>
<path d="M546.24 255.75L552.44 249.54"
fill="none" stroke="black" stroke-width="0.5"/>
<path d="M645.13 156.85L651.34 150.65"
fill="none" stroke="black" stroke-width="0.5"/>
<path d="M744.03 57.96L750.24 51.75"
fill="none" stroke="black" stroke-width="0.5"/>
<path d="M51.75 354.65L57.96 348.44"
fill="none" stroke="black" stroke-width="0.5"/>
<path d="M150.65 255.75L156.86 249.54"
fill="none" stroke="black" stroke-width="0.5"/>
<path d="M249.54 156.85L255.75 150.65"
fill="none" stroke="black" stroke-width="0.5"/>
<path d="M348.44 57.96L354.65 51.75"
fill="none" stroke="black" stroke-width="0.5"/>
<path d="M51.75 729.04L57.96 735.25"
fill="none" stroke="black" stroke-width="0.5"/>
<path d="M150.65 630.15L156.86 636.35"
fill="none" stroke="black" stroke-width="0.5"/>
<path d="M51.75 333.46L57.96 339.66"
fill="none" stroke="black" stroke-width="0.5"/>
<path d="M249.54 531.25L255.75 537.46"
fill="none" stroke="black" stroke-width="0.5"/>
<path d="M447.34 729.04L453.55 735.25"
fill="none" stroke="black" stroke-width="0.5"/>
<path d="M150.65 234.56L156.86 240.77"
fill="none" stroke="black" stroke-width="0.5"/>
<path d="M348.44 432.35L354.65 438.56"
fill="none" stroke="black" stroke-width="0.5"/>
<path d="M546.24 630.15L552.44 636.35"
fill="none" stroke="black" stroke-width="0.5"/>
<path d="M249.54 135.66L255.75 141.87"
fill="none" stroke="black" stroke-width="0.5"/>
<path d="M447.34 333.46L453.55 339.66"
fill="none" stroke="black" stroke-width="0.5"/>
<path d="M645.13 531.25L651.34 537.46"
fill="none" stroke="black" stroke-width="0.5"/>
<path d="M348.44 36.76L354.65 42.97"
fill="none" stroke="black" stroke-width="0.5"/>
<path d="M546.24 234.56L552.44 240.77"
fill="none" stroke="black" stroke-width="0.5"/>
<path d="M744.03 432.35L750.24 438.56"
fill="none" stroke="black" stroke-width="0.5"/>
<path d="M645.13 135.66L651.34 141.87"
fill="none" stroke="black" stroke-width="0.5"/>
<path d="M744.03 36.76L750.24 42.97"
fill="none" stroke="black" stroke-width="0.5"/>
<path d="M339.66 36.76L333.46 42.97"
fill="none" stroke="black" stroke-width="0.5"/>
<path d="M240.77 135.66L234.56 141.87"
fill="none" stroke="black" stroke-width="0.5"/>
<path d="M141.87 234.56L135.66 240.77"
fill="none" stroke="black" stroke-width="0.5"/>
<path d="M42.97 333.46L36.77 339.66"
fill="none" stroke="black" stroke-width="0.5"/>
<path d="M735.25 36.76L729.04 42.97"
fill="none" stroke="black" stroke-width="0.5"/>
<path d="M636.36 135.66L630.15 141.87"
fill="none" stroke="black" stroke-width="0.5"/>
<path d="M537.46 234.56L531.25 240.77"
fill="none" stroke="black" stroke-width="0.5"/>
<path d="M438.56 333.46L432.35 339.66"
fill="none" stroke="black" stroke-width="0.5"/>
<path d="M339.66 432.35L333.46 438.56"
fill="none" stroke="black" stroke-width="0.5"/>
<path d="M240.77 531.25L234.56 537.46"
fill="none" stroke="black" stroke-width="0.5"/>
<path d="M141.87 630.15L135.66 636.35"
fill="none" stroke="black" stroke-width="0.5"/>
<path d="M42.97 729.04L36.77 735.25"
fill="none" stroke="black" stroke-width="0.5"/>
<path d="M735.25 432.35L729.04 438.56"
fill="none" stroke="black" stroke-width="0.5"/>
<path d="M636.36 531.25L630.15 537.46"
fill="none" stroke="black" stroke-width="0.5"/>
<path d="M537.46 630.15L531.25 636.35"
fill="none" stroke="black" stroke-width="0.5"/>
<path d="M438.56 729.04L432.35 735.25"
fill="none" stroke="black" stroke-width="0.5"/>
<path d="M735.25 57.96L729.04 51.75"
fill="none" stroke="black" stroke-width="0.5"/>
<path d="M636.36 156.85L630.15 150.65"
fill="none" stroke="black" stroke-width="0.5"/>
<path d="M735.25 453.54L729.04 447.34"
fill="none" stroke="black" stroke-width="0.5"/>
<path d="M537.46 255.75L531.25 249.54"
fill="none" stroke="black" stroke-width="0.5"/>
<path d="M339.66 57.96L333.46 51.75"
fill="none" stroke="black" stroke-width="0.5"/>
<path d="M636.36 552.44L630.15 546.23"
fill="none" stroke="black" stroke-width="0.5"/>
<path d="M438.56 354.65L432.35 348.44"
fill="none" stroke="black" stroke-width="0.5"/>
<path d="M240.77 156.85L234.56 150.65"
fill="none" stroke="black" stroke-width="0.5"/>
<path d="M537.46 651.34L531.25 645.13"
fill="none" stroke="black" stroke-width="0.5"/>
<path d="M339.66 453.54L333.46 447.34"
fill="none" stroke="black" stroke-width="0.5"/>
<path d="M141.87 255.75L135.66 249.54"
fill="none" stroke="black" stroke-width="0.5"/>
<path d="M438.56 750.24L432.35 744.03"
fill="none" stroke="black" stroke-width="0.5"/>
<path d="M240.77 552.44L234.56 546.23"
fill="none" stroke="black" stroke-width="0.5"/>
<path d="M42.97 354.65L36.77 348.44"
fill="none" stroke="black" stroke-width="0.5"/>
<path d="M141.87 651.34L135.66 645.13"
fill="none" stroke="black" stroke-width="0.5"/>
<path d="M42.97 750.24L36.77 744.03"
fill="none" stroke="black" stroke-width="0.5"/>
<path d="M236.2 785.56L254.11 785.56"
fill="none" stroke="black" stroke-width="0.5"/>
<path d="M631.79 785.56L649.7 785.56"
fill="none" stroke="black" stroke-width="0.5"/>
<path d="M335.1 686.66L353.01 686.66"
fill="none" stroke="black" stroke-width="0.5"/>
<path d="M730.68 686.66L748.6 686.66"
fill="none" stroke="black" stroke-width="0.5"/>
<path d="M38.4 587.76L56.32 587.76"
fill="none" stroke="black" stroke-width="0.5"/>
<path d="M433.99 587.76L451.91 587.76"
fill="none" stroke="black" stroke-width="0.5"/>
<path d="M137.3 488.86L155.22 488.86"
fill="none" stroke="black" stroke-width="0.5"/>
<path d="M532.89 488.86L550.8 488.86"
fill="none" stroke="black" stroke-width="0.5"/>
<path d="M236.2 389.97L254.11 389.97"
fill="none" stroke="black" stroke-width="0.5"/>
<path d="M631.79 389.97L649.7 389.97"
fill="none" stroke="black" stroke-width="0.5"/>
<path d="M335.1 291.07L353.01 291.07"
fill="none" stroke="black" stroke-width="0.5"/>
<path d="M730.68 291.07L748.6 291.07"
fill="none" stroke="black" stroke-width="0.5"/>
<path d="M38.4 192.17L56.32 192.17"
fill="none" stroke="black" stroke-width="0.5"/>
<path d="M433.99 192.17L451.91 192.17"
fill="none" stroke="black" stroke-width="0.5"/>
<path d="M137.3 93.28L155.22 93.28"
fill="none" stroke="black" stroke-width="0.5"/>
<path d="M532.89 93.28L550.8 93.28"
fill="none" stroke="black" stroke-width="0.5"/>
<path d="M236.2 693.72L254.11 693.72"
fill="none" stroke="black" stroke-width="0.5"/>
<path d="M631.79 693.72L649.7 693.72"
fill="none" stroke="black" stroke-width="0.5"/>
<path d="M335.1 594.83L353.01 594.83"
fill="none" stroke="black" stroke-width="0.5"/>
<path d="M730.68 594.83L748.6 594.83"
fill="none" stroke="black" stroke-width="0.5"/>
<path d="M38.4 495.93L56.32 495.93"
fill="none" stroke="black" stroke-width="0.5"/>
<path d="M433.99 495.93L451.91 495.93"
fill="none" stroke="black" stroke-width="0.5"/>
<path d="M137.3 397.03L155.22 397.03"
fill="none" stroke="black" stroke-width="0.5"/>
<path d="M532.89 397.03L550.8 397.03"
fill="none" stroke="black" stroke-width="0.5"/>
<path d="M236.2 298.14L254.11 298.14"
fill="none" stroke="black" stroke-width="0.5"/>
<path d="M631.79 298.14L649.7 298.14"
fill="none" stroke="black" stroke-width="0.5"/>
<path d="M335.1 199.24L353.01 199.24"
fill="none" stroke="black" stroke-width="0.5"/>
<path d="M730.68 199.24L748.6 199.24"
fill="none" stroke="black" stroke-width="0.5"/>
<path d="M38.4 100.34L56.32 100.34"
fill="none" stroke="black" stroke-width="0.5"/>
<path d="M433.99 100.34L451.91 100.34"
fill="none" stroke="black" stroke-width="0.5"/>
<path d="M137.3 1.44L155.22 1.44"
fill="none" stroke="black" stroke-width="0.5"/>
<path d="M532.89 1.44L550.8 1.44"
fill="none" stroke="black" stroke-width="0.5"/>
<path d="M693.72 649.7L693.72 631.79"
fill="none" stroke="black" stroke-width="0.5"/>
<path d="M693.72 254.11L693.72 236.2"
fill="none" stroke="black" stroke-width="0.5"/>
<path d="M594.83 748.6L594.83 730.68"
fill="none" stroke="black" stroke-width="0.5"/>
<path d="M594.83 353.01L594.83 335.09"
fill="none" stroke="black" stroke-width="0.5"/>
<path d="M495.93 451.91L495.93 433.99"
fill="none" stroke="black" stroke-width="0.5"/>
<path d="M495.93 56.32L495.93 38.4"
fill="none" stroke="black" stroke-width="0.5"/>
<path d="M397.03 550.8L397.03 532.89"
fill="none" stroke="black" stroke-width="0.5"/>
<path d="M397.03 155.21L397.03 137.3"
fill="none" stroke="black" stroke-width="0.5"/>
<path d="M298.14 649.7L298.14 631.79"
fill="none" stroke="black" stroke-width="0.5"/>
<path d="M298.14 254.11L298.14 236.2"
fill="none" stroke="black" stroke-width="0.5"/>
<path d="M199.24 748.6L199.24 730.68"
fill="none" stroke="black" stroke-width="0.5"/>
<path d="M199.24 353.01L199.24 335.09"
fill="none" stroke="black" stroke-width="0.5"/>
<path d="M100.34 451.91L100.34 433.99"
fill="none" stroke="black" stroke-width="0.5"/>
<path d="M100.34 56.32L100.34 38.4"
fill="none" stroke="black" stroke-width="0.5"/>
<path d="M1.45 550.8L1.45 532.89"
fill="none" stroke="black" stroke-width="0.5"/>
<path d="M1.45 155.21L1.45 137.3"
fill="none" stroke="black" stroke-width="0.5"/>
<path d="M785.56 649.7L785.56 631.79"
fill="none" stroke="black" stroke-width="0.5"/>
<path d="M785.56 254.11L785.56 236.2"
fill="none" stroke="black" stroke-width="0.5"/>
<path d="M686.66 748.6L686.66 730.68"
fill="none" stroke="black" stroke-width="0.5"/>
<path d="M686.66 353.01L686.66 335.09"
fill="none" stroke="black" stroke-width="0.5"/>
<path d="M587.76 451.91L587.76 433.99"
fill="none" stroke="black" stroke-width="0.5"/>
<path d="M587.76 56.32L587.76 38.4"
fill="none" stroke="black" stroke-width="0.5"/>
<path d="M488.87 550.8L488.87 532.89"
fill="none" stroke="black" stroke-width="0.5"/>
<path d="M488.87 155.21L488.87 137.3"
fill="none" stroke="black" stroke-width="0.5"/>
<path d="M389.97 649.7L389.97 631.79"
fill="none" stroke="black" stroke-width="0.5"/>
<path d="M389.97 254.11L389.97 236.2"
fill="none" stroke="black" stroke-width="0.5"/>
<path d="M291.07 748.6L291.07 730.68"
fill="none" stroke="black" stroke-width="0.5"/>
<path d="M291.07 353.01L291.07 335.09"
fill="none" stroke="black" stroke-width="0.5"/>
<path d="M192.18 451.91L192.18 433.99"
fill="none" stroke="black" stroke-width="0.5"/>
<path d="M192.18 56.32L192.18 38.4"
fill="none" stroke="black" stroke-width="0.5"/>
<path d="M93.28 550.8L93.28 532.89"
fill="none" stroke="black" stroke-width="0.5"/>
<path d="M93.28 155.21L93.28 137.3"
fill="none" stroke="black" stroke-width="0.5"/>
<path d="M665.86 779.09L680.2 764.76"
fill="none" stroke="black" stroke-width="0.5"/>
<path d="M764.76 680.19L779.09 665.86"
fill="none" stroke="black" stroke-width="0.5"/>
<path d="M270.27 779.09L284.61 764.76"
fill="none" stroke="black" stroke-width="0.5"/>
<path d="M369.17 680.19L383.5 665.86"
fill="none" stroke="black" stroke-width="0.5"/>
<path d="M468.07 581.3L482.4 566.96"
fill="none" stroke="black" stroke-width="0.5"/>
<path d="M566.96 482.4L581.3 468.07"
fill="none" stroke="black" stroke-width="0.5"/>
<path d="M665.86 383.5L680.2 369.17"
fill="none" stroke="black" stroke-width="0.5"/>
<path d="M764.76 284.61L779.09 270.27"
fill="none" stroke="black" stroke-width="0.5"/>
<path d="M72.48 581.3L86.81 566.96"
fill="none" stroke="black" stroke-width="0.5"/>
<path d="M171.38 482.4L185.71 468.07"
fill="none" stroke="black" stroke-width="0.5"/>
<path d="M270.27 383.5L284.61 369.17"
fill="none" stroke="black" stroke-width="0.5"/>
<path d="M369.17 284.61L383.5 270.27"
fill="none" stroke="black" stroke-width="0.5"/>
<path d="M468.07 185.71L482.4 171.37"
fill="none" stroke="black" stroke-width="0.5"/>
<path d="M566.96 86.81L581.3 72.48"
fill="none" stroke="black" stroke-width="0.5"/>
<path d="M72.48 185.71L86.81 171.37"
fill="none" stroke="black" stroke-width="0.5"/>
<path d="M171.38 86.81L185.71 72.48"
fill="none" stroke="black" stroke-width="0.5"/>
<path d="M72.48 502.39L86.81 516.73"
fill="none" stroke="black" stroke-width="0.5"/>
<path d="M270.27 700.19L284.61 714.52"
fill="none" stroke="black" stroke-width="0.5"/>
<path d="M171.38 403.5L185.71 417.83"
fill="none" stroke="black" stroke-width="0.5"/>
<path d="M369.17 601.29L383.5 615.63"
fill="none" stroke="black" stroke-width="0.5"/>
<path d="M72.48 106.81L86.81 121.14"
fill="none" stroke="black" stroke-width="0.5"/>
<path d="M270.27 304.6L284.61 318.93"
fill="none" stroke="black" stroke-width="0.5"/>
<path d="M468.07 502.39L482.4 516.73"
fill="none" stroke="black" stroke-width="0.5"/>
<path d="M665.86 700.19L680.2 714.52"
fill="none" stroke="black" stroke-width="0.5"/>
<path d="M171.38 7.91L185.71 22.24"
fill="none" stroke="black" stroke-width="0.5"/>
<path d="M369.17 205.7L383.5 220.04"
fill="none" stroke="black" stroke-width="0.5"/>
<path d="M566.96 403.5L581.3 417.83"
fill="none" stroke="black" stroke-width="0.5"/>
<path d="M764.76 601.29L779.09 615.63"
fill="none" stroke="black" stroke-width="0.5"/>
<path d="M468.07 106.81L482.4 121.14"
fill="none" stroke="black" stroke-width="0.5"/>
<path d="M665.86 304.6L680.2 318.93"
fill="none" stroke="black" stroke-width="0.5"/>
<path d="M566.96 7.91L581.3 22.24"
fill="none" stroke="black" stroke-width="0.5"/>
<path d="M764.76 205.7L779.09 220.04"
fill="none" stroke="black" stroke-width="0.5"/>
<path d="M121.14 7.91L106.81 22.24"
fill="none" stroke="black" stroke-width="0.5"/>
<path d="M22.25 106.81L7.91 121.14"
fill="none" stroke="black" stroke-width="0.5"/>
<path d="M516.73 7.91L502.4 22.24"
fill="none" stroke="black" stroke-width="0.5"/>
<path d="M417.83 106.81L403.5 121.14"
fill="none" stroke="black" stroke-width="0.5"/>
<path d="M318.94 205.7L304.6 220.04"
fill="none" stroke="black" stroke-width="0.5"/>
<path d="M220.04 304.6L205.7 318.93"
fill="none" stroke="black" stroke-width="0.5"/>
<path d="M121.14 403.5L106.81 417.83"
fill="none" stroke="black" stroke-width="0.5"/>
<path d="M22.25 502.39L7.91 516.73"
fill="none" stroke="black" stroke-width="0.5"/>
<path d="M714.52 205.7L700.19 220.04"
fill="none" stroke="black" stroke-width="0.5"/>
<path d="M615.63 304.6L601.29 318.93"
fill="none" stroke="black" stroke-width="0.5"/>
<path d="M516.73 403.5L502.4 417.83"
fill="none" stroke="black" stroke-width="0.5"/>
<path d="M417.83 502.39L403.5 516.73"
fill="none" stroke="black" stroke-width="0.5"/>
<path d="M318.94 601.29L304.6 615.63"
fill="none" stroke="black" stroke-width="0.5"/>
<path d="M220.04 700.19L205.7 714.52"
fill="none" stroke="black" stroke-width="0.5"/>
<path d="M714.52 601.29L700.19 615.63"
fill="none" stroke="black" stroke-width="0.5"/>
<path d="M615.63 700.19L601.29 714.52"
fill="none" stroke="black" stroke-width="0.5"/>
<path d="M714.52 284.61L700.19 270.27"
fill="none" stroke="black" stroke-width="0.5"/>
<path d="M516.73 86.81L502.4 72.48"
fill="none" stroke="black" stroke-width="0.5"/>
<path d="M615.63 383.5L601.29 369.17"
fill="none" stroke="black" stroke-width="0.5"/>
<path d="M417.83 185.71L403.5 171.37"
fill="none" stroke="black" stroke-width="0.5"/>
<path d="M714.52 680.19L700.19 665.86"
fill="none" stroke="black" stroke-width="0.5"/>
<path d="M516.73 482.4L502.4 468.07"
fill="none" stroke="black" stroke-width="0.5"/>
<path d="M318.94 284.61L304.6 270.27"
fill="none" stroke="black" stroke-width="0.5"/>
<path d="M121.14 86.81L106.81 72.48"
fill="none" stroke="black" stroke-width="0.5"/>
<path d="M615.63 779.09L601.29 764.76"
fill="none" stroke="black" stroke-width="0.5"/>
<path d="M417.83 581.3L403.5 566.96"
fill="none" stroke="black" stroke-width="0.5"/>
<path d="M220.04 383.5L205.7 369.17"
fill="none" stroke="black" stroke-width="0.5"/>
<path d="M22.25 185.71L7.91 171.37"
fill="none" stroke="black" stroke-width="0.5"/>
<path d="M318.94 680.19L304.6 665.86"
fill="none" stroke="black" stroke-width="0.5"/>
<path d="M121.14 482.4L106.81 468.07"
fill="none" stroke="black" stroke-width="0.5"/>
<path d="M220.04 779.09L205.7 764.76"
fill="none" stroke="black" stroke-width="0.5"/>
<path d="M22.25 581.3L7.91 566.96"
fill="none" stroke="black" stroke-width="0.5"/>
<path d="M649.7 785.56L665.86 779.09"
fill="none" stroke="black" stroke-width="0.5"/>
<path d="M748.6 686.66L764.76 680.19"
fill="none" stroke="black" stroke-width="0.5"/>
<path d="M254.11 785.56L270.27 779.09"
fill="none" stroke="black" stroke-width="0.5"/>
<path d="M353.01 686.66L369.17 680.19"
fill="none" stroke="black" stroke-width="0.5"/>
<path d="M451.91 587.76L468.07 581.3"
fill="none" stroke="black" stroke-width="0.5"/>
<path d="M550.8 488.86L566.96 482.4"
fill="none" stroke="black" stroke-width="0.5"/>
<path d="M649.7 389.97L665.86 383.5"
fill="none" stroke="black" stroke-width="0.5"/>
<path d="M56.32 587.76L72.48 581.3"
fill="none" stroke="black" stroke-width="0.5"/>
<path d="M748.6 291.07L764.76 284.61"
fill="none" stroke="black" stroke-width="0.5"/>
<path d="M155.22 488.86L171.38 482.4"
fill="none" stroke="black" stroke-width="0.5"/>
<path d="M254.11 389.97L270.27 383.5"
fill="none" stroke="black" stroke-width="0.5"/>
<path d="M353.01 291.07L369.17 284.61"
fill="none" stroke="black" stroke-width="0.5"/>
<path d="M451.91 192.17L468.07 185.71"
fill="none" stroke="black" stroke-width="0.5"/>
<path d="M550.8 93.28L566.96 86.81"
fill="none" stroke="black" stroke-width="0.5"/>
<path d="M56.32 192.17L72.48 185.71"
fill="none" stroke="black" stroke-width="0.5"/>
<path d="M155.22 93.28L171.38 86.81"
fill="none" stroke="black" stroke-width="0.5"/>
<path d="M93.28 155.21L86.81 171.37"
fill="none" stroke="black" stroke-width="0.5"/>
<path d="M192.18 56.32L185.71 72.48"
fill="none" stroke="black" stroke-width="0.5"/>
<path d="M93.28 550.8L86.81 566.96"
fill="none" stroke="black" stroke-width="0.5"/>
<path d="M192.18 451.91L185.71 468.07"
fill="none" stroke="black" stroke-width="0.5"/>
<path d="M291.07 353.01L284.61 369.17"
fill="none" stroke="black" stroke-width="0.5"/>
<path d="M389.97 254.11L383.5 270.27"
fill="none" stroke="black" stroke-width="0.5"/>
<path d="M488.87 155.21L482.4 171.37"
fill="none" stroke="black" stroke-width="0.5"/>
<path d="M291.07 748.6L284.61 764.76"
fill="none" stroke="black" stroke-width="0.5"/>
<path d="M587.76 56.32L581.3 72.48"
fill="none" stroke="black" stroke-width="0.5"/>
<path d="M389.97 649.7L383.5 665.86"
fill="none" stroke="black" stroke-width="0.5"/>
<path d="M488.87 550.8L482.4 566.96"
fill="none" stroke="black" stroke-width="0.5"/>
<path d="M587.76 451.91L581.3 468.07"
fill="none" stroke="black" stroke-width="0.5"/>
<path d="M686.66 353.01L680.2 369.17"
fill="none" stroke="black" stroke-width="0.5"/>
<path d="M785.56 254.11L779.09 270.27"
fill="none" stroke="black" stroke-width="0.5"/>
<path d="M686.66 748.6L680.2 764.76"
fill="none" stroke="black" stroke-width="0.5"/>
<path d="M785.56 649.7L779.09 665.86"
fill="none" stroke="black" stroke-width="0.5"/>
<path d="M785.56 236.2L779.09 220.04"
fill="none" stroke="black" stroke-width="0.5"/>
<path d="M587.76 38.4L581.3 22.24"
fill="none" stroke="black" stroke-width="0.5"/>
<path d="M686.66 335.09L680.2 318.93"
fill="none" stroke="black" stroke-width="0.5"/>
<path d="M785.56 631.79L779.09 615.63"
fill="none" stroke="black" stroke-width="0.5"/>
<path d="M488.87 137.3L482.4 121.14"
fill="none" stroke="black" stroke-width="0.5"/>
<path d="M587.76 433.99L581.3 417.83"
fill="none" stroke="black" stroke-width="0.5"/>
<path d="M686.66 730.68L680.2 714.52"
fill="none" stroke="black" stroke-width="0.5"/>
<path d="M389.97 236.2L383.5 220.04"
fill="none" stroke="black" stroke-width="0.5"/>
<path d="M488.87 532.89L482.4 516.73"
fill="none" stroke="black" stroke-width="0.5"/>
<path d="M192.18 38.4L185.71 22.24"
fill="none" stroke="black" stroke-width="0.5"/>
<path d="M291.07 335.09L284.61 318.93"
fill="none" stroke="black" stroke-width="0.5"/>
<path d="M389.97 631.79L383.5 615.63"
fill="none" stroke="black" stroke-width="0.5"/>
<path d="M93.28 137.3L86.81 121.14"
fill="none" stroke="black" stroke-width="0.5"/>
<path d="M192.18 433.99L185.71 417.83"
fill="none" stroke="black" stroke-width="0.5"/>
<path d="M291.07 730.68L284.61 714.52"
fill="none" stroke="black" stroke-width="0.5"/>
<path d="M93.28 532.89L86.81 516.73"
fill="none" stroke="black" stroke-width="0.5"/>
<path d="M254.11 693.72L270.27 700.19"
fill="none" stroke="black" stroke-width="0.5"/>
<path d="M56.32 495.93L72.48 502.39"
fill="none" stroke="black" stroke-width="0.5"/>
<path d="M353.01 594.83L369.17 601.29"
fill="none" stroke="black" stroke-width="0.5"/>
<path d="M649.7 693.72L665.86 700.19"
fill="none" stroke="black" stroke-width="0.5"/>
<path d="M155.22 397.03L171.38 403.5"
fill="none" stroke="black" stroke-width="0.5"/>
<path d="M451.91 495.93L468.07 502.39"
fill="none" stroke="black" stroke-width="0.5"/>
<path d="M748.6 594.83L764.76 601.29"
fill="none" stroke="black" stroke-width="0.5"/>
<path d="M254.11 298.14L270.27 304.6"
fill="none" stroke="black" stroke-width="0.5"/>
<path d="M550.8 397.03L566.96 403.5"
fill="none" stroke="black" stroke-width="0.5"/>
<path d="M56.32 100.34L72.48 106.81"
fill="none" stroke="black" stroke-width="0.5"/>
<path d="M353.01 199.24L369.17 205.7"
fill="none" stroke="black" stroke-width="0.5"/>
<path d="M649.7 298.14L665.86 304.6"
fill="none" stroke="black" stroke-width="0.5"/>
<path d="M155.22 1.44L171.38 7.91"
fill="none" stroke="black" stroke-width="0.5"/>
<path d="M451.91 100.34L468.07 106.81"
fill="none" stroke="black" stroke-width="0.5"/>
<path d="M748.6 199.24L764.76 205.7"
fill="none" stroke="black" stroke-width="0.5"/>
<path d="M550.8 1.44L566.96 7.91"
fill="none" stroke="black" stroke-width="0.5"/>
<path d="M137.3 1.44L121.14 7.91"
fill="none" stroke="black" stroke-width="0.5"/>
<path d="M38.41 100.34L22.25 106.8"
fill="none" stroke="black" stroke-width="0.5"/>
<path d="M532.89 1.45L516.73 7.91"
fill="none" stroke="black" stroke-width="0.5"/>
<path d="M434 100.34L417.84 106.81"
fill="none" stroke="black" stroke-width="0.5"/>
<path d="M335.1 199.24L318.94 205.7"
fill="none" stroke="black" stroke-width="0.5"/>
<path d="M236.2 298.14L220.04 304.6"
fill="none" stroke="black" stroke-width="0.5"/>
<path d="M137.3 397.03L121.14 403.5"
fill="none" stroke="black" stroke-width="0.5"/>
<path d="M730.69 199.24L714.53 205.71"
fill="none" stroke="black" stroke-width="0.5"/>
<path d="M38.4 495.93L22.25 502.39"
fill="none" stroke="black" stroke-width="0.5"/>
<path d="M631.79 298.14L615.63 304.6"
fill="none" stroke="black" stroke-width="0.5"/>
<path d="M532.89 397.03L516.73 403.5"
fill="none" stroke="black" stroke-width="0.5"/>
<path d="M433.99 495.93L417.83 502.39"
fill="none" stroke="black" stroke-width="0.5"/>
<path d="M335.1 594.83L318.94 601.29"
fill="none" stroke="black" stroke-width="0.5"/>
<path d="M236.2 693.72L220.04 700.19"
fill="none" stroke="black" stroke-width="0.5"/>
<path d="M730.68 594.83L714.52 601.29"
fill="none" stroke="black" stroke-width="0.5"/>
<path d="M631.79 693.73L615.63 700.19"
fill="none" stroke="black" stroke-width="0.5"/>
<path d="M693.72 631.78L700.19 615.62"
fill="none" stroke="black" stroke-width="0.5"/>
<path d="M594.83 730.68L601.29 714.52"
fill="none" stroke="black" stroke-width="0.5"/>
<path d="M693.72 236.19L700.19 220.03"
fill="none" stroke="black" stroke-width="0.5"/>
<path d="M594.82 335.09L601.29 318.93"
fill="none" stroke="black" stroke-width="0.5"/>
<path d="M495.93 433.99L502.39 417.83"
fill="none" stroke="black" stroke-width="0.5"/>
<path d="M397.03 532.89L403.5 516.73"
fill="none" stroke="black" stroke-width="0.5"/>
<path d="M298.14 631.78L304.6 615.62"
fill="none" stroke="black" stroke-width="0.5"/>
<path d="M495.93 38.4L502.39 22.24"
fill="none" stroke="black" stroke-width="0.5"/>
<path d="M199.24 730.68L205.7 714.52"
fill="none" stroke="black" stroke-width="0.5"/>
<path d="M397.03 137.3L403.49 121.14"
fill="none" stroke="black" stroke-width="0.5"/>
<path d="M298.13 236.19L304.6 220.03"
fill="none" stroke="black" stroke-width="0.5"/>
<path d="M199.24 335.09L205.7 318.93"
fill="none" stroke="black" stroke-width="0.5"/>
<path d="M100.34 433.99L106.8 417.83"
fill="none" stroke="black" stroke-width="0.5"/>
<path d="M1.45 532.89L7.91 516.73"
fill="none" stroke="black" stroke-width="0.5"/>
<path d="M100.34 38.4L106.8 22.24"
fill="none" stroke="black" stroke-width="0.5"/>
<path d="M1.44 137.3L7.9 121.14"
fill="none" stroke="black" stroke-width="0.5"/>
<path d="M1.45 550.8L7.91 566.96"
fill="none" stroke="black" stroke-width="0.5"/>
<path d="M199.24 748.6L205.7 764.76"
fill="none" stroke="black" stroke-width="0.5"/>
<path d="M100.35 451.91L106.81 468.07"
fill="none" stroke="black" stroke-width="0.5"/>
<path d="M1.45 155.21L7.91 171.37"
fill="none" stroke="black" stroke-width="0.5"/>
<path d="M298.14 649.7L304.6 665.86"
fill="none" stroke="black" stroke-width="0.5"/>
<path d="M199.24 353.01L205.7 369.17"
fill="none" stroke="black" stroke-width="0.5"/>
<path d="M100.35 56.32L106.81 72.48"
fill="none" stroke="black" stroke-width="0.5"/>
<path d="M397.03 550.81L403.5 566.97"
fill="none" stroke="black" stroke-width="0.5"/>
<path d="M298.14 254.11L304.6 270.27"
fill="none" stroke="black" stroke-width="0.5"/>
<path d="M594.83 748.6L601.29 764.76"
fill="none" stroke="black" stroke-width="0.5"/>
<path d="M495.93 451.91L502.4 468.07"
fill="none" stroke="black" stroke-width="0.5"/>
<path d="M397.04 155.22L403.5 171.38"
fill="none" stroke="black" stroke-width="0.5"/>
<path d="M693.72 649.7L700.19 665.86"
fill="none" stroke="black" stroke-width="0.5"/>
<path d="M594.83 353.01L601.29 369.17"
fill="none" stroke="black" stroke-width="0.5"/>
<path d="M495.93 56.32L502.4 72.48"
fill="none" stroke="black" stroke-width="0.5"/>
<path d="M693.73 254.11L700.19 270.27"
fill="none" stroke="black" stroke-width="0.5"/>
<path d="M532.88 93.27L516.72 86.81"
fill="none" stroke="black" stroke-width="0.5"/>
<path d="M730.68 291.07L714.52 284.6"
fill="none" stroke="black" stroke-width="0.5"/>
<path d="M433.99 192.17L417.83 185.71"
fill="none" stroke="black" stroke-width="0.5"/>
<path d="M137.3 93.28L121.14 86.81"
fill="none" stroke="black" stroke-width="0.5"/>
<path d="M631.78 389.97L615.62 383.5"
fill="none" stroke="black" stroke-width="0.5"/>
<path d="M335.09 291.07L318.93 284.61"
fill="none" stroke="black" stroke-width="0.5"/>
<path d="M38.4 192.17L22.24 185.71"
fill="none" stroke="black" stroke-width="0.5"/>
<path d="M532.89 488.86L516.73 482.4"
fill="none" stroke="black" stroke-width="0.5"/>
<path d="M236.2 389.97L220.04 383.5"
fill="none" stroke="black" stroke-width="0.5"/>
<path d="M730.68 686.66L714.52 680.19"
fill="none" stroke="black" stroke-width="0.5"/>
<path d="M433.99 587.76L417.83 581.3"
fill="none" stroke="black" stroke-width="0.5"/>
<path d="M137.3 488.86L121.14 482.4"
fill="none" stroke="black" stroke-width="0.5"/>
<path d="M631.79 785.55L615.63 779.09"
fill="none" stroke="black" stroke-width="0.5"/>
<path d="M335.09 686.66L318.93 680.19"
fill="none" stroke="black" stroke-width="0.5"/>
<path d="M38.4 587.76L22.24 581.3"
fill="none" stroke="black" stroke-width="0.5"/>
<path d="M236.2 785.56L220.04 779.09"
fill="none" stroke="black" stroke-width="0.5"/>
</svg>
