<?xml version="1.0" encoding="UTF-8"?>
<svg xmlns="http://www.w3.org/2000/svg" width="99.949mm" height="99.949mm" viewBox="0.0 0.0 787.000 787.000" preserveAspectRatio="none" version="1.1">
  <title>Produce by Acme CAD Converter</title>
  <desc>Produce by Acme CAD Converter</desc>
<path d="M76.03 785.56L112.19 785.56"
fill="none" stroke="black" stroke-width="0.5"/>
<path d="M475.22 785.56L511.37 785.56"
fill="none" stroke="black" stroke-width="0.5"/>
<path d="M275.63 585.96L311.78 585.96"
fill="none" stroke="black" stroke-width="0.5"/>
<path d="M674.81 585.96L710.97 585.96"
fill="none" stroke="black" stroke-width="0.5"/>
<path d="M76.03 386.37L112.19 386.37"
fill="none" stroke="black" stroke-width="0.5"/>
<path d="M475.22 386.37L511.37 386.37"
fill="none" stroke="black" stroke-width="0.5"/>
<path d="M275.63 186.78L311.78 186.78"
fill="none" stroke="black" stroke-width="0.5"/>
<path d="M674.81 186.78L710.97 186.78"
fill="none" stroke="black" stroke-width="0.5"/>
<path d="M76.03 600.22L112.19 600.22"
fill="none" stroke="black" stroke-width="0.5"/>
<path d="M475.22 600.22L511.37 600.22"
fill="none" stroke="black" stroke-width="0.5"/>
<path d="M275.63 400.63L311.78 400.63"
fill="none" stroke="black" stroke-width="0.5"/>
<path d="M674.81 400.63L710.97 400.63"
fill="none" stroke="black" stroke-width="0.5"/>
<path d="M76.03 201.04L112.19 201.04"
fill="none" stroke="black" stroke-width="0.5"/>
<path d="M475.22 201.04L511.37 201.04"
fill="none" stroke="black" stroke-width="0.5"/>
<path d="M275.63 1.44L311.78 1.44"
fill="none" stroke="black" stroke-width="0.5"/>
<path d="M674.81 1.44L710.97 1.44"
fill="none" stroke="black" stroke-width="0.5"/>
<path d="M600.22 511.37L600.22 475.22"
fill="none" stroke="black" stroke-width="0.5"/>
<path d="M600.22 112.19L600.22 76.03"
fill="none" stroke="black" stroke-width="0.5"/>
<path d="M400.63 710.97L400.63 674.81"
fill="none" stroke="black" stroke-width="0.5"/>
<path d="M400.63 311.78L400.63 275.63"
fill="none" stroke="black" stroke-width="0.5"/>
<path d="M201.04 511.37L201.04 475.22"
fill="none" stroke="black" stroke-width="0.5"/>
<path d="M201.04 112.19L201.04 76.03"
fill="none" stroke="black" stroke-width="0.5"/>
<path d="M1.44 710.97L1.44 674.81"
fill="none" stroke="black" stroke-width="0.5"/>
<path d="M1.44 311.78L1.44 275.63"
fill="none" stroke="black" stroke-width="0.5"/>
<path d="M785.56 511.37L785.56 475.22"
fill="none" stroke="black" stroke-width="0.5"/>
<path d="M785.56 112.19L785.56 76.03"
fill="none" stroke="black" stroke-width="0.5"/>
<path d="M585.96 710.97L585.96 674.81"
fill="none" stroke="black" stroke-width="0.5"/>
<path d="M585.96 311.78L585.96 275.63"
fill="none" stroke="black" stroke-width="0.5"/>
<path d="M386.37 511.37L386.37 475.22"
fill="none" stroke="black" stroke-width="0.5"/>
<path d="M386.37 112.19L386.37 76.03"
fill="none" stroke="black" stroke-width="0.5"/>
<path d="M186.78 710.97L186.78 674.81"
fill="none" stroke="black" stroke-width="0.5"/>
<path d="M186.78 311.78L186.78 275.63"
fill="none" stroke="black" stroke-width="0.5"/>
<path d="M543.99 772.51L572.92 743.58"
fill="none" stroke="black" stroke-width="0.5"/>
<path d="M743.58 572.92L772.51 543.99"
fill="none" stroke="black" stroke-width="0.5"/>
<path d="M144.8 772.51L173.73 743.58"
fill="none" stroke="black" stroke-width="0.5"/>
<path d="M344.39 572.92L373.32 543.99"
fill="none" stroke="black" stroke-width="0.5"/>
<path d="M543.99 373.32L572.92 344.39"
fill="none" stroke="black" stroke-width="0.5"/>
<path d="M743.58 173.73L772.51 144.8"
fill="none" stroke="black" stroke-width="0.5"/>
<path d="M144.8 373.32L173.73 344.39"
fill="none" stroke="black" stroke-width="0.5"/>
<path d="M344.39 173.73L373.32 144.8"
fill="none" stroke="black" stroke-width="0.5"/>
<path d="M144.8 613.27L173.73 642.2"
fill="none" stroke="black" stroke-width="0.5"/>
<path d="M144.8 214.08L173.73 243.01"
fill="none" stroke="black" stroke-width="0.5"/>
<path d="M344.39 413.68L373.32 442.61"
fill="none" stroke="black" stroke-width="0.5"/>
<path d="M543.99 613.27L572.92 642.2"
fill="none" stroke="black" stroke-width="0.5"/>
<path d="M344.39 14.49L373.32 43.42"
fill="none" stroke="black" stroke-width="0.5"/>
<path d="M543.99 214.08L572.92 243.01"
fill="none" stroke="black" stroke-width="0.5"/>
<path d="M743.58 413.68L772.51 442.61"
fill="none" stroke="black" stroke-width="0.5"/>
<path d="M743.58 14.49L772.51 43.42"
fill="none" stroke="black" stroke-width="0.5"/>
<path d="M243.01 14.49L214.08 43.42"
fill="none" stroke="black" stroke-width="0.5"/>
<path d="M43.42 214.08L14.49 243.01"
fill="none" stroke="black" stroke-width="0.5"/>
<path d="M642.2 14.49L613.27 43.42"
fill="none" stroke="black" stroke-width="0.5"/>
<path d="M442.61 214.08L413.68 243.01"
fill="none" stroke="black" stroke-width="0.5"/>
<path d="M243.01 413.68L214.08 442.61"
fill="none" stroke="black" stroke-width="0.5"/>
<path d="M43.42 613.27L14.49 642.2"
fill="none" stroke="black" stroke-width="0.5"/>
<path d="M642.2 413.68L613.27 442.61"
fill="none" stroke="black" stroke-width="0.5"/>
<path d="M442.61 613.27L413.68 642.2"
fill="none" stroke="black" stroke-width="0.5"/>
<path d="M642.2 173.73L613.27 144.8"
fill="none" stroke="black" stroke-width="0.5"/>
<path d="M642.2 572.92L613.27 543.99"
fill="none" stroke="black" stroke-width="0.5"/>
<path d="M442.61 373.32L413.68 344.39"
fill="none" stroke="black" stroke-width="0.5"/>
<path d="M243.01 173.73L214.08 144.8"
fill="none" stroke="black" stroke-width="0.5"/>
<path d="M442.61 772.51L413.68 743.58"
fill="none" stroke="black" stroke-width="0.5"/>
<path d="M243.01 572.92L214.08 543.99"
fill="none" stroke="black" stroke-width="0.5"/>
<path d="M43.42 373.32L14.49 344.39"
fill="none" stroke="black" stroke-width="0.5"/>
<path d="M43.42 772.51L14.49 743.58"
fill="none" stroke="black" stroke-width="0.5"/>
<path d="M511.37 785.56L543.99 772.51"
fill="none" stroke="black" stroke-width="0.5"/>
<path d="M710.97 585.96L743.58 572.92"
fill="none" stroke="black" stroke-width="0.5"/>
<path d="M112.19 785.56L144.8 772.51"
fill="none" stroke="black" stroke-width="0.5"/>
<path d="M311.78 585.96L344.39 572.92"
fill="none" stroke="black" stroke-width="0.5"/>
<path d="M511.37 386.37L543.99 373.32"
fill="none" stroke="black" stroke-width="0.5"/>
<path d="M710.97 186.78L743.58 173.73"
fill="none" stroke="black" stroke-width="0.5"/>
<path d="M112.19 386.37L144.8 373.32"
fill="none" stroke="black" stroke-width="0.5"/>
<path d="M311.78 186.78L344.39 173.73"
fill="none" stroke="black" stroke-width="0.5"/>
<path d="M186.78 311.78L173.73 344.39"
fill="none" stroke="black" stroke-width="0.5"/>
<path d="M386.37 112.19L373.32 144.8"
fill="none" stroke="black" stroke-width="0.5"/>
<path d="M186.78 710.97L173.73 743.58"
fill="none" stroke="black" stroke-width="0.5"/>
<path d="M386.37 511.37L373.32 543.99"
fill="none" stroke="black" stroke-width="0.5"/>
<path d="M585.96 311.78L572.92 344.39"
fill="none" stroke="black" stroke-width="0.5"/>
<path d="M785.56 112.19L772.51 144.8"
fill="none" stroke="black" stroke-width="0.5"/>
<path d="M585.96 710.97L572.92 743.58"
fill="none" stroke="black" stroke-width="0.5"/>
<path d="M785.56 511.37L772.51 543.99"
fill="none" stroke="black" stroke-width="0.5"/>
<path d="M785.56 76.03L772.51 43.42"
fill="none" stroke="black" stroke-width="0.5"/>
<path d="M785.56 475.22L772.51 442.61"
fill="none" stroke="black" stroke-width="0.5"/>
<path d="M585.96 275.63L572.92 243.01"
fill="none" stroke="black" stroke-width="0.5"/>
<path d="M386.37 76.03L373.32 43.42"
fill="none" stroke="black" stroke-width="0.5"/>
<path d="M585.96 674.81L572.92 642.2"
fill="none" stroke="black" stroke-width="0.5"/>
<path d="M386.37 475.22L373.32 442.61"
fill="none" stroke="black" stroke-width="0.5"/>
<path d="M186.78 275.63L173.73 243.01"
fill="none" stroke="black" stroke-width="0.5"/>
<path d="M186.78 674.81L173.73 642.2"
fill="none" stroke="black" stroke-width="0.5"/>
<path d="M112.19 600.22L144.8 613.27"
fill="none" stroke="black" stroke-width="0.5"/>
<path d="M511.37 600.22L543.99 613.27"
fill="none" stroke="black" stroke-width="0.5"/>
<path d="M311.78 400.63L344.39 413.68"
fill="none" stroke="black" stroke-width="0.5"/>
<path d="M112.19 201.04L144.8 214.08"
fill="none" stroke="black" stroke-width="0.5"/>
<path d="M710.97 400.63L743.58 413.68"
fill="none" stroke="black" stroke-width="0.5"/>
<path d="M511.37 201.04L543.99 214.08"
fill="none" stroke="black" stroke-width="0.5"/>
<path d="M311.78 1.44L344.39 14.49"
fill="none" stroke="black" stroke-width="0.5"/>
<path d="M710.97 1.44L743.58 14.49"
fill="none" stroke="black" stroke-width="0.5"/>
<path d="M275.63 1.44L243.01 14.49"
fill="none" stroke="black" stroke-width="0.5"/>
<path d="M76.03 201.04L43.42 214.08"
fill="none" stroke="black" stroke-width="0.5"/>
<path d="M674.81 1.45L642.2 14.49"
fill="none" stroke="black" stroke-width="0.5"/>
<path d="M475.22 201.04L442.61 214.08"
fill="none" stroke="black" stroke-width="0.5"/>
<path d="M275.63 400.63L243.01 413.68"
fill="none" stroke="black" stroke-width="0.5"/>
<path d="M76.03 600.22L43.42 613.27"
fill="none" stroke="black" stroke-width="0.5"/>
<path d="M674.81 400.63L642.2 413.68"
fill="none" stroke="black" stroke-width="0.5"/>
<path d="M475.22 600.22L442.61 613.27"
fill="none" stroke="black" stroke-width="0.5"/>
<path d="M600.22 475.21L613.26 442.6"
fill="none" stroke="black" stroke-width="0.5"/>
<path d="M400.63 674.81L413.67 642.19"
fill="none" stroke="black" stroke-width="0.5"/>
<path d="M600.22 76.03L613.26 43.41"
fill="none" stroke="black" stroke-width="0.5"/>
<path d="M400.63 275.62L413.67 243.01"
fill="none" stroke="black" stroke-width="0.5"/>
<path d="M201.04 475.21L214.08 442.6"
fill="none" stroke="black" stroke-width="0.5"/>
<path d="M1.44 674.81L14.48 642.2"
fill="none" stroke="black" stroke-width="0.5"/>
<path d="M201.03 76.03L214.08 43.41"
fill="none" stroke="black" stroke-width="0.5"/>
<path d="M1.44 275.63L14.48 243.01"
fill="none" stroke="black" stroke-width="0.5"/>
<path d="M1.44 710.97L14.49 743.58"
fill="none" stroke="black" stroke-width="0.5"/>
<path d="M1.44 311.78L14.49 344.39"
fill="none" stroke="black" stroke-width="0.5"/>
<path d="M201.04 511.38L214.08 543.99"
fill="none" stroke="black" stroke-width="0.5"/>
<path d="M400.63 710.97L413.68 743.59"
fill="none" stroke="black" stroke-width="0.5"/>
<path d="M201.04 112.19L214.08 144.81"
fill="none" stroke="black" stroke-width="0.5"/>
<path d="M400.63 311.79L413.68 344.4"
fill="none" stroke="black" stroke-width="0.5"/>
<path d="M600.22 511.38L613.27 543.99"
fill="none" stroke="black" stroke-width="0.5"/>
<path d="M600.23 112.19L613.27 144.81"
fill="none" stroke="black" stroke-width="0.5"/>
<path d="M674.81 186.77L642.19 173.73"
fill="none" stroke="black" stroke-width="0.5"/>
<path d="M275.62 186.78L243.01 173.73"
fill="none" stroke="black" stroke-width="0.5"/>
<path d="M475.21 386.37L442.6 373.32"
fill="none" stroke="black" stroke-width="0.5"/>
<path d="M674.81 585.96L642.19 572.92"
fill="none" stroke="black" stroke-width="0.5"/>
<path d="M76.03 386.37L43.41 373.32"
fill="none" stroke="black" stroke-width="0.5"/>
<path d="M275.62 585.96L243.01 572.92"
fill="none" stroke="black" stroke-width="0.5"/>
<path d="M475.22 785.56L442.61 772.51"
fill="none" stroke="black" stroke-width="0.5"/>
<path d="M76.03 785.56L43.42 772.51"
fill="none" stroke="black" stroke-width="0.5"/>
</svg>
