<?xml version="1.0" encoding="UTF-8"?>
<svg xmlns="http://www.w3.org/2000/svg" width="99.949mm" height="99.949mm" viewBox="0.0 0.0 787.000 787.000" preserveAspectRatio="none" version="1.1">
  <title>Produce by Acme CAD Converter</title>
  <desc>Produce by Acme CAD Converter</desc>
<path d="M40.96 764.36L53.76 764.36"
fill="none" stroke="black" stroke-width="0.5"/>
<path d="M436.55 764.36L449.35 764.36"
fill="none" stroke="black" stroke-width="0.5"/>
<path d="M139.86 665.47L152.66 665.47"
fill="none" stroke="black" stroke-width="0.5"/>
<path d="M535.45 665.47L548.25 665.47"
fill="none" stroke="black" stroke-width="0.5"/>
<path d="M238.76 566.57L251.56 566.57"
fill="none" stroke="black" stroke-width="0.5"/>
<path d="M634.34 566.57L647.14 566.57"
fill="none" stroke="black" stroke-width="0.5"/>
<path d="M337.65 467.67L350.45 467.67"
fill="none" stroke="black" stroke-width="0.5"/>
<path d="M733.24 467.67L746.04 467.67"
fill="none" stroke="black" stroke-width="0.5"/>
<path d="M40.96 368.78L53.76 368.78"
fill="none" stroke="black" stroke-width="0.5"/>
<path d="M436.55 368.78L449.35 368.78"
fill="none" stroke="black" stroke-width="0.5"/>
<path d="M139.86 269.88L152.66 269.88"
fill="none" stroke="black" stroke-width="0.5"/>
<path d="M535.45 269.88L548.25 269.88"
fill="none" stroke="black" stroke-width="0.5"/>
<path d="M238.76 170.98L251.56 170.98"
fill="none" stroke="black" stroke-width="0.5"/>
<path d="M634.34 170.98L647.14 170.98"
fill="none" stroke="black" stroke-width="0.5"/>
<path d="M337.65 72.08L350.45 72.08"
fill="none" stroke="black" stroke-width="0.5"/>
<path d="M733.24 72.08L746.04 72.08"
fill="none" stroke="black" stroke-width="0.5"/>
<path d="M40.96 714.92L53.76 714.92"
fill="none" stroke="black" stroke-width="0.5"/>
<path d="M436.55 714.92L449.35 714.92"
fill="none" stroke="black" stroke-width="0.5"/>
<path d="M139.86 616.02L152.66 616.02"
fill="none" stroke="black" stroke-width="0.5"/>
<path d="M535.45 616.02L548.25 616.02"
fill="none" stroke="black" stroke-width="0.5"/>
<path d="M238.76 517.12L251.56 517.12"
fill="none" stroke="black" stroke-width="0.5"/>
<path d="M634.34 517.12L647.14 517.12"
fill="none" stroke="black" stroke-width="0.5"/>
<path d="M337.65 418.22L350.45 418.22"
fill="none" stroke="black" stroke-width="0.5"/>
<path d="M733.24 418.22L746.04 418.22"
fill="none" stroke="black" stroke-width="0.5"/>
<path d="M40.96 319.33L53.76 319.33"
fill="none" stroke="black" stroke-width="0.5"/>
<path d="M436.55 319.33L449.35 319.33"
fill="none" stroke="black" stroke-width="0.5"/>
<path d="M139.86 220.43L152.66 220.43"
fill="none" stroke="black" stroke-width="0.5"/>
<path d="M535.45 220.43L548.25 220.43"
fill="none" stroke="black" stroke-width="0.5"/>
<path d="M238.76 121.53L251.56 121.53"
fill="none" stroke="black" stroke-width="0.5"/>
<path d="M634.34 121.53L647.14 121.53"
fill="none" stroke="black" stroke-width="0.5"/>
<path d="M337.65 22.64L350.45 22.64"
fill="none" stroke="black" stroke-width="0.5"/>
<path d="M733.24 22.64L746.04 22.64"
fill="none" stroke="black" stroke-width="0.5"/>
<path d="M714.92 449.35L714.92 436.55"
fill="none" stroke="black" stroke-width="0.5"/>
<path d="M714.92 53.76L714.92 40.96"
fill="none" stroke="black" stroke-width="0.5"/>
<path d="M616.02 548.25L616.02 535.45"
fill="none" stroke="black" stroke-width="0.5"/>
<path d="M616.02 152.66L616.02 139.86"
fill="none" stroke="black" stroke-width="0.5"/>
<path d="M517.12 647.14L517.12 634.34"
fill="none" stroke="black" stroke-width="0.5"/>
<path d="M517.12 251.55L517.12 238.75"
fill="none" stroke="black" stroke-width="0.5"/>
<path d="M418.23 746.04L418.23 733.24"
fill="none" stroke="black" stroke-width="0.5"/>
<path d="M418.23 350.45L418.23 337.65"
fill="none" stroke="black" stroke-width="0.5"/>
<path d="M319.33 449.35L319.33 436.55"
fill="none" stroke="black" stroke-width="0.5"/>
<path d="M319.33 53.76L319.33 40.96"
fill="none" stroke="black" stroke-width="0.5"/>
<path d="M220.43 548.25L220.43 535.45"
fill="none" stroke="black" stroke-width="0.5"/>
<path d="M220.43 152.66L220.43 139.86"
fill="none" stroke="black" stroke-width="0.5"/>
<path d="M121.53 647.14L121.53 634.34"
fill="none" stroke="black" stroke-width="0.5"/>
<path d="M121.53 251.55L121.53 238.75"
fill="none" stroke="black" stroke-width="0.5"/>
<path d="M22.64 746.04L22.64 733.24"
fill="none" stroke="black" stroke-width="0.5"/>
<path d="M22.64 350.45L22.64 337.65"
fill="none" stroke="black" stroke-width="0.5"/>
<path d="M764.37 449.35L764.37 436.55"
fill="none" stroke="black" stroke-width="0.5"/>
<path d="M764.37 53.76L764.37 40.96"
fill="none" stroke="black" stroke-width="0.5"/>
<path d="M665.47 548.25L665.47 535.45"
fill="none" stroke="black" stroke-width="0.5"/>
<path d="M665.47 152.66L665.47 139.86"
fill="none" stroke="black" stroke-width="0.5"/>
<path d="M566.57 647.14L566.57 634.34"
fill="none" stroke="black" stroke-width="0.5"/>
<path d="M566.57 251.55L566.57 238.75"
fill="none" stroke="black" stroke-width="0.5"/>
<path d="M467.67 746.04L467.67 733.24"
fill="none" stroke="black" stroke-width="0.5"/>
<path d="M467.67 350.45L467.67 337.65"
fill="none" stroke="black" stroke-width="0.5"/>
<path d="M368.78 449.35L368.78 436.55"
fill="none" stroke="black" stroke-width="0.5"/>
<path d="M368.78 53.76L368.78 40.96"
fill="none" stroke="black" stroke-width="0.5"/>
<path d="M269.88 548.25L269.88 535.45"
fill="none" stroke="black" stroke-width="0.5"/>
<path d="M269.88 152.66L269.88 139.86"
fill="none" stroke="black" stroke-width="0.5"/>
<path d="M170.98 647.14L170.98 634.34"
fill="none" stroke="black" stroke-width="0.5"/>
<path d="M170.98 251.55L170.98 238.75"
fill="none" stroke="black" stroke-width="0.5"/>
<path d="M72.09 746.04L72.09 733.24"
fill="none" stroke="black" stroke-width="0.5"/>
<path d="M72.09 350.45L72.09 337.65"
fill="none" stroke="black" stroke-width="0.5"/>
<path d="M449.35 764.36L461.01 757.7"
fill="none" stroke="black" stroke-width="0.5"/>
<path d="M548.25 665.47L559.91 658.8"
fill="none" stroke="black" stroke-width="0.5"/>
<path d="M647.14 566.57L658.81 559.91"
fill="none" stroke="black" stroke-width="0.5"/>
<path d="M746.04 467.67L757.7 461.01"
fill="none" stroke="black" stroke-width="0.5"/>
<path d="M53.76 764.36L65.42 757.7"
fill="none" stroke="black" stroke-width="0.5"/>
<path d="M152.66 665.47L164.32 658.8"
fill="none" stroke="black" stroke-width="0.5"/>
<path d="M251.56 566.57L263.22 559.91"
fill="none" stroke="black" stroke-width="0.5"/>
<path d="M350.45 467.67L362.11 461.01"
fill="none" stroke="black" stroke-width="0.5"/>
<path d="M449.35 368.78L461.01 362.11"
fill="none" stroke="black" stroke-width="0.5"/>
<path d="M548.25 269.88L559.91 263.22"
fill="none" stroke="black" stroke-width="0.5"/>
<path d="M647.14 170.98L658.81 164.32"
fill="none" stroke="black" stroke-width="0.5"/>
<path d="M746.04 72.08L757.7 65.42"
fill="none" stroke="black" stroke-width="0.5"/>
<path d="M53.76 368.78L65.42 362.11"
fill="none" stroke="black" stroke-width="0.5"/>
<path d="M152.66 269.88L164.32 263.22"
fill="none" stroke="black" stroke-width="0.5"/>
<path d="M251.56 170.98L263.22 164.32"
fill="none" stroke="black" stroke-width="0.5"/>
<path d="M350.45 72.08L362.11 65.42"
fill="none" stroke="black" stroke-width="0.5"/>
<path d="M72.09 350.45L65.42 362.11"
fill="none" stroke="black" stroke-width="0.5"/>
<path d="M170.98 251.55L164.32 263.22"
fill="none" stroke="black" stroke-width="0.5"/>
<path d="M269.88 152.66L263.22 164.32"
fill="none" stroke="black" stroke-width="0.5"/>
<path d="M368.78 53.76L362.11 65.42"
fill="none" stroke="black" stroke-width="0.5"/>
<path d="M72.09 746.04L65.42 757.7"
fill="none" stroke="black" stroke-width="0.5"/>
<path d="M170.98 647.14L164.32 658.8"
fill="none" stroke="black" stroke-width="0.5"/>
<path d="M269.88 548.25L263.22 559.91"
fill="none" stroke="black" stroke-width="0.5"/>
<path d="M368.78 449.35L362.11 461.01"
fill="none" stroke="black" stroke-width="0.5"/>
<path d="M467.67 350.45L461.01 362.11"
fill="none" stroke="black" stroke-width="0.5"/>
<path d="M566.57 251.55L559.91 263.22"
fill="none" stroke="black" stroke-width="0.5"/>
<path d="M665.47 152.66L658.81 164.32"
fill="none" stroke="black" stroke-width="0.5"/>
<path d="M764.37 53.76L757.7 65.42"
fill="none" stroke="black" stroke-width="0.5"/>
<path d="M467.67 746.04L461.01 757.7"
fill="none" stroke="black" stroke-width="0.5"/>
<path d="M566.57 647.14L559.91 658.8"
fill="none" stroke="black" stroke-width="0.5"/>
<path d="M665.47 548.25L658.81 559.91"
fill="none" stroke="black" stroke-width="0.5"/>
<path d="M764.37 449.35L757.7 461.01"
fill="none" stroke="black" stroke-width="0.5"/>
<path d="M764.37 40.96L757.7 29.3"
fill="none" stroke="black" stroke-width="0.5"/>
<path d="M665.47 139.86L658.81 128.2"
fill="none" stroke="black" stroke-width="0.5"/>
<path d="M764.37 436.55L757.7 424.89"
fill="none" stroke="black" stroke-width="0.5"/>
<path d="M566.57 238.75L559.91 227.09"
fill="none" stroke="black" stroke-width="0.5"/>
<path d="M665.47 535.45L658.81 523.78"
fill="none" stroke="black" stroke-width="0.5"/>
<path d="M368.78 40.96L362.11 29.3"
fill="none" stroke="black" stroke-width="0.5"/>
<path d="M467.67 337.65L461.01 325.99"
fill="none" stroke="black" stroke-width="0.5"/>
<path d="M566.57 634.34L559.91 622.68"
fill="none" stroke="black" stroke-width="0.5"/>
<path d="M269.88 139.86L263.22 128.2"
fill="none" stroke="black" stroke-width="0.5"/>
<path d="M368.78 436.55L362.11 424.89"
fill="none" stroke="black" stroke-width="0.5"/>
<path d="M467.67 733.24L461.01 721.58"
fill="none" stroke="black" stroke-width="0.5"/>
<path d="M170.98 238.75L164.32 227.09"
fill="none" stroke="black" stroke-width="0.5"/>
<path d="M269.88 535.45L263.22 523.78"
fill="none" stroke="black" stroke-width="0.5"/>
<path d="M72.09 337.65L65.42 325.99"
fill="none" stroke="black" stroke-width="0.5"/>
<path d="M170.98 634.34L164.32 622.68"
fill="none" stroke="black" stroke-width="0.5"/>
<path d="M72.09 733.24L65.42 721.58"
fill="none" stroke="black" stroke-width="0.5"/>
<path d="M53.76 714.92L65.42 721.58"
fill="none" stroke="black" stroke-width="0.5"/>
<path d="M152.66 616.02L164.32 622.68"
fill="none" stroke="black" stroke-width="0.5"/>
<path d="M449.35 714.92L461.01 721.58"
fill="none" stroke="black" stroke-width="0.5"/>
<path d="M251.56 517.12L263.22 523.78"
fill="none" stroke="black" stroke-width="0.5"/>
<path d="M548.25 616.02L559.91 622.68"
fill="none" stroke="black" stroke-width="0.5"/>
<path d="M53.76 319.33L65.42 325.99"
fill="none" stroke="black" stroke-width="0.5"/>
<path d="M350.45 418.22L362.11 424.89"
fill="none" stroke="black" stroke-width="0.5"/>
<path d="M647.14 517.12L658.81 523.78"
fill="none" stroke="black" stroke-width="0.5"/>
<path d="M152.66 220.43L164.32 227.09"
fill="none" stroke="black" stroke-width="0.5"/>
<path d="M449.35 319.33L461.01 325.99"
fill="none" stroke="black" stroke-width="0.5"/>
<path d="M746.04 418.22L757.7 424.89"
fill="none" stroke="black" stroke-width="0.5"/>
<path d="M251.56 121.53L263.22 128.2"
fill="none" stroke="black" stroke-width="0.5"/>
<path d="M548.25 220.43L559.91 227.09"
fill="none" stroke="black" stroke-width="0.5"/>
<path d="M350.45 22.64L362.11 29.3"
fill="none" stroke="black" stroke-width="0.5"/>
<path d="M647.14 121.53L658.81 128.2"
fill="none" stroke="black" stroke-width="0.5"/>
<path d="M746.04 22.64L757.7 29.3"
fill="none" stroke="black" stroke-width="0.5"/>
<path d="M337.65 22.64L325.99 29.3"
fill="none" stroke="black" stroke-width="0.5"/>
<path d="M238.76 121.53L227.09 128.2"
fill="none" stroke="black" stroke-width="0.5"/>
<path d="M139.86 220.43L128.2 227.09"
fill="none" stroke="black" stroke-width="0.5"/>
<path d="M40.96 319.33L29.3 325.99"
fill="none" stroke="black" stroke-width="0.5"/>
<path d="M733.24 22.64L721.58 29.3"
fill="none" stroke="black" stroke-width="0.5"/>
<path d="M634.34 121.53L622.68 128.2"
fill="none" stroke="black" stroke-width="0.5"/>
<path d="M535.45 220.43L523.79 227.09"
fill="none" stroke="black" stroke-width="0.5"/>
<path d="M436.55 319.33L424.89 325.99"
fill="none" stroke="black" stroke-width="0.5"/>
<path d="M337.65 418.22L325.99 424.89"
fill="none" stroke="black" stroke-width="0.5"/>
<path d="M238.76 517.12L227.09 523.78"
fill="none" stroke="black" stroke-width="0.5"/>
<path d="M139.86 616.02L128.2 622.68"
fill="none" stroke="black" stroke-width="0.5"/>
<path d="M40.96 714.92L29.3 721.58"
fill="none" stroke="black" stroke-width="0.5"/>
<path d="M733.24 418.22L721.58 424.89"
fill="none" stroke="black" stroke-width="0.5"/>
<path d="M634.34 517.12L622.68 523.78"
fill="none" stroke="black" stroke-width="0.5"/>
<path d="M535.45 616.02L523.79 622.68"
fill="none" stroke="black" stroke-width="0.5"/>
<path d="M436.55 714.92L424.89 721.58"
fill="none" stroke="black" stroke-width="0.5"/>
<path d="M714.92 436.55L721.58 424.89"
fill="none" stroke="black" stroke-width="0.5"/>
<path d="M616.02 535.45L622.68 523.78"
fill="none" stroke="black" stroke-width="0.5"/>
<path d="M517.12 634.34L523.79 622.68"
fill="none" stroke="black" stroke-width="0.5"/>
<path d="M418.23 733.24L424.89 721.58"
fill="none" stroke="black" stroke-width="0.5"/>
<path d="M714.92 40.96L721.58 29.3"
fill="none" stroke="black" stroke-width="0.5"/>
<path d="M616.02 139.86L622.68 128.2"
fill="none" stroke="black" stroke-width="0.5"/>
<path d="M517.12 238.75L523.79 227.09"
fill="none" stroke="black" stroke-width="0.5"/>
<path d="M418.23 337.65L424.89 325.99"
fill="none" stroke="black" stroke-width="0.5"/>
<path d="M319.33 436.55L325.99 424.89"
fill="none" stroke="black" stroke-width="0.5"/>
<path d="M220.43 535.45L227.09 523.78"
fill="none" stroke="black" stroke-width="0.5"/>
<path d="M121.53 634.34L128.2 622.68"
fill="none" stroke="black" stroke-width="0.5"/>
<path d="M22.64 733.24L29.3 721.58"
fill="none" stroke="black" stroke-width="0.5"/>
<path d="M319.33 40.96L325.99 29.3"
fill="none" stroke="black" stroke-width="0.5"/>
<path d="M220.43 139.86L227.09 128.2"
fill="none" stroke="black" stroke-width="0.5"/>
<path d="M121.53 238.75L128.2 227.09"
fill="none" stroke="black" stroke-width="0.5"/>
<path d="M22.64 337.65L29.3 325.99"
fill="none" stroke="black" stroke-width="0.5"/>
<path d="M22.64 746.04L29.3 757.7"
fill="none" stroke="black" stroke-width="0.5"/>
<path d="M121.53 647.14L128.2 658.8"
fill="none" stroke="black" stroke-width="0.5"/>
<path d="M22.64 350.45L29.3 362.11"
fill="none" stroke="black" stroke-width="0.5"/>
<path d="M220.43 548.25L227.09 559.91"
fill="none" stroke="black" stroke-width="0.5"/>
<path d="M121.53 251.55L128.2 263.22"
fill="none" stroke="black" stroke-width="0.5"/>
<path d="M418.23 746.04L424.89 757.7"
fill="none" stroke="black" stroke-width="0.5"/>
<path d="M319.33 449.35L325.99 461.01"
fill="none" stroke="black" stroke-width="0.5"/>
<path d="M220.43 152.66L227.09 164.32"
fill="none" stroke="black" stroke-width="0.5"/>
<path d="M517.12 647.14L523.79 658.8"
fill="none" stroke="black" stroke-width="0.5"/>
<path d="M418.23 350.45L424.89 362.11"
fill="none" stroke="black" stroke-width="0.5"/>
<path d="M319.33 53.76L325.99 65.42"
fill="none" stroke="black" stroke-width="0.5"/>
<path d="M616.02 548.25L622.68 559.91"
fill="none" stroke="black" stroke-width="0.5"/>
<path d="M517.12 251.55L523.79 263.22"
fill="none" stroke="black" stroke-width="0.5"/>
<path d="M714.92 449.35L721.58 461.01"
fill="none" stroke="black" stroke-width="0.5"/>
<path d="M616.02 152.66L622.68 164.32"
fill="none" stroke="black" stroke-width="0.5"/>
<path d="M714.92 53.76L721.58 65.42"
fill="none" stroke="black" stroke-width="0.5"/>
<path d="M733.24 72.08L721.58 65.42"
fill="none" stroke="black" stroke-width="0.5"/>
<path d="M634.34 170.98L622.68 164.32"
fill="none" stroke="black" stroke-width="0.5"/>
<path d="M337.65 72.08L325.99 65.42"
fill="none" stroke="black" stroke-width="0.5"/>
<path d="M535.45 269.88L523.79 263.22"
fill="none" stroke="black" stroke-width="0.5"/>
<path d="M238.76 170.98L227.09 164.32"
fill="none" stroke="black" stroke-width="0.5"/>
<path d="M733.24 467.67L721.58 461.01"
fill="none" stroke="black" stroke-width="0.5"/>
<path d="M436.55 368.78L424.89 362.11"
fill="none" stroke="black" stroke-width="0.5"/>
<path d="M139.86 269.88L128.2 263.22"
fill="none" stroke="black" stroke-width="0.5"/>
<path d="M634.34 566.57L622.68 559.91"
fill="none" stroke="black" stroke-width="0.5"/>
<path d="M337.65 467.67L325.99 461.01"
fill="none" stroke="black" stroke-width="0.5"/>
<path d="M40.96 368.78L29.3 362.11"
fill="none" stroke="black" stroke-width="0.5"/>
<path d="M535.45 665.47L523.79 658.8"
fill="none" stroke="black" stroke-width="0.5"/>
<path d="M238.76 566.57L227.09 559.91"
fill="none" stroke="black" stroke-width="0.5"/>
<path d="M436.55 764.36L424.89 757.7"
fill="none" stroke="black" stroke-width="0.5"/>
<path d="M139.86 665.47L128.2 658.8"
fill="none" stroke="black" stroke-width="0.5"/>
<path d="M40.96 764.36L29.3 757.7"
fill="none" stroke="black" stroke-width="0.5"/>
<path d="M236.2 785.56L254.11 785.56"
fill="none" stroke="black" stroke-width="0.5"/>
<path d="M631.79 785.56L649.7 785.56"
fill="none" stroke="black" stroke-width="0.5"/>
<path d="M335.1 686.66L353.01 686.66"
fill="none" stroke="black" stroke-width="0.5"/>
<path d="M730.68 686.66L748.6 686.66"
fill="none" stroke="black" stroke-width="0.5"/>
<path d="M38.4 587.76L56.32 587.76"
fill="none" stroke="black" stroke-width="0.5"/>
<path d="M433.99 587.76L451.91 587.76"
fill="none" stroke="black" stroke-width="0.5"/>
<path d="M137.3 488.86L155.22 488.86"
fill="none" stroke="black" stroke-width="0.5"/>
<path d="M532.89 488.86L550.8 488.86"
fill="none" stroke="black" stroke-width="0.5"/>
<path d="M236.2 389.97L254.11 389.97"
fill="none" stroke="black" stroke-width="0.5"/>
<path d="M631.79 389.97L649.7 389.97"
fill="none" stroke="black" stroke-width="0.5"/>
<path d="M335.1 291.07L353.01 291.07"
fill="none" stroke="black" stroke-width="0.5"/>
<path d="M730.68 291.07L748.6 291.07"
fill="none" stroke="black" stroke-width="0.5"/>
<path d="M38.4 192.17L56.32 192.17"
fill="none" stroke="black" stroke-width="0.5"/>
<path d="M433.99 192.17L451.91 192.17"
fill="none" stroke="black" stroke-width="0.5"/>
<path d="M137.3 93.28L155.22 93.28"
fill="none" stroke="black" stroke-width="0.5"/>
<path d="M532.89 93.28L550.8 93.28"
fill="none" stroke="black" stroke-width="0.5"/>
<path d="M236.2 693.72L254.11 693.72"
fill="none" stroke="black" stroke-width="0.5"/>
<path d="M631.79 693.72L649.7 693.72"
fill="none" stroke="black" stroke-width="0.5"/>
<path d="M335.1 594.83L353.01 594.83"
fill="none" stroke="black" stroke-width="0.5"/>
<path d="M730.68 594.83L748.6 594.83"
fill="none" stroke="black" stroke-width="0.5"/>
<path d="M38.4 495.93L56.32 495.93"
fill="none" stroke="black" stroke-width="0.5"/>
<path d="M433.99 495.93L451.91 495.93"
fill="none" stroke="black" stroke-width="0.5"/>
<path d="M137.3 397.03L155.22 397.03"
fill="none" stroke="black" stroke-width="0.5"/>
<path d="M532.89 397.03L550.8 397.03"
fill="none" stroke="black" stroke-width="0.5"/>
<path d="M236.2 298.14L254.11 298.14"
fill="none" stroke="black" stroke-width="0.5"/>
<path d="M631.79 298.14L649.7 298.14"
fill="none" stroke="black" stroke-width="0.5"/>
<path d="M335.1 199.24L353.01 199.24"
fill="none" stroke="black" stroke-width="0.5"/>
<path d="M730.68 199.24L748.6 199.24"
fill="none" stroke="black" stroke-width="0.5"/>
<path d="M38.4 100.34L56.32 100.34"
fill="none" stroke="black" stroke-width="0.5"/>
<path d="M433.99 100.34L451.91 100.34"
fill="none" stroke="black" stroke-width="0.5"/>
<path d="M137.3 1.44L155.22 1.44"
fill="none" stroke="black" stroke-width="0.5"/>
<path d="M532.89 1.44L550.8 1.44"
fill="none" stroke="black" stroke-width="0.5"/>
<path d="M693.72 649.7L693.72 631.79"
fill="none" stroke="black" stroke-width="0.5"/>
<path d="M693.72 254.11L693.72 236.2"
fill="none" stroke="black" stroke-width="0.5"/>
<path d="M594.83 748.6L594.83 730.68"
fill="none" stroke="black" stroke-width="0.5"/>
<path d="M594.83 353.01L594.83 335.09"
fill="none" stroke="black" stroke-width="0.5"/>
<path d="M495.93 451.91L495.93 433.99"
fill="none" stroke="black" stroke-width="0.5"/>
<path d="M495.93 56.32L495.93 38.4"
fill="none" stroke="black" stroke-width="0.5"/>
<path d="M397.03 550.8L397.03 532.89"
fill="none" stroke="black" stroke-width="0.5"/>
<path d="M397.03 155.21L397.03 137.3"
fill="none" stroke="black" stroke-width="0.5"/>
<path d="M298.14 649.7L298.14 631.79"
fill="none" stroke="black" stroke-width="0.5"/>
<path d="M298.14 254.11L298.14 236.2"
fill="none" stroke="black" stroke-width="0.5"/>
<path d="M199.24 748.6L199.24 730.68"
fill="none" stroke="black" stroke-width="0.5"/>
<path d="M199.24 353.01L199.24 335.09"
fill="none" stroke="black" stroke-width="0.5"/>
<path d="M100.34 451.91L100.34 433.99"
fill="none" stroke="black" stroke-width="0.5"/>
<path d="M100.34 56.32L100.34 38.4"
fill="none" stroke="black" stroke-width="0.5"/>
<path d="M1.45 550.8L1.45 532.89"
fill="none" stroke="black" stroke-width="0.5"/>
<path d="M1.45 155.21L1.45 137.3"
fill="none" stroke="black" stroke-width="0.5"/>
<path d="M785.56 649.7L785.56 631.79"
fill="none" stroke="black" stroke-width="0.5"/>
<path d="M785.56 254.11L785.56 236.2"
fill="none" stroke="black" stroke-width="0.5"/>
<path d="M686.66 748.6L686.66 730.68"
fill="none" stroke="black" stroke-width="0.5"/>
<path d="M686.66 353.01L686.66 335.09"
fill="none" stroke="black" stroke-width="0.5"/>
<path d="M587.76 451.91L587.76 433.99"
fill="none" stroke="black" stroke-width="0.5"/>
<path d="M587.76 56.32L587.76 38.4"
fill="none" stroke="black" stroke-width="0.5"/>
<path d="M488.87 550.8L488.87 532.89"
fill="none" stroke="black" stroke-width="0.5"/>
<path d="M488.87 155.21L488.87 137.3"
fill="none" stroke="black" stroke-width="0.5"/>
<path d="M389.97 649.7L389.97 631.79"
fill="none" stroke="black" stroke-width="0.5"/>
<path d="M389.97 254.11L389.97 236.2"
fill="none" stroke="black" stroke-width="0.5"/>
<path d="M291.07 748.6L291.07 730.68"
fill="none" stroke="black" stroke-width="0.5"/>
<path d="M291.07 353.01L291.07 335.09"
fill="none" stroke="black" stroke-width="0.5"/>
<path d="M192.18 451.91L192.18 433.99"
fill="none" stroke="black" stroke-width="0.5"/>
<path d="M192.18 56.32L192.18 38.4"
fill="none" stroke="black" stroke-width="0.5"/>
<path d="M93.28 550.8L93.28 532.89"
fill="none" stroke="black" stroke-width="0.5"/>
<path d="M93.28 155.21L93.28 137.3"
fill="none" stroke="black" stroke-width="0.5"/>
<path d="M665.86 779.09L680.2 764.76"
fill="none" stroke="black" stroke-width="0.5"/>
<path d="M764.76 680.19L779.09 665.86"
fill="none" stroke="black" stroke-width="0.5"/>
<path d="M270.27 779.09L284.61 764.76"
fill="none" stroke="black" stroke-width="0.5"/>
<path d="M369.17 680.19L383.5 665.86"
fill="none" stroke="black" stroke-width="0.5"/>
<path d="M468.07 581.3L482.4 566.96"
fill="none" stroke="black" stroke-width="0.5"/>
<path d="M566.96 482.4L581.3 468.07"
fill="none" stroke="black" stroke-width="0.5"/>
<path d="M665.86 383.5L680.2 369.17"
fill="none" stroke="black" stroke-width="0.5"/>
<path d="M764.76 284.61L779.09 270.27"
fill="none" stroke="black" stroke-width="0.5"/>
<path d="M72.48 581.3L86.81 566.96"
fill="none" stroke="black" stroke-width="0.5"/>
<path d="M171.38 482.4L185.71 468.07"
fill="none" stroke="black" stroke-width="0.5"/>
<path d="M270.27 383.5L284.61 369.17"
fill="none" stroke="black" stroke-width="0.5"/>
<path d="M369.17 284.61L383.5 270.27"
fill="none" stroke="black" stroke-width="0.5"/>
<path d="M468.07 185.71L482.4 171.37"
fill="none" stroke="black" stroke-width="0.5"/>
<path d="M566.96 86.81L581.3 72.48"
fill="none" stroke="black" stroke-width="0.5"/>
<path d="M72.48 185.71L86.81 171.37"
fill="none" stroke="black" stroke-width="0.5"/>
<path d="M171.38 86.81L185.71 72.48"
fill="none" stroke="black" stroke-width="0.5"/>
<path d="M72.48 502.39L86.81 516.73"
fill="none" stroke="black" stroke-width="0.5"/>
<path d="M270.27 700.19L284.61 714.52"
fill="none" stroke="black" stroke-width="0.5"/>
<path d="M171.38 403.5L185.71 417.83"
fill="none" stroke="black" stroke-width="0.5"/>
<path d="M369.17 601.29L383.5 615.63"
fill="none" stroke="black" stroke-width="0.5"/>
<path d="M72.48 106.81L86.81 121.14"
fill="none" stroke="black" stroke-width="0.5"/>
<path d="M270.27 304.6L284.61 318.93"
fill="none" stroke="black" stroke-width="0.5"/>
<path d="M468.07 502.39L482.4 516.73"
fill="none" stroke="black" stroke-width="0.5"/>
<path d="M665.86 700.19L680.2 714.52"
fill="none" stroke="black" stroke-width="0.5"/>
<path d="M171.38 7.91L185.71 22.24"
fill="none" stroke="black" stroke-width="0.5"/>
<path d="M369.17 205.7L383.5 220.04"
fill="none" stroke="black" stroke-width="0.5"/>
<path d="M566.96 403.5L581.3 417.83"
fill="none" stroke="black" stroke-width="0.5"/>
<path d="M764.76 601.29L779.09 615.63"
fill="none" stroke="black" stroke-width="0.5"/>
<path d="M468.07 106.81L482.4 121.14"
fill="none" stroke="black" stroke-width="0.5"/>
<path d="M665.86 304.6L680.2 318.93"
fill="none" stroke="black" stroke-width="0.5"/>
<path d="M566.96 7.91L581.3 22.24"
fill="none" stroke="black" stroke-width="0.5"/>
<path d="M764.76 205.7L779.09 220.04"
fill="none" stroke="black" stroke-width="0.5"/>
<path d="M121.14 7.91L106.81 22.24"
fill="none" stroke="black" stroke-width="0.5"/>
<path d="M22.25 106.81L7.91 121.14"
fill="none" stroke="black" stroke-width="0.5"/>
<path d="M516.73 7.91L502.4 22.24"
fill="none" stroke="black" stroke-width="0.5"/>
<path d="M417.83 106.81L403.5 121.14"
fill="none" stroke="black" stroke-width="0.5"/>
<path d="M318.94 205.7L304.6 220.04"
fill="none" stroke="black" stroke-width="0.5"/>
<path d="M220.04 304.6L205.7 318.93"
fill="none" stroke="black" stroke-width="0.5"/>
<path d="M121.14 403.5L106.81 417.83"
fill="none" stroke="black" stroke-width="0.5"/>
<path d="M22.25 502.39L7.91 516.73"
fill="none" stroke="black" stroke-width="0.5"/>
<path d="M714.52 205.7L700.19 220.04"
fill="none" stroke="black" stroke-width="0.5"/>
<path d="M615.63 304.6L601.29 318.93"
fill="none" stroke="black" stroke-width="0.5"/>
<path d="M516.73 403.5L502.4 417.83"
fill="none" stroke="black" stroke-width="0.5"/>
<path d="M417.83 502.39L403.5 516.73"
fill="none" stroke="black" stroke-width="0.5"/>
<path d="M318.94 601.29L304.6 615.63"
fill="none" stroke="black" stroke-width="0.5"/>
<path d="M220.04 700.19L205.7 714.52"
fill="none" stroke="black" stroke-width="0.5"/>
<path d="M714.52 601.29L700.19 615.63"
fill="none" stroke="black" stroke-width="0.5"/>
<path d="M615.63 700.19L601.29 714.52"
fill="none" stroke="black" stroke-width="0.5"/>
<path d="M714.52 284.61L700.19 270.27"
fill="none" stroke="black" stroke-width="0.5"/>
<path d="M516.73 86.81L502.4 72.48"
fill="none" stroke="black" stroke-width="0.5"/>
<path d="M615.63 383.5L601.29 369.17"
fill="none" stroke="black" stroke-width="0.5"/>
<path d="M417.83 185.71L403.5 171.37"
fill="none" stroke="black" stroke-width="0.5"/>
<path d="M714.52 680.19L700.19 665.86"
fill="none" stroke="black" stroke-width="0.5"/>
<path d="M516.73 482.4L502.4 468.07"
fill="none" stroke="black" stroke-width="0.5"/>
<path d="M318.94 284.61L304.6 270.27"
fill="none" stroke="black" stroke-width="0.5"/>
<path d="M121.14 86.81L106.81 72.48"
fill="none" stroke="black" stroke-width="0.5"/>
<path d="M615.63 779.09L601.29 764.76"
fill="none" stroke="black" stroke-width="0.5"/>
<path d="M417.83 581.3L403.5 566.96"
fill="none" stroke="black" stroke-width="0.5"/>
<path d="M220.04 383.5L205.7 369.17"
fill="none" stroke="black" stroke-width="0.5"/>
<path d="M22.25 185.71L7.91 171.37"
fill="none" stroke="black" stroke-width="0.5"/>
<path d="M318.94 680.19L304.6 665.86"
fill="none" stroke="black" stroke-width="0.5"/>
<path d="M121.14 482.4L106.81 468.07"
fill="none" stroke="black" stroke-width="0.5"/>
<path d="M220.04 779.09L205.7 764.76"
fill="none" stroke="black" stroke-width="0.5"/>
<path d="M22.25 581.3L7.91 566.96"
fill="none" stroke="black" stroke-width="0.5"/>
<path d="M649.7 785.56L665.86 779.09"
fill="none" stroke="black" stroke-width="0.5"/>
<path d="M748.6 686.66L764.76 680.19"
fill="none" stroke="black" stroke-width="0.5"/>
<path d="M254.11 785.56L270.27 779.09"
fill="none" stroke="black" stroke-width="0.5"/>
<path d="M353.01 686.66L369.17 680.19"
fill="none" stroke="black" stroke-width="0.5"/>
<path d="M451.91 587.76L468.07 581.3"
fill="none" stroke="black" stroke-width="0.5"/>
<path d="M550.8 488.86L566.96 482.4"
fill="none" stroke="black" stroke-width="0.5"/>
<path d="M649.7 389.97L665.86 383.5"
fill="none" stroke="black" stroke-width="0.5"/>
<path d="M56.32 587.76L72.48 581.3"
fill="none" stroke="black" stroke-width="0.5"/>
<path d="M748.6 291.07L764.76 284.61"
fill="none" stroke="black" stroke-width="0.5"/>
<path d="M155.22 488.86L171.38 482.4"
fill="none" stroke="black" stroke-width="0.5"/>
<path d="M254.11 389.97L270.27 383.5"
fill="none" stroke="black" stroke-width="0.5"/>
<path d="M353.01 291.07L369.17 284.61"
fill="none" stroke="black" stroke-width="0.5"/>
<path d="M451.91 192.17L468.07 185.71"
fill="none" stroke="black" stroke-width="0.5"/>
<path d="M550.8 93.28L566.96 86.81"
fill="none" stroke="black" stroke-width="0.5"/>
<path d="M56.32 192.17L72.48 185.71"
fill="none" stroke="black" stroke-width="0.5"/>
<path d="M155.22 93.28L171.38 86.81"
fill="none" stroke="black" stroke-width="0.5"/>
<path d="M93.28 155.21L86.81 171.37"
fill="none" stroke="black" stroke-width="0.5"/>
<path d="M192.18 56.32L185.71 72.48"
fill="none" stroke="black" stroke-width="0.5"/>
<path d="M93.28 550.8L86.81 566.96"
fill="none" stroke="black" stroke-width="0.5"/>
<path d="M192.18 451.91L185.71 468.07"
fill="none" stroke="black" stroke-width="0.5"/>
<path d="M291.07 353.01L284.61 369.17"
fill="none" stroke="black" stroke-width="0.5"/>
<path d="M389.97 254.11L383.5 270.27"
fill="none" stroke="black" stroke-width="0.5"/>
<path d="M488.87 155.21L482.4 171.37"
fill="none" stroke="black" stroke-width="0.5"/>
<path d="M291.07 748.6L284.61 764.76"
fill="none" stroke="black" stroke-width="0.5"/>
<path d="M587.76 56.32L581.3 72.48"
fill="none" stroke="black" stroke-width="0.5"/>
<path d="M389.97 649.7L383.5 665.86"
fill="none" stroke="black" stroke-width="0.5"/>
<path d="M488.87 550.8L482.4 566.96"
fill="none" stroke="black" stroke-width="0.5"/>
<path d="M587.76 451.91L581.3 468.07"
fill="none" stroke="black" stroke-width="0.5"/>
<path d="M686.66 353.01L680.2 369.17"
fill="none" stroke="black" stroke-width="0.5"/>
<path d="M785.56 254.11L779.09 270.27"
fill="none" stroke="black" stroke-width="0.5"/>
<path d="M686.66 748.6L680.2 764.76"
fill="none" stroke="black" stroke-width="0.5"/>
<path d="M785.56 649.7L779.09 665.86"
fill="none" stroke="black" stroke-width="0.5"/>
<path d="M785.56 236.2L779.09 220.04"
fill="none" stroke="black" stroke-width="0.5"/>
<path d="M587.76 38.4L581.3 22.24"
fill="none" stroke="black" stroke-width="0.5"/>
<path d="M686.66 335.09L680.2 318.93"
fill="none" stroke="black" stroke-width="0.5"/>
<path d="M785.56 631.79L779.09 615.63"
fill="none" stroke="black" stroke-width="0.5"/>
<path d="M488.87 137.3L482.4 121.14"
fill="none" stroke="black" stroke-width="0.5"/>
<path d="M587.76 433.99L581.3 417.83"
fill="none" stroke="black" stroke-width="0.5"/>
<path d="M686.66 730.68L680.2 714.52"
fill="none" stroke="black" stroke-width="0.5"/>
<path d="M389.97 236.2L383.5 220.04"
fill="none" stroke="black" stroke-width="0.5"/>
<path d="M488.87 532.89L482.4 516.73"
fill="none" stroke="black" stroke-width="0.5"/>
<path d="M192.18 38.4L185.71 22.24"
fill="none" stroke="black" stroke-width="0.5"/>
<path d="M291.07 335.09L284.61 318.93"
fill="none" stroke="black" stroke-width="0.5"/>
<path d="M389.97 631.79L383.5 615.63"
fill="none" stroke="black" stroke-width="0.5"/>
<path d="M93.28 137.3L86.81 121.14"
fill="none" stroke="black" stroke-width="0.5"/>
<path d="M192.18 433.99L185.71 417.83"
fill="none" stroke="black" stroke-width="0.5"/>
<path d="M291.07 730.68L284.61 714.52"
fill="none" stroke="black" stroke-width="0.5"/>
<path d="M93.28 532.89L86.81 516.73"
fill="none" stroke="black" stroke-width="0.5"/>
<path d="M254.11 693.72L270.27 700.19"
fill="none" stroke="black" stroke-width="0.5"/>
<path d="M56.32 495.93L72.48 502.39"
fill="none" stroke="black" stroke-width="0.5"/>
<path d="M353.01 594.83L369.17 601.29"
fill="none" stroke="black" stroke-width="0.5"/>
<path d="M649.7 693.72L665.86 700.19"
fill="none" stroke="black" stroke-width="0.5"/>
<path d="M155.22 397.03L171.38 403.5"
fill="none" stroke="black" stroke-width="0.5"/>
<path d="M451.91 495.93L468.07 502.39"
fill="none" stroke="black" stroke-width="0.5"/>
<path d="M748.6 594.83L764.76 601.29"
fill="none" stroke="black" stroke-width="0.5"/>
<path d="M254.11 298.14L270.27 304.6"
fill="none" stroke="black" stroke-width="0.5"/>
<path d="M550.8 397.03L566.96 403.5"
fill="none" stroke="black" stroke-width="0.5"/>
<path d="M56.32 100.34L72.48 106.81"
fill="none" stroke="black" stroke-width="0.5"/>
<path d="M353.01 199.24L369.17 205.7"
fill="none" stroke="black" stroke-width="0.5"/>
<path d="M649.7 298.14L665.86 304.6"
fill="none" stroke="black" stroke-width="0.5"/>
<path d="M155.22 1.44L171.38 7.91"
fill="none" stroke="black" stroke-width="0.5"/>
<path d="M451.91 100.34L468.07 106.81"
fill="none" stroke="black" stroke-width="0.5"/>
<path d="M748.6 199.24L764.76 205.7"
fill="none" stroke="black" stroke-width="0.5"/>
<path d="M550.8 1.44L566.96 7.91"
fill="none" stroke="black" stroke-width="0.5"/>
<path d="M137.3 1.44L121.14 7.91"
fill="none" stroke="black" stroke-width="0.5"/>
<path d="M38.41 100.34L22.25 106.8"
fill="none" stroke="black" stroke-width="0.5"/>
<path d="M532.89 1.45L516.73 7.91"
fill="none" stroke="black" stroke-width="0.5"/>
<path d="M434 100.34L417.84 106.81"
fill="none" stroke="black" stroke-width="0.5"/>
<path d="M335.1 199.24L318.94 205.7"
fill="none" stroke="black" stroke-width="0.5"/>
<path d="M236.2 298.14L220.04 304.6"
fill="none" stroke="black" stroke-width="0.5"/>
<path d="M137.3 397.03L121.14 403.5"
fill="none" stroke="black" stroke-width="0.5"/>
<path d="M730.69 199.24L714.53 205.71"
fill="none" stroke="black" stroke-width="0.5"/>
<path d="M38.4 495.93L22.25 502.39"
fill="none" stroke="black" stroke-width="0.5"/>
<path d="M631.79 298.14L615.63 304.6"
fill="none" stroke="black" stroke-width="0.5"/>
<path d="M532.89 397.03L516.73 403.5"
fill="none" stroke="black" stroke-width="0.5"/>
<path d="M433.99 495.93L417.83 502.39"
fill="none" stroke="black" stroke-width="0.5"/>
<path d="M335.1 594.83L318.94 601.29"
fill="none" stroke="black" stroke-width="0.5"/>
<path d="M236.2 693.72L220.04 700.19"
fill="none" stroke="black" stroke-width="0.5"/>
<path d="M730.68 594.83L714.52 601.29"
fill="none" stroke="black" stroke-width="0.5"/>
<path d="M631.79 693.73L615.63 700.19"
fill="none" stroke="black" stroke-width="0.5"/>
<path d="M693.72 631.78L700.19 615.62"
fill="none" stroke="black" stroke-width="0.5"/>
<path d="M594.83 730.68L601.29 714.52"
fill="none" stroke="black" stroke-width="0.5"/>
<path d="M693.72 236.19L700.19 220.03"
fill="none" stroke="black" stroke-width="0.5"/>
<path d="M594.82 335.09L601.29 318.93"
fill="none" stroke="black" stroke-width="0.5"/>
<path d="M495.93 433.99L502.39 417.83"
fill="none" stroke="black" stroke-width="0.5"/>
<path d="M397.03 532.89L403.5 516.73"
fill="none" stroke="black" stroke-width="0.5"/>
<path d="M298.14 631.78L304.6 615.62"
fill="none" stroke="black" stroke-width="0.5"/>
<path d="M495.93 38.4L502.39 22.24"
fill="none" stroke="black" stroke-width="0.5"/>
<path d="M199.24 730.68L205.7 714.52"
fill="none" stroke="black" stroke-width="0.5"/>
<path d="M397.03 137.3L403.49 121.14"
fill="none" stroke="black" stroke-width="0.5"/>
<path d="M298.13 236.19L304.6 220.03"
fill="none" stroke="black" stroke-width="0.5"/>
<path d="M199.24 335.09L205.7 318.93"
fill="none" stroke="black" stroke-width="0.5"/>
<path d="M100.34 433.99L106.8 417.83"
fill="none" stroke="black" stroke-width="0.5"/>
<path d="M1.45 532.89L7.91 516.73"
fill="none" stroke="black" stroke-width="0.5"/>
<path d="M100.34 38.4L106.8 22.24"
fill="none" stroke="black" stroke-width="0.5"/>
<path d="M1.44 137.3L7.9 121.14"
fill="none" stroke="black" stroke-width="0.5"/>
<path d="M1.45 550.8L7.91 566.96"
fill="none" stroke="black" stroke-width="0.5"/>
<path d="M199.24 748.6L205.7 764.76"
fill="none" stroke="black" stroke-width="0.5"/>
<path d="M100.35 451.91L106.81 468.07"
fill="none" stroke="black" stroke-width="0.5"/>
<path d="M1.45 155.21L7.91 171.37"
fill="none" stroke="black" stroke-width="0.5"/>
<path d="M298.14 649.7L304.6 665.86"
fill="none" stroke="black" stroke-width="0.5"/>
<path d="M199.24 353.01L205.7 369.17"
fill="none" stroke="black" stroke-width="0.5"/>
<path d="M100.35 56.32L106.81 72.48"
fill="none" stroke="black" stroke-width="0.5"/>
<path d="M397.03 550.81L403.5 566.97"
fill="none" stroke="black" stroke-width="0.5"/>
<path d="M298.14 254.11L304.6 270.27"
fill="none" stroke="black" stroke-width="0.5"/>
<path d="M594.83 748.6L601.29 764.76"
fill="none" stroke="black" stroke-width="0.5"/>
<path d="M495.93 451.91L502.4 468.07"
fill="none" stroke="black" stroke-width="0.5"/>
<path d="M397.04 155.22L403.5 171.38"
fill="none" stroke="black" stroke-width="0.5"/>
<path d="M693.72 649.7L700.19 665.86"
fill="none" stroke="black" stroke-width="0.5"/>
<path d="M594.83 353.01L601.29 369.17"
fill="none" stroke="black" stroke-width="0.5"/>
<path d="M495.93 56.32L502.4 72.48"
fill="none" stroke="black" stroke-width="0.5"/>
<path d="M693.73 254.11L700.19 270.27"
fill="none" stroke="black" stroke-width="0.5"/>
<path d="M532.88 93.27L516.72 86.81"
fill="none" stroke="black" stroke-width="0.5"/>
<path d="M730.68 291.07L714.52 284.6"
fill="none" stroke="black" stroke-width="0.5"/>
<path d="M433.99 192.17L417.83 185.71"
fill="none" stroke="black" stroke-width="0.5"/>
<path d="M137.3 93.28L121.14 86.81"
fill="none" stroke="black" stroke-width="0.5"/>
<path d="M631.78 389.97L615.62 383.5"
fill="none" stroke="black" stroke-width="0.5"/>
<path d="M335.09 291.07L318.93 284.61"
fill="none" stroke="black" stroke-width="0.5"/>
<path d="M38.4 192.17L22.24 185.71"
fill="none" stroke="black" stroke-width="0.5"/>
<path d="M532.89 488.86L516.73 482.4"
fill="none" stroke="black" stroke-width="0.5"/>
<path d="M236.2 389.97L220.04 383.5"
fill="none" stroke="black" stroke-width="0.5"/>
<path d="M730.68 686.66L714.52 680.19"
fill="none" stroke="black" stroke-width="0.5"/>
<path d="M433.99 587.76L417.83 581.3"
fill="none" stroke="black" stroke-width="0.5"/>
<path d="M137.3 488.86L121.14 482.4"
fill="none" stroke="black" stroke-width="0.5"/>
<path d="M631.79 785.55L615.63 779.09"
fill="none" stroke="black" stroke-width="0.5"/>
<path d="M335.09 686.66L318.93 680.19"
fill="none" stroke="black" stroke-width="0.5"/>
<path d="M38.4 587.76L22.24 581.3"
fill="none" stroke="black" stroke-width="0.5"/>
<path d="M236.2 785.56L220.04 779.09"
fill="none" stroke="black" stroke-width="0.5"/>
</svg>
