<?xml version="1.0" encoding="UTF-8"?>
<svg xmlns="http://www.w3.org/2000/svg" width="99.949mm" height="99.949mm" viewBox="0.0 0.0 787.000 787.000" preserveAspectRatio="none" version="1.1">
  <title>Produce by Acme CAD Converter</title>
  <desc>Produce by Acme CAD Converter</desc>
<path d="M99.14 642.99L117.59 642.99"
fill="none" stroke="black" stroke-width="0.5"/>
<path d="M526.84 642.99L545.29 642.99"
fill="none" stroke="black" stroke-width="0.5"/>
<path d="M312.99 500.42L331.44 500.42"
fill="none" stroke="black" stroke-width="0.5"/>
<path d="M740.69 500.42L759.14 500.42"
fill="none" stroke="black" stroke-width="0.5"/>
<path d="M99.14 357.86L117.59 357.86"
fill="none" stroke="black" stroke-width="0.5"/>
<path d="M526.84 357.86L545.29 357.86"
fill="none" stroke="black" stroke-width="0.5"/>
<path d="M312.99 215.29L331.44 215.29"
fill="none" stroke="black" stroke-width="0.5"/>
<path d="M740.69 215.29L759.14 215.29"
fill="none" stroke="black" stroke-width="0.5"/>
<path d="M99.14 571.71L117.59 571.71"
fill="none" stroke="black" stroke-width="0.5"/>
<path d="M526.84 571.71L545.29 571.71"
fill="none" stroke="black" stroke-width="0.5"/>
<path d="M312.99 429.14L331.44 429.14"
fill="none" stroke="black" stroke-width="0.5"/>
<path d="M740.69 429.14L759.14 429.14"
fill="none" stroke="black" stroke-width="0.5"/>
<path d="M99.14 286.58L117.59 286.58"
fill="none" stroke="black" stroke-width="0.5"/>
<path d="M526.84 286.58L545.29 286.58"
fill="none" stroke="black" stroke-width="0.5"/>
<path d="M312.99 144.01L331.44 144.01"
fill="none" stroke="black" stroke-width="0.5"/>
<path d="M740.69 144.01L759.14 144.01"
fill="none" stroke="black" stroke-width="0.5"/>
<path d="M714.27 474.01L714.27 455.56"
fill="none" stroke="black" stroke-width="0.5"/>
<path d="M714.27 188.88L714.27 170.42"
fill="none" stroke="black" stroke-width="0.5"/>
<path d="M500.42 616.58L500.42 598.12"
fill="none" stroke="black" stroke-width="0.5"/>
<path d="M500.42 331.44L500.42 312.99"
fill="none" stroke="black" stroke-width="0.5"/>
<path d="M286.58 474.01L286.58 455.56"
fill="none" stroke="black" stroke-width="0.5"/>
<path d="M286.58 188.88L286.58 170.42"
fill="none" stroke="black" stroke-width="0.5"/>
<path d="M72.73 616.58L72.73 598.12"
fill="none" stroke="black" stroke-width="0.5"/>
<path d="M72.73 331.44L72.73 312.99"
fill="none" stroke="black" stroke-width="0.5"/>
<path d="M785.56 474.01L785.56 455.56"
fill="none" stroke="black" stroke-width="0.5"/>
<path d="M785.56 188.88L785.56 170.42"
fill="none" stroke="black" stroke-width="0.5"/>
<path d="M571.71 616.58L571.71 598.12"
fill="none" stroke="black" stroke-width="0.5"/>
<path d="M571.71 331.44L571.71 312.99"
fill="none" stroke="black" stroke-width="0.5"/>
<path d="M357.86 474.01L357.86 455.56"
fill="none" stroke="black" stroke-width="0.5"/>
<path d="M357.86 188.88L357.86 170.42"
fill="none" stroke="black" stroke-width="0.5"/>
<path d="M144.01 616.58L144.01 598.12"
fill="none" stroke="black" stroke-width="0.5"/>
<path d="M144.01 331.44L144.01 312.99"
fill="none" stroke="black" stroke-width="0.5"/>
<path d="M545.29 642.99L562.1 633.39"
fill="none" stroke="black" stroke-width="0.5"/>
<path d="M759.14 500.42L775.95 490.82"
fill="none" stroke="black" stroke-width="0.5"/>
<path d="M117.59 642.99L134.4 633.39"
fill="none" stroke="black" stroke-width="0.5"/>
<path d="M331.44 500.42L348.25 490.82"
fill="none" stroke="black" stroke-width="0.5"/>
<path d="M545.29 357.86L562.1 348.25"
fill="none" stroke="black" stroke-width="0.5"/>
<path d="M759.14 215.29L775.95 205.69"
fill="none" stroke="black" stroke-width="0.5"/>
<path d="M117.59 357.86L134.4 348.25"
fill="none" stroke="black" stroke-width="0.5"/>
<path d="M331.44 215.29L348.25 205.69"
fill="none" stroke="black" stroke-width="0.5"/>
<path d="M144.01 331.44L134.4 348.25"
fill="none" stroke="black" stroke-width="0.5"/>
<path d="M357.86 188.88L348.25 205.69"
fill="none" stroke="black" stroke-width="0.5"/>
<path d="M144.01 616.58L134.4 633.39"
fill="none" stroke="black" stroke-width="0.5"/>
<path d="M357.86 474.01L348.25 490.82"
fill="none" stroke="black" stroke-width="0.5"/>
<path d="M571.71 331.44L562.1 348.25"
fill="none" stroke="black" stroke-width="0.5"/>
<path d="M785.56 188.88L775.95 205.69"
fill="none" stroke="black" stroke-width="0.5"/>
<path d="M571.71 616.58L562.1 633.39"
fill="none" stroke="black" stroke-width="0.5"/>
<path d="M785.56 474.01L775.95 490.82"
fill="none" stroke="black" stroke-width="0.5"/>
<path d="M785.56 170.42L775.95 153.61"
fill="none" stroke="black" stroke-width="0.5"/>
<path d="M785.56 455.56L775.95 438.75"
fill="none" stroke="black" stroke-width="0.5"/>
<path d="M571.71 312.99L562.1 296.18"
fill="none" stroke="black" stroke-width="0.5"/>
<path d="M357.86 170.42L348.25 153.61"
fill="none" stroke="black" stroke-width="0.5"/>
<path d="M571.71 598.12L562.1 581.31"
fill="none" stroke="black" stroke-width="0.5"/>
<path d="M357.86 455.56L348.25 438.75"
fill="none" stroke="black" stroke-width="0.5"/>
<path d="M144.01 312.99L134.4 296.18"
fill="none" stroke="black" stroke-width="0.5"/>
<path d="M144.01 598.12L134.4 581.31"
fill="none" stroke="black" stroke-width="0.5"/>
<path d="M117.59 571.71L134.4 581.31"
fill="none" stroke="black" stroke-width="0.5"/>
<path d="M545.29 571.71L562.1 581.31"
fill="none" stroke="black" stroke-width="0.5"/>
<path d="M331.44 429.14L348.25 438.75"
fill="none" stroke="black" stroke-width="0.5"/>
<path d="M117.59 286.58L134.4 296.18"
fill="none" stroke="black" stroke-width="0.5"/>
<path d="M759.14 429.14L775.95 438.75"
fill="none" stroke="black" stroke-width="0.5"/>
<path d="M545.29 286.58L562.1 296.18"
fill="none" stroke="black" stroke-width="0.5"/>
<path d="M331.44 144.01L348.25 153.61"
fill="none" stroke="black" stroke-width="0.5"/>
<path d="M759.14 144.01L775.95 153.61"
fill="none" stroke="black" stroke-width="0.5"/>
<path d="M312.99 144.01L296.18 153.61"
fill="none" stroke="black" stroke-width="0.5"/>
<path d="M99.14 286.58L82.33 296.18"
fill="none" stroke="black" stroke-width="0.5"/>
<path d="M740.69 144.01L723.88 153.61"
fill="none" stroke="black" stroke-width="0.5"/>
<path d="M526.84 286.58L510.03 296.18"
fill="none" stroke="black" stroke-width="0.5"/>
<path d="M312.99 429.14L296.18 438.75"
fill="none" stroke="black" stroke-width="0.5"/>
<path d="M99.14 571.71L82.33 581.31"
fill="none" stroke="black" stroke-width="0.5"/>
<path d="M740.69 429.14L723.88 438.75"
fill="none" stroke="black" stroke-width="0.5"/>
<path d="M526.84 571.71L510.03 581.31"
fill="none" stroke="black" stroke-width="0.5"/>
<path d="M714.27 455.56L723.88 438.75"
fill="none" stroke="black" stroke-width="0.5"/>
<path d="M500.42 598.12L510.03 581.31"
fill="none" stroke="black" stroke-width="0.5"/>
<path d="M714.27 170.42L723.88 153.61"
fill="none" stroke="black" stroke-width="0.5"/>
<path d="M500.42 312.99L510.03 296.18"
fill="none" stroke="black" stroke-width="0.5"/>
<path d="M286.58 455.56L296.18 438.75"
fill="none" stroke="black" stroke-width="0.5"/>
<path d="M72.73 598.12L82.33 581.31"
fill="none" stroke="black" stroke-width="0.5"/>
<path d="M286.58 170.42L296.18 153.61"
fill="none" stroke="black" stroke-width="0.5"/>
<path d="M72.73 312.99L82.33 296.18"
fill="none" stroke="black" stroke-width="0.5"/>
<path d="M72.73 616.58L82.33 633.39"
fill="none" stroke="black" stroke-width="0.5"/>
<path d="M72.73 331.44L82.33 348.25"
fill="none" stroke="black" stroke-width="0.5"/>
<path d="M286.58 474.01L296.18 490.82"
fill="none" stroke="black" stroke-width="0.5"/>
<path d="M500.42 616.58L510.03 633.39"
fill="none" stroke="black" stroke-width="0.5"/>
<path d="M286.58 188.88L296.18 205.69"
fill="none" stroke="black" stroke-width="0.5"/>
<path d="M500.42 331.44L510.03 348.25"
fill="none" stroke="black" stroke-width="0.5"/>
<path d="M714.27 474.01L723.88 490.82"
fill="none" stroke="black" stroke-width="0.5"/>
<path d="M714.27 188.88L723.88 205.69"
fill="none" stroke="black" stroke-width="0.5"/>
<path d="M740.69 215.29L723.88 205.69"
fill="none" stroke="black" stroke-width="0.5"/>
<path d="M312.99 215.29L296.18 205.69"
fill="none" stroke="black" stroke-width="0.5"/>
<path d="M526.84 357.86L510.03 348.25"
fill="none" stroke="black" stroke-width="0.5"/>
<path d="M740.69 500.42L723.88 490.82"
fill="none" stroke="black" stroke-width="0.5"/>
<path d="M99.14 357.86L82.33 348.25"
fill="none" stroke="black" stroke-width="0.5"/>
<path d="M312.99 500.42L296.18 490.82"
fill="none" stroke="black" stroke-width="0.5"/>
<path d="M526.84 642.99L510.03 633.39"
fill="none" stroke="black" stroke-width="0.5"/>
<path d="M99.14 642.99L82.33 633.39"
fill="none" stroke="black" stroke-width="0.5"/>
<path d="M241.71 642.99L260.16 642.99"
fill="none" stroke="black" stroke-width="0.5"/>
<path d="M669.41 642.99L687.86 642.99"
fill="none" stroke="black" stroke-width="0.5"/>
<path d="M27.86 500.42L46.31 500.42"
fill="none" stroke="black" stroke-width="0.5"/>
<path d="M455.56 500.42L474.01 500.42"
fill="none" stroke="black" stroke-width="0.5"/>
<path d="M241.71 357.86L260.16 357.86"
fill="none" stroke="black" stroke-width="0.5"/>
<path d="M669.41 357.86L687.86 357.86"
fill="none" stroke="black" stroke-width="0.5"/>
<path d="M27.86 215.29L46.31 215.29"
fill="none" stroke="black" stroke-width="0.5"/>
<path d="M455.56 215.29L474.01 215.29"
fill="none" stroke="black" stroke-width="0.5"/>
<path d="M241.71 571.71L260.16 571.71"
fill="none" stroke="black" stroke-width="0.5"/>
<path d="M669.41 571.71L687.86 571.71"
fill="none" stroke="black" stroke-width="0.5"/>
<path d="M27.86 429.14L46.31 429.14"
fill="none" stroke="black" stroke-width="0.5"/>
<path d="M455.56 429.14L474.01 429.14"
fill="none" stroke="black" stroke-width="0.5"/>
<path d="M241.71 286.58L260.16 286.58"
fill="none" stroke="black" stroke-width="0.5"/>
<path d="M669.41 286.58L687.86 286.58"
fill="none" stroke="black" stroke-width="0.5"/>
<path d="M27.86 144.01L46.31 144.01"
fill="none" stroke="black" stroke-width="0.5"/>
<path d="M455.56 144.01L474.01 144.01"
fill="none" stroke="black" stroke-width="0.5"/>
<path d="M642.99 616.58L642.99 598.12"
fill="none" stroke="black" stroke-width="0.5"/>
<path d="M642.99 331.44L642.99 312.99"
fill="none" stroke="black" stroke-width="0.5"/>
<path d="M429.14 474.01L429.14 455.56"
fill="none" stroke="black" stroke-width="0.5"/>
<path d="M429.14 188.88L429.14 170.42"
fill="none" stroke="black" stroke-width="0.5"/>
<path d="M215.29 616.58L215.29 598.12"
fill="none" stroke="black" stroke-width="0.5"/>
<path d="M215.29 331.44L215.29 312.99"
fill="none" stroke="black" stroke-width="0.5"/>
<path d="M1.44 474.01L1.44 455.56"
fill="none" stroke="black" stroke-width="0.5"/>
<path d="M1.44 188.88L1.44 170.42"
fill="none" stroke="black" stroke-width="0.5"/>
<path d="M714.27 616.58L714.27 598.12"
fill="none" stroke="black" stroke-width="0.5"/>
<path d="M714.27 331.44L714.27 312.99"
fill="none" stroke="black" stroke-width="0.5"/>
<path d="M500.42 474.01L500.42 455.56"
fill="none" stroke="black" stroke-width="0.5"/>
<path d="M500.42 188.88L500.42 170.42"
fill="none" stroke="black" stroke-width="0.5"/>
<path d="M286.58 616.58L286.58 598.12"
fill="none" stroke="black" stroke-width="0.5"/>
<path d="M286.58 331.44L286.58 312.99"
fill="none" stroke="black" stroke-width="0.5"/>
<path d="M72.73 474.01L72.73 455.56"
fill="none" stroke="black" stroke-width="0.5"/>
<path d="M72.73 188.88L72.73 170.42"
fill="none" stroke="black" stroke-width="0.5"/>
<path d="M687.86 642.99L704.67 633.39"
fill="none" stroke="black" stroke-width="0.5"/>
<path d="M260.16 642.99L276.97 633.39"
fill="none" stroke="black" stroke-width="0.5"/>
<path d="M474.01 500.42L490.82 490.82"
fill="none" stroke="black" stroke-width="0.5"/>
<path d="M687.86 357.86L704.67 348.25"
fill="none" stroke="black" stroke-width="0.5"/>
<path d="M46.31 500.42L63.12 490.82"
fill="none" stroke="black" stroke-width="0.5"/>
<path d="M260.16 357.86L276.97 348.25"
fill="none" stroke="black" stroke-width="0.5"/>
<path d="M474.01 215.29L490.82 205.69"
fill="none" stroke="black" stroke-width="0.5"/>
<path d="M46.31 215.29L63.12 205.69"
fill="none" stroke="black" stroke-width="0.5"/>
<path d="M72.73 188.88L63.12 205.69"
fill="none" stroke="black" stroke-width="0.5"/>
<path d="M72.73 474.01L63.12 490.82"
fill="none" stroke="black" stroke-width="0.5"/>
<path d="M286.58 331.44L276.97 348.25"
fill="none" stroke="black" stroke-width="0.5"/>
<path d="M500.42 188.88L490.82 205.69"
fill="none" stroke="black" stroke-width="0.5"/>
<path d="M286.58 616.58L276.97 633.39"
fill="none" stroke="black" stroke-width="0.5"/>
<path d="M500.42 474.01L490.82 490.82"
fill="none" stroke="black" stroke-width="0.5"/>
<path d="M714.27 331.44L704.67 348.25"
fill="none" stroke="black" stroke-width="0.5"/>
<path d="M714.27 616.58L704.67 633.39"
fill="none" stroke="black" stroke-width="0.5"/>
<path d="M714.27 312.99L704.67 296.18"
fill="none" stroke="black" stroke-width="0.5"/>
<path d="M500.42 170.42L490.82 153.61"
fill="none" stroke="black" stroke-width="0.5"/>
<path d="M714.27 598.12L704.67 581.31"
fill="none" stroke="black" stroke-width="0.5"/>
<path d="M500.42 455.56L490.82 438.75"
fill="none" stroke="black" stroke-width="0.5"/>
<path d="M286.58 312.99L276.97 296.18"
fill="none" stroke="black" stroke-width="0.5"/>
<path d="M72.73 170.42L63.12 153.61"
fill="none" stroke="black" stroke-width="0.5"/>
<path d="M286.58 598.12L276.97 581.31"
fill="none" stroke="black" stroke-width="0.5"/>
<path d="M72.73 455.56L63.12 438.75"
fill="none" stroke="black" stroke-width="0.5"/>
<path d="M260.16 571.71L276.97 581.31"
fill="none" stroke="black" stroke-width="0.5"/>
<path d="M46.31 429.14L63.12 438.75"
fill="none" stroke="black" stroke-width="0.5"/>
<path d="M687.86 571.71L704.67 581.31"
fill="none" stroke="black" stroke-width="0.5"/>
<path d="M474.01 429.14L490.82 438.75"
fill="none" stroke="black" stroke-width="0.5"/>
<path d="M260.16 286.58L276.97 296.18"
fill="none" stroke="black" stroke-width="0.5"/>
<path d="M46.31 144.01L63.12 153.61"
fill="none" stroke="black" stroke-width="0.5"/>
<path d="M687.86 286.58L704.67 296.18"
fill="none" stroke="black" stroke-width="0.5"/>
<path d="M474.01 144.01L490.82 153.61"
fill="none" stroke="black" stroke-width="0.5"/>
<path d="M27.86 144.01L11.05 153.61"
fill="none" stroke="black" stroke-width="0.5"/>
<path d="M455.56 144.01L438.75 153.61"
fill="none" stroke="black" stroke-width="0.5"/>
<path d="M241.71 286.58L224.9 296.18"
fill="none" stroke="black" stroke-width="0.5"/>
<path d="M27.86 429.14L11.05 438.75"
fill="none" stroke="black" stroke-width="0.5"/>
<path d="M669.41 286.58L652.6 296.18"
fill="none" stroke="black" stroke-width="0.5"/>
<path d="M455.56 429.14L438.75 438.75"
fill="none" stroke="black" stroke-width="0.5"/>
<path d="M241.71 571.71L224.9 581.31"
fill="none" stroke="black" stroke-width="0.5"/>
<path d="M669.41 571.71L652.6 581.31"
fill="none" stroke="black" stroke-width="0.5"/>
<path d="M642.99 598.12L652.6 581.31"
fill="none" stroke="black" stroke-width="0.5"/>
<path d="M642.99 312.99L652.6 296.18"
fill="none" stroke="black" stroke-width="0.5"/>
<path d="M429.14 455.56L438.75 438.75"
fill="none" stroke="black" stroke-width="0.5"/>
<path d="M215.29 598.12L224.9 581.31"
fill="none" stroke="black" stroke-width="0.5"/>
<path d="M429.14 170.42L438.75 153.61"
fill="none" stroke="black" stroke-width="0.5"/>
<path d="M215.29 312.99L224.9 296.18"
fill="none" stroke="black" stroke-width="0.5"/>
<path d="M1.44 455.56L11.05 438.75"
fill="none" stroke="black" stroke-width="0.5"/>
<path d="M1.44 170.42L11.05 153.61"
fill="none" stroke="black" stroke-width="0.5"/>
<path d="M1.44 474.01L11.05 490.82"
fill="none" stroke="black" stroke-width="0.5"/>
<path d="M215.29 616.58L224.9 633.39"
fill="none" stroke="black" stroke-width="0.5"/>
<path d="M1.44 188.88L11.05 205.69"
fill="none" stroke="black" stroke-width="0.5"/>
<path d="M215.29 331.44L224.9 348.25"
fill="none" stroke="black" stroke-width="0.5"/>
<path d="M429.14 474.01L438.75 490.82"
fill="none" stroke="black" stroke-width="0.5"/>
<path d="M642.99 616.58L652.6 633.39"
fill="none" stroke="black" stroke-width="0.5"/>
<path d="M429.14 188.88L438.75 205.69"
fill="none" stroke="black" stroke-width="0.5"/>
<path d="M642.99 331.44L652.6 348.25"
fill="none" stroke="black" stroke-width="0.5"/>
<path d="M455.56 215.29L438.75 205.69"
fill="none" stroke="black" stroke-width="0.5"/>
<path d="M669.41 357.86L652.6 348.25"
fill="none" stroke="black" stroke-width="0.5"/>
<path d="M27.86 215.29L11.05 205.69"
fill="none" stroke="black" stroke-width="0.5"/>
<path d="M241.71 357.86L224.9 348.25"
fill="none" stroke="black" stroke-width="0.5"/>
<path d="M455.56 500.42L438.75 490.82"
fill="none" stroke="black" stroke-width="0.5"/>
<path d="M669.41 642.99L652.6 633.39"
fill="none" stroke="black" stroke-width="0.5"/>
<path d="M27.86 500.42L11.05 490.82"
fill="none" stroke="black" stroke-width="0.5"/>
<path d="M241.71 642.99L224.9 633.39"
fill="none" stroke="black" stroke-width="0.5"/>
</svg>
