<?xml version="1.0" encoding="UTF-8"?>
<svg xmlns="http://www.w3.org/2000/svg" width="99.949mm" height="99.949mm" viewBox="0.0 0.0 787.000 787.000" preserveAspectRatio="none" version="1.1">
  <title>Produce by Acme CAD Converter</title>
  <desc>Produce by Acme CAD Converter</desc>
<path d="M86.07 635.18L99.42 635.18"
fill="none" stroke="black" stroke-width="0.5"/>
<path d="M537.21 635.18L550.55 635.18"
fill="none" stroke="black" stroke-width="0.5"/>
<path d="M311.64 484.8L324.98 484.8"
fill="none" stroke="black" stroke-width="0.5"/>
<path d="M762.77 484.8L776.12 484.8"
fill="none" stroke="black" stroke-width="0.5"/>
<path d="M86.07 334.42L99.42 334.42"
fill="none" stroke="black" stroke-width="0.5"/>
<path d="M537.21 334.42L550.55 334.42"
fill="none" stroke="black" stroke-width="0.5"/>
<path d="M311.64 184.04L324.98 184.04"
fill="none" stroke="black" stroke-width="0.5"/>
<path d="M762.77 184.04L776.12 184.04"
fill="none" stroke="black" stroke-width="0.5"/>
<path d="M86.07 602.96L99.42 602.96"
fill="none" stroke="black" stroke-width="0.5"/>
<path d="M537.21 602.96L550.55 602.96"
fill="none" stroke="black" stroke-width="0.5"/>
<path d="M311.64 452.58L324.98 452.58"
fill="none" stroke="black" stroke-width="0.5"/>
<path d="M762.77 452.58L776.12 452.58"
fill="none" stroke="black" stroke-width="0.5"/>
<path d="M86.07 302.2L99.42 302.2"
fill="none" stroke="black" stroke-width="0.5"/>
<path d="M537.21 302.2L550.55 302.2"
fill="none" stroke="black" stroke-width="0.5"/>
<path d="M311.64 151.82L324.98 151.82"
fill="none" stroke="black" stroke-width="0.5"/>
<path d="M762.77 151.82L776.12 151.82"
fill="none" stroke="black" stroke-width="0.5"/>
<path d="M753.33 475.36L753.33 462.02"
fill="none" stroke="black" stroke-width="0.5"/>
<path d="M753.33 174.61L753.33 161.26"
fill="none" stroke="black" stroke-width="0.5"/>
<path d="M527.77 625.74L527.77 612.39"
fill="none" stroke="black" stroke-width="0.5"/>
<path d="M527.77 324.98L527.77 311.64"
fill="none" stroke="black" stroke-width="0.5"/>
<path d="M302.2 475.36L302.2 462.02"
fill="none" stroke="black" stroke-width="0.5"/>
<path d="M302.2 174.61L302.2 161.26"
fill="none" stroke="black" stroke-width="0.5"/>
<path d="M76.63 625.74L76.63 612.39"
fill="none" stroke="black" stroke-width="0.5"/>
<path d="M76.63 324.98L76.63 311.64"
fill="none" stroke="black" stroke-width="0.5"/>
<path d="M785.56 475.36L785.56 462.02"
fill="none" stroke="black" stroke-width="0.5"/>
<path d="M785.56 174.61L785.56 161.26"
fill="none" stroke="black" stroke-width="0.5"/>
<path d="M559.99 625.74L559.99 612.39"
fill="none" stroke="black" stroke-width="0.5"/>
<path d="M559.99 324.98L559.99 311.64"
fill="none" stroke="black" stroke-width="0.5"/>
<path d="M334.42 475.36L334.42 462.02"
fill="none" stroke="black" stroke-width="0.5"/>
<path d="M334.42 174.61L334.42 161.26"
fill="none" stroke="black" stroke-width="0.5"/>
<path d="M108.86 625.74L108.86 612.39"
fill="none" stroke="black" stroke-width="0.5"/>
<path d="M108.86 324.98L108.86 311.64"
fill="none" stroke="black" stroke-width="0.5"/>
<path d="M776.12 484.8L785.56 475.36"
fill="none" stroke="black" stroke-width="0.5"/>
<path d="M550.55 635.18L559.99 625.74"
fill="none" stroke="black" stroke-width="0.5"/>
<path d="M776.12 184.04L785.56 174.61"
fill="none" stroke="black" stroke-width="0.5"/>
<path d="M550.55 334.42L559.99 324.98"
fill="none" stroke="black" stroke-width="0.5"/>
<path d="M324.98 484.8L334.42 475.36"
fill="none" stroke="black" stroke-width="0.5"/>
<path d="M99.42 635.18L108.86 625.74"
fill="none" stroke="black" stroke-width="0.5"/>
<path d="M324.98 184.04L334.42 174.61"
fill="none" stroke="black" stroke-width="0.5"/>
<path d="M99.42 334.42L108.86 324.98"
fill="none" stroke="black" stroke-width="0.5"/>
<path d="M99.42 602.96L108.86 612.39"
fill="none" stroke="black" stroke-width="0.5"/>
<path d="M99.42 302.2L108.86 311.64"
fill="none" stroke="black" stroke-width="0.5"/>
<path d="M324.98 452.58L334.42 462.02"
fill="none" stroke="black" stroke-width="0.5"/>
<path d="M550.55 602.96L559.99 612.39"
fill="none" stroke="black" stroke-width="0.5"/>
<path d="M324.98 151.82L334.42 161.26"
fill="none" stroke="black" stroke-width="0.5"/>
<path d="M550.55 302.2L559.99 311.64"
fill="none" stroke="black" stroke-width="0.5"/>
<path d="M776.12 452.58L785.56 462.02"
fill="none" stroke="black" stroke-width="0.5"/>
<path d="M776.12 151.82L785.56 161.26"
fill="none" stroke="black" stroke-width="0.5"/>
<path d="M86.07 302.2L76.63 311.64"
fill="none" stroke="black" stroke-width="0.5"/>
<path d="M311.64 151.82L302.2 161.26"
fill="none" stroke="black" stroke-width="0.5"/>
<path d="M86.07 602.96L76.63 612.39"
fill="none" stroke="black" stroke-width="0.5"/>
<path d="M311.64 452.58L302.2 462.02"
fill="none" stroke="black" stroke-width="0.5"/>
<path d="M537.21 302.2L527.77 311.64"
fill="none" stroke="black" stroke-width="0.5"/>
<path d="M762.77 151.82L753.33 161.26"
fill="none" stroke="black" stroke-width="0.5"/>
<path d="M537.21 602.96L527.77 612.39"
fill="none" stroke="black" stroke-width="0.5"/>
<path d="M762.77 452.58L753.33 462.02"
fill="none" stroke="black" stroke-width="0.5"/>
<path d="M762.77 184.04L753.33 174.61"
fill="none" stroke="black" stroke-width="0.5"/>
<path d="M762.77 484.8L753.33 475.36"
fill="none" stroke="black" stroke-width="0.5"/>
<path d="M537.21 334.42L527.77 324.98"
fill="none" stroke="black" stroke-width="0.5"/>
<path d="M311.64 184.04L302.2 174.61"
fill="none" stroke="black" stroke-width="0.5"/>
<path d="M537.21 635.18L527.77 625.74"
fill="none" stroke="black" stroke-width="0.5"/>
<path d="M311.64 484.8L302.2 475.36"
fill="none" stroke="black" stroke-width="0.5"/>
<path d="M86.07 334.42L76.63 324.98"
fill="none" stroke="black" stroke-width="0.5"/>
<path d="M86.07 635.18L76.63 625.74"
fill="none" stroke="black" stroke-width="0.5"/>
<path d="M236.45 635.18L249.79 635.18"
fill="none" stroke="black" stroke-width="0.5"/>
<path d="M687.58 635.18L700.93 635.18"
fill="none" stroke="black" stroke-width="0.5"/>
<path d="M10.88 484.8L24.23 484.8"
fill="none" stroke="black" stroke-width="0.5"/>
<path d="M462.02 484.8L475.36 484.8"
fill="none" stroke="black" stroke-width="0.5"/>
<path d="M236.45 334.42L249.79 334.42"
fill="none" stroke="black" stroke-width="0.5"/>
<path d="M687.58 334.42L700.93 334.42"
fill="none" stroke="black" stroke-width="0.5"/>
<path d="M10.88 184.04L24.23 184.04"
fill="none" stroke="black" stroke-width="0.5"/>
<path d="M462.02 184.04L475.36 184.04"
fill="none" stroke="black" stroke-width="0.5"/>
<path d="M236.45 602.96L249.79 602.96"
fill="none" stroke="black" stroke-width="0.5"/>
<path d="M687.58 602.96L700.93 602.96"
fill="none" stroke="black" stroke-width="0.5"/>
<path d="M10.88 452.58L24.23 452.58"
fill="none" stroke="black" stroke-width="0.5"/>
<path d="M462.02 452.58L475.36 452.58"
fill="none" stroke="black" stroke-width="0.5"/>
<path d="M236.45 302.2L249.79 302.2"
fill="none" stroke="black" stroke-width="0.5"/>
<path d="M687.58 302.2L700.93 302.2"
fill="none" stroke="black" stroke-width="0.5"/>
<path d="M10.88 151.82L24.23 151.82"
fill="none" stroke="black" stroke-width="0.5"/>
<path d="M462.02 151.82L475.36 151.82"
fill="none" stroke="black" stroke-width="0.5"/>
<path d="M678.14 625.74L678.14 612.39"
fill="none" stroke="black" stroke-width="0.5"/>
<path d="M678.14 324.98L678.14 311.64"
fill="none" stroke="black" stroke-width="0.5"/>
<path d="M452.58 475.36L452.58 462.02"
fill="none" stroke="black" stroke-width="0.5"/>
<path d="M452.58 174.61L452.58 161.26"
fill="none" stroke="black" stroke-width="0.5"/>
<path d="M227.01 625.74L227.01 612.39"
fill="none" stroke="black" stroke-width="0.5"/>
<path d="M227.01 324.98L227.01 311.64"
fill="none" stroke="black" stroke-width="0.5"/>
<path d="M1.44 475.36L1.44 462.02"
fill="none" stroke="black" stroke-width="0.5"/>
<path d="M1.44 174.61L1.44 161.26"
fill="none" stroke="black" stroke-width="0.5"/>
<path d="M710.37 625.74L710.37 612.39"
fill="none" stroke="black" stroke-width="0.5"/>
<path d="M710.37 324.98L710.37 311.64"
fill="none" stroke="black" stroke-width="0.5"/>
<path d="M484.8 475.36L484.8 462.02"
fill="none" stroke="black" stroke-width="0.5"/>
<path d="M484.8 174.61L484.8 161.26"
fill="none" stroke="black" stroke-width="0.5"/>
<path d="M259.23 625.74L259.23 612.39"
fill="none" stroke="black" stroke-width="0.5"/>
<path d="M259.23 324.98L259.23 311.64"
fill="none" stroke="black" stroke-width="0.5"/>
<path d="M33.67 475.36L33.67 462.02"
fill="none" stroke="black" stroke-width="0.5"/>
<path d="M33.67 174.61L33.67 161.26"
fill="none" stroke="black" stroke-width="0.5"/>
<path d="M700.93 635.18L710.37 625.74"
fill="none" stroke="black" stroke-width="0.5"/>
<path d="M700.93 334.42L710.37 324.98"
fill="none" stroke="black" stroke-width="0.5"/>
<path d="M475.36 484.8L484.8 475.36"
fill="none" stroke="black" stroke-width="0.5"/>
<path d="M249.79 635.18L259.23 625.74"
fill="none" stroke="black" stroke-width="0.5"/>
<path d="M475.36 184.04L484.8 174.61"
fill="none" stroke="black" stroke-width="0.5"/>
<path d="M249.79 334.42L259.23 324.98"
fill="none" stroke="black" stroke-width="0.5"/>
<path d="M24.23 484.8L33.67 475.36"
fill="none" stroke="black" stroke-width="0.5"/>
<path d="M24.23 184.04L33.67 174.61"
fill="none" stroke="black" stroke-width="0.5"/>
<path d="M24.23 452.58L33.67 462.02"
fill="none" stroke="black" stroke-width="0.5"/>
<path d="M249.79 602.96L259.23 612.39"
fill="none" stroke="black" stroke-width="0.5"/>
<path d="M24.23 151.82L33.67 161.26"
fill="none" stroke="black" stroke-width="0.5"/>
<path d="M249.79 302.2L259.23 311.64"
fill="none" stroke="black" stroke-width="0.5"/>
<path d="M475.36 452.58L484.8 462.02"
fill="none" stroke="black" stroke-width="0.5"/>
<path d="M700.93 602.96L710.37 612.39"
fill="none" stroke="black" stroke-width="0.5"/>
<path d="M475.36 151.82L484.8 161.26"
fill="none" stroke="black" stroke-width="0.5"/>
<path d="M700.93 302.2L710.37 311.64"
fill="none" stroke="black" stroke-width="0.5"/>
<path d="M10.88 151.82L1.44 161.26"
fill="none" stroke="black" stroke-width="0.5"/>
<path d="M10.88 452.58L1.44 462.02"
fill="none" stroke="black" stroke-width="0.5"/>
<path d="M236.45 302.2L227.01 311.64"
fill="none" stroke="black" stroke-width="0.5"/>
<path d="M462.02 151.82L452.58 161.26"
fill="none" stroke="black" stroke-width="0.5"/>
<path d="M236.45 602.96L227.01 612.39"
fill="none" stroke="black" stroke-width="0.5"/>
<path d="M462.02 452.58L452.58 462.02"
fill="none" stroke="black" stroke-width="0.5"/>
<path d="M687.58 302.2L678.14 311.64"
fill="none" stroke="black" stroke-width="0.5"/>
<path d="M687.58 602.96L678.14 612.39"
fill="none" stroke="black" stroke-width="0.5"/>
<path d="M687.58 334.42L678.14 324.98"
fill="none" stroke="black" stroke-width="0.5"/>
<path d="M462.02 184.04L452.58 174.61"
fill="none" stroke="black" stroke-width="0.5"/>
<path d="M687.58 635.18L678.14 625.74"
fill="none" stroke="black" stroke-width="0.5"/>
<path d="M462.02 484.8L452.58 475.36"
fill="none" stroke="black" stroke-width="0.5"/>
<path d="M236.45 334.42L227.01 324.98"
fill="none" stroke="black" stroke-width="0.5"/>
<path d="M10.88 184.04L1.44 174.61"
fill="none" stroke="black" stroke-width="0.5"/>
<path d="M236.45 635.18L227.01 625.74"
fill="none" stroke="black" stroke-width="0.5"/>
<path d="M10.88 484.8L1.44 475.36"
fill="none" stroke="black" stroke-width="0.5"/>
</svg>
