<?xml version="1.0" encoding="UTF-8"?>
<svg xmlns="http://www.w3.org/2000/svg" width="99.949mm" height="99.949mm" viewBox="0.0 0.0 787.000 787.000" preserveAspectRatio="none" version="1.1">
  <title>Produce by Acme CAD Converter</title>
  <desc>Produce by Acme CAD Converter</desc>
<path d="M130.91 619.69L143.4 619.69"
fill="none" stroke="black" stroke-width="0.5"/>
<path d="M553.13 619.69L565.62 619.69"
fill="none" stroke="black" stroke-width="0.5"/>
<path d="M342.02 478.95L354.51 478.95"
fill="none" stroke="black" stroke-width="0.5"/>
<path d="M764.23 478.95L776.72 478.95"
fill="none" stroke="black" stroke-width="0.5"/>
<path d="M130.91 338.21L143.4 338.21"
fill="none" stroke="black" stroke-width="0.5"/>
<path d="M553.13 338.21L565.62 338.21"
fill="none" stroke="black" stroke-width="0.5"/>
<path d="M342.02 197.47L354.51 197.47"
fill="none" stroke="black" stroke-width="0.5"/>
<path d="M764.23 197.47L776.72 197.47"
fill="none" stroke="black" stroke-width="0.5"/>
<path d="M130.91 589.53L143.4 589.53"
fill="none" stroke="black" stroke-width="0.5"/>
<path d="M553.13 589.53L565.62 589.53"
fill="none" stroke="black" stroke-width="0.5"/>
<path d="M342.02 448.79L354.51 448.79"
fill="none" stroke="black" stroke-width="0.5"/>
<path d="M764.23 448.79L776.72 448.79"
fill="none" stroke="black" stroke-width="0.5"/>
<path d="M130.91 308.05L143.4 308.05"
fill="none" stroke="black" stroke-width="0.5"/>
<path d="M553.13 308.05L565.62 308.05"
fill="none" stroke="black" stroke-width="0.5"/>
<path d="M342.02 167.31L354.51 167.31"
fill="none" stroke="black" stroke-width="0.5"/>
<path d="M764.23 167.31L776.72 167.31"
fill="none" stroke="black" stroke-width="0.5"/>
<path d="M755.4 470.11L755.4 457.62"
fill="none" stroke="black" stroke-width="0.5"/>
<path d="M755.4 188.64L755.4 176.15"
fill="none" stroke="black" stroke-width="0.5"/>
<path d="M544.29 610.85L544.29 598.36"
fill="none" stroke="black" stroke-width="0.5"/>
<path d="M544.29 329.38L544.29 316.89"
fill="none" stroke="black" stroke-width="0.5"/>
<path d="M333.19 470.11L333.19 457.62"
fill="none" stroke="black" stroke-width="0.5"/>
<path d="M333.19 188.64L333.19 176.15"
fill="none" stroke="black" stroke-width="0.5"/>
<path d="M122.08 610.85L122.08 598.36"
fill="none" stroke="black" stroke-width="0.5"/>
<path d="M122.08 329.38L122.08 316.89"
fill="none" stroke="black" stroke-width="0.5"/>
<path d="M785.56 470.11L785.56 457.62"
fill="none" stroke="black" stroke-width="0.5"/>
<path d="M785.56 188.64L785.56 176.15"
fill="none" stroke="black" stroke-width="0.5"/>
<path d="M574.45 610.85L574.45 598.36"
fill="none" stroke="black" stroke-width="0.5"/>
<path d="M574.45 329.38L574.45 316.89"
fill="none" stroke="black" stroke-width="0.5"/>
<path d="M363.34 470.11L363.34 457.62"
fill="none" stroke="black" stroke-width="0.5"/>
<path d="M363.34 188.64L363.34 176.15"
fill="none" stroke="black" stroke-width="0.5"/>
<path d="M152.24 610.85L152.24 598.36"
fill="none" stroke="black" stroke-width="0.5"/>
<path d="M152.24 329.38L152.24 316.89"
fill="none" stroke="black" stroke-width="0.5"/>
<path d="M776.72 478.95L785.56 470.11"
fill="none" stroke="black" stroke-width="0.5"/>
<path d="M565.62 619.69L574.45 610.85"
fill="none" stroke="black" stroke-width="0.5"/>
<path d="M776.72 197.47L785.56 188.64"
fill="none" stroke="black" stroke-width="0.5"/>
<path d="M565.62 338.21L574.45 329.38"
fill="none" stroke="black" stroke-width="0.5"/>
<path d="M354.51 478.95L363.34 470.11"
fill="none" stroke="black" stroke-width="0.5"/>
<path d="M143.4 619.69L152.24 610.85"
fill="none" stroke="black" stroke-width="0.5"/>
<path d="M354.51 197.47L363.34 188.64"
fill="none" stroke="black" stroke-width="0.5"/>
<path d="M143.4 338.21L152.24 329.38"
fill="none" stroke="black" stroke-width="0.5"/>
<path d="M143.4 589.53L152.24 598.36"
fill="none" stroke="black" stroke-width="0.5"/>
<path d="M143.4 308.05L152.24 316.89"
fill="none" stroke="black" stroke-width="0.5"/>
<path d="M354.51 448.79L363.34 457.62"
fill="none" stroke="black" stroke-width="0.5"/>
<path d="M565.62 589.53L574.45 598.36"
fill="none" stroke="black" stroke-width="0.5"/>
<path d="M354.51 167.31L363.34 176.15"
fill="none" stroke="black" stroke-width="0.5"/>
<path d="M565.62 308.05L574.45 316.89"
fill="none" stroke="black" stroke-width="0.5"/>
<path d="M776.72 448.79L785.56 457.62"
fill="none" stroke="black" stroke-width="0.5"/>
<path d="M776.72 167.31L785.56 176.15"
fill="none" stroke="black" stroke-width="0.5"/>
<path d="M130.91 308.05L122.08 316.89"
fill="none" stroke="black" stroke-width="0.5"/>
<path d="M342.02 167.31L333.19 176.15"
fill="none" stroke="black" stroke-width="0.5"/>
<path d="M130.91 589.53L122.08 598.36"
fill="none" stroke="black" stroke-width="0.5"/>
<path d="M342.02 448.79L333.19 457.62"
fill="none" stroke="black" stroke-width="0.5"/>
<path d="M553.13 308.05L544.29 316.89"
fill="none" stroke="black" stroke-width="0.5"/>
<path d="M764.23 167.31L755.4 176.15"
fill="none" stroke="black" stroke-width="0.5"/>
<path d="M553.13 589.53L544.29 598.36"
fill="none" stroke="black" stroke-width="0.5"/>
<path d="M764.23 448.79L755.4 457.62"
fill="none" stroke="black" stroke-width="0.5"/>
<path d="M764.23 197.47L755.4 188.64"
fill="none" stroke="black" stroke-width="0.5"/>
<path d="M764.23 478.95L755.4 470.11"
fill="none" stroke="black" stroke-width="0.5"/>
<path d="M553.13 338.21L544.29 329.38"
fill="none" stroke="black" stroke-width="0.5"/>
<path d="M342.02 197.47L333.19 188.64"
fill="none" stroke="black" stroke-width="0.5"/>
<path d="M553.13 619.69L544.29 610.85"
fill="none" stroke="black" stroke-width="0.5"/>
<path d="M342.02 478.95L333.19 470.11"
fill="none" stroke="black" stroke-width="0.5"/>
<path d="M130.91 338.21L122.08 329.38"
fill="none" stroke="black" stroke-width="0.5"/>
<path d="M130.91 619.69L122.08 610.85"
fill="none" stroke="black" stroke-width="0.5"/>
<path d="M265.15 669.95L290.64 669.95"
fill="none" stroke="black" stroke-width="0.5"/>
<path d="M687.36 669.95L712.86 669.95"
fill="none" stroke="black" stroke-width="0.5"/>
<path d="M54.04 529.21L79.54 529.21"
fill="none" stroke="black" stroke-width="0.5"/>
<path d="M476.26 529.21L501.75 529.21"
fill="none" stroke="black" stroke-width="0.5"/>
<path d="M265.15 388.47L290.64 388.47"
fill="none" stroke="black" stroke-width="0.5"/>
<path d="M687.36 388.47L712.86 388.47"
fill="none" stroke="black" stroke-width="0.5"/>
<path d="M54.04 247.74L79.54 247.74"
fill="none" stroke="black" stroke-width="0.5"/>
<path d="M476.26 247.74L501.75 247.74"
fill="none" stroke="black" stroke-width="0.5"/>
<path d="M265.15 539.26L290.64 539.26"
fill="none" stroke="black" stroke-width="0.5"/>
<path d="M687.36 539.26L712.86 539.26"
fill="none" stroke="black" stroke-width="0.5"/>
<path d="M54.04 398.53L79.54 398.53"
fill="none" stroke="black" stroke-width="0.5"/>
<path d="M476.26 398.53L501.75 398.53"
fill="none" stroke="black" stroke-width="0.5"/>
<path d="M265.15 257.79L290.64 257.79"
fill="none" stroke="black" stroke-width="0.5"/>
<path d="M687.36 257.79L712.86 257.79"
fill="none" stroke="black" stroke-width="0.5"/>
<path d="M54.04 117.05L79.54 117.05"
fill="none" stroke="black" stroke-width="0.5"/>
<path d="M476.26 117.05L501.75 117.05"
fill="none" stroke="black" stroke-width="0.5"/>
<path d="M634.77 617.35L634.77 591.86"
fill="none" stroke="black" stroke-width="0.5"/>
<path d="M634.77 335.88L634.77 310.38"
fill="none" stroke="black" stroke-width="0.5"/>
<path d="M423.66 476.62L423.66 451.12"
fill="none" stroke="black" stroke-width="0.5"/>
<path d="M423.66 195.14L423.66 169.65"
fill="none" stroke="black" stroke-width="0.5"/>
<path d="M212.55 617.35L212.55 591.86"
fill="none" stroke="black" stroke-width="0.5"/>
<path d="M212.55 335.88L212.55 310.38"
fill="none" stroke="black" stroke-width="0.5"/>
<path d="M1.45 476.62L1.45 451.12"
fill="none" stroke="black" stroke-width="0.5"/>
<path d="M1.45 195.14L1.45 169.65"
fill="none" stroke="black" stroke-width="0.5"/>
<path d="M765.45 617.35L765.45 591.86"
fill="none" stroke="black" stroke-width="0.5"/>
<path d="M765.45 335.88L765.45 310.38"
fill="none" stroke="black" stroke-width="0.5"/>
<path d="M554.35 476.62L554.35 451.12"
fill="none" stroke="black" stroke-width="0.5"/>
<path d="M554.35 195.14L554.35 169.65"
fill="none" stroke="black" stroke-width="0.5"/>
<path d="M343.24 617.35L343.24 591.86"
fill="none" stroke="black" stroke-width="0.5"/>
<path d="M343.24 335.88L343.24 310.38"
fill="none" stroke="black" stroke-width="0.5"/>
<path d="M132.13 476.62L132.13 451.12"
fill="none" stroke="black" stroke-width="0.5"/>
<path d="M132.13 195.14L132.13 169.65"
fill="none" stroke="black" stroke-width="0.5"/>
<path d="M735.85 660.75L756.25 640.35"
fill="none" stroke="black" stroke-width="0.5"/>
<path d="M735.85 379.27L756.25 358.87"
fill="none" stroke="black" stroke-width="0.5"/>
<path d="M524.75 520.01L545.14 499.61"
fill="none" stroke="black" stroke-width="0.5"/>
<path d="M313.64 660.75L334.04 640.35"
fill="none" stroke="black" stroke-width="0.5"/>
<path d="M524.75 238.54L545.14 218.14"
fill="none" stroke="black" stroke-width="0.5"/>
<path d="M313.64 379.27L334.04 358.87"
fill="none" stroke="black" stroke-width="0.5"/>
<path d="M102.53 520.01L122.93 499.61"
fill="none" stroke="black" stroke-width="0.5"/>
<path d="M102.53 238.54L122.93 218.14"
fill="none" stroke="black" stroke-width="0.5"/>
<path d="M102.53 407.73L122.93 428.13"
fill="none" stroke="black" stroke-width="0.5"/>
<path d="M313.64 548.46L334.04 568.86"
fill="none" stroke="black" stroke-width="0.5"/>
<path d="M102.53 126.25L122.93 146.65"
fill="none" stroke="black" stroke-width="0.5"/>
<path d="M313.64 266.99L334.04 287.39"
fill="none" stroke="black" stroke-width="0.5"/>
<path d="M524.75 407.73L545.14 428.13"
fill="none" stroke="black" stroke-width="0.5"/>
<path d="M735.85 548.46L756.25 568.86"
fill="none" stroke="black" stroke-width="0.5"/>
<path d="M524.75 126.25L545.14 146.65"
fill="none" stroke="black" stroke-width="0.5"/>
<path d="M735.85 266.99L756.25 287.39"
fill="none" stroke="black" stroke-width="0.5"/>
<path d="M31.05 126.25L10.65 146.65"
fill="none" stroke="black" stroke-width="0.5"/>
<path d="M31.05 407.73L10.65 428.13"
fill="none" stroke="black" stroke-width="0.5"/>
<path d="M242.15 266.99L221.75 287.39"
fill="none" stroke="black" stroke-width="0.5"/>
<path d="M453.26 126.25L432.86 146.65"
fill="none" stroke="black" stroke-width="0.5"/>
<path d="M242.15 548.46L221.75 568.86"
fill="none" stroke="black" stroke-width="0.5"/>
<path d="M453.26 407.73L432.86 428.13"
fill="none" stroke="black" stroke-width="0.5"/>
<path d="M664.37 266.99L643.97 287.39"
fill="none" stroke="black" stroke-width="0.5"/>
<path d="M664.37 548.46L643.97 568.86"
fill="none" stroke="black" stroke-width="0.5"/>
<path d="M664.37 379.27L643.97 358.87"
fill="none" stroke="black" stroke-width="0.5"/>
<path d="M453.26 238.54L432.86 218.14"
fill="none" stroke="black" stroke-width="0.5"/>
<path d="M664.37 660.75L643.97 640.35"
fill="none" stroke="black" stroke-width="0.5"/>
<path d="M453.26 520.01L432.86 499.61"
fill="none" stroke="black" stroke-width="0.5"/>
<path d="M242.15 379.27L221.75 358.87"
fill="none" stroke="black" stroke-width="0.5"/>
<path d="M31.05 238.54L10.65 218.14"
fill="none" stroke="black" stroke-width="0.5"/>
<path d="M242.15 660.75L221.75 640.35"
fill="none" stroke="black" stroke-width="0.5"/>
<path d="M31.05 520.01L10.65 499.61"
fill="none" stroke="black" stroke-width="0.5"/>
<path d="M712.86 669.95L735.85 660.75"
fill="none" stroke="black" stroke-width="0.5"/>
<path d="M290.64 669.95L313.64 660.75"
fill="none" stroke="black" stroke-width="0.5"/>
<path d="M501.75 529.21L524.75 520.01"
fill="none" stroke="black" stroke-width="0.5"/>
<path d="M712.86 388.47L735.85 379.27"
fill="none" stroke="black" stroke-width="0.5"/>
<path d="M79.54 529.21L102.53 520.01"
fill="none" stroke="black" stroke-width="0.5"/>
<path d="M290.64 388.47L313.64 379.27"
fill="none" stroke="black" stroke-width="0.5"/>
<path d="M501.75 247.74L524.75 238.54"
fill="none" stroke="black" stroke-width="0.5"/>
<path d="M79.54 247.74L102.53 238.54"
fill="none" stroke="black" stroke-width="0.5"/>
<path d="M132.13 195.14L122.93 218.14"
fill="none" stroke="black" stroke-width="0.5"/>
<path d="M132.13 476.62L122.93 499.61"
fill="none" stroke="black" stroke-width="0.5"/>
<path d="M343.24 335.88L334.04 358.87"
fill="none" stroke="black" stroke-width="0.5"/>
<path d="M343.24 617.35L334.04 640.35"
fill="none" stroke="black" stroke-width="0.5"/>
<path d="M554.35 195.14L545.14 218.14"
fill="none" stroke="black" stroke-width="0.5"/>
<path d="M554.35 476.62L545.14 499.61"
fill="none" stroke="black" stroke-width="0.5"/>
<path d="M765.45 335.88L756.25 358.87"
fill="none" stroke="black" stroke-width="0.5"/>
<path d="M765.45 617.35L756.25 640.35"
fill="none" stroke="black" stroke-width="0.5"/>
<path d="M765.45 310.38L756.25 287.39"
fill="none" stroke="black" stroke-width="0.5"/>
<path d="M765.45 591.86L756.25 568.86"
fill="none" stroke="black" stroke-width="0.5"/>
<path d="M554.35 169.65L545.14 146.65"
fill="none" stroke="black" stroke-width="0.5"/>
<path d="M554.35 451.12L545.14 428.13"
fill="none" stroke="black" stroke-width="0.5"/>
<path d="M343.24 310.38L334.04 287.39"
fill="none" stroke="black" stroke-width="0.5"/>
<path d="M343.24 591.86L334.04 568.86"
fill="none" stroke="black" stroke-width="0.5"/>
<path d="M132.13 169.65L122.93 146.65"
fill="none" stroke="black" stroke-width="0.5"/>
<path d="M132.13 451.12L122.93 428.13"
fill="none" stroke="black" stroke-width="0.5"/>
<path d="M290.64 539.26L313.64 548.46"
fill="none" stroke="black" stroke-width="0.5"/>
<path d="M79.54 398.53L102.53 407.73"
fill="none" stroke="black" stroke-width="0.5"/>
<path d="M712.86 539.26L735.85 548.46"
fill="none" stroke="black" stroke-width="0.5"/>
<path d="M501.75 398.53L524.75 407.73"
fill="none" stroke="black" stroke-width="0.5"/>
<path d="M290.64 257.79L313.64 266.99"
fill="none" stroke="black" stroke-width="0.5"/>
<path d="M79.54 117.05L102.53 126.25"
fill="none" stroke="black" stroke-width="0.5"/>
<path d="M712.86 257.79L735.85 266.99"
fill="none" stroke="black" stroke-width="0.5"/>
<path d="M501.75 117.05L524.75 126.25"
fill="none" stroke="black" stroke-width="0.5"/>
<path d="M54.04 117.05L31.05 126.25"
fill="none" stroke="black" stroke-width="0.5"/>
<path d="M476.26 117.05L453.26 126.25"
fill="none" stroke="black" stroke-width="0.5"/>
<path d="M265.15 257.79L242.15 266.99"
fill="none" stroke="black" stroke-width="0.5"/>
<path d="M54.04 398.53L31.05 407.73"
fill="none" stroke="black" stroke-width="0.5"/>
<path d="M687.36 257.79L664.37 266.99"
fill="none" stroke="black" stroke-width="0.5"/>
<path d="M476.26 398.53L453.26 407.73"
fill="none" stroke="black" stroke-width="0.5"/>
<path d="M265.15 539.26L242.15 548.46"
fill="none" stroke="black" stroke-width="0.5"/>
<path d="M687.36 539.27L664.37 548.46"
fill="none" stroke="black" stroke-width="0.5"/>
<path d="M634.77 591.86L643.96 568.86"
fill="none" stroke="black" stroke-width="0.5"/>
<path d="M634.77 310.38L643.96 287.38"
fill="none" stroke="black" stroke-width="0.5"/>
<path d="M423.66 451.12L432.86 428.12"
fill="none" stroke="black" stroke-width="0.5"/>
<path d="M423.66 169.64L432.86 146.65"
fill="none" stroke="black" stroke-width="0.5"/>
<path d="M212.55 591.86L221.75 568.86"
fill="none" stroke="black" stroke-width="0.5"/>
<path d="M212.55 310.38L221.75 287.38"
fill="none" stroke="black" stroke-width="0.5"/>
<path d="M1.45 451.12L10.64 428.13"
fill="none" stroke="black" stroke-width="0.5"/>
<path d="M1.44 169.65L10.64 146.65"
fill="none" stroke="black" stroke-width="0.5"/>
<path d="M1.45 476.62L10.65 499.61"
fill="none" stroke="black" stroke-width="0.5"/>
<path d="M1.45 195.14L10.65 218.14"
fill="none" stroke="black" stroke-width="0.5"/>
<path d="M212.55 617.35L221.75 640.35"
fill="none" stroke="black" stroke-width="0.5"/>
<path d="M212.55 335.88L221.75 358.88"
fill="none" stroke="black" stroke-width="0.5"/>
<path d="M423.66 476.62L432.86 499.62"
fill="none" stroke="black" stroke-width="0.5"/>
<path d="M423.66 195.14L432.86 218.14"
fill="none" stroke="black" stroke-width="0.5"/>
<path d="M634.77 617.36L643.97 640.35"
fill="none" stroke="black" stroke-width="0.5"/>
<path d="M634.77 335.88L643.97 358.88"
fill="none" stroke="black" stroke-width="0.5"/>
<path d="M476.25 247.74L453.26 238.54"
fill="none" stroke="black" stroke-width="0.5"/>
<path d="M687.36 388.47L664.36 379.27"
fill="none" stroke="black" stroke-width="0.5"/>
<path d="M54.04 247.74L31.04 238.54"
fill="none" stroke="black" stroke-width="0.5"/>
<path d="M265.15 388.47L242.15 379.27"
fill="none" stroke="black" stroke-width="0.5"/>
<path d="M476.25 529.21L453.26 520.01"
fill="none" stroke="black" stroke-width="0.5"/>
<path d="M687.36 669.95L664.37 660.75"
fill="none" stroke="black" stroke-width="0.5"/>
<path d="M54.04 529.21L31.04 520.01"
fill="none" stroke="black" stroke-width="0.5"/>
<path d="M265.15 669.95L242.15 660.75"
fill="none" stroke="black" stroke-width="0.5"/>
</svg>
