<?xml version="1.0" encoding="UTF-8"?>
<svg xmlns="http://www.w3.org/2000/svg" width="99.949mm" height="99.949mm" viewBox="0.0 0.0 787.000 787.000" preserveAspectRatio="none" version="1.1">
  <title>Produce by Acme CAD Converter</title>
  <desc>Produce by Acme CAD Converter</desc>
<path d="M104.72 628.73L117.71 628.73"
fill="none" stroke="black" stroke-width="0.5"/>
<path d="M543.83 628.73L556.82 628.73"
fill="none" stroke="black" stroke-width="0.5"/>
<path d="M324.28 482.37L337.27 482.37"
fill="none" stroke="black" stroke-width="0.5"/>
<path d="M763.38 482.37L776.37 482.37"
fill="none" stroke="black" stroke-width="0.5"/>
<path d="M104.72 336L117.71 336"
fill="none" stroke="black" stroke-width="0.5"/>
<path d="M543.83 336L556.82 336"
fill="none" stroke="black" stroke-width="0.5"/>
<path d="M324.28 189.63L337.27 189.63"
fill="none" stroke="black" stroke-width="0.5"/>
<path d="M763.38 189.63L776.37 189.63"
fill="none" stroke="black" stroke-width="0.5"/>
<path d="M104.72 597.37L117.71 597.37"
fill="none" stroke="black" stroke-width="0.5"/>
<path d="M543.83 597.37L556.82 597.37"
fill="none" stroke="black" stroke-width="0.5"/>
<path d="M324.28 451L337.27 451"
fill="none" stroke="black" stroke-width="0.5"/>
<path d="M763.38 451L776.37 451"
fill="none" stroke="black" stroke-width="0.5"/>
<path d="M104.72 304.63L117.71 304.63"
fill="none" stroke="black" stroke-width="0.5"/>
<path d="M543.83 304.63L556.82 304.63"
fill="none" stroke="black" stroke-width="0.5"/>
<path d="M324.28 158.27L337.27 158.27"
fill="none" stroke="black" stroke-width="0.5"/>
<path d="M763.38 158.27L776.37 158.27"
fill="none" stroke="black" stroke-width="0.5"/>
<path d="M754.19 473.18L754.19 460.19"
fill="none" stroke="black" stroke-width="0.5"/>
<path d="M754.19 180.44L754.19 167.45"
fill="none" stroke="black" stroke-width="0.5"/>
<path d="M534.64 619.55L534.64 606.56"
fill="none" stroke="black" stroke-width="0.5"/>
<path d="M534.64 326.81L534.64 313.82"
fill="none" stroke="black" stroke-width="0.5"/>
<path d="M315.09 473.18L315.09 460.19"
fill="none" stroke="black" stroke-width="0.5"/>
<path d="M315.09 180.44L315.09 167.45"
fill="none" stroke="black" stroke-width="0.5"/>
<path d="M95.54 619.55L95.54 606.56"
fill="none" stroke="black" stroke-width="0.5"/>
<path d="M95.54 326.81L95.54 313.82"
fill="none" stroke="black" stroke-width="0.5"/>
<path d="M785.56 473.18L785.56 460.19"
fill="none" stroke="black" stroke-width="0.5"/>
<path d="M785.56 180.44L785.56 167.45"
fill="none" stroke="black" stroke-width="0.5"/>
<path d="M566.01 619.55L566.01 606.56"
fill="none" stroke="black" stroke-width="0.5"/>
<path d="M566.01 326.81L566.01 313.82"
fill="none" stroke="black" stroke-width="0.5"/>
<path d="M346.45 473.18L346.45 460.19"
fill="none" stroke="black" stroke-width="0.5"/>
<path d="M346.45 180.44L346.45 167.45"
fill="none" stroke="black" stroke-width="0.5"/>
<path d="M126.9 619.55L126.9 606.56"
fill="none" stroke="black" stroke-width="0.5"/>
<path d="M126.9 326.81L126.9 313.82"
fill="none" stroke="black" stroke-width="0.5"/>
<path d="M776.37 482.37L785.56 473.18"
fill="none" stroke="black" stroke-width="0.5"/>
<path d="M556.82 628.73L566.01 619.55"
fill="none" stroke="black" stroke-width="0.5"/>
<path d="M776.37 189.63L785.56 180.44"
fill="none" stroke="black" stroke-width="0.5"/>
<path d="M556.82 336L566.01 326.81"
fill="none" stroke="black" stroke-width="0.5"/>
<path d="M337.27 482.37L346.45 473.18"
fill="none" stroke="black" stroke-width="0.5"/>
<path d="M117.71 628.73L126.9 619.55"
fill="none" stroke="black" stroke-width="0.5"/>
<path d="M337.27 189.63L346.45 180.44"
fill="none" stroke="black" stroke-width="0.5"/>
<path d="M117.71 336L126.9 326.81"
fill="none" stroke="black" stroke-width="0.5"/>
<path d="M117.71 597.37L126.9 606.56"
fill="none" stroke="black" stroke-width="0.5"/>
<path d="M117.71 304.63L126.9 313.82"
fill="none" stroke="black" stroke-width="0.5"/>
<path d="M337.27 451L346.45 460.19"
fill="none" stroke="black" stroke-width="0.5"/>
<path d="M556.82 597.37L566.01 606.56"
fill="none" stroke="black" stroke-width="0.5"/>
<path d="M337.27 158.27L346.45 167.45"
fill="none" stroke="black" stroke-width="0.5"/>
<path d="M556.82 304.63L566.01 313.82"
fill="none" stroke="black" stroke-width="0.5"/>
<path d="M776.37 451L785.56 460.19"
fill="none" stroke="black" stroke-width="0.5"/>
<path d="M776.37 158.27L785.56 167.45"
fill="none" stroke="black" stroke-width="0.5"/>
<path d="M104.72 304.63L95.54 313.82"
fill="none" stroke="black" stroke-width="0.5"/>
<path d="M324.28 158.27L315.09 167.45"
fill="none" stroke="black" stroke-width="0.5"/>
<path d="M104.72 597.37L95.54 606.56"
fill="none" stroke="black" stroke-width="0.5"/>
<path d="M324.28 451L315.09 460.19"
fill="none" stroke="black" stroke-width="0.5"/>
<path d="M543.83 304.63L534.64 313.82"
fill="none" stroke="black" stroke-width="0.5"/>
<path d="M763.38 158.27L754.19 167.45"
fill="none" stroke="black" stroke-width="0.5"/>
<path d="M543.83 597.37L534.64 606.56"
fill="none" stroke="black" stroke-width="0.5"/>
<path d="M763.38 451L754.19 460.19"
fill="none" stroke="black" stroke-width="0.5"/>
<path d="M763.38 189.63L754.19 180.44"
fill="none" stroke="black" stroke-width="0.5"/>
<path d="M763.38 482.37L754.19 473.18"
fill="none" stroke="black" stroke-width="0.5"/>
<path d="M543.83 336L534.64 326.81"
fill="none" stroke="black" stroke-width="0.5"/>
<path d="M324.28 189.63L315.09 180.44"
fill="none" stroke="black" stroke-width="0.5"/>
<path d="M543.83 628.73L534.64 619.55"
fill="none" stroke="black" stroke-width="0.5"/>
<path d="M324.28 482.37L315.09 473.18"
fill="none" stroke="black" stroke-width="0.5"/>
<path d="M104.72 336L95.54 326.81"
fill="none" stroke="black" stroke-width="0.5"/>
<path d="M104.72 628.73L95.54 619.55"
fill="none" stroke="black" stroke-width="0.5"/>
<path d="M248.11 649.64L267.06 649.64"
fill="none" stroke="black" stroke-width="0.5"/>
<path d="M687.22 649.64L706.16 649.64"
fill="none" stroke="black" stroke-width="0.5"/>
<path d="M28.56 503.28L47.51 503.28"
fill="none" stroke="black" stroke-width="0.5"/>
<path d="M467.67 503.28L486.61 503.28"
fill="none" stroke="black" stroke-width="0.5"/>
<path d="M248.11 356.91L267.06 356.91"
fill="none" stroke="black" stroke-width="0.5"/>
<path d="M687.22 356.91L706.16 356.91"
fill="none" stroke="black" stroke-width="0.5"/>
<path d="M28.56 210.54L47.51 210.54"
fill="none" stroke="black" stroke-width="0.5"/>
<path d="M467.67 210.54L486.61 210.54"
fill="none" stroke="black" stroke-width="0.5"/>
<path d="M248.11 576.46L267.06 576.46"
fill="none" stroke="black" stroke-width="0.5"/>
<path d="M687.22 576.46L706.16 576.46"
fill="none" stroke="black" stroke-width="0.5"/>
<path d="M28.56 430.09L47.51 430.09"
fill="none" stroke="black" stroke-width="0.5"/>
<path d="M467.67 430.09L486.61 430.09"
fill="none" stroke="black" stroke-width="0.5"/>
<path d="M248.11 283.72L267.06 283.72"
fill="none" stroke="black" stroke-width="0.5"/>
<path d="M687.22 283.72L706.16 283.72"
fill="none" stroke="black" stroke-width="0.5"/>
<path d="M28.56 137.36L47.51 137.36"
fill="none" stroke="black" stroke-width="0.5"/>
<path d="M467.67 137.36L486.61 137.36"
fill="none" stroke="black" stroke-width="0.5"/>
<path d="M660.1 622.52L660.1 603.58"
fill="none" stroke="black" stroke-width="0.5"/>
<path d="M660.1 329.79L660.1 310.84"
fill="none" stroke="black" stroke-width="0.5"/>
<path d="M440.55 476.16L440.55 457.21"
fill="none" stroke="black" stroke-width="0.5"/>
<path d="M440.55 183.42L440.55 164.48"
fill="none" stroke="black" stroke-width="0.5"/>
<path d="M220.99 622.52L220.99 603.58"
fill="none" stroke="black" stroke-width="0.5"/>
<path d="M220.99 329.79L220.99 310.84"
fill="none" stroke="black" stroke-width="0.5"/>
<path d="M1.44 476.16L1.44 457.21"
fill="none" stroke="black" stroke-width="0.5"/>
<path d="M1.44 183.42L1.44 164.48"
fill="none" stroke="black" stroke-width="0.5"/>
<path d="M733.28 622.52L733.28 603.58"
fill="none" stroke="black" stroke-width="0.5"/>
<path d="M733.28 329.79L733.28 310.84"
fill="none" stroke="black" stroke-width="0.5"/>
<path d="M513.73 476.16L513.73 457.21"
fill="none" stroke="black" stroke-width="0.5"/>
<path d="M513.73 183.42L513.73 164.48"
fill="none" stroke="black" stroke-width="0.5"/>
<path d="M294.18 622.52L294.18 603.58"
fill="none" stroke="black" stroke-width="0.5"/>
<path d="M294.18 329.79L294.18 310.84"
fill="none" stroke="black" stroke-width="0.5"/>
<path d="M74.63 476.16L74.63 457.21"
fill="none" stroke="black" stroke-width="0.5"/>
<path d="M74.63 183.42L74.63 164.48"
fill="none" stroke="black" stroke-width="0.5"/>
<path d="M706.16 649.64L723.42 639.78"
fill="none" stroke="black" stroke-width="0.5"/>
<path d="M267.06 649.64L284.32 639.78"
fill="none" stroke="black" stroke-width="0.5"/>
<path d="M486.61 503.28L503.87 493.42"
fill="none" stroke="black" stroke-width="0.5"/>
<path d="M706.16 356.91L723.42 347.05"
fill="none" stroke="black" stroke-width="0.5"/>
<path d="M47.51 503.28L64.77 493.42"
fill="none" stroke="black" stroke-width="0.5"/>
<path d="M267.06 356.91L284.32 347.05"
fill="none" stroke="black" stroke-width="0.5"/>
<path d="M486.61 210.54L503.87 200.68"
fill="none" stroke="black" stroke-width="0.5"/>
<path d="M47.51 210.54L64.77 200.68"
fill="none" stroke="black" stroke-width="0.5"/>
<path d="M74.63 183.42L64.77 200.68"
fill="none" stroke="black" stroke-width="0.5"/>
<path d="M74.63 476.16L64.77 493.42"
fill="none" stroke="black" stroke-width="0.5"/>
<path d="M294.18 329.79L284.32 347.05"
fill="none" stroke="black" stroke-width="0.5"/>
<path d="M513.73 183.42L503.87 200.68"
fill="none" stroke="black" stroke-width="0.5"/>
<path d="M294.18 622.52L284.32 639.78"
fill="none" stroke="black" stroke-width="0.5"/>
<path d="M513.73 476.16L503.87 493.42"
fill="none" stroke="black" stroke-width="0.5"/>
<path d="M733.28 329.79L723.42 347.05"
fill="none" stroke="black" stroke-width="0.5"/>
<path d="M733.28 622.52L723.42 639.78"
fill="none" stroke="black" stroke-width="0.5"/>
<path d="M733.28 310.84L723.42 293.58"
fill="none" stroke="black" stroke-width="0.5"/>
<path d="M513.73 164.48L503.87 147.22"
fill="none" stroke="black" stroke-width="0.5"/>
<path d="M733.28 603.58L723.42 586.32"
fill="none" stroke="black" stroke-width="0.5"/>
<path d="M513.73 457.21L503.87 439.95"
fill="none" stroke="black" stroke-width="0.5"/>
<path d="M294.18 310.84L284.32 293.58"
fill="none" stroke="black" stroke-width="0.5"/>
<path d="M74.63 164.48L64.77 147.22"
fill="none" stroke="black" stroke-width="0.5"/>
<path d="M294.18 603.58L284.32 586.32"
fill="none" stroke="black" stroke-width="0.5"/>
<path d="M74.63 457.21L64.77 439.95"
fill="none" stroke="black" stroke-width="0.5"/>
<path d="M267.06 576.46L284.32 586.32"
fill="none" stroke="black" stroke-width="0.5"/>
<path d="M47.51 430.09L64.77 439.95"
fill="none" stroke="black" stroke-width="0.5"/>
<path d="M706.16 576.46L723.42 586.32"
fill="none" stroke="black" stroke-width="0.5"/>
<path d="M486.61 430.09L503.87 439.95"
fill="none" stroke="black" stroke-width="0.5"/>
<path d="M267.06 283.72L284.32 293.58"
fill="none" stroke="black" stroke-width="0.5"/>
<path d="M47.51 137.36L64.77 147.22"
fill="none" stroke="black" stroke-width="0.5"/>
<path d="M706.16 283.72L723.42 293.58"
fill="none" stroke="black" stroke-width="0.5"/>
<path d="M486.61 137.36L503.87 147.22"
fill="none" stroke="black" stroke-width="0.5"/>
<path d="M28.56 137.36L11.3 147.22"
fill="none" stroke="black" stroke-width="0.5"/>
<path d="M467.67 137.36L450.41 147.22"
fill="none" stroke="black" stroke-width="0.5"/>
<path d="M248.11 283.72L230.86 293.58"
fill="none" stroke="black" stroke-width="0.5"/>
<path d="M28.56 430.09L11.3 439.95"
fill="none" stroke="black" stroke-width="0.5"/>
<path d="M687.22 283.72L669.96 293.58"
fill="none" stroke="black" stroke-width="0.5"/>
<path d="M467.67 430.09L450.41 439.95"
fill="none" stroke="black" stroke-width="0.5"/>
<path d="M248.11 576.46L230.86 586.32"
fill="none" stroke="black" stroke-width="0.5"/>
<path d="M687.22 576.46L669.96 586.32"
fill="none" stroke="black" stroke-width="0.5"/>
<path d="M660.1 603.58L669.96 586.32"
fill="none" stroke="black" stroke-width="0.5"/>
<path d="M660.1 310.84L669.96 293.58"
fill="none" stroke="black" stroke-width="0.5"/>
<path d="M440.55 457.21L450.41 439.95"
fill="none" stroke="black" stroke-width="0.5"/>
<path d="M220.99 603.58L230.86 586.32"
fill="none" stroke="black" stroke-width="0.5"/>
<path d="M440.55 164.48L450.41 147.22"
fill="none" stroke="black" stroke-width="0.5"/>
<path d="M220.99 310.84L230.86 293.58"
fill="none" stroke="black" stroke-width="0.5"/>
<path d="M1.44 457.21L11.3 439.95"
fill="none" stroke="black" stroke-width="0.5"/>
<path d="M1.44 164.48L11.3 147.22"
fill="none" stroke="black" stroke-width="0.5"/>
<path d="M1.44 476.16L11.3 493.42"
fill="none" stroke="black" stroke-width="0.5"/>
<path d="M220.99 622.52L230.86 639.78"
fill="none" stroke="black" stroke-width="0.5"/>
<path d="M1.44 183.42L11.3 200.68"
fill="none" stroke="black" stroke-width="0.5"/>
<path d="M220.99 329.79L230.86 347.05"
fill="none" stroke="black" stroke-width="0.5"/>
<path d="M440.55 476.16L450.41 493.42"
fill="none" stroke="black" stroke-width="0.5"/>
<path d="M660.1 622.52L669.96 639.78"
fill="none" stroke="black" stroke-width="0.5"/>
<path d="M440.55 183.42L450.41 200.68"
fill="none" stroke="black" stroke-width="0.5"/>
<path d="M660.1 329.79L669.96 347.05"
fill="none" stroke="black" stroke-width="0.5"/>
<path d="M467.67 210.54L450.41 200.68"
fill="none" stroke="black" stroke-width="0.5"/>
<path d="M687.22 356.91L669.96 347.05"
fill="none" stroke="black" stroke-width="0.5"/>
<path d="M28.56 210.54L11.3 200.68"
fill="none" stroke="black" stroke-width="0.5"/>
<path d="M248.11 356.91L230.86 347.05"
fill="none" stroke="black" stroke-width="0.5"/>
<path d="M467.67 503.28L450.41 493.42"
fill="none" stroke="black" stroke-width="0.5"/>
<path d="M687.22 649.64L669.96 639.78"
fill="none" stroke="black" stroke-width="0.5"/>
<path d="M28.56 503.28L11.3 493.42"
fill="none" stroke="black" stroke-width="0.5"/>
<path d="M248.11 649.64L230.86 639.78"
fill="none" stroke="black" stroke-width="0.5"/>
</svg>
