<?xml version="1.0" encoding="UTF-8"?>
<svg xmlns="http://www.w3.org/2000/svg" width="99.949mm" height="99.949mm" viewBox="0.0 0.0 787.000 787.000" preserveAspectRatio="none" version="1.1">
  <title>Produce by Acme CAD Converter</title>
  <desc>Produce by Acme CAD Converter</desc>
<path d="M117 653.3L140.96 653.3"
fill="none" stroke="black" stroke-width="0.5"/>
<path d="M513.78 653.3L537.74 653.3"
fill="none" stroke="black" stroke-width="0.5"/>
<path d="M315.39 521.04L339.35 521.04"
fill="none" stroke="black" stroke-width="0.5"/>
<path d="M712.17 521.04L736.13 521.04"
fill="none" stroke="black" stroke-width="0.5"/>
<path d="M117 388.78L140.96 388.78"
fill="none" stroke="black" stroke-width="0.5"/>
<path d="M513.78 388.78L537.74 388.78"
fill="none" stroke="black" stroke-width="0.5"/>
<path d="M315.39 256.52L339.35 256.52"
fill="none" stroke="black" stroke-width="0.5"/>
<path d="M712.17 256.52L736.13 256.52"
fill="none" stroke="black" stroke-width="0.5"/>
<path d="M117 530.48L140.96 530.48"
fill="none" stroke="black" stroke-width="0.5"/>
<path d="M513.78 530.48L537.74 530.48"
fill="none" stroke="black" stroke-width="0.5"/>
<path d="M315.39 398.22L339.35 398.22"
fill="none" stroke="black" stroke-width="0.5"/>
<path d="M712.17 398.22L736.13 398.22"
fill="none" stroke="black" stroke-width="0.5"/>
<path d="M117 265.96L140.96 265.96"
fill="none" stroke="black" stroke-width="0.5"/>
<path d="M513.78 265.96L537.74 265.96"
fill="none" stroke="black" stroke-width="0.5"/>
<path d="M315.39 133.7L339.35 133.7"
fill="none" stroke="black" stroke-width="0.5"/>
<path d="M712.17 133.7L736.13 133.7"
fill="none" stroke="black" stroke-width="0.5"/>
<path d="M662.74 471.61L662.74 447.65"
fill="none" stroke="black" stroke-width="0.5"/>
<path d="M662.74 207.09L662.74 183.13"
fill="none" stroke="black" stroke-width="0.5"/>
<path d="M464.36 603.87L464.36 579.91"
fill="none" stroke="black" stroke-width="0.5"/>
<path d="M464.36 339.35L464.36 315.39"
fill="none" stroke="black" stroke-width="0.5"/>
<path d="M265.97 471.61L265.97 447.65"
fill="none" stroke="black" stroke-width="0.5"/>
<path d="M265.97 207.09L265.97 183.13"
fill="none" stroke="black" stroke-width="0.5"/>
<path d="M67.58 603.87L67.58 579.91"
fill="none" stroke="black" stroke-width="0.5"/>
<path d="M67.58 339.35L67.58 315.39"
fill="none" stroke="black" stroke-width="0.5"/>
<path d="M785.56 471.61L785.56 447.65"
fill="none" stroke="black" stroke-width="0.5"/>
<path d="M785.56 207.09L785.56 183.13"
fill="none" stroke="black" stroke-width="0.5"/>
<path d="M587.17 603.87L587.17 579.91"
fill="none" stroke="black" stroke-width="0.5"/>
<path d="M587.17 339.35L587.17 315.39"
fill="none" stroke="black" stroke-width="0.5"/>
<path d="M388.78 471.61L388.78 447.65"
fill="none" stroke="black" stroke-width="0.5"/>
<path d="M388.78 207.09L388.78 183.13"
fill="none" stroke="black" stroke-width="0.5"/>
<path d="M190.39 603.87L190.39 579.91"
fill="none" stroke="black" stroke-width="0.5"/>
<path d="M190.39 339.35L190.39 315.39"
fill="none" stroke="black" stroke-width="0.5"/>
<path d="M757.74 512.39L776.91 493.22"
fill="none" stroke="black" stroke-width="0.5"/>
<path d="M559.35 644.65L578.52 625.48"
fill="none" stroke="black" stroke-width="0.5"/>
<path d="M757.74 247.87L776.91 228.7"
fill="none" stroke="black" stroke-width="0.5"/>
<path d="M559.35 380.13L578.52 360.96"
fill="none" stroke="black" stroke-width="0.5"/>
<path d="M360.96 512.39L380.13 493.22"
fill="none" stroke="black" stroke-width="0.5"/>
<path d="M162.57 644.65L181.74 625.48"
fill="none" stroke="black" stroke-width="0.5"/>
<path d="M360.96 247.87L380.13 228.7"
fill="none" stroke="black" stroke-width="0.5"/>
<path d="M162.57 380.13L181.74 360.96"
fill="none" stroke="black" stroke-width="0.5"/>
<path d="M162.57 539.13L181.74 558.3"
fill="none" stroke="black" stroke-width="0.5"/>
<path d="M162.57 274.61L181.74 293.78"
fill="none" stroke="black" stroke-width="0.5"/>
<path d="M360.96 406.87L380.13 426.04"
fill="none" stroke="black" stroke-width="0.5"/>
<path d="M559.35 539.13L578.52 558.3"
fill="none" stroke="black" stroke-width="0.5"/>
<path d="M360.96 142.35L380.13 161.52"
fill="none" stroke="black" stroke-width="0.5"/>
<path d="M559.35 274.61L578.52 293.78"
fill="none" stroke="black" stroke-width="0.5"/>
<path d="M757.74 406.87L776.91 426.04"
fill="none" stroke="black" stroke-width="0.5"/>
<path d="M757.74 142.35L776.91 161.52"
fill="none" stroke="black" stroke-width="0.5"/>
<path d="M95.39 274.61L76.22 293.78"
fill="none" stroke="black" stroke-width="0.5"/>
<path d="M293.78 142.35L274.61 161.52"
fill="none" stroke="black" stroke-width="0.5"/>
<path d="M95.39 539.13L76.22 558.3"
fill="none" stroke="black" stroke-width="0.5"/>
<path d="M293.78 406.87L274.61 426.04"
fill="none" stroke="black" stroke-width="0.5"/>
<path d="M492.17 274.61L473 293.78"
fill="none" stroke="black" stroke-width="0.5"/>
<path d="M690.56 142.35L671.39 161.52"
fill="none" stroke="black" stroke-width="0.5"/>
<path d="M492.17 539.13L473 558.3"
fill="none" stroke="black" stroke-width="0.5"/>
<path d="M690.56 406.87L671.39 426.04"
fill="none" stroke="black" stroke-width="0.5"/>
<path d="M690.56 247.87L671.39 228.7"
fill="none" stroke="black" stroke-width="0.5"/>
<path d="M690.56 512.39L671.39 493.22"
fill="none" stroke="black" stroke-width="0.5"/>
<path d="M492.17 380.13L473 360.96"
fill="none" stroke="black" stroke-width="0.5"/>
<path d="M293.78 247.87L274.61 228.7"
fill="none" stroke="black" stroke-width="0.5"/>
<path d="M492.17 644.65L473 625.48"
fill="none" stroke="black" stroke-width="0.5"/>
<path d="M293.78 512.39L274.61 493.22"
fill="none" stroke="black" stroke-width="0.5"/>
<path d="M95.39 380.13L76.22 360.96"
fill="none" stroke="black" stroke-width="0.5"/>
<path d="M95.39 644.65L76.22 625.48"
fill="none" stroke="black" stroke-width="0.5"/>
<path d="M537.74 653.3L559.35 644.65"
fill="none" stroke="black" stroke-width="0.5"/>
<path d="M736.13 521.04L757.74 512.39"
fill="none" stroke="black" stroke-width="0.5"/>
<path d="M140.96 653.3L162.57 644.65"
fill="none" stroke="black" stroke-width="0.5"/>
<path d="M339.35 521.04L360.96 512.39"
fill="none" stroke="black" stroke-width="0.5"/>
<path d="M537.74 388.78L559.35 380.13"
fill="none" stroke="black" stroke-width="0.5"/>
<path d="M736.13 256.52L757.74 247.87"
fill="none" stroke="black" stroke-width="0.5"/>
<path d="M140.96 388.78L162.57 380.13"
fill="none" stroke="black" stroke-width="0.5"/>
<path d="M339.35 256.52L360.96 247.87"
fill="none" stroke="black" stroke-width="0.5"/>
<path d="M190.39 339.35L181.74 360.96"
fill="none" stroke="black" stroke-width="0.5"/>
<path d="M190.39 603.87L181.74 625.48"
fill="none" stroke="black" stroke-width="0.5"/>
<path d="M388.78 207.09L380.13 228.7"
fill="none" stroke="black" stroke-width="0.5"/>
<path d="M388.78 471.61L380.13 493.22"
fill="none" stroke="black" stroke-width="0.5"/>
<path d="M587.17 339.35L578.52 360.96"
fill="none" stroke="black" stroke-width="0.5"/>
<path d="M587.17 603.87L578.52 625.48"
fill="none" stroke="black" stroke-width="0.5"/>
<path d="M785.56 207.09L776.91 228.7"
fill="none" stroke="black" stroke-width="0.5"/>
<path d="M785.56 471.61L776.91 493.22"
fill="none" stroke="black" stroke-width="0.5"/>
<path d="M785.56 183.13L776.91 161.52"
fill="none" stroke="black" stroke-width="0.5"/>
<path d="M785.56 447.65L776.91 426.04"
fill="none" stroke="black" stroke-width="0.5"/>
<path d="M587.17 315.39L578.52 293.78"
fill="none" stroke="black" stroke-width="0.5"/>
<path d="M587.17 579.91L578.52 558.3"
fill="none" stroke="black" stroke-width="0.5"/>
<path d="M388.78 183.13L380.13 161.52"
fill="none" stroke="black" stroke-width="0.5"/>
<path d="M388.78 447.65L380.13 426.04"
fill="none" stroke="black" stroke-width="0.5"/>
<path d="M190.39 315.39L181.74 293.78"
fill="none" stroke="black" stroke-width="0.5"/>
<path d="M190.39 579.91L181.74 558.3"
fill="none" stroke="black" stroke-width="0.5"/>
<path d="M140.96 530.48L162.57 539.13"
fill="none" stroke="black" stroke-width="0.5"/>
<path d="M537.74 530.48L559.35 539.13"
fill="none" stroke="black" stroke-width="0.5"/>
<path d="M339.35 398.22L360.96 406.87"
fill="none" stroke="black" stroke-width="0.5"/>
<path d="M140.96 265.96L162.57 274.61"
fill="none" stroke="black" stroke-width="0.5"/>
<path d="M736.13 398.22L757.74 406.87"
fill="none" stroke="black" stroke-width="0.5"/>
<path d="M537.74 265.96L559.35 274.61"
fill="none" stroke="black" stroke-width="0.5"/>
<path d="M339.35 133.7L360.96 142.35"
fill="none" stroke="black" stroke-width="0.5"/>
<path d="M736.13 133.7L757.74 142.35"
fill="none" stroke="black" stroke-width="0.5"/>
<path d="M315.39 133.7L293.78 142.35"
fill="none" stroke="black" stroke-width="0.5"/>
<path d="M117 265.96L95.39 274.61"
fill="none" stroke="black" stroke-width="0.5"/>
<path d="M712.17 133.71L690.56 142.35"
fill="none" stroke="black" stroke-width="0.5"/>
<path d="M513.78 265.97L492.17 274.61"
fill="none" stroke="black" stroke-width="0.5"/>
<path d="M315.39 398.22L293.78 406.87"
fill="none" stroke="black" stroke-width="0.5"/>
<path d="M117 530.48L95.39 539.13"
fill="none" stroke="black" stroke-width="0.5"/>
<path d="M712.17 398.23L690.56 406.87"
fill="none" stroke="black" stroke-width="0.5"/>
<path d="M513.78 530.49L492.17 539.13"
fill="none" stroke="black" stroke-width="0.5"/>
<path d="M662.74 447.65L671.39 426.04"
fill="none" stroke="black" stroke-width="0.5"/>
<path d="M662.74 183.13L671.39 161.52"
fill="none" stroke="black" stroke-width="0.5"/>
<path d="M464.36 579.91L473 558.3"
fill="none" stroke="black" stroke-width="0.5"/>
<path d="M464.36 315.39L473 293.78"
fill="none" stroke="black" stroke-width="0.5"/>
<path d="M265.97 447.65L274.61 426.04"
fill="none" stroke="black" stroke-width="0.5"/>
<path d="M265.96 183.13L274.61 161.52"
fill="none" stroke="black" stroke-width="0.5"/>
<path d="M67.58 579.91L76.22 558.3"
fill="none" stroke="black" stroke-width="0.5"/>
<path d="M67.58 315.39L76.22 293.78"
fill="none" stroke="black" stroke-width="0.5"/>
<path d="M67.58 603.87L76.22 625.48"
fill="none" stroke="black" stroke-width="0.5"/>
<path d="M67.58 339.35L76.22 360.96"
fill="none" stroke="black" stroke-width="0.5"/>
<path d="M265.97 471.61L274.61 493.22"
fill="none" stroke="black" stroke-width="0.5"/>
<path d="M265.97 207.09L274.61 228.7"
fill="none" stroke="black" stroke-width="0.5"/>
<path d="M464.36 603.87L473 625.48"
fill="none" stroke="black" stroke-width="0.5"/>
<path d="M464.36 339.35L473 360.96"
fill="none" stroke="black" stroke-width="0.5"/>
<path d="M662.74 471.61L671.39 493.22"
fill="none" stroke="black" stroke-width="0.5"/>
<path d="M662.75 207.09L671.39 228.7"
fill="none" stroke="black" stroke-width="0.5"/>
<path d="M712.17 256.51L690.56 247.87"
fill="none" stroke="black" stroke-width="0.5"/>
<path d="M315.39 256.52L293.78 247.87"
fill="none" stroke="black" stroke-width="0.5"/>
<path d="M513.78 388.77L492.17 380.13"
fill="none" stroke="black" stroke-width="0.5"/>
<path d="M712.17 521.03L690.56 512.39"
fill="none" stroke="black" stroke-width="0.5"/>
<path d="M117 388.78L95.39 380.13"
fill="none" stroke="black" stroke-width="0.5"/>
<path d="M315.39 521.04L293.78 512.39"
fill="none" stroke="black" stroke-width="0.5"/>
<path d="M513.78 653.29L492.17 644.65"
fill="none" stroke="black" stroke-width="0.5"/>
<path d="M117 653.3L95.39 644.65"
fill="none" stroke="black" stroke-width="0.5"/>
<path d="M249.26 653.3L273.22 653.3"
fill="none" stroke="black" stroke-width="0.5"/>
<path d="M646.04 653.3L670 653.3"
fill="none" stroke="black" stroke-width="0.5"/>
<path d="M50.87 521.04L74.83 521.04"
fill="none" stroke="black" stroke-width="0.5"/>
<path d="M447.65 521.04L471.61 521.04"
fill="none" stroke="black" stroke-width="0.5"/>
<path d="M249.26 388.78L273.22 388.78"
fill="none" stroke="black" stroke-width="0.5"/>
<path d="M646.04 388.78L670 388.78"
fill="none" stroke="black" stroke-width="0.5"/>
<path d="M50.87 256.52L74.83 256.52"
fill="none" stroke="black" stroke-width="0.5"/>
<path d="M447.65 256.52L471.61 256.52"
fill="none" stroke="black" stroke-width="0.5"/>
<path d="M249.26 530.48L273.22 530.48"
fill="none" stroke="black" stroke-width="0.5"/>
<path d="M646.04 530.48L670 530.48"
fill="none" stroke="black" stroke-width="0.5"/>
<path d="M50.87 398.22L74.83 398.22"
fill="none" stroke="black" stroke-width="0.5"/>
<path d="M447.65 398.22L471.61 398.22"
fill="none" stroke="black" stroke-width="0.5"/>
<path d="M249.26 265.96L273.22 265.96"
fill="none" stroke="black" stroke-width="0.5"/>
<path d="M646.04 265.96L670 265.96"
fill="none" stroke="black" stroke-width="0.5"/>
<path d="M50.87 133.7L74.83 133.7"
fill="none" stroke="black" stroke-width="0.5"/>
<path d="M447.65 133.7L471.61 133.7"
fill="none" stroke="black" stroke-width="0.5"/>
<path d="M596.61 603.87L596.61 579.91"
fill="none" stroke="black" stroke-width="0.5"/>
<path d="M596.61 339.35L596.61 315.39"
fill="none" stroke="black" stroke-width="0.5"/>
<path d="M398.23 471.61L398.23 447.65"
fill="none" stroke="black" stroke-width="0.5"/>
<path d="M398.23 207.09L398.23 183.13"
fill="none" stroke="black" stroke-width="0.5"/>
<path d="M199.84 603.87L199.84 579.91"
fill="none" stroke="black" stroke-width="0.5"/>
<path d="M199.84 339.35L199.84 315.39"
fill="none" stroke="black" stroke-width="0.5"/>
<path d="M1.45 471.61L1.45 447.65"
fill="none" stroke="black" stroke-width="0.5"/>
<path d="M1.45 207.09L1.45 183.13"
fill="none" stroke="black" stroke-width="0.5"/>
<path d="M719.43 603.87L719.43 579.91"
fill="none" stroke="black" stroke-width="0.5"/>
<path d="M719.43 339.35L719.43 315.39"
fill="none" stroke="black" stroke-width="0.5"/>
<path d="M521.04 471.61L521.04 447.65"
fill="none" stroke="black" stroke-width="0.5"/>
<path d="M521.04 207.09L521.04 183.13"
fill="none" stroke="black" stroke-width="0.5"/>
<path d="M322.65 603.87L322.65 579.91"
fill="none" stroke="black" stroke-width="0.5"/>
<path d="M322.65 339.35L322.65 315.39"
fill="none" stroke="black" stroke-width="0.5"/>
<path d="M124.26 471.61L124.26 447.65"
fill="none" stroke="black" stroke-width="0.5"/>
<path d="M124.26 207.09L124.26 183.13"
fill="none" stroke="black" stroke-width="0.5"/>
<path d="M691.61 644.65L710.78 625.48"
fill="none" stroke="black" stroke-width="0.5"/>
<path d="M691.61 380.13L710.78 360.96"
fill="none" stroke="black" stroke-width="0.5"/>
<path d="M493.22 512.39L512.39 493.22"
fill="none" stroke="black" stroke-width="0.5"/>
<path d="M294.83 644.65L314 625.48"
fill="none" stroke="black" stroke-width="0.5"/>
<path d="M493.22 247.87L512.39 228.7"
fill="none" stroke="black" stroke-width="0.5"/>
<path d="M294.83 380.13L314 360.96"
fill="none" stroke="black" stroke-width="0.5"/>
<path d="M96.44 512.39L115.61 493.22"
fill="none" stroke="black" stroke-width="0.5"/>
<path d="M96.44 247.87L115.61 228.7"
fill="none" stroke="black" stroke-width="0.5"/>
<path d="M96.44 406.87L115.61 426.04"
fill="none" stroke="black" stroke-width="0.5"/>
<path d="M294.83 539.13L314 558.3"
fill="none" stroke="black" stroke-width="0.5"/>
<path d="M96.44 142.35L115.61 161.52"
fill="none" stroke="black" stroke-width="0.5"/>
<path d="M294.83 274.61L314 293.78"
fill="none" stroke="black" stroke-width="0.5"/>
<path d="M493.22 406.87L512.39 426.04"
fill="none" stroke="black" stroke-width="0.5"/>
<path d="M691.61 539.13L710.78 558.3"
fill="none" stroke="black" stroke-width="0.5"/>
<path d="M493.22 142.35L512.39 161.52"
fill="none" stroke="black" stroke-width="0.5"/>
<path d="M691.61 274.61L710.78 293.78"
fill="none" stroke="black" stroke-width="0.5"/>
<path d="M29.26 142.35L10.09 161.52"
fill="none" stroke="black" stroke-width="0.5"/>
<path d="M29.26 406.87L10.09 426.04"
fill="none" stroke="black" stroke-width="0.5"/>
<path d="M227.65 274.61L208.48 293.78"
fill="none" stroke="black" stroke-width="0.5"/>
<path d="M426.04 142.35L406.87 161.52"
fill="none" stroke="black" stroke-width="0.5"/>
<path d="M227.65 539.13L208.48 558.3"
fill="none" stroke="black" stroke-width="0.5"/>
<path d="M426.04 406.87L406.87 426.04"
fill="none" stroke="black" stroke-width="0.5"/>
<path d="M624.43 274.61L605.26 293.78"
fill="none" stroke="black" stroke-width="0.5"/>
<path d="M624.43 539.13L605.26 558.3"
fill="none" stroke="black" stroke-width="0.5"/>
<path d="M624.43 380.13L605.26 360.96"
fill="none" stroke="black" stroke-width="0.5"/>
<path d="M426.04 247.87L406.87 228.7"
fill="none" stroke="black" stroke-width="0.5"/>
<path d="M624.43 644.65L605.26 625.48"
fill="none" stroke="black" stroke-width="0.5"/>
<path d="M426.04 512.39L406.87 493.22"
fill="none" stroke="black" stroke-width="0.5"/>
<path d="M227.65 380.13L208.48 360.96"
fill="none" stroke="black" stroke-width="0.5"/>
<path d="M29.26 247.87L10.09 228.7"
fill="none" stroke="black" stroke-width="0.5"/>
<path d="M227.65 644.65L208.48 625.48"
fill="none" stroke="black" stroke-width="0.5"/>
<path d="M29.26 512.39L10.09 493.22"
fill="none" stroke="black" stroke-width="0.5"/>
<path d="M670 653.3L691.61 644.65"
fill="none" stroke="black" stroke-width="0.5"/>
<path d="M273.22 653.3L294.83 644.65"
fill="none" stroke="black" stroke-width="0.5"/>
<path d="M471.61 521.04L493.22 512.39"
fill="none" stroke="black" stroke-width="0.5"/>
<path d="M670 388.78L691.61 380.13"
fill="none" stroke="black" stroke-width="0.5"/>
<path d="M74.83 521.04L96.44 512.39"
fill="none" stroke="black" stroke-width="0.5"/>
<path d="M273.22 388.78L294.83 380.13"
fill="none" stroke="black" stroke-width="0.5"/>
<path d="M471.61 256.52L493.22 247.87"
fill="none" stroke="black" stroke-width="0.5"/>
<path d="M74.83 256.52L96.44 247.87"
fill="none" stroke="black" stroke-width="0.5"/>
<path d="M124.26 207.09L115.61 228.7"
fill="none" stroke="black" stroke-width="0.5"/>
<path d="M124.26 471.61L115.61 493.22"
fill="none" stroke="black" stroke-width="0.5"/>
<path d="M322.65 339.35L314 360.96"
fill="none" stroke="black" stroke-width="0.5"/>
<path d="M322.65 603.87L314 625.48"
fill="none" stroke="black" stroke-width="0.5"/>
<path d="M521.04 207.09L512.39 228.7"
fill="none" stroke="black" stroke-width="0.5"/>
<path d="M521.04 471.61L512.39 493.22"
fill="none" stroke="black" stroke-width="0.5"/>
<path d="M719.43 339.35L710.78 360.96"
fill="none" stroke="black" stroke-width="0.5"/>
<path d="M719.43 603.87L710.78 625.48"
fill="none" stroke="black" stroke-width="0.5"/>
<path d="M719.43 315.39L710.78 293.78"
fill="none" stroke="black" stroke-width="0.5"/>
<path d="M719.43 579.91L710.78 558.3"
fill="none" stroke="black" stroke-width="0.5"/>
<path d="M521.04 183.13L512.39 161.52"
fill="none" stroke="black" stroke-width="0.5"/>
<path d="M521.04 447.65L512.39 426.04"
fill="none" stroke="black" stroke-width="0.5"/>
<path d="M322.65 315.39L314 293.78"
fill="none" stroke="black" stroke-width="0.5"/>
<path d="M322.65 579.91L314 558.3"
fill="none" stroke="black" stroke-width="0.5"/>
<path d="M124.26 183.13L115.61 161.52"
fill="none" stroke="black" stroke-width="0.5"/>
<path d="M124.26 447.65L115.61 426.04"
fill="none" stroke="black" stroke-width="0.5"/>
<path d="M273.22 530.48L294.83 539.13"
fill="none" stroke="black" stroke-width="0.5"/>
<path d="M74.83 398.22L96.44 406.87"
fill="none" stroke="black" stroke-width="0.5"/>
<path d="M670 530.48L691.61 539.13"
fill="none" stroke="black" stroke-width="0.5"/>
<path d="M471.61 398.22L493.22 406.87"
fill="none" stroke="black" stroke-width="0.5"/>
<path d="M273.22 265.96L294.83 274.61"
fill="none" stroke="black" stroke-width="0.5"/>
<path d="M74.83 133.7L96.44 142.35"
fill="none" stroke="black" stroke-width="0.5"/>
<path d="M670 265.96L691.61 274.61"
fill="none" stroke="black" stroke-width="0.5"/>
<path d="M471.61 133.7L493.22 142.35"
fill="none" stroke="black" stroke-width="0.5"/>
<path d="M50.87 133.7L29.26 142.35"
fill="none" stroke="black" stroke-width="0.5"/>
<path d="M447.65 133.7L426.04 142.35"
fill="none" stroke="black" stroke-width="0.5"/>
<path d="M249.26 265.96L227.65 274.61"
fill="none" stroke="black" stroke-width="0.5"/>
<path d="M50.87 398.22L29.26 406.87"
fill="none" stroke="black" stroke-width="0.5"/>
<path d="M646.04 265.97L624.43 274.61"
fill="none" stroke="black" stroke-width="0.5"/>
<path d="M447.65 398.22L426.04 406.87"
fill="none" stroke="black" stroke-width="0.5"/>
<path d="M249.26 530.48L227.65 539.13"
fill="none" stroke="black" stroke-width="0.5"/>
<path d="M646.04 530.49L624.43 539.13"
fill="none" stroke="black" stroke-width="0.5"/>
<path d="M596.61 579.91L605.26 558.3"
fill="none" stroke="black" stroke-width="0.5"/>
<path d="M596.61 315.39L605.26 293.78"
fill="none" stroke="black" stroke-width="0.5"/>
<path d="M398.23 447.65L406.87 426.04"
fill="none" stroke="black" stroke-width="0.5"/>
<path d="M398.22 183.13L406.87 161.52"
fill="none" stroke="black" stroke-width="0.5"/>
<path d="M199.84 579.91L208.48 558.3"
fill="none" stroke="black" stroke-width="0.5"/>
<path d="M199.84 315.39L208.48 293.78"
fill="none" stroke="black" stroke-width="0.5"/>
<path d="M1.45 447.65L10.09 426.04"
fill="none" stroke="black" stroke-width="0.5"/>
<path d="M1.44 183.13L10.09 161.52"
fill="none" stroke="black" stroke-width="0.5"/>
<path d="M1.45 471.61L10.09 493.22"
fill="none" stroke="black" stroke-width="0.5"/>
<path d="M1.45 207.09L10.09 228.7"
fill="none" stroke="black" stroke-width="0.5"/>
<path d="M199.84 603.87L208.48 625.48"
fill="none" stroke="black" stroke-width="0.5"/>
<path d="M199.84 339.35L208.48 360.96"
fill="none" stroke="black" stroke-width="0.5"/>
<path d="M398.23 471.61L406.87 493.22"
fill="none" stroke="black" stroke-width="0.5"/>
<path d="M398.23 207.09L406.87 228.7"
fill="none" stroke="black" stroke-width="0.5"/>
<path d="M596.61 603.87L605.26 625.48"
fill="none" stroke="black" stroke-width="0.5"/>
<path d="M596.62 339.35L605.26 360.96"
fill="none" stroke="black" stroke-width="0.5"/>
<path d="M447.65 256.52L426.04 247.87"
fill="none" stroke="black" stroke-width="0.5"/>
<path d="M646.04 388.77L624.43 380.13"
fill="none" stroke="black" stroke-width="0.5"/>
<path d="M50.87 256.52L29.26 247.87"
fill="none" stroke="black" stroke-width="0.5"/>
<path d="M249.26 388.78L227.65 380.13"
fill="none" stroke="black" stroke-width="0.5"/>
<path d="M447.65 521.04L426.04 512.39"
fill="none" stroke="black" stroke-width="0.5"/>
<path d="M646.04 653.29L624.43 644.65"
fill="none" stroke="black" stroke-width="0.5"/>
<path d="M50.87 521.04L29.26 512.39"
fill="none" stroke="black" stroke-width="0.5"/>
<path d="M249.26 653.3L227.65 644.65"
fill="none" stroke="black" stroke-width="0.5"/>
</svg>
