<?xml version="1.0" encoding="UTF-8"?>
<svg xmlns="http://www.w3.org/2000/svg" width="99.949mm" height="99.949mm" viewBox="0.0 0.0 787.000 787.000" preserveAspectRatio="none" version="1.1">
  <title>Produce by Acme CAD Converter</title>
  <desc>Produce by Acme CAD Converter</desc>
<path d="M124.89 633.63L142.65 633.63"
fill="none" stroke="black" stroke-width="0.5"/>
<path d="M536.54 633.63L554.3 633.63"
fill="none" stroke="black" stroke-width="0.5"/>
<path d="M330.71 496.41L348.47 496.41"
fill="none" stroke="black" stroke-width="0.5"/>
<path d="M742.37 496.41L760.13 496.41"
fill="none" stroke="black" stroke-width="0.5"/>
<path d="M124.89 359.2L142.65 359.2"
fill="none" stroke="black" stroke-width="0.5"/>
<path d="M536.54 359.2L554.3 359.2"
fill="none" stroke="black" stroke-width="0.5"/>
<path d="M330.71 221.98L348.47 221.98"
fill="none" stroke="black" stroke-width="0.5"/>
<path d="M742.37 221.98L760.13 221.98"
fill="none" stroke="black" stroke-width="0.5"/>
<path d="M124.89 565.02L142.65 565.02"
fill="none" stroke="black" stroke-width="0.5"/>
<path d="M536.54 565.02L554.3 565.02"
fill="none" stroke="black" stroke-width="0.5"/>
<path d="M330.71 427.8L348.47 427.8"
fill="none" stroke="black" stroke-width="0.5"/>
<path d="M742.37 427.8L760.13 427.8"
fill="none" stroke="black" stroke-width="0.5"/>
<path d="M124.89 290.59L142.65 290.59"
fill="none" stroke="black" stroke-width="0.5"/>
<path d="M536.54 290.59L554.3 290.59"
fill="none" stroke="black" stroke-width="0.5"/>
<path d="M330.71 153.37L348.47 153.37"
fill="none" stroke="black" stroke-width="0.5"/>
<path d="M742.37 153.37L760.13 153.37"
fill="none" stroke="black" stroke-width="0.5"/>
<path d="M716.95 470.99L716.95 453.23"
fill="none" stroke="black" stroke-width="0.5"/>
<path d="M716.95 196.55L716.95 178.79"
fill="none" stroke="black" stroke-width="0.5"/>
<path d="M511.12 608.21L511.12 590.45"
fill="none" stroke="black" stroke-width="0.5"/>
<path d="M511.12 333.77L511.12 316.01"
fill="none" stroke="black" stroke-width="0.5"/>
<path d="M305.29 470.99L305.29 453.23"
fill="none" stroke="black" stroke-width="0.5"/>
<path d="M305.29 196.55L305.29 178.79"
fill="none" stroke="black" stroke-width="0.5"/>
<path d="M99.46 608.21L99.46 590.45"
fill="none" stroke="black" stroke-width="0.5"/>
<path d="M99.46 333.77L99.46 316.01"
fill="none" stroke="black" stroke-width="0.5"/>
<path d="M785.56 470.99L785.56 453.23"
fill="none" stroke="black" stroke-width="0.5"/>
<path d="M785.56 196.55L785.56 178.79"
fill="none" stroke="black" stroke-width="0.5"/>
<path d="M579.73 608.21L579.73 590.45"
fill="none" stroke="black" stroke-width="0.5"/>
<path d="M579.73 333.77L579.73 316.01"
fill="none" stroke="black" stroke-width="0.5"/>
<path d="M373.9 470.99L373.9 453.23"
fill="none" stroke="black" stroke-width="0.5"/>
<path d="M373.9 196.55L373.9 178.79"
fill="none" stroke="black" stroke-width="0.5"/>
<path d="M168.07 608.21L168.07 590.45"
fill="none" stroke="black" stroke-width="0.5"/>
<path d="M168.07 333.77L168.07 316.01"
fill="none" stroke="black" stroke-width="0.5"/>
<path d="M554.3 633.63L570.48 624.39"
fill="none" stroke="black" stroke-width="0.5"/>
<path d="M760.13 496.41L776.31 487.17"
fill="none" stroke="black" stroke-width="0.5"/>
<path d="M142.65 633.63L158.83 624.39"
fill="none" stroke="black" stroke-width="0.5"/>
<path d="M348.47 496.41L364.65 487.17"
fill="none" stroke="black" stroke-width="0.5"/>
<path d="M554.3 359.2L570.48 349.95"
fill="none" stroke="black" stroke-width="0.5"/>
<path d="M760.13 221.98L776.31 212.73"
fill="none" stroke="black" stroke-width="0.5"/>
<path d="M142.65 359.2L158.83 349.95"
fill="none" stroke="black" stroke-width="0.5"/>
<path d="M348.47 221.98L364.65 212.73"
fill="none" stroke="black" stroke-width="0.5"/>
<path d="M168.07 333.77L158.83 349.95"
fill="none" stroke="black" stroke-width="0.5"/>
<path d="M373.9 196.55L364.65 212.73"
fill="none" stroke="black" stroke-width="0.5"/>
<path d="M168.07 608.21L158.83 624.39"
fill="none" stroke="black" stroke-width="0.5"/>
<path d="M373.9 470.99L364.65 487.17"
fill="none" stroke="black" stroke-width="0.5"/>
<path d="M579.73 333.77L570.48 349.95"
fill="none" stroke="black" stroke-width="0.5"/>
<path d="M785.56 196.55L776.31 212.73"
fill="none" stroke="black" stroke-width="0.5"/>
<path d="M579.73 608.21L570.48 624.39"
fill="none" stroke="black" stroke-width="0.5"/>
<path d="M785.56 470.99L776.31 487.17"
fill="none" stroke="black" stroke-width="0.5"/>
<path d="M785.56 178.79L776.31 162.61"
fill="none" stroke="black" stroke-width="0.5"/>
<path d="M785.56 453.23L776.31 437.05"
fill="none" stroke="black" stroke-width="0.5"/>
<path d="M579.73 316.01L570.48 299.83"
fill="none" stroke="black" stroke-width="0.5"/>
<path d="M373.9 178.79L364.65 162.61"
fill="none" stroke="black" stroke-width="0.5"/>
<path d="M579.73 590.45L570.48 574.27"
fill="none" stroke="black" stroke-width="0.5"/>
<path d="M373.9 453.23L364.65 437.05"
fill="none" stroke="black" stroke-width="0.5"/>
<path d="M168.07 316.01L158.83 299.83"
fill="none" stroke="black" stroke-width="0.5"/>
<path d="M168.07 590.45L158.83 574.27"
fill="none" stroke="black" stroke-width="0.5"/>
<path d="M142.65 565.02L158.83 574.27"
fill="none" stroke="black" stroke-width="0.5"/>
<path d="M554.3 565.02L570.48 574.27"
fill="none" stroke="black" stroke-width="0.5"/>
<path d="M348.47 427.8L364.65 437.05"
fill="none" stroke="black" stroke-width="0.5"/>
<path d="M142.65 290.59L158.83 299.83"
fill="none" stroke="black" stroke-width="0.5"/>
<path d="M760.13 427.8L776.31 437.05"
fill="none" stroke="black" stroke-width="0.5"/>
<path d="M554.3 290.59L570.48 299.83"
fill="none" stroke="black" stroke-width="0.5"/>
<path d="M348.47 153.37L364.65 162.61"
fill="none" stroke="black" stroke-width="0.5"/>
<path d="M760.13 153.37L776.31 162.61"
fill="none" stroke="black" stroke-width="0.5"/>
<path d="M330.71 153.37L314.53 162.61"
fill="none" stroke="black" stroke-width="0.5"/>
<path d="M124.89 290.59L108.71 299.83"
fill="none" stroke="black" stroke-width="0.5"/>
<path d="M742.37 153.37L726.19 162.61"
fill="none" stroke="black" stroke-width="0.5"/>
<path d="M536.54 290.59L520.36 299.83"
fill="none" stroke="black" stroke-width="0.5"/>
<path d="M330.71 427.8L314.53 437.05"
fill="none" stroke="black" stroke-width="0.5"/>
<path d="M124.89 565.02L108.71 574.27"
fill="none" stroke="black" stroke-width="0.5"/>
<path d="M742.37 427.8L726.19 437.05"
fill="none" stroke="black" stroke-width="0.5"/>
<path d="M536.54 565.02L520.36 574.27"
fill="none" stroke="black" stroke-width="0.5"/>
<path d="M716.95 453.23L726.19 437.05"
fill="none" stroke="black" stroke-width="0.5"/>
<path d="M511.12 590.45L520.36 574.27"
fill="none" stroke="black" stroke-width="0.5"/>
<path d="M716.95 178.79L726.19 162.61"
fill="none" stroke="black" stroke-width="0.5"/>
<path d="M511.12 316.01L520.36 299.83"
fill="none" stroke="black" stroke-width="0.5"/>
<path d="M305.29 453.23L314.53 437.05"
fill="none" stroke="black" stroke-width="0.5"/>
<path d="M99.46 590.45L108.71 574.27"
fill="none" stroke="black" stroke-width="0.5"/>
<path d="M305.29 178.79L314.53 162.61"
fill="none" stroke="black" stroke-width="0.5"/>
<path d="M99.46 316.01L108.71 299.83"
fill="none" stroke="black" stroke-width="0.5"/>
<path d="M99.46 608.21L108.71 624.39"
fill="none" stroke="black" stroke-width="0.5"/>
<path d="M99.46 333.77L108.71 349.95"
fill="none" stroke="black" stroke-width="0.5"/>
<path d="M305.29 470.99L314.53 487.17"
fill="none" stroke="black" stroke-width="0.5"/>
<path d="M511.12 608.21L520.36 624.39"
fill="none" stroke="black" stroke-width="0.5"/>
<path d="M305.29 196.55L314.53 212.73"
fill="none" stroke="black" stroke-width="0.5"/>
<path d="M511.12 333.77L520.36 349.95"
fill="none" stroke="black" stroke-width="0.5"/>
<path d="M716.95 470.99L726.19 487.17"
fill="none" stroke="black" stroke-width="0.5"/>
<path d="M716.95 196.55L726.19 212.73"
fill="none" stroke="black" stroke-width="0.5"/>
<path d="M742.37 221.98L726.19 212.73"
fill="none" stroke="black" stroke-width="0.5"/>
<path d="M330.71 221.98L314.53 212.73"
fill="none" stroke="black" stroke-width="0.5"/>
<path d="M536.54 359.2L520.36 349.95"
fill="none" stroke="black" stroke-width="0.5"/>
<path d="M742.37 496.41L726.19 487.17"
fill="none" stroke="black" stroke-width="0.5"/>
<path d="M124.89 359.2L108.71 349.95"
fill="none" stroke="black" stroke-width="0.5"/>
<path d="M330.71 496.41L314.53 487.17"
fill="none" stroke="black" stroke-width="0.5"/>
<path d="M536.54 633.63L520.36 624.39"
fill="none" stroke="black" stroke-width="0.5"/>
<path d="M124.89 633.63L108.71 624.39"
fill="none" stroke="black" stroke-width="0.5"/>
<path d="M258.56 663.04L283.41 663.04"
fill="none" stroke="black" stroke-width="0.5"/>
<path d="M670.21 663.04L695.07 663.04"
fill="none" stroke="black" stroke-width="0.5"/>
<path d="M52.73 525.82L77.58 525.82"
fill="none" stroke="black" stroke-width="0.5"/>
<path d="M464.39 525.82L489.24 525.82"
fill="none" stroke="black" stroke-width="0.5"/>
<path d="M258.56 388.6L283.41 388.6"
fill="none" stroke="black" stroke-width="0.5"/>
<path d="M670.21 388.6L695.07 388.6"
fill="none" stroke="black" stroke-width="0.5"/>
<path d="M52.73 251.38L77.58 251.38"
fill="none" stroke="black" stroke-width="0.5"/>
<path d="M464.39 251.38L489.24 251.38"
fill="none" stroke="black" stroke-width="0.5"/>
<path d="M258.56 535.62L283.41 535.62"
fill="none" stroke="black" stroke-width="0.5"/>
<path d="M670.21 535.62L695.07 535.62"
fill="none" stroke="black" stroke-width="0.5"/>
<path d="M52.73 398.4L77.58 398.4"
fill="none" stroke="black" stroke-width="0.5"/>
<path d="M464.39 398.4L489.24 398.4"
fill="none" stroke="black" stroke-width="0.5"/>
<path d="M258.56 261.18L283.41 261.18"
fill="none" stroke="black" stroke-width="0.5"/>
<path d="M670.21 261.18L695.07 261.18"
fill="none" stroke="black" stroke-width="0.5"/>
<path d="M52.73 123.96L77.58 123.96"
fill="none" stroke="black" stroke-width="0.5"/>
<path d="M464.39 123.96L489.24 123.96"
fill="none" stroke="black" stroke-width="0.5"/>
<path d="M618.93 611.76L618.93 586.9"
fill="none" stroke="black" stroke-width="0.5"/>
<path d="M618.93 337.32L618.93 312.46"
fill="none" stroke="black" stroke-width="0.5"/>
<path d="M413.1 474.54L413.1 449.68"
fill="none" stroke="black" stroke-width="0.5"/>
<path d="M413.1 200.1L413.1 175.24"
fill="none" stroke="black" stroke-width="0.5"/>
<path d="M207.28 611.76L207.28 586.9"
fill="none" stroke="black" stroke-width="0.5"/>
<path d="M207.28 337.32L207.28 312.46"
fill="none" stroke="black" stroke-width="0.5"/>
<path d="M1.45 474.54L1.45 449.68"
fill="none" stroke="black" stroke-width="0.5"/>
<path d="M1.45 200.1L1.45 175.24"
fill="none" stroke="black" stroke-width="0.5"/>
<path d="M746.35 611.76L746.35 586.9"
fill="none" stroke="black" stroke-width="0.5"/>
<path d="M746.35 337.32L746.35 312.46"
fill="none" stroke="black" stroke-width="0.5"/>
<path d="M540.52 474.54L540.52 449.68"
fill="none" stroke="black" stroke-width="0.5"/>
<path d="M540.52 200.1L540.52 175.24"
fill="none" stroke="black" stroke-width="0.5"/>
<path d="M334.69 611.76L334.69 586.9"
fill="none" stroke="black" stroke-width="0.5"/>
<path d="M334.69 337.32L334.69 312.46"
fill="none" stroke="black" stroke-width="0.5"/>
<path d="M128.86 474.54L128.86 449.68"
fill="none" stroke="black" stroke-width="0.5"/>
<path d="M128.86 200.1L128.86 175.24"
fill="none" stroke="black" stroke-width="0.5"/>
<path d="M717.49 654.07L737.38 634.18"
fill="none" stroke="black" stroke-width="0.5"/>
<path d="M717.49 379.63L737.38 359.74"
fill="none" stroke="black" stroke-width="0.5"/>
<path d="M511.66 516.85L531.55 496.96"
fill="none" stroke="black" stroke-width="0.5"/>
<path d="M305.83 654.07L325.72 634.18"
fill="none" stroke="black" stroke-width="0.5"/>
<path d="M511.66 242.41L531.55 222.52"
fill="none" stroke="black" stroke-width="0.5"/>
<path d="M305.83 379.63L325.72 359.74"
fill="none" stroke="black" stroke-width="0.5"/>
<path d="M100.01 516.85L119.89 496.96"
fill="none" stroke="black" stroke-width="0.5"/>
<path d="M100.01 242.41L119.89 222.52"
fill="none" stroke="black" stroke-width="0.5"/>
<path d="M100.01 407.37L119.89 427.26"
fill="none" stroke="black" stroke-width="0.5"/>
<path d="M305.83 544.59L325.72 564.48"
fill="none" stroke="black" stroke-width="0.5"/>
<path d="M100.01 132.93L119.89 152.82"
fill="none" stroke="black" stroke-width="0.5"/>
<path d="M305.83 270.15L325.72 290.04"
fill="none" stroke="black" stroke-width="0.5"/>
<path d="M511.66 407.37L531.55 427.26"
fill="none" stroke="black" stroke-width="0.5"/>
<path d="M717.49 544.59L737.38 564.48"
fill="none" stroke="black" stroke-width="0.5"/>
<path d="M511.66 132.93L531.55 152.82"
fill="none" stroke="black" stroke-width="0.5"/>
<path d="M717.49 270.15L737.38 290.04"
fill="none" stroke="black" stroke-width="0.5"/>
<path d="M30.31 132.93L10.42 152.82"
fill="none" stroke="black" stroke-width="0.5"/>
<path d="M30.31 407.37L10.42 427.26"
fill="none" stroke="black" stroke-width="0.5"/>
<path d="M236.13 270.15L216.25 290.04"
fill="none" stroke="black" stroke-width="0.5"/>
<path d="M441.96 132.93L422.07 152.82"
fill="none" stroke="black" stroke-width="0.5"/>
<path d="M236.13 544.59L216.25 564.48"
fill="none" stroke="black" stroke-width="0.5"/>
<path d="M441.96 407.37L422.07 427.26"
fill="none" stroke="black" stroke-width="0.5"/>
<path d="M647.79 270.15L627.9 290.04"
fill="none" stroke="black" stroke-width="0.5"/>
<path d="M647.79 544.59L627.9 564.48"
fill="none" stroke="black" stroke-width="0.5"/>
<path d="M647.79 379.63L627.9 359.74"
fill="none" stroke="black" stroke-width="0.5"/>
<path d="M441.96 242.41L422.07 222.52"
fill="none" stroke="black" stroke-width="0.5"/>
<path d="M647.79 654.07L627.9 634.18"
fill="none" stroke="black" stroke-width="0.5"/>
<path d="M441.96 516.85L422.07 496.96"
fill="none" stroke="black" stroke-width="0.5"/>
<path d="M236.13 379.63L216.25 359.74"
fill="none" stroke="black" stroke-width="0.5"/>
<path d="M30.31 242.41L10.42 222.52"
fill="none" stroke="black" stroke-width="0.5"/>
<path d="M236.13 654.07L216.25 634.18"
fill="none" stroke="black" stroke-width="0.5"/>
<path d="M30.31 516.85L10.42 496.96"
fill="none" stroke="black" stroke-width="0.5"/>
<path d="M695.07 663.04L717.49 654.07"
fill="none" stroke="black" stroke-width="0.5"/>
<path d="M283.41 663.04L305.83 654.07"
fill="none" stroke="black" stroke-width="0.5"/>
<path d="M489.24 525.82L511.66 516.85"
fill="none" stroke="black" stroke-width="0.5"/>
<path d="M695.07 388.6L717.49 379.63"
fill="none" stroke="black" stroke-width="0.5"/>
<path d="M77.58 525.82L100.01 516.85"
fill="none" stroke="black" stroke-width="0.5"/>
<path d="M283.41 388.6L305.83 379.63"
fill="none" stroke="black" stroke-width="0.5"/>
<path d="M489.24 251.38L511.66 242.41"
fill="none" stroke="black" stroke-width="0.5"/>
<path d="M77.58 251.38L100.01 242.41"
fill="none" stroke="black" stroke-width="0.5"/>
<path d="M128.86 200.1L119.89 222.52"
fill="none" stroke="black" stroke-width="0.5"/>
<path d="M128.86 474.54L119.89 496.96"
fill="none" stroke="black" stroke-width="0.5"/>
<path d="M334.69 337.32L325.72 359.74"
fill="none" stroke="black" stroke-width="0.5"/>
<path d="M334.69 611.76L325.72 634.18"
fill="none" stroke="black" stroke-width="0.5"/>
<path d="M540.52 200.1L531.55 222.52"
fill="none" stroke="black" stroke-width="0.5"/>
<path d="M540.52 474.54L531.55 496.96"
fill="none" stroke="black" stroke-width="0.5"/>
<path d="M746.35 337.32L737.38 359.74"
fill="none" stroke="black" stroke-width="0.5"/>
<path d="M746.35 611.76L737.38 634.18"
fill="none" stroke="black" stroke-width="0.5"/>
<path d="M746.35 312.46L737.38 290.04"
fill="none" stroke="black" stroke-width="0.5"/>
<path d="M746.35 586.9L737.38 564.48"
fill="none" stroke="black" stroke-width="0.5"/>
<path d="M540.52 175.24L531.55 152.82"
fill="none" stroke="black" stroke-width="0.5"/>
<path d="M540.52 449.68L531.55 427.26"
fill="none" stroke="black" stroke-width="0.5"/>
<path d="M334.69 312.46L325.72 290.04"
fill="none" stroke="black" stroke-width="0.5"/>
<path d="M334.69 586.9L325.72 564.48"
fill="none" stroke="black" stroke-width="0.5"/>
<path d="M128.86 175.24L119.89 152.82"
fill="none" stroke="black" stroke-width="0.5"/>
<path d="M128.86 449.68L119.89 427.26"
fill="none" stroke="black" stroke-width="0.5"/>
<path d="M283.41 535.62L305.83 544.59"
fill="none" stroke="black" stroke-width="0.5"/>
<path d="M77.58 398.4L100.01 407.37"
fill="none" stroke="black" stroke-width="0.5"/>
<path d="M695.07 535.62L717.49 544.59"
fill="none" stroke="black" stroke-width="0.5"/>
<path d="M489.24 398.4L511.66 407.37"
fill="none" stroke="black" stroke-width="0.5"/>
<path d="M283.41 261.18L305.83 270.15"
fill="none" stroke="black" stroke-width="0.5"/>
<path d="M77.58 123.96L100.01 132.93"
fill="none" stroke="black" stroke-width="0.5"/>
<path d="M695.07 261.18L717.49 270.15"
fill="none" stroke="black" stroke-width="0.5"/>
<path d="M489.24 123.96L511.66 132.93"
fill="none" stroke="black" stroke-width="0.5"/>
<path d="M52.73 123.96L30.31 132.93"
fill="none" stroke="black" stroke-width="0.5"/>
<path d="M464.39 123.96L441.96 132.93"
fill="none" stroke="black" stroke-width="0.5"/>
<path d="M258.56 261.18L236.13 270.15"
fill="none" stroke="black" stroke-width="0.5"/>
<path d="M52.73 398.4L30.31 407.37"
fill="none" stroke="black" stroke-width="0.5"/>
<path d="M670.21 261.19L647.79 270.15"
fill="none" stroke="black" stroke-width="0.5"/>
<path d="M464.39 398.4L441.96 407.37"
fill="none" stroke="black" stroke-width="0.5"/>
<path d="M258.56 535.62L236.13 544.59"
fill="none" stroke="black" stroke-width="0.5"/>
<path d="M670.21 535.62L647.79 544.59"
fill="none" stroke="black" stroke-width="0.5"/>
<path d="M618.93 586.9L627.9 564.48"
fill="none" stroke="black" stroke-width="0.5"/>
<path d="M618.93 312.46L627.9 290.04"
fill="none" stroke="black" stroke-width="0.5"/>
<path d="M413.1 449.68L422.07 427.26"
fill="none" stroke="black" stroke-width="0.5"/>
<path d="M413.1 175.24L422.07 152.82"
fill="none" stroke="black" stroke-width="0.5"/>
<path d="M207.28 586.9L216.24 564.48"
fill="none" stroke="black" stroke-width="0.5"/>
<path d="M207.28 312.46L216.24 290.04"
fill="none" stroke="black" stroke-width="0.5"/>
<path d="M1.45 449.68L10.41 427.26"
fill="none" stroke="black" stroke-width="0.5"/>
<path d="M1.44 175.24L10.41 152.82"
fill="none" stroke="black" stroke-width="0.5"/>
<path d="M1.45 474.54L10.42 496.96"
fill="none" stroke="black" stroke-width="0.5"/>
<path d="M1.45 200.1L10.42 222.52"
fill="none" stroke="black" stroke-width="0.5"/>
<path d="M207.28 611.76L216.25 634.18"
fill="none" stroke="black" stroke-width="0.5"/>
<path d="M207.28 337.32L216.25 359.74"
fill="none" stroke="black" stroke-width="0.5"/>
<path d="M413.1 474.54L422.07 496.96"
fill="none" stroke="black" stroke-width="0.5"/>
<path d="M413.11 200.1L422.07 222.52"
fill="none" stroke="black" stroke-width="0.5"/>
<path d="M618.93 611.76L627.9 634.18"
fill="none" stroke="black" stroke-width="0.5"/>
<path d="M618.94 337.32L627.9 359.74"
fill="none" stroke="black" stroke-width="0.5"/>
<path d="M464.38 251.38L441.96 242.41"
fill="none" stroke="black" stroke-width="0.5"/>
<path d="M670.21 388.6L647.79 379.63"
fill="none" stroke="black" stroke-width="0.5"/>
<path d="M52.72 251.38L30.3 242.41"
fill="none" stroke="black" stroke-width="0.5"/>
<path d="M258.55 388.6L236.13 379.63"
fill="none" stroke="black" stroke-width="0.5"/>
<path d="M464.38 525.82L441.96 516.85"
fill="none" stroke="black" stroke-width="0.5"/>
<path d="M670.21 663.03L647.79 654.07"
fill="none" stroke="black" stroke-width="0.5"/>
<path d="M52.72 525.82L30.3 516.85"
fill="none" stroke="black" stroke-width="0.5"/>
<path d="M258.56 663.04L236.13 654.07"
fill="none" stroke="black" stroke-width="0.5"/>
</svg>
