<?xml version="1.0" encoding="UTF-8"?>
<svg xmlns="http://www.w3.org/2000/svg" width="99.949mm" height="99.949mm" viewBox="0.0 0.0 787.000 787.000" preserveAspectRatio="none" version="1.1">
  <title>Produce by Acme CAD Converter</title>
  <desc>Produce by Acme CAD Converter</desc>
<path d="M50.45 319.99L1.44 326.11"
fill="none" stroke="black" stroke-width="0.5"/>
<path d="M442.51 319.99L393.5 326.11"
fill="none" stroke="black" stroke-width="0.5"/>
<path d="M50.45 516.02L1.44 522.14"
fill="none" stroke="black" stroke-width="0.5"/>
<path d="M442.51 516.02L393.5 522.14"
fill="none" stroke="black" stroke-width="0.5"/>
<path d="M442.51 516.02L540.52 467.01"
fill="none" stroke="black" stroke-width="0.5"/>
<path d="M50.45 516.02L148.46 467.01"
fill="none" stroke="black" stroke-width="0.5"/>
<path d="M442.51 319.99L540.52 270.98"
fill="none" stroke="black" stroke-width="0.5"/>
<path d="M50.45 319.99L148.46 270.98"
fill="none" stroke="black" stroke-width="0.5"/>
<path d="M540.52 467.01L589.53 460.89"
fill="none" stroke="black" stroke-width="0.5"/>
<path d="M148.46 467.01L197.47 460.89"
fill="none" stroke="black" stroke-width="0.5"/>
<path d="M540.52 270.98L589.53 264.86"
fill="none" stroke="black" stroke-width="0.5"/>
<path d="M148.46 270.98L197.47 264.86"
fill="none" stroke="black" stroke-width="0.5"/>
<path d="M638.54 270.98L589.53 264.86"
fill="none" stroke="black" stroke-width="0.5"/>
<path d="M246.48 270.98L197.47 264.86"
fill="none" stroke="black" stroke-width="0.5"/>
<path d="M638.54 467.01L589.53 460.89"
fill="none" stroke="black" stroke-width="0.5"/>
<path d="M246.48 467.01L197.47 460.89"
fill="none" stroke="black" stroke-width="0.5"/>
<path d="M246.48 467.01L344.49 516.02"
fill="none" stroke="black" stroke-width="0.5"/>
<path d="M246.48 270.98L344.49 319.99"
fill="none" stroke="black" stroke-width="0.5"/>
<path d="M638.54 467.01L736.55 516.02"
fill="none" stroke="black" stroke-width="0.5"/>
<path d="M638.54 270.98L736.55 319.99"
fill="none" stroke="black" stroke-width="0.5"/>
<path d="M344.49 516.02L393.5 522.14"
fill="none" stroke="black" stroke-width="0.5"/>
<path d="M736.55 516.02L785.56 522.14"
fill="none" stroke="black" stroke-width="0.5"/>
<path d="M344.49 319.99L393.5 326.11"
fill="none" stroke="black" stroke-width="0.5"/>
<path d="M736.55 319.99L785.56 326.11"
fill="none" stroke="black" stroke-width="0.5"/>
</svg>
