<?xml version="1.0" encoding="UTF-8"?>
<svg xmlns="http://www.w3.org/2000/svg" width="99.949mm" height="99.949mm" viewBox="0.0 0.0 787.000 787.000" preserveAspectRatio="none" version="1.1">
  <title>Produce by Acme CAD Converter</title>
  <desc>Produce by Acme CAD Converter</desc>
<path d="M589.53 785.56L785.56 589.53"
fill="none" stroke="black" stroke-width="0.5"/>
<path d="M393.51 785.56L785.56 393.51"
fill="none" stroke="black" stroke-width="0.5"/>
<path d="M197.47 785.56L785.56 197.47"
fill="none" stroke="black" stroke-width="0.5"/>
<path d="M1.44 785.56L785.56 1.44"
fill="none" stroke="black" stroke-width="0.5"/>
<path d="M1.44 589.53L589.53 1.44"
fill="none" stroke="black" stroke-width="0.5"/>
<path d="M1.44 393.49L393.49 1.44"
fill="none" stroke="black" stroke-width="0.5"/>
<path d="M1.44 197.47L197.47 1.44"
fill="none" stroke="black" stroke-width="0.5"/>
<path d="M720.22 785.56L723.49 782.29"
fill="none" stroke="black" stroke-width="0.5"/>
<path d="M752.89 752.88L762.7 743.09"
fill="none" stroke="black" stroke-width="0.5"/>
<path d="M328.16 785.56L331.43 782.29"
fill="none" stroke="black" stroke-width="0.5"/>
<path d="M360.83 752.88L370.63 743.09"
fill="none" stroke="black" stroke-width="0.5"/>
<path d="M400.04 713.68L409.84 703.88"
fill="none" stroke="black" stroke-width="0.5"/>
<path d="M439.24 674.47L449.05 664.67"
fill="none" stroke="black" stroke-width="0.5"/>
<path d="M478.45 635.27L488.25 625.46"
fill="none" stroke="black" stroke-width="0.5"/>
<path d="M517.65 596.06L527.46 586.26"
fill="none" stroke="black" stroke-width="0.5"/>
<path d="M556.86 556.85L566.66 547.05"
fill="none" stroke="black" stroke-width="0.5"/>
<path d="M596.07 517.65L605.87 507.85"
fill="none" stroke="black" stroke-width="0.5"/>
<path d="M635.28 478.44L645.07 468.64"
fill="none" stroke="black" stroke-width="0.5"/>
<path d="M674.48 439.24L684.28 429.43"
fill="none" stroke="black" stroke-width="0.5"/>
<path d="M713.69 400.03L723.49 390.23"
fill="none" stroke="black" stroke-width="0.5"/>
<path d="M752.89 360.83L762.7 351.02"
fill="none" stroke="black" stroke-width="0.5"/>
<path d="M7.98 713.68L17.78 703.88"
fill="none" stroke="black" stroke-width="0.5"/>
<path d="M47.19 674.47L56.98 664.67"
fill="none" stroke="black" stroke-width="0.5"/>
<path d="M86.39 635.27L96.19 625.46"
fill="none" stroke="black" stroke-width="0.5"/>
<path d="M125.6 596.06L135.39 586.26"
fill="none" stroke="black" stroke-width="0.5"/>
<path d="M164.8 556.85L174.61 547.05"
fill="none" stroke="black" stroke-width="0.5"/>
<path d="M204.01 517.65L213.81 507.85"
fill="none" stroke="black" stroke-width="0.5"/>
<path d="M243.21 478.44L253.02 468.64"
fill="none" stroke="black" stroke-width="0.5"/>
<path d="M282.42 439.24L292.22 429.43"
fill="none" stroke="black" stroke-width="0.5"/>
<path d="M321.63 400.03L331.43 390.23"
fill="none" stroke="black" stroke-width="0.5"/>
<path d="M360.83 360.83L370.63 351.02"
fill="none" stroke="black" stroke-width="0.5"/>
<path d="M400.04 321.62L409.84 311.82"
fill="none" stroke="black" stroke-width="0.5"/>
<path d="M439.24 282.41L449.05 272.61"
fill="none" stroke="black" stroke-width="0.5"/>
<path d="M478.45 243.21L488.25 233.41"
fill="none" stroke="black" stroke-width="0.5"/>
<path d="M517.65 204L527.46 194.2"
fill="none" stroke="black" stroke-width="0.5"/>
<path d="M556.86 164.79L566.66 154.99"
fill="none" stroke="black" stroke-width="0.5"/>
<path d="M596.07 125.59L605.87 115.79"
fill="none" stroke="black" stroke-width="0.5"/>
<path d="M635.28 86.38L645.07 76.58"
fill="none" stroke="black" stroke-width="0.5"/>
<path d="M674.48 47.17L684.28 37.37"
fill="none" stroke="black" stroke-width="0.5"/>
<path d="M713.69 7.97L720.21 1.44"
fill="none" stroke="black" stroke-width="0.5"/>
<path d="M7.98 321.62L17.78 311.82"
fill="none" stroke="black" stroke-width="0.5"/>
<path d="M47.19 282.41L56.98 272.61"
fill="none" stroke="black" stroke-width="0.5"/>
<path d="M86.39 243.21L96.19 233.41"
fill="none" stroke="black" stroke-width="0.5"/>
<path d="M125.6 204L135.39 194.2"
fill="none" stroke="black" stroke-width="0.5"/>
<path d="M164.8 164.79L174.61 154.99"
fill="none" stroke="black" stroke-width="0.5"/>
<path d="M204.01 125.59L213.81 115.79"
fill="none" stroke="black" stroke-width="0.5"/>
<path d="M243.21 86.38L253.02 76.58"
fill="none" stroke="black" stroke-width="0.5"/>
<path d="M282.42 47.17L292.22 37.37"
fill="none" stroke="black" stroke-width="0.5"/>
<path d="M321.63 7.97L328.15 1.44"
fill="none" stroke="black" stroke-width="0.5"/>
<path d="M681.01 759.42L690.82 749.62"
fill="none" stroke="black" stroke-width="0.5"/>
<path d="M720.22 720.21L730.02 710.41"
fill="none" stroke="black" stroke-width="0.5"/>
<path d="M759.43 681.01L769.23 671.21"
fill="none" stroke="black" stroke-width="0.5"/>
<path d="M288.95 759.42L298.75 749.62"
fill="none" stroke="black" stroke-width="0.5"/>
<path d="M328.16 720.21L337.96 710.41"
fill="none" stroke="black" stroke-width="0.5"/>
<path d="M367.37 681.01L377.17 671.21"
fill="none" stroke="black" stroke-width="0.5"/>
<path d="M406.57 641.8L416.37 632"
fill="none" stroke="black" stroke-width="0.5"/>
<path d="M445.78 602.6L455.58 592.79"
fill="none" stroke="black" stroke-width="0.5"/>
<path d="M484.99 563.39L494.79 553.59"
fill="none" stroke="black" stroke-width="0.5"/>
<path d="M524.19 524.19L533.99 514.38"
fill="none" stroke="black" stroke-width="0.5"/>
<path d="M563.4 484.97L573.2 475.18"
fill="none" stroke="black" stroke-width="0.5"/>
<path d="M602.6 445.77L612.41 435.97"
fill="none" stroke="black" stroke-width="0.5"/>
<path d="M641.81 406.56L651.61 396.77"
fill="none" stroke="black" stroke-width="0.5"/>
<path d="M681.01 367.36L690.82 357.56"
fill="none" stroke="black" stroke-width="0.5"/>
<path d="M720.22 328.15L730.02 318.35"
fill="none" stroke="black" stroke-width="0.5"/>
<path d="M759.43 288.95L769.23 279.14"
fill="none" stroke="black" stroke-width="0.5"/>
<path d="M14.51 641.8L24.31 632"
fill="none" stroke="black" stroke-width="0.5"/>
<path d="M53.72 602.6L63.52 592.79"
fill="none" stroke="black" stroke-width="0.5"/>
<path d="M92.92 563.39L102.73 553.59"
fill="none" stroke="black" stroke-width="0.5"/>
<path d="M132.13 524.19L141.93 514.38"
fill="none" stroke="black" stroke-width="0.5"/>
<path d="M171.33 484.97L181.14 475.18"
fill="none" stroke="black" stroke-width="0.5"/>
<path d="M210.54 445.77L220.34 435.97"
fill="none" stroke="black" stroke-width="0.5"/>
<path d="M249.75 406.56L259.55 396.77"
fill="none" stroke="black" stroke-width="0.5"/>
<path d="M288.95 367.36L298.75 357.56"
fill="none" stroke="black" stroke-width="0.5"/>
<path d="M328.16 328.15L337.96 318.35"
fill="none" stroke="black" stroke-width="0.5"/>
<path d="M367.37 288.95L377.17 279.14"
fill="none" stroke="black" stroke-width="0.5"/>
<path d="M406.57 249.74L416.37 239.94"
fill="none" stroke="black" stroke-width="0.5"/>
<path d="M445.78 210.53L455.58 200.73"
fill="none" stroke="black" stroke-width="0.5"/>
<path d="M484.99 171.33L494.79 161.53"
fill="none" stroke="black" stroke-width="0.5"/>
<path d="M524.19 132.12L533.99 122.32"
fill="none" stroke="black" stroke-width="0.5"/>
<path d="M563.4 92.92L573.2 83.11"
fill="none" stroke="black" stroke-width="0.5"/>
<path d="M602.6 53.71L612.41 43.91"
fill="none" stroke="black" stroke-width="0.5"/>
<path d="M641.81 14.51L651.61 4.7"
fill="none" stroke="black" stroke-width="0.5"/>
<path d="M14.51 249.74L24.31 239.94"
fill="none" stroke="black" stroke-width="0.5"/>
<path d="M53.72 210.53L63.52 200.73"
fill="none" stroke="black" stroke-width="0.5"/>
<path d="M92.92 171.33L102.73 161.53"
fill="none" stroke="black" stroke-width="0.5"/>
<path d="M132.13 132.12L141.93 122.32"
fill="none" stroke="black" stroke-width="0.5"/>
<path d="M171.33 92.92L181.14 83.11"
fill="none" stroke="black" stroke-width="0.5"/>
<path d="M210.54 53.71L220.34 43.91"
fill="none" stroke="black" stroke-width="0.5"/>
<path d="M249.75 14.51L259.55 4.7"
fill="none" stroke="black" stroke-width="0.5"/>
</svg>
