<?xml version="1.0" encoding="UTF-8"?>
<svg xmlns="http://www.w3.org/2000/svg" width="99.949mm" height="99.949mm" viewBox="0.0 0.0 787.000 787.000" preserveAspectRatio="none" version="1.1">
  <title>Produce by Acme CAD Converter</title>
  <desc>Produce by Acme CAD Converter</desc>
<path d="M91.02 785.55L134.44 785.55"
fill="none" stroke="black" stroke-width="0.5"/>
<path d="M536.15 785.55L579.57 785.55"
fill="none" stroke="black" stroke-width="0.5"/>
<path d="M91.02 562.99L134.44 562.99"
fill="none" stroke="black" stroke-width="0.5"/>
<path d="M536.15 562.99L579.57 562.99"
fill="none" stroke="black" stroke-width="0.5"/>
<path d="M91.02 340.43L134.44 340.43"
fill="none" stroke="black" stroke-width="0.5"/>
<path d="M536.15 340.43L579.57 340.43"
fill="none" stroke="black" stroke-width="0.5"/>
<path d="M91.02 117.86L134.44 117.86"
fill="none" stroke="black" stroke-width="0.5"/>
<path d="M536.15 117.86L579.57 117.86"
fill="none" stroke="black" stroke-width="0.5"/>
<path d="M669.14 695.98L669.14 652.56"
fill="none" stroke="black" stroke-width="0.5"/>
<path d="M669.14 250.85L669.14 207.44"
fill="none" stroke="black" stroke-width="0.5"/>
<path d="M446.58 695.98L446.58 652.56"
fill="none" stroke="black" stroke-width="0.5"/>
<path d="M446.58 250.85L446.58 207.44"
fill="none" stroke="black" stroke-width="0.5"/>
<path d="M224.01 695.98L224.01 652.56"
fill="none" stroke="black" stroke-width="0.5"/>
<path d="M224.01 250.85L224.01 207.44"
fill="none" stroke="black" stroke-width="0.5"/>
<path d="M1.45 695.98L1.45 652.56"
fill="none" stroke="black" stroke-width="0.5"/>
<path d="M1.45 250.85L1.45 207.44"
fill="none" stroke="black" stroke-width="0.5"/>
<path d="M618.73 769.89L653.47 735.14"
fill="none" stroke="black" stroke-width="0.5"/>
<path d="M173.6 769.89L208.34 735.14"
fill="none" stroke="black" stroke-width="0.5"/>
<path d="M618.73 324.76L653.47 290.02"
fill="none" stroke="black" stroke-width="0.5"/>
<path d="M173.6 324.76L208.34 290.02"
fill="none" stroke="black" stroke-width="0.5"/>
<path d="M173.6 578.66L208.34 613.4"
fill="none" stroke="black" stroke-width="0.5"/>
<path d="M173.6 133.53L208.34 168.27"
fill="none" stroke="black" stroke-width="0.5"/>
<path d="M618.73 578.66L653.47 613.4"
fill="none" stroke="black" stroke-width="0.5"/>
<path d="M618.73 133.53L653.47 168.27"
fill="none" stroke="black" stroke-width="0.5"/>
<path d="M51.86 133.53L17.12 168.27"
fill="none" stroke="black" stroke-width="0.5"/>
<path d="M496.99 133.53L462.24 168.27"
fill="none" stroke="black" stroke-width="0.5"/>
<path d="M51.86 578.66L17.12 613.4"
fill="none" stroke="black" stroke-width="0.5"/>
<path d="M496.99 578.66L462.24 613.4"
fill="none" stroke="black" stroke-width="0.5"/>
<path d="M496.99 324.76L462.24 290.02"
fill="none" stroke="black" stroke-width="0.5"/>
<path d="M496.99 769.89L462.24 735.14"
fill="none" stroke="black" stroke-width="0.5"/>
<path d="M51.86 324.76L17.12 290.02"
fill="none" stroke="black" stroke-width="0.5"/>
<path d="M51.86 769.89L17.12 735.14"
fill="none" stroke="black" stroke-width="0.5"/>
<path d="M579.57 785.55L618.73 769.89"
fill="none" stroke="black" stroke-width="0.5"/>
<path d="M134.44 785.55L173.6 769.89"
fill="none" stroke="black" stroke-width="0.5"/>
<path d="M579.57 340.43L618.73 324.76"
fill="none" stroke="black" stroke-width="0.5"/>
<path d="M134.44 340.43L173.6 324.76"
fill="none" stroke="black" stroke-width="0.5"/>
<path d="M224.01 250.85L208.34 290.02"
fill="none" stroke="black" stroke-width="0.5"/>
<path d="M224.01 695.98L208.34 735.14"
fill="none" stroke="black" stroke-width="0.5"/>
<path d="M669.14 250.85L653.47 290.02"
fill="none" stroke="black" stroke-width="0.5"/>
<path d="M669.14 695.98L653.47 735.14"
fill="none" stroke="black" stroke-width="0.5"/>
<path d="M669.14 207.44L653.47 168.27"
fill="none" stroke="black" stroke-width="0.5"/>
<path d="M669.14 652.56L653.47 613.4"
fill="none" stroke="black" stroke-width="0.5"/>
<path d="M224.01 207.44L208.34 168.27"
fill="none" stroke="black" stroke-width="0.5"/>
<path d="M224.01 652.56L208.34 613.4"
fill="none" stroke="black" stroke-width="0.5"/>
<path d="M134.44 562.99L173.6 578.66"
fill="none" stroke="black" stroke-width="0.5"/>
<path d="M579.57 562.99L618.73 578.66"
fill="none" stroke="black" stroke-width="0.5"/>
<path d="M134.44 117.86L173.6 133.53"
fill="none" stroke="black" stroke-width="0.5"/>
<path d="M579.57 117.86L618.73 133.53"
fill="none" stroke="black" stroke-width="0.5"/>
<path d="M91.02 117.86L51.86 133.53"
fill="none" stroke="black" stroke-width="0.5"/>
<path d="M536.15 117.87L496.99 133.53"
fill="none" stroke="black" stroke-width="0.5"/>
<path d="M91.02 562.99L51.86 578.66"
fill="none" stroke="black" stroke-width="0.5"/>
<path d="M536.15 563L496.99 578.66"
fill="none" stroke="black" stroke-width="0.5"/>
<path d="M446.58 652.56L462.24 613.39"
fill="none" stroke="black" stroke-width="0.5"/>
<path d="M446.57 207.43L462.24 168.27"
fill="none" stroke="black" stroke-width="0.5"/>
<path d="M1.45 652.56L17.11 613.39"
fill="none" stroke="black" stroke-width="0.5"/>
<path d="M1.44 207.43L17.11 168.27"
fill="none" stroke="black" stroke-width="0.5"/>
<path d="M1.45 695.99L17.12 735.15"
fill="none" stroke="black" stroke-width="0.5"/>
<path d="M1.46 250.86L17.12 290.03"
fill="none" stroke="black" stroke-width="0.5"/>
<path d="M446.58 695.99L462.24 735.15"
fill="none" stroke="black" stroke-width="0.5"/>
<path d="M446.58 250.86L462.24 290.03"
fill="none" stroke="black" stroke-width="0.5"/>
<path d="M536.14 340.42L496.98 324.76"
fill="none" stroke="black" stroke-width="0.5"/>
<path d="M91.02 340.43L51.85 324.76"
fill="none" stroke="black" stroke-width="0.5"/>
<path d="M536.14 785.55L496.98 769.89"
fill="none" stroke="black" stroke-width="0.5"/>
<path d="M91.02 785.55L51.85 769.89"
fill="none" stroke="black" stroke-width="0.5"/>
<path d="M107.6 456.84L117.87 456.84"
fill="none" stroke="black" stroke-width="0.5"/>
<path d="M330.16 456.84L340.43 456.84"
fill="none" stroke="black" stroke-width="0.5"/>
<path d="M552.72 456.84L562.99 456.84"
fill="none" stroke="black" stroke-width="0.5"/>
<path d="M775.29 456.84L785.56 456.84"
fill="none" stroke="black" stroke-width="0.5"/>
<path d="M107.6 11.72L117.87 11.72"
fill="none" stroke="black" stroke-width="0.5"/>
<path d="M330.16 11.72L340.43 11.72"
fill="none" stroke="black" stroke-width="0.5"/>
<path d="M552.72 11.72L562.99 11.72"
fill="none" stroke="black" stroke-width="0.5"/>
<path d="M775.29 11.72L785.56 11.72"
fill="none" stroke="black" stroke-width="0.5"/>
<path d="M107.6 446.57L117.87 446.57"
fill="none" stroke="black" stroke-width="0.5"/>
<path d="M330.16 446.57L340.43 446.57"
fill="none" stroke="black" stroke-width="0.5"/>
<path d="M552.72 446.57L562.99 446.57"
fill="none" stroke="black" stroke-width="0.5"/>
<path d="M775.29 446.57L785.56 446.57"
fill="none" stroke="black" stroke-width="0.5"/>
<path d="M107.6 1.45L117.87 1.45"
fill="none" stroke="black" stroke-width="0.5"/>
<path d="M330.16 1.45L340.43 1.45"
fill="none" stroke="black" stroke-width="0.5"/>
<path d="M552.72 1.45L562.99 1.45"
fill="none" stroke="black" stroke-width="0.5"/>
<path d="M775.29 1.45L785.56 1.45"
fill="none" stroke="black" stroke-width="0.5"/>
<path d="M775.29 456.84L775.29 446.57"
fill="none" stroke="black" stroke-width="0.5"/>
<path d="M775.29 11.72L775.29 1.45"
fill="none" stroke="black" stroke-width="0.5"/>
<path d="M552.72 456.84L552.72 446.57"
fill="none" stroke="black" stroke-width="0.5"/>
<path d="M552.72 11.72L552.72 1.45"
fill="none" stroke="black" stroke-width="0.5"/>
<path d="M330.16 456.84L330.16 446.57"
fill="none" stroke="black" stroke-width="0.5"/>
<path d="M330.16 11.72L330.16 1.45"
fill="none" stroke="black" stroke-width="0.5"/>
<path d="M107.6 456.84L107.6 446.57"
fill="none" stroke="black" stroke-width="0.5"/>
<path d="M107.6 11.72L107.6 1.45"
fill="none" stroke="black" stroke-width="0.5"/>
<path d="M785.56 456.84L785.56 446.57"
fill="none" stroke="black" stroke-width="0.5"/>
<path d="M785.56 11.72L785.56 1.45"
fill="none" stroke="black" stroke-width="0.5"/>
<path d="M562.99 456.84L562.99 446.57"
fill="none" stroke="black" stroke-width="0.5"/>
<path d="M562.99 11.72L562.99 1.45"
fill="none" stroke="black" stroke-width="0.5"/>
<path d="M340.43 456.84L340.43 446.57"
fill="none" stroke="black" stroke-width="0.5"/>
<path d="M340.43 11.72L340.43 1.45"
fill="none" stroke="black" stroke-width="0.5"/>
<path d="M117.87 456.84L117.87 446.57"
fill="none" stroke="black" stroke-width="0.5"/>
<path d="M117.87 11.72L117.87 1.45"
fill="none" stroke="black" stroke-width="0.5"/>
</svg>
