<?xml version="1.0" encoding="UTF-8"?>
<svg xmlns="http://www.w3.org/2000/svg" width="99.949mm" height="99.949mm" viewBox="0.0 0.0 787.000 787.000" preserveAspectRatio="none" version="1.1">
  <title>Produce by Acme CAD Converter</title>
  <desc>Produce by Acme CAD Converter</desc>
<path d="M92.11 558.27L106.81 558.27"
fill="none" stroke="black" stroke-width="0.5"/>
<path d="M484.16 558.27L498.87 558.27"
fill="none" stroke="black" stroke-width="0.5"/>
<path d="M288.13 460.26L302.84 460.26"
fill="none" stroke="black" stroke-width="0.5"/>
<path d="M680.19 460.26L694.89 460.26"
fill="none" stroke="black" stroke-width="0.5"/>
<path d="M92.11 362.24L106.81 362.24"
fill="none" stroke="black" stroke-width="0.5"/>
<path d="M484.16 362.24L498.87 362.24"
fill="none" stroke="black" stroke-width="0.5"/>
<path d="M288.13 264.23L302.84 264.23"
fill="none" stroke="black" stroke-width="0.5"/>
<path d="M680.19 264.23L694.89 264.23"
fill="none" stroke="black" stroke-width="0.5"/>
<path d="M92.11 522.77L106.81 522.77"
fill="none" stroke="black" stroke-width="0.5"/>
<path d="M484.16 522.77L498.87 522.77"
fill="none" stroke="black" stroke-width="0.5"/>
<path d="M288.13 424.76L302.84 424.76"
fill="none" stroke="black" stroke-width="0.5"/>
<path d="M680.19 424.76L694.89 424.76"
fill="none" stroke="black" stroke-width="0.5"/>
<path d="M92.11 326.74L106.81 326.74"
fill="none" stroke="black" stroke-width="0.5"/>
<path d="M484.16 326.74L498.87 326.74"
fill="none" stroke="black" stroke-width="0.5"/>
<path d="M288.13 228.73L302.84 228.73"
fill="none" stroke="black" stroke-width="0.5"/>
<path d="M680.19 228.73L694.89 228.73"
fill="none" stroke="black" stroke-width="0.5"/>
<path d="M669.79 449.86L669.79 435.16"
fill="none" stroke="black" stroke-width="0.5"/>
<path d="M669.79 253.83L669.79 239.13"
fill="none" stroke="black" stroke-width="0.5"/>
<path d="M473.77 547.87L473.77 533.17"
fill="none" stroke="black" stroke-width="0.5"/>
<path d="M473.77 351.84L473.77 337.14"
fill="none" stroke="black" stroke-width="0.5"/>
<path d="M277.74 449.86L277.74 435.16"
fill="none" stroke="black" stroke-width="0.5"/>
<path d="M277.74 253.83L277.74 239.13"
fill="none" stroke="black" stroke-width="0.5"/>
<path d="M81.71 547.87L81.71 533.17"
fill="none" stroke="black" stroke-width="0.5"/>
<path d="M81.71 351.84L81.71 337.14"
fill="none" stroke="black" stroke-width="0.5"/>
<path d="M705.29 449.86L705.29 435.16"
fill="none" stroke="black" stroke-width="0.5"/>
<path d="M705.29 253.83L705.29 239.13"
fill="none" stroke="black" stroke-width="0.5"/>
<path d="M509.26 547.87L509.26 533.17"
fill="none" stroke="black" stroke-width="0.5"/>
<path d="M509.26 351.84L509.26 337.14"
fill="none" stroke="black" stroke-width="0.5"/>
<path d="M313.23 449.86L313.23 435.16"
fill="none" stroke="black" stroke-width="0.5"/>
<path d="M313.23 253.83L313.23 239.13"
fill="none" stroke="black" stroke-width="0.5"/>
<path d="M117.21 547.87L117.21 533.17"
fill="none" stroke="black" stroke-width="0.5"/>
<path d="M117.21 351.84L117.21 337.14"
fill="none" stroke="black" stroke-width="0.5"/>
<path d="M694.89 460.26L705.29 449.86"
fill="none" stroke="black" stroke-width="0.5"/>
<path d="M498.87 558.27L509.26 547.87"
fill="none" stroke="black" stroke-width="0.5"/>
<path d="M694.89 264.23L705.29 253.83"
fill="none" stroke="black" stroke-width="0.5"/>
<path d="M498.87 362.24L509.26 351.84"
fill="none" stroke="black" stroke-width="0.5"/>
<path d="M302.84 460.26L313.23 449.86"
fill="none" stroke="black" stroke-width="0.5"/>
<path d="M106.81 558.27L117.21 547.87"
fill="none" stroke="black" stroke-width="0.5"/>
<path d="M302.84 264.23L313.23 253.83"
fill="none" stroke="black" stroke-width="0.5"/>
<path d="M106.81 362.24L117.21 351.84"
fill="none" stroke="black" stroke-width="0.5"/>
<path d="M106.81 522.77L117.21 533.17"
fill="none" stroke="black" stroke-width="0.5"/>
<path d="M106.81 326.74L117.21 337.14"
fill="none" stroke="black" stroke-width="0.5"/>
<path d="M302.84 424.76L313.23 435.16"
fill="none" stroke="black" stroke-width="0.5"/>
<path d="M498.87 522.77L509.26 533.17"
fill="none" stroke="black" stroke-width="0.5"/>
<path d="M302.84 228.73L313.23 239.13"
fill="none" stroke="black" stroke-width="0.5"/>
<path d="M498.87 326.74L509.26 337.14"
fill="none" stroke="black" stroke-width="0.5"/>
<path d="M694.89 424.76L705.29 435.16"
fill="none" stroke="black" stroke-width="0.5"/>
<path d="M694.89 228.73L705.29 239.13"
fill="none" stroke="black" stroke-width="0.5"/>
<path d="M92.11 326.74L81.71 337.14"
fill="none" stroke="black" stroke-width="0.5"/>
<path d="M288.13 228.73L277.74 239.13"
fill="none" stroke="black" stroke-width="0.5"/>
<path d="M92.11 522.77L81.71 533.17"
fill="none" stroke="black" stroke-width="0.5"/>
<path d="M288.13 424.76L277.74 435.16"
fill="none" stroke="black" stroke-width="0.5"/>
<path d="M484.16 326.74L473.77 337.14"
fill="none" stroke="black" stroke-width="0.5"/>
<path d="M680.19 228.73L669.79 239.13"
fill="none" stroke="black" stroke-width="0.5"/>
<path d="M484.16 522.77L473.77 533.17"
fill="none" stroke="black" stroke-width="0.5"/>
<path d="M680.19 424.76L669.79 435.16"
fill="none" stroke="black" stroke-width="0.5"/>
<path d="M680.19 264.23L669.79 253.83"
fill="none" stroke="black" stroke-width="0.5"/>
<path d="M680.19 460.26L669.79 449.86"
fill="none" stroke="black" stroke-width="0.5"/>
<path d="M484.16 362.24L473.77 351.84"
fill="none" stroke="black" stroke-width="0.5"/>
<path d="M288.13 264.23L277.74 253.83"
fill="none" stroke="black" stroke-width="0.5"/>
<path d="M484.16 558.27L473.77 547.87"
fill="none" stroke="black" stroke-width="0.5"/>
<path d="M288.13 460.26L277.74 449.86"
fill="none" stroke="black" stroke-width="0.5"/>
<path d="M92.11 362.24L81.71 351.84"
fill="none" stroke="black" stroke-width="0.5"/>
<path d="M92.11 558.27L81.71 547.87"
fill="none" stroke="black" stroke-width="0.5"/>
<path d="M86.19 552.35L112.72 552.35"
fill="none" stroke="black" stroke-width="0.5"/>
<path d="M478.25 552.35L504.78 552.35"
fill="none" stroke="black" stroke-width="0.5"/>
<path d="M282.22 454.34L308.75 454.34"
fill="none" stroke="black" stroke-width="0.5"/>
<path d="M674.28 454.34L700.81 454.34"
fill="none" stroke="black" stroke-width="0.5"/>
<path d="M86.19 356.33L112.72 356.33"
fill="none" stroke="black" stroke-width="0.5"/>
<path d="M478.25 356.33L504.78 356.33"
fill="none" stroke="black" stroke-width="0.5"/>
<path d="M282.22 258.31L308.75 258.31"
fill="none" stroke="black" stroke-width="0.5"/>
<path d="M674.28 258.31L700.81 258.31"
fill="none" stroke="black" stroke-width="0.5"/>
<path d="M81.71 546.44L117.21 546.44"
fill="none" stroke="black" stroke-width="0.5"/>
<path d="M473.77 546.44L509.26 546.44"
fill="none" stroke="black" stroke-width="0.5"/>
<path d="M277.74 448.42L313.23 448.42"
fill="none" stroke="black" stroke-width="0.5"/>
<path d="M669.79 448.42L705.29 448.42"
fill="none" stroke="black" stroke-width="0.5"/>
<path d="M81.71 350.41L117.21 350.41"
fill="none" stroke="black" stroke-width="0.5"/>
<path d="M473.77 350.41L509.26 350.41"
fill="none" stroke="black" stroke-width="0.5"/>
<path d="M277.74 252.39L313.23 252.39"
fill="none" stroke="black" stroke-width="0.5"/>
<path d="M669.79 252.39L705.29 252.39"
fill="none" stroke="black" stroke-width="0.5"/>
<path d="M81.71 540.52L117.21 540.52"
fill="none" stroke="black" stroke-width="0.5"/>
<path d="M473.77 540.52L509.26 540.52"
fill="none" stroke="black" stroke-width="0.5"/>
<path d="M277.74 442.51L313.23 442.51"
fill="none" stroke="black" stroke-width="0.5"/>
<path d="M669.79 442.51L705.29 442.51"
fill="none" stroke="black" stroke-width="0.5"/>
<path d="M81.71 344.49L117.21 344.49"
fill="none" stroke="black" stroke-width="0.5"/>
<path d="M473.77 344.49L509.26 344.49"
fill="none" stroke="black" stroke-width="0.5"/>
<path d="M277.74 246.48L313.23 246.48"
fill="none" stroke="black" stroke-width="0.5"/>
<path d="M669.79 246.48L705.29 246.48"
fill="none" stroke="black" stroke-width="0.5"/>
<path d="M81.71 534.61L117.21 534.61"
fill="none" stroke="black" stroke-width="0.5"/>
<path d="M473.77 534.61L509.26 534.61"
fill="none" stroke="black" stroke-width="0.5"/>
<path d="M277.74 436.59L313.23 436.59"
fill="none" stroke="black" stroke-width="0.5"/>
<path d="M669.79 436.59L705.29 436.59"
fill="none" stroke="black" stroke-width="0.5"/>
<path d="M81.71 338.58L117.21 338.58"
fill="none" stroke="black" stroke-width="0.5"/>
<path d="M473.77 338.58L509.26 338.58"
fill="none" stroke="black" stroke-width="0.5"/>
<path d="M277.74 240.56L313.23 240.56"
fill="none" stroke="black" stroke-width="0.5"/>
<path d="M669.79 240.56L705.29 240.56"
fill="none" stroke="black" stroke-width="0.5"/>
<path d="M86.19 528.69L112.72 528.69"
fill="none" stroke="black" stroke-width="0.5"/>
<path d="M478.25 528.69L504.78 528.69"
fill="none" stroke="black" stroke-width="0.5"/>
<path d="M282.22 430.67L308.75 430.67"
fill="none" stroke="black" stroke-width="0.5"/>
<path d="M674.28 430.67L700.81 430.67"
fill="none" stroke="black" stroke-width="0.5"/>
<path d="M86.19 332.66L112.72 332.66"
fill="none" stroke="black" stroke-width="0.5"/>
<path d="M478.25 332.66L504.78 332.66"
fill="none" stroke="black" stroke-width="0.5"/>
<path d="M282.22 234.65L308.75 234.65"
fill="none" stroke="black" stroke-width="0.5"/>
<path d="M674.28 234.65L700.81 234.65"
fill="none" stroke="black" stroke-width="0.5"/>
<path d="M675.71 455.77L675.71 429.24"
fill="none" stroke="black" stroke-width="0.5"/>
<path d="M675.71 259.75L675.71 233.21"
fill="none" stroke="black" stroke-width="0.5"/>
<path d="M479.68 553.79L479.68 527.25"
fill="none" stroke="black" stroke-width="0.5"/>
<path d="M479.68 357.76L479.68 331.23"
fill="none" stroke="black" stroke-width="0.5"/>
<path d="M283.65 455.77L283.65 429.24"
fill="none" stroke="black" stroke-width="0.5"/>
<path d="M283.65 259.75L283.65 233.21"
fill="none" stroke="black" stroke-width="0.5"/>
<path d="M87.62 553.79L87.62 527.25"
fill="none" stroke="black" stroke-width="0.5"/>
<path d="M87.62 357.76L87.62 331.23"
fill="none" stroke="black" stroke-width="0.5"/>
<path d="M681.63 460.26L681.63 424.76"
fill="none" stroke="black" stroke-width="0.5"/>
<path d="M681.63 264.23L681.63 228.73"
fill="none" stroke="black" stroke-width="0.5"/>
<path d="M485.6 558.27L485.6 522.77"
fill="none" stroke="black" stroke-width="0.5"/>
<path d="M485.6 362.24L485.6 326.74"
fill="none" stroke="black" stroke-width="0.5"/>
<path d="M289.57 460.26L289.57 424.76"
fill="none" stroke="black" stroke-width="0.5"/>
<path d="M289.57 264.23L289.57 228.73"
fill="none" stroke="black" stroke-width="0.5"/>
<path d="M93.54 558.27L93.54 522.77"
fill="none" stroke="black" stroke-width="0.5"/>
<path d="M93.54 362.24L93.54 326.74"
fill="none" stroke="black" stroke-width="0.5"/>
<path d="M687.54 460.26L687.54 424.76"
fill="none" stroke="black" stroke-width="0.5"/>
<path d="M687.54 264.23L687.54 228.73"
fill="none" stroke="black" stroke-width="0.5"/>
<path d="M491.51 558.27L491.51 522.77"
fill="none" stroke="black" stroke-width="0.5"/>
<path d="M491.51 362.24L491.51 326.74"
fill="none" stroke="black" stroke-width="0.5"/>
<path d="M295.49 460.26L295.49 424.76"
fill="none" stroke="black" stroke-width="0.5"/>
<path d="M295.49 264.23L295.49 228.73"
fill="none" stroke="black" stroke-width="0.5"/>
<path d="M99.46 558.27L99.46 522.77"
fill="none" stroke="black" stroke-width="0.5"/>
<path d="M99.46 362.24L99.46 326.74"
fill="none" stroke="black" stroke-width="0.5"/>
<path d="M693.46 460.26L693.46 424.76"
fill="none" stroke="black" stroke-width="0.5"/>
<path d="M693.46 264.23L693.46 228.73"
fill="none" stroke="black" stroke-width="0.5"/>
<path d="M497.43 558.27L497.43 522.77"
fill="none" stroke="black" stroke-width="0.5"/>
<path d="M497.43 362.24L497.43 326.74"
fill="none" stroke="black" stroke-width="0.5"/>
<path d="M301.4 460.26L301.4 424.76"
fill="none" stroke="black" stroke-width="0.5"/>
<path d="M301.4 264.23L301.4 228.73"
fill="none" stroke="black" stroke-width="0.5"/>
<path d="M105.37 558.27L105.37 522.77"
fill="none" stroke="black" stroke-width="0.5"/>
<path d="M105.37 362.24L105.37 326.74"
fill="none" stroke="black" stroke-width="0.5"/>
<path d="M699.38 455.77L699.38 429.24"
fill="none" stroke="black" stroke-width="0.5"/>
<path d="M699.38 259.75L699.38 233.21"
fill="none" stroke="black" stroke-width="0.5"/>
<path d="M503.35 553.79L503.35 527.25"
fill="none" stroke="black" stroke-width="0.5"/>
<path d="M503.35 357.76L503.35 331.23"
fill="none" stroke="black" stroke-width="0.5"/>
<path d="M307.32 455.77L307.32 429.24"
fill="none" stroke="black" stroke-width="0.5"/>
<path d="M307.32 259.75L307.32 233.21"
fill="none" stroke="black" stroke-width="0.5"/>
<path d="M111.29 553.79L111.29 527.25"
fill="none" stroke="black" stroke-width="0.5"/>
<path d="M111.29 357.76L111.29 331.23"
fill="none" stroke="black" stroke-width="0.5"/>
<path d="M1.44 540.52L50.45 540.52"
fill="none" stroke="black" stroke-width="0.5"/>
<path d="M148.46 540.52L442.51 540.52"
fill="none" stroke="black" stroke-width="0.5"/>
<path d="M540.52 540.52L785.56 540.52"
fill="none" stroke="black" stroke-width="0.5"/>
<path d="M1.44 442.51L246.48 442.51"
fill="none" stroke="black" stroke-width="0.5"/>
<path d="M344.49 442.51L638.54 442.51"
fill="none" stroke="black" stroke-width="0.5"/>
<path d="M736.55 442.51L785.56 442.51"
fill="none" stroke="black" stroke-width="0.5"/>
<path d="M1.44 344.49L50.45 344.49"
fill="none" stroke="black" stroke-width="0.5"/>
<path d="M148.46 344.49L442.51 344.49"
fill="none" stroke="black" stroke-width="0.5"/>
<path d="M540.52 344.49L785.56 344.49"
fill="none" stroke="black" stroke-width="0.5"/>
<path d="M1.44 246.48L246.48 246.48"
fill="none" stroke="black" stroke-width="0.5"/>
<path d="M344.49 246.48L638.54 246.48"
fill="none" stroke="black" stroke-width="0.5"/>
<path d="M736.55 246.48L785.56 246.48"
fill="none" stroke="black" stroke-width="0.5"/>
</svg>
