<?xml version="1.0" encoding="UTF-8"?>
<svg xmlns="http://www.w3.org/2000/svg" width="99.949mm" height="99.949mm" viewBox="0.0 0.0 787.000 787.000" preserveAspectRatio="none" version="1.1">
  <title>Produce by Acme CAD Converter</title>
  <desc>Produce by Acme CAD Converter</desc>
<path d="M393.5 589.53L524.19 589.53"
fill="none" stroke="black" stroke-width="0.5"/>
<path d="M1.44 458.84L132.13 458.84"
fill="none" stroke="black" stroke-width="0.5"/>
<path d="M393.5 328.16L524.19 328.16"
fill="none" stroke="black" stroke-width="0.5"/>
<path d="M1.44 197.47L132.13 197.47"
fill="none" stroke="black" stroke-width="0.5"/>
<path d="M654.87 589.53L785.56 589.53"
fill="none" stroke="black" stroke-width="0.5"/>
<path d="M262.81 458.84L393.5 458.84"
fill="none" stroke="black" stroke-width="0.5"/>
<path d="M654.87 328.16L785.56 328.16"
fill="none" stroke="black" stroke-width="0.5"/>
<path d="M262.81 197.47L393.5 197.47"
fill="none" stroke="black" stroke-width="0.5"/>
<path d="M145.99 613.19L248.95 613.19"
fill="none" stroke="black" stroke-width="0.5"/>
<path d="M538.05 482.51L641.01 482.51"
fill="none" stroke="black" stroke-width="0.5"/>
<path d="M145.99 351.82L248.95 351.82"
fill="none" stroke="black" stroke-width="0.5"/>
<path d="M538.05 221.14L641.01 221.14"
fill="none" stroke="black" stroke-width="0.5"/>
<path d="M145.99 565.86L248.95 565.86"
fill="none" stroke="black" stroke-width="0.5"/>
<path d="M538.05 435.18L641.01 435.18"
fill="none" stroke="black" stroke-width="0.5"/>
<path d="M145.99 304.49L248.95 304.49"
fill="none" stroke="black" stroke-width="0.5"/>
<path d="M538.05 173.81L641.01 173.81"
fill="none" stroke="black" stroke-width="0.5"/>
<path d="M524.19 468.64L524.19 449.04"
fill="none" stroke="black" stroke-width="0.5"/>
<path d="M524.19 207.27L524.19 187.67"
fill="none" stroke="black" stroke-width="0.5"/>
<path d="M132.13 599.33L132.13 579.73"
fill="none" stroke="black" stroke-width="0.5"/>
<path d="M132.13 337.96L132.13 318.36"
fill="none" stroke="black" stroke-width="0.5"/>
<path d="M654.87 468.64L654.87 449.04"
fill="none" stroke="black" stroke-width="0.5"/>
<path d="M654.87 207.27L654.87 187.67"
fill="none" stroke="black" stroke-width="0.5"/>
<path d="M262.81 599.33L262.81 579.73"
fill="none" stroke="black" stroke-width="0.5"/>
<path d="M262.81 337.96L262.81 318.36"
fill="none" stroke="black" stroke-width="0.5"/>
<path d="M641.01 482.51L654.87 468.64"
fill="none" stroke="black" stroke-width="0.5"/>
<path d="M248.95 613.19L262.81 599.33"
fill="none" stroke="black" stroke-width="0.5"/>
<path d="M641.01 221.14L654.87 207.27"
fill="none" stroke="black" stroke-width="0.5"/>
<path d="M248.95 351.82L262.81 337.96"
fill="none" stroke="black" stroke-width="0.5"/>
<path d="M248.95 565.86L262.81 579.73"
fill="none" stroke="black" stroke-width="0.5"/>
<path d="M248.95 304.49L262.81 318.36"
fill="none" stroke="black" stroke-width="0.5"/>
<path d="M641.01 435.18L654.87 449.04"
fill="none" stroke="black" stroke-width="0.5"/>
<path d="M641.01 173.81L654.87 187.67"
fill="none" stroke="black" stroke-width="0.5"/>
<path d="M145.99 304.49L132.13 318.36"
fill="none" stroke="black" stroke-width="0.5"/>
<path d="M538.05 173.81L524.19 187.67"
fill="none" stroke="black" stroke-width="0.5"/>
<path d="M145.99 565.86L132.13 579.73"
fill="none" stroke="black" stroke-width="0.5"/>
<path d="M538.05 435.18L524.19 449.04"
fill="none" stroke="black" stroke-width="0.5"/>
<path d="M538.04 221.13L524.19 207.27"
fill="none" stroke="black" stroke-width="0.5"/>
<path d="M538.04 482.5L524.19 468.64"
fill="none" stroke="black" stroke-width="0.5"/>
<path d="M145.99 351.82L132.13 337.96"
fill="none" stroke="black" stroke-width="0.5"/>
<path d="M145.99 613.19L132.13 599.33"
fill="none" stroke="black" stroke-width="0.5"/>
</svg>
