<?xml version="1.0" encoding="UTF-8"?>
<svg xmlns="http://www.w3.org/2000/svg" width="99.949mm" height="99.949mm" viewBox="0.0 0.0 787.000 787.000" preserveAspectRatio="none" version="1.1">
  <title>Produce by Acme CAD Converter</title>
  <desc>Produce by Acme CAD Converter</desc>
<path d="M401.63 785.56L450.11 688.59"
fill="none" stroke="black" stroke-width="0.5"/>
<path d="M510.04 568.74L558.52 471.78"
fill="none" stroke="black" stroke-width="0.5"/>
<path d="M184.81 785.56L233.29 688.59"
fill="none" stroke="black" stroke-width="0.5"/>
<path d="M293.22 568.74L341.7 471.78"
fill="none" stroke="black" stroke-width="0.5"/>
<path d="M401.63 351.93L450.11 254.96"
fill="none" stroke="black" stroke-width="0.5"/>
<path d="M510.04 135.11L558.52 38.14"
fill="none" stroke="black" stroke-width="0.5"/>
<path d="M184.81 351.93L233.29 254.96"
fill="none" stroke="black" stroke-width="0.5"/>
<path d="M293.22 135.11L341.7 38.14"
fill="none" stroke="black" stroke-width="0.5"/>
<path d="M504.62 568.74L526.9 435.07"
fill="none" stroke="black" stroke-width="0.5"/>
<path d="M396.21 785.56L418.49 651.89"
fill="none" stroke="black" stroke-width="0.5"/>
<path d="M504.62 135.11L526.9 1.44"
fill="none" stroke="black" stroke-width="0.5"/>
<path d="M396.21 351.93L418.49 218.26"
fill="none" stroke="black" stroke-width="0.5"/>
<path d="M287.8 568.74L310.08 435.07"
fill="none" stroke="black" stroke-width="0.5"/>
<path d="M179.39 785.56L201.67 651.89"
fill="none" stroke="black" stroke-width="0.5"/>
<path d="M287.8 135.11L310.08 1.44"
fill="none" stroke="black" stroke-width="0.5"/>
<path d="M179.39 351.93L201.67 218.26"
fill="none" stroke="black" stroke-width="0.5"/>
<path d="M607.61 351.93L585.33 218.26"
fill="none" stroke="black" stroke-width="0.5"/>
<path d="M607.61 785.56L585.33 651.89"
fill="none" stroke="black" stroke-width="0.5"/>
<path d="M499.2 135.11L476.92 1.44"
fill="none" stroke="black" stroke-width="0.5"/>
<path d="M499.2 568.74L476.92 435.07"
fill="none" stroke="black" stroke-width="0.5"/>
<path d="M390.79 351.93L368.51 218.26"
fill="none" stroke="black" stroke-width="0.5"/>
<path d="M390.79 785.56L368.51 651.89"
fill="none" stroke="black" stroke-width="0.5"/>
<path d="M282.38 135.11L260.1 1.44"
fill="none" stroke="black" stroke-width="0.5"/>
<path d="M282.38 568.74L260.1 435.07"
fill="none" stroke="black" stroke-width="0.5"/>
<path d="M602.19 351.93L553.71 254.96"
fill="none" stroke="black" stroke-width="0.5"/>
<path d="M493.78 135.11L445.3 38.14"
fill="none" stroke="black" stroke-width="0.5"/>
<path d="M602.19 785.56L553.71 688.59"
fill="none" stroke="black" stroke-width="0.5"/>
<path d="M493.78 568.74L445.3 471.78"
fill="none" stroke="black" stroke-width="0.5"/>
<path d="M385.37 351.93L336.89 254.96"
fill="none" stroke="black" stroke-width="0.5"/>
<path d="M276.96 135.11L228.48 38.14"
fill="none" stroke="black" stroke-width="0.5"/>
<path d="M385.37 785.56L336.89 688.59"
fill="none" stroke="black" stroke-width="0.5"/>
<path d="M276.96 568.74L228.48 471.78"
fill="none" stroke="black" stroke-width="0.5"/>
</svg>
