<?xml version="1.0" encoding="UTF-8"?>
<svg xmlns="http://www.w3.org/2000/svg" width="99.949mm" height="99.949mm" viewBox="0.0 0.0 787.000 787.000" preserveAspectRatio="none" version="1.1">
  <title>Produce by Acme CAD Converter</title>
  <desc>Produce by Acme CAD Converter</desc>
<path d="M687.51 785.56L785.56 687.51"
fill="none" stroke="black" stroke-width="0.5"/>
<path d="M491.49 785.56L785.56 491.49"
fill="none" stroke="black" stroke-width="0.5"/>
<path d="M295.47 785.56L785.56 295.47"
fill="none" stroke="black" stroke-width="0.5"/>
<path d="M99.45 785.56L785.56 99.45"
fill="none" stroke="black" stroke-width="0.5"/>
<path d="M1.44 687.55L687.55 1.44"
fill="none" stroke="black" stroke-width="0.5"/>
<path d="M1.44 491.53L491.53 1.44"
fill="none" stroke="black" stroke-width="0.5"/>
<path d="M1.44 295.51L295.51 1.44"
fill="none" stroke="black" stroke-width="0.5"/>
<path d="M1.44 99.49L99.49 1.44"
fill="none" stroke="black" stroke-width="0.5"/>
<path d="M91.29 124L76.99 142.37"
fill="none" stroke="black" stroke-width="0.5"/>
<path d="M215.64 1.44L207.67 11.69"
fill="none" stroke="black" stroke-width="0.5"/>
<path d="M58.61 352.69L44.32 371.06"
fill="none" stroke="black" stroke-width="0.5"/>
<path d="M189.29 222L175 240.38"
fill="none" stroke="black" stroke-width="0.5"/>
<path d="M319.97 91.33L305.68 109.7"
fill="none" stroke="black" stroke-width="0.5"/>
<path d="M25.94 581.37L11.65 599.75"
fill="none" stroke="black" stroke-width="0.5"/>
<path d="M156.62 450.69L142.33 469.07"
fill="none" stroke="black" stroke-width="0.5"/>
<path d="M287.3 320.01L273.01 338.39"
fill="none" stroke="black" stroke-width="0.5"/>
<path d="M417.98 189.33L403.69 207.71"
fill="none" stroke="black" stroke-width="0.5"/>
<path d="M548.66 58.66L534.37 77.03"
fill="none" stroke="black" stroke-width="0.5"/>
<path d="M123.95 679.38L109.66 697.76"
fill="none" stroke="black" stroke-width="0.5"/>
<path d="M254.63 548.7L240.34 567.08"
fill="none" stroke="black" stroke-width="0.5"/>
<path d="M385.31 418.02L371.02 436.4"
fill="none" stroke="black" stroke-width="0.5"/>
<path d="M515.99 287.34L501.7 305.72"
fill="none" stroke="black" stroke-width="0.5"/>
<path d="M646.67 156.67L632.38 175.04"
fill="none" stroke="black" stroke-width="0.5"/>
<path d="M777.35 25.99L763.06 44.36"
fill="none" stroke="black" stroke-width="0.5"/>
<path d="M221.96 777.39L215.61 785.56"
fill="none" stroke="black" stroke-width="0.5"/>
<path d="M352.64 646.71L338.35 665.09"
fill="none" stroke="black" stroke-width="0.5"/>
<path d="M483.32 516.03L469.03 534.41"
fill="none" stroke="black" stroke-width="0.5"/>
<path d="M614 385.35L599.71 403.73"
fill="none" stroke="black" stroke-width="0.5"/>
<path d="M744.68 254.67L730.38 273.05"
fill="none" stroke="black" stroke-width="0.5"/>
<path d="M450.65 744.72L436.36 763.1"
fill="none" stroke="black" stroke-width="0.5"/>
<path d="M581.33 614.04L567.04 632.42"
fill="none" stroke="black" stroke-width="0.5"/>
<path d="M712.01 483.36L697.72 501.74"
fill="none" stroke="black" stroke-width="0.5"/>
<path d="M679.34 712.05L665.05 730.43"
fill="none" stroke="black" stroke-width="0.5"/>
<path d="M785.52 785.56L785.56 785.44"
fill="none" stroke="black" stroke-width="0.5"/>
<path d="M679.34 712.05L695.67 663.05"
fill="none" stroke="black" stroke-width="0.5"/>
<path d="M712.01 483.36L728.34 434.36"
fill="none" stroke="black" stroke-width="0.5"/>
<path d="M744.68 254.67L761.01 205.67"
fill="none" stroke="black" stroke-width="0.5"/>
<path d="M581.33 614.04L597.67 565.04"
fill="none" stroke="black" stroke-width="0.5"/>
<path d="M777.35 25.99L785.53 1.44"
fill="none" stroke="black" stroke-width="0.5"/>
<path d="M614 385.35L630.33 336.35"
fill="none" stroke="black" stroke-width="0.5"/>
<path d="M450.65 744.72L466.99 695.71"
fill="none" stroke="black" stroke-width="0.5"/>
<path d="M646.67 156.67L663 107.66"
fill="none" stroke="black" stroke-width="0.5"/>
<path d="M483.32 516.03L499.66 467.03"
fill="none" stroke="black" stroke-width="0.5"/>
<path d="M515.99 287.34L532.33 238.34"
fill="none" stroke="black" stroke-width="0.5"/>
<path d="M352.64 646.71L368.98 597.71"
fill="none" stroke="black" stroke-width="0.5"/>
<path d="M548.66 58.66L565 9.65"
fill="none" stroke="black" stroke-width="0.5"/>
<path d="M385.31 418.02L401.65 369.02"
fill="none" stroke="black" stroke-width="0.5"/>
<path d="M221.96 777.39L238.3 728.39"
fill="none" stroke="black" stroke-width="0.5"/>
<path d="M417.98 189.33L434.31 140.33"
fill="none" stroke="black" stroke-width="0.5"/>
<path d="M254.63 548.7L270.97 499.7"
fill="none" stroke="black" stroke-width="0.5"/>
<path d="M287.3 320.01L303.64 271.01"
fill="none" stroke="black" stroke-width="0.5"/>
<path d="M123.95 679.38L140.29 630.38"
fill="none" stroke="black" stroke-width="0.5"/>
<path d="M319.97 91.33L336.31 42.32"
fill="none" stroke="black" stroke-width="0.5"/>
<path d="M156.62 450.69L172.96 401.69"
fill="none" stroke="black" stroke-width="0.5"/>
<path d="M1.44 785.56L9.61 761.06"
fill="none" stroke="black" stroke-width="0.5"/>
<path d="M189.29 222L205.63 173"
fill="none" stroke="black" stroke-width="0.5"/>
<path d="M25.94 581.37L42.28 532.37"
fill="none" stroke="black" stroke-width="0.5"/>
<path d="M58.61 352.69L74.95 303.68"
fill="none" stroke="black" stroke-width="0.5"/>
<path d="M91.29 124L107.62 74.99"
fill="none" stroke="black" stroke-width="0.5"/>
<path d="M1.44 1.48L1.46 1.44"
fill="none" stroke="black" stroke-width="0.5"/>
<path d="M695.67 663.05L709.97 644.67"
fill="none" stroke="black" stroke-width="0.5"/>
<path d="M571.35 785.56L579.29 775.35"
fill="none" stroke="black" stroke-width="0.5"/>
<path d="M728.34 434.36L742.64 415.98"
fill="none" stroke="black" stroke-width="0.5"/>
<path d="M597.67 565.04L611.96 546.66"
fill="none" stroke="black" stroke-width="0.5"/>
<path d="M466.99 695.71L481.28 677.34"
fill="none" stroke="black" stroke-width="0.5"/>
<path d="M761.01 205.67L775.31 187.29"
fill="none" stroke="black" stroke-width="0.5"/>
<path d="M630.33 336.35L644.63 317.97"
fill="none" stroke="black" stroke-width="0.5"/>
<path d="M499.66 467.03L513.95 448.65"
fill="none" stroke="black" stroke-width="0.5"/>
<path d="M368.98 597.71L383.27 579.33"
fill="none" stroke="black" stroke-width="0.5"/>
<path d="M238.3 728.39L252.59 710.01"
fill="none" stroke="black" stroke-width="0.5"/>
<path d="M663 107.66L677.3 89.28"
fill="none" stroke="black" stroke-width="0.5"/>
<path d="M532.33 238.34L546.62 219.96"
fill="none" stroke="black" stroke-width="0.5"/>
<path d="M401.65 369.02L415.94 350.64"
fill="none" stroke="black" stroke-width="0.5"/>
<path d="M270.97 499.7L285.26 481.32"
fill="none" stroke="black" stroke-width="0.5"/>
<path d="M140.29 630.38L154.58 612"
fill="none" stroke="black" stroke-width="0.5"/>
<path d="M9.61 761.06L23.9 742.68"
fill="none" stroke="black" stroke-width="0.5"/>
<path d="M565 9.65L571.38 1.44"
fill="none" stroke="black" stroke-width="0.5"/>
<path d="M434.31 140.33L448.61 121.95"
fill="none" stroke="black" stroke-width="0.5"/>
<path d="M303.64 271.01L317.93 252.63"
fill="none" stroke="black" stroke-width="0.5"/>
<path d="M172.96 401.69L187.25 383.31"
fill="none" stroke="black" stroke-width="0.5"/>
<path d="M42.28 532.37L56.57 513.99"
fill="none" stroke="black" stroke-width="0.5"/>
<path d="M336.31 42.32L350.6 23.94"
fill="none" stroke="black" stroke-width="0.5"/>
<path d="M205.63 173L219.92 154.62"
fill="none" stroke="black" stroke-width="0.5"/>
<path d="M74.95 303.68L89.24 285.3"
fill="none" stroke="black" stroke-width="0.5"/>
<path d="M107.62 74.99L121.91 56.62"
fill="none" stroke="black" stroke-width="0.5"/>
<path d="M140.29 42.32L121.91 56.62"
fill="none" stroke="black" stroke-width="0.5"/>
<path d="M9.61 173L1.44 179.35"
fill="none" stroke="black" stroke-width="0.5"/>
<path d="M368.98 9.65L350.6 23.94"
fill="none" stroke="black" stroke-width="0.5"/>
<path d="M238.3 140.33L219.92 154.62"
fill="none" stroke="black" stroke-width="0.5"/>
<path d="M107.62 271.01L89.24 285.3"
fill="none" stroke="black" stroke-width="0.5"/>
<path d="M466.99 107.66L448.61 121.95"
fill="none" stroke="black" stroke-width="0.5"/>
<path d="M336.31 238.34L317.93 252.63"
fill="none" stroke="black" stroke-width="0.5"/>
<path d="M205.63 369.02L187.25 383.31"
fill="none" stroke="black" stroke-width="0.5"/>
<path d="M74.95 499.7L56.57 513.99"
fill="none" stroke="black" stroke-width="0.5"/>
<path d="M695.67 74.99L677.3 89.28"
fill="none" stroke="black" stroke-width="0.5"/>
<path d="M565 205.67L546.62 219.96"
fill="none" stroke="black" stroke-width="0.5"/>
<path d="M434.31 336.35L415.94 350.64"
fill="none" stroke="black" stroke-width="0.5"/>
<path d="M303.64 467.03L285.26 481.32"
fill="none" stroke="black" stroke-width="0.5"/>
<path d="M172.96 597.71L154.58 612"
fill="none" stroke="black" stroke-width="0.5"/>
<path d="M42.28 728.39L23.9 742.68"
fill="none" stroke="black" stroke-width="0.5"/>
<path d="M785.56 179.32L775.31 187.29"
fill="none" stroke="black" stroke-width="0.5"/>
<path d="M663 303.68L644.63 317.97"
fill="none" stroke="black" stroke-width="0.5"/>
<path d="M532.33 434.36L513.95 448.65"
fill="none" stroke="black" stroke-width="0.5"/>
<path d="M401.65 565.04L383.27 579.33"
fill="none" stroke="black" stroke-width="0.5"/>
<path d="M270.97 695.71L252.59 710.01"
fill="none" stroke="black" stroke-width="0.5"/>
<path d="M761.01 401.69L742.64 415.98"
fill="none" stroke="black" stroke-width="0.5"/>
<path d="M630.33 532.37L611.96 546.66"
fill="none" stroke="black" stroke-width="0.5"/>
<path d="M499.66 663.05L481.28 677.34"
fill="none" stroke="black" stroke-width="0.5"/>
<path d="M728.34 630.38L709.97 644.67"
fill="none" stroke="black" stroke-width="0.5"/>
<path d="M597.67 761.06L579.29 775.35"
fill="none" stroke="black" stroke-width="0.5"/>
<path d="M597.67 761.06L646.67 744.72"
fill="none" stroke="black" stroke-width="0.5"/>
<path d="M393.48 785.56L417.98 777.39"
fill="none" stroke="black" stroke-width="0.5"/>
<path d="M728.34 630.38L777.35 614.04"
fill="none" stroke="black" stroke-width="0.5"/>
<path d="M499.66 663.05L548.66 646.71"
fill="none" stroke="black" stroke-width="0.5"/>
<path d="M270.97 695.71L319.97 679.38"
fill="none" stroke="black" stroke-width="0.5"/>
<path d="M42.28 728.39L91.29 712.05"
fill="none" stroke="black" stroke-width="0.5"/>
<path d="M630.33 532.37L679.34 516.03"
fill="none" stroke="black" stroke-width="0.5"/>
<path d="M401.65 565.04L450.65 548.7"
fill="none" stroke="black" stroke-width="0.5"/>
<path d="M172.96 597.71L221.96 581.37"
fill="none" stroke="black" stroke-width="0.5"/>
<path d="M761.01 401.69L785.56 393.51"
fill="none" stroke="black" stroke-width="0.5"/>
<path d="M532.33 434.36L581.33 418.02"
fill="none" stroke="black" stroke-width="0.5"/>
<path d="M303.64 467.03L352.64 450.69"
fill="none" stroke="black" stroke-width="0.5"/>
<path d="M74.95 499.7L123.95 483.36"
fill="none" stroke="black" stroke-width="0.5"/>
<path d="M663 303.68L712.01 287.34"
fill="none" stroke="black" stroke-width="0.5"/>
<path d="M434.31 336.35L483.32 320.01"
fill="none" stroke="black" stroke-width="0.5"/>
<path d="M205.63 369.02L254.63 352.69"
fill="none" stroke="black" stroke-width="0.5"/>
<path d="M1.44 393.52L25.94 385.35"
fill="none" stroke="black" stroke-width="0.5"/>
<path d="M565 205.67L614 189.33"
fill="none" stroke="black" stroke-width="0.5"/>
<path d="M336.31 238.34L385.31 222"
fill="none" stroke="black" stroke-width="0.5"/>
<path d="M107.62 271.01L156.62 254.67"
fill="none" stroke="black" stroke-width="0.5"/>
<path d="M695.67 74.99L744.68 58.66"
fill="none" stroke="black" stroke-width="0.5"/>
<path d="M466.99 107.66L515.99 91.33"
fill="none" stroke="black" stroke-width="0.5"/>
<path d="M238.3 140.33L287.3 124"
fill="none" stroke="black" stroke-width="0.5"/>
<path d="M9.61 173L58.61 156.67"
fill="none" stroke="black" stroke-width="0.5"/>
<path d="M368.98 9.65L393.6 1.44"
fill="none" stroke="black" stroke-width="0.5"/>
<path d="M140.29 42.32L189.29 25.99"
fill="none" stroke="black" stroke-width="0.5"/>
<path d="M646.67 744.72L665.05 730.43"
fill="none" stroke="black" stroke-width="0.5"/>
<path d="M777.35 614.04L785.56 607.66"
fill="none" stroke="black" stroke-width="0.5"/>
<path d="M417.98 777.39L436.36 763.1"
fill="none" stroke="black" stroke-width="0.5"/>
<path d="M548.66 646.71L567.04 632.42"
fill="none" stroke="black" stroke-width="0.5"/>
<path d="M679.34 516.03L697.72 501.74"
fill="none" stroke="black" stroke-width="0.5"/>
<path d="M319.97 679.38L338.35 665.09"
fill="none" stroke="black" stroke-width="0.5"/>
<path d="M450.65 548.7L469.03 534.41"
fill="none" stroke="black" stroke-width="0.5"/>
<path d="M581.33 418.02L599.71 403.73"
fill="none" stroke="black" stroke-width="0.5"/>
<path d="M712.01 287.34L730.38 273.05"
fill="none" stroke="black" stroke-width="0.5"/>
<path d="M91.29 712.05L109.66 697.76"
fill="none" stroke="black" stroke-width="0.5"/>
<path d="M221.96 581.37L240.34 567.08"
fill="none" stroke="black" stroke-width="0.5"/>
<path d="M352.64 450.69L371.02 436.4"
fill="none" stroke="black" stroke-width="0.5"/>
<path d="M483.32 320.01L501.7 305.72"
fill="none" stroke="black" stroke-width="0.5"/>
<path d="M614 189.33L632.38 175.04"
fill="none" stroke="black" stroke-width="0.5"/>
<path d="M744.68 58.66L763.06 44.36"
fill="none" stroke="black" stroke-width="0.5"/>
<path d="M1.44 607.69L11.65 599.75"
fill="none" stroke="black" stroke-width="0.5"/>
<path d="M123.95 483.36L142.33 469.07"
fill="none" stroke="black" stroke-width="0.5"/>
<path d="M254.63 352.69L273.01 338.39"
fill="none" stroke="black" stroke-width="0.5"/>
<path d="M385.31 222L403.69 207.71"
fill="none" stroke="black" stroke-width="0.5"/>
<path d="M515.99 91.33L534.37 77.03"
fill="none" stroke="black" stroke-width="0.5"/>
<path d="M25.94 385.35L44.32 371.06"
fill="none" stroke="black" stroke-width="0.5"/>
<path d="M156.62 254.67L175 240.38"
fill="none" stroke="black" stroke-width="0.5"/>
<path d="M287.3 124L305.68 109.7"
fill="none" stroke="black" stroke-width="0.5"/>
<path d="M58.61 156.67L76.99 142.37"
fill="none" stroke="black" stroke-width="0.5"/>
<path d="M189.29 25.99L207.67 11.69"
fill="none" stroke="black" stroke-width="0.5"/>
</svg>
