<?xml version="1.0" encoding="UTF-8"?>
<svg xmlns="http://www.w3.org/2000/svg" width="99.949mm" height="99.949mm" viewBox="0.0 0.0 787.000 787.000" preserveAspectRatio="none" version="1.1">
  <title>Produce by Acme CAD Converter</title>
  <desc>Produce by Acme CAD Converter</desc>
<path d="M1.44 785.56L262.81 785.56"
fill="none" stroke="black" stroke-width="0.5"/>
<path d="M524.19 785.56L785.56 785.56"
fill="none" stroke="black" stroke-width="0.5"/>
<path d="M1.44 524.19L262.81 524.19"
fill="none" stroke="black" stroke-width="0.5"/>
<path d="M524.19 524.19L785.56 524.19"
fill="none" stroke="black" stroke-width="0.5"/>
<path d="M1.44 262.81L262.81 262.81"
fill="none" stroke="black" stroke-width="0.5"/>
<path d="M524.19 262.81L785.56 262.81"
fill="none" stroke="black" stroke-width="0.5"/>
<path d="M1.44 1.44L262.81 1.44"
fill="none" stroke="black" stroke-width="0.5"/>
<path d="M524.19 1.44L785.56 1.44"
fill="none" stroke="black" stroke-width="0.5"/>
<path d="M785.56 785.56L785.56 524.19"
fill="none" stroke="black" stroke-width="0.5"/>
<path d="M785.56 262.81L785.56 1.44"
fill="none" stroke="black" stroke-width="0.5"/>
<path d="M524.19 785.56L524.19 524.19"
fill="none" stroke="black" stroke-width="0.5"/>
<path d="M524.19 262.81L524.19 1.44"
fill="none" stroke="black" stroke-width="0.5"/>
<path d="M262.81 785.56L262.81 524.19"
fill="none" stroke="black" stroke-width="0.5"/>
<path d="M262.81 262.81L262.81 1.44"
fill="none" stroke="black" stroke-width="0.5"/>
<path d="M1.44 785.56L1.44 524.19"
fill="none" stroke="black" stroke-width="0.5"/>
<path d="M1.44 262.81L1.44 1.44"
fill="none" stroke="black" stroke-width="0.5"/>
</svg>
