<?xml version="1.0" encoding="UTF-8"?>
<svg xmlns="http://www.w3.org/2000/svg" width="99.949mm" height="99.949mm" viewBox="0.0 0.0 787.000 787.000" preserveAspectRatio="none" version="1.1">
  <title>Produce by Acme CAD Converter</title>
  <desc>Produce by Acme CAD Converter</desc>
<path d="M112.02 674.98L192.45 674.98"
fill="none" stroke="black" stroke-width="0.5"/>
<path d="M433.71 674.98L514.13 674.98"
fill="none" stroke="black" stroke-width="0.5"/>
<path d="M272.87 473.92L353.29 473.92"
fill="none" stroke="black" stroke-width="0.5"/>
<path d="M594.55 473.92L674.98 473.92"
fill="none" stroke="black" stroke-width="0.5"/>
<path d="M112.02 272.87L192.45 272.87"
fill="none" stroke="black" stroke-width="0.5"/>
<path d="M433.71 272.87L514.13 272.87"
fill="none" stroke="black" stroke-width="0.5"/>
<path d="M272.87 71.81L353.29 71.81"
fill="none" stroke="black" stroke-width="0.5"/>
<path d="M594.55 71.81L674.98 71.81"
fill="none" stroke="black" stroke-width="0.5"/>
<path d="M594.55 785.56L594.55 755.4"
fill="none" stroke="black" stroke-width="0.5"/>
<path d="M594.55 473.92L594.55 353.29"
fill="none" stroke="black" stroke-width="0.5"/>
<path d="M594.55 71.81L594.55 1.44"
fill="none" stroke="black" stroke-width="0.5"/>
<path d="M433.71 674.98L433.71 554.34"
fill="none" stroke="black" stroke-width="0.5"/>
<path d="M433.71 272.87L433.71 152.23"
fill="none" stroke="black" stroke-width="0.5"/>
<path d="M272.87 785.56L272.87 755.4"
fill="none" stroke="black" stroke-width="0.5"/>
<path d="M272.87 473.92L272.87 353.29"
fill="none" stroke="black" stroke-width="0.5"/>
<path d="M272.87 71.81L272.87 1.44"
fill="none" stroke="black" stroke-width="0.5"/>
<path d="M112.02 674.98L112.02 554.34"
fill="none" stroke="black" stroke-width="0.5"/>
<path d="M112.02 272.87L112.02 152.23"
fill="none" stroke="black" stroke-width="0.5"/>
<path d="M674.98 785.56L674.98 755.4"
fill="none" stroke="black" stroke-width="0.5"/>
<path d="M674.98 473.92L674.98 353.29"
fill="none" stroke="black" stroke-width="0.5"/>
<path d="M674.98 71.81L674.98 1.44"
fill="none" stroke="black" stroke-width="0.5"/>
<path d="M514.13 674.98L514.13 554.34"
fill="none" stroke="black" stroke-width="0.5"/>
<path d="M514.13 272.87L514.13 152.23"
fill="none" stroke="black" stroke-width="0.5"/>
<path d="M353.29 785.56L353.29 755.4"
fill="none" stroke="black" stroke-width="0.5"/>
<path d="M353.29 473.92L353.29 353.29"
fill="none" stroke="black" stroke-width="0.5"/>
<path d="M353.29 71.81L353.29 1.44"
fill="none" stroke="black" stroke-width="0.5"/>
<path d="M192.45 674.98L192.45 554.34"
fill="none" stroke="black" stroke-width="0.5"/>
<path d="M192.45 272.87L192.45 152.23"
fill="none" stroke="black" stroke-width="0.5"/>
<path d="M594.55 755.4L634.77 671.62"
fill="none" stroke="black" stroke-width="0.5"/>
<path d="M594.55 353.29L634.77 269.51"
fill="none" stroke="black" stroke-width="0.5"/>
<path d="M433.71 554.34L473.92 470.57"
fill="none" stroke="black" stroke-width="0.5"/>
<path d="M272.87 755.4L313.08 671.62"
fill="none" stroke="black" stroke-width="0.5"/>
<path d="M433.71 152.23L473.92 68.46"
fill="none" stroke="black" stroke-width="0.5"/>
<path d="M272.87 353.29L313.08 269.51"
fill="none" stroke="black" stroke-width="0.5"/>
<path d="M112.02 554.34L152.23 470.57"
fill="none" stroke="black" stroke-width="0.5"/>
<path d="M112.02 152.23L152.23 68.46"
fill="none" stroke="black" stroke-width="0.5"/>
<path d="M674.98 353.29L634.77 269.51"
fill="none" stroke="black" stroke-width="0.5"/>
<path d="M514.13 152.23L473.92 68.46"
fill="none" stroke="black" stroke-width="0.5"/>
<path d="M674.98 755.4L634.77 671.62"
fill="none" stroke="black" stroke-width="0.5"/>
<path d="M514.13 554.34L473.92 470.57"
fill="none" stroke="black" stroke-width="0.5"/>
<path d="M353.29 353.29L313.08 269.51"
fill="none" stroke="black" stroke-width="0.5"/>
<path d="M192.45 152.23L152.23 68.46"
fill="none" stroke="black" stroke-width="0.5"/>
<path d="M353.29 755.4L313.08 671.62"
fill="none" stroke="black" stroke-width="0.5"/>
<path d="M192.45 554.34L152.23 470.57"
fill="none" stroke="black" stroke-width="0.5"/>
</svg>
