<?xml version="1.0" encoding="UTF-8"?>
<svg xmlns="http://www.w3.org/2000/svg" width="99.949mm" height="99.949mm" viewBox="0.0 0.0 787.000 787.000" preserveAspectRatio="none" version="1.1">
  <title>Produce by Acme CAD Converter</title>
  <desc>Produce by Acme CAD Converter</desc>
<path d="M739.44 533.31L785.56 453.42"
fill="none" stroke="black" stroke-width="0.5"/>
<path d="M508.81 733.03L554.94 653.14"
fill="none" stroke="black" stroke-width="0.5"/>
<path d="M739.44 133.86L785.56 53.97"
fill="none" stroke="black" stroke-width="0.5"/>
<path d="M508.81 333.58L554.94 253.69"
fill="none" stroke="black" stroke-width="0.5"/>
<path d="M278.19 533.31L324.31 453.42"
fill="none" stroke="black" stroke-width="0.5"/>
<path d="M47.56 733.03L93.69 653.14"
fill="none" stroke="black" stroke-width="0.5"/>
<path d="M278.19 133.86L324.31 53.97"
fill="none" stroke="black" stroke-width="0.5"/>
<path d="M47.56 333.58L93.69 253.69"
fill="none" stroke="black" stroke-width="0.5"/>
<path d="M739.44 133.86L693.31 53.97"
fill="none" stroke="black" stroke-width="0.5"/>
<path d="M739.44 533.31L693.31 453.42"
fill="none" stroke="black" stroke-width="0.5"/>
<path d="M508.81 333.58L462.69 253.69"
fill="none" stroke="black" stroke-width="0.5"/>
<path d="M278.19 133.86L232.06 53.97"
fill="none" stroke="black" stroke-width="0.5"/>
<path d="M508.81 733.03L462.69 653.14"
fill="none" stroke="black" stroke-width="0.5"/>
<path d="M278.19 533.31L232.06 453.42"
fill="none" stroke="black" stroke-width="0.5"/>
<path d="M47.56 333.58L1.44 253.69"
fill="none" stroke="black" stroke-width="0.5"/>
<path d="M47.56 733.03L1.44 653.14"
fill="none" stroke="black" stroke-width="0.5"/>
</svg>
