<?xml version="1.0" encoding="UTF-8"?>
<svg xmlns="http://www.w3.org/2000/svg" width="99.949mm" height="99.949mm" viewBox="0.0 0.0 787.000 787.000" preserveAspectRatio="none" version="1.1">
  <title>Produce by Acme CAD Converter</title>
  <desc>Produce by Acme CAD Converter</desc>
<path d="M1.44 595.32L13.03 595.32"
fill="none" stroke="black" stroke-width="0.5"/>
<path d="M155.95 595.32L167.54 595.32"
fill="none" stroke="black" stroke-width="0.5"/>
<path d="M310.45 595.32L322.04 595.32"
fill="none" stroke="black" stroke-width="0.5"/>
<path d="M464.96 595.32L476.55 595.32"
fill="none" stroke="black" stroke-width="0.5"/>
<path d="M619.46 595.32L631.05 595.32"
fill="none" stroke="black" stroke-width="0.5"/>
<path d="M773.97 595.32L785.56 595.32"
fill="none" stroke="black" stroke-width="0.5"/>
<path d="M1.44 440.82L13.03 440.82"
fill="none" stroke="black" stroke-width="0.5"/>
<path d="M155.95 440.82L167.54 440.82"
fill="none" stroke="black" stroke-width="0.5"/>
<path d="M310.45 440.82L322.04 440.82"
fill="none" stroke="black" stroke-width="0.5"/>
<path d="M464.96 440.82L476.55 440.82"
fill="none" stroke="black" stroke-width="0.5"/>
<path d="M619.46 440.82L631.05 440.82"
fill="none" stroke="black" stroke-width="0.5"/>
<path d="M773.97 440.82L785.56 440.82"
fill="none" stroke="black" stroke-width="0.5"/>
<path d="M1.44 286.31L13.03 286.31"
fill="none" stroke="black" stroke-width="0.5"/>
<path d="M155.95 286.31L167.54 286.31"
fill="none" stroke="black" stroke-width="0.5"/>
<path d="M310.45 286.31L322.04 286.31"
fill="none" stroke="black" stroke-width="0.5"/>
<path d="M464.96 286.31L476.55 286.31"
fill="none" stroke="black" stroke-width="0.5"/>
<path d="M619.46 286.31L631.05 286.31"
fill="none" stroke="black" stroke-width="0.5"/>
<path d="M773.97 286.31L785.56 286.31"
fill="none" stroke="black" stroke-width="0.5"/>
<path d="M1.44 131.81L13.03 131.81"
fill="none" stroke="black" stroke-width="0.5"/>
<path d="M155.95 131.81L167.54 131.81"
fill="none" stroke="black" stroke-width="0.5"/>
<path d="M310.45 131.81L322.04 131.81"
fill="none" stroke="black" stroke-width="0.5"/>
<path d="M464.96 131.81L476.55 131.81"
fill="none" stroke="black" stroke-width="0.5"/>
<path d="M619.46 131.81L631.05 131.81"
fill="none" stroke="black" stroke-width="0.5"/>
<path d="M773.97 131.81L785.56 131.81"
fill="none" stroke="black" stroke-width="0.5"/>
<path d="M1.44 583.73L13.03 583.73"
fill="none" stroke="black" stroke-width="0.5"/>
<path d="M155.95 583.73L167.54 583.73"
fill="none" stroke="black" stroke-width="0.5"/>
<path d="M310.45 583.73L322.04 583.73"
fill="none" stroke="black" stroke-width="0.5"/>
<path d="M464.96 583.73L476.55 583.73"
fill="none" stroke="black" stroke-width="0.5"/>
<path d="M619.46 583.73L631.05 583.73"
fill="none" stroke="black" stroke-width="0.5"/>
<path d="M773.97 583.73L785.56 583.73"
fill="none" stroke="black" stroke-width="0.5"/>
<path d="M1.44 429.23L13.03 429.23"
fill="none" stroke="black" stroke-width="0.5"/>
<path d="M155.95 429.23L167.54 429.23"
fill="none" stroke="black" stroke-width="0.5"/>
<path d="M310.45 429.23L322.04 429.23"
fill="none" stroke="black" stroke-width="0.5"/>
<path d="M464.96 429.23L476.55 429.23"
fill="none" stroke="black" stroke-width="0.5"/>
<path d="M619.46 429.23L631.05 429.23"
fill="none" stroke="black" stroke-width="0.5"/>
<path d="M773.97 429.23L785.56 429.23"
fill="none" stroke="black" stroke-width="0.5"/>
<path d="M1.44 274.72L13.03 274.72"
fill="none" stroke="black" stroke-width="0.5"/>
<path d="M155.95 274.72L167.54 274.72"
fill="none" stroke="black" stroke-width="0.5"/>
<path d="M310.45 274.72L322.04 274.72"
fill="none" stroke="black" stroke-width="0.5"/>
<path d="M464.96 274.72L476.55 274.72"
fill="none" stroke="black" stroke-width="0.5"/>
<path d="M619.46 274.72L631.05 274.72"
fill="none" stroke="black" stroke-width="0.5"/>
<path d="M773.97 274.72L785.56 274.72"
fill="none" stroke="black" stroke-width="0.5"/>
<path d="M1.44 120.22L13.03 120.22"
fill="none" stroke="black" stroke-width="0.5"/>
<path d="M155.95 120.22L167.54 120.22"
fill="none" stroke="black" stroke-width="0.5"/>
<path d="M310.45 120.22L322.04 120.22"
fill="none" stroke="black" stroke-width="0.5"/>
<path d="M464.96 120.22L476.55 120.22"
fill="none" stroke="black" stroke-width="0.5"/>
<path d="M619.46 120.22L631.05 120.22"
fill="none" stroke="black" stroke-width="0.5"/>
<path d="M773.97 120.22L785.56 120.22"
fill="none" stroke="black" stroke-width="0.5"/>
<path d="M773.97 595.32L773.97 583.73"
fill="none" stroke="black" stroke-width="0.5"/>
<path d="M773.97 440.82L773.97 429.23"
fill="none" stroke="black" stroke-width="0.5"/>
<path d="M773.97 286.31L773.97 274.72"
fill="none" stroke="black" stroke-width="0.5"/>
<path d="M773.97 131.81L773.97 120.22"
fill="none" stroke="black" stroke-width="0.5"/>
<path d="M619.46 595.32L619.46 583.73"
fill="none" stroke="black" stroke-width="0.5"/>
<path d="M619.46 440.82L619.46 429.23"
fill="none" stroke="black" stroke-width="0.5"/>
<path d="M619.46 286.31L619.46 274.72"
fill="none" stroke="black" stroke-width="0.5"/>
<path d="M619.46 131.81L619.46 120.22"
fill="none" stroke="black" stroke-width="0.5"/>
<path d="M464.96 595.32L464.96 583.73"
fill="none" stroke="black" stroke-width="0.5"/>
<path d="M464.96 440.82L464.96 429.23"
fill="none" stroke="black" stroke-width="0.5"/>
<path d="M464.96 286.31L464.96 274.72"
fill="none" stroke="black" stroke-width="0.5"/>
<path d="M464.96 131.81L464.96 120.22"
fill="none" stroke="black" stroke-width="0.5"/>
<path d="M310.45 595.32L310.45 583.73"
fill="none" stroke="black" stroke-width="0.5"/>
<path d="M310.45 440.82L310.45 429.23"
fill="none" stroke="black" stroke-width="0.5"/>
<path d="M310.45 286.31L310.45 274.72"
fill="none" stroke="black" stroke-width="0.5"/>
<path d="M310.45 131.81L310.45 120.22"
fill="none" stroke="black" stroke-width="0.5"/>
<path d="M155.95 595.32L155.95 583.73"
fill="none" stroke="black" stroke-width="0.5"/>
<path d="M155.95 440.82L155.95 429.23"
fill="none" stroke="black" stroke-width="0.5"/>
<path d="M155.95 286.31L155.95 274.72"
fill="none" stroke="black" stroke-width="0.5"/>
<path d="M155.95 131.81L155.95 120.22"
fill="none" stroke="black" stroke-width="0.5"/>
<path d="M1.44 595.32L1.44 583.73"
fill="none" stroke="black" stroke-width="0.5"/>
<path d="M1.44 440.82L1.44 429.23"
fill="none" stroke="black" stroke-width="0.5"/>
<path d="M1.44 286.31L1.44 274.72"
fill="none" stroke="black" stroke-width="0.5"/>
<path d="M1.44 131.81L1.44 120.22"
fill="none" stroke="black" stroke-width="0.5"/>
<path d="M785.56 595.32L785.56 583.73"
fill="none" stroke="black" stroke-width="0.5"/>
<path d="M785.56 440.82L785.56 429.23"
fill="none" stroke="black" stroke-width="0.5"/>
<path d="M785.56 286.31L785.56 274.72"
fill="none" stroke="black" stroke-width="0.5"/>
<path d="M785.56 131.81L785.56 120.22"
fill="none" stroke="black" stroke-width="0.5"/>
<path d="M631.05 595.32L631.05 583.73"
fill="none" stroke="black" stroke-width="0.5"/>
<path d="M631.05 440.82L631.05 429.23"
fill="none" stroke="black" stroke-width="0.5"/>
<path d="M631.05 286.31L631.05 274.72"
fill="none" stroke="black" stroke-width="0.5"/>
<path d="M631.05 131.81L631.05 120.22"
fill="none" stroke="black" stroke-width="0.5"/>
<path d="M476.55 595.32L476.55 583.73"
fill="none" stroke="black" stroke-width="0.5"/>
<path d="M476.55 440.82L476.55 429.23"
fill="none" stroke="black" stroke-width="0.5"/>
<path d="M476.55 286.31L476.55 274.72"
fill="none" stroke="black" stroke-width="0.5"/>
<path d="M476.55 131.81L476.55 120.22"
fill="none" stroke="black" stroke-width="0.5"/>
<path d="M322.04 595.32L322.04 583.73"
fill="none" stroke="black" stroke-width="0.5"/>
<path d="M322.04 440.82L322.04 429.23"
fill="none" stroke="black" stroke-width="0.5"/>
<path d="M322.04 286.31L322.04 274.72"
fill="none" stroke="black" stroke-width="0.5"/>
<path d="M322.04 131.81L322.04 120.22"
fill="none" stroke="black" stroke-width="0.5"/>
<path d="M167.54 595.32L167.54 583.73"
fill="none" stroke="black" stroke-width="0.5"/>
<path d="M167.54 440.82L167.54 429.23"
fill="none" stroke="black" stroke-width="0.5"/>
<path d="M167.54 286.31L167.54 274.72"
fill="none" stroke="black" stroke-width="0.5"/>
<path d="M167.54 131.81L167.54 120.22"
fill="none" stroke="black" stroke-width="0.5"/>
<path d="M13.03 595.32L13.03 583.73"
fill="none" stroke="black" stroke-width="0.5"/>
<path d="M13.03 440.82L13.03 429.23"
fill="none" stroke="black" stroke-width="0.5"/>
<path d="M13.03 286.31L13.03 274.72"
fill="none" stroke="black" stroke-width="0.5"/>
<path d="M13.03 131.81L13.03 120.22"
fill="none" stroke="black" stroke-width="0.5"/>
<path d="M65.18 666.78L258.31 666.78"
fill="none" stroke="black" stroke-width="0.5"/>
<path d="M528.69 666.78L721.82 666.78"
fill="none" stroke="black" stroke-width="0.5"/>
<path d="M65.18 357.77L258.31 357.77"
fill="none" stroke="black" stroke-width="0.5"/>
<path d="M528.69 357.77L721.82 357.77"
fill="none" stroke="black" stroke-width="0.5"/>
</svg>
