<?xml version="1.0" encoding="UTF-8"?>
<svg xmlns="http://www.w3.org/2000/svg" width="99.949mm" height="99.949mm" viewBox="0.0 0.0 787.000 787.000" preserveAspectRatio="none" version="1.1">
  <title>Produce by Acme CAD Converter</title>
  <desc>Produce by Acme CAD Converter</desc>
<path d="M1.44 785.56L17.89 785.56"
fill="none" stroke="black" stroke-width="0.5"/>
<path d="M111.11 785.56L127.56 785.56"
fill="none" stroke="black" stroke-width="0.5"/>
<path d="M220.78 785.56L237.23 785.56"
fill="none" stroke="black" stroke-width="0.5"/>
<path d="M330.44 785.56L346.89 785.56"
fill="none" stroke="black" stroke-width="0.5"/>
<path d="M440.11 785.56L456.56 785.56"
fill="none" stroke="black" stroke-width="0.5"/>
<path d="M549.77 785.56L566.22 785.56"
fill="none" stroke="black" stroke-width="0.5"/>
<path d="M659.44 785.56L675.89 785.56"
fill="none" stroke="black" stroke-width="0.5"/>
<path d="M769.11 785.56L785.56 785.56"
fill="none" stroke="black" stroke-width="0.5"/>
<path d="M1.44 346.89L17.89 346.89"
fill="none" stroke="black" stroke-width="0.5"/>
<path d="M111.11 346.89L127.56 346.89"
fill="none" stroke="black" stroke-width="0.5"/>
<path d="M220.78 346.89L237.23 346.89"
fill="none" stroke="black" stroke-width="0.5"/>
<path d="M330.44 346.89L346.89 346.89"
fill="none" stroke="black" stroke-width="0.5"/>
<path d="M440.11 346.89L456.56 346.89"
fill="none" stroke="black" stroke-width="0.5"/>
<path d="M549.77 346.89L566.22 346.89"
fill="none" stroke="black" stroke-width="0.5"/>
<path d="M659.44 346.89L675.89 346.89"
fill="none" stroke="black" stroke-width="0.5"/>
<path d="M769.11 346.89L785.56 346.89"
fill="none" stroke="black" stroke-width="0.5"/>
<path d="M1.44 769.11L17.89 769.11"
fill="none" stroke="black" stroke-width="0.5"/>
<path d="M111.11 769.11L127.56 769.11"
fill="none" stroke="black" stroke-width="0.5"/>
<path d="M220.78 769.11L237.23 769.11"
fill="none" stroke="black" stroke-width="0.5"/>
<path d="M330.44 769.11L346.89 769.11"
fill="none" stroke="black" stroke-width="0.5"/>
<path d="M440.11 769.11L456.56 769.11"
fill="none" stroke="black" stroke-width="0.5"/>
<path d="M549.77 769.11L566.22 769.11"
fill="none" stroke="black" stroke-width="0.5"/>
<path d="M659.44 769.11L675.89 769.11"
fill="none" stroke="black" stroke-width="0.5"/>
<path d="M769.11 769.11L785.56 769.11"
fill="none" stroke="black" stroke-width="0.5"/>
<path d="M1.44 330.44L17.89 330.44"
fill="none" stroke="black" stroke-width="0.5"/>
<path d="M111.11 330.44L127.56 330.44"
fill="none" stroke="black" stroke-width="0.5"/>
<path d="M220.78 330.44L237.23 330.44"
fill="none" stroke="black" stroke-width="0.5"/>
<path d="M330.44 330.44L346.89 330.44"
fill="none" stroke="black" stroke-width="0.5"/>
<path d="M440.11 330.44L456.56 330.44"
fill="none" stroke="black" stroke-width="0.5"/>
<path d="M549.77 330.44L566.22 330.44"
fill="none" stroke="black" stroke-width="0.5"/>
<path d="M659.44 330.44L675.89 330.44"
fill="none" stroke="black" stroke-width="0.5"/>
<path d="M769.11 330.44L785.56 330.44"
fill="none" stroke="black" stroke-width="0.5"/>
<path d="M1.44 675.89L17.89 675.89"
fill="none" stroke="black" stroke-width="0.5"/>
<path d="M220.78 675.89L237.23 675.89"
fill="none" stroke="black" stroke-width="0.5"/>
<path d="M440.11 675.89L456.56 675.89"
fill="none" stroke="black" stroke-width="0.5"/>
<path d="M659.44 675.89L675.89 675.89"
fill="none" stroke="black" stroke-width="0.5"/>
<path d="M1.44 237.23L17.89 237.23"
fill="none" stroke="black" stroke-width="0.5"/>
<path d="M220.78 237.23L237.23 237.23"
fill="none" stroke="black" stroke-width="0.5"/>
<path d="M440.11 237.23L456.56 237.23"
fill="none" stroke="black" stroke-width="0.5"/>
<path d="M659.44 237.23L675.89 237.23"
fill="none" stroke="black" stroke-width="0.5"/>
<path d="M1.44 659.44L17.89 659.44"
fill="none" stroke="black" stroke-width="0.5"/>
<path d="M220.78 659.44L237.23 659.44"
fill="none" stroke="black" stroke-width="0.5"/>
<path d="M440.11 659.44L456.56 659.44"
fill="none" stroke="black" stroke-width="0.5"/>
<path d="M659.44 659.44L675.89 659.44"
fill="none" stroke="black" stroke-width="0.5"/>
<path d="M1.44 220.78L17.89 220.78"
fill="none" stroke="black" stroke-width="0.5"/>
<path d="M220.78 220.78L237.23 220.78"
fill="none" stroke="black" stroke-width="0.5"/>
<path d="M440.11 220.78L456.56 220.78"
fill="none" stroke="black" stroke-width="0.5"/>
<path d="M659.44 220.78L675.89 220.78"
fill="none" stroke="black" stroke-width="0.5"/>
<path d="M1.44 566.22L17.89 566.22"
fill="none" stroke="black" stroke-width="0.5"/>
<path d="M440.11 566.22L456.56 566.22"
fill="none" stroke="black" stroke-width="0.5"/>
<path d="M1.44 127.56L17.89 127.56"
fill="none" stroke="black" stroke-width="0.5"/>
<path d="M440.11 127.56L456.56 127.56"
fill="none" stroke="black" stroke-width="0.5"/>
<path d="M1.44 549.77L17.89 549.77"
fill="none" stroke="black" stroke-width="0.5"/>
<path d="M440.11 549.77L456.56 549.77"
fill="none" stroke="black" stroke-width="0.5"/>
<path d="M1.44 111.11L17.89 111.11"
fill="none" stroke="black" stroke-width="0.5"/>
<path d="M440.11 111.11L456.56 111.11"
fill="none" stroke="black" stroke-width="0.5"/>
<path d="M1.44 456.56L17.89 456.56"
fill="none" stroke="black" stroke-width="0.5"/>
<path d="M220.78 456.56L237.23 456.56"
fill="none" stroke="black" stroke-width="0.5"/>
<path d="M440.11 456.56L456.56 456.56"
fill="none" stroke="black" stroke-width="0.5"/>
<path d="M659.44 456.56L675.89 456.56"
fill="none" stroke="black" stroke-width="0.5"/>
<path d="M1.44 17.89L17.89 17.89"
fill="none" stroke="black" stroke-width="0.5"/>
<path d="M220.78 17.89L237.23 17.89"
fill="none" stroke="black" stroke-width="0.5"/>
<path d="M440.11 17.89L456.56 17.89"
fill="none" stroke="black" stroke-width="0.5"/>
<path d="M659.44 17.89L675.89 17.89"
fill="none" stroke="black" stroke-width="0.5"/>
<path d="M1.44 440.11L17.89 440.11"
fill="none" stroke="black" stroke-width="0.5"/>
<path d="M220.78 440.11L237.23 440.11"
fill="none" stroke="black" stroke-width="0.5"/>
<path d="M440.11 440.11L456.56 440.11"
fill="none" stroke="black" stroke-width="0.5"/>
<path d="M659.44 440.11L675.89 440.11"
fill="none" stroke="black" stroke-width="0.5"/>
<path d="M1.44 1.44L17.89 1.44"
fill="none" stroke="black" stroke-width="0.5"/>
<path d="M220.78 1.44L237.23 1.44"
fill="none" stroke="black" stroke-width="0.5"/>
<path d="M440.11 1.44L456.56 1.44"
fill="none" stroke="black" stroke-width="0.5"/>
<path d="M659.44 1.44L675.89 1.44"
fill="none" stroke="black" stroke-width="0.5"/>
<path d="M440.11 785.56L440.11 769.11"
fill="none" stroke="black" stroke-width="0.5"/>
<path d="M440.11 675.89L440.11 659.44"
fill="none" stroke="black" stroke-width="0.5"/>
<path d="M440.11 566.22L440.11 549.77"
fill="none" stroke="black" stroke-width="0.5"/>
<path d="M440.11 456.56L440.11 440.11"
fill="none" stroke="black" stroke-width="0.5"/>
<path d="M440.11 346.89L440.11 330.44"
fill="none" stroke="black" stroke-width="0.5"/>
<path d="M440.11 237.23L440.11 220.78"
fill="none" stroke="black" stroke-width="0.5"/>
<path d="M440.11 127.56L440.11 111.11"
fill="none" stroke="black" stroke-width="0.5"/>
<path d="M440.11 17.89L440.11 1.44"
fill="none" stroke="black" stroke-width="0.5"/>
<path d="M1.44 785.56L1.44 769.11"
fill="none" stroke="black" stroke-width="0.5"/>
<path d="M1.44 675.89L1.44 659.44"
fill="none" stroke="black" stroke-width="0.5"/>
<path d="M1.44 566.22L1.44 549.77"
fill="none" stroke="black" stroke-width="0.5"/>
<path d="M1.44 456.56L1.44 440.11"
fill="none" stroke="black" stroke-width="0.5"/>
<path d="M1.44 346.89L1.44 330.44"
fill="none" stroke="black" stroke-width="0.5"/>
<path d="M1.44 237.23L1.44 220.78"
fill="none" stroke="black" stroke-width="0.5"/>
<path d="M1.44 127.56L1.44 111.11"
fill="none" stroke="black" stroke-width="0.5"/>
<path d="M1.44 17.89L1.44 1.44"
fill="none" stroke="black" stroke-width="0.5"/>
<path d="M456.56 785.56L456.56 769.11"
fill="none" stroke="black" stroke-width="0.5"/>
<path d="M456.56 675.89L456.56 659.44"
fill="none" stroke="black" stroke-width="0.5"/>
<path d="M456.56 566.22L456.56 549.77"
fill="none" stroke="black" stroke-width="0.5"/>
<path d="M456.56 456.56L456.56 440.11"
fill="none" stroke="black" stroke-width="0.5"/>
<path d="M456.56 346.89L456.56 330.44"
fill="none" stroke="black" stroke-width="0.5"/>
<path d="M456.56 237.23L456.56 220.78"
fill="none" stroke="black" stroke-width="0.5"/>
<path d="M456.56 127.56L456.56 111.11"
fill="none" stroke="black" stroke-width="0.5"/>
<path d="M456.56 17.89L456.56 1.44"
fill="none" stroke="black" stroke-width="0.5"/>
<path d="M17.89 785.56L17.89 769.11"
fill="none" stroke="black" stroke-width="0.5"/>
<path d="M17.89 675.89L17.89 659.44"
fill="none" stroke="black" stroke-width="0.5"/>
<path d="M17.89 566.22L17.89 549.77"
fill="none" stroke="black" stroke-width="0.5"/>
<path d="M17.89 456.56L17.89 440.11"
fill="none" stroke="black" stroke-width="0.5"/>
<path d="M17.89 346.89L17.89 330.44"
fill="none" stroke="black" stroke-width="0.5"/>
<path d="M17.89 237.23L17.89 220.78"
fill="none" stroke="black" stroke-width="0.5"/>
<path d="M17.89 127.56L17.89 111.11"
fill="none" stroke="black" stroke-width="0.5"/>
<path d="M17.89 17.89L17.89 1.44"
fill="none" stroke="black" stroke-width="0.5"/>
<path d="M769.11 785.56L769.11 769.11"
fill="none" stroke="black" stroke-width="0.5"/>
<path d="M769.11 346.89L769.11 330.44"
fill="none" stroke="black" stroke-width="0.5"/>
<path d="M549.77 785.56L549.77 769.11"
fill="none" stroke="black" stroke-width="0.5"/>
<path d="M549.77 346.89L549.77 330.44"
fill="none" stroke="black" stroke-width="0.5"/>
<path d="M330.44 785.56L330.44 769.11"
fill="none" stroke="black" stroke-width="0.5"/>
<path d="M330.44 346.89L330.44 330.44"
fill="none" stroke="black" stroke-width="0.5"/>
<path d="M111.11 785.56L111.11 769.11"
fill="none" stroke="black" stroke-width="0.5"/>
<path d="M111.11 346.89L111.11 330.44"
fill="none" stroke="black" stroke-width="0.5"/>
<path d="M785.56 785.56L785.56 769.11"
fill="none" stroke="black" stroke-width="0.5"/>
<path d="M785.56 346.89L785.56 330.44"
fill="none" stroke="black" stroke-width="0.5"/>
<path d="M566.22 785.56L566.22 769.11"
fill="none" stroke="black" stroke-width="0.5"/>
<path d="M566.22 346.89L566.22 330.44"
fill="none" stroke="black" stroke-width="0.5"/>
<path d="M346.89 785.56L346.89 769.11"
fill="none" stroke="black" stroke-width="0.5"/>
<path d="M346.89 346.89L346.89 330.44"
fill="none" stroke="black" stroke-width="0.5"/>
<path d="M127.56 785.56L127.56 769.11"
fill="none" stroke="black" stroke-width="0.5"/>
<path d="M127.56 346.89L127.56 330.44"
fill="none" stroke="black" stroke-width="0.5"/>
<path d="M659.44 785.56L659.44 769.11"
fill="none" stroke="black" stroke-width="0.5"/>
<path d="M659.44 675.89L659.44 659.44"
fill="none" stroke="black" stroke-width="0.5"/>
<path d="M659.44 456.56L659.44 440.11"
fill="none" stroke="black" stroke-width="0.5"/>
<path d="M659.44 346.89L659.44 330.44"
fill="none" stroke="black" stroke-width="0.5"/>
<path d="M659.44 237.23L659.44 220.78"
fill="none" stroke="black" stroke-width="0.5"/>
<path d="M659.44 17.89L659.44 1.44"
fill="none" stroke="black" stroke-width="0.5"/>
<path d="M220.78 785.56L220.78 769.11"
fill="none" stroke="black" stroke-width="0.5"/>
<path d="M220.78 675.89L220.78 659.44"
fill="none" stroke="black" stroke-width="0.5"/>
<path d="M220.78 456.56L220.78 440.11"
fill="none" stroke="black" stroke-width="0.5"/>
<path d="M220.78 346.89L220.78 330.44"
fill="none" stroke="black" stroke-width="0.5"/>
<path d="M220.78 237.23L220.78 220.78"
fill="none" stroke="black" stroke-width="0.5"/>
<path d="M220.78 17.89L220.78 1.44"
fill="none" stroke="black" stroke-width="0.5"/>
<path d="M675.89 785.56L675.89 769.11"
fill="none" stroke="black" stroke-width="0.5"/>
<path d="M675.89 675.89L675.89 659.44"
fill="none" stroke="black" stroke-width="0.5"/>
<path d="M675.89 456.56L675.89 440.11"
fill="none" stroke="black" stroke-width="0.5"/>
<path d="M675.89 346.89L675.89 330.44"
fill="none" stroke="black" stroke-width="0.5"/>
<path d="M675.89 237.23L675.89 220.78"
fill="none" stroke="black" stroke-width="0.5"/>
<path d="M675.89 17.89L675.89 1.44"
fill="none" stroke="black" stroke-width="0.5"/>
<path d="M237.23 785.56L237.23 769.11"
fill="none" stroke="black" stroke-width="0.5"/>
<path d="M237.23 675.89L237.23 659.44"
fill="none" stroke="black" stroke-width="0.5"/>
<path d="M237.23 456.56L237.23 440.11"
fill="none" stroke="black" stroke-width="0.5"/>
<path d="M237.23 346.89L237.23 330.44"
fill="none" stroke="black" stroke-width="0.5"/>
<path d="M237.23 237.23L237.23 220.78"
fill="none" stroke="black" stroke-width="0.5"/>
<path d="M237.23 17.89L237.23 1.44"
fill="none" stroke="black" stroke-width="0.5"/>
</svg>
