<?xml version="1.0" encoding="UTF-8"?>
<svg xmlns="http://www.w3.org/2000/svg" width="99.949mm" height="99.949mm" viewBox="0.0 0.0 787.000 787.000" preserveAspectRatio="none" version="1.1">
  <title>Produce by Acme CAD Converter</title>
  <desc>Produce by Acme CAD Converter</desc>
<path d="M1.44 631.05L13.03 631.05"
fill="none" stroke="black" stroke-width="0.5"/>
<path d="M155.95 631.05L167.54 631.05"
fill="none" stroke="black" stroke-width="0.5"/>
<path d="M310.45 631.05L322.04 631.05"
fill="none" stroke="black" stroke-width="0.5"/>
<path d="M464.96 631.05L476.55 631.05"
fill="none" stroke="black" stroke-width="0.5"/>
<path d="M619.46 631.05L631.05 631.05"
fill="none" stroke="black" stroke-width="0.5"/>
<path d="M773.97 631.05L785.56 631.05"
fill="none" stroke="black" stroke-width="0.5"/>
<path d="M1.44 476.55L13.03 476.55"
fill="none" stroke="black" stroke-width="0.5"/>
<path d="M155.95 476.55L167.54 476.55"
fill="none" stroke="black" stroke-width="0.5"/>
<path d="M310.45 476.55L322.04 476.55"
fill="none" stroke="black" stroke-width="0.5"/>
<path d="M464.96 476.55L476.55 476.55"
fill="none" stroke="black" stroke-width="0.5"/>
<path d="M619.46 476.55L631.05 476.55"
fill="none" stroke="black" stroke-width="0.5"/>
<path d="M773.97 476.55L785.56 476.55"
fill="none" stroke="black" stroke-width="0.5"/>
<path d="M1.44 322.04L13.03 322.04"
fill="none" stroke="black" stroke-width="0.5"/>
<path d="M155.95 322.04L167.54 322.04"
fill="none" stroke="black" stroke-width="0.5"/>
<path d="M310.45 322.04L322.04 322.04"
fill="none" stroke="black" stroke-width="0.5"/>
<path d="M464.96 322.04L476.55 322.04"
fill="none" stroke="black" stroke-width="0.5"/>
<path d="M619.46 322.04L631.05 322.04"
fill="none" stroke="black" stroke-width="0.5"/>
<path d="M773.97 322.04L785.56 322.04"
fill="none" stroke="black" stroke-width="0.5"/>
<path d="M1.44 167.54L13.03 167.54"
fill="none" stroke="black" stroke-width="0.5"/>
<path d="M155.95 167.54L167.54 167.54"
fill="none" stroke="black" stroke-width="0.5"/>
<path d="M310.45 167.54L322.04 167.54"
fill="none" stroke="black" stroke-width="0.5"/>
<path d="M464.96 167.54L476.55 167.54"
fill="none" stroke="black" stroke-width="0.5"/>
<path d="M619.46 167.54L631.05 167.54"
fill="none" stroke="black" stroke-width="0.5"/>
<path d="M773.97 167.54L785.56 167.54"
fill="none" stroke="black" stroke-width="0.5"/>
<path d="M1.44 619.46L13.03 619.46"
fill="none" stroke="black" stroke-width="0.5"/>
<path d="M155.95 619.46L167.54 619.46"
fill="none" stroke="black" stroke-width="0.5"/>
<path d="M310.45 619.46L322.04 619.46"
fill="none" stroke="black" stroke-width="0.5"/>
<path d="M464.96 619.46L476.55 619.46"
fill="none" stroke="black" stroke-width="0.5"/>
<path d="M619.46 619.46L631.05 619.46"
fill="none" stroke="black" stroke-width="0.5"/>
<path d="M773.97 619.46L785.56 619.46"
fill="none" stroke="black" stroke-width="0.5"/>
<path d="M1.44 464.96L13.03 464.96"
fill="none" stroke="black" stroke-width="0.5"/>
<path d="M155.95 464.96L167.54 464.96"
fill="none" stroke="black" stroke-width="0.5"/>
<path d="M310.45 464.96L322.04 464.96"
fill="none" stroke="black" stroke-width="0.5"/>
<path d="M464.96 464.96L476.55 464.96"
fill="none" stroke="black" stroke-width="0.5"/>
<path d="M619.46 464.96L631.05 464.96"
fill="none" stroke="black" stroke-width="0.5"/>
<path d="M773.97 464.96L785.56 464.96"
fill="none" stroke="black" stroke-width="0.5"/>
<path d="M1.44 310.45L13.03 310.45"
fill="none" stroke="black" stroke-width="0.5"/>
<path d="M155.95 310.45L167.54 310.45"
fill="none" stroke="black" stroke-width="0.5"/>
<path d="M310.45 310.45L322.04 310.45"
fill="none" stroke="black" stroke-width="0.5"/>
<path d="M464.96 310.45L476.55 310.45"
fill="none" stroke="black" stroke-width="0.5"/>
<path d="M619.46 310.45L631.05 310.45"
fill="none" stroke="black" stroke-width="0.5"/>
<path d="M773.97 310.45L785.56 310.45"
fill="none" stroke="black" stroke-width="0.5"/>
<path d="M1.44 155.95L13.03 155.95"
fill="none" stroke="black" stroke-width="0.5"/>
<path d="M155.95 155.95L167.54 155.95"
fill="none" stroke="black" stroke-width="0.5"/>
<path d="M310.45 155.95L322.04 155.95"
fill="none" stroke="black" stroke-width="0.5"/>
<path d="M464.96 155.95L476.55 155.95"
fill="none" stroke="black" stroke-width="0.5"/>
<path d="M619.46 155.95L631.05 155.95"
fill="none" stroke="black" stroke-width="0.5"/>
<path d="M773.97 155.95L785.56 155.95"
fill="none" stroke="black" stroke-width="0.5"/>
<path d="M773.97 631.05L773.97 619.46"
fill="none" stroke="black" stroke-width="0.5"/>
<path d="M773.97 476.55L773.97 464.96"
fill="none" stroke="black" stroke-width="0.5"/>
<path d="M773.97 322.04L773.97 310.45"
fill="none" stroke="black" stroke-width="0.5"/>
<path d="M773.97 167.54L773.97 155.95"
fill="none" stroke="black" stroke-width="0.5"/>
<path d="M619.46 631.05L619.46 619.46"
fill="none" stroke="black" stroke-width="0.5"/>
<path d="M619.46 476.55L619.46 464.96"
fill="none" stroke="black" stroke-width="0.5"/>
<path d="M619.46 322.04L619.46 310.45"
fill="none" stroke="black" stroke-width="0.5"/>
<path d="M619.46 167.54L619.46 155.95"
fill="none" stroke="black" stroke-width="0.5"/>
<path d="M464.96 631.05L464.96 619.46"
fill="none" stroke="black" stroke-width="0.5"/>
<path d="M464.96 476.55L464.96 464.96"
fill="none" stroke="black" stroke-width="0.5"/>
<path d="M464.96 322.04L464.96 310.45"
fill="none" stroke="black" stroke-width="0.5"/>
<path d="M464.96 167.54L464.96 155.95"
fill="none" stroke="black" stroke-width="0.5"/>
<path d="M310.45 631.05L310.45 619.46"
fill="none" stroke="black" stroke-width="0.5"/>
<path d="M310.45 476.55L310.45 464.96"
fill="none" stroke="black" stroke-width="0.5"/>
<path d="M310.45 322.04L310.45 310.45"
fill="none" stroke="black" stroke-width="0.5"/>
<path d="M310.45 167.54L310.45 155.95"
fill="none" stroke="black" stroke-width="0.5"/>
<path d="M155.95 631.05L155.95 619.46"
fill="none" stroke="black" stroke-width="0.5"/>
<path d="M155.95 476.55L155.95 464.96"
fill="none" stroke="black" stroke-width="0.5"/>
<path d="M155.95 322.04L155.95 310.45"
fill="none" stroke="black" stroke-width="0.5"/>
<path d="M155.95 167.54L155.95 155.95"
fill="none" stroke="black" stroke-width="0.5"/>
<path d="M1.44 631.05L1.44 619.46"
fill="none" stroke="black" stroke-width="0.5"/>
<path d="M1.44 476.55L1.44 464.96"
fill="none" stroke="black" stroke-width="0.5"/>
<path d="M1.44 322.04L1.44 310.45"
fill="none" stroke="black" stroke-width="0.5"/>
<path d="M1.44 167.54L1.44 155.95"
fill="none" stroke="black" stroke-width="0.5"/>
<path d="M785.56 631.05L785.56 619.46"
fill="none" stroke="black" stroke-width="0.5"/>
<path d="M785.56 476.55L785.56 464.96"
fill="none" stroke="black" stroke-width="0.5"/>
<path d="M785.56 322.04L785.56 310.45"
fill="none" stroke="black" stroke-width="0.5"/>
<path d="M785.56 167.54L785.56 155.95"
fill="none" stroke="black" stroke-width="0.5"/>
<path d="M631.05 631.05L631.05 619.46"
fill="none" stroke="black" stroke-width="0.5"/>
<path d="M631.05 476.55L631.05 464.96"
fill="none" stroke="black" stroke-width="0.5"/>
<path d="M631.05 322.04L631.05 310.45"
fill="none" stroke="black" stroke-width="0.5"/>
<path d="M631.05 167.54L631.05 155.95"
fill="none" stroke="black" stroke-width="0.5"/>
<path d="M476.55 631.05L476.55 619.46"
fill="none" stroke="black" stroke-width="0.5"/>
<path d="M476.55 476.55L476.55 464.96"
fill="none" stroke="black" stroke-width="0.5"/>
<path d="M476.55 322.04L476.55 310.45"
fill="none" stroke="black" stroke-width="0.5"/>
<path d="M476.55 167.54L476.55 155.95"
fill="none" stroke="black" stroke-width="0.5"/>
<path d="M322.04 631.05L322.04 619.46"
fill="none" stroke="black" stroke-width="0.5"/>
<path d="M322.04 476.55L322.04 464.96"
fill="none" stroke="black" stroke-width="0.5"/>
<path d="M322.04 322.04L322.04 310.45"
fill="none" stroke="black" stroke-width="0.5"/>
<path d="M322.04 167.54L322.04 155.95"
fill="none" stroke="black" stroke-width="0.5"/>
<path d="M167.54 631.05L167.54 619.46"
fill="none" stroke="black" stroke-width="0.5"/>
<path d="M167.54 476.55L167.54 464.96"
fill="none" stroke="black" stroke-width="0.5"/>
<path d="M167.54 322.04L167.54 310.45"
fill="none" stroke="black" stroke-width="0.5"/>
<path d="M167.54 167.54L167.54 155.95"
fill="none" stroke="black" stroke-width="0.5"/>
<path d="M13.03 631.05L13.03 619.46"
fill="none" stroke="black" stroke-width="0.5"/>
<path d="M13.03 476.55L13.03 464.96"
fill="none" stroke="black" stroke-width="0.5"/>
<path d="M13.03 322.04L13.03 310.45"
fill="none" stroke="black" stroke-width="0.5"/>
<path d="M13.03 167.54L13.03 155.95"
fill="none" stroke="black" stroke-width="0.5"/>
<path d="M69.49 605.94L99.48 605.94"
fill="none" stroke="black" stroke-width="0.5"/>
<path d="M533.01 605.94L563 605.94"
fill="none" stroke="black" stroke-width="0.5"/>
<path d="M69.49 296.93L99.48 296.93"
fill="none" stroke="black" stroke-width="0.5"/>
<path d="M533.01 296.93L563 296.93"
fill="none" stroke="black" stroke-width="0.5"/>
<path d="M69.49 490.07L99.48 490.07"
fill="none" stroke="black" stroke-width="0.5"/>
<path d="M533.01 490.07L563 490.07"
fill="none" stroke="black" stroke-width="0.5"/>
<path d="M69.49 181.06L99.48 181.06"
fill="none" stroke="black" stroke-width="0.5"/>
<path d="M533.01 181.06L563 181.06"
fill="none" stroke="black" stroke-width="0.5"/>
<path d="M490.07 563L490.07 533.01"
fill="none" stroke="black" stroke-width="0.5"/>
<path d="M490.07 253.99L490.07 224"
fill="none" stroke="black" stroke-width="0.5"/>
<path d="M26.55 563L26.55 533.01"
fill="none" stroke="black" stroke-width="0.5"/>
<path d="M26.55 253.99L26.55 224"
fill="none" stroke="black" stroke-width="0.5"/>
<path d="M605.94 563L605.94 533.01"
fill="none" stroke="black" stroke-width="0.5"/>
<path d="M605.94 253.99L605.94 224"
fill="none" stroke="black" stroke-width="0.5"/>
<path d="M142.43 563L142.43 533.01"
fill="none" stroke="black" stroke-width="0.5"/>
<path d="M142.43 253.99L142.43 224"
fill="none" stroke="black" stroke-width="0.5"/>
<path d="M563 605.94L590.33 590.33"
fill="none" stroke="black" stroke-width="0.5"/>
<path d="M99.48 605.94L126.82 590.33"
fill="none" stroke="black" stroke-width="0.5"/>
<path d="M563 296.93L590.33 281.32"
fill="none" stroke="black" stroke-width="0.5"/>
<path d="M99.48 296.93L126.82 281.32"
fill="none" stroke="black" stroke-width="0.5"/>
<path d="M142.43 253.99L126.82 281.32"
fill="none" stroke="black" stroke-width="0.5"/>
<path d="M142.43 563L126.82 590.33"
fill="none" stroke="black" stroke-width="0.5"/>
<path d="M605.94 253.99L590.33 281.32"
fill="none" stroke="black" stroke-width="0.5"/>
<path d="M605.94 563L590.33 590.33"
fill="none" stroke="black" stroke-width="0.5"/>
<path d="M605.94 224L590.33 196.67"
fill="none" stroke="black" stroke-width="0.5"/>
<path d="M605.94 533.01L590.33 505.68"
fill="none" stroke="black" stroke-width="0.5"/>
<path d="M142.43 224L126.82 196.67"
fill="none" stroke="black" stroke-width="0.5"/>
<path d="M142.43 533.01L126.82 505.68"
fill="none" stroke="black" stroke-width="0.5"/>
<path d="M99.48 490.07L126.82 505.68"
fill="none" stroke="black" stroke-width="0.5"/>
<path d="M563 490.07L590.33 505.68"
fill="none" stroke="black" stroke-width="0.5"/>
<path d="M99.48 181.06L126.82 196.67"
fill="none" stroke="black" stroke-width="0.5"/>
<path d="M563 181.06L590.33 196.67"
fill="none" stroke="black" stroke-width="0.5"/>
<path d="M69.49 181.06L42.16 196.67"
fill="none" stroke="black" stroke-width="0.5"/>
<path d="M533.01 181.06L505.68 196.67"
fill="none" stroke="black" stroke-width="0.5"/>
<path d="M69.49 490.07L42.16 505.68"
fill="none" stroke="black" stroke-width="0.5"/>
<path d="M533.01 490.07L505.68 505.68"
fill="none" stroke="black" stroke-width="0.5"/>
<path d="M490.07 533.01L505.68 505.68"
fill="none" stroke="black" stroke-width="0.5"/>
<path d="M490.07 224L505.68 196.67"
fill="none" stroke="black" stroke-width="0.5"/>
<path d="M26.55 533.01L42.16 505.68"
fill="none" stroke="black" stroke-width="0.5"/>
<path d="M26.55 224L42.16 196.67"
fill="none" stroke="black" stroke-width="0.5"/>
<path d="M26.55 563L42.16 590.33"
fill="none" stroke="black" stroke-width="0.5"/>
<path d="M26.55 253.99L42.16 281.32"
fill="none" stroke="black" stroke-width="0.5"/>
<path d="M490.07 563L505.68 590.33"
fill="none" stroke="black" stroke-width="0.5"/>
<path d="M490.07 253.99L505.68 281.32"
fill="none" stroke="black" stroke-width="0.5"/>
<path d="M533.01 296.93L505.68 281.32"
fill="none" stroke="black" stroke-width="0.5"/>
<path d="M69.49 296.93L42.16 281.32"
fill="none" stroke="black" stroke-width="0.5"/>
<path d="M533.01 605.94L505.68 590.33"
fill="none" stroke="black" stroke-width="0.5"/>
<path d="M69.49 605.94L42.16 590.33"
fill="none" stroke="black" stroke-width="0.5"/>
</svg>
