<?xml version="1.0" encoding="UTF-8"?>
<svg xmlns="http://www.w3.org/2000/svg" width="99.949mm" height="99.949mm" viewBox="0.0 0.0 787.000 787.000" preserveAspectRatio="none" version="1.1">
  <title>Produce by Acme CAD Converter</title>
  <desc>Produce by Acme CAD Converter</desc>
<path d="M1.44 609.75L11.99 609.75"
fill="none" stroke="black" stroke-width="0.5"/>
<path d="M142.09 609.75L152.64 609.75"
fill="none" stroke="black" stroke-width="0.5"/>
<path d="M282.74 609.75L293.29 609.75"
fill="none" stroke="black" stroke-width="0.5"/>
<path d="M423.39 609.75L433.94 609.75"
fill="none" stroke="black" stroke-width="0.5"/>
<path d="M564.04 609.75L574.58 609.75"
fill="none" stroke="black" stroke-width="0.5"/>
<path d="M704.68 609.75L715.23 609.75"
fill="none" stroke="black" stroke-width="0.5"/>
<path d="M1.44 469.1L11.99 469.1"
fill="none" stroke="black" stroke-width="0.5"/>
<path d="M142.09 469.1L152.64 469.1"
fill="none" stroke="black" stroke-width="0.5"/>
<path d="M282.74 469.1L293.29 469.1"
fill="none" stroke="black" stroke-width="0.5"/>
<path d="M423.39 469.1L433.94 469.1"
fill="none" stroke="black" stroke-width="0.5"/>
<path d="M564.04 469.1L574.58 469.1"
fill="none" stroke="black" stroke-width="0.5"/>
<path d="M704.68 469.1L715.23 469.1"
fill="none" stroke="black" stroke-width="0.5"/>
<path d="M1.44 328.45L11.99 328.45"
fill="none" stroke="black" stroke-width="0.5"/>
<path d="M142.09 328.45L152.64 328.45"
fill="none" stroke="black" stroke-width="0.5"/>
<path d="M282.74 328.45L293.29 328.45"
fill="none" stroke="black" stroke-width="0.5"/>
<path d="M423.39 328.45L433.94 328.45"
fill="none" stroke="black" stroke-width="0.5"/>
<path d="M564.04 328.45L574.58 328.45"
fill="none" stroke="black" stroke-width="0.5"/>
<path d="M704.68 328.45L715.23 328.45"
fill="none" stroke="black" stroke-width="0.5"/>
<path d="M1.44 187.8L11.99 187.8"
fill="none" stroke="black" stroke-width="0.5"/>
<path d="M142.09 187.8L152.64 187.8"
fill="none" stroke="black" stroke-width="0.5"/>
<path d="M282.74 187.8L293.29 187.8"
fill="none" stroke="black" stroke-width="0.5"/>
<path d="M423.39 187.8L433.94 187.8"
fill="none" stroke="black" stroke-width="0.5"/>
<path d="M564.04 187.8L574.58 187.8"
fill="none" stroke="black" stroke-width="0.5"/>
<path d="M704.68 187.8L715.23 187.8"
fill="none" stroke="black" stroke-width="0.5"/>
<path d="M1.44 599.2L11.99 599.2"
fill="none" stroke="black" stroke-width="0.5"/>
<path d="M142.09 599.2L152.64 599.2"
fill="none" stroke="black" stroke-width="0.5"/>
<path d="M282.74 599.2L293.29 599.2"
fill="none" stroke="black" stroke-width="0.5"/>
<path d="M423.39 599.2L433.94 599.2"
fill="none" stroke="black" stroke-width="0.5"/>
<path d="M564.04 599.2L574.58 599.2"
fill="none" stroke="black" stroke-width="0.5"/>
<path d="M704.68 599.2L715.23 599.2"
fill="none" stroke="black" stroke-width="0.5"/>
<path d="M1.44 458.55L11.99 458.55"
fill="none" stroke="black" stroke-width="0.5"/>
<path d="M142.09 458.55L152.64 458.55"
fill="none" stroke="black" stroke-width="0.5"/>
<path d="M282.74 458.55L293.29 458.55"
fill="none" stroke="black" stroke-width="0.5"/>
<path d="M423.39 458.55L433.94 458.55"
fill="none" stroke="black" stroke-width="0.5"/>
<path d="M564.04 458.55L574.58 458.55"
fill="none" stroke="black" stroke-width="0.5"/>
<path d="M704.68 458.55L715.23 458.55"
fill="none" stroke="black" stroke-width="0.5"/>
<path d="M1.44 317.9L11.99 317.9"
fill="none" stroke="black" stroke-width="0.5"/>
<path d="M142.09 317.9L152.64 317.9"
fill="none" stroke="black" stroke-width="0.5"/>
<path d="M282.74 317.9L293.29 317.9"
fill="none" stroke="black" stroke-width="0.5"/>
<path d="M423.39 317.9L433.94 317.9"
fill="none" stroke="black" stroke-width="0.5"/>
<path d="M564.04 317.9L574.58 317.9"
fill="none" stroke="black" stroke-width="0.5"/>
<path d="M704.68 317.9L715.23 317.9"
fill="none" stroke="black" stroke-width="0.5"/>
<path d="M1.44 177.25L11.99 177.25"
fill="none" stroke="black" stroke-width="0.5"/>
<path d="M142.09 177.25L152.64 177.25"
fill="none" stroke="black" stroke-width="0.5"/>
<path d="M282.74 177.25L293.29 177.25"
fill="none" stroke="black" stroke-width="0.5"/>
<path d="M423.39 177.25L433.94 177.25"
fill="none" stroke="black" stroke-width="0.5"/>
<path d="M564.04 177.25L574.58 177.25"
fill="none" stroke="black" stroke-width="0.5"/>
<path d="M704.68 177.25L715.23 177.25"
fill="none" stroke="black" stroke-width="0.5"/>
<path d="M704.68 609.75L704.68 599.2"
fill="none" stroke="black" stroke-width="0.5"/>
<path d="M704.68 469.1L704.68 458.55"
fill="none" stroke="black" stroke-width="0.5"/>
<path d="M704.68 328.45L704.68 317.9"
fill="none" stroke="black" stroke-width="0.5"/>
<path d="M704.68 187.8L704.68 177.25"
fill="none" stroke="black" stroke-width="0.5"/>
<path d="M564.04 609.75L564.04 599.2"
fill="none" stroke="black" stroke-width="0.5"/>
<path d="M564.04 469.1L564.04 458.55"
fill="none" stroke="black" stroke-width="0.5"/>
<path d="M564.04 328.45L564.04 317.9"
fill="none" stroke="black" stroke-width="0.5"/>
<path d="M564.04 187.8L564.04 177.25"
fill="none" stroke="black" stroke-width="0.5"/>
<path d="M423.39 609.75L423.39 599.2"
fill="none" stroke="black" stroke-width="0.5"/>
<path d="M423.39 469.1L423.39 458.55"
fill="none" stroke="black" stroke-width="0.5"/>
<path d="M423.39 328.45L423.39 317.9"
fill="none" stroke="black" stroke-width="0.5"/>
<path d="M423.39 187.8L423.39 177.25"
fill="none" stroke="black" stroke-width="0.5"/>
<path d="M282.74 609.75L282.74 599.2"
fill="none" stroke="black" stroke-width="0.5"/>
<path d="M282.74 469.1L282.74 458.55"
fill="none" stroke="black" stroke-width="0.5"/>
<path d="M282.74 328.45L282.74 317.9"
fill="none" stroke="black" stroke-width="0.5"/>
<path d="M282.74 187.8L282.74 177.25"
fill="none" stroke="black" stroke-width="0.5"/>
<path d="M142.09 609.75L142.09 599.2"
fill="none" stroke="black" stroke-width="0.5"/>
<path d="M142.09 469.1L142.09 458.55"
fill="none" stroke="black" stroke-width="0.5"/>
<path d="M142.09 328.45L142.09 317.9"
fill="none" stroke="black" stroke-width="0.5"/>
<path d="M142.09 187.8L142.09 177.25"
fill="none" stroke="black" stroke-width="0.5"/>
<path d="M1.44 609.75L1.44 599.2"
fill="none" stroke="black" stroke-width="0.5"/>
<path d="M1.44 469.1L1.44 458.55"
fill="none" stroke="black" stroke-width="0.5"/>
<path d="M1.44 328.45L1.44 317.9"
fill="none" stroke="black" stroke-width="0.5"/>
<path d="M1.44 187.8L1.44 177.25"
fill="none" stroke="black" stroke-width="0.5"/>
<path d="M715.23 609.75L715.23 599.2"
fill="none" stroke="black" stroke-width="0.5"/>
<path d="M715.23 469.1L715.23 458.55"
fill="none" stroke="black" stroke-width="0.5"/>
<path d="M715.23 328.45L715.23 317.9"
fill="none" stroke="black" stroke-width="0.5"/>
<path d="M715.23 187.8L715.23 177.25"
fill="none" stroke="black" stroke-width="0.5"/>
<path d="M574.58 609.75L574.58 599.2"
fill="none" stroke="black" stroke-width="0.5"/>
<path d="M574.58 469.1L574.58 458.55"
fill="none" stroke="black" stroke-width="0.5"/>
<path d="M574.58 328.45L574.58 317.9"
fill="none" stroke="black" stroke-width="0.5"/>
<path d="M574.58 187.8L574.58 177.25"
fill="none" stroke="black" stroke-width="0.5"/>
<path d="M433.94 609.75L433.94 599.2"
fill="none" stroke="black" stroke-width="0.5"/>
<path d="M433.94 469.1L433.94 458.55"
fill="none" stroke="black" stroke-width="0.5"/>
<path d="M433.94 328.45L433.94 317.9"
fill="none" stroke="black" stroke-width="0.5"/>
<path d="M433.94 187.8L433.94 177.25"
fill="none" stroke="black" stroke-width="0.5"/>
<path d="M293.29 609.75L293.29 599.2"
fill="none" stroke="black" stroke-width="0.5"/>
<path d="M293.29 469.1L293.29 458.55"
fill="none" stroke="black" stroke-width="0.5"/>
<path d="M293.29 328.45L293.29 317.9"
fill="none" stroke="black" stroke-width="0.5"/>
<path d="M293.29 187.8L293.29 177.25"
fill="none" stroke="black" stroke-width="0.5"/>
<path d="M152.64 609.75L152.64 599.2"
fill="none" stroke="black" stroke-width="0.5"/>
<path d="M152.64 469.1L152.64 458.55"
fill="none" stroke="black" stroke-width="0.5"/>
<path d="M152.64 328.45L152.64 317.9"
fill="none" stroke="black" stroke-width="0.5"/>
<path d="M152.64 187.8L152.64 177.25"
fill="none" stroke="black" stroke-width="0.5"/>
<path d="M11.99 609.75L11.99 599.2"
fill="none" stroke="black" stroke-width="0.5"/>
<path d="M11.99 469.1L11.99 458.55"
fill="none" stroke="black" stroke-width="0.5"/>
<path d="M11.99 328.45L11.99 317.9"
fill="none" stroke="black" stroke-width="0.5"/>
<path d="M11.99 187.8L11.99 177.25"
fill="none" stroke="black" stroke-width="0.5"/>
<path d="M85.83 534.15L208.9 534.15"
fill="none" stroke="black" stroke-width="0.5"/>
<path d="M507.78 534.15L630.84 534.15"
fill="none" stroke="black" stroke-width="0.5"/>
<path d="M85.83 252.85L208.9 252.85"
fill="none" stroke="black" stroke-width="0.5"/>
<path d="M507.78 252.85L630.84 252.85"
fill="none" stroke="black" stroke-width="0.5"/>
<path d="M353.06 539.42L363.61 539.42"
fill="none" stroke="black" stroke-width="0.5"/>
<path d="M775.01 539.42L785.56 539.42"
fill="none" stroke="black" stroke-width="0.5"/>
<path d="M353.06 258.13L363.61 258.13"
fill="none" stroke="black" stroke-width="0.5"/>
<path d="M775.01 258.13L785.56 258.13"
fill="none" stroke="black" stroke-width="0.5"/>
<path d="M353.06 528.87L363.61 528.87"
fill="none" stroke="black" stroke-width="0.5"/>
<path d="M775.01 528.87L785.56 528.87"
fill="none" stroke="black" stroke-width="0.5"/>
<path d="M353.06 247.58L363.61 247.58"
fill="none" stroke="black" stroke-width="0.5"/>
<path d="M775.01 247.58L785.56 247.58"
fill="none" stroke="black" stroke-width="0.5"/>
<path d="M775.01 539.42L775.01 528.87"
fill="none" stroke="black" stroke-width="0.5"/>
<path d="M775.01 258.13L775.01 247.58"
fill="none" stroke="black" stroke-width="0.5"/>
<path d="M353.06 539.42L353.06 528.87"
fill="none" stroke="black" stroke-width="0.5"/>
<path d="M353.06 258.13L353.06 247.58"
fill="none" stroke="black" stroke-width="0.5"/>
<path d="M785.56 539.42L785.56 528.87"
fill="none" stroke="black" stroke-width="0.5"/>
<path d="M785.56 258.13L785.56 247.58"
fill="none" stroke="black" stroke-width="0.5"/>
<path d="M363.61 539.42L363.61 528.87"
fill="none" stroke="black" stroke-width="0.5"/>
<path d="M363.61 258.13L363.61 247.58"
fill="none" stroke="black" stroke-width="0.5"/>
</svg>
