<?xml version="1.0" encoding="UTF-8"?>
<svg xmlns="http://www.w3.org/2000/svg" width="99.949mm" height="99.949mm" viewBox="0.0 0.0 787.000 787.000" preserveAspectRatio="none" version="1.1">
  <title>Produce by Acme CAD Converter</title>
  <desc>Produce by Acme CAD Converter</desc>
<path d="M1.44 785.56L38.78 785.56"
fill="none" stroke="black" stroke-width="0.5"/>
<path d="M250.37 785.56L287.71 785.56"
fill="none" stroke="black" stroke-width="0.5"/>
<path d="M499.29 785.56L536.63 785.56"
fill="none" stroke="black" stroke-width="0.5"/>
<path d="M748.22 785.56L785.56 785.56"
fill="none" stroke="black" stroke-width="0.5"/>
<path d="M1.44 287.71L38.78 287.71"
fill="none" stroke="black" stroke-width="0.5"/>
<path d="M250.37 287.71L287.71 287.71"
fill="none" stroke="black" stroke-width="0.5"/>
<path d="M499.29 287.71L536.63 287.71"
fill="none" stroke="black" stroke-width="0.5"/>
<path d="M748.22 287.71L785.56 287.71"
fill="none" stroke="black" stroke-width="0.5"/>
<path d="M1.44 748.22L38.78 748.22"
fill="none" stroke="black" stroke-width="0.5"/>
<path d="M250.37 748.22L287.71 748.22"
fill="none" stroke="black" stroke-width="0.5"/>
<path d="M499.29 748.22L536.63 748.22"
fill="none" stroke="black" stroke-width="0.5"/>
<path d="M748.22 748.22L785.56 748.22"
fill="none" stroke="black" stroke-width="0.5"/>
<path d="M1.44 250.37L38.78 250.37"
fill="none" stroke="black" stroke-width="0.5"/>
<path d="M250.37 250.37L287.71 250.37"
fill="none" stroke="black" stroke-width="0.5"/>
<path d="M499.29 250.37L536.63 250.37"
fill="none" stroke="black" stroke-width="0.5"/>
<path d="M748.22 250.37L785.56 250.37"
fill="none" stroke="black" stroke-width="0.5"/>
<path d="M1.44 536.63L38.78 536.63"
fill="none" stroke="black" stroke-width="0.5"/>
<path d="M499.29 536.63L536.63 536.63"
fill="none" stroke="black" stroke-width="0.5"/>
<path d="M1.44 38.78L38.78 38.78"
fill="none" stroke="black" stroke-width="0.5"/>
<path d="M499.29 38.78L536.63 38.78"
fill="none" stroke="black" stroke-width="0.5"/>
<path d="M1.44 499.29L38.78 499.29"
fill="none" stroke="black" stroke-width="0.5"/>
<path d="M499.29 499.29L536.63 499.29"
fill="none" stroke="black" stroke-width="0.5"/>
<path d="M1.44 1.44L38.78 1.44"
fill="none" stroke="black" stroke-width="0.5"/>
<path d="M499.29 1.44L536.63 1.44"
fill="none" stroke="black" stroke-width="0.5"/>
<path d="M499.29 785.56L499.29 748.22"
fill="none" stroke="black" stroke-width="0.5"/>
<path d="M499.29 536.63L499.29 499.29"
fill="none" stroke="black" stroke-width="0.5"/>
<path d="M499.29 287.71L499.29 250.37"
fill="none" stroke="black" stroke-width="0.5"/>
<path d="M499.29 38.78L499.29 1.44"
fill="none" stroke="black" stroke-width="0.5"/>
<path d="M1.44 785.56L1.44 748.22"
fill="none" stroke="black" stroke-width="0.5"/>
<path d="M1.44 536.63L1.44 499.29"
fill="none" stroke="black" stroke-width="0.5"/>
<path d="M1.44 287.71L1.44 250.37"
fill="none" stroke="black" stroke-width="0.5"/>
<path d="M1.44 38.78L1.44 1.44"
fill="none" stroke="black" stroke-width="0.5"/>
<path d="M536.63 785.56L536.63 748.22"
fill="none" stroke="black" stroke-width="0.5"/>
<path d="M536.63 536.63L536.63 499.29"
fill="none" stroke="black" stroke-width="0.5"/>
<path d="M536.63 287.71L536.63 250.37"
fill="none" stroke="black" stroke-width="0.5"/>
<path d="M536.63 38.78L536.63 1.44"
fill="none" stroke="black" stroke-width="0.5"/>
<path d="M38.78 785.56L38.78 748.22"
fill="none" stroke="black" stroke-width="0.5"/>
<path d="M38.78 536.63L38.78 499.29"
fill="none" stroke="black" stroke-width="0.5"/>
<path d="M38.78 287.71L38.78 250.37"
fill="none" stroke="black" stroke-width="0.5"/>
<path d="M38.78 38.78L38.78 1.44"
fill="none" stroke="black" stroke-width="0.5"/>
<path d="M748.22 785.56L748.22 748.22"
fill="none" stroke="black" stroke-width="0.5"/>
<path d="M748.22 287.71L748.22 250.37"
fill="none" stroke="black" stroke-width="0.5"/>
<path d="M250.37 785.56L250.37 748.22"
fill="none" stroke="black" stroke-width="0.5"/>
<path d="M250.37 287.71L250.37 250.37"
fill="none" stroke="black" stroke-width="0.5"/>
<path d="M785.56 785.56L785.56 748.22"
fill="none" stroke="black" stroke-width="0.5"/>
<path d="M785.56 287.71L785.56 250.37"
fill="none" stroke="black" stroke-width="0.5"/>
<path d="M287.71 785.56L287.71 748.22"
fill="none" stroke="black" stroke-width="0.5"/>
<path d="M287.71 287.71L287.71 250.37"
fill="none" stroke="black" stroke-width="0.5"/>
</svg>
