<?xml version="1.0" encoding="UTF-8"?>
<svg xmlns="http://www.w3.org/2000/svg" width="99.949mm" height="99.949mm" viewBox="0.0 0.0 787.000 787.000" preserveAspectRatio="none" version="1.1">
  <title>Produce by Acme CAD Converter</title>
  <desc>Produce by Acme CAD Converter</desc>
<path d="M1.44 785.56L29.78 785.56"
fill="none" stroke="black" stroke-width="0.5"/>
<path d="M757.22 785.56L785.56 785.56"
fill="none" stroke="black" stroke-width="0.5"/>
<path d="M1.44 29.78L29.78 29.78"
fill="none" stroke="black" stroke-width="0.5"/>
<path d="M757.22 29.78L785.56 29.78"
fill="none" stroke="black" stroke-width="0.5"/>
<path d="M1.44 757.22L29.78 757.22"
fill="none" stroke="black" stroke-width="0.5"/>
<path d="M757.22 757.22L785.56 757.22"
fill="none" stroke="black" stroke-width="0.5"/>
<path d="M1.44 1.44L29.78 1.44"
fill="none" stroke="black" stroke-width="0.5"/>
<path d="M757.22 1.44L785.56 1.44"
fill="none" stroke="black" stroke-width="0.5"/>
<path d="M757.22 785.56L757.22 757.22"
fill="none" stroke="black" stroke-width="0.5"/>
<path d="M757.22 29.78L757.22 1.44"
fill="none" stroke="black" stroke-width="0.5"/>
<path d="M1.44 785.56L1.44 757.22"
fill="none" stroke="black" stroke-width="0.5"/>
<path d="M1.44 29.78L1.44 1.44"
fill="none" stroke="black" stroke-width="0.5"/>
<path d="M785.56 785.56L785.56 757.22"
fill="none" stroke="black" stroke-width="0.5"/>
<path d="M785.56 29.78L785.56 1.44"
fill="none" stroke="black" stroke-width="0.5"/>
<path d="M29.78 785.56L29.78 757.22"
fill="none" stroke="black" stroke-width="0.5"/>
<path d="M29.78 29.78L29.78 1.44"
fill="none" stroke="black" stroke-width="0.5"/>
</svg>
