<?xml version="1.0" encoding="UTF-8"?>
<svg xmlns="http://www.w3.org/2000/svg" width="99.949mm" height="99.949mm" viewBox="0.0 0.0 787.000 787.000" preserveAspectRatio="none" version="1.1">
  <title>Produce by Acme CAD Converter</title>
  <desc>Produce by Acme CAD Converter</desc>
<path d="M687.64 785.56L785.56 687.64"
fill="none" stroke="black" stroke-width="0.5"/>
<path d="M491.59 785.56L785.56 491.59"
fill="none" stroke="black" stroke-width="0.5"/>
<path d="M295.53 785.56L785.56 295.53"
fill="none" stroke="black" stroke-width="0.5"/>
<path d="M99.47 785.56L785.56 99.47"
fill="none" stroke="black" stroke-width="0.5"/>
<path d="M1.44 687.53L687.53 1.44"
fill="none" stroke="black" stroke-width="0.5"/>
<path d="M1.44 491.47L491.47 1.44"
fill="none" stroke="black" stroke-width="0.5"/>
<path d="M1.44 295.41L295.41 1.44"
fill="none" stroke="black" stroke-width="0.5"/>
<path d="M1.44 99.36L99.36 1.44"
fill="none" stroke="black" stroke-width="0.5"/>
<path d="M589.62 785.56L785.56 589.62"
fill="none" stroke="black" stroke-width="0.5"/>
<path d="M197.5 785.56L785.56 197.5"
fill="none" stroke="black" stroke-width="0.5"/>
<path d="M1.44 589.5L589.5 1.44"
fill="none" stroke="black" stroke-width="0.5"/>
<path d="M1.44 197.38L197.38 1.44"
fill="none" stroke="black" stroke-width="0.5"/>
<path d="M1.44 687.5L99.48 785.54"
fill="none" stroke="black" stroke-width="0.5"/>
<path d="M99.48 785.54L99.5 785.56"
fill="none" stroke="black" stroke-width="0.5"/>
<path d="M1.44 491.44L197.52 687.52"
fill="none" stroke="black" stroke-width="0.5"/>
<path d="M197.52 687.52L295.56 785.56"
fill="none" stroke="black" stroke-width="0.5"/>
<path d="M1.44 295.38L295.55 589.48"
fill="none" stroke="black" stroke-width="0.5"/>
<path d="M295.55 589.48L491.62 785.56"
fill="none" stroke="black" stroke-width="0.5"/>
<path d="M1.44 99.32L393.57 491.45"
fill="none" stroke="black" stroke-width="0.5"/>
<path d="M393.57 491.45L687.68 785.56"
fill="none" stroke="black" stroke-width="0.5"/>
<path d="M99.62 1.44L491.6 393.43"
fill="none" stroke="black" stroke-width="0.5"/>
<path d="M491.6 393.43L785.56 687.38"
fill="none" stroke="black" stroke-width="0.5"/>
<path d="M295.68 1.44L589.63 295.4"
fill="none" stroke="black" stroke-width="0.5"/>
<path d="M589.63 295.4L785.56 491.32"
fill="none" stroke="black" stroke-width="0.5"/>
<path d="M491.74 1.44L687.66 197.37"
fill="none" stroke="black" stroke-width="0.5"/>
<path d="M687.66 197.37L785.56 295.26"
fill="none" stroke="black" stroke-width="0.5"/>
<path d="M687.79 1.44L785.56 99.21"
fill="none" stroke="black" stroke-width="0.5"/>
<path d="M1.44 785.53L1.47 785.56"
fill="none" stroke="black" stroke-width="0.5"/>
<path d="M1.44 393.41L295.55 687.52"
fill="none" stroke="black" stroke-width="0.5"/>
<path d="M295.55 687.52L393.59 785.56"
fill="none" stroke="black" stroke-width="0.5"/>
<path d="M1.59 1.44L491.6 491.45"
fill="none" stroke="black" stroke-width="0.5"/>
<path d="M491.6 491.45L785.56 785.41"
fill="none" stroke="black" stroke-width="0.5"/>
<path d="M393.71 1.44L687.66 295.4"
fill="none" stroke="black" stroke-width="0.5"/>
<path d="M687.66 295.4L785.56 393.29"
fill="none" stroke="black" stroke-width="0.5"/>
<path d="M393.56 785.56L442.59 736.53"
fill="none" stroke="black" stroke-width="0.5"/>
<path d="M540.62 638.5L638.65 540.47"
fill="none" stroke="black" stroke-width="0.5"/>
<path d="M736.67 442.44L785.56 393.56"
fill="none" stroke="black" stroke-width="0.5"/>
<path d="M1.44 785.56L50.47 736.53"
fill="none" stroke="black" stroke-width="0.5"/>
<path d="M148.5 638.5L246.53 540.47"
fill="none" stroke="black" stroke-width="0.5"/>
<path d="M344.56 442.44L442.59 344.41"
fill="none" stroke="black" stroke-width="0.5"/>
<path d="M540.62 246.38L638.65 148.35"
fill="none" stroke="black" stroke-width="0.5"/>
<path d="M736.67 50.33L785.56 1.44"
fill="none" stroke="black" stroke-width="0.5"/>
<path d="M1.44 393.44L50.47 344.41"
fill="none" stroke="black" stroke-width="0.5"/>
<path d="M148.5 246.38L246.53 148.35"
fill="none" stroke="black" stroke-width="0.5"/>
<path d="M344.56 50.33L393.44 1.44"
fill="none" stroke="black" stroke-width="0.5"/>
<path d="M1.44 589.47L50.47 638.5"
fill="none" stroke="black" stroke-width="0.5"/>
<path d="M148.5 736.53L197.53 785.56"
fill="none" stroke="black" stroke-width="0.5"/>
<path d="M1.44 197.35L50.47 246.38"
fill="none" stroke="black" stroke-width="0.5"/>
<path d="M148.5 344.41L246.53 442.44"
fill="none" stroke="black" stroke-width="0.5"/>
<path d="M344.56 540.47L442.59 638.5"
fill="none" stroke="black" stroke-width="0.5"/>
<path d="M540.62 736.53L589.65 785.56"
fill="none" stroke="black" stroke-width="0.5"/>
<path d="M197.65 1.44L246.53 50.33"
fill="none" stroke="black" stroke-width="0.5"/>
<path d="M344.56 148.35L442.59 246.38"
fill="none" stroke="black" stroke-width="0.5"/>
<path d="M540.62 344.41L638.65 442.44"
fill="none" stroke="black" stroke-width="0.5"/>
<path d="M736.67 540.47L785.56 589.35"
fill="none" stroke="black" stroke-width="0.5"/>
<path d="M589.76 1.44L638.65 50.33"
fill="none" stroke="black" stroke-width="0.5"/>
<path d="M736.67 148.35L785.56 197.24"
fill="none" stroke="black" stroke-width="0.5"/>
<path d="M679 130.71L666.74 124.59"
fill="none" stroke="black" stroke-width="0.5"/>
<path d="M286.88 130.71L274.63 124.59"
fill="none" stroke="black" stroke-width="0.5"/>
<path d="M482.94 326.78L470.69 320.65"
fill="none" stroke="black" stroke-width="0.5"/>
<path d="M679 522.83L666.74 516.7"
fill="none" stroke="black" stroke-width="0.5"/>
<path d="M90.82 326.78L78.57 320.65"
fill="none" stroke="black" stroke-width="0.5"/>
<path d="M286.88 522.83L274.63 516.7"
fill="none" stroke="black" stroke-width="0.5"/>
<path d="M482.94 718.89L470.69 712.77"
fill="none" stroke="black" stroke-width="0.5"/>
<path d="M90.82 718.89L78.57 712.77"
fill="none" stroke="black" stroke-width="0.5"/>
<path d="M90.82 718.89L108.15 718.89"
fill="none" stroke="black" stroke-width="0.5"/>
<path d="M482.94 718.89L500.27 718.89"
fill="none" stroke="black" stroke-width="0.5"/>
<path d="M286.88 522.83L304.21 522.83"
fill="none" stroke="black" stroke-width="0.5"/>
<path d="M679 522.83L696.33 522.83"
fill="none" stroke="black" stroke-width="0.5"/>
<path d="M90.82 326.78L108.15 326.78"
fill="none" stroke="black" stroke-width="0.5"/>
<path d="M482.94 326.78L500.27 326.78"
fill="none" stroke="black" stroke-width="0.5"/>
<path d="M286.88 130.71L304.21 130.71"
fill="none" stroke="black" stroke-width="0.5"/>
<path d="M679 130.71L696.33 130.71"
fill="none" stroke="black" stroke-width="0.5"/>
<path d="M500.27 718.89L506.39 715.83"
fill="none" stroke="black" stroke-width="0.5"/>
<path d="M696.33 522.83L702.45 519.77"
fill="none" stroke="black" stroke-width="0.5"/>
<path d="M108.15 718.89L114.28 715.83"
fill="none" stroke="black" stroke-width="0.5"/>
<path d="M304.21 522.83L310.34 519.77"
fill="none" stroke="black" stroke-width="0.5"/>
<path d="M500.27 326.78L506.39 323.71"
fill="none" stroke="black" stroke-width="0.5"/>
<path d="M696.33 130.71L702.45 127.65"
fill="none" stroke="black" stroke-width="0.5"/>
<path d="M108.15 326.78L114.28 323.71"
fill="none" stroke="black" stroke-width="0.5"/>
<path d="M304.21 130.71L310.34 127.65"
fill="none" stroke="black" stroke-width="0.5"/>
<path d="M506.39 715.83L512.52 709.7"
fill="none" stroke="black" stroke-width="0.5"/>
<path d="M702.45 519.77L708.58 513.64"
fill="none" stroke="black" stroke-width="0.5"/>
<path d="M114.28 715.83L120.4 709.7"
fill="none" stroke="black" stroke-width="0.5"/>
<path d="M310.34 519.77L316.46 513.64"
fill="none" stroke="black" stroke-width="0.5"/>
<path d="M506.39 323.71L512.52 317.58"
fill="none" stroke="black" stroke-width="0.5"/>
<path d="M702.45 127.65L708.58 121.53"
fill="none" stroke="black" stroke-width="0.5"/>
<path d="M114.28 323.71L120.4 317.58"
fill="none" stroke="black" stroke-width="0.5"/>
<path d="M310.34 127.65L316.46 121.53"
fill="none" stroke="black" stroke-width="0.5"/>
<path d="M120.4 304.59L120.4 317.58"
fill="none" stroke="black" stroke-width="0.5"/>
<path d="M120.4 696.7L120.4 709.7"
fill="none" stroke="black" stroke-width="0.5"/>
<path d="M316.46 108.53L316.46 121.53"
fill="none" stroke="black" stroke-width="0.5"/>
<path d="M316.46 500.65L316.46 513.64"
fill="none" stroke="black" stroke-width="0.5"/>
<path d="M512.52 304.59L512.52 317.58"
fill="none" stroke="black" stroke-width="0.5"/>
<path d="M512.52 696.7L512.52 709.7"
fill="none" stroke="black" stroke-width="0.5"/>
<path d="M708.58 108.53L708.58 121.53"
fill="none" stroke="black" stroke-width="0.5"/>
<path d="M708.58 500.65L708.58 513.64"
fill="none" stroke="black" stroke-width="0.5"/>
<path d="M114.28 690.58L120.4 696.7"
fill="none" stroke="black" stroke-width="0.5"/>
<path d="M114.28 298.46L120.4 304.59"
fill="none" stroke="black" stroke-width="0.5"/>
<path d="M310.34 494.52L316.46 500.65"
fill="none" stroke="black" stroke-width="0.5"/>
<path d="M506.39 690.58L512.52 696.7"
fill="none" stroke="black" stroke-width="0.5"/>
<path d="M310.34 102.4L316.46 108.53"
fill="none" stroke="black" stroke-width="0.5"/>
<path d="M506.39 298.46L512.52 304.59"
fill="none" stroke="black" stroke-width="0.5"/>
<path d="M702.45 494.52L708.58 500.65"
fill="none" stroke="black" stroke-width="0.5"/>
<path d="M702.45 102.4L708.58 108.53"
fill="none" stroke="black" stroke-width="0.5"/>
<path d="M108.15 687.52L114.28 690.58"
fill="none" stroke="black" stroke-width="0.5"/>
<path d="M500.27 687.52L506.39 690.58"
fill="none" stroke="black" stroke-width="0.5"/>
<path d="M304.21 491.45L310.34 494.52"
fill="none" stroke="black" stroke-width="0.5"/>
<path d="M108.15 295.4L114.28 298.46"
fill="none" stroke="black" stroke-width="0.5"/>
<path d="M696.33 491.45L702.45 494.52"
fill="none" stroke="black" stroke-width="0.5"/>
<path d="M500.27 295.4L506.39 298.46"
fill="none" stroke="black" stroke-width="0.5"/>
<path d="M304.21 99.34L310.34 102.4"
fill="none" stroke="black" stroke-width="0.5"/>
<path d="M696.33 99.34L702.45 102.4"
fill="none" stroke="black" stroke-width="0.5"/>
<path d="M90.82 656.14L108.15 656.14"
fill="none" stroke="black" stroke-width="0.5"/>
<path d="M482.94 656.14L500.27 656.14"
fill="none" stroke="black" stroke-width="0.5"/>
<path d="M286.88 460.08L304.21 460.08"
fill="none" stroke="black" stroke-width="0.5"/>
<path d="M679 460.08L696.33 460.08"
fill="none" stroke="black" stroke-width="0.5"/>
<path d="M90.82 264.02L108.15 264.02"
fill="none" stroke="black" stroke-width="0.5"/>
<path d="M482.94 264.02L500.27 264.02"
fill="none" stroke="black" stroke-width="0.5"/>
<path d="M286.88 67.96L304.21 67.96"
fill="none" stroke="black" stroke-width="0.5"/>
<path d="M679 67.96L696.33 67.96"
fill="none" stroke="black" stroke-width="0.5"/>
<path d="M679 99.34L672.87 96.27"
fill="none" stroke="black" stroke-width="0.5"/>
<path d="M286.88 99.34L280.75 96.27"
fill="none" stroke="black" stroke-width="0.5"/>
<path d="M482.94 295.4L476.81 292.33"
fill="none" stroke="black" stroke-width="0.5"/>
<path d="M679 491.45L672.87 488.39"
fill="none" stroke="black" stroke-width="0.5"/>
<path d="M90.82 295.4L84.7 292.33"
fill="none" stroke="black" stroke-width="0.5"/>
<path d="M286.88 491.45L280.75 488.39"
fill="none" stroke="black" stroke-width="0.5"/>
<path d="M482.94 687.52L476.81 684.45"
fill="none" stroke="black" stroke-width="0.5"/>
<path d="M90.82 687.52L84.7 684.45"
fill="none" stroke="black" stroke-width="0.5"/>
<path d="M672.87 96.27L666.74 90.15"
fill="none" stroke="black" stroke-width="0.5"/>
<path d="M672.87 488.39L666.74 482.26"
fill="none" stroke="black" stroke-width="0.5"/>
<path d="M476.81 292.33L470.69 286.21"
fill="none" stroke="black" stroke-width="0.5"/>
<path d="M280.75 96.27L274.63 90.15"
fill="none" stroke="black" stroke-width="0.5"/>
<path d="M476.81 684.45L470.69 678.32"
fill="none" stroke="black" stroke-width="0.5"/>
<path d="M280.75 488.39L274.63 482.26"
fill="none" stroke="black" stroke-width="0.5"/>
<path d="M84.7 292.33L78.57 286.21"
fill="none" stroke="black" stroke-width="0.5"/>
<path d="M84.7 684.45L78.57 678.32"
fill="none" stroke="black" stroke-width="0.5"/>
<path d="M666.74 482.26L666.74 469.27"
fill="none" stroke="black" stroke-width="0.5"/>
<path d="M666.74 90.15L666.74 77.15"
fill="none" stroke="black" stroke-width="0.5"/>
<path d="M470.69 678.32L470.69 665.32"
fill="none" stroke="black" stroke-width="0.5"/>
<path d="M470.69 286.21L470.69 273.21"
fill="none" stroke="black" stroke-width="0.5"/>
<path d="M274.63 482.26L274.63 469.27"
fill="none" stroke="black" stroke-width="0.5"/>
<path d="M274.63 90.15L274.63 77.15"
fill="none" stroke="black" stroke-width="0.5"/>
<path d="M78.57 678.32L78.57 665.32"
fill="none" stroke="black" stroke-width="0.5"/>
<path d="M78.57 286.21L78.57 273.21"
fill="none" stroke="black" stroke-width="0.5"/>
<path d="M280.75 71.02L274.63 77.15"
fill="none" stroke="black" stroke-width="0.5"/>
<path d="M84.7 267.08L78.57 273.21"
fill="none" stroke="black" stroke-width="0.5"/>
<path d="M672.87 71.02L666.74 77.15"
fill="none" stroke="black" stroke-width="0.5"/>
<path d="M476.81 267.08L470.69 273.21"
fill="none" stroke="black" stroke-width="0.5"/>
<path d="M280.75 463.14L274.63 469.27"
fill="none" stroke="black" stroke-width="0.5"/>
<path d="M84.7 659.2L78.57 665.32"
fill="none" stroke="black" stroke-width="0.5"/>
<path d="M672.87 463.14L666.74 469.27"
fill="none" stroke="black" stroke-width="0.5"/>
<path d="M476.81 659.2L470.69 665.32"
fill="none" stroke="black" stroke-width="0.5"/>
<path d="M286.88 67.96L280.75 71.02"
fill="none" stroke="black" stroke-width="0.5"/>
<path d="M90.82 264.02L84.7 267.08"
fill="none" stroke="black" stroke-width="0.5"/>
<path d="M679 67.96L672.87 71.02"
fill="none" stroke="black" stroke-width="0.5"/>
<path d="M482.94 264.02L476.81 267.08"
fill="none" stroke="black" stroke-width="0.5"/>
<path d="M286.88 460.08L280.75 463.14"
fill="none" stroke="black" stroke-width="0.5"/>
<path d="M90.82 656.14L84.7 659.2"
fill="none" stroke="black" stroke-width="0.5"/>
<path d="M679 460.08L672.87 463.14"
fill="none" stroke="black" stroke-width="0.5"/>
<path d="M482.94 656.14L476.81 659.2"
fill="none" stroke="black" stroke-width="0.5"/>
<path d="M90.82 687.52L108.15 687.52"
fill="none" stroke="black" stroke-width="0.5"/>
<path d="M482.94 687.52L500.27 687.52"
fill="none" stroke="black" stroke-width="0.5"/>
<path d="M286.88 491.45L304.21 491.45"
fill="none" stroke="black" stroke-width="0.5"/>
<path d="M679 491.45L696.33 491.45"
fill="none" stroke="black" stroke-width="0.5"/>
<path d="M90.82 295.4L108.15 295.4"
fill="none" stroke="black" stroke-width="0.5"/>
<path d="M482.94 295.4L500.27 295.4"
fill="none" stroke="black" stroke-width="0.5"/>
<path d="M286.88 99.34L304.21 99.34"
fill="none" stroke="black" stroke-width="0.5"/>
<path d="M679 99.34L696.33 99.34"
fill="none" stroke="black" stroke-width="0.5"/>
<path d="M108.15 656.14L120.4 662.26"
fill="none" stroke="black" stroke-width="0.5"/>
<path d="M500.27 656.14L512.52 662.26"
fill="none" stroke="black" stroke-width="0.5"/>
<path d="M304.21 460.08L316.46 466.2"
fill="none" stroke="black" stroke-width="0.5"/>
<path d="M108.15 264.02L120.4 270.15"
fill="none" stroke="black" stroke-width="0.5"/>
<path d="M696.33 460.08L708.58 466.2"
fill="none" stroke="black" stroke-width="0.5"/>
<path d="M500.27 264.02L512.52 270.15"
fill="none" stroke="black" stroke-width="0.5"/>
<path d="M304.21 67.96L316.46 74.09"
fill="none" stroke="black" stroke-width="0.5"/>
<path d="M696.33 67.96L708.58 74.09"
fill="none" stroke="black" stroke-width="0.5"/>
</svg>
