<?xml version="1.0" encoding="UTF-8"?>
<svg xmlns="http://www.w3.org/2000/svg" width="99.949mm" height="99.949mm" viewBox="0.0 0.0 787.000 787.000" preserveAspectRatio="none" version="1.1">
  <title>Produce by Acme CAD Converter</title>
  <desc>Produce by Acme CAD Converter</desc>
<path d="M374.1 785.56L385.46 785.56"
fill="none" stroke="black" stroke-width="0.5"/>
<path d="M396.83 785.56L408.19 785.56"
fill="none" stroke="black" stroke-width="0.5"/>
<path d="M370.77 766.16L382.13 766.16"
fill="none" stroke="black" stroke-width="0.5"/>
<path d="M393.5 766.16L404.86 766.16"
fill="none" stroke="black" stroke-width="0.5"/>
<path d="M416.23 766.16L416.23 766.16"
fill="none" stroke="black" stroke-width="0.5"/>
<path d="M370.77 746.75L378.81 746.75"
fill="none" stroke="black" stroke-width="0.5"/>
<path d="M390.17 746.75L401.54 746.75"
fill="none" stroke="black" stroke-width="0.5"/>
<path d="M412.9 746.75L416.23 746.75"
fill="none" stroke="black" stroke-width="0.5"/>
<path d="M370.77 727.35L375.48 727.35"
fill="none" stroke="black" stroke-width="0.5"/>
<path d="M386.84 727.35L398.21 727.35"
fill="none" stroke="black" stroke-width="0.5"/>
<path d="M409.57 727.35L416.23 727.35"
fill="none" stroke="black" stroke-width="0.5"/>
<path d="M370.77 707.95L372.15 707.95"
fill="none" stroke="black" stroke-width="0.5"/>
<path d="M383.51 707.95L394.88 707.95"
fill="none" stroke="black" stroke-width="0.5"/>
<path d="M406.24 707.95L416.23 707.95"
fill="none" stroke="black" stroke-width="0.5"/>
<path d="M380.18 688.55L391.55 688.55"
fill="none" stroke="black" stroke-width="0.5"/>
<path d="M402.91 688.55L414.28 688.55"
fill="none" stroke="black" stroke-width="0.5"/>
<path d="M376.86 669.15L388.22 669.15"
fill="none" stroke="black" stroke-width="0.5"/>
<path d="M399.59 669.15L410.95 669.15"
fill="none" stroke="black" stroke-width="0.5"/>
<path d="M373.53 649.74L384.89 649.74"
fill="none" stroke="black" stroke-width="0.5"/>
<path d="M396.26 649.74L407.62 649.74"
fill="none" stroke="black" stroke-width="0.5"/>
<path d="M370.77 630.34L381.56 630.34"
fill="none" stroke="black" stroke-width="0.5"/>
<path d="M392.93 630.34L404.29 630.34"
fill="none" stroke="black" stroke-width="0.5"/>
<path d="M415.66 630.34L416.23 630.34"
fill="none" stroke="black" stroke-width="0.5"/>
<path d="M370.77 610.94L378.23 610.94"
fill="none" stroke="black" stroke-width="0.5"/>
<path d="M389.6 610.94L400.97 610.94"
fill="none" stroke="black" stroke-width="0.5"/>
<path d="M412.33 610.94L416.23 610.94"
fill="none" stroke="black" stroke-width="0.5"/>
<path d="M370.77 591.54L374.91 591.54"
fill="none" stroke="black" stroke-width="0.5"/>
<path d="M386.27 591.54L397.64 591.54"
fill="none" stroke="black" stroke-width="0.5"/>
<path d="M409 591.54L416.23 591.54"
fill="none" stroke="black" stroke-width="0.5"/>
<path d="M370.77 572.14L371.58 572.14"
fill="none" stroke="black" stroke-width="0.5"/>
<path d="M382.94 572.14L394.31 572.14"
fill="none" stroke="black" stroke-width="0.5"/>
<path d="M405.67 572.14L416.23 572.14"
fill="none" stroke="black" stroke-width="0.5"/>
<path d="M379.61 552.73L390.98 552.73"
fill="none" stroke="black" stroke-width="0.5"/>
<path d="M402.34 552.73L413.71 552.73"
fill="none" stroke="black" stroke-width="0.5"/>
<path d="M376.28 533.33L387.65 533.33"
fill="none" stroke="black" stroke-width="0.5"/>
<path d="M399.01 533.33L410.38 533.33"
fill="none" stroke="black" stroke-width="0.5"/>
<path d="M372.96 513.93L384.32 513.93"
fill="none" stroke="black" stroke-width="0.5"/>
<path d="M395.69 513.93L407.05 513.93"
fill="none" stroke="black" stroke-width="0.5"/>
<path d="M370.77 494.53L380.99 494.53"
fill="none" stroke="black" stroke-width="0.5"/>
<path d="M392.36 494.53L403.72 494.53"
fill="none" stroke="black" stroke-width="0.5"/>
<path d="M415.09 494.53L416.23 494.53"
fill="none" stroke="black" stroke-width="0.5"/>
<path d="M370.77 475.13L377.66 475.13"
fill="none" stroke="black" stroke-width="0.5"/>
<path d="M389.03 475.13L400.39 475.13"
fill="none" stroke="black" stroke-width="0.5"/>
<path d="M411.76 475.13L416.23 475.13"
fill="none" stroke="black" stroke-width="0.5"/>
<path d="M370.77 455.72L374.33 455.72"
fill="none" stroke="black" stroke-width="0.5"/>
<path d="M385.7 455.72L397.07 455.72"
fill="none" stroke="black" stroke-width="0.5"/>
<path d="M408.43 455.72L416.23 455.72"
fill="none" stroke="black" stroke-width="0.5"/>
<path d="M370.77 436.32L371 436.32"
fill="none" stroke="black" stroke-width="0.5"/>
<path d="M382.37 436.32L393.74 436.32"
fill="none" stroke="black" stroke-width="0.5"/>
<path d="M405.1 436.32L416.23 436.32"
fill="none" stroke="black" stroke-width="0.5"/>
<path d="M379.04 416.92L390.41 416.92"
fill="none" stroke="black" stroke-width="0.5"/>
<path d="M401.77 416.92L413.14 416.92"
fill="none" stroke="black" stroke-width="0.5"/>
<path d="M375.71 397.52L387.08 397.52"
fill="none" stroke="black" stroke-width="0.5"/>
<path d="M398.44 397.52L409.81 397.52"
fill="none" stroke="black" stroke-width="0.5"/>
<path d="M372.38 378.12L383.75 378.12"
fill="none" stroke="black" stroke-width="0.5"/>
<path d="M395.11 378.12L406.48 378.12"
fill="none" stroke="black" stroke-width="0.5"/>
<path d="M370.77 358.71L380.42 358.71"
fill="none" stroke="black" stroke-width="0.5"/>
<path d="M391.79 358.71L403.15 358.71"
fill="none" stroke="black" stroke-width="0.5"/>
<path d="M414.52 358.71L416.23 358.71"
fill="none" stroke="black" stroke-width="0.5"/>
<path d="M370.77 339.31L377.09 339.31"
fill="none" stroke="black" stroke-width="0.5"/>
<path d="M388.46 339.31L399.82 339.31"
fill="none" stroke="black" stroke-width="0.5"/>
<path d="M411.19 339.31L416.23 339.31"
fill="none" stroke="black" stroke-width="0.5"/>
<path d="M370.77 319.91L373.76 319.91"
fill="none" stroke="black" stroke-width="0.5"/>
<path d="M385.13 319.91L396.49 319.91"
fill="none" stroke="black" stroke-width="0.5"/>
<path d="M407.86 319.91L416.23 319.91"
fill="none" stroke="black" stroke-width="0.5"/>
<path d="M381.8 300.51L393.16 300.51"
fill="none" stroke="black" stroke-width="0.5"/>
<path d="M404.53 300.51L415.9 300.51"
fill="none" stroke="black" stroke-width="0.5"/>
<path d="M378.47 281.11L389.84 281.11"
fill="none" stroke="black" stroke-width="0.5"/>
<path d="M401.2 281.11L412.57 281.11"
fill="none" stroke="black" stroke-width="0.5"/>
<path d="M375.14 261.7L386.51 261.7"
fill="none" stroke="black" stroke-width="0.5"/>
<path d="M397.87 261.7L409.24 261.7"
fill="none" stroke="black" stroke-width="0.5"/>
<path d="M371.81 242.3L383.18 242.3"
fill="none" stroke="black" stroke-width="0.5"/>
<path d="M394.54 242.3L405.91 242.3"
fill="none" stroke="black" stroke-width="0.5"/>
<path d="M370.77 222.9L379.85 222.9"
fill="none" stroke="black" stroke-width="0.5"/>
<path d="M391.22 222.9L402.58 222.9"
fill="none" stroke="black" stroke-width="0.5"/>
<path d="M413.95 222.9L416.23 222.9"
fill="none" stroke="black" stroke-width="0.5"/>
<path d="M370.77 203.5L376.52 203.5"
fill="none" stroke="black" stroke-width="0.5"/>
<path d="M387.89 203.5L399.25 203.5"
fill="none" stroke="black" stroke-width="0.5"/>
<path d="M410.62 203.5L416.23 203.5"
fill="none" stroke="black" stroke-width="0.5"/>
<path d="M370.77 184.1L373.19 184.1"
fill="none" stroke="black" stroke-width="0.5"/>
<path d="M384.56 184.1L395.92 184.1"
fill="none" stroke="black" stroke-width="0.5"/>
<path d="M407.29 184.1L416.23 184.1"
fill="none" stroke="black" stroke-width="0.5"/>
<path d="M381.23 164.7L392.59 164.7"
fill="none" stroke="black" stroke-width="0.5"/>
<path d="M403.96 164.7L415.32 164.7"
fill="none" stroke="black" stroke-width="0.5"/>
<path d="M377.9 145.29L389.26 145.29"
fill="none" stroke="black" stroke-width="0.5"/>
<path d="M400.63 145.29L412 145.29"
fill="none" stroke="black" stroke-width="0.5"/>
<path d="M374.57 125.89L385.94 125.89"
fill="none" stroke="black" stroke-width="0.5"/>
<path d="M397.3 125.89L408.67 125.89"
fill="none" stroke="black" stroke-width="0.5"/>
<path d="M371.24 106.49L382.61 106.49"
fill="none" stroke="black" stroke-width="0.5"/>
<path d="M393.97 106.49L405.34 106.49"
fill="none" stroke="black" stroke-width="0.5"/>
<path d="M370.77 87.09L379.28 87.09"
fill="none" stroke="black" stroke-width="0.5"/>
<path d="M390.64 87.09L402.01 87.09"
fill="none" stroke="black" stroke-width="0.5"/>
<path d="M413.37 87.09L416.23 87.09"
fill="none" stroke="black" stroke-width="0.5"/>
<path d="M370.77 67.69L375.95 67.69"
fill="none" stroke="black" stroke-width="0.5"/>
<path d="M387.32 67.69L398.68 67.69"
fill="none" stroke="black" stroke-width="0.5"/>
<path d="M410.05 67.69L416.23 67.69"
fill="none" stroke="black" stroke-width="0.5"/>
<path d="M370.77 48.28L372.62 48.28"
fill="none" stroke="black" stroke-width="0.5"/>
<path d="M383.99 48.28L395.35 48.28"
fill="none" stroke="black" stroke-width="0.5"/>
<path d="M406.72 48.28L416.23 48.28"
fill="none" stroke="black" stroke-width="0.5"/>
<path d="M380.66 28.88L392.02 28.88"
fill="none" stroke="black" stroke-width="0.5"/>
<path d="M403.39 28.88L414.75 28.88"
fill="none" stroke="black" stroke-width="0.5"/>
<path d="M377.33 9.48L388.69 9.48"
fill="none" stroke="black" stroke-width="0.5"/>
<path d="M400.06 9.48L411.42 9.48"
fill="none" stroke="black" stroke-width="0.5"/>
<path d="M382.13 777.52L393.5 777.52"
fill="none" stroke="black" stroke-width="0.5"/>
<path d="M404.86 777.52L416.23 777.52"
fill="none" stroke="black" stroke-width="0.5"/>
<path d="M378.81 758.12L390.17 758.12"
fill="none" stroke="black" stroke-width="0.5"/>
<path d="M401.54 758.12L412.9 758.12"
fill="none" stroke="black" stroke-width="0.5"/>
<path d="M375.48 738.72L386.84 738.72"
fill="none" stroke="black" stroke-width="0.5"/>
<path d="M398.21 738.72L409.57 738.72"
fill="none" stroke="black" stroke-width="0.5"/>
<path d="M372.15 719.31L383.51 719.31"
fill="none" stroke="black" stroke-width="0.5"/>
<path d="M394.88 719.31L406.24 719.31"
fill="none" stroke="black" stroke-width="0.5"/>
<path d="M370.77 699.91L380.18 699.91"
fill="none" stroke="black" stroke-width="0.5"/>
<path d="M391.55 699.91L402.91 699.91"
fill="none" stroke="black" stroke-width="0.5"/>
<path d="M414.28 699.91L416.23 699.91"
fill="none" stroke="black" stroke-width="0.5"/>
<path d="M370.77 680.51L376.86 680.51"
fill="none" stroke="black" stroke-width="0.5"/>
<path d="M388.22 680.51L399.59 680.51"
fill="none" stroke="black" stroke-width="0.5"/>
<path d="M410.95 680.51L416.23 680.51"
fill="none" stroke="black" stroke-width="0.5"/>
<path d="M370.77 661.11L373.53 661.11"
fill="none" stroke="black" stroke-width="0.5"/>
<path d="M384.89 661.11L396.26 661.11"
fill="none" stroke="black" stroke-width="0.5"/>
<path d="M407.62 661.11L416.23 661.11"
fill="none" stroke="black" stroke-width="0.5"/>
<path d="M381.56 641.71L392.93 641.71"
fill="none" stroke="black" stroke-width="0.5"/>
<path d="M404.29 641.71L415.66 641.71"
fill="none" stroke="black" stroke-width="0.5"/>
<path d="M378.23 622.31L389.6 622.31"
fill="none" stroke="black" stroke-width="0.5"/>
<path d="M400.97 622.31L412.33 622.31"
fill="none" stroke="black" stroke-width="0.5"/>
<path d="M374.91 602.9L386.27 602.9"
fill="none" stroke="black" stroke-width="0.5"/>
<path d="M397.64 602.9L409 602.9"
fill="none" stroke="black" stroke-width="0.5"/>
<path d="M371.58 583.5L382.94 583.5"
fill="none" stroke="black" stroke-width="0.5"/>
<path d="M394.31 583.5L405.67 583.5"
fill="none" stroke="black" stroke-width="0.5"/>
<path d="M370.77 564.1L379.61 564.1"
fill="none" stroke="black" stroke-width="0.5"/>
<path d="M390.98 564.1L402.34 564.1"
fill="none" stroke="black" stroke-width="0.5"/>
<path d="M413.71 564.1L416.23 564.1"
fill="none" stroke="black" stroke-width="0.5"/>
<path d="M370.77 544.7L376.28 544.7"
fill="none" stroke="black" stroke-width="0.5"/>
<path d="M387.65 544.7L399.01 544.7"
fill="none" stroke="black" stroke-width="0.5"/>
<path d="M410.38 544.7L416.23 544.7"
fill="none" stroke="black" stroke-width="0.5"/>
<path d="M370.77 525.3L372.96 525.3"
fill="none" stroke="black" stroke-width="0.5"/>
<path d="M384.32 525.3L395.69 525.3"
fill="none" stroke="black" stroke-width="0.5"/>
<path d="M407.05 525.3L416.23 525.3"
fill="none" stroke="black" stroke-width="0.5"/>
<path d="M380.99 505.89L392.36 505.89"
fill="none" stroke="black" stroke-width="0.5"/>
<path d="M403.72 505.89L415.09 505.89"
fill="none" stroke="black" stroke-width="0.5"/>
<path d="M377.66 486.49L389.03 486.49"
fill="none" stroke="black" stroke-width="0.5"/>
<path d="M400.39 486.49L411.76 486.49"
fill="none" stroke="black" stroke-width="0.5"/>
<path d="M374.33 467.09L385.7 467.09"
fill="none" stroke="black" stroke-width="0.5"/>
<path d="M397.07 467.09L408.43 467.09"
fill="none" stroke="black" stroke-width="0.5"/>
<path d="M371 447.69L382.37 447.69"
fill="none" stroke="black" stroke-width="0.5"/>
<path d="M393.74 447.69L405.1 447.69"
fill="none" stroke="black" stroke-width="0.5"/>
<path d="M370.77 428.29L379.04 428.29"
fill="none" stroke="black" stroke-width="0.5"/>
<path d="M390.41 428.29L401.77 428.29"
fill="none" stroke="black" stroke-width="0.5"/>
<path d="M413.14 428.29L416.23 428.29"
fill="none" stroke="black" stroke-width="0.5"/>
<path d="M370.77 408.88L375.71 408.88"
fill="none" stroke="black" stroke-width="0.5"/>
<path d="M387.08 408.88L398.44 408.88"
fill="none" stroke="black" stroke-width="0.5"/>
<path d="M409.81 408.88L416.23 408.88"
fill="none" stroke="black" stroke-width="0.5"/>
<path d="M370.77 389.48L372.38 389.48"
fill="none" stroke="black" stroke-width="0.5"/>
<path d="M383.75 389.48L395.11 389.48"
fill="none" stroke="black" stroke-width="0.5"/>
<path d="M406.48 389.48L416.23 389.48"
fill="none" stroke="black" stroke-width="0.5"/>
<path d="M380.42 370.08L391.79 370.08"
fill="none" stroke="black" stroke-width="0.5"/>
<path d="M403.15 370.08L414.52 370.08"
fill="none" stroke="black" stroke-width="0.5"/>
<path d="M377.09 350.68L388.46 350.68"
fill="none" stroke="black" stroke-width="0.5"/>
<path d="M399.82 350.68L411.19 350.68"
fill="none" stroke="black" stroke-width="0.5"/>
<path d="M373.76 331.28L385.13 331.28"
fill="none" stroke="black" stroke-width="0.5"/>
<path d="M396.49 331.28L407.86 331.28"
fill="none" stroke="black" stroke-width="0.5"/>
<path d="M370.77 311.87L381.8 311.87"
fill="none" stroke="black" stroke-width="0.5"/>
<path d="M393.16 311.87L404.53 311.87"
fill="none" stroke="black" stroke-width="0.5"/>
<path d="M415.9 311.87L416.23 311.87"
fill="none" stroke="black" stroke-width="0.5"/>
<path d="M370.77 292.47L378.47 292.47"
fill="none" stroke="black" stroke-width="0.5"/>
<path d="M389.84 292.47L401.2 292.47"
fill="none" stroke="black" stroke-width="0.5"/>
<path d="M412.57 292.47L416.23 292.47"
fill="none" stroke="black" stroke-width="0.5"/>
<path d="M370.77 273.07L375.14 273.07"
fill="none" stroke="black" stroke-width="0.5"/>
<path d="M386.51 273.07L397.87 273.07"
fill="none" stroke="black" stroke-width="0.5"/>
<path d="M409.24 273.07L416.23 273.07"
fill="none" stroke="black" stroke-width="0.5"/>
<path d="M370.77 253.67L371.81 253.67"
fill="none" stroke="black" stroke-width="0.5"/>
<path d="M383.18 253.67L394.54 253.67"
fill="none" stroke="black" stroke-width="0.5"/>
<path d="M405.91 253.67L416.23 253.67"
fill="none" stroke="black" stroke-width="0.5"/>
<path d="M379.85 234.27L391.22 234.27"
fill="none" stroke="black" stroke-width="0.5"/>
<path d="M402.58 234.27L413.95 234.27"
fill="none" stroke="black" stroke-width="0.5"/>
<path d="M376.52 214.86L387.89 214.86"
fill="none" stroke="black" stroke-width="0.5"/>
<path d="M399.25 214.86L410.62 214.86"
fill="none" stroke="black" stroke-width="0.5"/>
<path d="M373.19 195.46L384.56 195.46"
fill="none" stroke="black" stroke-width="0.5"/>
<path d="M395.92 195.46L407.29 195.46"
fill="none" stroke="black" stroke-width="0.5"/>
<path d="M370.77 176.06L381.23 176.06"
fill="none" stroke="black" stroke-width="0.5"/>
<path d="M392.59 176.06L403.96 176.06"
fill="none" stroke="black" stroke-width="0.5"/>
<path d="M415.32 176.06L416.23 176.06"
fill="none" stroke="black" stroke-width="0.5"/>
<path d="M370.77 156.66L377.9 156.66"
fill="none" stroke="black" stroke-width="0.5"/>
<path d="M389.26 156.66L400.63 156.66"
fill="none" stroke="black" stroke-width="0.5"/>
<path d="M412 156.66L416.23 156.66"
fill="none" stroke="black" stroke-width="0.5"/>
<path d="M370.77 137.26L374.57 137.26"
fill="none" stroke="black" stroke-width="0.5"/>
<path d="M385.94 137.26L397.3 137.26"
fill="none" stroke="black" stroke-width="0.5"/>
<path d="M408.67 137.26L416.23 137.26"
fill="none" stroke="black" stroke-width="0.5"/>
<path d="M370.77 117.85L371.24 117.85"
fill="none" stroke="black" stroke-width="0.5"/>
<path d="M382.61 117.85L393.97 117.85"
fill="none" stroke="black" stroke-width="0.5"/>
<path d="M405.34 117.85L416.23 117.85"
fill="none" stroke="black" stroke-width="0.5"/>
<path d="M379.28 98.45L390.64 98.45"
fill="none" stroke="black" stroke-width="0.5"/>
<path d="M402.01 98.45L413.37 98.45"
fill="none" stroke="black" stroke-width="0.5"/>
<path d="M375.95 79.05L387.32 79.05"
fill="none" stroke="black" stroke-width="0.5"/>
<path d="M398.68 79.05L410.05 79.05"
fill="none" stroke="black" stroke-width="0.5"/>
<path d="M372.62 59.65L383.99 59.65"
fill="none" stroke="black" stroke-width="0.5"/>
<path d="M395.35 59.65L406.72 59.65"
fill="none" stroke="black" stroke-width="0.5"/>
<path d="M370.77 40.25L380.66 40.25"
fill="none" stroke="black" stroke-width="0.5"/>
<path d="M392.02 40.25L403.39 40.25"
fill="none" stroke="black" stroke-width="0.5"/>
<path d="M414.75 40.25L416.23 40.25"
fill="none" stroke="black" stroke-width="0.5"/>
<path d="M370.77 20.85L377.33 20.85"
fill="none" stroke="black" stroke-width="0.5"/>
<path d="M388.69 20.85L400.06 20.85"
fill="none" stroke="black" stroke-width="0.5"/>
<path d="M411.42 20.85L416.23 20.85"
fill="none" stroke="black" stroke-width="0.5"/>
<path d="M370.77 1.44L374 1.44"
fill="none" stroke="black" stroke-width="0.5"/>
<path d="M385.36 1.44L396.73 1.44"
fill="none" stroke="black" stroke-width="0.5"/>
<path d="M408.1 1.44L416.23 1.44"
fill="none" stroke="black" stroke-width="0.5"/>
<path d="M408.19 785.56L416.23 777.52"
fill="none" stroke="black" stroke-width="0.5"/>
<path d="M396.83 785.56L404.86 777.52"
fill="none" stroke="black" stroke-width="0.5"/>
<path d="M416.23 766.16L416.23 766.15"
fill="none" stroke="black" stroke-width="0.5"/>
<path d="M385.46 785.56L393.5 777.52"
fill="none" stroke="black" stroke-width="0.5"/>
<path d="M404.86 766.16L412.9 758.12"
fill="none" stroke="black" stroke-width="0.5"/>
<path d="M374.1 785.56L382.13 777.52"
fill="none" stroke="black" stroke-width="0.5"/>
<path d="M393.5 766.16L401.54 758.12"
fill="none" stroke="black" stroke-width="0.5"/>
<path d="M412.9 746.75L416.23 743.42"
fill="none" stroke="black" stroke-width="0.5"/>
<path d="M370.77 777.52L370.77 777.52"
fill="none" stroke="black" stroke-width="0.5"/>
<path d="M382.13 766.16L390.17 758.12"
fill="none" stroke="black" stroke-width="0.5"/>
<path d="M401.54 746.75L409.57 738.72"
fill="none" stroke="black" stroke-width="0.5"/>
<path d="M370.77 766.16L378.81 758.12"
fill="none" stroke="black" stroke-width="0.5"/>
<path d="M390.17 746.75L398.21 738.72"
fill="none" stroke="black" stroke-width="0.5"/>
<path d="M409.57 727.35L416.23 720.69"
fill="none" stroke="black" stroke-width="0.5"/>
<path d="M378.81 746.75L386.84 738.72"
fill="none" stroke="black" stroke-width="0.5"/>
<path d="M398.21 727.35L406.24 719.31"
fill="none" stroke="black" stroke-width="0.5"/>
<path d="M370.77 743.42L375.48 738.72"
fill="none" stroke="black" stroke-width="0.5"/>
<path d="M386.84 727.35L394.88 719.31"
fill="none" stroke="black" stroke-width="0.5"/>
<path d="M406.24 707.95L414.28 699.91"
fill="none" stroke="black" stroke-width="0.5"/>
<path d="M375.48 727.35L383.51 719.31"
fill="none" stroke="black" stroke-width="0.5"/>
<path d="M394.88 707.95L402.91 699.91"
fill="none" stroke="black" stroke-width="0.5"/>
<path d="M414.28 688.55L416.23 686.6"
fill="none" stroke="black" stroke-width="0.5"/>
<path d="M370.77 720.69L372.15 719.31"
fill="none" stroke="black" stroke-width="0.5"/>
<path d="M383.51 707.95L391.55 699.91"
fill="none" stroke="black" stroke-width="0.5"/>
<path d="M402.91 688.55L410.95 680.51"
fill="none" stroke="black" stroke-width="0.5"/>
<path d="M372.15 707.95L380.18 699.91"
fill="none" stroke="black" stroke-width="0.5"/>
<path d="M391.55 688.55L399.59 680.51"
fill="none" stroke="black" stroke-width="0.5"/>
<path d="M410.95 669.15L416.23 663.87"
fill="none" stroke="black" stroke-width="0.5"/>
<path d="M380.18 688.55L388.22 680.51"
fill="none" stroke="black" stroke-width="0.5"/>
<path d="M399.59 669.15L407.62 661.11"
fill="none" stroke="black" stroke-width="0.5"/>
<path d="M370.77 686.6L376.86 680.51"
fill="none" stroke="black" stroke-width="0.5"/>
<path d="M388.22 669.15L396.26 661.11"
fill="none" stroke="black" stroke-width="0.5"/>
<path d="M407.62 649.74L415.66 641.71"
fill="none" stroke="black" stroke-width="0.5"/>
<path d="M376.86 669.15L384.89 661.11"
fill="none" stroke="black" stroke-width="0.5"/>
<path d="M396.26 649.74L404.29 641.71"
fill="none" stroke="black" stroke-width="0.5"/>
<path d="M415.66 630.34L416.23 629.77"
fill="none" stroke="black" stroke-width="0.5"/>
<path d="M370.77 663.87L373.53 661.11"
fill="none" stroke="black" stroke-width="0.5"/>
<path d="M384.89 649.74L392.93 641.71"
fill="none" stroke="black" stroke-width="0.5"/>
<path d="M404.29 630.34L412.33 622.31"
fill="none" stroke="black" stroke-width="0.5"/>
<path d="M373.53 649.74L381.56 641.71"
fill="none" stroke="black" stroke-width="0.5"/>
<path d="M392.93 630.34L400.97 622.31"
fill="none" stroke="black" stroke-width="0.5"/>
<path d="M412.33 610.94L416.23 607.04"
fill="none" stroke="black" stroke-width="0.5"/>
<path d="M381.56 630.34L389.6 622.31"
fill="none" stroke="black" stroke-width="0.5"/>
<path d="M400.97 610.94L409 602.9"
fill="none" stroke="black" stroke-width="0.5"/>
<path d="M370.77 629.77L378.23 622.31"
fill="none" stroke="black" stroke-width="0.5"/>
<path d="M389.6 610.94L397.64 602.9"
fill="none" stroke="black" stroke-width="0.5"/>
<path d="M409 591.54L416.23 584.31"
fill="none" stroke="black" stroke-width="0.5"/>
<path d="M378.23 610.94L386.27 602.9"
fill="none" stroke="black" stroke-width="0.5"/>
<path d="M397.64 591.54L405.67 583.5"
fill="none" stroke="black" stroke-width="0.5"/>
<path d="M370.77 607.04L374.91 602.9"
fill="none" stroke="black" stroke-width="0.5"/>
<path d="M386.27 591.54L394.31 583.5"
fill="none" stroke="black" stroke-width="0.5"/>
<path d="M405.67 572.14L413.71 564.1"
fill="none" stroke="black" stroke-width="0.5"/>
<path d="M374.91 591.54L382.94 583.5"
fill="none" stroke="black" stroke-width="0.5"/>
<path d="M394.31 572.14L402.34 564.1"
fill="none" stroke="black" stroke-width="0.5"/>
<path d="M413.71 552.73L416.23 550.21"
fill="none" stroke="black" stroke-width="0.5"/>
<path d="M370.77 584.31L371.58 583.5"
fill="none" stroke="black" stroke-width="0.5"/>
<path d="M382.94 572.14L390.98 564.1"
fill="none" stroke="black" stroke-width="0.5"/>
<path d="M402.34 552.73L410.38 544.7"
fill="none" stroke="black" stroke-width="0.5"/>
<path d="M371.58 572.14L379.61 564.1"
fill="none" stroke="black" stroke-width="0.5"/>
<path d="M390.98 552.73L399.01 544.7"
fill="none" stroke="black" stroke-width="0.5"/>
<path d="M410.38 533.33L416.23 527.48"
fill="none" stroke="black" stroke-width="0.5"/>
<path d="M379.61 552.73L387.65 544.7"
fill="none" stroke="black" stroke-width="0.5"/>
<path d="M399.01 533.33L407.05 525.3"
fill="none" stroke="black" stroke-width="0.5"/>
<path d="M370.77 550.21L376.28 544.7"
fill="none" stroke="black" stroke-width="0.5"/>
<path d="M387.65 533.33L395.69 525.3"
fill="none" stroke="black" stroke-width="0.5"/>
<path d="M407.05 513.93L415.09 505.89"
fill="none" stroke="black" stroke-width="0.5"/>
<path d="M376.28 533.33L384.32 525.3"
fill="none" stroke="black" stroke-width="0.5"/>
<path d="M395.69 513.93L403.72 505.89"
fill="none" stroke="black" stroke-width="0.5"/>
<path d="M415.09 494.53L416.23 493.38"
fill="none" stroke="black" stroke-width="0.5"/>
<path d="M370.77 527.48L372.96 525.3"
fill="none" stroke="black" stroke-width="0.5"/>
<path d="M384.32 513.93L392.36 505.89"
fill="none" stroke="black" stroke-width="0.5"/>
<path d="M403.72 494.53L411.76 486.49"
fill="none" stroke="black" stroke-width="0.5"/>
<path d="M372.96 513.93L380.99 505.89"
fill="none" stroke="black" stroke-width="0.5"/>
<path d="M392.36 494.53L400.39 486.49"
fill="none" stroke="black" stroke-width="0.5"/>
<path d="M411.76 475.13L416.23 470.65"
fill="none" stroke="black" stroke-width="0.5"/>
<path d="M380.99 494.53L389.03 486.49"
fill="none" stroke="black" stroke-width="0.5"/>
<path d="M400.39 475.13L408.43 467.09"
fill="none" stroke="black" stroke-width="0.5"/>
<path d="M370.77 493.39L377.66 486.49"
fill="none" stroke="black" stroke-width="0.5"/>
<path d="M389.03 475.13L397.07 467.09"
fill="none" stroke="black" stroke-width="0.5"/>
<path d="M408.43 455.72L416.23 447.92"
fill="none" stroke="black" stroke-width="0.5"/>
<path d="M377.66 475.13L385.7 467.09"
fill="none" stroke="black" stroke-width="0.5"/>
<path d="M397.07 455.72L405.1 447.69"
fill="none" stroke="black" stroke-width="0.5"/>
<path d="M370.77 470.65L374.33 467.09"
fill="none" stroke="black" stroke-width="0.5"/>
<path d="M385.7 455.72L393.74 447.69"
fill="none" stroke="black" stroke-width="0.5"/>
<path d="M405.1 436.32L413.14 428.29"
fill="none" stroke="black" stroke-width="0.5"/>
<path d="M374.33 455.72L382.37 447.69"
fill="none" stroke="black" stroke-width="0.5"/>
<path d="M393.74 436.32L401.77 428.29"
fill="none" stroke="black" stroke-width="0.5"/>
<path d="M413.14 416.92L416.23 413.83"
fill="none" stroke="black" stroke-width="0.5"/>
<path d="M370.77 447.92L371 447.69"
fill="none" stroke="black" stroke-width="0.5"/>
<path d="M382.37 436.32L390.41 428.29"
fill="none" stroke="black" stroke-width="0.5"/>
<path d="M401.77 416.92L409.81 408.88"
fill="none" stroke="black" stroke-width="0.5"/>
<path d="M371 436.32L379.04 428.29"
fill="none" stroke="black" stroke-width="0.5"/>
<path d="M390.41 416.92L398.44 408.88"
fill="none" stroke="black" stroke-width="0.5"/>
<path d="M409.81 397.52L416.23 391.1"
fill="none" stroke="black" stroke-width="0.5"/>
<path d="M379.04 416.92L387.08 408.88"
fill="none" stroke="black" stroke-width="0.5"/>
<path d="M398.44 397.52L406.48 389.48"
fill="none" stroke="black" stroke-width="0.5"/>
<path d="M370.77 413.83L375.71 408.88"
fill="none" stroke="black" stroke-width="0.5"/>
<path d="M387.08 397.52L395.11 389.48"
fill="none" stroke="black" stroke-width="0.5"/>
<path d="M406.48 378.12L414.52 370.08"
fill="none" stroke="black" stroke-width="0.5"/>
<path d="M375.71 397.52L383.75 389.48"
fill="none" stroke="black" stroke-width="0.5"/>
<path d="M395.11 378.12L403.15 370.08"
fill="none" stroke="black" stroke-width="0.5"/>
<path d="M414.52 358.71L416.23 357"
fill="none" stroke="black" stroke-width="0.5"/>
<path d="M370.77 391.1L372.38 389.48"
fill="none" stroke="black" stroke-width="0.5"/>
<path d="M383.75 378.12L391.79 370.08"
fill="none" stroke="black" stroke-width="0.5"/>
<path d="M403.15 358.71L411.19 350.68"
fill="none" stroke="black" stroke-width="0.5"/>
<path d="M372.38 378.12L380.42 370.08"
fill="none" stroke="black" stroke-width="0.5"/>
<path d="M391.79 358.71L399.82 350.68"
fill="none" stroke="black" stroke-width="0.5"/>
<path d="M411.19 339.31L416.23 334.27"
fill="none" stroke="black" stroke-width="0.5"/>
<path d="M380.42 358.71L388.46 350.68"
fill="none" stroke="black" stroke-width="0.5"/>
<path d="M399.82 339.31L407.86 331.28"
fill="none" stroke="black" stroke-width="0.5"/>
<path d="M370.77 357L377.09 350.68"
fill="none" stroke="black" stroke-width="0.5"/>
<path d="M388.46 339.31L396.49 331.28"
fill="none" stroke="black" stroke-width="0.5"/>
<path d="M407.86 319.91L415.9 311.87"
fill="none" stroke="black" stroke-width="0.5"/>
<path d="M377.09 339.31L385.13 331.28"
fill="none" stroke="black" stroke-width="0.5"/>
<path d="M396.49 319.91L404.53 311.87"
fill="none" stroke="black" stroke-width="0.5"/>
<path d="M415.9 300.51L416.23 300.17"
fill="none" stroke="black" stroke-width="0.5"/>
<path d="M370.77 334.27L373.76 331.28"
fill="none" stroke="black" stroke-width="0.5"/>
<path d="M385.13 319.91L393.16 311.87"
fill="none" stroke="black" stroke-width="0.5"/>
<path d="M404.53 300.51L412.57 292.47"
fill="none" stroke="black" stroke-width="0.5"/>
<path d="M373.76 319.91L381.8 311.87"
fill="none" stroke="black" stroke-width="0.5"/>
<path d="M393.16 300.51L401.2 292.47"
fill="none" stroke="black" stroke-width="0.5"/>
<path d="M412.57 281.11L416.23 277.44"
fill="none" stroke="black" stroke-width="0.5"/>
<path d="M381.8 300.51L389.84 292.47"
fill="none" stroke="black" stroke-width="0.5"/>
<path d="M401.2 281.11L409.24 273.07"
fill="none" stroke="black" stroke-width="0.5"/>
<path d="M370.77 300.17L378.47 292.47"
fill="none" stroke="black" stroke-width="0.5"/>
<path d="M389.84 281.11L397.87 273.07"
fill="none" stroke="black" stroke-width="0.5"/>
<path d="M409.24 261.7L416.23 254.71"
fill="none" stroke="black" stroke-width="0.5"/>
<path d="M378.47 281.11L386.51 273.07"
fill="none" stroke="black" stroke-width="0.5"/>
<path d="M397.87 261.7L405.91 253.67"
fill="none" stroke="black" stroke-width="0.5"/>
<path d="M370.77 277.44L375.14 273.07"
fill="none" stroke="black" stroke-width="0.5"/>
<path d="M386.51 261.7L394.54 253.67"
fill="none" stroke="black" stroke-width="0.5"/>
<path d="M405.91 242.3L413.95 234.27"
fill="none" stroke="black" stroke-width="0.5"/>
<path d="M375.14 261.7L383.18 253.67"
fill="none" stroke="black" stroke-width="0.5"/>
<path d="M394.54 242.3L402.58 234.27"
fill="none" stroke="black" stroke-width="0.5"/>
<path d="M413.95 222.9L416.23 220.62"
fill="none" stroke="black" stroke-width="0.5"/>
<path d="M370.77 254.71L371.81 253.67"
fill="none" stroke="black" stroke-width="0.5"/>
<path d="M383.18 242.3L391.22 234.27"
fill="none" stroke="black" stroke-width="0.5"/>
<path d="M402.58 222.9L410.62 214.86"
fill="none" stroke="black" stroke-width="0.5"/>
<path d="M371.81 242.3L379.85 234.27"
fill="none" stroke="black" stroke-width="0.5"/>
<path d="M391.22 222.9L399.25 214.86"
fill="none" stroke="black" stroke-width="0.5"/>
<path d="M410.62 203.5L416.23 197.88"
fill="none" stroke="black" stroke-width="0.5"/>
<path d="M379.85 222.9L387.89 214.86"
fill="none" stroke="black" stroke-width="0.5"/>
<path d="M399.25 203.5L407.29 195.46"
fill="none" stroke="black" stroke-width="0.5"/>
<path d="M370.77 220.62L376.52 214.86"
fill="none" stroke="black" stroke-width="0.5"/>
<path d="M387.89 203.5L395.92 195.46"
fill="none" stroke="black" stroke-width="0.5"/>
<path d="M407.29 184.1L415.32 176.06"
fill="none" stroke="black" stroke-width="0.5"/>
<path d="M376.52 203.5L384.56 195.46"
fill="none" stroke="black" stroke-width="0.5"/>
<path d="M395.92 184.1L403.96 176.06"
fill="none" stroke="black" stroke-width="0.5"/>
<path d="M415.32 164.7L416.23 163.79"
fill="none" stroke="black" stroke-width="0.5"/>
<path d="M370.77 197.89L373.19 195.46"
fill="none" stroke="black" stroke-width="0.5"/>
<path d="M384.56 184.1L392.59 176.06"
fill="none" stroke="black" stroke-width="0.5"/>
<path d="M403.96 164.7L412 156.66"
fill="none" stroke="black" stroke-width="0.5"/>
<path d="M373.19 184.1L381.23 176.06"
fill="none" stroke="black" stroke-width="0.5"/>
<path d="M392.59 164.7L400.63 156.66"
fill="none" stroke="black" stroke-width="0.5"/>
<path d="M412 145.29L416.23 141.06"
fill="none" stroke="black" stroke-width="0.5"/>
<path d="M381.23 164.7L389.26 156.66"
fill="none" stroke="black" stroke-width="0.5"/>
<path d="M400.63 145.29L408.67 137.26"
fill="none" stroke="black" stroke-width="0.5"/>
<path d="M370.77 163.79L377.9 156.66"
fill="none" stroke="black" stroke-width="0.5"/>
<path d="M389.26 145.29L397.3 137.26"
fill="none" stroke="black" stroke-width="0.5"/>
<path d="M408.67 125.89L416.23 118.33"
fill="none" stroke="black" stroke-width="0.5"/>
<path d="M377.9 145.29L385.94 137.26"
fill="none" stroke="black" stroke-width="0.5"/>
<path d="M397.3 125.89L405.34 117.85"
fill="none" stroke="black" stroke-width="0.5"/>
<path d="M370.77 141.06L374.57 137.26"
fill="none" stroke="black" stroke-width="0.5"/>
<path d="M385.94 125.89L393.97 117.85"
fill="none" stroke="black" stroke-width="0.5"/>
<path d="M405.34 106.49L413.37 98.45"
fill="none" stroke="black" stroke-width="0.5"/>
<path d="M374.57 125.89L382.61 117.85"
fill="none" stroke="black" stroke-width="0.5"/>
<path d="M393.97 106.49L402.01 98.45"
fill="none" stroke="black" stroke-width="0.5"/>
<path d="M413.37 87.09L416.23 84.23"
fill="none" stroke="black" stroke-width="0.5"/>
<path d="M370.77 118.33L371.24 117.85"
fill="none" stroke="black" stroke-width="0.5"/>
<path d="M382.61 106.49L390.64 98.45"
fill="none" stroke="black" stroke-width="0.5"/>
<path d="M402.01 87.09L410.05 79.05"
fill="none" stroke="black" stroke-width="0.5"/>
<path d="M371.24 106.49L379.28 98.45"
fill="none" stroke="black" stroke-width="0.5"/>
<path d="M390.64 87.09L398.68 79.05"
fill="none" stroke="black" stroke-width="0.5"/>
<path d="M410.05 67.69L416.23 61.5"
fill="none" stroke="black" stroke-width="0.5"/>
<path d="M379.28 87.09L387.32 79.05"
fill="none" stroke="black" stroke-width="0.5"/>
<path d="M398.68 67.69L406.72 59.65"
fill="none" stroke="black" stroke-width="0.5"/>
<path d="M370.77 84.23L375.95 79.05"
fill="none" stroke="black" stroke-width="0.5"/>
<path d="M387.32 67.69L395.35 59.65"
fill="none" stroke="black" stroke-width="0.5"/>
<path d="M406.72 48.28L414.75 40.25"
fill="none" stroke="black" stroke-width="0.5"/>
<path d="M375.95 67.69L383.99 59.65"
fill="none" stroke="black" stroke-width="0.5"/>
<path d="M395.35 48.28L403.39 40.25"
fill="none" stroke="black" stroke-width="0.5"/>
<path d="M414.75 28.88L416.23 27.4"
fill="none" stroke="black" stroke-width="0.5"/>
<path d="M370.77 61.5L372.62 59.65"
fill="none" stroke="black" stroke-width="0.5"/>
<path d="M383.99 48.28L392.02 40.25"
fill="none" stroke="black" stroke-width="0.5"/>
<path d="M403.39 28.88L411.42 20.85"
fill="none" stroke="black" stroke-width="0.5"/>
<path d="M372.62 48.28L380.66 40.25"
fill="none" stroke="black" stroke-width="0.5"/>
<path d="M392.02 28.88L400.06 20.85"
fill="none" stroke="black" stroke-width="0.5"/>
<path d="M411.42 9.48L416.23 4.67"
fill="none" stroke="black" stroke-width="0.5"/>
<path d="M380.66 28.88L388.69 20.85"
fill="none" stroke="black" stroke-width="0.5"/>
<path d="M400.06 9.48L408.1 1.44"
fill="none" stroke="black" stroke-width="0.5"/>
<path d="M370.77 27.4L377.33 20.85"
fill="none" stroke="black" stroke-width="0.5"/>
<path d="M388.69 9.48L396.73 1.44"
fill="none" stroke="black" stroke-width="0.5"/>
<path d="M377.33 9.48L385.36 1.44"
fill="none" stroke="black" stroke-width="0.5"/>
<path d="M370.77 4.67L374 1.44"
fill="none" stroke="black" stroke-width="0.5"/>
</svg>
