<?xml version="1.0" encoding="UTF-8"?>
<svg xmlns="http://www.w3.org/2000/svg" width="99.949mm" height="99.949mm" viewBox="0.0 0.0 787.000 787.000" preserveAspectRatio="none" version="1.1">
  <title>Produce by Acme CAD Converter</title>
  <desc>Produce by Acme CAD Converter</desc>
<path d="M1.44 534.53L198.88 534.53"
fill="none" stroke="black" stroke-width="0.5"/>
<path d="M452.73 534.53L650.17 534.53"
fill="none" stroke="black" stroke-width="0.5"/>
<path d="M1.44 252.47L198.88 252.47"
fill="none" stroke="black" stroke-width="0.5"/>
<path d="M452.73 252.47L650.17 252.47"
fill="none" stroke="black" stroke-width="0.5"/>
<path d="M317.34 526.07L334.27 526.07"
fill="none" stroke="black" stroke-width="0.5"/>
<path d="M768.63 526.07L785.56 526.07"
fill="none" stroke="black" stroke-width="0.5"/>
<path d="M317.34 244.01L334.27 244.01"
fill="none" stroke="black" stroke-width="0.5"/>
<path d="M768.63 244.01L785.56 244.01"
fill="none" stroke="black" stroke-width="0.5"/>
<path d="M317.34 542.99L334.27 542.99"
fill="none" stroke="black" stroke-width="0.5"/>
<path d="M768.63 542.99L785.56 542.99"
fill="none" stroke="black" stroke-width="0.5"/>
<path d="M317.34 260.93L334.27 260.93"
fill="none" stroke="black" stroke-width="0.5"/>
<path d="M768.63 260.93L785.56 260.93"
fill="none" stroke="black" stroke-width="0.5"/>
<path d="M768.63 542.99L768.63 526.07"
fill="none" stroke="black" stroke-width="0.5"/>
<path d="M768.63 260.93L768.63 244.01"
fill="none" stroke="black" stroke-width="0.5"/>
<path d="M317.34 542.99L317.34 526.07"
fill="none" stroke="black" stroke-width="0.5"/>
<path d="M317.34 260.93L317.34 244.01"
fill="none" stroke="black" stroke-width="0.5"/>
<path d="M785.56 542.99L785.56 526.07"
fill="none" stroke="black" stroke-width="0.5"/>
<path d="M785.56 260.93L785.56 244.01"
fill="none" stroke="black" stroke-width="0.5"/>
<path d="M334.27 542.99L334.27 526.07"
fill="none" stroke="black" stroke-width="0.5"/>
<path d="M334.27 260.93L334.27 244.01"
fill="none" stroke="black" stroke-width="0.5"/>
</svg>
