<?xml version="1.0" encoding="UTF-8"?>
<svg xmlns="http://www.w3.org/2000/svg" width="99.949mm" height="99.949mm" viewBox="0.0 0.0 787.000 787.000" preserveAspectRatio="none" version="1.1">
  <title>Produce by Acme CAD Converter</title>
  <desc>Produce by Acme CAD Converter</desc>
<path d="M64.38 590.18L156.17 590.18"
fill="none" stroke="black" stroke-width="0.5"/>
<path d="M274.18 590.18L365.96 590.18"
fill="none" stroke="black" stroke-width="0.5"/>
<path d="M483.97 590.18L575.76 590.18"
fill="none" stroke="black" stroke-width="0.5"/>
<path d="M693.77 590.18L785.56 590.18"
fill="none" stroke="black" stroke-width="0.5"/>
<path d="M64.38 459.06L156.17 459.06"
fill="none" stroke="black" stroke-width="0.5"/>
<path d="M274.18 459.06L365.96 459.06"
fill="none" stroke="black" stroke-width="0.5"/>
<path d="M483.97 459.06L575.76 459.06"
fill="none" stroke="black" stroke-width="0.5"/>
<path d="M693.77 459.06L785.56 459.06"
fill="none" stroke="black" stroke-width="0.5"/>
<path d="M64.38 327.94L156.17 327.94"
fill="none" stroke="black" stroke-width="0.5"/>
<path d="M274.18 327.94L365.96 327.94"
fill="none" stroke="black" stroke-width="0.5"/>
<path d="M483.97 327.94L575.76 327.94"
fill="none" stroke="black" stroke-width="0.5"/>
<path d="M693.77 327.94L785.56 327.94"
fill="none" stroke="black" stroke-width="0.5"/>
<path d="M64.38 196.82L156.17 196.82"
fill="none" stroke="black" stroke-width="0.5"/>
<path d="M274.18 196.82L365.96 196.82"
fill="none" stroke="black" stroke-width="0.5"/>
<path d="M483.97 196.82L575.76 196.82"
fill="none" stroke="black" stroke-width="0.5"/>
<path d="M693.77 196.82L785.56 196.82"
fill="none" stroke="black" stroke-width="0.5"/>
<path d="M1.44 586.25L9.31 586.25"
fill="none" stroke="black" stroke-width="0.5"/>
<path d="M211.24 586.25L219.11 586.25"
fill="none" stroke="black" stroke-width="0.5"/>
<path d="M421.04 586.25L428.9 586.25"
fill="none" stroke="black" stroke-width="0.5"/>
<path d="M630.83 586.25L638.7 586.25"
fill="none" stroke="black" stroke-width="0.5"/>
<path d="M1.44 455.13L9.31 455.13"
fill="none" stroke="black" stroke-width="0.5"/>
<path d="M211.24 455.13L219.11 455.13"
fill="none" stroke="black" stroke-width="0.5"/>
<path d="M421.04 455.13L428.9 455.13"
fill="none" stroke="black" stroke-width="0.5"/>
<path d="M630.83 455.13L638.7 455.13"
fill="none" stroke="black" stroke-width="0.5"/>
<path d="M1.44 324L9.31 324"
fill="none" stroke="black" stroke-width="0.5"/>
<path d="M211.24 324L219.11 324"
fill="none" stroke="black" stroke-width="0.5"/>
<path d="M421.04 324L428.9 324"
fill="none" stroke="black" stroke-width="0.5"/>
<path d="M630.83 324L638.7 324"
fill="none" stroke="black" stroke-width="0.5"/>
<path d="M1.44 192.88L9.31 192.88"
fill="none" stroke="black" stroke-width="0.5"/>
<path d="M211.24 192.88L219.11 192.88"
fill="none" stroke="black" stroke-width="0.5"/>
<path d="M421.04 192.88L428.9 192.88"
fill="none" stroke="black" stroke-width="0.5"/>
<path d="M630.83 192.88L638.7 192.88"
fill="none" stroke="black" stroke-width="0.5"/>
<path d="M1.44 594.12L9.31 594.12"
fill="none" stroke="black" stroke-width="0.5"/>
<path d="M211.24 594.12L219.11 594.12"
fill="none" stroke="black" stroke-width="0.5"/>
<path d="M421.04 594.12L428.9 594.12"
fill="none" stroke="black" stroke-width="0.5"/>
<path d="M630.83 594.12L638.7 594.12"
fill="none" stroke="black" stroke-width="0.5"/>
<path d="M1.44 463L9.31 463"
fill="none" stroke="black" stroke-width="0.5"/>
<path d="M211.24 463L219.11 463"
fill="none" stroke="black" stroke-width="0.5"/>
<path d="M421.04 463L428.9 463"
fill="none" stroke="black" stroke-width="0.5"/>
<path d="M630.83 463L638.7 463"
fill="none" stroke="black" stroke-width="0.5"/>
<path d="M1.44 331.87L9.31 331.87"
fill="none" stroke="black" stroke-width="0.5"/>
<path d="M211.24 331.87L219.11 331.87"
fill="none" stroke="black" stroke-width="0.5"/>
<path d="M421.04 331.87L428.9 331.87"
fill="none" stroke="black" stroke-width="0.5"/>
<path d="M630.83 331.87L638.7 331.87"
fill="none" stroke="black" stroke-width="0.5"/>
<path d="M1.44 200.75L9.31 200.75"
fill="none" stroke="black" stroke-width="0.5"/>
<path d="M211.24 200.75L219.11 200.75"
fill="none" stroke="black" stroke-width="0.5"/>
<path d="M421.04 200.75L428.9 200.75"
fill="none" stroke="black" stroke-width="0.5"/>
<path d="M630.83 200.75L638.7 200.75"
fill="none" stroke="black" stroke-width="0.5"/>
<path d="M630.83 594.12L630.83 586.25"
fill="none" stroke="black" stroke-width="0.5"/>
<path d="M630.83 463L630.83 455.13"
fill="none" stroke="black" stroke-width="0.5"/>
<path d="M630.83 331.87L630.83 324"
fill="none" stroke="black" stroke-width="0.5"/>
<path d="M630.83 200.75L630.83 192.88"
fill="none" stroke="black" stroke-width="0.5"/>
<path d="M421.04 594.12L421.04 586.25"
fill="none" stroke="black" stroke-width="0.5"/>
<path d="M421.04 463L421.04 455.13"
fill="none" stroke="black" stroke-width="0.5"/>
<path d="M421.04 331.87L421.04 324"
fill="none" stroke="black" stroke-width="0.5"/>
<path d="M421.04 200.75L421.04 192.88"
fill="none" stroke="black" stroke-width="0.5"/>
<path d="M211.24 594.12L211.24 586.25"
fill="none" stroke="black" stroke-width="0.5"/>
<path d="M211.24 463L211.24 455.13"
fill="none" stroke="black" stroke-width="0.5"/>
<path d="M211.24 331.87L211.24 324"
fill="none" stroke="black" stroke-width="0.5"/>
<path d="M211.24 200.75L211.24 192.88"
fill="none" stroke="black" stroke-width="0.5"/>
<path d="M1.44 594.12L1.44 586.25"
fill="none" stroke="black" stroke-width="0.5"/>
<path d="M1.44 463L1.44 455.13"
fill="none" stroke="black" stroke-width="0.5"/>
<path d="M1.44 331.87L1.44 324"
fill="none" stroke="black" stroke-width="0.5"/>
<path d="M1.44 200.75L1.44 192.88"
fill="none" stroke="black" stroke-width="0.5"/>
<path d="M638.7 594.12L638.7 586.25"
fill="none" stroke="black" stroke-width="0.5"/>
<path d="M638.7 463L638.7 455.13"
fill="none" stroke="black" stroke-width="0.5"/>
<path d="M638.7 331.87L638.7 324"
fill="none" stroke="black" stroke-width="0.5"/>
<path d="M638.7 200.75L638.7 192.88"
fill="none" stroke="black" stroke-width="0.5"/>
<path d="M428.9 594.12L428.9 586.25"
fill="none" stroke="black" stroke-width="0.5"/>
<path d="M428.9 463L428.9 455.13"
fill="none" stroke="black" stroke-width="0.5"/>
<path d="M428.9 331.87L428.9 324"
fill="none" stroke="black" stroke-width="0.5"/>
<path d="M428.9 200.75L428.9 192.88"
fill="none" stroke="black" stroke-width="0.5"/>
<path d="M219.11 594.12L219.11 586.25"
fill="none" stroke="black" stroke-width="0.5"/>
<path d="M219.11 463L219.11 455.13"
fill="none" stroke="black" stroke-width="0.5"/>
<path d="M219.11 331.87L219.11 324"
fill="none" stroke="black" stroke-width="0.5"/>
<path d="M219.11 200.75L219.11 192.88"
fill="none" stroke="black" stroke-width="0.5"/>
<path d="M9.31 594.12L9.31 586.25"
fill="none" stroke="black" stroke-width="0.5"/>
<path d="M9.31 463L9.31 455.13"
fill="none" stroke="black" stroke-width="0.5"/>
<path d="M9.31 331.87L9.31 324"
fill="none" stroke="black" stroke-width="0.5"/>
<path d="M9.31 200.75L9.31 192.88"
fill="none" stroke="black" stroke-width="0.5"/>
<path d="M149.61 524.62L280.73 524.62"
fill="none" stroke="black" stroke-width="0.5"/>
<path d="M569.2 524.62L700.33 524.62"
fill="none" stroke="black" stroke-width="0.5"/>
<path d="M149.61 262.38L280.73 262.38"
fill="none" stroke="black" stroke-width="0.5"/>
<path d="M569.2 262.38L700.33 262.38"
fill="none" stroke="black" stroke-width="0.5"/>
</svg>
