<?xml version="1.0" encoding="UTF-8"?>
<svg xmlns="http://www.w3.org/2000/svg" width="99.949mm" height="99.949mm" viewBox="0.0 0.0 787.000 787.000" preserveAspectRatio="none" version="1.1">
  <title>Produce by Acme CAD Converter</title>
  <desc>Produce by Acme CAD Converter</desc>
<path d="M64.38 590.18L156.17 590.18"
fill="none" stroke="black" stroke-width="0.5"/>
<path d="M274.18 590.18L365.96 590.18"
fill="none" stroke="black" stroke-width="0.5"/>
<path d="M483.97 590.18L575.76 590.18"
fill="none" stroke="black" stroke-width="0.5"/>
<path d="M693.77 590.18L785.56 590.18"
fill="none" stroke="black" stroke-width="0.5"/>
<path d="M64.38 459.06L156.17 459.06"
fill="none" stroke="black" stroke-width="0.5"/>
<path d="M274.18 459.06L365.96 459.06"
fill="none" stroke="black" stroke-width="0.5"/>
<path d="M483.97 459.06L575.76 459.06"
fill="none" stroke="black" stroke-width="0.5"/>
<path d="M693.77 459.06L785.56 459.06"
fill="none" stroke="black" stroke-width="0.5"/>
<path d="M64.38 327.94L156.17 327.94"
fill="none" stroke="black" stroke-width="0.5"/>
<path d="M274.18 327.94L365.96 327.94"
fill="none" stroke="black" stroke-width="0.5"/>
<path d="M483.97 327.94L575.76 327.94"
fill="none" stroke="black" stroke-width="0.5"/>
<path d="M693.77 327.94L785.56 327.94"
fill="none" stroke="black" stroke-width="0.5"/>
<path d="M64.38 196.82L156.17 196.82"
fill="none" stroke="black" stroke-width="0.5"/>
<path d="M274.18 196.82L365.96 196.82"
fill="none" stroke="black" stroke-width="0.5"/>
<path d="M483.97 196.82L575.76 196.82"
fill="none" stroke="black" stroke-width="0.5"/>
<path d="M693.77 196.82L785.56 196.82"
fill="none" stroke="black" stroke-width="0.5"/>
<path d="M1.44 586.25L9.31 586.25"
fill="none" stroke="black" stroke-width="0.5"/>
<path d="M211.24 586.25L219.11 586.25"
fill="none" stroke="black" stroke-width="0.5"/>
<path d="M421.04 586.25L428.9 586.25"
fill="none" stroke="black" stroke-width="0.5"/>
<path d="M630.83 586.25L638.7 586.25"
fill="none" stroke="black" stroke-width="0.5"/>
<path d="M1.44 455.13L9.31 455.13"
fill="none" stroke="black" stroke-width="0.5"/>
<path d="M211.24 455.13L219.11 455.13"
fill="none" stroke="black" stroke-width="0.5"/>
<path d="M421.04 455.13L428.9 455.13"
fill="none" stroke="black" stroke-width="0.5"/>
<path d="M630.83 455.13L638.7 455.13"
fill="none" stroke="black" stroke-width="0.5"/>
<path d="M1.44 324L9.31 324"
fill="none" stroke="black" stroke-width="0.5"/>
<path d="M211.24 324L219.11 324"
fill="none" stroke="black" stroke-width="0.5"/>
<path d="M421.04 324L428.9 324"
fill="none" stroke="black" stroke-width="0.5"/>
<path d="M630.83 324L638.7 324"
fill="none" stroke="black" stroke-width="0.5"/>
<path d="M1.44 192.88L9.31 192.88"
fill="none" stroke="black" stroke-width="0.5"/>
<path d="M211.24 192.88L219.11 192.88"
fill="none" stroke="black" stroke-width="0.5"/>
<path d="M421.04 192.88L428.9 192.88"
fill="none" stroke="black" stroke-width="0.5"/>
<path d="M630.83 192.88L638.7 192.88"
fill="none" stroke="black" stroke-width="0.5"/>
<path d="M1.44 594.12L9.31 594.12"
fill="none" stroke="black" stroke-width="0.5"/>
<path d="M211.24 594.12L219.11 594.12"
fill="none" stroke="black" stroke-width="0.5"/>
<path d="M421.04 594.12L428.9 594.12"
fill="none" stroke="black" stroke-width="0.5"/>
<path d="M630.83 594.12L638.7 594.12"
fill="none" stroke="black" stroke-width="0.5"/>
<path d="M1.44 463L9.31 463"
fill="none" stroke="black" stroke-width="0.5"/>
<path d="M211.24 463L219.11 463"
fill="none" stroke="black" stroke-width="0.5"/>
<path d="M421.04 463L428.9 463"
fill="none" stroke="black" stroke-width="0.5"/>
<path d="M630.83 463L638.7 463"
fill="none" stroke="black" stroke-width="0.5"/>
<path d="M1.44 331.87L9.31 331.87"
fill="none" stroke="black" stroke-width="0.5"/>
<path d="M211.24 331.87L219.11 331.87"
fill="none" stroke="black" stroke-width="0.5"/>
<path d="M421.04 331.87L428.9 331.87"
fill="none" stroke="black" stroke-width="0.5"/>
<path d="M630.83 331.87L638.7 331.87"
fill="none" stroke="black" stroke-width="0.5"/>
<path d="M1.44 200.75L9.31 200.75"
fill="none" stroke="black" stroke-width="0.5"/>
<path d="M211.24 200.75L219.11 200.75"
fill="none" stroke="black" stroke-width="0.5"/>
<path d="M421.04 200.75L428.9 200.75"
fill="none" stroke="black" stroke-width="0.5"/>
<path d="M630.83 200.75L638.7 200.75"
fill="none" stroke="black" stroke-width="0.5"/>
<path d="M630.83 594.12L630.83 586.25"
fill="none" stroke="black" stroke-width="0.5"/>
<path d="M630.83 463L630.83 455.13"
fill="none" stroke="black" stroke-width="0.5"/>
<path d="M630.83 331.87L630.83 324"
fill="none" stroke="black" stroke-width="0.5"/>
<path d="M630.83 200.75L630.83 192.88"
fill="none" stroke="black" stroke-width="0.5"/>
<path d="M421.04 594.12L421.04 586.25"
fill="none" stroke="black" stroke-width="0.5"/>
<path d="M421.04 463L421.04 455.13"
fill="none" stroke="black" stroke-width="0.5"/>
<path d="M421.04 331.87L421.04 324"
fill="none" stroke="black" stroke-width="0.5"/>
<path d="M421.04 200.75L421.04 192.88"
fill="none" stroke="black" stroke-width="0.5"/>
<path d="M211.24 594.12L211.24 586.25"
fill="none" stroke="black" stroke-width="0.5"/>
<path d="M211.24 463L211.24 455.13"
fill="none" stroke="black" stroke-width="0.5"/>
<path d="M211.24 331.87L211.24 324"
fill="none" stroke="black" stroke-width="0.5"/>
<path d="M211.24 200.75L211.24 192.88"
fill="none" stroke="black" stroke-width="0.5"/>
<path d="M1.44 594.12L1.44 586.25"
fill="none" stroke="black" stroke-width="0.5"/>
<path d="M1.44 463L1.44 455.13"
fill="none" stroke="black" stroke-width="0.5"/>
<path d="M1.44 331.87L1.44 324"
fill="none" stroke="black" stroke-width="0.5"/>
<path d="M1.44 200.75L1.44 192.88"
fill="none" stroke="black" stroke-width="0.5"/>
<path d="M638.7 594.12L638.7 586.25"
fill="none" stroke="black" stroke-width="0.5"/>
<path d="M638.7 463L638.7 455.13"
fill="none" stroke="black" stroke-width="0.5"/>
<path d="M638.7 331.87L638.7 324"
fill="none" stroke="black" stroke-width="0.5"/>
<path d="M638.7 200.75L638.7 192.88"
fill="none" stroke="black" stroke-width="0.5"/>
<path d="M428.9 594.12L428.9 586.25"
fill="none" stroke="black" stroke-width="0.5"/>
<path d="M428.9 463L428.9 455.13"
fill="none" stroke="black" stroke-width="0.5"/>
<path d="M428.9 331.87L428.9 324"
fill="none" stroke="black" stroke-width="0.5"/>
<path d="M428.9 200.75L428.9 192.88"
fill="none" stroke="black" stroke-width="0.5"/>
<path d="M219.11 594.12L219.11 586.25"
fill="none" stroke="black" stroke-width="0.5"/>
<path d="M219.11 463L219.11 455.13"
fill="none" stroke="black" stroke-width="0.5"/>
<path d="M219.11 331.87L219.11 324"
fill="none" stroke="black" stroke-width="0.5"/>
<path d="M219.11 200.75L219.11 192.88"
fill="none" stroke="black" stroke-width="0.5"/>
<path d="M9.31 594.12L9.31 586.25"
fill="none" stroke="black" stroke-width="0.5"/>
<path d="M9.31 463L9.31 455.13"
fill="none" stroke="black" stroke-width="0.5"/>
<path d="M9.31 331.87L9.31 324"
fill="none" stroke="black" stroke-width="0.5"/>
<path d="M9.31 200.75L9.31 192.88"
fill="none" stroke="black" stroke-width="0.5"/>
<path d="M204.99 563.96L225.35 563.96"
fill="none" stroke="black" stroke-width="0.5"/>
<path d="M624.59 563.96L644.95 563.96"
fill="none" stroke="black" stroke-width="0.5"/>
<path d="M204.99 301.71L225.35 301.71"
fill="none" stroke="black" stroke-width="0.5"/>
<path d="M624.59 301.71L644.95 301.71"
fill="none" stroke="black" stroke-width="0.5"/>
<path d="M204.99 485.29L225.35 485.29"
fill="none" stroke="black" stroke-width="0.5"/>
<path d="M624.59 485.29L644.95 485.29"
fill="none" stroke="black" stroke-width="0.5"/>
<path d="M204.99 223.04L225.35 223.04"
fill="none" stroke="black" stroke-width="0.5"/>
<path d="M624.59 223.04L644.95 223.04"
fill="none" stroke="black" stroke-width="0.5"/>
<path d="M595.43 534.8L595.43 514.44"
fill="none" stroke="black" stroke-width="0.5"/>
<path d="M595.43 272.56L595.43 252.2"
fill="none" stroke="black" stroke-width="0.5"/>
<path d="M175.84 534.8L175.84 514.44"
fill="none" stroke="black" stroke-width="0.5"/>
<path d="M175.84 272.56L175.84 252.2"
fill="none" stroke="black" stroke-width="0.5"/>
<path d="M674.1 534.8L674.1 514.44"
fill="none" stroke="black" stroke-width="0.5"/>
<path d="M674.1 272.56L674.1 252.2"
fill="none" stroke="black" stroke-width="0.5"/>
<path d="M254.51 534.8L254.51 514.44"
fill="none" stroke="black" stroke-width="0.5"/>
<path d="M254.51 272.56L254.51 252.2"
fill="none" stroke="black" stroke-width="0.5"/>
<path d="M644.95 563.96L663.5 553.36"
fill="none" stroke="black" stroke-width="0.5"/>
<path d="M225.35 563.96L243.91 553.36"
fill="none" stroke="black" stroke-width="0.5"/>
<path d="M644.95 301.71L663.5 291.11"
fill="none" stroke="black" stroke-width="0.5"/>
<path d="M225.35 301.71L243.91 291.11"
fill="none" stroke="black" stroke-width="0.5"/>
<path d="M254.51 272.56L243.91 291.11"
fill="none" stroke="black" stroke-width="0.5"/>
<path d="M254.51 534.8L243.91 553.36"
fill="none" stroke="black" stroke-width="0.5"/>
<path d="M674.1 272.56L663.5 291.11"
fill="none" stroke="black" stroke-width="0.5"/>
<path d="M674.1 534.8L663.5 553.36"
fill="none" stroke="black" stroke-width="0.5"/>
<path d="M674.1 252.2L663.5 233.64"
fill="none" stroke="black" stroke-width="0.5"/>
<path d="M674.1 514.44L663.5 495.89"
fill="none" stroke="black" stroke-width="0.5"/>
<path d="M254.51 252.2L243.91 233.64"
fill="none" stroke="black" stroke-width="0.5"/>
<path d="M254.51 514.44L243.91 495.89"
fill="none" stroke="black" stroke-width="0.5"/>
<path d="M225.35 485.29L243.91 495.89"
fill="none" stroke="black" stroke-width="0.5"/>
<path d="M644.95 485.29L663.5 495.89"
fill="none" stroke="black" stroke-width="0.5"/>
<path d="M225.35 223.04L243.91 233.64"
fill="none" stroke="black" stroke-width="0.5"/>
<path d="M644.95 223.04L663.5 233.64"
fill="none" stroke="black" stroke-width="0.5"/>
<path d="M204.99 223.04L186.44 233.64"
fill="none" stroke="black" stroke-width="0.5"/>
<path d="M624.59 223.04L606.03 233.64"
fill="none" stroke="black" stroke-width="0.5"/>
<path d="M204.99 485.29L186.44 495.89"
fill="none" stroke="black" stroke-width="0.5"/>
<path d="M624.59 485.29L606.03 495.89"
fill="none" stroke="black" stroke-width="0.5"/>
<path d="M595.43 514.44L606.03 495.89"
fill="none" stroke="black" stroke-width="0.5"/>
<path d="M595.43 252.2L606.03 233.64"
fill="none" stroke="black" stroke-width="0.5"/>
<path d="M175.84 514.44L186.44 495.89"
fill="none" stroke="black" stroke-width="0.5"/>
<path d="M175.84 252.2L186.44 233.64"
fill="none" stroke="black" stroke-width="0.5"/>
<path d="M175.84 534.8L186.44 553.36"
fill="none" stroke="black" stroke-width="0.5"/>
<path d="M175.84 272.56L186.44 291.11"
fill="none" stroke="black" stroke-width="0.5"/>
<path d="M595.43 534.8L606.03 553.36"
fill="none" stroke="black" stroke-width="0.5"/>
<path d="M595.43 272.56L606.03 291.11"
fill="none" stroke="black" stroke-width="0.5"/>
<path d="M624.59 301.71L606.03 291.11"
fill="none" stroke="black" stroke-width="0.5"/>
<path d="M204.99 301.71L186.44 291.11"
fill="none" stroke="black" stroke-width="0.5"/>
<path d="M624.59 563.96L606.03 553.36"
fill="none" stroke="black" stroke-width="0.5"/>
<path d="M204.99 563.96L186.44 553.36"
fill="none" stroke="black" stroke-width="0.5"/>
</svg>
