<?xml version="1.0" encoding="UTF-8"?>
<svg xmlns="http://www.w3.org/2000/svg" width="99.949mm" height="99.949mm" viewBox="0.0 0.0 787.000 787.000" preserveAspectRatio="none" version="1.1">
  <title>Produce by Acme CAD Converter</title>
  <desc>Produce by Acme CAD Converter</desc>
<path d="M509.47 781.31L514.23 772.17"
fill="none" stroke="black" stroke-width="0.5"/>
<path d="M598.54 610.21L603.3 601.07"
fill="none" stroke="black" stroke-width="0.5"/>
<path d="M780.81 260.09L785.56 250.96"
fill="none" stroke="black" stroke-width="0.5"/>
<path d="M277.31 528.27L282.06 519.14"
fill="none" stroke="black" stroke-width="0.5"/>
<path d="M367.97 354.12L372.72 344.99"
fill="none" stroke="black" stroke-width="0.5"/>
<path d="M457.04 183.02L461.79 173.89"
fill="none" stroke="black" stroke-width="0.5"/>
<path d="M135.8 101.08L140.55 91.95"
fill="none" stroke="black" stroke-width="0.5"/>
<path d="M500.34 776.55L505.1 767.42"
fill="none" stroke="black" stroke-width="0.5"/>
<path d="M589.41 605.45L594.16 596.32"
fill="none" stroke="black" stroke-width="0.5"/>
<path d="M771.67 255.34L776.43 246.21"
fill="none" stroke="black" stroke-width="0.5"/>
<path d="M268.18 523.52L272.93 514.38"
fill="none" stroke="black" stroke-width="0.5"/>
<path d="M358.83 349.37L363.59 340.24"
fill="none" stroke="black" stroke-width="0.5"/>
<path d="M447.9 178.27L452.66 169.14"
fill="none" stroke="black" stroke-width="0.5"/>
<path d="M126.66 96.33L131.42 87.19"
fill="none" stroke="black" stroke-width="0.5"/>
<path d="M367.97 354.12L358.83 349.37"
fill="none" stroke="black" stroke-width="0.5"/>
<path d="M509.47 781.31L500.34 776.55"
fill="none" stroke="black" stroke-width="0.5"/>
<path d="M372.72 344.99L363.59 340.24"
fill="none" stroke="black" stroke-width="0.5"/>
<path d="M514.23 772.17L505.1 767.42"
fill="none" stroke="black" stroke-width="0.5"/>
<path d="M457.04 183.02L447.9 178.27"
fill="none" stroke="black" stroke-width="0.5"/>
<path d="M598.54 610.21L589.41 605.45"
fill="none" stroke="black" stroke-width="0.5"/>
<path d="M461.79 173.89L452.66 169.14"
fill="none" stroke="black" stroke-width="0.5"/>
<path d="M603.3 601.07L594.16 596.32"
fill="none" stroke="black" stroke-width="0.5"/>
<path d="M780.81 260.09L771.67 255.34"
fill="none" stroke="black" stroke-width="0.5"/>
<path d="M135.8 101.08L126.66 96.33"
fill="none" stroke="black" stroke-width="0.5"/>
<path d="M277.31 528.27L268.18 523.52"
fill="none" stroke="black" stroke-width="0.5"/>
<path d="M785.56 250.96L776.43 246.21"
fill="none" stroke="black" stroke-width="0.5"/>
<path d="M140.55 91.95L131.42 87.19"
fill="none" stroke="black" stroke-width="0.5"/>
<path d="M282.06 519.14L272.93 514.38"
fill="none" stroke="black" stroke-width="0.5"/>
<path d="M739.35 628.31L747.52 622.04"
fill="none" stroke="black" stroke-width="0.5"/>
<path d="M134.99 685.3L143.16 679.03"
fill="none" stroke="black" stroke-width="0.5"/>
<path d="M431.79 457.54L439.96 451.27"
fill="none" stroke="black" stroke-width="0.5"/>
<path d="M711.73 242.75L719.9 236.48"
fill="none" stroke="black" stroke-width="0.5"/>
<path d="M107.36 299.73L115.53 293.46"
fill="none" stroke="black" stroke-width="0.5"/>
<path d="M404.17 71.97L412.35 65.71"
fill="none" stroke="black" stroke-width="0.5"/>
<path d="M733.08 620.14L741.25 613.88"
fill="none" stroke="black" stroke-width="0.5"/>
<path d="M128.72 677.13L136.89 670.86"
fill="none" stroke="black" stroke-width="0.5"/>
<path d="M425.53 449.37L433.7 443.1"
fill="none" stroke="black" stroke-width="0.5"/>
<path d="M705.46 234.58L713.63 228.31"
fill="none" stroke="black" stroke-width="0.5"/>
<path d="M101.1 291.56L109.27 285.29"
fill="none" stroke="black" stroke-width="0.5"/>
<path d="M397.9 63.8L406.07 57.54"
fill="none" stroke="black" stroke-width="0.5"/>
<path d="M711.73 242.75L705.46 234.58"
fill="none" stroke="black" stroke-width="0.5"/>
<path d="M739.35 628.31L733.08 620.14"
fill="none" stroke="black" stroke-width="0.5"/>
<path d="M719.9 236.48L713.63 228.31"
fill="none" stroke="black" stroke-width="0.5"/>
<path d="M747.52 622.04L741.25 613.88"
fill="none" stroke="black" stroke-width="0.5"/>
<path d="M107.36 299.73L101.1 291.56"
fill="none" stroke="black" stroke-width="0.5"/>
<path d="M134.99 685.3L128.72 677.13"
fill="none" stroke="black" stroke-width="0.5"/>
<path d="M115.53 293.46L109.27 285.29"
fill="none" stroke="black" stroke-width="0.5"/>
<path d="M143.16 679.03L136.89 670.86"
fill="none" stroke="black" stroke-width="0.5"/>
<path d="M404.17 71.97L397.9 63.8"
fill="none" stroke="black" stroke-width="0.5"/>
<path d="M431.79 457.54L425.53 449.37"
fill="none" stroke="black" stroke-width="0.5"/>
<path d="M412.35 65.71L406.07 57.54"
fill="none" stroke="black" stroke-width="0.5"/>
<path d="M439.96 451.27L433.7 443.1"
fill="none" stroke="black" stroke-width="0.5"/>
<path d="M678.07 783.78L688.28 782.43"
fill="none" stroke="black" stroke-width="0.5"/>
<path d="M143.44 597.91L153.65 596.56"
fill="none" stroke="black" stroke-width="0.5"/>
<path d="M267.89 581.52L278.1 580.18"
fill="none" stroke="black" stroke-width="0.5"/>
<path d="M459.14 556.35L469.34 555"
fill="none" stroke="black" stroke-width="0.5"/>
<path d="M762.68 516.38L772.89 515.04"
fill="none" stroke="black" stroke-width="0.5"/>
<path d="M48.95 354.1L59.16 352.75"
fill="none" stroke="black" stroke-width="0.5"/>
<path d="M240.2 328.92L250.41 327.57"
fill="none" stroke="black" stroke-width="0.5"/>
<path d="M543.74 288.96L553.95 287.61"
fill="none" stroke="black" stroke-width="0.5"/>
<path d="M668.2 272.57L678.41 271.23"
fill="none" stroke="black" stroke-width="0.5"/>
<path d="M21.26 101.49L31.48 100.15"
fill="none" stroke="black" stroke-width="0.5"/>
<path d="M324.81 61.53L335.02 60.18"
fill="none" stroke="black" stroke-width="0.5"/>
<path d="M449.26 45.14L459.47 43.8"
fill="none" stroke="black" stroke-width="0.5"/>
<path d="M640.51 19.97L650.71 18.62"
fill="none" stroke="black" stroke-width="0.5"/>
<path d="M676.73 773.57L686.94 772.22"
fill="none" stroke="black" stroke-width="0.5"/>
<path d="M142.09 587.7L152.3 586.36"
fill="none" stroke="black" stroke-width="0.5"/>
<path d="M266.55 571.31L276.76 569.97"
fill="none" stroke="black" stroke-width="0.5"/>
<path d="M457.79 546.14L468 544.8"
fill="none" stroke="black" stroke-width="0.5"/>
<path d="M761.34 506.18L771.55 504.83"
fill="none" stroke="black" stroke-width="0.5"/>
<path d="M47.61 343.89L57.82 342.54"
fill="none" stroke="black" stroke-width="0.5"/>
<path d="M238.86 318.71L249.06 317.36"
fill="none" stroke="black" stroke-width="0.5"/>
<path d="M542.4 278.74L552.61 277.41"
fill="none" stroke="black" stroke-width="0.5"/>
<path d="M666.85 262.36L677.06 261.02"
fill="none" stroke="black" stroke-width="0.5"/>
<path d="M19.92 91.28L30.13 89.94"
fill="none" stroke="black" stroke-width="0.5"/>
<path d="M323.46 51.32L333.67 49.97"
fill="none" stroke="black" stroke-width="0.5"/>
<path d="M447.92 34.93L458.13 33.59"
fill="none" stroke="black" stroke-width="0.5"/>
<path d="M639.16 9.75L649.37 8.41"
fill="none" stroke="black" stroke-width="0.5"/>
<path d="M668.14 272.58L666.8 262.37"
fill="none" stroke="black" stroke-width="0.5"/>
<path d="M449.22 45.15L447.88 34.94"
fill="none" stroke="black" stroke-width="0.5"/>
<path d="M267.86 581.53L266.52 571.32"
fill="none" stroke="black" stroke-width="0.5"/>
<path d="M48.94 354.1L47.59 343.89"
fill="none" stroke="black" stroke-width="0.5"/>
<path d="M678.35 271.23L677.01 261.03"
fill="none" stroke="black" stroke-width="0.5"/>
<path d="M459.43 43.8L458.09 33.59"
fill="none" stroke="black" stroke-width="0.5"/>
<path d="M278.07 580.18L276.73 569.98"
fill="none" stroke="black" stroke-width="0.5"/>
<path d="M59.15 352.75L57.8 342.54"
fill="none" stroke="black" stroke-width="0.5"/>
<path d="M640.47 19.97L639.12 9.76"
fill="none" stroke="black" stroke-width="0.5"/>
<path d="M678.03 783.78L676.68 773.57"
fill="none" stroke="black" stroke-width="0.5"/>
<path d="M459.11 556.35L457.76 546.14"
fill="none" stroke="black" stroke-width="0.5"/>
<path d="M240.19 328.92L238.84 318.71"
fill="none" stroke="black" stroke-width="0.5"/>
<path d="M21.26 101.49L19.92 91.28"
fill="none" stroke="black" stroke-width="0.5"/>
<path d="M650.67 18.63L649.33 8.41"
fill="none" stroke="black" stroke-width="0.5"/>
<path d="M688.24 782.44L686.9 772.23"
fill="none" stroke="black" stroke-width="0.5"/>
<path d="M469.32 555L467.97 544.8"
fill="none" stroke="black" stroke-width="0.5"/>
<path d="M250.4 327.58L249.05 317.36"
fill="none" stroke="black" stroke-width="0.5"/>
<path d="M31.48 100.15L30.13 89.94"
fill="none" stroke="black" stroke-width="0.5"/>
<path d="M762.65 516.39L761.31 506.18"
fill="none" stroke="black" stroke-width="0.5"/>
<path d="M543.73 288.96L542.38 278.75"
fill="none" stroke="black" stroke-width="0.5"/>
<path d="M324.81 61.53L323.46 51.32"
fill="none" stroke="black" stroke-width="0.5"/>
<path d="M143.45 597.91L142.11 587.7"
fill="none" stroke="black" stroke-width="0.5"/>
<path d="M772.86 515.05L771.52 504.84"
fill="none" stroke="black" stroke-width="0.5"/>
<path d="M553.94 287.61L552.6 277.41"
fill="none" stroke="black" stroke-width="0.5"/>
<path d="M335.02 60.18L333.67 49.97"
fill="none" stroke="black" stroke-width="0.5"/>
<path d="M153.66 596.56L152.31 586.36"
fill="none" stroke="black" stroke-width="0.5"/>
<path d="M213.45 452.73L222.13 458.26"
fill="none" stroke="black" stroke-width="0.5"/>
<path d="M320.55 520.96L329.24 526.5"
fill="none" stroke="black" stroke-width="0.5"/>
<path d="M479.77 622.39L488.46 627.92"
fill="none" stroke="black" stroke-width="0.5"/>
<path d="M171.29 16.14L179.98 21.67"
fill="none" stroke="black" stroke-width="0.5"/>
<path d="M278.4 84.37L287.09 89.9"
fill="none" stroke="black" stroke-width="0.5"/>
<path d="M437.62 185.8L446.3 191.34"
fill="none" stroke="black" stroke-width="0.5"/>
<path d="M218.98 444.04L227.67 449.57"
fill="none" stroke="black" stroke-width="0.5"/>
<path d="M326.09 512.28L334.77 517.81"
fill="none" stroke="black" stroke-width="0.5"/>
<path d="M485.3 613.7L493.99 619.24"
fill="none" stroke="black" stroke-width="0.5"/>
<path d="M176.83 7.45L185.51 12.99"
fill="none" stroke="black" stroke-width="0.5"/>
<path d="M283.94 75.69L292.62 81.22"
fill="none" stroke="black" stroke-width="0.5"/>
<path d="M443.15 177.12L451.83 182.65"
fill="none" stroke="black" stroke-width="0.5"/>
<path d="M213.45 452.73L218.98 444.04"
fill="none" stroke="black" stroke-width="0.5"/>
<path d="M171.29 16.14L176.83 7.45"
fill="none" stroke="black" stroke-width="0.5"/>
<path d="M222.13 458.26L227.67 449.57"
fill="none" stroke="black" stroke-width="0.5"/>
<path d="M179.98 21.67L185.51 12.99"
fill="none" stroke="black" stroke-width="0.5"/>
<path d="M320.55 520.96L326.09 512.28"
fill="none" stroke="black" stroke-width="0.5"/>
<path d="M278.4 84.37L283.94 75.69"
fill="none" stroke="black" stroke-width="0.5"/>
<path d="M329.24 526.5L334.77 517.81"
fill="none" stroke="black" stroke-width="0.5"/>
<path d="M287.09 89.9L292.62 81.22"
fill="none" stroke="black" stroke-width="0.5"/>
<path d="M479.77 622.39L485.3 613.7"
fill="none" stroke="black" stroke-width="0.5"/>
<path d="M437.62 185.8L443.15 177.12"
fill="none" stroke="black" stroke-width="0.5"/>
<path d="M488.46 627.92L493.99 619.24"
fill="none" stroke="black" stroke-width="0.5"/>
<path d="M446.3 191.34L451.83 182.65"
fill="none" stroke="black" stroke-width="0.5"/>
<path d="M1.44 497.22L9.04 504.18"
fill="none" stroke="black" stroke-width="0.5"/>
<path d="M224.85 701.93L232.44 708.89"
fill="none" stroke="black" stroke-width="0.5"/>
<path d="M280.52 752.95L288.11 759.9"
fill="none" stroke="black" stroke-width="0.5"/>
<path d="M359.46 77.25L367.05 84.21"
fill="none" stroke="black" stroke-width="0.5"/>
<path d="M415.13 128.27L422.73 135.22"
fill="none" stroke="black" stroke-width="0.5"/>
<path d="M612.01 308.67L619.6 315.63"
fill="none" stroke="black" stroke-width="0.5"/>
<path d="M8.4 489.63L16 496.59"
fill="none" stroke="black" stroke-width="0.5"/>
<path d="M231.8 694.34L239.39 701.3"
fill="none" stroke="black" stroke-width="0.5"/>
<path d="M287.47 745.35L295.06 752.31"
fill="none" stroke="black" stroke-width="0.5"/>
<path d="M366.42 69.66L374.01 76.62"
fill="none" stroke="black" stroke-width="0.5"/>
<path d="M422.09 120.68L429.68 127.63"
fill="none" stroke="black" stroke-width="0.5"/>
<path d="M618.97 301.08L626.56 308.04"
fill="none" stroke="black" stroke-width="0.5"/>
<path d="M224.85 701.93L231.8 694.34"
fill="none" stroke="black" stroke-width="0.5"/>
<path d="M359.46 77.25L366.42 69.66"
fill="none" stroke="black" stroke-width="0.5"/>
<path d="M232.44 708.89L239.39 701.3"
fill="none" stroke="black" stroke-width="0.5"/>
<path d="M367.05 84.21L374.01 76.62"
fill="none" stroke="black" stroke-width="0.5"/>
<path d="M280.52 752.95L287.47 745.35"
fill="none" stroke="black" stroke-width="0.5"/>
<path d="M415.13 128.27L422.09 120.68"
fill="none" stroke="black" stroke-width="0.5"/>
<path d="M288.11 759.9L295.06 752.31"
fill="none" stroke="black" stroke-width="0.5"/>
<path d="M422.73 135.22L429.68 127.63"
fill="none" stroke="black" stroke-width="0.5"/>
<path d="M612.01 308.67L618.97 301.08"
fill="none" stroke="black" stroke-width="0.5"/>
<path d="M1.44 497.22L8.4 489.63"
fill="none" stroke="black" stroke-width="0.5"/>
<path d="M619.6 315.63L626.56 308.04"
fill="none" stroke="black" stroke-width="0.5"/>
<path d="M9.04 504.18L16 496.59"
fill="none" stroke="black" stroke-width="0.5"/>
<path d="M84.62 4.56L85.97 14.77"
fill="none" stroke="black" stroke-width="0.5"/>
<path d="M98.06 106.65L99.4 116.86"
fill="none" stroke="black" stroke-width="0.5"/>
<path d="M149.58 497.99L150.93 508.2"
fill="none" stroke="black" stroke-width="0.5"/>
<path d="M174.9 690.31L176.24 700.51"
fill="none" stroke="black" stroke-width="0.5"/>
<path d="M307.92 105.07L309.27 115.28"
fill="none" stroke="black" stroke-width="0.5"/>
<path d="M333.25 297.39L334.58 307.6"
fill="none" stroke="black" stroke-width="0.5"/>
<path d="M346.68 399.48L348.03 409.69"
fill="none" stroke="black" stroke-width="0.5"/>
<path d="M505.03 6.57L506.37 16.77"
fill="none" stroke="black" stroke-width="0.5"/>
<path d="M556.55 397.91L557.89 408.11"
fill="none" stroke="black" stroke-width="0.5"/>
<path d="M581.86 590.22L583.21 600.43"
fill="none" stroke="black" stroke-width="0.5"/>
<path d="M595.3 692.31L596.65 702.52"
fill="none" stroke="black" stroke-width="0.5"/>
<path d="M714.89 4.99L716.23 15.2"
fill="none" stroke="black" stroke-width="0.5"/>
<path d="M740.21 197.3L741.55 207.52"
fill="none" stroke="black" stroke-width="0.5"/>
<path d="M753.65 299.39L754.99 309.6"
fill="none" stroke="black" stroke-width="0.5"/>
<path d="M94.83 3.22L96.17 13.43"
fill="none" stroke="black" stroke-width="0.5"/>
<path d="M108.27 105.31L109.62 115.52"
fill="none" stroke="black" stroke-width="0.5"/>
<path d="M159.79 496.65L161.14 506.86"
fill="none" stroke="black" stroke-width="0.5"/>
<path d="M185.11 688.96L186.45 699.17"
fill="none" stroke="black" stroke-width="0.5"/>
<path d="M318.13 103.73L319.48 113.94"
fill="none" stroke="black" stroke-width="0.5"/>
<path d="M343.45 296.05L344.8 306.26"
fill="none" stroke="black" stroke-width="0.5"/>
<path d="M356.89 398.13L358.23 408.34"
fill="none" stroke="black" stroke-width="0.5"/>
<path d="M515.23 5.22L516.58 15.43"
fill="none" stroke="black" stroke-width="0.5"/>
<path d="M566.75 396.56L568.1 406.77"
fill="none" stroke="black" stroke-width="0.5"/>
<path d="M592.08 588.87L593.42 599.08"
fill="none" stroke="black" stroke-width="0.5"/>
<path d="M605.51 690.97L606.86 701.17"
fill="none" stroke="black" stroke-width="0.5"/>
<path d="M725.1 3.64L726.44 13.85"
fill="none" stroke="black" stroke-width="0.5"/>
<path d="M750.42 195.96L751.76 206.17"
fill="none" stroke="black" stroke-width="0.5"/>
<path d="M763.86 298.05L765.2 308.25"
fill="none" stroke="black" stroke-width="0.5"/>
<path d="M174.9 690.31L185.11 688.96"
fill="none" stroke="black" stroke-width="0.5"/>
<path d="M581.86 590.22L592.08 588.87"
fill="none" stroke="black" stroke-width="0.5"/>
<path d="M333.25 297.39L343.45 296.05"
fill="none" stroke="black" stroke-width="0.5"/>
<path d="M740.21 197.3L750.42 195.96"
fill="none" stroke="black" stroke-width="0.5"/>
<path d="M84.62 4.56L94.83 3.22"
fill="none" stroke="black" stroke-width="0.5"/>
<path d="M176.24 700.51L186.45 699.17"
fill="none" stroke="black" stroke-width="0.5"/>
<path d="M583.21 600.43L593.42 599.08"
fill="none" stroke="black" stroke-width="0.5"/>
<path d="M334.58 307.6L344.8 306.26"
fill="none" stroke="black" stroke-width="0.5"/>
<path d="M741.55 207.52L751.76 206.17"
fill="none" stroke="black" stroke-width="0.5"/>
<path d="M85.97 14.77L96.17 13.43"
fill="none" stroke="black" stroke-width="0.5"/>
<path d="M595.3 692.31L605.51 690.97"
fill="none" stroke="black" stroke-width="0.5"/>
<path d="M346.68 399.48L356.89 398.13"
fill="none" stroke="black" stroke-width="0.5"/>
<path d="M753.65 299.39L763.86 298.05"
fill="none" stroke="black" stroke-width="0.5"/>
<path d="M98.06 106.65L108.27 105.31"
fill="none" stroke="black" stroke-width="0.5"/>
<path d="M505.03 6.57L515.23 5.22"
fill="none" stroke="black" stroke-width="0.5"/>
<path d="M596.65 702.52L606.86 701.17"
fill="none" stroke="black" stroke-width="0.5"/>
<path d="M348.03 409.69L358.23 408.34"
fill="none" stroke="black" stroke-width="0.5"/>
<path d="M754.99 309.6L765.2 308.25"
fill="none" stroke="black" stroke-width="0.5"/>
<path d="M99.4 116.86L109.62 115.52"
fill="none" stroke="black" stroke-width="0.5"/>
<path d="M506.37 16.77L516.58 15.43"
fill="none" stroke="black" stroke-width="0.5"/>
<path d="M149.58 497.99L159.79 496.65"
fill="none" stroke="black" stroke-width="0.5"/>
<path d="M556.55 397.91L566.75 396.56"
fill="none" stroke="black" stroke-width="0.5"/>
<path d="M307.92 105.07L318.13 103.73"
fill="none" stroke="black" stroke-width="0.5"/>
<path d="M714.89 4.99L725.1 3.64"
fill="none" stroke="black" stroke-width="0.5"/>
<path d="M150.93 508.2L161.14 506.86"
fill="none" stroke="black" stroke-width="0.5"/>
<path d="M557.89 408.11L568.1 406.77"
fill="none" stroke="black" stroke-width="0.5"/>
<path d="M309.27 115.28L319.48 113.94"
fill="none" stroke="black" stroke-width="0.5"/>
<path d="M716.23 15.2L726.44 13.85"
fill="none" stroke="black" stroke-width="0.5"/>
</svg>
