<?xml version="1.0" encoding="UTF-8"?>
<svg xmlns="http://www.w3.org/2000/svg" width="99.949mm" height="99.949mm" viewBox="0.0 0.0 787.000 787.000" preserveAspectRatio="none" version="1.1">
  <title>Produce by Acme CAD Converter</title>
  <desc>Produce by Acme CAD Converter</desc>
<path d="M1.44 663.04L50.45 663.04"
fill="none" stroke="black" stroke-width="0.5"/>
<path d="M491.51 663.04L540.52 663.04"
fill="none" stroke="black" stroke-width="0.5"/>
<path d="M246.48 172.97L295.49 172.97"
fill="none" stroke="black" stroke-width="0.5"/>
<path d="M736.55 172.97L785.56 172.97"
fill="none" stroke="black" stroke-width="0.5"/>
<path d="M1.44 614.03L50.45 614.03"
fill="none" stroke="black" stroke-width="0.5"/>
<path d="M491.51 614.03L540.52 614.03"
fill="none" stroke="black" stroke-width="0.5"/>
<path d="M246.48 123.96L295.49 123.96"
fill="none" stroke="black" stroke-width="0.5"/>
<path d="M736.55 123.96L785.56 123.96"
fill="none" stroke="black" stroke-width="0.5"/>
<path d="M736.55 172.97L736.55 123.96"
fill="none" stroke="black" stroke-width="0.5"/>
<path d="M491.51 663.04L491.51 614.03"
fill="none" stroke="black" stroke-width="0.5"/>
<path d="M246.48 172.97L246.48 123.96"
fill="none" stroke="black" stroke-width="0.5"/>
<path d="M1.44 663.04L1.44 614.03"
fill="none" stroke="black" stroke-width="0.5"/>
<path d="M785.56 172.97L785.56 123.96"
fill="none" stroke="black" stroke-width="0.5"/>
<path d="M540.52 663.04L540.52 614.03"
fill="none" stroke="black" stroke-width="0.5"/>
<path d="M295.49 172.97L295.49 123.96"
fill="none" stroke="black" stroke-width="0.5"/>
<path d="M50.45 663.04L50.45 614.03"
fill="none" stroke="black" stroke-width="0.5"/>
</svg>
