<?xml version="1.0" encoding="UTF-8"?>
<svg xmlns="http://www.w3.org/2000/svg" width="99.949mm" height="99.949mm" viewBox="0.0 0.0 787.000 787.000" preserveAspectRatio="none" version="1.1">
  <title>Produce by Acme CAD Converter</title>
  <desc>Produce by Acme CAD Converter</desc>
<path d="M195.05 785.56L204.73 785.56"
fill="none" stroke="black" stroke-width="0.5"/>
<path d="M453.2 785.56L462.88 785.56"
fill="none" stroke="black" stroke-width="0.5"/>
<path d="M324.12 527.41L333.8 527.41"
fill="none" stroke="black" stroke-width="0.5"/>
<path d="M582.27 527.41L591.95 527.41"
fill="none" stroke="black" stroke-width="0.5"/>
<path d="M195.05 269.27L204.73 269.27"
fill="none" stroke="black" stroke-width="0.5"/>
<path d="M453.2 269.27L462.88 269.27"
fill="none" stroke="black" stroke-width="0.5"/>
<path d="M324.12 11.12L333.8 11.12"
fill="none" stroke="black" stroke-width="0.5"/>
<path d="M582.27 11.12L591.95 11.12"
fill="none" stroke="black" stroke-width="0.5"/>
<path d="M195.05 775.88L204.73 775.88"
fill="none" stroke="black" stroke-width="0.5"/>
<path d="M453.2 775.88L462.88 775.88"
fill="none" stroke="black" stroke-width="0.5"/>
<path d="M324.12 517.73L333.8 517.73"
fill="none" stroke="black" stroke-width="0.5"/>
<path d="M582.27 517.73L591.95 517.73"
fill="none" stroke="black" stroke-width="0.5"/>
<path d="M195.05 259.59L204.73 259.59"
fill="none" stroke="black" stroke-width="0.5"/>
<path d="M453.2 259.59L462.88 259.59"
fill="none" stroke="black" stroke-width="0.5"/>
<path d="M324.12 1.44L333.8 1.44"
fill="none" stroke="black" stroke-width="0.5"/>
<path d="M582.27 1.44L591.95 1.44"
fill="none" stroke="black" stroke-width="0.5"/>
<path d="M582.27 527.41L582.27 517.73"
fill="none" stroke="black" stroke-width="0.5"/>
<path d="M582.27 11.12L582.27 1.44"
fill="none" stroke="black" stroke-width="0.5"/>
<path d="M453.2 785.56L453.2 775.88"
fill="none" stroke="black" stroke-width="0.5"/>
<path d="M453.2 269.27L453.2 259.59"
fill="none" stroke="black" stroke-width="0.5"/>
<path d="M324.12 527.41L324.12 517.73"
fill="none" stroke="black" stroke-width="0.5"/>
<path d="M324.12 11.12L324.12 1.44"
fill="none" stroke="black" stroke-width="0.5"/>
<path d="M195.05 785.56L195.05 775.88"
fill="none" stroke="black" stroke-width="0.5"/>
<path d="M195.05 269.27L195.05 259.59"
fill="none" stroke="black" stroke-width="0.5"/>
<path d="M591.95 527.41L591.95 517.73"
fill="none" stroke="black" stroke-width="0.5"/>
<path d="M591.95 11.12L591.95 1.44"
fill="none" stroke="black" stroke-width="0.5"/>
<path d="M462.88 785.56L462.88 775.88"
fill="none" stroke="black" stroke-width="0.5"/>
<path d="M462.88 269.27L462.88 259.59"
fill="none" stroke="black" stroke-width="0.5"/>
<path d="M333.8 527.41L333.8 517.73"
fill="none" stroke="black" stroke-width="0.5"/>
<path d="M333.8 11.12L333.8 1.44"
fill="none" stroke="black" stroke-width="0.5"/>
<path d="M204.73 785.56L204.73 775.88"
fill="none" stroke="black" stroke-width="0.5"/>
<path d="M204.73 269.27L204.73 259.59"
fill="none" stroke="black" stroke-width="0.5"/>
</svg>
