<?xml version="1.0" encoding="UTF-8"?>
<svg xmlns="http://www.w3.org/2000/svg" width="99.949mm" height="99.949mm" viewBox="0.0 0.0 787.000 787.000" preserveAspectRatio="none" version="1.1">
  <title>Produce by Acme CAD Converter</title>
  <desc>Produce by Acme CAD Converter</desc>
<path d="M1.44 785.56L17.89 785.56"
fill="none" stroke="black" stroke-width="0.5"/>
<path d="M111.11 785.56L127.56 785.56"
fill="none" stroke="black" stroke-width="0.5"/>
<path d="M220.78 785.56L237.23 785.56"
fill="none" stroke="black" stroke-width="0.5"/>
<path d="M330.44 785.56L346.89 785.56"
fill="none" stroke="black" stroke-width="0.5"/>
<path d="M440.11 785.56L456.56 785.56"
fill="none" stroke="black" stroke-width="0.5"/>
<path d="M549.77 785.56L566.22 785.56"
fill="none" stroke="black" stroke-width="0.5"/>
<path d="M659.44 785.56L675.89 785.56"
fill="none" stroke="black" stroke-width="0.5"/>
<path d="M769.11 785.56L785.56 785.56"
fill="none" stroke="black" stroke-width="0.5"/>
<path d="M1.44 346.89L17.89 346.89"
fill="none" stroke="black" stroke-width="0.5"/>
<path d="M111.11 346.89L127.56 346.89"
fill="none" stroke="black" stroke-width="0.5"/>
<path d="M220.78 346.89L237.23 346.89"
fill="none" stroke="black" stroke-width="0.5"/>
<path d="M330.44 346.89L346.89 346.89"
fill="none" stroke="black" stroke-width="0.5"/>
<path d="M440.11 346.89L456.56 346.89"
fill="none" stroke="black" stroke-width="0.5"/>
<path d="M549.77 346.89L566.22 346.89"
fill="none" stroke="black" stroke-width="0.5"/>
<path d="M659.44 346.89L675.89 346.89"
fill="none" stroke="black" stroke-width="0.5"/>
<path d="M769.11 346.89L785.56 346.89"
fill="none" stroke="black" stroke-width="0.5"/>
<path d="M1.44 769.11L17.89 769.11"
fill="none" stroke="black" stroke-width="0.5"/>
<path d="M111.11 769.11L127.56 769.11"
fill="none" stroke="black" stroke-width="0.5"/>
<path d="M220.78 769.11L237.23 769.11"
fill="none" stroke="black" stroke-width="0.5"/>
<path d="M330.44 769.11L346.89 769.11"
fill="none" stroke="black" stroke-width="0.5"/>
<path d="M440.11 769.11L456.56 769.11"
fill="none" stroke="black" stroke-width="0.5"/>
<path d="M549.77 769.11L566.22 769.11"
fill="none" stroke="black" stroke-width="0.5"/>
<path d="M659.44 769.11L675.89 769.11"
fill="none" stroke="black" stroke-width="0.5"/>
<path d="M769.11 769.11L785.56 769.11"
fill="none" stroke="black" stroke-width="0.5"/>
<path d="M1.44 330.44L17.89 330.44"
fill="none" stroke="black" stroke-width="0.5"/>
<path d="M111.11 330.44L127.56 330.44"
fill="none" stroke="black" stroke-width="0.5"/>
<path d="M220.78 330.44L237.23 330.44"
fill="none" stroke="black" stroke-width="0.5"/>
<path d="M330.44 330.44L346.89 330.44"
fill="none" stroke="black" stroke-width="0.5"/>
<path d="M440.11 330.44L456.56 330.44"
fill="none" stroke="black" stroke-width="0.5"/>
<path d="M549.77 330.44L566.22 330.44"
fill="none" stroke="black" stroke-width="0.5"/>
<path d="M659.44 330.44L675.89 330.44"
fill="none" stroke="black" stroke-width="0.5"/>
<path d="M769.11 330.44L785.56 330.44"
fill="none" stroke="black" stroke-width="0.5"/>
<path d="M769.11 785.56L769.11 769.11"
fill="none" stroke="black" stroke-width="0.5"/>
<path d="M769.11 346.89L769.11 330.44"
fill="none" stroke="black" stroke-width="0.5"/>
<path d="M659.44 785.56L659.44 769.11"
fill="none" stroke="black" stroke-width="0.5"/>
<path d="M659.44 346.89L659.44 330.44"
fill="none" stroke="black" stroke-width="0.5"/>
<path d="M549.77 785.56L549.77 769.11"
fill="none" stroke="black" stroke-width="0.5"/>
<path d="M549.77 346.89L549.77 330.44"
fill="none" stroke="black" stroke-width="0.5"/>
<path d="M440.11 785.56L440.11 769.11"
fill="none" stroke="black" stroke-width="0.5"/>
<path d="M440.11 346.89L440.11 330.44"
fill="none" stroke="black" stroke-width="0.5"/>
<path d="M330.44 785.56L330.44 769.11"
fill="none" stroke="black" stroke-width="0.5"/>
<path d="M330.44 346.89L330.44 330.44"
fill="none" stroke="black" stroke-width="0.5"/>
<path d="M220.78 785.56L220.78 769.11"
fill="none" stroke="black" stroke-width="0.5"/>
<path d="M220.78 346.89L220.78 330.44"
fill="none" stroke="black" stroke-width="0.5"/>
<path d="M111.11 785.56L111.11 769.11"
fill="none" stroke="black" stroke-width="0.5"/>
<path d="M111.11 346.89L111.11 330.44"
fill="none" stroke="black" stroke-width="0.5"/>
<path d="M1.44 785.56L1.44 769.11"
fill="none" stroke="black" stroke-width="0.5"/>
<path d="M1.44 346.89L1.44 330.44"
fill="none" stroke="black" stroke-width="0.5"/>
<path d="M785.56 785.56L785.56 769.11"
fill="none" stroke="black" stroke-width="0.5"/>
<path d="M785.56 346.89L785.56 330.44"
fill="none" stroke="black" stroke-width="0.5"/>
<path d="M675.89 785.56L675.89 769.11"
fill="none" stroke="black" stroke-width="0.5"/>
<path d="M675.89 346.89L675.89 330.44"
fill="none" stroke="black" stroke-width="0.5"/>
<path d="M566.22 785.56L566.22 769.11"
fill="none" stroke="black" stroke-width="0.5"/>
<path d="M566.22 346.89L566.22 330.44"
fill="none" stroke="black" stroke-width="0.5"/>
<path d="M456.56 785.56L456.56 769.11"
fill="none" stroke="black" stroke-width="0.5"/>
<path d="M456.56 346.89L456.56 330.44"
fill="none" stroke="black" stroke-width="0.5"/>
<path d="M346.89 785.56L346.89 769.11"
fill="none" stroke="black" stroke-width="0.5"/>
<path d="M346.89 346.89L346.89 330.44"
fill="none" stroke="black" stroke-width="0.5"/>
<path d="M237.23 785.56L237.23 769.11"
fill="none" stroke="black" stroke-width="0.5"/>
<path d="M237.23 346.89L237.23 330.44"
fill="none" stroke="black" stroke-width="0.5"/>
<path d="M127.56 785.56L127.56 769.11"
fill="none" stroke="black" stroke-width="0.5"/>
<path d="M127.56 346.89L127.56 330.44"
fill="none" stroke="black" stroke-width="0.5"/>
<path d="M17.89 785.56L17.89 769.11"
fill="none" stroke="black" stroke-width="0.5"/>
<path d="M17.89 346.89L17.89 330.44"
fill="none" stroke="black" stroke-width="0.5"/>
<path d="M56.28 675.89L72.73 675.89"
fill="none" stroke="black" stroke-width="0.5"/>
<path d="M275.61 675.89L292.06 675.89"
fill="none" stroke="black" stroke-width="0.5"/>
<path d="M494.94 675.89L511.39 675.89"
fill="none" stroke="black" stroke-width="0.5"/>
<path d="M714.27 675.89L730.72 675.89"
fill="none" stroke="black" stroke-width="0.5"/>
<path d="M56.28 456.56L72.73 456.56"
fill="none" stroke="black" stroke-width="0.5"/>
<path d="M275.61 456.56L292.06 456.56"
fill="none" stroke="black" stroke-width="0.5"/>
<path d="M494.94 456.56L511.39 456.56"
fill="none" stroke="black" stroke-width="0.5"/>
<path d="M714.27 456.56L730.72 456.56"
fill="none" stroke="black" stroke-width="0.5"/>
<path d="M56.28 237.23L72.73 237.23"
fill="none" stroke="black" stroke-width="0.5"/>
<path d="M275.61 237.23L292.06 237.23"
fill="none" stroke="black" stroke-width="0.5"/>
<path d="M494.94 237.23L511.39 237.23"
fill="none" stroke="black" stroke-width="0.5"/>
<path d="M714.27 237.23L730.72 237.23"
fill="none" stroke="black" stroke-width="0.5"/>
<path d="M56.28 17.89L72.73 17.89"
fill="none" stroke="black" stroke-width="0.5"/>
<path d="M275.61 17.89L292.06 17.89"
fill="none" stroke="black" stroke-width="0.5"/>
<path d="M494.94 17.89L511.39 17.89"
fill="none" stroke="black" stroke-width="0.5"/>
<path d="M714.27 17.89L730.72 17.89"
fill="none" stroke="black" stroke-width="0.5"/>
<path d="M56.28 659.44L72.73 659.44"
fill="none" stroke="black" stroke-width="0.5"/>
<path d="M275.61 659.44L292.06 659.44"
fill="none" stroke="black" stroke-width="0.5"/>
<path d="M494.94 659.44L511.39 659.44"
fill="none" stroke="black" stroke-width="0.5"/>
<path d="M714.27 659.44L730.72 659.44"
fill="none" stroke="black" stroke-width="0.5"/>
<path d="M56.28 440.11L72.73 440.11"
fill="none" stroke="black" stroke-width="0.5"/>
<path d="M275.61 440.11L292.06 440.11"
fill="none" stroke="black" stroke-width="0.5"/>
<path d="M494.94 440.11L511.39 440.11"
fill="none" stroke="black" stroke-width="0.5"/>
<path d="M714.27 440.11L730.72 440.11"
fill="none" stroke="black" stroke-width="0.5"/>
<path d="M56.28 220.78L72.73 220.78"
fill="none" stroke="black" stroke-width="0.5"/>
<path d="M275.61 220.78L292.06 220.78"
fill="none" stroke="black" stroke-width="0.5"/>
<path d="M494.94 220.78L511.39 220.78"
fill="none" stroke="black" stroke-width="0.5"/>
<path d="M714.27 220.78L730.72 220.78"
fill="none" stroke="black" stroke-width="0.5"/>
<path d="M56.28 1.44L72.73 1.44"
fill="none" stroke="black" stroke-width="0.5"/>
<path d="M275.61 1.44L292.06 1.44"
fill="none" stroke="black" stroke-width="0.5"/>
<path d="M494.94 1.44L511.39 1.44"
fill="none" stroke="black" stroke-width="0.5"/>
<path d="M714.27 1.44L730.72 1.44"
fill="none" stroke="black" stroke-width="0.5"/>
<path d="M714.27 675.89L714.27 659.44"
fill="none" stroke="black" stroke-width="0.5"/>
<path d="M714.27 456.56L714.27 440.11"
fill="none" stroke="black" stroke-width="0.5"/>
<path d="M714.27 237.23L714.27 220.78"
fill="none" stroke="black" stroke-width="0.5"/>
<path d="M714.27 17.89L714.27 1.44"
fill="none" stroke="black" stroke-width="0.5"/>
<path d="M494.94 675.89L494.94 659.44"
fill="none" stroke="black" stroke-width="0.5"/>
<path d="M494.94 456.56L494.94 440.11"
fill="none" stroke="black" stroke-width="0.5"/>
<path d="M494.94 237.23L494.94 220.78"
fill="none" stroke="black" stroke-width="0.5"/>
<path d="M494.94 17.89L494.94 1.44"
fill="none" stroke="black" stroke-width="0.5"/>
<path d="M275.61 675.89L275.61 659.44"
fill="none" stroke="black" stroke-width="0.5"/>
<path d="M275.61 456.56L275.61 440.11"
fill="none" stroke="black" stroke-width="0.5"/>
<path d="M275.61 237.23L275.61 220.78"
fill="none" stroke="black" stroke-width="0.5"/>
<path d="M275.61 17.89L275.61 1.44"
fill="none" stroke="black" stroke-width="0.5"/>
<path d="M56.28 675.89L56.28 659.44"
fill="none" stroke="black" stroke-width="0.5"/>
<path d="M56.28 456.56L56.28 440.11"
fill="none" stroke="black" stroke-width="0.5"/>
<path d="M56.28 237.23L56.28 220.78"
fill="none" stroke="black" stroke-width="0.5"/>
<path d="M56.28 17.89L56.28 1.44"
fill="none" stroke="black" stroke-width="0.5"/>
<path d="M730.72 675.89L730.72 659.44"
fill="none" stroke="black" stroke-width="0.5"/>
<path d="M730.72 456.56L730.72 440.11"
fill="none" stroke="black" stroke-width="0.5"/>
<path d="M730.72 237.23L730.72 220.78"
fill="none" stroke="black" stroke-width="0.5"/>
<path d="M730.72 17.89L730.72 1.44"
fill="none" stroke="black" stroke-width="0.5"/>
<path d="M511.39 675.89L511.39 659.44"
fill="none" stroke="black" stroke-width="0.5"/>
<path d="M511.39 456.56L511.39 440.11"
fill="none" stroke="black" stroke-width="0.5"/>
<path d="M511.39 237.23L511.39 220.78"
fill="none" stroke="black" stroke-width="0.5"/>
<path d="M511.39 17.89L511.39 1.44"
fill="none" stroke="black" stroke-width="0.5"/>
<path d="M292.06 675.89L292.06 659.44"
fill="none" stroke="black" stroke-width="0.5"/>
<path d="M292.06 456.56L292.06 440.11"
fill="none" stroke="black" stroke-width="0.5"/>
<path d="M292.06 237.23L292.06 220.78"
fill="none" stroke="black" stroke-width="0.5"/>
<path d="M292.06 17.89L292.06 1.44"
fill="none" stroke="black" stroke-width="0.5"/>
<path d="M72.73 675.89L72.73 659.44"
fill="none" stroke="black" stroke-width="0.5"/>
<path d="M72.73 456.56L72.73 440.11"
fill="none" stroke="black" stroke-width="0.5"/>
<path d="M72.73 237.23L72.73 220.78"
fill="none" stroke="black" stroke-width="0.5"/>
<path d="M72.73 17.89L72.73 1.44"
fill="none" stroke="black" stroke-width="0.5"/>
<path d="M165.94 566.22L182.39 566.22"
fill="none" stroke="black" stroke-width="0.5"/>
<path d="M604.61 566.22L621.06 566.22"
fill="none" stroke="black" stroke-width="0.5"/>
<path d="M165.94 127.56L182.39 127.56"
fill="none" stroke="black" stroke-width="0.5"/>
<path d="M604.61 127.56L621.06 127.56"
fill="none" stroke="black" stroke-width="0.5"/>
<path d="M165.94 549.77L182.39 549.77"
fill="none" stroke="black" stroke-width="0.5"/>
<path d="M604.61 549.77L621.06 549.77"
fill="none" stroke="black" stroke-width="0.5"/>
<path d="M165.94 111.11L182.39 111.11"
fill="none" stroke="black" stroke-width="0.5"/>
<path d="M604.61 111.11L621.06 111.11"
fill="none" stroke="black" stroke-width="0.5"/>
<path d="M604.61 566.22L604.61 549.77"
fill="none" stroke="black" stroke-width="0.5"/>
<path d="M604.61 127.56L604.61 111.11"
fill="none" stroke="black" stroke-width="0.5"/>
<path d="M165.94 566.22L165.94 549.77"
fill="none" stroke="black" stroke-width="0.5"/>
<path d="M165.94 127.56L165.94 111.11"
fill="none" stroke="black" stroke-width="0.5"/>
<path d="M621.06 566.22L621.06 549.77"
fill="none" stroke="black" stroke-width="0.5"/>
<path d="M621.06 127.56L621.06 111.11"
fill="none" stroke="black" stroke-width="0.5"/>
<path d="M182.39 566.22L182.39 549.77"
fill="none" stroke="black" stroke-width="0.5"/>
<path d="M182.39 127.56L182.39 111.11"
fill="none" stroke="black" stroke-width="0.5"/>
</svg>
