<?xml version="1.0" encoding="UTF-8"?>
<svg xmlns="http://www.w3.org/2000/svg" width="99.949mm" height="99.949mm" viewBox="0.0 0.0 787.000 787.000" preserveAspectRatio="none" version="1.1">
  <title>Produce by Acme CAD Converter</title>
  <desc>Produce by Acme CAD Converter</desc>
<path d="M212.55 710.16L363.34 710.16"
fill="none" stroke="black" stroke-width="0.5"/>
<path d="M634.77 710.16L785.56 710.16"
fill="none" stroke="black" stroke-width="0.5"/>
<path d="M1.44 499.05L152.23 499.05"
fill="none" stroke="black" stroke-width="0.5"/>
<path d="M423.66 499.05L574.45 499.05"
fill="none" stroke="black" stroke-width="0.5"/>
<path d="M212.55 287.95L363.34 287.95"
fill="none" stroke="black" stroke-width="0.5"/>
<path d="M634.77 287.95L785.56 287.95"
fill="none" stroke="black" stroke-width="0.5"/>
<path d="M1.44 76.84L152.23 76.84"
fill="none" stroke="black" stroke-width="0.5"/>
<path d="M423.66 76.84L574.45 76.84"
fill="none" stroke="black" stroke-width="0.5"/>
<path d="M63.18 762.94L90.5 762.94"
fill="none" stroke="black" stroke-width="0.5"/>
<path d="M485.39 762.94L512.72 762.94"
fill="none" stroke="black" stroke-width="0.5"/>
<path d="M274.28 551.83L301.61 551.83"
fill="none" stroke="black" stroke-width="0.5"/>
<path d="M696.5 551.83L723.82 551.83"
fill="none" stroke="black" stroke-width="0.5"/>
<path d="M63.18 340.72L90.5 340.72"
fill="none" stroke="black" stroke-width="0.5"/>
<path d="M485.39 340.72L512.72 340.72"
fill="none" stroke="black" stroke-width="0.5"/>
<path d="M274.28 129.62L301.61 129.62"
fill="none" stroke="black" stroke-width="0.5"/>
<path d="M696.5 129.62L723.82 129.62"
fill="none" stroke="black" stroke-width="0.5"/>
<path d="M63.18 657.38L90.5 657.38"
fill="none" stroke="black" stroke-width="0.5"/>
<path d="M485.39 657.38L512.72 657.38"
fill="none" stroke="black" stroke-width="0.5"/>
<path d="M274.28 446.28L301.61 446.28"
fill="none" stroke="black" stroke-width="0.5"/>
<path d="M696.5 446.28L723.82 446.28"
fill="none" stroke="black" stroke-width="0.5"/>
<path d="M63.18 235.17L90.5 235.17"
fill="none" stroke="black" stroke-width="0.5"/>
<path d="M485.39 235.17L512.72 235.17"
fill="none" stroke="black" stroke-width="0.5"/>
<path d="M274.28 24.06L301.61 24.06"
fill="none" stroke="black" stroke-width="0.5"/>
<path d="M696.5 24.06L723.82 24.06"
fill="none" stroke="black" stroke-width="0.5"/>
<path d="M657.38 512.72L657.38 485.39"
fill="none" stroke="black" stroke-width="0.5"/>
<path d="M657.38 90.5L657.38 63.18"
fill="none" stroke="black" stroke-width="0.5"/>
<path d="M446.28 723.82L446.28 696.5"
fill="none" stroke="black" stroke-width="0.5"/>
<path d="M446.28 301.61L446.28 274.28"
fill="none" stroke="black" stroke-width="0.5"/>
<path d="M235.17 512.72L235.17 485.39"
fill="none" stroke="black" stroke-width="0.5"/>
<path d="M235.17 90.5L235.17 63.18"
fill="none" stroke="black" stroke-width="0.5"/>
<path d="M24.06 723.82L24.06 696.5"
fill="none" stroke="black" stroke-width="0.5"/>
<path d="M24.06 301.61L24.06 274.28"
fill="none" stroke="black" stroke-width="0.5"/>
<path d="M762.94 512.72L762.94 485.39"
fill="none" stroke="black" stroke-width="0.5"/>
<path d="M762.94 90.5L762.94 63.18"
fill="none" stroke="black" stroke-width="0.5"/>
<path d="M551.83 723.82L551.83 696.5"
fill="none" stroke="black" stroke-width="0.5"/>
<path d="M551.83 301.61L551.83 274.28"
fill="none" stroke="black" stroke-width="0.5"/>
<path d="M340.72 512.72L340.72 485.39"
fill="none" stroke="black" stroke-width="0.5"/>
<path d="M340.72 90.5L340.72 63.18"
fill="none" stroke="black" stroke-width="0.5"/>
<path d="M129.62 723.82L129.62 696.5"
fill="none" stroke="black" stroke-width="0.5"/>
<path d="M129.62 301.61L129.62 274.28"
fill="none" stroke="black" stroke-width="0.5"/>
<path d="M512.72 762.94L537.61 748.72"
fill="none" stroke="black" stroke-width="0.5"/>
<path d="M723.82 551.83L748.72 537.61"
fill="none" stroke="black" stroke-width="0.5"/>
<path d="M90.5 762.94L115.39 748.72"
fill="none" stroke="black" stroke-width="0.5"/>
<path d="M301.61 551.83L326.5 537.61"
fill="none" stroke="black" stroke-width="0.5"/>
<path d="M512.72 340.72L537.61 326.5"
fill="none" stroke="black" stroke-width="0.5"/>
<path d="M723.82 129.62L748.72 115.39"
fill="none" stroke="black" stroke-width="0.5"/>
<path d="M90.5 340.72L115.39 326.5"
fill="none" stroke="black" stroke-width="0.5"/>
<path d="M301.61 129.62L326.5 115.39"
fill="none" stroke="black" stroke-width="0.5"/>
<path d="M129.62 301.61L115.39 326.5"
fill="none" stroke="black" stroke-width="0.5"/>
<path d="M340.72 90.5L326.5 115.39"
fill="none" stroke="black" stroke-width="0.5"/>
<path d="M129.62 723.82L115.39 748.72"
fill="none" stroke="black" stroke-width="0.5"/>
<path d="M340.72 512.72L326.5 537.61"
fill="none" stroke="black" stroke-width="0.5"/>
<path d="M551.83 301.61L537.61 326.5"
fill="none" stroke="black" stroke-width="0.5"/>
<path d="M762.94 90.5L748.72 115.39"
fill="none" stroke="black" stroke-width="0.5"/>
<path d="M551.83 723.82L537.61 748.72"
fill="none" stroke="black" stroke-width="0.5"/>
<path d="M762.94 512.72L748.72 537.61"
fill="none" stroke="black" stroke-width="0.5"/>
<path d="M762.94 63.18L748.72 38.28"
fill="none" stroke="black" stroke-width="0.5"/>
<path d="M762.94 485.39L748.72 460.5"
fill="none" stroke="black" stroke-width="0.5"/>
<path d="M551.83 274.28L537.61 249.39"
fill="none" stroke="black" stroke-width="0.5"/>
<path d="M340.72 63.18L326.5 38.28"
fill="none" stroke="black" stroke-width="0.5"/>
<path d="M551.83 696.5L537.61 671.61"
fill="none" stroke="black" stroke-width="0.5"/>
<path d="M340.72 485.39L326.5 460.5"
fill="none" stroke="black" stroke-width="0.5"/>
<path d="M129.62 274.28L115.39 249.39"
fill="none" stroke="black" stroke-width="0.5"/>
<path d="M129.62 696.5L115.39 671.61"
fill="none" stroke="black" stroke-width="0.5"/>
<path d="M90.5 657.38L115.39 671.61"
fill="none" stroke="black" stroke-width="0.5"/>
<path d="M512.72 657.38L537.61 671.61"
fill="none" stroke="black" stroke-width="0.5"/>
<path d="M301.61 446.28L326.5 460.5"
fill="none" stroke="black" stroke-width="0.5"/>
<path d="M90.5 235.17L115.39 249.39"
fill="none" stroke="black" stroke-width="0.5"/>
<path d="M723.82 446.28L748.72 460.5"
fill="none" stroke="black" stroke-width="0.5"/>
<path d="M512.72 235.17L537.61 249.39"
fill="none" stroke="black" stroke-width="0.5"/>
<path d="M301.61 24.06L326.5 38.28"
fill="none" stroke="black" stroke-width="0.5"/>
<path d="M723.82 24.06L748.72 38.28"
fill="none" stroke="black" stroke-width="0.5"/>
<path d="M274.28 24.06L249.39 38.28"
fill="none" stroke="black" stroke-width="0.5"/>
<path d="M63.18 235.17L38.28 249.39"
fill="none" stroke="black" stroke-width="0.5"/>
<path d="M696.5 24.06L671.61 38.28"
fill="none" stroke="black" stroke-width="0.5"/>
<path d="M485.39 235.17L460.5 249.39"
fill="none" stroke="black" stroke-width="0.5"/>
<path d="M274.28 446.28L249.39 460.5"
fill="none" stroke="black" stroke-width="0.5"/>
<path d="M63.18 657.38L38.28 671.61"
fill="none" stroke="black" stroke-width="0.5"/>
<path d="M696.5 446.28L671.61 460.5"
fill="none" stroke="black" stroke-width="0.5"/>
<path d="M485.39 657.38L460.5 671.61"
fill="none" stroke="black" stroke-width="0.5"/>
<path d="M657.38 485.39L671.61 460.5"
fill="none" stroke="black" stroke-width="0.5"/>
<path d="M446.28 696.5L460.5 671.61"
fill="none" stroke="black" stroke-width="0.5"/>
<path d="M657.38 63.18L671.61 38.28"
fill="none" stroke="black" stroke-width="0.5"/>
<path d="M446.28 274.28L460.5 249.39"
fill="none" stroke="black" stroke-width="0.5"/>
<path d="M235.17 485.39L249.39 460.5"
fill="none" stroke="black" stroke-width="0.5"/>
<path d="M24.06 696.5L38.28 671.61"
fill="none" stroke="black" stroke-width="0.5"/>
<path d="M235.17 63.18L249.39 38.28"
fill="none" stroke="black" stroke-width="0.5"/>
<path d="M24.06 274.28L38.28 249.39"
fill="none" stroke="black" stroke-width="0.5"/>
<path d="M24.06 723.82L38.28 748.72"
fill="none" stroke="black" stroke-width="0.5"/>
<path d="M24.06 301.61L38.28 326.5"
fill="none" stroke="black" stroke-width="0.5"/>
<path d="M235.17 512.72L249.39 537.61"
fill="none" stroke="black" stroke-width="0.5"/>
<path d="M446.28 723.82L460.5 748.72"
fill="none" stroke="black" stroke-width="0.5"/>
<path d="M235.17 90.5L249.39 115.39"
fill="none" stroke="black" stroke-width="0.5"/>
<path d="M446.28 301.61L460.5 326.5"
fill="none" stroke="black" stroke-width="0.5"/>
<path d="M657.38 512.72L671.61 537.61"
fill="none" stroke="black" stroke-width="0.5"/>
<path d="M657.38 90.5L671.61 115.39"
fill="none" stroke="black" stroke-width="0.5"/>
<path d="M696.5 129.62L671.61 115.39"
fill="none" stroke="black" stroke-width="0.5"/>
<path d="M274.28 129.62L249.39 115.39"
fill="none" stroke="black" stroke-width="0.5"/>
<path d="M485.39 340.72L460.5 326.5"
fill="none" stroke="black" stroke-width="0.5"/>
<path d="M696.5 551.83L671.61 537.61"
fill="none" stroke="black" stroke-width="0.5"/>
<path d="M63.18 340.72L38.28 326.5"
fill="none" stroke="black" stroke-width="0.5"/>
<path d="M274.28 551.83L249.39 537.61"
fill="none" stroke="black" stroke-width="0.5"/>
<path d="M485.39 762.94L460.5 748.72"
fill="none" stroke="black" stroke-width="0.5"/>
<path d="M63.18 762.94L38.28 748.72"
fill="none" stroke="black" stroke-width="0.5"/>
</svg>
