<?xml version="1.0" encoding="UTF-8"?>
<svg xmlns="http://www.w3.org/2000/svg" width="99.949mm" height="99.949mm" viewBox="0.0 0.0 787.000 787.000" preserveAspectRatio="none" version="1.1">
  <title>Produce by Acme CAD Converter</title>
  <desc>Produce by Acme CAD Converter</desc>
<path d="M87.21 136.21L65.76 163.78"
fill="none" stroke="black" stroke-width="0.5"/>
<path d="M185.22 234.22L163.78 261.79"
fill="none" stroke="black" stroke-width="0.5"/>
<path d="M381.25 38.2L359.81 65.76"
fill="none" stroke="black" stroke-width="0.5"/>
<path d="M87.21 528.27L65.76 555.84"
fill="none" stroke="black" stroke-width="0.5"/>
<path d="M283.23 332.24L261.79 359.81"
fill="none" stroke="black" stroke-width="0.5"/>
<path d="M479.27 136.21L457.82 163.78"
fill="none" stroke="black" stroke-width="0.5"/>
<path d="M185.22 626.28L163.78 653.85"
fill="none" stroke="black" stroke-width="0.5"/>
<path d="M381.25 430.25L359.81 457.82"
fill="none" stroke="black" stroke-width="0.5"/>
<path d="M577.28 234.22L555.84 261.79"
fill="none" stroke="black" stroke-width="0.5"/>
<path d="M773.31 38.2L751.87 65.76"
fill="none" stroke="black" stroke-width="0.5"/>
<path d="M283.23 724.3L261.79 751.86"
fill="none" stroke="black" stroke-width="0.5"/>
<path d="M479.27 528.27L457.82 555.84"
fill="none" stroke="black" stroke-width="0.5"/>
<path d="M675.29 332.24L653.85 359.81"
fill="none" stroke="black" stroke-width="0.5"/>
<path d="M577.28 626.28L555.84 653.85"
fill="none" stroke="black" stroke-width="0.5"/>
<path d="M773.31 430.25L751.87 457.82"
fill="none" stroke="black" stroke-width="0.5"/>
<path d="M675.29 724.3L653.85 751.86"
fill="none" stroke="black" stroke-width="0.5"/>
<path d="M675.29 724.3L699.8 650.79"
fill="none" stroke="black" stroke-width="0.5"/>
<path d="M773.31 430.25L785.56 393.51"
fill="none" stroke="black" stroke-width="0.5"/>
<path d="M577.28 626.28L601.78 552.77"
fill="none" stroke="black" stroke-width="0.5"/>
<path d="M675.29 332.24L699.8 258.73"
fill="none" stroke="black" stroke-width="0.5"/>
<path d="M773.31 38.2L785.56 1.45"
fill="none" stroke="black" stroke-width="0.5"/>
<path d="M393.5 785.56L405.76 748.8"
fill="none" stroke="black" stroke-width="0.5"/>
<path d="M479.27 528.27L503.77 454.76"
fill="none" stroke="black" stroke-width="0.5"/>
<path d="M577.28 234.22L601.78 160.72"
fill="none" stroke="black" stroke-width="0.5"/>
<path d="M283.23 724.3L307.74 650.79"
fill="none" stroke="black" stroke-width="0.5"/>
<path d="M381.25 430.25L405.76 356.74"
fill="none" stroke="black" stroke-width="0.5"/>
<path d="M479.27 136.21L503.77 62.7"
fill="none" stroke="black" stroke-width="0.5"/>
<path d="M185.22 626.28L209.72 552.77"
fill="none" stroke="black" stroke-width="0.5"/>
<path d="M283.23 332.24L307.74 258.73"
fill="none" stroke="black" stroke-width="0.5"/>
<path d="M381.25 38.2L393.5 1.44"
fill="none" stroke="black" stroke-width="0.5"/>
<path d="M1.44 785.56L13.7 748.8"
fill="none" stroke="black" stroke-width="0.5"/>
<path d="M87.21 528.27L111.71 454.76"
fill="none" stroke="black" stroke-width="0.5"/>
<path d="M185.22 234.22L209.72 160.72"
fill="none" stroke="black" stroke-width="0.5"/>
<path d="M1.44 393.5L13.7 356.74"
fill="none" stroke="black" stroke-width="0.5"/>
<path d="M87.21 136.21L111.71 62.7"
fill="none" stroke="black" stroke-width="0.5"/>
<path d="M699.8 650.79L721.24 623.22"
fill="none" stroke="black" stroke-width="0.5"/>
<path d="M601.78 552.77L623.22 525.21"
fill="none" stroke="black" stroke-width="0.5"/>
<path d="M405.76 748.8L427.2 721.24"
fill="none" stroke="black" stroke-width="0.5"/>
<path d="M699.8 258.73L721.24 231.16"
fill="none" stroke="black" stroke-width="0.5"/>
<path d="M503.77 454.76L525.21 427.19"
fill="none" stroke="black" stroke-width="0.5"/>
<path d="M307.74 650.79L329.18 623.22"
fill="none" stroke="black" stroke-width="0.5"/>
<path d="M601.78 160.72L623.22 133.15"
fill="none" stroke="black" stroke-width="0.5"/>
<path d="M405.76 356.74L427.2 329.18"
fill="none" stroke="black" stroke-width="0.5"/>
<path d="M209.72 552.77L231.16 525.21"
fill="none" stroke="black" stroke-width="0.5"/>
<path d="M13.7 748.8L35.14 721.24"
fill="none" stroke="black" stroke-width="0.5"/>
<path d="M503.77 62.7L525.21 35.13"
fill="none" stroke="black" stroke-width="0.5"/>
<path d="M307.74 258.73L329.18 231.16"
fill="none" stroke="black" stroke-width="0.5"/>
<path d="M111.71 454.76L133.15 427.19"
fill="none" stroke="black" stroke-width="0.5"/>
<path d="M209.72 160.72L231.16 133.15"
fill="none" stroke="black" stroke-width="0.5"/>
<path d="M13.7 356.74L35.14 329.18"
fill="none" stroke="black" stroke-width="0.5"/>
<path d="M111.71 62.7L133.15 35.13"
fill="none" stroke="black" stroke-width="0.5"/>
<path d="M160.72 13.69L133.15 35.13"
fill="none" stroke="black" stroke-width="0.5"/>
<path d="M258.73 111.71L231.16 133.15"
fill="none" stroke="black" stroke-width="0.5"/>
<path d="M62.7 307.73L35.14 329.18"
fill="none" stroke="black" stroke-width="0.5"/>
<path d="M552.78 13.69L525.21 35.13"
fill="none" stroke="black" stroke-width="0.5"/>
<path d="M356.75 209.72L329.18 231.16"
fill="none" stroke="black" stroke-width="0.5"/>
<path d="M160.72 405.75L133.15 427.19"
fill="none" stroke="black" stroke-width="0.5"/>
<path d="M650.79 111.71L623.22 133.15"
fill="none" stroke="black" stroke-width="0.5"/>
<path d="M454.76 307.73L427.2 329.18"
fill="none" stroke="black" stroke-width="0.5"/>
<path d="M258.73 503.77L231.16 525.21"
fill="none" stroke="black" stroke-width="0.5"/>
<path d="M62.7 699.79L35.14 721.24"
fill="none" stroke="black" stroke-width="0.5"/>
<path d="M748.8 209.72L721.24 231.16"
fill="none" stroke="black" stroke-width="0.5"/>
<path d="M552.78 405.75L525.21 427.19"
fill="none" stroke="black" stroke-width="0.5"/>
<path d="M356.75 601.78L329.18 623.22"
fill="none" stroke="black" stroke-width="0.5"/>
<path d="M650.79 503.77L623.22 525.21"
fill="none" stroke="black" stroke-width="0.5"/>
<path d="M454.76 699.79L427.2 721.24"
fill="none" stroke="black" stroke-width="0.5"/>
<path d="M748.8 601.78L721.24 623.22"
fill="none" stroke="black" stroke-width="0.5"/>
<path d="M589.53 785.56L626.28 773.3"
fill="none" stroke="black" stroke-width="0.5"/>
<path d="M197.47 785.56L234.23 773.3"
fill="none" stroke="black" stroke-width="0.5"/>
<path d="M454.76 699.79L528.27 675.29"
fill="none" stroke="black" stroke-width="0.5"/>
<path d="M748.8 601.78L785.56 589.53"
fill="none" stroke="black" stroke-width="0.5"/>
<path d="M62.7 699.79L136.21 675.29"
fill="none" stroke="black" stroke-width="0.5"/>
<path d="M356.75 601.78L430.26 577.28"
fill="none" stroke="black" stroke-width="0.5"/>
<path d="M650.79 503.77L724.3 479.26"
fill="none" stroke="black" stroke-width="0.5"/>
<path d="M1.44 589.53L38.2 577.28"
fill="none" stroke="black" stroke-width="0.5"/>
<path d="M258.73 503.77L332.24 479.26"
fill="none" stroke="black" stroke-width="0.5"/>
<path d="M552.78 405.75L626.28 381.25"
fill="none" stroke="black" stroke-width="0.5"/>
<path d="M160.72 405.75L234.23 381.25"
fill="none" stroke="black" stroke-width="0.5"/>
<path d="M454.76 307.73L528.27 283.23"
fill="none" stroke="black" stroke-width="0.5"/>
<path d="M748.8 209.72L785.56 197.47"
fill="none" stroke="black" stroke-width="0.5"/>
<path d="M62.7 307.73L136.21 283.23"
fill="none" stroke="black" stroke-width="0.5"/>
<path d="M356.75 209.72L430.26 185.22"
fill="none" stroke="black" stroke-width="0.5"/>
<path d="M650.79 111.71L724.3 87.21"
fill="none" stroke="black" stroke-width="0.5"/>
<path d="M1.44 197.47L38.2 185.22"
fill="none" stroke="black" stroke-width="0.5"/>
<path d="M258.73 111.71L332.24 87.21"
fill="none" stroke="black" stroke-width="0.5"/>
<path d="M552.78 13.69L589.52 1.44"
fill="none" stroke="black" stroke-width="0.5"/>
<path d="M160.72 13.69L197.46 1.44"
fill="none" stroke="black" stroke-width="0.5"/>
<path d="M626.28 773.3L653.85 751.86"
fill="none" stroke="black" stroke-width="0.5"/>
<path d="M528.27 675.29L555.84 653.85"
fill="none" stroke="black" stroke-width="0.5"/>
<path d="M724.3 479.26L751.87 457.82"
fill="none" stroke="black" stroke-width="0.5"/>
<path d="M234.23 773.3L261.79 751.86"
fill="none" stroke="black" stroke-width="0.5"/>
<path d="M430.26 577.28L457.82 555.84"
fill="none" stroke="black" stroke-width="0.5"/>
<path d="M626.28 381.25L653.85 359.81"
fill="none" stroke="black" stroke-width="0.5"/>
<path d="M136.21 675.29L163.78 653.85"
fill="none" stroke="black" stroke-width="0.5"/>
<path d="M332.24 479.26L359.81 457.82"
fill="none" stroke="black" stroke-width="0.5"/>
<path d="M528.27 283.23L555.84 261.79"
fill="none" stroke="black" stroke-width="0.5"/>
<path d="M724.3 87.21L751.87 65.76"
fill="none" stroke="black" stroke-width="0.5"/>
<path d="M38.2 577.28L65.76 555.84"
fill="none" stroke="black" stroke-width="0.5"/>
<path d="M234.23 381.25L261.79 359.81"
fill="none" stroke="black" stroke-width="0.5"/>
<path d="M430.26 185.22L457.82 163.78"
fill="none" stroke="black" stroke-width="0.5"/>
<path d="M136.21 283.23L163.78 261.79"
fill="none" stroke="black" stroke-width="0.5"/>
<path d="M332.24 87.21L359.81 65.76"
fill="none" stroke="black" stroke-width="0.5"/>
<path d="M38.2 185.22L65.76 163.78"
fill="none" stroke="black" stroke-width="0.5"/>
</svg>
