<?xml version="1.0" encoding="UTF-8"?>
<svg xmlns="http://www.w3.org/2000/svg" width="99.949mm" height="99.949mm" viewBox="0.0 0.0 787.000 787.000" preserveAspectRatio="none" version="1.1">
  <title>Produce by Acme CAD Converter</title>
  <desc>Produce by Acme CAD Converter</desc>
<path d="M99.46 565.03L295.49 565.03"
fill="none" stroke="black" stroke-width="0.5"/>
<path d="M491.51 565.03L687.54 565.03"
fill="none" stroke="black" stroke-width="0.5"/>
<path d="M1.44 467.01L99.46 467.01"
fill="none" stroke="black" stroke-width="0.5"/>
<path d="M295.49 467.01L491.51 467.01"
fill="none" stroke="black" stroke-width="0.5"/>
<path d="M687.54 467.01L785.56 467.01"
fill="none" stroke="black" stroke-width="0.5"/>
<path d="M99.46 369L295.49 369"
fill="none" stroke="black" stroke-width="0.5"/>
<path d="M491.51 369L687.54 369"
fill="none" stroke="black" stroke-width="0.5"/>
<path d="M1.44 270.98L99.46 270.98"
fill="none" stroke="black" stroke-width="0.5"/>
<path d="M295.49 270.98L491.51 270.98"
fill="none" stroke="black" stroke-width="0.5"/>
<path d="M687.54 270.98L785.56 270.98"
fill="none" stroke="black" stroke-width="0.5"/>
<path d="M99.46 516.02L295.49 516.02"
fill="none" stroke="black" stroke-width="0.5"/>
<path d="M491.51 516.02L687.54 516.02"
fill="none" stroke="black" stroke-width="0.5"/>
<path d="M1.44 418L99.46 418"
fill="none" stroke="black" stroke-width="0.5"/>
<path d="M295.49 418L491.51 418"
fill="none" stroke="black" stroke-width="0.5"/>
<path d="M687.54 418L785.56 418"
fill="none" stroke="black" stroke-width="0.5"/>
<path d="M99.46 319.99L295.49 319.99"
fill="none" stroke="black" stroke-width="0.5"/>
<path d="M491.51 319.99L687.54 319.99"
fill="none" stroke="black" stroke-width="0.5"/>
<path d="M1.44 221.97L99.46 221.97"
fill="none" stroke="black" stroke-width="0.5"/>
<path d="M295.49 221.97L491.51 221.97"
fill="none" stroke="black" stroke-width="0.5"/>
<path d="M687.54 221.97L785.56 221.97"
fill="none" stroke="black" stroke-width="0.5"/>
<path d="M687.54 565.03L687.54 516.02"
fill="none" stroke="black" stroke-width="0.5"/>
<path d="M687.54 467.01L687.54 418"
fill="none" stroke="black" stroke-width="0.5"/>
<path d="M687.54 369L687.54 319.99"
fill="none" stroke="black" stroke-width="0.5"/>
<path d="M687.54 270.98L687.54 221.97"
fill="none" stroke="black" stroke-width="0.5"/>
<path d="M491.51 565.03L491.51 516.02"
fill="none" stroke="black" stroke-width="0.5"/>
<path d="M491.51 467.01L491.51 418"
fill="none" stroke="black" stroke-width="0.5"/>
<path d="M491.51 369L491.51 319.99"
fill="none" stroke="black" stroke-width="0.5"/>
<path d="M491.51 270.98L491.51 221.97"
fill="none" stroke="black" stroke-width="0.5"/>
<path d="M295.49 565.03L295.49 516.02"
fill="none" stroke="black" stroke-width="0.5"/>
<path d="M295.49 467.01L295.49 418"
fill="none" stroke="black" stroke-width="0.5"/>
<path d="M295.49 369L295.49 319.99"
fill="none" stroke="black" stroke-width="0.5"/>
<path d="M295.49 270.98L295.49 221.97"
fill="none" stroke="black" stroke-width="0.5"/>
<path d="M99.46 565.03L99.46 516.02"
fill="none" stroke="black" stroke-width="0.5"/>
<path d="M99.46 467.01L99.46 418"
fill="none" stroke="black" stroke-width="0.5"/>
<path d="M99.46 369L99.46 319.99"
fill="none" stroke="black" stroke-width="0.5"/>
<path d="M99.46 270.98L99.46 221.97"
fill="none" stroke="black" stroke-width="0.5"/>
</svg>
