<?xml version="1.0" encoding="UTF-8"?>
<svg xmlns="http://www.w3.org/2000/svg" width="99.949mm" height="99.949mm" viewBox="0.0 0.0 787.000 787.000" preserveAspectRatio="none" version="1.1">
  <title>Produce by Acme CAD Converter</title>
  <desc>Produce by Acme CAD Converter</desc>
<path d="M652.18 785.56L652.19 785.54"
fill="none" stroke="black" stroke-width="0.5"/>
<path d="M393.49 785.56L458.17 673.54"
fill="none" stroke="black" stroke-width="0.5"/>
<path d="M522.84 561.52L587.52 449.51"
fill="none" stroke="black" stroke-width="0.5"/>
<path d="M652.18 337.49L652.19 337.48"
fill="none" stroke="black" stroke-width="0.5"/>
<path d="M134.81 785.56L199.48 673.54"
fill="none" stroke="black" stroke-width="0.5"/>
<path d="M264.14 561.52L328.82 449.51"
fill="none" stroke="black" stroke-width="0.5"/>
<path d="M393.49 337.49L458.17 225.48"
fill="none" stroke="black" stroke-width="0.5"/>
<path d="M522.84 113.46L587.52 1.44"
fill="none" stroke="black" stroke-width="0.5"/>
<path d="M134.81 337.49L199.48 225.48"
fill="none" stroke="black" stroke-width="0.5"/>
<path d="M264.14 113.46L328.82 1.44"
fill="none" stroke="black" stroke-width="0.5"/>
<path d="M652.18 113.46L587.52 1.44"
fill="none" stroke="black" stroke-width="0.5"/>
<path d="M652.18 561.52L587.52 449.51"
fill="none" stroke="black" stroke-width="0.5"/>
<path d="M522.84 337.49L458.17 225.48"
fill="none" stroke="black" stroke-width="0.5"/>
<path d="M393.49 113.46L328.82 1.44"
fill="none" stroke="black" stroke-width="0.5"/>
<path d="M522.84 785.56L458.17 673.54"
fill="none" stroke="black" stroke-width="0.5"/>
<path d="M393.49 561.52L328.82 449.51"
fill="none" stroke="black" stroke-width="0.5"/>
<path d="M264.14 337.49L199.48 225.48"
fill="none" stroke="black" stroke-width="0.5"/>
<path d="M264.14 785.56L199.48 673.54"
fill="none" stroke="black" stroke-width="0.5"/>
</svg>
