<?xml version="1.0" encoding="UTF-8"?>
<svg xmlns="http://www.w3.org/2000/svg" width="99.949mm" height="99.949mm" viewBox="0.0 0.0 787.000 787.000" preserveAspectRatio="none" version="1.1">
  <title>Produce by Acme CAD Converter</title>
  <desc>Produce by Acme CAD Converter</desc>
<path d="M275.13 1.44L236.67 68.07"
fill="none" stroke="black" stroke-width="0.5"/>
<path d="M334.31 103.94L295.85 170.57"
fill="none" stroke="black" stroke-width="0.5"/>
<path d="M215.96 308.94L177.49 375.56"
fill="none" stroke="black" stroke-width="0.5"/>
<path d="M511.84 1.44L473.38 68.07"
fill="none" stroke="black" stroke-width="0.5"/>
<path d="M393.49 206.44L355.03 273.06"
fill="none" stroke="black" stroke-width="0.5"/>
<path d="M275.13 411.44L236.67 478.06"
fill="none" stroke="black" stroke-width="0.5"/>
<path d="M571.02 103.94L532.56 170.57"
fill="none" stroke="black" stroke-width="0.5"/>
<path d="M452.67 308.94L414.2 375.56"
fill="none" stroke="black" stroke-width="0.5"/>
<path d="M334.31 513.94L295.85 580.56"
fill="none" stroke="black" stroke-width="0.5"/>
<path d="M215.96 718.93L177.49 785.56"
fill="none" stroke="black" stroke-width="0.5"/>
<path d="M630.2 206.44L591.74 273.06"
fill="none" stroke="black" stroke-width="0.5"/>
<path d="M511.84 411.44L473.38 478.06"
fill="none" stroke="black" stroke-width="0.5"/>
<path d="M393.49 616.43L355.03 683.06"
fill="none" stroke="black" stroke-width="0.5"/>
<path d="M571.02 513.94L532.56 580.56"
fill="none" stroke="black" stroke-width="0.5"/>
<path d="M452.67 718.93L414.2 785.56"
fill="none" stroke="black" stroke-width="0.5"/>
<path d="M630.2 616.43L591.74 683.06"
fill="none" stroke="black" stroke-width="0.5"/>
<path d="M156.79 616.45L195.24 683.06"
fill="none" stroke="black" stroke-width="0.5"/>
<path d="M215.96 718.93L254.42 785.56"
fill="none" stroke="black" stroke-width="0.5"/>
<path d="M156.79 206.46L195.24 273.06"
fill="none" stroke="black" stroke-width="0.5"/>
<path d="M215.96 308.94L254.42 375.56"
fill="none" stroke="black" stroke-width="0.5"/>
<path d="M275.13 411.44L313.6 478.06"
fill="none" stroke="black" stroke-width="0.5"/>
<path d="M334.31 513.94L372.78 580.56"
fill="none" stroke="black" stroke-width="0.5"/>
<path d="M393.49 616.43L431.95 683.06"
fill="none" stroke="black" stroke-width="0.5"/>
<path d="M452.67 718.93L491.13 785.56"
fill="none" stroke="black" stroke-width="0.5"/>
<path d="M275.13 1.44L313.6 68.07"
fill="none" stroke="black" stroke-width="0.5"/>
<path d="M334.31 103.94L372.78 170.57"
fill="none" stroke="black" stroke-width="0.5"/>
<path d="M393.49 206.44L431.95 273.06"
fill="none" stroke="black" stroke-width="0.5"/>
<path d="M452.67 308.94L491.13 375.56"
fill="none" stroke="black" stroke-width="0.5"/>
<path d="M511.84 411.44L550.31 478.06"
fill="none" stroke="black" stroke-width="0.5"/>
<path d="M571.02 513.94L609.49 580.56"
fill="none" stroke="black" stroke-width="0.5"/>
<path d="M630.2 616.43L630.21 616.45"
fill="none" stroke="black" stroke-width="0.5"/>
<path d="M511.84 1.44L550.31 68.07"
fill="none" stroke="black" stroke-width="0.5"/>
<path d="M571.02 103.94L609.49 170.57"
fill="none" stroke="black" stroke-width="0.5"/>
<path d="M630.2 206.44L630.21 206.46"
fill="none" stroke="black" stroke-width="0.5"/>
<path d="M215.96 119.32L195.24 155.19"
fill="none" stroke="black" stroke-width="0.5"/>
<path d="M393.49 16.82L372.78 52.69"
fill="none" stroke="black" stroke-width="0.5"/>
<path d="M275.13 221.81L254.42 257.69"
fill="none" stroke="black" stroke-width="0.5"/>
<path d="M452.67 119.32L431.95 155.19"
fill="none" stroke="black" stroke-width="0.5"/>
<path d="M334.31 324.31L313.6 360.19"
fill="none" stroke="black" stroke-width="0.5"/>
<path d="M215.96 529.31L195.24 565.19"
fill="none" stroke="black" stroke-width="0.5"/>
<path d="M630.2 16.82L609.49 52.69"
fill="none" stroke="black" stroke-width="0.5"/>
<path d="M511.84 221.81L491.13 257.69"
fill="none" stroke="black" stroke-width="0.5"/>
<path d="M393.49 426.81L372.78 462.69"
fill="none" stroke="black" stroke-width="0.5"/>
<path d="M275.13 631.81L254.42 667.68"
fill="none" stroke="black" stroke-width="0.5"/>
<path d="M571.02 324.31L550.31 360.19"
fill="none" stroke="black" stroke-width="0.5"/>
<path d="M452.67 529.31L431.95 565.19"
fill="none" stroke="black" stroke-width="0.5"/>
<path d="M334.31 734.31L313.6 770.18"
fill="none" stroke="black" stroke-width="0.5"/>
<path d="M630.2 426.81L609.49 462.69"
fill="none" stroke="black" stroke-width="0.5"/>
<path d="M511.84 631.81L491.13 667.68"
fill="none" stroke="black" stroke-width="0.5"/>
<path d="M571.02 734.31L550.31 770.18"
fill="none" stroke="black" stroke-width="0.5"/>
<path d="M156.79 426.83L177.49 462.69"
fill="none" stroke="black" stroke-width="0.5"/>
<path d="M215.96 529.31L236.67 565.19"
fill="none" stroke="black" stroke-width="0.5"/>
<path d="M275.13 631.81L295.85 667.68"
fill="none" stroke="black" stroke-width="0.5"/>
<path d="M334.31 734.31L355.03 770.18"
fill="none" stroke="black" stroke-width="0.5"/>
<path d="M156.79 16.83L177.49 52.69"
fill="none" stroke="black" stroke-width="0.5"/>
<path d="M215.96 119.32L236.67 155.19"
fill="none" stroke="black" stroke-width="0.5"/>
<path d="M275.13 221.81L295.85 257.69"
fill="none" stroke="black" stroke-width="0.5"/>
<path d="M334.31 324.31L355.03 360.19"
fill="none" stroke="black" stroke-width="0.5"/>
<path d="M393.49 426.81L414.2 462.69"
fill="none" stroke="black" stroke-width="0.5"/>
<path d="M452.67 529.31L473.38 565.19"
fill="none" stroke="black" stroke-width="0.5"/>
<path d="M511.84 631.81L532.56 667.68"
fill="none" stroke="black" stroke-width="0.5"/>
<path d="M571.02 734.31L591.74 770.18"
fill="none" stroke="black" stroke-width="0.5"/>
<path d="M393.49 16.82L414.2 52.69"
fill="none" stroke="black" stroke-width="0.5"/>
<path d="M452.67 119.32L473.38 155.19"
fill="none" stroke="black" stroke-width="0.5"/>
<path d="M511.84 221.81L532.56 257.69"
fill="none" stroke="black" stroke-width="0.5"/>
<path d="M571.02 324.31L591.74 360.19"
fill="none" stroke="black" stroke-width="0.5"/>
<path d="M630.2 426.81L630.21 426.83"
fill="none" stroke="black" stroke-width="0.5"/>
<path d="M630.2 16.82L630.21 16.83"
fill="none" stroke="black" stroke-width="0.5"/>
</svg>
