<?xml version="1.0" encoding="UTF-8"?>
<svg xmlns="http://www.w3.org/2000/svg" width="99.949mm" height="99.949mm" viewBox="0.0 0.0 787.000 787.000" preserveAspectRatio="none" version="1.1">
  <title>Produce by Acme CAD Converter</title>
  <desc>Produce by Acme CAD Converter</desc>
<path d="M561.52 561.52L561.52 449.51"
fill="none" stroke="black" stroke-width="0.5"/>
<path d="M561.52 113.46L561.52 1.44"
fill="none" stroke="black" stroke-width="0.5"/>
<path d="M449.51 785.56L449.51 673.54"
fill="none" stroke="black" stroke-width="0.5"/>
<path d="M449.51 337.49L449.51 225.48"
fill="none" stroke="black" stroke-width="0.5"/>
<path d="M337.49 561.52L337.49 449.51"
fill="none" stroke="black" stroke-width="0.5"/>
<path d="M337.49 113.46L337.49 1.44"
fill="none" stroke="black" stroke-width="0.5"/>
<path d="M225.48 785.56L225.48 673.54"
fill="none" stroke="black" stroke-width="0.5"/>
<path d="M225.48 337.49L225.48 225.48"
fill="none" stroke="black" stroke-width="0.5"/>
<path d="M180.67 673.54L270.28 673.54"
fill="none" stroke="black" stroke-width="0.5"/>
<path d="M404.7 673.54L494.31 673.54"
fill="none" stroke="black" stroke-width="0.5"/>
<path d="M292.69 449.51L382.3 449.51"
fill="none" stroke="black" stroke-width="0.5"/>
<path d="M516.72 449.51L606.33 449.51"
fill="none" stroke="black" stroke-width="0.5"/>
<path d="M180.67 225.48L270.28 225.48"
fill="none" stroke="black" stroke-width="0.5"/>
<path d="M404.7 225.48L494.31 225.48"
fill="none" stroke="black" stroke-width="0.5"/>
<path d="M292.69 1.44L382.3 1.44"
fill="none" stroke="black" stroke-width="0.5"/>
<path d="M516.72 1.44L606.33 1.44"
fill="none" stroke="black" stroke-width="0.5"/>
</svg>
