<?xml version="1.0" encoding="UTF-8"?>
<svg xmlns="http://www.w3.org/2000/svg" width="99.949mm" height="99.949mm" viewBox="0.0 0.0 787.000 787.000" preserveAspectRatio="none" version="1.1">
  <title>Produce by Acme CAD Converter</title>
  <desc>Produce by Acme CAD Converter</desc>
<path d="M26.18 785.56L61.17 785.56"
fill="none" stroke="black" stroke-width="0.5"/>
<path d="M492.62 785.56L527.6 785.56"
fill="none" stroke="black" stroke-width="0.5"/>
<path d="M259.4 552.34L294.38 552.34"
fill="none" stroke="black" stroke-width="0.5"/>
<path d="M725.83 552.34L760.82 552.34"
fill="none" stroke="black" stroke-width="0.5"/>
<path d="M26.18 319.12L61.17 319.12"
fill="none" stroke="black" stroke-width="0.5"/>
<path d="M492.62 319.12L527.6 319.12"
fill="none" stroke="black" stroke-width="0.5"/>
<path d="M259.4 85.9L294.38 85.9"
fill="none" stroke="black" stroke-width="0.5"/>
<path d="M725.83 85.9L760.82 85.9"
fill="none" stroke="black" stroke-width="0.5"/>
<path d="M26.18 701.1L61.17 701.1"
fill="none" stroke="black" stroke-width="0.5"/>
<path d="M492.62 701.1L527.6 701.1"
fill="none" stroke="black" stroke-width="0.5"/>
<path d="M259.4 467.88L294.38 467.88"
fill="none" stroke="black" stroke-width="0.5"/>
<path d="M725.83 467.88L760.82 467.88"
fill="none" stroke="black" stroke-width="0.5"/>
<path d="M26.18 234.66L61.17 234.66"
fill="none" stroke="black" stroke-width="0.5"/>
<path d="M492.62 234.66L527.6 234.66"
fill="none" stroke="black" stroke-width="0.5"/>
<path d="M259.4 1.44L294.38 1.44"
fill="none" stroke="black" stroke-width="0.5"/>
<path d="M725.83 1.44L760.82 1.44"
fill="none" stroke="black" stroke-width="0.5"/>
<path d="M701.1 527.6L701.1 492.62"
fill="none" stroke="black" stroke-width="0.5"/>
<path d="M701.1 61.17L701.1 26.18"
fill="none" stroke="black" stroke-width="0.5"/>
<path d="M467.88 760.82L467.88 725.83"
fill="none" stroke="black" stroke-width="0.5"/>
<path d="M467.88 294.38L467.88 259.4"
fill="none" stroke="black" stroke-width="0.5"/>
<path d="M234.66 527.6L234.66 492.62"
fill="none" stroke="black" stroke-width="0.5"/>
<path d="M234.66 61.17L234.66 26.18"
fill="none" stroke="black" stroke-width="0.5"/>
<path d="M1.44 760.82L1.44 725.83"
fill="none" stroke="black" stroke-width="0.5"/>
<path d="M1.44 294.38L1.44 259.4"
fill="none" stroke="black" stroke-width="0.5"/>
<path d="M785.56 527.6L785.56 492.62"
fill="none" stroke="black" stroke-width="0.5"/>
<path d="M785.56 61.17L785.56 26.18"
fill="none" stroke="black" stroke-width="0.5"/>
<path d="M552.34 760.82L552.34 725.83"
fill="none" stroke="black" stroke-width="0.5"/>
<path d="M552.34 294.38L552.34 259.4"
fill="none" stroke="black" stroke-width="0.5"/>
<path d="M319.12 527.6L319.12 492.62"
fill="none" stroke="black" stroke-width="0.5"/>
<path d="M319.12 61.17L319.12 26.18"
fill="none" stroke="black" stroke-width="0.5"/>
<path d="M85.9 760.82L85.9 725.83"
fill="none" stroke="black" stroke-width="0.5"/>
<path d="M85.9 294.38L85.9 259.4"
fill="none" stroke="black" stroke-width="0.5"/>
<path d="M527.6 785.56L552.34 760.82"
fill="none" stroke="black" stroke-width="0.5"/>
<path d="M760.82 552.34L785.56 527.6"
fill="none" stroke="black" stroke-width="0.5"/>
<path d="M61.17 785.56L85.9 760.82"
fill="none" stroke="black" stroke-width="0.5"/>
<path d="M294.38 552.34L319.12 527.6"
fill="none" stroke="black" stroke-width="0.5"/>
<path d="M527.6 319.12L552.34 294.38"
fill="none" stroke="black" stroke-width="0.5"/>
<path d="M760.82 85.9L785.56 61.17"
fill="none" stroke="black" stroke-width="0.5"/>
<path d="M61.17 319.12L85.9 294.38"
fill="none" stroke="black" stroke-width="0.5"/>
<path d="M294.38 85.9L319.12 61.17"
fill="none" stroke="black" stroke-width="0.5"/>
<path d="M61.17 701.1L85.9 725.83"
fill="none" stroke="black" stroke-width="0.5"/>
<path d="M61.17 234.66L85.9 259.4"
fill="none" stroke="black" stroke-width="0.5"/>
<path d="M294.38 467.88L319.12 492.62"
fill="none" stroke="black" stroke-width="0.5"/>
<path d="M527.6 701.1L552.34 725.83"
fill="none" stroke="black" stroke-width="0.5"/>
<path d="M294.38 1.44L319.12 26.18"
fill="none" stroke="black" stroke-width="0.5"/>
<path d="M527.6 234.66L552.34 259.4"
fill="none" stroke="black" stroke-width="0.5"/>
<path d="M760.82 467.88L785.56 492.62"
fill="none" stroke="black" stroke-width="0.5"/>
<path d="M760.82 1.44L785.56 26.18"
fill="none" stroke="black" stroke-width="0.5"/>
<path d="M259.4 1.44L234.66 26.18"
fill="none" stroke="black" stroke-width="0.5"/>
<path d="M26.18 234.66L1.44 259.4"
fill="none" stroke="black" stroke-width="0.5"/>
<path d="M725.83 1.44L701.1 26.18"
fill="none" stroke="black" stroke-width="0.5"/>
<path d="M492.62 234.66L467.88 259.4"
fill="none" stroke="black" stroke-width="0.5"/>
<path d="M259.4 467.88L234.66 492.62"
fill="none" stroke="black" stroke-width="0.5"/>
<path d="M26.18 701.1L1.44 725.83"
fill="none" stroke="black" stroke-width="0.5"/>
<path d="M725.83 467.88L701.1 492.62"
fill="none" stroke="black" stroke-width="0.5"/>
<path d="M492.62 701.1L467.88 725.83"
fill="none" stroke="black" stroke-width="0.5"/>
<path d="M725.83 85.9L701.1 61.17"
fill="none" stroke="black" stroke-width="0.5"/>
<path d="M725.83 552.34L701.1 527.6"
fill="none" stroke="black" stroke-width="0.5"/>
<path d="M492.62 319.12L467.88 294.38"
fill="none" stroke="black" stroke-width="0.5"/>
<path d="M259.4 85.9L234.66 61.17"
fill="none" stroke="black" stroke-width="0.5"/>
<path d="M492.62 785.56L467.88 760.82"
fill="none" stroke="black" stroke-width="0.5"/>
<path d="M259.4 552.34L234.66 527.6"
fill="none" stroke="black" stroke-width="0.5"/>
<path d="M26.18 319.12L1.44 294.38"
fill="none" stroke="black" stroke-width="0.5"/>
<path d="M26.18 785.56L1.44 760.82"
fill="none" stroke="black" stroke-width="0.5"/>
<path d="M12.11 771.48L75.24 771.48"
fill="none" stroke="black" stroke-width="0.5"/>
<path d="M478.54 771.48L541.68 771.48"
fill="none" stroke="black" stroke-width="0.5"/>
<path d="M245.32 538.26L308.46 538.26"
fill="none" stroke="black" stroke-width="0.5"/>
<path d="M711.76 538.26L774.89 538.26"
fill="none" stroke="black" stroke-width="0.5"/>
<path d="M12.11 305.05L75.24 305.05"
fill="none" stroke="black" stroke-width="0.5"/>
<path d="M478.54 305.05L541.68 305.05"
fill="none" stroke="black" stroke-width="0.5"/>
<path d="M245.32 71.83L308.46 71.83"
fill="none" stroke="black" stroke-width="0.5"/>
<path d="M711.76 71.83L774.89 71.83"
fill="none" stroke="black" stroke-width="0.5"/>
<path d="M1.44 757.4L85.9 757.4"
fill="none" stroke="black" stroke-width="0.5"/>
<path d="M467.88 757.4L552.34 757.4"
fill="none" stroke="black" stroke-width="0.5"/>
<path d="M234.66 524.19L319.12 524.19"
fill="none" stroke="black" stroke-width="0.5"/>
<path d="M701.1 524.19L785.56 524.19"
fill="none" stroke="black" stroke-width="0.5"/>
<path d="M1.44 290.97L85.9 290.97"
fill="none" stroke="black" stroke-width="0.5"/>
<path d="M467.88 290.97L552.34 290.97"
fill="none" stroke="black" stroke-width="0.5"/>
<path d="M234.66 57.75L319.12 57.75"
fill="none" stroke="black" stroke-width="0.5"/>
<path d="M701.1 57.75L785.56 57.75"
fill="none" stroke="black" stroke-width="0.5"/>
<path d="M1.44 743.33L85.9 743.33"
fill="none" stroke="black" stroke-width="0.5"/>
<path d="M467.88 743.33L552.34 743.33"
fill="none" stroke="black" stroke-width="0.5"/>
<path d="M234.66 510.11L319.12 510.11"
fill="none" stroke="black" stroke-width="0.5"/>
<path d="M701.1 510.11L785.56 510.11"
fill="none" stroke="black" stroke-width="0.5"/>
<path d="M1.44 276.89L85.9 276.89"
fill="none" stroke="black" stroke-width="0.5"/>
<path d="M467.88 276.89L552.34 276.89"
fill="none" stroke="black" stroke-width="0.5"/>
<path d="M234.66 43.67L319.12 43.67"
fill="none" stroke="black" stroke-width="0.5"/>
<path d="M701.1 43.67L785.56 43.67"
fill="none" stroke="black" stroke-width="0.5"/>
<path d="M1.44 729.25L85.9 729.25"
fill="none" stroke="black" stroke-width="0.5"/>
<path d="M467.88 729.25L552.34 729.25"
fill="none" stroke="black" stroke-width="0.5"/>
<path d="M234.66 496.03L319.12 496.03"
fill="none" stroke="black" stroke-width="0.5"/>
<path d="M701.1 496.03L785.56 496.03"
fill="none" stroke="black" stroke-width="0.5"/>
<path d="M1.44 262.81L85.9 262.81"
fill="none" stroke="black" stroke-width="0.5"/>
<path d="M467.88 262.81L552.34 262.81"
fill="none" stroke="black" stroke-width="0.5"/>
<path d="M234.66 29.6L319.12 29.6"
fill="none" stroke="black" stroke-width="0.5"/>
<path d="M701.1 29.6L785.56 29.6"
fill="none" stroke="black" stroke-width="0.5"/>
<path d="M12.11 715.17L75.24 715.17"
fill="none" stroke="black" stroke-width="0.5"/>
<path d="M478.54 715.17L541.68 715.17"
fill="none" stroke="black" stroke-width="0.5"/>
<path d="M245.32 481.95L308.46 481.95"
fill="none" stroke="black" stroke-width="0.5"/>
<path d="M711.76 481.95L774.89 481.95"
fill="none" stroke="black" stroke-width="0.5"/>
<path d="M12.11 248.74L75.24 248.74"
fill="none" stroke="black" stroke-width="0.5"/>
<path d="M478.54 248.74L541.68 248.74"
fill="none" stroke="black" stroke-width="0.5"/>
<path d="M245.32 15.52L308.46 15.52"
fill="none" stroke="black" stroke-width="0.5"/>
<path d="M711.76 15.52L774.89 15.52"
fill="none" stroke="black" stroke-width="0.5"/>
<path d="M715.17 541.68L715.17 478.54"
fill="none" stroke="black" stroke-width="0.5"/>
<path d="M715.17 75.24L715.17 12.11"
fill="none" stroke="black" stroke-width="0.5"/>
<path d="M481.95 774.89L481.95 711.76"
fill="none" stroke="black" stroke-width="0.5"/>
<path d="M481.95 308.46L481.95 245.32"
fill="none" stroke="black" stroke-width="0.5"/>
<path d="M248.74 541.68L248.74 478.54"
fill="none" stroke="black" stroke-width="0.5"/>
<path d="M248.74 75.24L248.74 12.11"
fill="none" stroke="black" stroke-width="0.5"/>
<path d="M15.52 774.89L15.52 711.76"
fill="none" stroke="black" stroke-width="0.5"/>
<path d="M15.52 308.46L15.52 245.32"
fill="none" stroke="black" stroke-width="0.5"/>
<path d="M729.25 552.34L729.25 467.88"
fill="none" stroke="black" stroke-width="0.5"/>
<path d="M729.25 85.9L729.25 1.44"
fill="none" stroke="black" stroke-width="0.5"/>
<path d="M496.03 785.56L496.03 701.1"
fill="none" stroke="black" stroke-width="0.5"/>
<path d="M496.03 319.12L496.03 234.66"
fill="none" stroke="black" stroke-width="0.5"/>
<path d="M262.81 552.34L262.81 467.88"
fill="none" stroke="black" stroke-width="0.5"/>
<path d="M262.81 85.9L262.81 1.44"
fill="none" stroke="black" stroke-width="0.5"/>
<path d="M29.6 785.56L29.6 701.1"
fill="none" stroke="black" stroke-width="0.5"/>
<path d="M29.6 319.12L29.6 234.66"
fill="none" stroke="black" stroke-width="0.5"/>
<path d="M743.33 552.34L743.33 467.88"
fill="none" stroke="black" stroke-width="0.5"/>
<path d="M743.33 85.9L743.33 1.44"
fill="none" stroke="black" stroke-width="0.5"/>
<path d="M510.11 785.56L510.11 701.1"
fill="none" stroke="black" stroke-width="0.5"/>
<path d="M510.11 319.12L510.11 234.66"
fill="none" stroke="black" stroke-width="0.5"/>
<path d="M276.89 552.34L276.89 467.88"
fill="none" stroke="black" stroke-width="0.5"/>
<path d="M276.89 85.9L276.89 1.44"
fill="none" stroke="black" stroke-width="0.5"/>
<path d="M43.67 785.56L43.67 701.1"
fill="none" stroke="black" stroke-width="0.5"/>
<path d="M43.67 319.12L43.67 234.66"
fill="none" stroke="black" stroke-width="0.5"/>
<path d="M757.4 552.34L757.4 467.88"
fill="none" stroke="black" stroke-width="0.5"/>
<path d="M757.4 85.9L757.4 1.44"
fill="none" stroke="black" stroke-width="0.5"/>
<path d="M524.19 785.56L524.19 701.1"
fill="none" stroke="black" stroke-width="0.5"/>
<path d="M524.19 319.12L524.19 234.66"
fill="none" stroke="black" stroke-width="0.5"/>
<path d="M290.97 552.34L290.97 467.88"
fill="none" stroke="black" stroke-width="0.5"/>
<path d="M290.97 85.9L290.97 1.44"
fill="none" stroke="black" stroke-width="0.5"/>
<path d="M57.75 785.56L57.75 701.1"
fill="none" stroke="black" stroke-width="0.5"/>
<path d="M57.75 319.12L57.75 234.66"
fill="none" stroke="black" stroke-width="0.5"/>
<path d="M771.48 541.68L771.48 478.54"
fill="none" stroke="black" stroke-width="0.5"/>
<path d="M771.48 75.24L771.48 12.11"
fill="none" stroke="black" stroke-width="0.5"/>
<path d="M538.26 774.89L538.26 711.76"
fill="none" stroke="black" stroke-width="0.5"/>
<path d="M538.26 308.46L538.26 245.32"
fill="none" stroke="black" stroke-width="0.5"/>
<path d="M305.05 541.68L305.05 478.54"
fill="none" stroke="black" stroke-width="0.5"/>
<path d="M305.05 75.24L305.05 12.11"
fill="none" stroke="black" stroke-width="0.5"/>
<path d="M71.83 774.89L71.83 711.76"
fill="none" stroke="black" stroke-width="0.5"/>
<path d="M71.83 308.46L71.83 245.32"
fill="none" stroke="black" stroke-width="0.5"/>
<path d="M269.89 750.32L283.89 750.32"
fill="none" stroke="black" stroke-width="0.5"/>
<path d="M736.33 750.32L750.32 750.32"
fill="none" stroke="black" stroke-width="0.5"/>
<path d="M36.68 517.11L50.67 517.11"
fill="none" stroke="black" stroke-width="0.5"/>
<path d="M503.11 517.11L517.11 517.11"
fill="none" stroke="black" stroke-width="0.5"/>
<path d="M269.89 283.89L283.89 283.89"
fill="none" stroke="black" stroke-width="0.5"/>
<path d="M736.33 283.89L750.32 283.89"
fill="none" stroke="black" stroke-width="0.5"/>
<path d="M36.68 50.67L50.67 50.67"
fill="none" stroke="black" stroke-width="0.5"/>
<path d="M503.11 50.67L517.11 50.67"
fill="none" stroke="black" stroke-width="0.5"/>
<path d="M269.89 736.33L283.89 736.33"
fill="none" stroke="black" stroke-width="0.5"/>
<path d="M736.33 736.33L750.32 736.33"
fill="none" stroke="black" stroke-width="0.5"/>
<path d="M36.68 503.11L50.67 503.11"
fill="none" stroke="black" stroke-width="0.5"/>
<path d="M503.11 503.11L517.11 503.11"
fill="none" stroke="black" stroke-width="0.5"/>
<path d="M269.89 269.89L283.89 269.89"
fill="none" stroke="black" stroke-width="0.5"/>
<path d="M736.33 269.89L750.32 269.89"
fill="none" stroke="black" stroke-width="0.5"/>
<path d="M36.68 36.68L50.67 36.68"
fill="none" stroke="black" stroke-width="0.5"/>
<path d="M503.11 36.68L517.11 36.68"
fill="none" stroke="black" stroke-width="0.5"/>
<path d="M736.33 750.32L736.33 736.33"
fill="none" stroke="black" stroke-width="0.5"/>
<path d="M736.33 283.89L736.33 269.89"
fill="none" stroke="black" stroke-width="0.5"/>
<path d="M503.11 517.11L503.11 503.11"
fill="none" stroke="black" stroke-width="0.5"/>
<path d="M503.11 50.67L503.11 36.68"
fill="none" stroke="black" stroke-width="0.5"/>
<path d="M269.89 750.32L269.89 736.33"
fill="none" stroke="black" stroke-width="0.5"/>
<path d="M269.89 283.89L269.89 269.89"
fill="none" stroke="black" stroke-width="0.5"/>
<path d="M36.68 517.11L36.68 503.11"
fill="none" stroke="black" stroke-width="0.5"/>
<path d="M36.68 50.67L36.68 36.68"
fill="none" stroke="black" stroke-width="0.5"/>
<path d="M750.32 750.32L750.32 736.33"
fill="none" stroke="black" stroke-width="0.5"/>
<path d="M750.32 283.89L750.32 269.89"
fill="none" stroke="black" stroke-width="0.5"/>
<path d="M517.11 517.11L517.11 503.11"
fill="none" stroke="black" stroke-width="0.5"/>
<path d="M517.11 50.67L517.11 36.68"
fill="none" stroke="black" stroke-width="0.5"/>
<path d="M283.89 750.32L283.89 736.33"
fill="none" stroke="black" stroke-width="0.5"/>
<path d="M283.89 283.89L283.89 269.89"
fill="none" stroke="black" stroke-width="0.5"/>
<path d="M50.67 517.11L50.67 503.11"
fill="none" stroke="black" stroke-width="0.5"/>
<path d="M50.67 50.67L50.67 36.68"
fill="none" stroke="black" stroke-width="0.5"/>
</svg>
