<?xml version="1.0" encoding="UTF-8"?>
<svg xmlns="http://www.w3.org/2000/svg" width="99.949mm" height="99.949mm" viewBox="0.0 0.0 787.000 787.000" preserveAspectRatio="none" version="1.1">
  <title>Produce by Acme CAD Converter</title>
  <desc>Produce by Acme CAD Converter</desc>
<path d="M143.56 609.95L186.03 609.95"
fill="none" stroke="black" stroke-width="0.5"/>
<path d="M535.62 609.95L578.09 609.95"
fill="none" stroke="black" stroke-width="0.5"/>
<path d="M241.58 553.36L284.05 553.36"
fill="none" stroke="black" stroke-width="0.5"/>
<path d="M633.63 553.36L676.11 553.36"
fill="none" stroke="black" stroke-width="0.5"/>
<path d="M339.59 496.77L382.06 496.77"
fill="none" stroke="black" stroke-width="0.5"/>
<path d="M731.65 496.77L774.12 496.77"
fill="none" stroke="black" stroke-width="0.5"/>
<path d="M45.55 440.19L88.02 440.19"
fill="none" stroke="black" stroke-width="0.5"/>
<path d="M437.61 440.19L480.08 440.19"
fill="none" stroke="black" stroke-width="0.5"/>
<path d="M143.56 383.6L186.03 383.6"
fill="none" stroke="black" stroke-width="0.5"/>
<path d="M535.62 383.6L578.09 383.6"
fill="none" stroke="black" stroke-width="0.5"/>
<path d="M241.58 327.01L284.05 327.01"
fill="none" stroke="black" stroke-width="0.5"/>
<path d="M633.63 327.01L676.11 327.01"
fill="none" stroke="black" stroke-width="0.5"/>
<path d="M339.59 270.42L382.06 270.42"
fill="none" stroke="black" stroke-width="0.5"/>
<path d="M731.65 270.42L774.12 270.42"
fill="none" stroke="black" stroke-width="0.5"/>
<path d="M45.55 213.83L88.02 213.83"
fill="none" stroke="black" stroke-width="0.5"/>
<path d="M437.61 213.83L480.08 213.83"
fill="none" stroke="black" stroke-width="0.5"/>
<path d="M349.39 601.46L372.26 601.46"
fill="none" stroke="black" stroke-width="0.5"/>
<path d="M741.45 601.46L764.32 601.46"
fill="none" stroke="black" stroke-width="0.5"/>
<path d="M55.35 544.87L78.22 544.87"
fill="none" stroke="black" stroke-width="0.5"/>
<path d="M447.41 544.87L470.28 544.87"
fill="none" stroke="black" stroke-width="0.5"/>
<path d="M153.37 488.29L176.23 488.29"
fill="none" stroke="black" stroke-width="0.5"/>
<path d="M545.42 488.29L568.29 488.29"
fill="none" stroke="black" stroke-width="0.5"/>
<path d="M251.38 431.7L274.25 431.7"
fill="none" stroke="black" stroke-width="0.5"/>
<path d="M643.44 431.7L666.31 431.7"
fill="none" stroke="black" stroke-width="0.5"/>
<path d="M349.39 375.11L372.26 375.11"
fill="none" stroke="black" stroke-width="0.5"/>
<path d="M741.45 375.11L764.32 375.11"
fill="none" stroke="black" stroke-width="0.5"/>
<path d="M55.35 318.52L78.22 318.52"
fill="none" stroke="black" stroke-width="0.5"/>
<path d="M447.41 318.52L470.28 318.52"
fill="none" stroke="black" stroke-width="0.5"/>
<path d="M153.37 261.93L176.23 261.93"
fill="none" stroke="black" stroke-width="0.5"/>
<path d="M545.42 261.93L568.29 261.93"
fill="none" stroke="black" stroke-width="0.5"/>
<path d="M251.38 205.34L274.25 205.34"
fill="none" stroke="black" stroke-width="0.5"/>
<path d="M643.44 205.34L666.31 205.34"
fill="none" stroke="black" stroke-width="0.5"/>
<path d="M66.78 177.05L45.55 213.83"
fill="none" stroke="black" stroke-width="0.5"/>
<path d="M99.46 233.64L78.22 270.42"
fill="none" stroke="black" stroke-width="0.5"/>
<path d="M34.11 346.81L12.88 383.6"
fill="none" stroke="black" stroke-width="0.5"/>
<path d="M197.47 177.05L176.23 213.83"
fill="none" stroke="black" stroke-width="0.5"/>
<path d="M132.13 290.23L110.89 327.01"
fill="none" stroke="black" stroke-width="0.5"/>
<path d="M66.78 403.4L45.55 440.19"
fill="none" stroke="black" stroke-width="0.5"/>
<path d="M230.14 233.64L208.91 270.42"
fill="none" stroke="black" stroke-width="0.5"/>
<path d="M164.8 346.81L143.56 383.6"
fill="none" stroke="black" stroke-width="0.5"/>
<path d="M99.46 459.99L78.22 496.77"
fill="none" stroke="black" stroke-width="0.5"/>
<path d="M34.11 573.17L12.88 609.95"
fill="none" stroke="black" stroke-width="0.5"/>
<path d="M328.16 177.05L306.92 213.83"
fill="none" stroke="black" stroke-width="0.5"/>
<path d="M262.81 290.23L241.58 327.01"
fill="none" stroke="black" stroke-width="0.5"/>
<path d="M197.47 403.4L176.23 440.19"
fill="none" stroke="black" stroke-width="0.5"/>
<path d="M132.13 516.58L110.89 553.36"
fill="none" stroke="black" stroke-width="0.5"/>
<path d="M360.83 233.64L339.59 270.42"
fill="none" stroke="black" stroke-width="0.5"/>
<path d="M295.49 346.81L274.25 383.6"
fill="none" stroke="black" stroke-width="0.5"/>
<path d="M230.14 459.99L208.91 496.77"
fill="none" stroke="black" stroke-width="0.5"/>
<path d="M164.8 573.17L143.56 609.95"
fill="none" stroke="black" stroke-width="0.5"/>
<path d="M458.84 177.05L437.61 213.83"
fill="none" stroke="black" stroke-width="0.5"/>
<path d="M393.5 290.23L372.26 327.01"
fill="none" stroke="black" stroke-width="0.5"/>
<path d="M328.16 403.4L306.92 440.19"
fill="none" stroke="black" stroke-width="0.5"/>
<path d="M262.81 516.58L241.58 553.36"
fill="none" stroke="black" stroke-width="0.5"/>
<path d="M491.51 233.64L470.28 270.42"
fill="none" stroke="black" stroke-width="0.5"/>
<path d="M426.17 346.81L404.94 383.6"
fill="none" stroke="black" stroke-width="0.5"/>
<path d="M360.83 459.99L339.59 496.77"
fill="none" stroke="black" stroke-width="0.5"/>
<path d="M295.49 573.17L274.25 609.95"
fill="none" stroke="black" stroke-width="0.5"/>
<path d="M589.53 177.05L568.29 213.83"
fill="none" stroke="black" stroke-width="0.5"/>
<path d="M524.19 290.23L502.95 327.01"
fill="none" stroke="black" stroke-width="0.5"/>
<path d="M458.84 403.4L437.61 440.19"
fill="none" stroke="black" stroke-width="0.5"/>
<path d="M393.5 516.58L372.26 553.36"
fill="none" stroke="black" stroke-width="0.5"/>
<path d="M622.2 233.64L600.96 270.42"
fill="none" stroke="black" stroke-width="0.5"/>
<path d="M556.86 346.81L535.62 383.6"
fill="none" stroke="black" stroke-width="0.5"/>
<path d="M491.51 459.99L470.28 496.77"
fill="none" stroke="black" stroke-width="0.5"/>
<path d="M426.17 573.17L404.94 609.95"
fill="none" stroke="black" stroke-width="0.5"/>
<path d="M720.21 177.05L698.98 213.83"
fill="none" stroke="black" stroke-width="0.5"/>
<path d="M654.87 290.23L633.63 327.01"
fill="none" stroke="black" stroke-width="0.5"/>
<path d="M589.53 403.4L568.29 440.19"
fill="none" stroke="black" stroke-width="0.5"/>
<path d="M524.19 516.58L502.95 553.36"
fill="none" stroke="black" stroke-width="0.5"/>
<path d="M752.89 233.64L731.65 270.42"
fill="none" stroke="black" stroke-width="0.5"/>
<path d="M687.54 346.81L666.31 383.6"
fill="none" stroke="black" stroke-width="0.5"/>
<path d="M622.2 459.99L600.96 496.77"
fill="none" stroke="black" stroke-width="0.5"/>
<path d="M556.86 573.17L535.62 609.95"
fill="none" stroke="black" stroke-width="0.5"/>
<path d="M785.56 290.23L764.32 327.01"
fill="none" stroke="black" stroke-width="0.5"/>
<path d="M720.21 403.4L698.98 440.19"
fill="none" stroke="black" stroke-width="0.5"/>
<path d="M654.87 516.58L633.63 553.36"
fill="none" stroke="black" stroke-width="0.5"/>
<path d="M752.89 459.99L731.65 496.77"
fill="none" stroke="black" stroke-width="0.5"/>
<path d="M687.54 573.17L666.31 609.95"
fill="none" stroke="black" stroke-width="0.5"/>
<path d="M785.56 516.58L764.32 553.36"
fill="none" stroke="black" stroke-width="0.5"/>
<path d="M1.44 516.58L22.68 553.36"
fill="none" stroke="black" stroke-width="0.5"/>
<path d="M34.11 573.17L55.35 609.95"
fill="none" stroke="black" stroke-width="0.5"/>
<path d="M1.44 290.23L22.68 327.01"
fill="none" stroke="black" stroke-width="0.5"/>
<path d="M34.11 346.81L55.35 383.6"
fill="none" stroke="black" stroke-width="0.5"/>
<path d="M66.78 403.4L88.02 440.19"
fill="none" stroke="black" stroke-width="0.5"/>
<path d="M99.46 459.99L120.69 496.77"
fill="none" stroke="black" stroke-width="0.5"/>
<path d="M132.13 516.58L153.37 553.36"
fill="none" stroke="black" stroke-width="0.5"/>
<path d="M164.8 573.17L186.03 609.95"
fill="none" stroke="black" stroke-width="0.5"/>
<path d="M66.78 177.05L88.02 213.83"
fill="none" stroke="black" stroke-width="0.5"/>
<path d="M99.46 233.64L120.69 270.42"
fill="none" stroke="black" stroke-width="0.5"/>
<path d="M132.13 290.23L153.37 327.01"
fill="none" stroke="black" stroke-width="0.5"/>
<path d="M164.8 346.81L186.03 383.6"
fill="none" stroke="black" stroke-width="0.5"/>
<path d="M197.47 403.4L218.71 440.19"
fill="none" stroke="black" stroke-width="0.5"/>
<path d="M230.14 459.99L251.38 496.77"
fill="none" stroke="black" stroke-width="0.5"/>
<path d="M262.81 516.58L284.05 553.36"
fill="none" stroke="black" stroke-width="0.5"/>
<path d="M295.49 573.17L316.72 609.95"
fill="none" stroke="black" stroke-width="0.5"/>
<path d="M197.47 177.05L218.71 213.83"
fill="none" stroke="black" stroke-width="0.5"/>
<path d="M230.14 233.64L251.38 270.42"
fill="none" stroke="black" stroke-width="0.5"/>
<path d="M262.81 290.23L284.05 327.01"
fill="none" stroke="black" stroke-width="0.5"/>
<path d="M295.49 346.81L316.72 383.6"
fill="none" stroke="black" stroke-width="0.5"/>
<path d="M328.16 403.4L349.39 440.19"
fill="none" stroke="black" stroke-width="0.5"/>
<path d="M360.83 459.99L382.06 496.77"
fill="none" stroke="black" stroke-width="0.5"/>
<path d="M393.5 516.58L414.74 553.36"
fill="none" stroke="black" stroke-width="0.5"/>
<path d="M426.17 573.17L447.41 609.95"
fill="none" stroke="black" stroke-width="0.5"/>
<path d="M328.16 177.05L349.39 213.83"
fill="none" stroke="black" stroke-width="0.5"/>
<path d="M360.83 233.64L382.06 270.42"
fill="none" stroke="black" stroke-width="0.5"/>
<path d="M393.5 290.23L414.74 327.01"
fill="none" stroke="black" stroke-width="0.5"/>
<path d="M426.17 346.81L447.41 383.6"
fill="none" stroke="black" stroke-width="0.5"/>
<path d="M458.84 403.4L480.08 440.19"
fill="none" stroke="black" stroke-width="0.5"/>
<path d="M491.51 459.99L512.75 496.77"
fill="none" stroke="black" stroke-width="0.5"/>
<path d="M524.19 516.58L545.42 553.36"
fill="none" stroke="black" stroke-width="0.5"/>
<path d="M556.86 573.17L578.09 609.95"
fill="none" stroke="black" stroke-width="0.5"/>
<path d="M458.84 177.05L480.08 213.83"
fill="none" stroke="black" stroke-width="0.5"/>
<path d="M491.51 233.64L512.75 270.42"
fill="none" stroke="black" stroke-width="0.5"/>
<path d="M524.19 290.23L545.42 327.01"
fill="none" stroke="black" stroke-width="0.5"/>
<path d="M556.86 346.81L578.09 383.6"
fill="none" stroke="black" stroke-width="0.5"/>
<path d="M589.53 403.4L610.76 440.19"
fill="none" stroke="black" stroke-width="0.5"/>
<path d="M622.2 459.99L643.44 496.77"
fill="none" stroke="black" stroke-width="0.5"/>
<path d="M654.87 516.58L676.11 553.36"
fill="none" stroke="black" stroke-width="0.5"/>
<path d="M687.54 573.17L708.78 609.95"
fill="none" stroke="black" stroke-width="0.5"/>
<path d="M589.53 177.05L610.76 213.83"
fill="none" stroke="black" stroke-width="0.5"/>
<path d="M622.2 233.64L643.44 270.42"
fill="none" stroke="black" stroke-width="0.5"/>
<path d="M654.87 290.23L676.11 327.01"
fill="none" stroke="black" stroke-width="0.5"/>
<path d="M687.54 346.81L708.78 383.6"
fill="none" stroke="black" stroke-width="0.5"/>
<path d="M720.21 403.4L741.45 440.19"
fill="none" stroke="black" stroke-width="0.5"/>
<path d="M752.89 459.99L774.12 496.77"
fill="none" stroke="black" stroke-width="0.5"/>
<path d="M785.56 516.58L785.56 516.58"
fill="none" stroke="black" stroke-width="0.5"/>
<path d="M720.21 177.05L741.45 213.83"
fill="none" stroke="black" stroke-width="0.5"/>
<path d="M752.89 233.64L774.12 270.42"
fill="none" stroke="black" stroke-width="0.5"/>
<path d="M785.56 290.23L785.56 290.23"
fill="none" stroke="black" stroke-width="0.5"/>
<path d="M34.11 242.13L22.68 261.93"
fill="none" stroke="black" stroke-width="0.5"/>
<path d="M132.13 185.54L120.69 205.34"
fill="none" stroke="black" stroke-width="0.5"/>
<path d="M66.78 298.71L55.35 318.52"
fill="none" stroke="black" stroke-width="0.5"/>
<path d="M164.8 242.13L153.37 261.93"
fill="none" stroke="black" stroke-width="0.5"/>
<path d="M99.46 355.3L88.02 375.11"
fill="none" stroke="black" stroke-width="0.5"/>
<path d="M34.11 468.48L22.68 488.29"
fill="none" stroke="black" stroke-width="0.5"/>
<path d="M262.81 185.54L251.38 205.34"
fill="none" stroke="black" stroke-width="0.5"/>
<path d="M197.47 298.71L186.03 318.52"
fill="none" stroke="black" stroke-width="0.5"/>
<path d="M132.13 411.89L120.69 431.7"
fill="none" stroke="black" stroke-width="0.5"/>
<path d="M66.78 525.07L55.35 544.87"
fill="none" stroke="black" stroke-width="0.5"/>
<path d="M295.49 242.13L284.05 261.93"
fill="none" stroke="black" stroke-width="0.5"/>
<path d="M230.14 355.3L218.71 375.11"
fill="none" stroke="black" stroke-width="0.5"/>
<path d="M164.8 468.48L153.37 488.29"
fill="none" stroke="black" stroke-width="0.5"/>
<path d="M99.46 581.66L88.02 601.46"
fill="none" stroke="black" stroke-width="0.5"/>
<path d="M393.5 185.54L382.06 205.34"
fill="none" stroke="black" stroke-width="0.5"/>
<path d="M328.16 298.71L316.72 318.52"
fill="none" stroke="black" stroke-width="0.5"/>
<path d="M262.81 411.89L251.38 431.7"
fill="none" stroke="black" stroke-width="0.5"/>
<path d="M197.47 525.07L186.03 544.87"
fill="none" stroke="black" stroke-width="0.5"/>
<path d="M426.17 242.13L414.74 261.93"
fill="none" stroke="black" stroke-width="0.5"/>
<path d="M360.83 355.3L349.39 375.11"
fill="none" stroke="black" stroke-width="0.5"/>
<path d="M295.49 468.48L284.05 488.29"
fill="none" stroke="black" stroke-width="0.5"/>
<path d="M230.14 581.66L218.71 601.46"
fill="none" stroke="black" stroke-width="0.5"/>
<path d="M524.19 185.54L512.75 205.34"
fill="none" stroke="black" stroke-width="0.5"/>
<path d="M458.84 298.71L447.41 318.52"
fill="none" stroke="black" stroke-width="0.5"/>
<path d="M393.5 411.89L382.06 431.7"
fill="none" stroke="black" stroke-width="0.5"/>
<path d="M328.16 525.07L316.72 544.87"
fill="none" stroke="black" stroke-width="0.5"/>
<path d="M556.86 242.13L545.42 261.93"
fill="none" stroke="black" stroke-width="0.5"/>
<path d="M491.51 355.3L480.08 375.11"
fill="none" stroke="black" stroke-width="0.5"/>
<path d="M426.17 468.48L414.74 488.29"
fill="none" stroke="black" stroke-width="0.5"/>
<path d="M360.83 581.66L349.39 601.46"
fill="none" stroke="black" stroke-width="0.5"/>
<path d="M654.87 185.54L643.44 205.34"
fill="none" stroke="black" stroke-width="0.5"/>
<path d="M589.53 298.71L578.09 318.52"
fill="none" stroke="black" stroke-width="0.5"/>
<path d="M524.19 411.89L512.75 431.7"
fill="none" stroke="black" stroke-width="0.5"/>
<path d="M458.84 525.07L447.41 544.87"
fill="none" stroke="black" stroke-width="0.5"/>
<path d="M687.54 242.13L676.11 261.93"
fill="none" stroke="black" stroke-width="0.5"/>
<path d="M622.2 355.3L610.76 375.11"
fill="none" stroke="black" stroke-width="0.5"/>
<path d="M556.86 468.48L545.42 488.29"
fill="none" stroke="black" stroke-width="0.5"/>
<path d="M491.51 581.66L480.08 601.46"
fill="none" stroke="black" stroke-width="0.5"/>
<path d="M785.56 185.54L774.12 205.34"
fill="none" stroke="black" stroke-width="0.5"/>
<path d="M720.21 298.71L708.78 318.52"
fill="none" stroke="black" stroke-width="0.5"/>
<path d="M654.87 411.89L643.44 431.7"
fill="none" stroke="black" stroke-width="0.5"/>
<path d="M589.53 525.07L578.09 544.87"
fill="none" stroke="black" stroke-width="0.5"/>
<path d="M752.89 355.3L741.45 375.11"
fill="none" stroke="black" stroke-width="0.5"/>
<path d="M687.54 468.48L676.11 488.29"
fill="none" stroke="black" stroke-width="0.5"/>
<path d="M622.2 581.66L610.76 601.46"
fill="none" stroke="black" stroke-width="0.5"/>
<path d="M785.56 411.89L774.12 431.7"
fill="none" stroke="black" stroke-width="0.5"/>
<path d="M720.21 525.07L708.78 544.87"
fill="none" stroke="black" stroke-width="0.5"/>
<path d="M752.89 581.66L741.45 601.46"
fill="none" stroke="black" stroke-width="0.5"/>
<path d="M1.46 411.93L12.9 431.74"
fill="none" stroke="black" stroke-width="0.5"/>
<path d="M34.13 468.51L45.57 488.32"
fill="none" stroke="black" stroke-width="0.5"/>
<path d="M66.8 525.09L78.23 544.9"
fill="none" stroke="black" stroke-width="0.5"/>
<path d="M99.47 581.67L110.9 601.48"
fill="none" stroke="black" stroke-width="0.5"/>
<path d="M1.48 185.6L12.92 205.41"
fill="none" stroke="black" stroke-width="0.5"/>
<path d="M34.15 242.19L45.58 261.99"
fill="none" stroke="black" stroke-width="0.5"/>
<path d="M66.82 298.77L78.25 318.57"
fill="none" stroke="black" stroke-width="0.5"/>
<path d="M99.48 355.35L110.92 375.15"
fill="none" stroke="black" stroke-width="0.5"/>
<path d="M132.15 411.93L143.58 431.74"
fill="none" stroke="black" stroke-width="0.5"/>
<path d="M164.82 468.51L176.25 488.32"
fill="none" stroke="black" stroke-width="0.5"/>
<path d="M197.48 525.09L208.92 544.9"
fill="none" stroke="black" stroke-width="0.5"/>
<path d="M230.15 581.67L241.59 601.48"
fill="none" stroke="black" stroke-width="0.5"/>
<path d="M132.17 185.6L143.6 205.41"
fill="none" stroke="black" stroke-width="0.5"/>
<path d="M164.83 242.19L176.27 261.99"
fill="none" stroke="black" stroke-width="0.5"/>
<path d="M197.5 298.77L208.94 318.57"
fill="none" stroke="black" stroke-width="0.5"/>
<path d="M230.17 355.35L241.6 375.15"
fill="none" stroke="black" stroke-width="0.5"/>
<path d="M262.84 411.93L274.27 431.74"
fill="none" stroke="black" stroke-width="0.5"/>
<path d="M295.5 468.51L306.94 488.32"
fill="none" stroke="black" stroke-width="0.5"/>
<path d="M328.17 525.09L339.61 544.9"
fill="none" stroke="black" stroke-width="0.5"/>
<path d="M360.84 581.67L372.27 601.48"
fill="none" stroke="black" stroke-width="0.5"/>
<path d="M262.85 185.6L274.29 205.41"
fill="none" stroke="black" stroke-width="0.5"/>
<path d="M295.52 242.19L306.96 261.99"
fill="none" stroke="black" stroke-width="0.5"/>
<path d="M328.19 298.77L339.62 318.57"
fill="none" stroke="black" stroke-width="0.5"/>
<path d="M360.86 355.35L372.29 375.15"
fill="none" stroke="black" stroke-width="0.5"/>
<path d="M393.52 411.93L404.96 431.74"
fill="none" stroke="black" stroke-width="0.5"/>
<path d="M426.19 468.51L437.62 488.32"
fill="none" stroke="black" stroke-width="0.5"/>
<path d="M458.86 525.09L470.29 544.9"
fill="none" stroke="black" stroke-width="0.5"/>
<path d="M491.52 581.67L502.96 601.48"
fill="none" stroke="black" stroke-width="0.5"/>
<path d="M393.54 185.6L404.97 205.41"
fill="none" stroke="black" stroke-width="0.5"/>
<path d="M426.21 242.19L437.64 261.99"
fill="none" stroke="black" stroke-width="0.5"/>
<path d="M458.87 298.77L470.31 318.57"
fill="none" stroke="black" stroke-width="0.5"/>
<path d="M491.54 355.35L502.98 375.15"
fill="none" stroke="black" stroke-width="0.5"/>
<path d="M524.21 411.93L535.64 431.74"
fill="none" stroke="black" stroke-width="0.5"/>
<path d="M556.87 468.51L568.31 488.32"
fill="none" stroke="black" stroke-width="0.5"/>
<path d="M589.54 525.09L600.98 544.9"
fill="none" stroke="black" stroke-width="0.5"/>
<path d="M622.21 581.67L633.64 601.48"
fill="none" stroke="black" stroke-width="0.5"/>
<path d="M524.22 185.6L535.66 205.41"
fill="none" stroke="black" stroke-width="0.5"/>
<path d="M556.89 242.19L568.33 261.99"
fill="none" stroke="black" stroke-width="0.5"/>
<path d="M589.56 298.77L600.99 318.57"
fill="none" stroke="black" stroke-width="0.5"/>
<path d="M622.23 355.35L633.66 375.15"
fill="none" stroke="black" stroke-width="0.5"/>
<path d="M654.89 411.93L666.33 431.74"
fill="none" stroke="black" stroke-width="0.5"/>
<path d="M687.56 468.51L698.99 488.32"
fill="none" stroke="black" stroke-width="0.5"/>
<path d="M720.23 525.09L731.66 544.9"
fill="none" stroke="black" stroke-width="0.5"/>
<path d="M752.89 581.67L764.33 601.48"
fill="none" stroke="black" stroke-width="0.5"/>
<path d="M654.91 185.6L666.35 205.41"
fill="none" stroke="black" stroke-width="0.5"/>
<path d="M687.58 242.19L699.01 261.99"
fill="none" stroke="black" stroke-width="0.5"/>
<path d="M720.24 298.77L731.68 318.57"
fill="none" stroke="black" stroke-width="0.5"/>
<path d="M752.91 355.35L764.35 375.15"
fill="none" stroke="black" stroke-width="0.5"/>
</svg>
