<?xml version="1.0" encoding="UTF-8"?>
<svg xmlns="http://www.w3.org/2000/svg" width="99.949mm" height="99.949mm" viewBox="0.0 0.0 787.000 787.000" preserveAspectRatio="none" version="1.1">
  <title>Produce by Acme CAD Converter</title>
  <desc>Produce by Acme CAD Converter</desc>
<path d="M785.56 591.56L785.56 591.56"
fill="none" stroke="black" stroke-width="0.5"/>
<path d="M654.87 591.56L687.54 534.97"
fill="none" stroke="black" stroke-width="0.5"/>
<path d="M720.21 478.38L752.89 421.79"
fill="none" stroke="black" stroke-width="0.5"/>
<path d="M785.56 365.21L785.56 365.2"
fill="none" stroke="black" stroke-width="0.5"/>
<path d="M524.18 591.56L556.86 534.97"
fill="none" stroke="black" stroke-width="0.5"/>
<path d="M589.53 478.38L622.2 421.79"
fill="none" stroke="black" stroke-width="0.5"/>
<path d="M654.87 365.21L687.54 308.62"
fill="none" stroke="black" stroke-width="0.5"/>
<path d="M720.21 252.03L752.89 195.44"
fill="none" stroke="black" stroke-width="0.5"/>
<path d="M393.5 591.56L426.17 534.97"
fill="none" stroke="black" stroke-width="0.5"/>
<path d="M458.84 478.38L491.51 421.79"
fill="none" stroke="black" stroke-width="0.5"/>
<path d="M524.18 365.21L556.86 308.62"
fill="none" stroke="black" stroke-width="0.5"/>
<path d="M589.53 252.03L622.2 195.44"
fill="none" stroke="black" stroke-width="0.5"/>
<path d="M262.81 591.56L295.48 534.97"
fill="none" stroke="black" stroke-width="0.5"/>
<path d="M328.16 478.38L360.83 421.79"
fill="none" stroke="black" stroke-width="0.5"/>
<path d="M393.5 365.21L426.17 308.62"
fill="none" stroke="black" stroke-width="0.5"/>
<path d="M458.84 252.03L491.51 195.44"
fill="none" stroke="black" stroke-width="0.5"/>
<path d="M132.13 591.56L164.8 534.97"
fill="none" stroke="black" stroke-width="0.5"/>
<path d="M197.47 478.38L230.14 421.79"
fill="none" stroke="black" stroke-width="0.5"/>
<path d="M262.81 365.21L295.48 308.62"
fill="none" stroke="black" stroke-width="0.5"/>
<path d="M328.16 252.03L360.83 195.44"
fill="none" stroke="black" stroke-width="0.5"/>
<path d="M1.44 591.56L34.11 534.97"
fill="none" stroke="black" stroke-width="0.5"/>
<path d="M66.79 478.38L99.46 421.79"
fill="none" stroke="black" stroke-width="0.5"/>
<path d="M132.13 365.21L164.8 308.62"
fill="none" stroke="black" stroke-width="0.5"/>
<path d="M197.47 252.03L230.14 195.44"
fill="none" stroke="black" stroke-width="0.5"/>
<path d="M1.44 365.21L34.11 308.62"
fill="none" stroke="black" stroke-width="0.5"/>
<path d="M66.79 252.03L99.46 195.44"
fill="none" stroke="black" stroke-width="0.5"/>
<path d="M785.56 252.03L752.89 195.44"
fill="none" stroke="black" stroke-width="0.5"/>
<path d="M785.56 478.38L752.89 421.79"
fill="none" stroke="black" stroke-width="0.5"/>
<path d="M720.21 365.21L687.54 308.62"
fill="none" stroke="black" stroke-width="0.5"/>
<path d="M654.87 252.03L622.2 195.44"
fill="none" stroke="black" stroke-width="0.5"/>
<path d="M720.21 591.56L687.54 534.97"
fill="none" stroke="black" stroke-width="0.5"/>
<path d="M654.87 478.38L622.2 421.79"
fill="none" stroke="black" stroke-width="0.5"/>
<path d="M589.53 365.21L556.86 308.62"
fill="none" stroke="black" stroke-width="0.5"/>
<path d="M524.18 252.03L491.51 195.44"
fill="none" stroke="black" stroke-width="0.5"/>
<path d="M589.53 591.56L556.86 534.97"
fill="none" stroke="black" stroke-width="0.5"/>
<path d="M524.18 478.38L491.51 421.79"
fill="none" stroke="black" stroke-width="0.5"/>
<path d="M458.84 365.21L426.17 308.62"
fill="none" stroke="black" stroke-width="0.5"/>
<path d="M393.5 252.03L360.83 195.44"
fill="none" stroke="black" stroke-width="0.5"/>
<path d="M458.84 591.56L426.17 534.97"
fill="none" stroke="black" stroke-width="0.5"/>
<path d="M393.5 478.38L360.83 421.79"
fill="none" stroke="black" stroke-width="0.5"/>
<path d="M328.16 365.21L295.48 308.62"
fill="none" stroke="black" stroke-width="0.5"/>
<path d="M262.81 252.03L230.14 195.44"
fill="none" stroke="black" stroke-width="0.5"/>
<path d="M328.16 591.56L295.48 534.97"
fill="none" stroke="black" stroke-width="0.5"/>
<path d="M262.81 478.38L230.14 421.79"
fill="none" stroke="black" stroke-width="0.5"/>
<path d="M197.47 365.21L164.8 308.62"
fill="none" stroke="black" stroke-width="0.5"/>
<path d="M132.13 252.03L99.46 195.44"
fill="none" stroke="black" stroke-width="0.5"/>
<path d="M197.47 591.56L164.8 534.97"
fill="none" stroke="black" stroke-width="0.5"/>
<path d="M132.13 478.38L99.46 421.79"
fill="none" stroke="black" stroke-width="0.5"/>
<path d="M66.79 365.21L34.11 308.62"
fill="none" stroke="black" stroke-width="0.5"/>
<path d="M66.79 591.56L34.11 534.97"
fill="none" stroke="black" stroke-width="0.5"/>
<path d="M132.13 591.56L197.47 591.56"
fill="none" stroke="black" stroke-width="0.5"/>
<path d="M524.18 591.56L589.53 591.56"
fill="none" stroke="black" stroke-width="0.5"/>
<path d="M328.16 478.38L393.5 478.38"
fill="none" stroke="black" stroke-width="0.5"/>
<path d="M720.21 478.38L785.56 478.38"
fill="none" stroke="black" stroke-width="0.5"/>
<path d="M132.13 365.21L197.47 365.21"
fill="none" stroke="black" stroke-width="0.5"/>
<path d="M524.18 365.21L589.53 365.21"
fill="none" stroke="black" stroke-width="0.5"/>
<path d="M328.16 252.03L393.5 252.03"
fill="none" stroke="black" stroke-width="0.5"/>
<path d="M720.21 252.03L785.56 252.03"
fill="none" stroke="black" stroke-width="0.5"/>
</svg>
