<?xml version="1.0" encoding="UTF-8"?>
<svg xmlns="http://www.w3.org/2000/svg" width="99.949mm" height="99.949mm" viewBox="0.0 0.0 787.000 787.000" preserveAspectRatio="none" version="1.1">
  <title>Produce by Acme CAD Converter</title>
  <desc>Produce by Acme CAD Converter</desc>
<path d="M673.54 539.01L729.55 442"
fill="none" stroke="black" stroke-width="0.5"/>
<path d="M449.51 733.03L505.52 636.02"
fill="none" stroke="black" stroke-width="0.5"/>
<path d="M673.54 150.98L729.55 53.97"
fill="none" stroke="black" stroke-width="0.5"/>
<path d="M449.51 345L505.52 247.99"
fill="none" stroke="black" stroke-width="0.5"/>
<path d="M225.47 539.01L281.48 442"
fill="none" stroke="black" stroke-width="0.5"/>
<path d="M1.44 733.03L57.45 636.02"
fill="none" stroke="black" stroke-width="0.5"/>
<path d="M225.47 150.98L281.48 53.97"
fill="none" stroke="black" stroke-width="0.5"/>
<path d="M1.44 345L57.45 247.99"
fill="none" stroke="black" stroke-width="0.5"/>
<path d="M785.56 150.98L729.55 53.97"
fill="none" stroke="black" stroke-width="0.5"/>
<path d="M785.56 539.01L729.55 442"
fill="none" stroke="black" stroke-width="0.5"/>
<path d="M561.52 345L505.52 247.99"
fill="none" stroke="black" stroke-width="0.5"/>
<path d="M337.49 150.98L281.48 53.97"
fill="none" stroke="black" stroke-width="0.5"/>
<path d="M561.52 733.03L505.52 636.02"
fill="none" stroke="black" stroke-width="0.5"/>
<path d="M337.49 539.01L281.48 442"
fill="none" stroke="black" stroke-width="0.5"/>
<path d="M113.45 345L57.45 247.99"
fill="none" stroke="black" stroke-width="0.5"/>
<path d="M113.45 733.03L57.45 636.02"
fill="none" stroke="black" stroke-width="0.5"/>
<path d="M1.44 733.03L113.45 733.03"
fill="none" stroke="black" stroke-width="0.5"/>
<path d="M449.51 733.03L561.52 733.03"
fill="none" stroke="black" stroke-width="0.5"/>
<path d="M225.47 539.01L337.49 539.01"
fill="none" stroke="black" stroke-width="0.5"/>
<path d="M673.54 539.01L785.56 539.01"
fill="none" stroke="black" stroke-width="0.5"/>
<path d="M1.44 345L113.45 345"
fill="none" stroke="black" stroke-width="0.5"/>
<path d="M449.51 345L561.52 345"
fill="none" stroke="black" stroke-width="0.5"/>
<path d="M225.47 150.98L337.49 150.98"
fill="none" stroke="black" stroke-width="0.5"/>
<path d="M673.54 150.98L785.56 150.98"
fill="none" stroke="black" stroke-width="0.5"/>
<path d="M729.55 733.03L785.56 636.02"
fill="none" stroke="black" stroke-width="0.5"/>
<path d="M729.55 345L785.56 247.99"
fill="none" stroke="black" stroke-width="0.5"/>
<path d="M505.52 539.01L561.52 442"
fill="none" stroke="black" stroke-width="0.5"/>
<path d="M281.48 733.03L337.49 636.02"
fill="none" stroke="black" stroke-width="0.5"/>
<path d="M505.52 150.98L561.52 53.97"
fill="none" stroke="black" stroke-width="0.5"/>
<path d="M281.48 345L337.49 247.99"
fill="none" stroke="black" stroke-width="0.5"/>
<path d="M57.45 539.01L113.45 442"
fill="none" stroke="black" stroke-width="0.5"/>
<path d="M57.45 150.98L113.45 53.97"
fill="none" stroke="black" stroke-width="0.5"/>
<path d="M729.55 345L673.54 247.99"
fill="none" stroke="black" stroke-width="0.5"/>
<path d="M505.52 150.98L449.51 53.97"
fill="none" stroke="black" stroke-width="0.5"/>
<path d="M729.55 733.03L673.54 636.02"
fill="none" stroke="black" stroke-width="0.5"/>
<path d="M505.52 539.01L449.51 442"
fill="none" stroke="black" stroke-width="0.5"/>
<path d="M281.48 345L225.47 247.99"
fill="none" stroke="black" stroke-width="0.5"/>
<path d="M57.45 150.98L1.44 53.97"
fill="none" stroke="black" stroke-width="0.5"/>
<path d="M281.48 733.03L225.47 636.02"
fill="none" stroke="black" stroke-width="0.5"/>
<path d="M57.45 539.01L1.44 442"
fill="none" stroke="black" stroke-width="0.5"/>
</svg>
