<?xml version="1.0" encoding="UTF-8"?>
<svg xmlns="http://www.w3.org/2000/svg" width="99.949mm" height="99.949mm" viewBox="0.0 0.0 787.000 787.000" preserveAspectRatio="none" version="1.1">
  <title>Produce by Acme CAD Converter</title>
  <desc>Produce by Acme CAD Converter</desc>
<path d="M409.62 421.36L425.94 393.08"
fill="none" stroke="black" stroke-width="0.5"/>
<path d="M605.54 82.01L621.87 53.73"
fill="none" stroke="black" stroke-width="0.5"/>
<path d="M17.77 421.36L34.1 393.08"
fill="none" stroke="black" stroke-width="0.5"/>
<path d="M213.69 82.01L230.02 53.73"
fill="none" stroke="black" stroke-width="0.5"/>
<path d="M605.54 82.01L589.21 53.73"
fill="none" stroke="black" stroke-width="0.5"/>
<path d="M409.62 421.36L393.29 393.08"
fill="none" stroke="black" stroke-width="0.5"/>
<path d="M213.69 82.01L197.37 53.73"
fill="none" stroke="black" stroke-width="0.5"/>
<path d="M17.77 421.36L1.44 393.08"
fill="none" stroke="black" stroke-width="0.5"/>
<path d="M619.88 652.53L636.21 624.25"
fill="none" stroke="black" stroke-width="0.5"/>
<path d="M228.03 652.53L244.36 624.25"
fill="none" stroke="black" stroke-width="0.5"/>
<path d="M423.96 313.18L440.28 284.9"
fill="none" stroke="black" stroke-width="0.5"/>
<path d="M32.11 313.18L48.44 284.9"
fill="none" stroke="black" stroke-width="0.5"/>
<path d="M619.88 652.53L603.55 624.25"
fill="none" stroke="black" stroke-width="0.5"/>
<path d="M423.96 313.18L407.63 284.9"
fill="none" stroke="black" stroke-width="0.5"/>
<path d="M228.03 652.53L211.7 624.25"
fill="none" stroke="black" stroke-width="0.5"/>
<path d="M32.11 313.18L15.78 284.9"
fill="none" stroke="black" stroke-width="0.5"/>
<path d="M623.92 590.54L640.24 562.26"
fill="none" stroke="black" stroke-width="0.5"/>
<path d="M232.07 590.54L248.4 562.26"
fill="none" stroke="black" stroke-width="0.5"/>
<path d="M427.99 251.19L444.32 222.91"
fill="none" stroke="black" stroke-width="0.5"/>
<path d="M36.14 251.19L52.47 222.91"
fill="none" stroke="black" stroke-width="0.5"/>
<path d="M623.92 590.54L607.59 562.26"
fill="none" stroke="black" stroke-width="0.5"/>
<path d="M427.99 251.19L411.67 222.91"
fill="none" stroke="black" stroke-width="0.5"/>
<path d="M232.07 590.54L215.74 562.26"
fill="none" stroke="black" stroke-width="0.5"/>
<path d="M36.14 251.19L19.82 222.91"
fill="none" stroke="black" stroke-width="0.5"/>
<path d="M609.99 486.76L626.31 458.48"
fill="none" stroke="black" stroke-width="0.5"/>
<path d="M218.14 486.76L234.47 458.48"
fill="none" stroke="black" stroke-width="0.5"/>
<path d="M414.06 147.41L430.39 119.13"
fill="none" stroke="black" stroke-width="0.5"/>
<path d="M22.22 147.41L38.54 119.13"
fill="none" stroke="black" stroke-width="0.5"/>
<path d="M609.99 486.76L593.66 458.48"
fill="none" stroke="black" stroke-width="0.5"/>
<path d="M414.06 147.41L397.74 119.13"
fill="none" stroke="black" stroke-width="0.5"/>
<path d="M218.14 486.76L201.82 458.48"
fill="none" stroke="black" stroke-width="0.5"/>
<path d="M22.22 147.41L5.89 119.13"
fill="none" stroke="black" stroke-width="0.5"/>
<path d="M654.01 705.88L670.34 677.6"
fill="none" stroke="black" stroke-width="0.5"/>
<path d="M262.16 705.88L278.49 677.6"
fill="none" stroke="black" stroke-width="0.5"/>
<path d="M458.09 366.53L474.41 338.25"
fill="none" stroke="black" stroke-width="0.5"/>
<path d="M66.24 366.53L82.57 338.25"
fill="none" stroke="black" stroke-width="0.5"/>
<path d="M654.01 705.88L637.68 677.6"
fill="none" stroke="black" stroke-width="0.5"/>
<path d="M458.09 366.53L441.76 338.25"
fill="none" stroke="black" stroke-width="0.5"/>
<path d="M262.16 705.88L245.84 677.6"
fill="none" stroke="black" stroke-width="0.5"/>
<path d="M66.24 366.53L49.91 338.25"
fill="none" stroke="black" stroke-width="0.5"/>
<path d="M670.47 610.72L686.79 582.45"
fill="none" stroke="black" stroke-width="0.5"/>
<path d="M278.62 610.72L294.95 582.45"
fill="none" stroke="black" stroke-width="0.5"/>
<path d="M474.54 271.37L490.87 243.1"
fill="none" stroke="black" stroke-width="0.5"/>
<path d="M82.7 271.37L99.02 243.1"
fill="none" stroke="black" stroke-width="0.5"/>
<path d="M670.47 610.72L654.14 582.45"
fill="none" stroke="black" stroke-width="0.5"/>
<path d="M474.54 271.37L458.22 243.1"
fill="none" stroke="black" stroke-width="0.5"/>
<path d="M278.62 610.72L262.29 582.45"
fill="none" stroke="black" stroke-width="0.5"/>
<path d="M82.7 271.37L66.37 243.1"
fill="none" stroke="black" stroke-width="0.5"/>
<path d="M677.18 569.08L693.51 540.8"
fill="none" stroke="black" stroke-width="0.5"/>
<path d="M285.33 569.08L301.66 540.8"
fill="none" stroke="black" stroke-width="0.5"/>
<path d="M481.26 229.73L497.58 201.45"
fill="none" stroke="black" stroke-width="0.5"/>
<path d="M89.41 229.73L105.74 201.45"
fill="none" stroke="black" stroke-width="0.5"/>
<path d="M677.18 569.08L660.85 540.8"
fill="none" stroke="black" stroke-width="0.5"/>
<path d="M481.26 229.73L464.93 201.45"
fill="none" stroke="black" stroke-width="0.5"/>
<path d="M285.33 569.08L269.01 540.8"
fill="none" stroke="black" stroke-width="0.5"/>
<path d="M89.41 229.73L73.08 201.45"
fill="none" stroke="black" stroke-width="0.5"/>
<path d="M667.33 467.74L683.66 439.46"
fill="none" stroke="black" stroke-width="0.5"/>
<path d="M275.48 467.74L291.81 439.46"
fill="none" stroke="black" stroke-width="0.5"/>
<path d="M471.41 128.39L487.73 100.11"
fill="none" stroke="black" stroke-width="0.5"/>
<path d="M79.56 128.39L95.89 100.11"
fill="none" stroke="black" stroke-width="0.5"/>
<path d="M667.33 467.74L651 439.46"
fill="none" stroke="black" stroke-width="0.5"/>
<path d="M471.41 128.39L455.08 100.11"
fill="none" stroke="black" stroke-width="0.5"/>
<path d="M275.48 467.74L259.16 439.46"
fill="none" stroke="black" stroke-width="0.5"/>
<path d="M79.56 128.39L63.23 100.11"
fill="none" stroke="black" stroke-width="0.5"/>
<path d="M530.64 423.23L546.96 394.95"
fill="none" stroke="black" stroke-width="0.5"/>
<path d="M726.56 83.88L742.89 55.6"
fill="none" stroke="black" stroke-width="0.5"/>
<path d="M138.79 423.23L155.12 394.95"
fill="none" stroke="black" stroke-width="0.5"/>
<path d="M334.71 83.88L351.04 55.6"
fill="none" stroke="black" stroke-width="0.5"/>
<path d="M726.56 83.88L710.23 55.6"
fill="none" stroke="black" stroke-width="0.5"/>
<path d="M530.64 423.23L514.31 394.95"
fill="none" stroke="black" stroke-width="0.5"/>
<path d="M334.71 83.88L318.39 55.6"
fill="none" stroke="black" stroke-width="0.5"/>
<path d="M138.79 423.23L122.46 394.95"
fill="none" stroke="black" stroke-width="0.5"/>
<path d="M720.57 670.94L736.9 642.66"
fill="none" stroke="black" stroke-width="0.5"/>
<path d="M328.72 670.94L345.05 642.66"
fill="none" stroke="black" stroke-width="0.5"/>
<path d="M524.65 331.59L540.97 303.31"
fill="none" stroke="black" stroke-width="0.5"/>
<path d="M132.8 331.59L149.13 303.31"
fill="none" stroke="black" stroke-width="0.5"/>
<path d="M720.57 670.94L704.24 642.66"
fill="none" stroke="black" stroke-width="0.5"/>
<path d="M524.65 331.59L508.32 303.31"
fill="none" stroke="black" stroke-width="0.5"/>
<path d="M328.72 670.94L312.4 642.66"
fill="none" stroke="black" stroke-width="0.5"/>
<path d="M132.8 331.59L116.47 303.31"
fill="none" stroke="black" stroke-width="0.5"/>
<path d="M708.75 561.63L725.07 533.35"
fill="none" stroke="black" stroke-width="0.5"/>
<path d="M316.9 561.63L333.23 533.35"
fill="none" stroke="black" stroke-width="0.5"/>
<path d="M512.82 222.28L529.15 194"
fill="none" stroke="black" stroke-width="0.5"/>
<path d="M120.98 222.28L137.3 194"
fill="none" stroke="black" stroke-width="0.5"/>
<path d="M708.75 561.63L692.42 533.35"
fill="none" stroke="black" stroke-width="0.5"/>
<path d="M512.82 222.28L496.5 194"
fill="none" stroke="black" stroke-width="0.5"/>
<path d="M316.9 561.63L300.57 533.35"
fill="none" stroke="black" stroke-width="0.5"/>
<path d="M120.98 222.28L104.65 194"
fill="none" stroke="black" stroke-width="0.5"/>
<path d="M720.69 476.99L737.02 448.71"
fill="none" stroke="black" stroke-width="0.5"/>
<path d="M328.85 476.99L345.17 448.71"
fill="none" stroke="black" stroke-width="0.5"/>
<path d="M524.77 137.64L541.1 109.36"
fill="none" stroke="black" stroke-width="0.5"/>
<path d="M132.92 137.64L149.25 109.36"
fill="none" stroke="black" stroke-width="0.5"/>
<path d="M720.69 476.99L704.37 448.71"
fill="none" stroke="black" stroke-width="0.5"/>
<path d="M524.77 137.64L508.44 109.36"
fill="none" stroke="black" stroke-width="0.5"/>
<path d="M328.85 476.99L312.52 448.71"
fill="none" stroke="black" stroke-width="0.5"/>
<path d="M132.92 137.64L116.6 109.36"
fill="none" stroke="black" stroke-width="0.5"/>
<path d="M748.53 687.42L764.85 659.14"
fill="none" stroke="black" stroke-width="0.5"/>
<path d="M356.68 687.42L373.01 659.14"
fill="none" stroke="black" stroke-width="0.5"/>
<path d="M552.6 348.07L568.93 319.79"
fill="none" stroke="black" stroke-width="0.5"/>
<path d="M160.75 348.07L177.08 319.79"
fill="none" stroke="black" stroke-width="0.5"/>
<path d="M748.53 687.42L732.2 659.14"
fill="none" stroke="black" stroke-width="0.5"/>
<path d="M552.6 348.07L536.27 319.79"
fill="none" stroke="black" stroke-width="0.5"/>
<path d="M356.68 687.42L340.35 659.14"
fill="none" stroke="black" stroke-width="0.5"/>
<path d="M160.75 348.07L144.43 319.79"
fill="none" stroke="black" stroke-width="0.5"/>
<path d="M760.66 648.2L776.99 619.92"
fill="none" stroke="black" stroke-width="0.5"/>
<path d="M368.82 648.2L385.14 619.92"
fill="none" stroke="black" stroke-width="0.5"/>
<path d="M564.74 308.85L581.07 280.57"
fill="none" stroke="black" stroke-width="0.5"/>
<path d="M172.89 308.85L189.22 280.57"
fill="none" stroke="black" stroke-width="0.5"/>
<path d="M760.66 648.2L744.34 619.92"
fill="none" stroke="black" stroke-width="0.5"/>
<path d="M564.74 308.85L548.41 280.57"
fill="none" stroke="black" stroke-width="0.5"/>
<path d="M368.82 648.2L352.49 619.92"
fill="none" stroke="black" stroke-width="0.5"/>
<path d="M172.89 308.85L156.57 280.57"
fill="none" stroke="black" stroke-width="0.5"/>
<path d="M762.11 523.92L778.43 495.64"
fill="none" stroke="black" stroke-width="0.5"/>
<path d="M370.26 523.92L386.59 495.64"
fill="none" stroke="black" stroke-width="0.5"/>
<path d="M566.18 184.57L582.51 156.29"
fill="none" stroke="black" stroke-width="0.5"/>
<path d="M174.33 184.57L190.66 156.29"
fill="none" stroke="black" stroke-width="0.5"/>
<path d="M762.11 523.92L745.78 495.64"
fill="none" stroke="black" stroke-width="0.5"/>
<path d="M566.18 184.57L549.86 156.29"
fill="none" stroke="black" stroke-width="0.5"/>
<path d="M370.26 523.92L353.93 495.64"
fill="none" stroke="black" stroke-width="0.5"/>
<path d="M174.33 184.57L158.01 156.29"
fill="none" stroke="black" stroke-width="0.5"/>
<path d="M761.97 458.95L778.3 430.67"
fill="none" stroke="black" stroke-width="0.5"/>
<path d="M370.13 458.95L386.45 430.67"
fill="none" stroke="black" stroke-width="0.5"/>
<path d="M566.05 119.6L582.38 91.32"
fill="none" stroke="black" stroke-width="0.5"/>
<path d="M174.2 119.6L190.53 91.32"
fill="none" stroke="black" stroke-width="0.5"/>
<path d="M761.97 458.95L745.65 430.67"
fill="none" stroke="black" stroke-width="0.5"/>
<path d="M566.05 119.6L549.72 91.32"
fill="none" stroke="black" stroke-width="0.5"/>
<path d="M370.13 458.95L353.8 430.67"
fill="none" stroke="black" stroke-width="0.5"/>
<path d="M174.2 119.6L157.88 91.32"
fill="none" stroke="black" stroke-width="0.5"/>
<path d="M423.15 733.27L439.48 704.99"
fill="none" stroke="black" stroke-width="0.5"/>
<path d="M619.07 393.92L635.4 365.64"
fill="none" stroke="black" stroke-width="0.5"/>
<path d="M31.31 733.27L47.63 704.99"
fill="none" stroke="black" stroke-width="0.5"/>
<path d="M227.23 393.92L243.56 365.64"
fill="none" stroke="black" stroke-width="0.5"/>
<path d="M619.07 393.92L602.75 365.64"
fill="none" stroke="black" stroke-width="0.5"/>
<path d="M423.15 733.27L406.83 704.99"
fill="none" stroke="black" stroke-width="0.5"/>
<path d="M227.23 393.92L210.9 365.64"
fill="none" stroke="black" stroke-width="0.5"/>
<path d="M31.3 733.27L14.98 704.99"
fill="none" stroke="black" stroke-width="0.5"/>
<path d="M431.96 656.15L448.29 627.87"
fill="none" stroke="black" stroke-width="0.5"/>
<path d="M627.89 316.8L644.22 288.52"
fill="none" stroke="black" stroke-width="0.5"/>
<path d="M40.12 656.15L56.44 627.87"
fill="none" stroke="black" stroke-width="0.5"/>
<path d="M236.04 316.8L252.37 288.52"
fill="none" stroke="black" stroke-width="0.5"/>
<path d="M627.89 316.8L611.56 288.52"
fill="none" stroke="black" stroke-width="0.5"/>
<path d="M431.96 656.15L415.64 627.87"
fill="none" stroke="black" stroke-width="0.5"/>
<path d="M236.04 316.8L219.71 288.52"
fill="none" stroke="black" stroke-width="0.5"/>
<path d="M40.12 656.15L23.79 627.87"
fill="none" stroke="black" stroke-width="0.5"/>
<path d="M437.88 591.33L454.21 563.05"
fill="none" stroke="black" stroke-width="0.5"/>
<path d="M633.8 251.98L650.13 223.71"
fill="none" stroke="black" stroke-width="0.5"/>
<path d="M46.03 591.33L62.36 563.05"
fill="none" stroke="black" stroke-width="0.5"/>
<path d="M241.95 251.98L258.28 223.71"
fill="none" stroke="black" stroke-width="0.5"/>
<path d="M633.8 251.98L617.47 223.71"
fill="none" stroke="black" stroke-width="0.5"/>
<path d="M437.88 591.33L421.55 563.05"
fill="none" stroke="black" stroke-width="0.5"/>
<path d="M241.95 251.98L225.63 223.71"
fill="none" stroke="black" stroke-width="0.5"/>
<path d="M46.03 591.33L29.7 563.05"
fill="none" stroke="black" stroke-width="0.5"/>
<path d="M414.29 506.53L430.62 478.25"
fill="none" stroke="black" stroke-width="0.5"/>
<path d="M610.21 167.18L626.54 138.9"
fill="none" stroke="black" stroke-width="0.5"/>
<path d="M22.44 506.53L38.77 478.25"
fill="none" stroke="black" stroke-width="0.5"/>
<path d="M218.37 167.18L234.69 138.9"
fill="none" stroke="black" stroke-width="0.5"/>
<path d="M610.21 167.18L593.89 138.9"
fill="none" stroke="black" stroke-width="0.5"/>
<path d="M414.29 506.53L397.96 478.25"
fill="none" stroke="black" stroke-width="0.5"/>
<path d="M218.37 167.18L202.04 138.9"
fill="none" stroke="black" stroke-width="0.5"/>
<path d="M22.44 506.53L6.12 478.25"
fill="none" stroke="black" stroke-width="0.5"/>
<path d="M466.9 702.37L483.22 674.09"
fill="none" stroke="black" stroke-width="0.5"/>
<path d="M662.82 363.02L679.15 334.74"
fill="none" stroke="black" stroke-width="0.5"/>
<path d="M75.05 702.37L91.38 674.09"
fill="none" stroke="black" stroke-width="0.5"/>
<path d="M270.97 363.02L287.3 334.74"
fill="none" stroke="black" stroke-width="0.5"/>
<path d="M662.82 363.02L646.49 334.74"
fill="none" stroke="black" stroke-width="0.5"/>
<path d="M466.9 702.37L450.57 674.09"
fill="none" stroke="black" stroke-width="0.5"/>
<path d="M270.97 363.02L254.65 334.74"
fill="none" stroke="black" stroke-width="0.5"/>
<path d="M75.05 702.37L58.72 674.09"
fill="none" stroke="black" stroke-width="0.5"/>
<path d="M457.77 617.05L474.1 588.77"
fill="none" stroke="black" stroke-width="0.5"/>
<path d="M653.69 277.7L670.02 249.42"
fill="none" stroke="black" stroke-width="0.5"/>
<path d="M65.92 617.05L82.25 588.77"
fill="none" stroke="black" stroke-width="0.5"/>
<path d="M261.84 277.7L278.17 249.42"
fill="none" stroke="black" stroke-width="0.5"/>
<path d="M653.69 277.7L637.37 249.42"
fill="none" stroke="black" stroke-width="0.5"/>
<path d="M457.77 617.05L441.44 588.77"
fill="none" stroke="black" stroke-width="0.5"/>
<path d="M261.84 277.7L245.52 249.42"
fill="none" stroke="black" stroke-width="0.5"/>
<path d="M65.92 617.05L49.59 588.77"
fill="none" stroke="black" stroke-width="0.5"/>
<path d="M486.84 568.84L503.17 540.56"
fill="none" stroke="black" stroke-width="0.5"/>
<path d="M682.76 229.49L699.09 201.21"
fill="none" stroke="black" stroke-width="0.5"/>
<path d="M94.99 568.84L111.32 540.56"
fill="none" stroke="black" stroke-width="0.5"/>
<path d="M290.92 229.49L307.24 201.21"
fill="none" stroke="black" stroke-width="0.5"/>
<path d="M682.76 229.49L666.44 201.21"
fill="none" stroke="black" stroke-width="0.5"/>
<path d="M486.84 568.84L470.51 540.56"
fill="none" stroke="black" stroke-width="0.5"/>
<path d="M290.92 229.49L274.59 201.21"
fill="none" stroke="black" stroke-width="0.5"/>
<path d="M94.99 568.84L78.67 540.56"
fill="none" stroke="black" stroke-width="0.5"/>
<path d="M471.45 469.06L487.78 440.78"
fill="none" stroke="black" stroke-width="0.5"/>
<path d="M667.37 129.71L683.7 101.44"
fill="none" stroke="black" stroke-width="0.5"/>
<path d="M79.6 469.06L95.93 440.78"
fill="none" stroke="black" stroke-width="0.5"/>
<path d="M275.52 129.71L291.85 101.44"
fill="none" stroke="black" stroke-width="0.5"/>
<path d="M667.37 129.71L651.04 101.44"
fill="none" stroke="black" stroke-width="0.5"/>
<path d="M471.45 469.06L455.12 440.78"
fill="none" stroke="black" stroke-width="0.5"/>
<path d="M275.52 129.71L259.2 101.44"
fill="none" stroke="black" stroke-width="0.5"/>
<path d="M79.6 469.06L63.27 440.78"
fill="none" stroke="black" stroke-width="0.5"/>
<path d="M704.63 441.78L720.96 413.5"
fill="none" stroke="black" stroke-width="0.5"/>
<path d="M312.78 441.78L329.11 413.5"
fill="none" stroke="black" stroke-width="0.5"/>
<path d="M508.71 102.43L525.03 74.15"
fill="none" stroke="black" stroke-width="0.5"/>
<path d="M116.86 102.43L133.19 74.15"
fill="none" stroke="black" stroke-width="0.5"/>
<path d="M704.63 441.78L688.3 413.5"
fill="none" stroke="black" stroke-width="0.5"/>
<path d="M508.71 102.43L492.38 74.15"
fill="none" stroke="black" stroke-width="0.5"/>
<path d="M312.78 441.78L296.46 413.5"
fill="none" stroke="black" stroke-width="0.5"/>
<path d="M116.86 102.43L100.54 74.15"
fill="none" stroke="black" stroke-width="0.5"/>
<path d="M524.22 671.15L540.55 642.87"
fill="none" stroke="black" stroke-width="0.5"/>
<path d="M720.14 331.8L736.47 303.52"
fill="none" stroke="black" stroke-width="0.5"/>
<path d="M132.37 671.15L148.7 642.87"
fill="none" stroke="black" stroke-width="0.5"/>
<path d="M328.3 331.8L344.62 303.52"
fill="none" stroke="black" stroke-width="0.5"/>
<path d="M720.14 331.8L703.82 303.52"
fill="none" stroke="black" stroke-width="0.5"/>
<path d="M524.22 671.15L507.89 642.87"
fill="none" stroke="black" stroke-width="0.5"/>
<path d="M328.3 331.8L311.97 303.52"
fill="none" stroke="black" stroke-width="0.5"/>
<path d="M132.37 671.15L116.05 642.87"
fill="none" stroke="black" stroke-width="0.5"/>
<path d="M511.32 598.94L527.64 570.67"
fill="none" stroke="black" stroke-width="0.5"/>
<path d="M707.24 259.59L723.56 231.32"
fill="none" stroke="black" stroke-width="0.5"/>
<path d="M119.47 598.94L135.8 570.67"
fill="none" stroke="black" stroke-width="0.5"/>
<path d="M315.39 259.59L331.72 231.32"
fill="none" stroke="black" stroke-width="0.5"/>
<path d="M707.24 259.59L690.91 231.32"
fill="none" stroke="black" stroke-width="0.5"/>
<path d="M511.32 598.94L494.99 570.67"
fill="none" stroke="black" stroke-width="0.5"/>
<path d="M315.39 259.59L299.06 231.32"
fill="none" stroke="black" stroke-width="0.5"/>
<path d="M119.47 598.94L103.14 570.67"
fill="none" stroke="black" stroke-width="0.5"/>
<path d="M508.91 519L525.23 490.72"
fill="none" stroke="black" stroke-width="0.5"/>
<path d="M704.83 179.65L721.16 151.37"
fill="none" stroke="black" stroke-width="0.5"/>
<path d="M117.06 519L133.39 490.72"
fill="none" stroke="black" stroke-width="0.5"/>
<path d="M312.98 179.65L329.31 151.37"
fill="none" stroke="black" stroke-width="0.5"/>
<path d="M704.83 179.65L688.5 151.37"
fill="none" stroke="black" stroke-width="0.5"/>
<path d="M508.91 519L492.58 490.72"
fill="none" stroke="black" stroke-width="0.5"/>
<path d="M312.98 179.65L296.66 151.37"
fill="none" stroke="black" stroke-width="0.5"/>
<path d="M117.06 519L100.73 490.72"
fill="none" stroke="black" stroke-width="0.5"/>
<path d="M558.48 724.42L574.8 696.14"
fill="none" stroke="black" stroke-width="0.5"/>
<path d="M754.4 385.07L770.73 356.79"
fill="none" stroke="black" stroke-width="0.5"/>
<path d="M166.63 724.42L182.96 696.14"
fill="none" stroke="black" stroke-width="0.5"/>
<path d="M362.55 385.07L378.88 356.79"
fill="none" stroke="black" stroke-width="0.5"/>
<path d="M754.4 385.07L738.07 356.79"
fill="none" stroke="black" stroke-width="0.5"/>
<path d="M558.48 724.42L542.15 696.14"
fill="none" stroke="black" stroke-width="0.5"/>
<path d="M362.55 385.07L346.22 356.79"
fill="none" stroke="black" stroke-width="0.5"/>
<path d="M166.63 724.42L150.3 696.14"
fill="none" stroke="black" stroke-width="0.5"/>
<path d="M559.52 642.71L575.85 614.43"
fill="none" stroke="black" stroke-width="0.5"/>
<path d="M755.44 303.36L771.77 275.08"
fill="none" stroke="black" stroke-width="0.5"/>
<path d="M167.67 642.71L184 614.43"
fill="none" stroke="black" stroke-width="0.5"/>
<path d="M363.6 303.36L379.92 275.08"
fill="none" stroke="black" stroke-width="0.5"/>
<path d="M755.44 303.36L739.12 275.08"
fill="none" stroke="black" stroke-width="0.5"/>
<path d="M559.52 642.71L543.19 614.43"
fill="none" stroke="black" stroke-width="0.5"/>
<path d="M363.6 303.36L347.27 275.08"
fill="none" stroke="black" stroke-width="0.5"/>
<path d="M167.67 642.71L151.34 614.43"
fill="none" stroke="black" stroke-width="0.5"/>
<path d="M563.35 537.37L579.68 509.09"
fill="none" stroke="black" stroke-width="0.5"/>
<path d="M759.28 198.02L775.6 169.74"
fill="none" stroke="black" stroke-width="0.5"/>
<path d="M171.51 537.37L187.83 509.09"
fill="none" stroke="black" stroke-width="0.5"/>
<path d="M367.43 198.02L383.76 169.74"
fill="none" stroke="black" stroke-width="0.5"/>
<path d="M759.28 198.02L742.95 169.74"
fill="none" stroke="black" stroke-width="0.5"/>
<path d="M563.35 537.37L547.03 509.09"
fill="none" stroke="black" stroke-width="0.5"/>
<path d="M367.43 198.02L351.1 169.74"
fill="none" stroke="black" stroke-width="0.5"/>
<path d="M171.51 537.37L155.18 509.09"
fill="none" stroke="black" stroke-width="0.5"/>
<path d="M573.31 446.44L589.63 418.16"
fill="none" stroke="black" stroke-width="0.5"/>
<path d="M769.23 107.09L785.56 78.81"
fill="none" stroke="black" stroke-width="0.5"/>
<path d="M181.46 446.44L197.79 418.16"
fill="none" stroke="black" stroke-width="0.5"/>
<path d="M377.38 107.09L393.71 78.81"
fill="none" stroke="black" stroke-width="0.5"/>
<path d="M769.23 107.09L752.9 78.81"
fill="none" stroke="black" stroke-width="0.5"/>
<path d="M573.31 446.44L556.98 418.16"
fill="none" stroke="black" stroke-width="0.5"/>
<path d="M377.38 107.09L361.06 78.81"
fill="none" stroke="black" stroke-width="0.5"/>
<path d="M181.46 446.44L165.13 418.16"
fill="none" stroke="black" stroke-width="0.5"/>
</svg>
