<?xml version="1.0" encoding="UTF-8"?>
<svg xmlns="http://www.w3.org/2000/svg" width="99.949mm" height="99.949mm" viewBox="0.0 0.0 787.000 787.000" preserveAspectRatio="none" version="1.1">
  <title>Produce by Acme CAD Converter</title>
  <desc>Produce by Acme CAD Converter</desc>
<path d="M188.14 785.56L225.48 785.56"
fill="none" stroke="black" stroke-width="0.5"/>
<path d="M437.06 785.56L474.4 785.56"
fill="none" stroke="black" stroke-width="0.5"/>
<path d="M312.6 536.63L349.94 536.63"
fill="none" stroke="black" stroke-width="0.5"/>
<path d="M561.52 536.63L598.86 536.63"
fill="none" stroke="black" stroke-width="0.5"/>
<path d="M188.14 287.71L225.48 287.71"
fill="none" stroke="black" stroke-width="0.5"/>
<path d="M437.06 287.71L474.4 287.71"
fill="none" stroke="black" stroke-width="0.5"/>
<path d="M312.6 38.78L349.94 38.78"
fill="none" stroke="black" stroke-width="0.5"/>
<path d="M561.52 38.78L598.86 38.78"
fill="none" stroke="black" stroke-width="0.5"/>
<path d="M188.14 748.22L225.48 748.22"
fill="none" stroke="black" stroke-width="0.5"/>
<path d="M437.06 748.22L474.4 748.22"
fill="none" stroke="black" stroke-width="0.5"/>
<path d="M312.6 499.29L349.94 499.29"
fill="none" stroke="black" stroke-width="0.5"/>
<path d="M561.52 499.29L598.86 499.29"
fill="none" stroke="black" stroke-width="0.5"/>
<path d="M188.14 250.37L225.48 250.37"
fill="none" stroke="black" stroke-width="0.5"/>
<path d="M437.06 250.37L474.4 250.37"
fill="none" stroke="black" stroke-width="0.5"/>
<path d="M312.6 1.44L349.94 1.44"
fill="none" stroke="black" stroke-width="0.5"/>
<path d="M561.52 1.44L598.86 1.44"
fill="none" stroke="black" stroke-width="0.5"/>
<path d="M561.52 536.63L561.52 499.29"
fill="none" stroke="black" stroke-width="0.5"/>
<path d="M561.52 38.78L561.52 1.44"
fill="none" stroke="black" stroke-width="0.5"/>
<path d="M437.06 785.56L437.06 748.22"
fill="none" stroke="black" stroke-width="0.5"/>
<path d="M437.06 287.71L437.06 250.37"
fill="none" stroke="black" stroke-width="0.5"/>
<path d="M312.6 536.63L312.6 499.29"
fill="none" stroke="black" stroke-width="0.5"/>
<path d="M312.6 38.78L312.6 1.44"
fill="none" stroke="black" stroke-width="0.5"/>
<path d="M188.14 785.56L188.14 748.22"
fill="none" stroke="black" stroke-width="0.5"/>
<path d="M188.14 287.71L188.14 250.37"
fill="none" stroke="black" stroke-width="0.5"/>
<path d="M598.86 536.63L598.86 499.29"
fill="none" stroke="black" stroke-width="0.5"/>
<path d="M598.86 38.78L598.86 1.44"
fill="none" stroke="black" stroke-width="0.5"/>
<path d="M474.4 785.56L474.4 748.22"
fill="none" stroke="black" stroke-width="0.5"/>
<path d="M474.4 287.71L474.4 250.37"
fill="none" stroke="black" stroke-width="0.5"/>
<path d="M349.94 536.63L349.94 499.29"
fill="none" stroke="black" stroke-width="0.5"/>
<path d="M349.94 38.78L349.94 1.44"
fill="none" stroke="black" stroke-width="0.5"/>
<path d="M225.48 785.56L225.48 748.22"
fill="none" stroke="black" stroke-width="0.5"/>
<path d="M225.48 287.71L225.48 250.37"
fill="none" stroke="black" stroke-width="0.5"/>
</svg>
