<?xml version="1.0" encoding="UTF-8"?>
<svg xmlns="http://www.w3.org/2000/svg" width="99.949mm" height="99.949mm" viewBox="0.0 0.0 787.000 787.000" preserveAspectRatio="none" version="1.1">
  <title>Produce by Acme CAD Converter</title>
  <desc>Produce by Acme CAD Converter</desc>
<path d="M192.69 785.56L211.81 785.56"
fill="none" stroke="black" stroke-width="0.5"/>
<path d="M447.69 785.56L466.81 785.56"
fill="none" stroke="black" stroke-width="0.5"/>
<path d="M320.19 530.56L339.31 530.56"
fill="none" stroke="black" stroke-width="0.5"/>
<path d="M575.19 530.56L594.31 530.56"
fill="none" stroke="black" stroke-width="0.5"/>
<path d="M192.69 275.56L211.81 275.56"
fill="none" stroke="black" stroke-width="0.5"/>
<path d="M447.69 275.56L466.81 275.56"
fill="none" stroke="black" stroke-width="0.5"/>
<path d="M320.19 20.57L339.31 20.57"
fill="none" stroke="black" stroke-width="0.5"/>
<path d="M575.19 20.57L594.31 20.57"
fill="none" stroke="black" stroke-width="0.5"/>
<path d="M192.69 766.43L211.81 766.43"
fill="none" stroke="black" stroke-width="0.5"/>
<path d="M447.69 766.43L466.81 766.43"
fill="none" stroke="black" stroke-width="0.5"/>
<path d="M320.19 511.44L339.31 511.44"
fill="none" stroke="black" stroke-width="0.5"/>
<path d="M575.19 511.44L594.31 511.44"
fill="none" stroke="black" stroke-width="0.5"/>
<path d="M192.69 256.44L211.81 256.44"
fill="none" stroke="black" stroke-width="0.5"/>
<path d="M447.69 256.44L466.81 256.44"
fill="none" stroke="black" stroke-width="0.5"/>
<path d="M320.19 1.44L339.31 1.44"
fill="none" stroke="black" stroke-width="0.5"/>
<path d="M575.19 1.44L594.31 1.44"
fill="none" stroke="black" stroke-width="0.5"/>
<path d="M575.19 530.56L575.19 511.44"
fill="none" stroke="black" stroke-width="0.5"/>
<path d="M575.19 20.57L575.19 1.44"
fill="none" stroke="black" stroke-width="0.5"/>
<path d="M447.69 785.56L447.69 766.43"
fill="none" stroke="black" stroke-width="0.5"/>
<path d="M447.69 275.56L447.69 256.44"
fill="none" stroke="black" stroke-width="0.5"/>
<path d="M320.19 530.56L320.19 511.44"
fill="none" stroke="black" stroke-width="0.5"/>
<path d="M320.19 20.57L320.19 1.44"
fill="none" stroke="black" stroke-width="0.5"/>
<path d="M192.69 785.56L192.69 766.43"
fill="none" stroke="black" stroke-width="0.5"/>
<path d="M192.69 275.56L192.69 256.44"
fill="none" stroke="black" stroke-width="0.5"/>
<path d="M594.31 530.56L594.31 511.44"
fill="none" stroke="black" stroke-width="0.5"/>
<path d="M594.31 20.57L594.31 1.44"
fill="none" stroke="black" stroke-width="0.5"/>
<path d="M466.81 785.56L466.81 766.43"
fill="none" stroke="black" stroke-width="0.5"/>
<path d="M466.81 275.56L466.81 256.44"
fill="none" stroke="black" stroke-width="0.5"/>
<path d="M339.31 530.56L339.31 511.44"
fill="none" stroke="black" stroke-width="0.5"/>
<path d="M339.31 20.57L339.31 1.44"
fill="none" stroke="black" stroke-width="0.5"/>
<path d="M211.81 785.56L211.81 766.43"
fill="none" stroke="black" stroke-width="0.5"/>
<path d="M211.81 275.56L211.81 256.44"
fill="none" stroke="black" stroke-width="0.5"/>
</svg>
