<?xml version="1.0" encoding="UTF-8"?>
<svg xmlns="http://www.w3.org/2000/svg" width="99.949mm" height="99.949mm" viewBox="0.0 0.0 787.000 787.000" preserveAspectRatio="none" version="1.1">
  <title>Produce by Acme CAD Converter</title>
  <desc>Produce by Acme CAD Converter</desc>
<path d="M1.44 785.56L20.57 785.56"
fill="none" stroke="black" stroke-width="0.5"/>
<path d="M256.44 785.56L275.56 785.56"
fill="none" stroke="black" stroke-width="0.5"/>
<path d="M511.44 785.56L530.56 785.56"
fill="none" stroke="black" stroke-width="0.5"/>
<path d="M766.43 785.56L785.56 785.56"
fill="none" stroke="black" stroke-width="0.5"/>
<path d="M1.44 275.56L20.57 275.56"
fill="none" stroke="black" stroke-width="0.5"/>
<path d="M256.44 275.56L275.56 275.56"
fill="none" stroke="black" stroke-width="0.5"/>
<path d="M511.44 275.56L530.56 275.56"
fill="none" stroke="black" stroke-width="0.5"/>
<path d="M766.43 275.56L785.56 275.56"
fill="none" stroke="black" stroke-width="0.5"/>
<path d="M1.44 766.43L20.57 766.43"
fill="none" stroke="black" stroke-width="0.5"/>
<path d="M256.44 766.43L275.56 766.43"
fill="none" stroke="black" stroke-width="0.5"/>
<path d="M511.44 766.43L530.56 766.43"
fill="none" stroke="black" stroke-width="0.5"/>
<path d="M766.43 766.43L785.56 766.43"
fill="none" stroke="black" stroke-width="0.5"/>
<path d="M1.44 256.44L20.57 256.44"
fill="none" stroke="black" stroke-width="0.5"/>
<path d="M256.44 256.44L275.56 256.44"
fill="none" stroke="black" stroke-width="0.5"/>
<path d="M511.44 256.44L530.56 256.44"
fill="none" stroke="black" stroke-width="0.5"/>
<path d="M766.43 256.44L785.56 256.44"
fill="none" stroke="black" stroke-width="0.5"/>
<path d="M766.43 785.56L766.43 766.43"
fill="none" stroke="black" stroke-width="0.5"/>
<path d="M766.43 275.56L766.43 256.44"
fill="none" stroke="black" stroke-width="0.5"/>
<path d="M511.44 785.56L511.44 766.43"
fill="none" stroke="black" stroke-width="0.5"/>
<path d="M511.44 275.56L511.44 256.44"
fill="none" stroke="black" stroke-width="0.5"/>
<path d="M256.44 785.56L256.44 766.43"
fill="none" stroke="black" stroke-width="0.5"/>
<path d="M256.44 275.56L256.44 256.44"
fill="none" stroke="black" stroke-width="0.5"/>
<path d="M1.44 785.56L1.44 766.43"
fill="none" stroke="black" stroke-width="0.5"/>
<path d="M1.44 275.56L1.44 256.44"
fill="none" stroke="black" stroke-width="0.5"/>
<path d="M785.56 785.56L785.56 766.43"
fill="none" stroke="black" stroke-width="0.5"/>
<path d="M785.56 275.56L785.56 256.44"
fill="none" stroke="black" stroke-width="0.5"/>
<path d="M530.56 785.56L530.56 766.43"
fill="none" stroke="black" stroke-width="0.5"/>
<path d="M530.56 275.56L530.56 256.44"
fill="none" stroke="black" stroke-width="0.5"/>
<path d="M275.56 785.56L275.56 766.43"
fill="none" stroke="black" stroke-width="0.5"/>
<path d="M275.56 275.56L275.56 256.44"
fill="none" stroke="black" stroke-width="0.5"/>
<path d="M20.57 785.56L20.57 766.43"
fill="none" stroke="black" stroke-width="0.5"/>
<path d="M20.57 275.56L20.57 256.44"
fill="none" stroke="black" stroke-width="0.5"/>
<path d="M148.07 530.56L167.19 530.56"
fill="none" stroke="black" stroke-width="0.5"/>
<path d="M658.06 530.56L677.18 530.56"
fill="none" stroke="black" stroke-width="0.5"/>
<path d="M148.07 20.57L167.19 20.57"
fill="none" stroke="black" stroke-width="0.5"/>
<path d="M658.06 20.57L677.18 20.57"
fill="none" stroke="black" stroke-width="0.5"/>
<path d="M148.07 511.44L167.19 511.44"
fill="none" stroke="black" stroke-width="0.5"/>
<path d="M658.06 511.44L677.18 511.44"
fill="none" stroke="black" stroke-width="0.5"/>
<path d="M148.07 1.44L167.19 1.44"
fill="none" stroke="black" stroke-width="0.5"/>
<path d="M658.06 1.44L677.18 1.44"
fill="none" stroke="black" stroke-width="0.5"/>
<path d="M658.06 530.56L658.06 511.44"
fill="none" stroke="black" stroke-width="0.5"/>
<path d="M658.06 20.57L658.06 1.44"
fill="none" stroke="black" stroke-width="0.5"/>
<path d="M148.07 530.56L148.07 511.44"
fill="none" stroke="black" stroke-width="0.5"/>
<path d="M148.07 20.57L148.07 1.44"
fill="none" stroke="black" stroke-width="0.5"/>
<path d="M677.18 530.56L677.18 511.44"
fill="none" stroke="black" stroke-width="0.5"/>
<path d="M677.18 20.57L677.18 1.44"
fill="none" stroke="black" stroke-width="0.5"/>
<path d="M167.19 530.56L167.19 511.44"
fill="none" stroke="black" stroke-width="0.5"/>
<path d="M167.19 20.57L167.19 1.44"
fill="none" stroke="black" stroke-width="0.5"/>
</svg>
