<?xml version="1.0" encoding="UTF-8"?>
<svg xmlns="http://www.w3.org/2000/svg" width="99.949mm" height="99.949mm" viewBox="0.0 0.0 787.000 787.000" preserveAspectRatio="none" version="1.1">
  <title>Produce by Acme CAD Converter</title>
  <desc>Produce by Acme CAD Converter</desc>
<path d="M1.44 772.91L178.5 772.91"
fill="none" stroke="black" stroke-width="0.5"/>
<path d="M406.15 772.91L583.21 772.91"
fill="none" stroke="black" stroke-width="0.5"/>
<path d="M203.79 519.97L380.85 519.97"
fill="none" stroke="black" stroke-width="0.5"/>
<path d="M608.5 519.97L785.56 519.97"
fill="none" stroke="black" stroke-width="0.5"/>
<path d="M1.44 267.03L178.5 267.03"
fill="none" stroke="black" stroke-width="0.5"/>
<path d="M406.15 267.03L583.21 267.03"
fill="none" stroke="black" stroke-width="0.5"/>
<path d="M203.79 14.09L380.85 14.09"
fill="none" stroke="black" stroke-width="0.5"/>
<path d="M608.5 14.09L785.56 14.09"
fill="none" stroke="black" stroke-width="0.5"/>
<path d="M284.74 780.5L299.91 780.5"
fill="none" stroke="black" stroke-width="0.5"/>
<path d="M689.44 780.5L704.62 780.5"
fill="none" stroke="black" stroke-width="0.5"/>
<path d="M82.38 527.56L97.56 527.56"
fill="none" stroke="black" stroke-width="0.5"/>
<path d="M487.09 527.56L502.26 527.56"
fill="none" stroke="black" stroke-width="0.5"/>
<path d="M284.74 274.62L299.91 274.62"
fill="none" stroke="black" stroke-width="0.5"/>
<path d="M689.44 274.62L704.62 274.62"
fill="none" stroke="black" stroke-width="0.5"/>
<path d="M82.38 21.68L97.56 21.68"
fill="none" stroke="black" stroke-width="0.5"/>
<path d="M487.09 21.68L502.26 21.68"
fill="none" stroke="black" stroke-width="0.5"/>
<path d="M284.74 765.32L299.91 765.32"
fill="none" stroke="black" stroke-width="0.5"/>
<path d="M689.44 765.32L704.62 765.32"
fill="none" stroke="black" stroke-width="0.5"/>
<path d="M82.38 512.38L97.56 512.38"
fill="none" stroke="black" stroke-width="0.5"/>
<path d="M487.09 512.38L502.26 512.38"
fill="none" stroke="black" stroke-width="0.5"/>
<path d="M284.74 259.44L299.91 259.44"
fill="none" stroke="black" stroke-width="0.5"/>
<path d="M689.44 259.44L704.62 259.44"
fill="none" stroke="black" stroke-width="0.5"/>
<path d="M82.38 6.5L97.56 6.5"
fill="none" stroke="black" stroke-width="0.5"/>
<path d="M487.09 6.5L502.26 6.5"
fill="none" stroke="black" stroke-width="0.5"/>
<path d="M689.44 780.5L689.44 765.32"
fill="none" stroke="black" stroke-width="0.5"/>
<path d="M689.44 274.62L689.44 259.44"
fill="none" stroke="black" stroke-width="0.5"/>
<path d="M487.09 527.56L487.09 512.38"
fill="none" stroke="black" stroke-width="0.5"/>
<path d="M487.09 21.68L487.09 6.5"
fill="none" stroke="black" stroke-width="0.5"/>
<path d="M284.74 780.5L284.74 765.32"
fill="none" stroke="black" stroke-width="0.5"/>
<path d="M284.74 274.62L284.74 259.44"
fill="none" stroke="black" stroke-width="0.5"/>
<path d="M82.38 527.56L82.38 512.38"
fill="none" stroke="black" stroke-width="0.5"/>
<path d="M82.38 21.68L82.38 6.5"
fill="none" stroke="black" stroke-width="0.5"/>
<path d="M704.62 780.5L704.62 765.32"
fill="none" stroke="black" stroke-width="0.5"/>
<path d="M704.62 274.62L704.62 259.44"
fill="none" stroke="black" stroke-width="0.5"/>
<path d="M502.26 527.56L502.26 512.38"
fill="none" stroke="black" stroke-width="0.5"/>
<path d="M502.26 21.68L502.26 6.5"
fill="none" stroke="black" stroke-width="0.5"/>
<path d="M299.91 780.5L299.91 765.32"
fill="none" stroke="black" stroke-width="0.5"/>
<path d="M299.91 274.62L299.91 259.44"
fill="none" stroke="black" stroke-width="0.5"/>
<path d="M97.56 527.56L97.56 512.38"
fill="none" stroke="black" stroke-width="0.5"/>
<path d="M97.56 21.68L97.56 6.5"
fill="none" stroke="black" stroke-width="0.5"/>
</svg>
