<?xml version="1.0" encoding="UTF-8"?>
<svg xmlns="http://www.w3.org/2000/svg" width="99.949mm" height="99.949mm" viewBox="0.0 0.0 787.000 787.000" preserveAspectRatio="none" version="1.1">
  <title>Produce by Acme CAD Converter</title>
  <desc>Produce by Acme CAD Converter</desc>
<path d="M25.95 785.56L27.17 785.56"
fill="none" stroke="black" stroke-width="0.5"/>
<path d="M210.95 785.56L394.73 785.56"
fill="none" stroke="black" stroke-width="0.5"/>
<path d="M578.5 785.56L761.05 785.56"
fill="none" stroke="black" stroke-width="0.5"/>
<path d="M27.17 540.52L210.95 540.52"
fill="none" stroke="black" stroke-width="0.5"/>
<path d="M394.73 540.52L578.5 540.52"
fill="none" stroke="black" stroke-width="0.5"/>
<path d="M25.95 295.49L27.17 295.49"
fill="none" stroke="black" stroke-width="0.5"/>
<path d="M210.95 295.49L394.73 295.49"
fill="none" stroke="black" stroke-width="0.5"/>
<path d="M578.5 295.49L761.05 295.49"
fill="none" stroke="black" stroke-width="0.5"/>
<path d="M27.17 50.45L210.95 50.45"
fill="none" stroke="black" stroke-width="0.5"/>
<path d="M394.73 50.45L578.5 50.45"
fill="none" stroke="black" stroke-width="0.5"/>
<path d="M25.95 736.55L27.17 736.55"
fill="none" stroke="black" stroke-width="0.5"/>
<path d="M210.95 736.55L394.73 736.55"
fill="none" stroke="black" stroke-width="0.5"/>
<path d="M578.5 736.55L761.05 736.55"
fill="none" stroke="black" stroke-width="0.5"/>
<path d="M27.17 491.51L210.95 491.51"
fill="none" stroke="black" stroke-width="0.5"/>
<path d="M394.73 491.51L578.5 491.51"
fill="none" stroke="black" stroke-width="0.5"/>
<path d="M25.95 246.48L27.17 246.48"
fill="none" stroke="black" stroke-width="0.5"/>
<path d="M210.95 246.48L394.73 246.48"
fill="none" stroke="black" stroke-width="0.5"/>
<path d="M578.5 246.48L761.05 246.48"
fill="none" stroke="black" stroke-width="0.5"/>
<path d="M27.17 1.44L210.95 1.44"
fill="none" stroke="black" stroke-width="0.5"/>
<path d="M394.73 1.44L578.5 1.44"
fill="none" stroke="black" stroke-width="0.5"/>
</svg>
